<?xml version="1.0" encoding="utf-8"?>
<!-- Generator: Adobe Illustrator 24.2.0, SVG Export Plug-In . SVG Version: 6.00 Build 0)  -->
<svg version="1.1" id="line" xmlns="http://www.w3.org/2000/svg" xmlns:xlink="http://www.w3.org/1999/xlink" x="0px" y="0px"
	 viewBox="0 0 300 200" style="enable-background:new 0 0 300 200;" xml:space="preserve">
<style type="text/css">
	.st0{fill:#BCDFDF;}
	.st1{fill:#99D3DD;}
	.st2{fill:#ABCB58;}
	.st3{fill:#C7D555;}
	.st4{fill:#FFFFFF;}
	.st5{fill:#AAB4B9;}
	.st6{fill:#FDDBBF;}
	.st7{fill:#F4CA99;}
	.st8{fill:#DC9F5C;}
	.st9{fill:#F6B1AC;}
	.st10{fill:#651811;}
	.st11{fill:#E9E56D;}
	.st12{fill:#9BC0D5;}
	.st13{fill:#DDE8F0;}
	.st14{fill:#EF7C68;}
	.st15{fill:#FFE1A2;}
	.st16{fill:#E9F4F4;}
	.st17{fill:#CDD95F;}
	.st18{fill:#B2DCDA;}
	.st19{fill:#9DAEB9;}
	.st20{fill:#F0EA7A;}
	.st21{fill:#CCDB81;}
	.st22{fill:#F4A5AD;}
	.st23{fill:#B2B2B2;}
	.st24{fill:#C0C4C6;}
	.st25{fill:#E3E8EA;}
	.st26{fill:#FFDB83;}
	.st27{fill:#C0C0C0;}
	.st28{fill:#6EC6D9;}
	.st29{fill:#878D91;}
	.st30{fill:#F0867B;}
	.st31{fill:#FFDE90;}
	.st32{fill:#C53C6C;}
	.st33{fill:#EEBF6D;}
	.st34{fill:#903D8F;}
	.st35{fill:#514E9C;}
	.st36{fill:#F9BB7A;}
	.st37{fill:#F28F6C;}
	.st38{fill:#FFE586;}
	.st39{fill:#6FC5D3;}
	.st40{fill:#9BD4E4;}
	.st41{fill:#F6B9C2;}
	.st42{fill:#F4A08B;}
	.st43{fill:#D1E8E8;}
	.st44{fill:#FCC249;}
	.st45{fill:#9F5A24;}
	.st46{fill:#BCE4FA;}
	.st47{fill:#B07147;}
	.st48{fill:#D88959;}
	.st49{fill:#FFEC96;}
	.st50{fill:#91D0D4;}
	.st51{fill:#651811;stroke:#651811;stroke-width:0.75;stroke-linecap:round;stroke-linejoin:round;stroke-miterlimit:10;}
	.st52{fill:#C1E3E6;}
	.st53{fill:#C4D4DE;}
	.st54{fill:#651811;stroke:#651811;stroke-width:0.5;stroke-miterlimit:10;}
	.st55{fill:#651811;stroke:#651811;stroke-width:0.5;stroke-linecap:round;stroke-linejoin:round;stroke-miterlimit:10;}
	.st56{fill:#D8E0E6;}
	.st57{fill:#FECB4A;}
	.st58{fill:#EEF8FE;}
	.st59{fill:#ADCE68;}
	.st60{fill:#FCD7BA;}
	.st61{fill:#651811;stroke:#651811;stroke-width:0.25;stroke-miterlimit:10;}
	.st62{fill:#F4A8B3;}
	.st63{fill:#F7AE6E;}
	.st64{fill:#FEDFB3;}
	.st65{fill:#F7B28C;}
	.st66{fill:#FFFBDC;}
	.st67{fill:#FCC24F;}
	.st68{fill:none;stroke:#651811;stroke-width:2;stroke-linecap:round;stroke-linejoin:round;stroke-miterlimit:10;}
	.st69{fill:#9EC65A;}
	.st70{fill:#A7D9DE;}
	.st71{fill:#CACCCE;}
	.st72{fill:#FBBE49;}
	.st73{fill:#9BC76B;}
	.st74{fill:#D9E181;}
	.st75{fill:#F6B9C5;}
	.st76{fill:#87CDD8;}
	.st77{fill:#651811;stroke:#651811;stroke-width:0.4;stroke-miterlimit:10;}
	.st78{fill:#A8D7CC;}
	.st79{fill:#CDEAFC;}
	.st80{fill:#D6D6D6;}
	.st81{fill:#F8C3C3;}
	.st82{fill:#D7BCA5;}
	.st83{fill:#FFD247;}
	.st84{fill:#F59B42;}
	.st85{fill:#FFF59B;}
	.st86{fill:#90D1DB;}
	.st87{fill:#EB935F;}
	.st88{fill:#DD7636;}
</style>
<g>
	<path class="st17" d="M189.81,74.34c2.02,0.01,4.28-1.96,3.33-4.3c-13.24-32.91-50.17-48.56-86.78-42.66
		c-34.84,5.61-64.81,30.15-69.28,63.97c-4.41,33.38,16,66.99,49.34,78.27c32.24,10.9,69.56,0.21,90.97-26.18
		C193.97,123.02,197.79,96.85,189.81,74.34z"/>
	<path class="st2" d="M148.46,147.46c3.71,6.1,18.54,18.26,36.46,23.63c25.04,7.51,53.57-3.35,68.47-25.5
		c13.67-20.32,13.89-47.46-1.76-66.86c-17.18-21.3-47.46-24.18-71.15-12.65c-21.77,10.59-42.83,33.43-40.28,59.33
		C140.98,133.37,144.34,140.69,148.46,147.46z"/>
	<path class="st4" d="M256.81,142.94h-8.35c0-0.08,0-0.15,0-0.23c0.1-1.52,0.63-2.99,0.64-4.53c0.01-1.82-0.72-3.55-2.25-4.59
		c-1.66-1.13-3.38-0.81-5.24-1.01c-0.14-0.02-0.24-0.03-0.32-0.05c0.08-0.18,0.17-0.4,0.24-0.56c0.76-1.71,0.96-3.75-0.78-4.98
		c-0.59-0.42-1.93-1.03-2.7-0.73c-0.04-0.12-0.07-0.25-0.07-0.37c0.02-1,0.6-2.12,0.92-3.06c0.4-1.14,0.79-2.28,1.19-3.42
		c0.79-2.28,1.58-4.55,2.37-6.83c0.59-1.7-0.93-2.98-2.41-3.16c-4.25-0.53-8.49-1.06-12.74-1.6c-3.06-0.38-7.47-0.58-8.72,3.03
		c-0.11,0.33-0.22,0.79-0.26,1.27c-2.47-0.07-4.97,1.23-6.22,3.38c-0.59,1.01-0.87,2.13-0.64,3.29c0.19,0.91,0.8,1.75,1.42,2.42
		c0.6,0.65,1.38,1.17,2.2,1.56c0.04,0.32,0.14,0.63,0.32,0.9c0.77,1.2,2.17,1.52,3.42,0.9c0.26-0.13,0.49-0.29,0.73-0.43
		c0.08,0.09,0.15,0.17,0.23,0.26c0.41,0.54,0.75,1.13,1.07,1.73c-3.53,0.13-7.04,0.41-10.55,0.85c-0.87,0.11-1.64,0.62-2.09,1.29
		c-0.79,0.05-1.55,0.42-1.96,1.13c0.52-2.61,1.03-5.22,1.51-7.84c0.65-3.58,1.47-7.73-0.7-10.98c-1.19-1.79-3.03-2.99-5.01-3.29
		c0.26-10.33,0.25-20.68-0.07-31.01c-0.17-5.63-0.44-11.26-0.78-16.88c-0.17-2.73-0.36-5.45-0.57-8.18c-0.21-2.78-0.3-5.65-0.75-8.4
		c-0.23-1.42-0.97-2.79-2.28-3.49c-1.34-0.72-2.97-0.68-4.45-0.76c-1.58-0.09-3.16-0.13-4.73-0.14c-0.46-1.3-1.72-1.75-3.01-1.57
		c-10.1,1.41-20.31,2.08-30.5,2.03c-10.17-0.05-20.25-1.24-30.4-1.67c-5.79-0.25-11.57-0.08-17.3,0.84
		c-0.77,0.13-1.61,0.98-1.75,1.75c-1.24,7.05-1.54,14.19-0.81,21.3c-0.17,0.05-0.34,0.09-0.51,0.14c-0.11,0.01-0.22,0.02-0.34,0.04
		c-3.75,0.86-7.37,2.47-10.48,4.75c-1.86,1.36-3.45,2.9-4.92,4.58c-3.93,3.59-7.45,7.71-10.77,11.79c-3.01,1.38-6.44,1.23-9.71,0.8
		c-1.42-0.19-2.39,1.3-2.5,2.5c-0.61,6.69,2.66,13.17,7.27,17.84c3.03,3.08,6.64,5.43,10.42,7.49c-2.24,0.33-4.47,0.68-6.68,1.09
		c-3.54,0.66-7.39,2.09-9.12,5.5c-1.02,2.02-1.11,4.29-0.9,6.49c0.23,2.37,0.58,4.73,1.01,7.07c0.74,3.99,1.81,7.91,3.14,11.74
		h-7.21c-3.22,0-3.22,5,0,5h193.43C260.03,147.94,260.04,142.94,256.81,142.94z"/>
	<path class="st2" d="M171.89,93.45c-1.32-0.23-2.75,0.02-4.07,0.11c-0.86,0.05-1.73,0.11-2.59,0.16c0.02-0.05,0.03-0.1,0.05-0.15
		c0.38-0.98-0.57-1.83-1.45-1.9c-1.54-0.11-3.06-0.04-4.57,0.18c0.1-0.86-0.47-1.72-1.45-1.71c-1,0.01-2,0.09-2.99,0.23
		c0.16-0.19,0.3-0.37,0.4-0.55c0.54-0.97,0.77-2.07,0.36-3.12c-0.32-0.81-0.97-1.21-1.85-1.05c-1.43,0.26-2.43,1.09-3.37,2.02
		c0.11-1.15,0.19-2.3,0.21-3.46c0.04-1.92,0.22-5.18-1.97-6.12c-2.42-1.04-3.19,2.3-3.67,3.9c-0.34,1.12-0.62,2.25-0.93,3.38
		c-0.13,0.46-0.27,0.92-0.41,1.38c-0.11,0.01-0.22,0.03-0.33,0.07c-0.12-0.3-0.24-0.61-0.34-0.91c-0.34-1-0.62-2.02-0.96-3.02
		c-0.67-1.95-1.56-3.84-3.18-5.17c-0.98-0.81-2.53-0.32-2.56,1.06c0,0.11,0,0.21,0,0.32c-0.28,0.17-0.49,0.46-0.57,0.9
		c-0.86,4.83-0.85,10.19,0.77,14.88c0.31,0.9,0.83,1.67,1.73,2.04c1.09,0.44,2.25,0.04,3.33-0.23c2.59-0.64,5.21-1.22,7.86-1.55
		c2.32-0.29,4.68-0.39,7-0.23c0.36,0.28,0.85,0.41,1.33,0.29c0.16-0.04,0.32-0.07,0.48-0.1c1.23,0.17,2.46,0.41,3.66,0.76
		c0.2,0.57,0.68,1.03,1.37,0.98l1.12-0.07c1.81,0.82,3.34,1.93,5,3.06c1.87,1.28,3.84,0.79,4.7-1.32
		C174.87,96.41,174.46,93.89,171.89,93.45z M140.61,89.97c-0.12-0.6-0.22-1.2-0.31-1.8c-0.02-0.14-0.04-0.27-0.06-0.41
		c0-0.01,0-0.01,0-0.02c-0.01-0.05-0.01-0.11-0.02-0.16c-0.01-0.11-0.03-0.22-0.04-0.33c0.24,0.74,0.52,1.46,0.88,2.12
		c-0.08,0.17-0.17,0.34-0.25,0.5c-0.05,0.09-0.1,0.19-0.15,0.28C140.64,90.09,140.62,90.03,140.61,89.97z M142.89,92.31
		c-0.01,0.33-0.01,0.66-0.03,0.98c-0.19,0.04-0.38,0.08-0.56,0.13C142.5,93.05,142.69,92.68,142.89,92.31z M171.26,97.37
		c-0.01,0.03-0.03,0.06-0.05,0.09c-0.1-0.08-0.31-0.18-0.37-0.22c-0.39-0.27-0.77-0.54-1.15-0.81c0.48-0.06,1.61-0.25,1.81-0.04
		C171.62,96.52,171.31,97.24,171.26,97.37z"/>
	<path class="st18" d="M127.15,130.31c-0.42-4.02-1.31-7.94-2.75-11.72c-0.33-0.87-1.32-1.45-2.2-0.9
		c-4.97,3.09-10.68,5.4-16.63,5.1c-2.19-0.11-4.86-0.54-6.62-2.03c0.23-0.5,0.22-1.11-0.25-1.64c-0.68-0.77-1.23-1.63-1.66-2.55
		c0-0.03-0.01-0.05-0.01-0.08c-0.23-1.43-0.5-2.78-1.12-4.1c-0.62-1.32-2.93-0.7-2.8,0.76c0.02,0.25,0.06,0.49,0.09,0.73
		c-0.21,0.11-0.41,0.28-0.57,0.52c-2.98,4.61-5.69,9.38-8.11,14.31c-1.2,2.44-2.32,4.92-3.37,7.43c-0.92,2.19-2.43,4.84-0.26,6.78
		c1.93,1.73,5,1.45,7.38,1.28c2.93-0.21,5.87-0.36,8.81-0.42c5.88-0.13,11.77,0.05,17.63,0.53c2.51,0.21,5.28,0.52,6.69-2.06
		c0.48-0.89,0.61-2.02,0.82-3.09c0.08,0.16,0.16,0.33,0.23,0.49c0.53,1.11,2.55,0.9,2.74-0.36c0.39-2.52,0.65-5.04,0.77-7.58
		C126.65,131.59,127.22,131.06,127.15,130.31z"/>
	<path class="st6" d="M135.34,134.39c-0.5-0.09-0.96-0.05-1.37,0.08c-0.12-0.06-0.25-0.11-0.38-0.16c-0.32-0.38-0.75-0.63-1.35-0.64
		c-0.22,0-0.41,0.03-0.6,0.09c-0.11-0.02-0.22-0.02-0.33-0.03c-0.06-0.08-0.12-0.16-0.19-0.24c-0.49-0.51-1.26-0.68-1.91-0.41
		c-0.17,0.07-0.31,0.17-0.44,0.27c-0.09-0.01-0.18-0.02-0.27-0.02c-0.53,0.02-1.09,0.35-1.35,0.83c-0.43,0.16-0.83,0.38-1.15,0.68
		c-0.9,0.86-0.87,2.23,0.07,3.05c0.31,0.27,0.67,0.49,1.05,0.66c0.1,0.7,0.77,1.31,1.48,1.28c0.57-0.03,1-0.32,1.25-0.75
		c0.08,0,0.15,0,0.23,0c0.04,0.01,0.07,0.04,0.12,0.05c0.43,0.1,0.91,0.01,1.28-0.24c0.14-0.04,0.27-0.1,0.39-0.18
		c0.23,0.26,0.54,0.44,0.91,0.49c0.67,0.09,1.27-0.28,1.55-0.88c0.06,0.06,0.12,0.11,0.18,0.17c0.58,0.62,1.53,0.51,2.12,0
		C138.11,137.2,137.14,134.71,135.34,134.39z"/>
	<path class="st19" d="M86.75,113.97c-0.57,0-1.13,0.02-1.69,0.05c-0.12-0.03-0.24-0.04-0.37-0.04c-1.48,0.01-2.9,0.24-4.3,0.6
		c-3.27,0.61-6.43,1.71-9.41,3.2c-1.22,0.61-0.82,2.08,0.14,2.59c-0.24,0.77-0.39,1.57-0.48,2.36c-0.4,3.42-0.08,6.86,0.47,10.24
		c0.28,1.68,0.62,3.34,0.98,5c0.31,1.44,0.55,2.97,1.27,4.28c0.63,1.14,1.77,2.27,3.17,2.17c1.49-0.11,2.19-1.45,2.74-2.66
		c1.31-2.87,2.25-5.89,3.21-8.89c0.97-3.03,1.99-6.05,3.53-8.85c0.79-1.42,1.68-2.78,2.51-4.18c0.66-1.13,1.85-2.72,1.7-4.09
		C90.03,113.96,88.16,113.97,86.75,113.97z"/>
	<path class="st20" d="M180.11,105.06c-11.99-6.2-25.31-11.47-39.02-8.59c-0.78,0.16-1.09,0.75-1.07,1.35
		c-2.36-0.09-4.7,0.77-4.83,3.6c-0.09,2.05,1.06,4.05,1.24,6.1c0.02,0.27-0.05,1.14,0.17,0.94c-0.16,0.15-0.63,0.11-0.82,0.12
		c-1.03,0.06-2.05-0.03-3.08,0.07c-3.61,0.33-5.77,2.83-6.36,6.31c-0.59,3.45-0.67,7.88,1.42,10.87c0.53,0.75,1.15,1.34,1.85,1.81
		c-0.28,1.9,0.82,4.16,3.32,4.34c0.95,0.07,1.91,0.24,2.83,0.49c0.1,0.33,0.3,0.65,0.63,0.9c0.94,0.71,1.88,1.41,2.84,2.1
		c-0.23,1.62,1.04,3.33,2.57,3.75c0.98,0.27,1.89,0.1,2.64-0.36c1.01,0.47,2.08,0.66,3.18,0.05c1.73-0.96,2.41-3.3,3.02-5.04
		c0.75-2.13,1.3-4.32,1.84-6.51c1.81-7.34,4.33-16.56,13-18.05c4.75-0.82,9.65,0.23,14.26-1.52
		C180.87,107.38,181.36,105.71,180.11,105.06z"/>
	<path class="st2" d="M199.25,105.18c-1.8-3.87-3.4-7.82-4.78-11.86c-0.52-1.51-0.83-4.08-2.82-4.24c-0.85-0.07-1.76,0.35-2.58,0.58
		c-1.04,0.29-2.08,0.58-3.11,0.88c-3.14,0.91-6.33,1.99-8.86,4.15c-1.17,1-2.73,2.56-2.45,4.24c0.15,0.93,0.85,1.62,1.43,2.33
		c0.71,0.86,1.41,1.72,2.12,2.58c0.41,0.49,0.91,0.59,1.35,0.44c1.96,2.33,3.98,4.81,7.3,4.62c3.84-0.22,7.72-0.85,11.5-1.51
		C199.39,107.2,199.62,105.97,199.25,105.18z"/>
	<path class="st0" d="M191.64,51.87c-1.9-3.83-6.4-3.86-10.09-3.52c-19.03,1.76-38.15,0.83-57.18-0.44
		c-2.39-0.16-4.78-0.32-7.17-0.49c-0.72-0.05-1.17,0.34-1.35,0.85c-0.83-0.59-2.39-0.2-2.49,1.17c-0.27,3.6-2.55,8.1,1.09,10.86
		c1.65,1.25,4.03,1.53,6.01,1.94c2.26,0.47,4.54,0.85,6.83,1.15c1.86,0.25,3.78,0.29,5.62,0.67c1.16,0.24,2.93,0.64,3.32,1.96
		c0.42,1.45-0.82,3.17-1.12,4.56c-0.35,1.65-0.02,3.34,1.28,4.49c2.99,2.63,6.76,0.57,9.45-1.31c1.34-0.93,3.6-2.51,5.22-1.31
		c1.16,0.85,1.23,2.73,1.27,4.02c0.1,2.9,0.06,6.56,2.85,8.32c0.7,0.44,1.48,0.64,2.3,0.73c0.7,0.08,1.6-0.02,2.01,0.66
		c0.3,0.5,0.27,1.31,0.32,1.86c0.08,0.78,0.15,1.58,0.4,2.32c0.55,1.6,1.84,2.67,3.52,2.9c1.89,0.26,3.52-0.51,5.19-1.27
		c0.95-0.43,1.79-0.73,2.84-0.72c1,0.01,1.97,0.06,2.9-0.34c1.27-0.54,2.03-1.63,2.53-2.87c0.46-1.14,0.62-2.38,1.11-3.51
		c0.61-1.4,1.65-0.85,2.91-1.24c1.8-0.54,2.39-2.41,1.82-4.07c-0.53-1.54-1.56-2.81-2.02-4.4c-1.69-5.83,1.08-12.65,6.57-15.35
		c1.55-0.76,3.23-1.47,4.12-3.07C192.49,55,192.35,53.3,191.64,51.87z"/>
	<path class="st21" d="M189.3,83.51c-0.55-1.01-1.77-1.35-2.78-0.8c-0.23,0.12-0.44,0.3-0.63,0.48c-0.88-0.84-2.33-0.58-3.14,0.42
		c-0.01,0.01-0.02,0.03-0.03,0.04c-0.6-0.81-1.88-0.81-2.5,0.11c-0.52,0.79-1,1.61-1.45,2.44c-0.44-0.03-0.89,0.09-1.19,0.41
		c-1.01,1.1-1.73,2.44-1.99,3.91c-0.14,0.8,0.21,1.62,1.05,1.85c0.14,0.04,0.28,0.05,0.43,0.04c0.68,0.54,1.82,0.59,2.28-0.34
		c0.06-0.12,0.09-0.24,0.15-0.36c0,0,0,0,0,0c0.09-0.24,0.2-0.48,0.29-0.72c0.15,0.46,0.5,0.83,1.01,0.97
		c0.76,0.21,1.65-0.26,1.85-1.05c0.22-0.99,0.52-1.97,0.94-2.89c0.15,0.31,0.4,0.57,0.76,0.72c0.63,0.25,1.57,0.08,1.87-0.61
		c0.21-0.48,0.45-0.94,0.72-1.39c0.26,0.47,0.79,0.8,1.33,0.8c0.85,0,1.45-0.69,1.5-1.5C189.84,85.2,189.71,84.26,189.3,83.51z"/>
	<path class="st21" d="M192.82,69.31c-0.05-2.51,0.03-5.34-1.21-7.62c-1.09-2-3.23-3.02-5.38-2.02c-3.92,1.83-6.25,6.78-5.64,10.95
		c0.29,2,1.28,3.9,2.94,5.09c1.87,1.33,4.2,1.12,5.59-0.76c0.27-0.37,0.5-0.78,0.71-1.22c-0.02,4.36-0.19,8.71-0.51,13.05
		c-0.14,1.93,2.86,1.92,3,0C192.77,80.98,192.94,75.14,192.82,69.31z M187.4,65.5c0.08-0.29,0.18-0.57,0.27-0.85
		c0.14,0.28,0.25,0.59,0.32,0.9C187.8,65.5,187.6,65.48,187.4,65.5z M183.48,69.4c-0.03-1.19,0.25-2.36,0.76-3.43
		c-0.39,2.13-0.35,4.33,0.14,6.46C183.78,71.54,183.5,70.33,183.48,69.4z"/>
	<path class="st22" d="M237.84,112.93c-0.01-0.98-0.95-1.7-1.9-1.45c-3.8,1.02-7.72,1.27-11.62,0.8c-0.07-0.01-0.13,0-0.19,0
		c-0.74-0.24-1.66,0.01-1.96,0.95c-0.85,2.63-0.76,5.45-0.13,8.12c0.58,2.46,1.57,5.11,3.59,6.74c1,0.81,2.18,1.45,3.45,1.68
		c1.54,0.28,2.81-0.24,3.99-1.21c1.91-1.57,3.16-3.86,3.87-6.2C237.88,119.32,237.87,116.08,237.84,112.93z"/>
	<path class="st23" d="M238.82,132.32c-0.14-0.94-0.95-1.78-1.96-1.73c-7.85,0.38-15.71,0.76-23.56,1.14
		c-0.48-0.36-1.1-0.53-1.67-0.31c-0.79,0.3-1.3,0.68-1.77,1.38c-0.82,1.24,0.25,3.08,1.73,3.01c0.72-0.03,1.43-0.07,2.15-0.1
		c0.31,0.21,0.66,0.33,1.04,0.28c3.84-0.47,7.7-0.76,11.56-0.84c1.92-0.04,3.84-0.01,5.76,0.03c1.79,0.04,3.61,0,5.3-0.66
		C238.31,134.16,238.97,133.37,238.82,132.32z"/>
	<path class="st18" d="M246.65,139.62c-0.12-0.84-1.13-1.48-1.93-1.47c-0.35,0.01-0.71,0.02-1.06,0.02
		c-0.18-0.79-0.8-1.44-1.86-1.39c-8.96,0.44-17.92,0.9-26.83,1.92c-0.64-0.28-1.4-0.26-1.98,0.23c-0.04,0-0.08,0.01-0.11,0.01
		c-1.07,0.13-2,0.82-2,2c0,0.35,0.11,0.68,0.28,0.98c-0.38,1.04,0.15,2.41,1.32,2.65c6.39,1.3,12.77,0.27,19.2-0.05
		c1.54-0.08,3.08-0.11,4.63-0.04c1.61,0.07,3.18,0.39,4.78,0.48C244.29,145.14,247.14,143.01,246.65,139.62z"/>
	<path class="st24" d="M206.46,110.71c-0.95-1.87-2.94-1.91-4.78-1.91c-4.2,0-8.41,0.01-12.61,0.01
		c-9.64,0.01-19.28,0.01-28.93,0.02c-1.63,0-2.23,1.61-1.79,2.78c-3.55,9.66-6.43,19.54-8.66,29.59c-8.97,0.16-17.94,0.02-26.9-0.43
		c-2.57-0.13-2.57,3.87,0,4c8.71,0.44,17.44,0.58,26.16,0.44c0.2,0.08,0.42,0.14,0.67,0.15c8.12,0.39,16.25,0.33,24.37,0.16
		c7.91-0.16,16.03,0.1,23.86-1.13c1.07-0.17,1.66-1.5,1.4-2.46c-0.07-0.27-0.19-0.49-0.34-0.68c0.19-0.36,0.37-0.74,0.52-1.16
		c2.84-7.68,5.04-15.61,6.67-23.63C206.46,114.73,207.32,112.39,206.46,110.71z"/>
	<path class="st25" d="M205.45,111.82c-1.27-1.64-3.42-2.05-5.39-2.11c-2.45-0.07-4.92,0.03-7.37,0.05
		c-5.19,0.04-10.38,0.08-15.57,0.12c-2.64,0.02-5.27,0.04-7.91,0.06c-2.21,0.02-4.56-0.1-6.67,0.69c-4.28,1.6-6.15,6.59-7.83,10.46
		c-2.26,5.17-4.02,10.52-5.76,15.88c-0.17,0.52-0.12,0.98,0.06,1.35c-0.73,1.23-1.44,2.47-2.13,3.72c-1.25,2.25,2.2,4.27,3.45,2.02
		c3.99-7.19,8.45-14.79,15.58-19.29c7.26-4.58,16.11-5.14,24.4-6.27c4.85-0.66,9.69-1.51,14.26-3.33
		C206.06,114.57,206.42,113.08,205.45,111.82z"/>
	<path class="st8" d="M254.28,145.98H67.04c-2.57,0-2.58,5.75,0,5.75h187.24C256.85,151.73,256.86,145.98,254.28,145.98z"/>
	<path class="st6" d="M128.53,79.36c-0.85-1.69-2.54-1.87-4.23-1.74c-1.94,0.15-3.89,0.31-5.84,0.38
		c-3.89,0.13-7.74-0.14-11.39-1.58c-0.14-0.06-0.28-0.08-0.4-0.1c-0.1-0.06-0.2-0.12-0.32-0.17c-0.78-0.3-1.63-0.27-2.38,0.03
		c-0.47-0.44-1.18-0.66-1.78-0.56c-1.16,0.21-1.7,1.24-1.62,2.32c0.24,3.31,0,6.64-0.67,9.89c-0.43,0.38-0.8,0.8-1.06,1.32
		c-0.64,1.3-0.71,2.57-0.39,3.78c-0.07,0.19-0.13,0.38-0.2,0.56c-0.59,1.56,0.78,2.7,2.06,2.65c2.26,2.53,5.9,4.44,8.37,5.19
		c5.3,1.61,12.34,0.99,16.29-3.3c2.27-2.47,2.56-5.69,2.98-8.87c0.23-1.77,0.47-3.54,0.7-5.31
		C128.85,82.4,129.22,80.75,128.53,79.36z"/>
	<path class="st6" d="M114.11,104.07c-0.24-0.82-0.77-1.43-1.48-1.84c-0.04-0.61-0.41-1.2-1.04-1.37c-0.25-0.06-0.51-0.06-0.76-0.01
		c-0.02-0.01-0.03-0.03-0.05-0.04c-0.7-0.39-1.63-0.23-2.07,0.49c-0.3,0.5-0.63,1.16-0.87,1.87c-0.02,0.03-0.06,0.06-0.08,0.09
		c-0.51,0.71-0.66,1.71-0.36,2.54c0.16,0.45,0.38,0.89,0.75,1.21c0.17,0.15,0.35,0.3,0.55,0.4c0.38,0.2,0.61,0.24,1.04,0.31
		c0.17,0.03,0.37-0.02,0.55-0.09c0.01,0.02,0.01,0.04,0.02,0.05c0.39,0.72,1.21,1.15,2.03,0.94c1.02-0.26,1.43-1.26,1.68-2.18
		C114.22,105.69,114.34,104.84,114.11,104.07z"/>
	<path class="st4" d="M115.67,92.96c-0.05,0-0.1,0.01-0.15,0.01c-0.81-0.07-1.61-0.13-2.41-0.29c-0.33-0.06-0.65-0.15-0.95-0.29
		c-0.27-0.12-0.55-0.23-0.8-0.39c-0.06-0.04-0.12-0.09-0.19-0.13c-0.03,0.01-0.06,0.02-0.09,0.04c-0.32,0.17-0.62,0.52-0.71,0.88
		c-0.01,0.04-0.02,0.09-0.02,0.13c0.02,0.03,0.04,0.06,0.06,0.09c0.5,0.65,1.05,1.27,1.68,1.8c0.73,0.15,1.46,0.26,2.2,0.27
		c0.39,0,0.79-0.14,1.07-0.41c0.27-0.25,0.47-0.68,0.47-1.05C115.8,93.39,115.75,93.16,115.67,92.96z"/>
	<path class="st8" d="M133.78,103.35c-0.32-1.32-0.6-2.64-0.84-3.98c-0.44-2.52-0.73-5.07-0.85-7.63c-0.26-5.8,0.36-11.68,1.81-17.3
		c0.05-0.18,0.07-0.37,0.08-0.55c0.84-0.81,1.27-1.84,0.59-3.14c-0.62-1.2-2-1.7-3.14-2.27c-1.29-0.66-2.6-1.3-3.91-1.93
		c-2.62-1.25-5.27-2.44-7.95-3.55c-2.51-1.04-5.08-1.93-7.83-1.84c-2.88,0.1-5.83,1.03-8.48,2.14c-1.22,0.52-2.42,1.24-3.32,2.19
		c0,0-0.01,0-0.01,0c-3.59,0.02-6.77,1.61-9.35,4.05c-2.78,2.63-4.7,5.97-7.26,8.8c-1.32,1.46-2.85,2.71-4.52,3.74
		c-0.39,0.42-0.8,0.84-1.22,1.24c-1.22,1.16-2.52,2.19-4.06,2.89c-1.26,0.57-2.59,0.99-3.84,1.6c-0.42,1.21-0.3,2.55,0.17,3.82
		c1.19,3.24,3.7,6.33,6.13,8.73c0.01,0.01,0.02,0.01,0.02,0.02c1.84,2.05,3.85,3.95,6.1,5.54c1.57,1.11,3.29,2.07,5.08,2.77
		c1.73,0.68,4.07,1.65,5.65,0.22c1.44-1.31,2.68-2.45,4.59-3.06c0.85-0.27,1.76-0.43,2.65-0.46c0.94-0.03,1.87,0.2,2.82,0.14
		c1.69-0.1,3.21-1.53,2.72-3.33c-0.26-0.97-0.89-1.39-1.65-1.52c0.13-0.99-0.18-2.02-0.84-2.9c-1.09-1.45-2.74-2.32-3.9-3.69
		c-1.23-1.45-0.91-3.42-0.65-5.16c0.36-2.38,0.75-4.76,1.13-7.14c0.18-1.12,0.36-2.25,0.53-3.37c0.1-0.64,0.2-1.28,0.31-1.93
		c0.03-0.21,0.07-0.41,0.1-0.62c1.16,0.01,2.25-0.06,3.4-0.69c0.56-0.3,1.06-0.7,1.52-1.13c7.02,4.41,16.08,5.28,23.82,2.31
		c-0.93,4.51-1.4,9.1-1.32,13.72c0.03,1.52,0.11,3.05,0.24,4.57c-0.32,0.21-0.59,0.54-0.73,1.03c-0.58,2.01-1.85,3.49-3.56,4.66
		c-1.74,1.2-3.73,1.61-5.6,2.51c-2.36,1.14-3.18,3.7-2.04,6.06c0.94,1.94,2.97,3.12,5.03,3.48c2.37,0.42,4.77-0.4,6.93-1.31
		c1.23-0.52,2.46-1.07,3.68-1.61c1.23-0.54,2.33-1.2,2.47-2.66C134.6,105.67,134.05,104.46,133.78,103.35z"/>
	<path class="st10" d="M106.82,100.98c-0.58-0.08-1.01,0.26-1.16,0.8c-0.1,0.37-0.21,0.73-0.33,1.09c-0.01,0.02-0.01,0.03-0.01,0.04
		c0,0.01-0.01,0.02-0.01,0.04c-0.03,0.08-0.06,0.17-0.08,0.25c-0.06,0.18-0.12,0.36-0.19,0.54c-0.26,0.7-0.54,1.39-0.84,2.07
		c-0.21,0.48-0.04,1.12,0.46,1.34c0.49,0.21,1.11,0.05,1.34-0.46c0.66-1.47,1.2-2.99,1.64-4.54
		C107.76,101.64,107.32,101.05,106.82,100.98z"/>
	<path class="st10" d="M115.73,108.08c0.05,0.21-0.03-0.15-0.04-0.19c-0.02-0.09-0.03-0.18-0.05-0.26c-0.04-0.21-0.07-0.41-0.1-0.62
		c-0.06-0.38-0.1-0.77-0.13-1.16c-0.03-0.39-0.04-0.78-0.04-1.16c0-0.21,0-0.42,0.01-0.63c0-0.03,0-0.04,0-0.05
		c0-0.01,0-0.02,0-0.04c0.01-0.12,0.02-0.24,0.02-0.36c0.04-0.52-0.23-1.09-0.8-1.16c-0.49-0.07-1.12,0.24-1.16,0.8
		c-0.14,1.86-0.01,3.69,0.41,5.51c0.12,0.51,0.82,0.79,1.28,0.6C115.68,109.13,115.85,108.63,115.73,108.08z"/>
	<path class="st10" d="M127.51,75.29c-7.91,3-17.1,1.63-23.76-3.61c-1.01-0.79-2.32,0.72-1.31,1.52c7.21,5.67,17.16,7.23,25.75,3.97
		C129.39,76.71,128.72,74.83,127.51,75.29z"/>
	<path class="st10" d="M115.59,107.67c-0.87,0.47-1.82,0.42-2.78,0.35c-1-0.07-2-0.18-2.98-0.36c-1.99-0.37-3.92-1.06-5.58-2.24
		c-1.05-0.75-2.21,0.88-1.16,1.63c1.96,1.39,4.22,2.17,6.56,2.6c1.12,0.21,2.26,0.33,3.39,0.39c1.16,0.06,2.35,0,3.4-0.56
		C117.57,108.87,116.73,107.06,115.59,107.67z"/>
	<path class="st10" d="M117.18,88.94c-1.29-0.82-1.46-2.57-1.55-3.95c-0.04-0.64-1.04-0.56-1,0.09c0.1,1.52,0.38,3.12,1.45,4.21
		c-0.43,0.17-0.89,0.25-1.35,0.21c-0.27-0.02-0.53,0.12-0.58,0.4c-0.05,0.25,0.13,0.56,0.4,0.58c0.96,0.09,1.9-0.14,2.7-0.68
		C117.59,89.57,117.49,89.13,117.18,88.94z"/>
	<path class="st10" d="M123.22,84.74c0.04-0.72-0.06-1.6-0.59-2.01c-0.17-0.13-0.36-0.18-0.56-0.17c-0.01,0-0.01-0.01-0.02-0.01
		c-0.69-0.08-1.17,0.63-1.47,1.3c-0.31,0.7-0.46,1.5-0.41,2.26c0.04,0.67,0.27,1.43,0.86,1.64c0.6,0.22,1.2-0.24,1.55-0.82
		C122.97,86.27,123.17,85.51,123.22,84.74z"/>
	<path class="st10" d="M108.81,82.52c0.04-0.72-0.06-1.6-0.59-2.01c-0.17-0.13-0.36-0.18-0.56-0.17c-0.01,0-0.01-0.01-0.02-0.01
		c-0.69-0.08-1.17,0.63-1.47,1.3c-0.31,0.7-0.46,1.5-0.41,2.26c0.04,0.67,0.27,1.43,0.86,1.64c0.6,0.22,1.2-0.24,1.55-0.82
		C108.56,84.05,108.77,83.29,108.81,82.52z"/>
	<path class="st10" d="M107.18,81.16c-0.09-0.05-0.18-0.1-0.27-0.16c-0.01,0,0,0-0.01,0c-0.01-0.01-0.03-0.02-0.04-0.03
		c-0.04-0.03-0.09-0.06-0.13-0.09c-0.17-0.13-0.34-0.27-0.49-0.41c-0.04-0.04-0.07-0.07-0.11-0.11c-0.02-0.02-0.03-0.03-0.05-0.05
		c-0.01-0.01-0.03-0.03-0.04-0.04c0,0-0.01-0.01-0.01-0.01c-0.02-0.02-0.04-0.04-0.06-0.07c-0.03-0.04-0.07-0.08-0.1-0.12
		c-0.13-0.17-0.25-0.35-0.36-0.53c-0.13-0.23-0.49-0.28-0.7-0.13c-0.23,0.17-0.27,0.45-0.13,0.7c0.48,0.82,1.2,1.5,2.04,1.95
		c0.23,0.13,0.56,0.01,0.67-0.23C107.52,81.57,107.43,81.3,107.18,81.16z"/>
	<path class="st10" d="M107.28,82.16c-0.11-0.27-0.37-0.37-0.64-0.3c-0.02,0-0.02,0.01-0.03,0.01c-0.02,0-0.03,0.01-0.05,0.01
		c-0.04,0.01-0.08,0.01-0.12,0.02c-0.1,0.01-0.19,0.02-0.29,0.03c-0.1,0.01-0.19,0.01-0.29,0.01c-0.01,0-0.01,0-0.01,0
		c-0.01,0-0.03,0-0.04,0c-0.05,0-0.1-0.01-0.14-0.01c-0.19-0.02-0.38-0.07-0.57-0.12c-0.01,0-0.01,0-0.02,0c-0.01,0,0,0-0.01-0.01
		c-0.05-0.02-0.1-0.04-0.15-0.06c-0.09-0.04-0.18-0.08-0.26-0.12c-0.23-0.12-0.56-0.01-0.67,0.23c-0.11,0.25-0.02,0.54,0.23,0.67
		c0.86,0.44,1.84,0.52,2.77,0.29C107.23,82.74,107.37,82.39,107.28,82.16z"/>
	<path class="st10" d="M125.57,82.76c-0.1-0.23-0.39-0.42-0.64-0.3c-0.16,0.07-0.32,0.14-0.49,0.2c-0.09,0.03-0.18,0.06-0.27,0.08
		c-0.04,0.01-0.09,0.03-0.14,0.03c0.03,0,0.04,0,0.05,0c-0.02,0-0.06,0.01-0.07,0.01c-0.17,0.03-0.35,0.06-0.52,0.07
		c-0.09,0.01-0.18,0.01-0.26,0.01c-0.05,0-0.09,0-0.14,0c-0.02,0-0.05,0-0.07,0c0.02,0,0.02,0,0.03,0c-0.14-0.01-0.25,0-0.37,0.08
		c-0.1,0.07-0.19,0.2-0.21,0.32c-0.03,0.24,0.12,0.57,0.4,0.58c0.83,0.05,1.66-0.08,2.41-0.44c0.12-0.06,0.22-0.13,0.28-0.25
		C125.61,83.03,125.62,82.88,125.57,82.76z"/>
	<path class="st10" d="M125.88,84.83c-0.04-0.27-0.26-0.47-0.54-0.45c-0.54,0.03-1,0.07-1.51-0.04c-0.05-0.01-0.09-0.02-0.14-0.03
		c-0.03-0.01-0.05-0.01-0.08-0.02c-0.01,0-0.01,0-0.02-0.01c-0.1-0.04-0.2-0.08-0.3-0.13c-0.04-0.02-0.08-0.05-0.12-0.07
		c0.08,0.05-0.07-0.05-0.08-0.06c-0.04-0.03-0.07-0.06-0.11-0.09c-0.02-0.02-0.04-0.04-0.06-0.06c0-0.01-0.01-0.01-0.02-0.02
		c-0.17-0.2-0.47-0.3-0.7-0.13c-0.2,0.15-0.31,0.48-0.13,0.7c0.38,0.47,0.89,0.75,1.47,0.9c0.61,0.15,1.25,0.11,1.87,0.08
		C125.68,85.35,125.91,85.09,125.88,84.83z"/>
	<path class="st10" d="M101.75,106.11c-1.09-0.1-2.22,0.11-3.2,0.61c-0.23,0.12-0.42,0.31-0.51,0.55c-0.09,0.23-0.09,0.55,0.03,0.78
		c0.25,0.47,0.83,0.73,1.33,0.48c0.2-0.1,0.41-0.18,0.62-0.26c0.34-0.1,0.69-0.16,1.04-0.19c0.17,0,0.34,0,0.51,0.01
		c0.52,0.05,1.06-0.37,1.09-0.91C102.68,106.66,102.31,106.16,101.75,106.11z"/>
	<path class="st10" d="M129.66,91.95c0.53-4.3-0.47-8.84,1.14-12.96c0.47-1.19-1.33-2.07-1.8-0.87c-1.6,4.09-0.88,8.36-1.22,12.62
		c-0.33,4.11-2.25,7.57-5.83,9.71c-7.92,4.74-17.29-0.26-22.33-6.77c-0.79-1.02-2.44,0.11-1.65,1.13
		c4.35,5.63,10.83,9.87,18.19,9.41C123,103.79,128.81,98.84,129.66,91.95z"/>
	<path class="st10" d="M106.17,75.24c-0.65-0.49-0.93-0.74-1.36-1.39c-1.53,0.94-3.07,1.87-4.6,2.81c-0.45,0.27-0.57,0.98-0.26,1.39
		c0.34,0.45,0.91,0.55,1.39,0.26c1.64-1,3.29-2.01,4.93-3.01C106.23,75.27,106.2,75.26,106.17,75.24z"/>
	<path class="st10" d="M95.09,108.86c-8.03,8.19-12.57,21.65-15.86,32.4c-0.38,1.23,1.5,1.93,1.87,0.7
		c3.18-10.38,7.5-23.66,15.27-31.57C97.27,109.48,96,107.94,95.09,108.86z"/>
	<path class="st10" d="M115.73,92.25c-1.74,0.45-3.44-0.21-5.04-0.87c-0.01-0.1-0.03-0.19-0.04-0.28c-0.02-0.27-0.33-0.45-0.58-0.4
		c-0.29,0.05-0.43,0.31-0.4,0.58c0.14,1.64,1.11,3.44,2.65,4.15c0.83,0.38,1.73,0.21,2.44-0.32c0.73-0.54,1.14-1.39,1.52-2.19
		C116.45,92.58,116.09,92.16,115.73,92.25z M114.24,94.25c-0.51,0.41-1.12,0.5-1.69,0.16c-0.69-0.4-1.2-1.07-1.51-1.82
		c1.26,0.49,2.57,0.87,3.91,0.78C114.75,93.7,114.53,94.01,114.24,94.25z"/>
	<path class="st10" d="M99.16,64.87C92.58,65.24,88,70.24,84.32,75.2c-3.82,5.14-8.27,11.79-15.45,11.8c-0.69,0-1.1,0.59-1,1.24
		c1.34,8.44,7.29,15.71,15.22,18.83c1.2,0.47,1.77-1.45,0.58-1.91c-6.93-2.73-12.07-8.99-13.63-16.22c5.97-0.57,10.4-5.2,13.85-9.8
		c3.84-5.12,8.1-11.86,15.22-12.26C100.39,66.8,100.45,64.8,99.16,64.87z"/>
	<path class="st10" d="M136.28,106.47c-4.21-8.51-3.19-18.34-2.2-27.45c0.14-1.28-1.86-1.32-2-0.05c-1,9.23-1.87,19,2.08,27.66
		c-3.14,2.3-6.87,3.69-10.76,3.99c-1.27,0.1-1.33,2.1-0.05,2c4.69-0.35,9.04-2.04,12.74-4.94
		C136.45,107.4,136.47,106.84,136.28,106.47z"/>
	<path class="st10" d="M136.57,68.51c-0.05-0.58-0.56-1.23-1.24-1c-6.56,2.32-12.66-3.01-18.5-5.18c-4.65-1.73-12.77-3.1-15.95,1.96
		c-0.69,1.09,1.02,2.14,1.7,1.05c1.55-2.46,5.28-2.69,7.88-2.48c3.09,0.25,6.09,1.36,8.85,2.7c4.74,2.3,9.83,5.45,15.23,4.25
		c-0.23,1.95-1.34,3.67-3.16,4.62c-1.14,0.6-0.17,2.35,0.97,1.75C135.14,74.71,136.86,71.67,136.57,68.51z"/>
	<path class="st10" d="M100.37,77.22c-0.82,7.16-1.75,14.66-6.03,20.69c-0.75,1.05,0.96,2.1,1.7,1.05
		c4.49-6.32,5.48-14.19,6.33-21.69C102.52,75.99,100.52,75.94,100.37,77.22z"/>
	<path class="st10" d="M110.31,113.07c-1.2,4.64-3.18,13.2-4.79,20.74c0.25-0.1,0.51-0.15,0.76-0.12c0.47,0.06,0.85,0.16,1.24,0.32
		c1.6-7.49,3.55-15.93,4.74-20.53C112.59,112.22,110.63,111.83,110.31,113.07z"/>
	<path class="st10" d="M116.21,110.02c-0.16,0.82-0.31,1.65-0.59,2.43c-0.19,0.53-0.63,1.77-1.26,1.93
		c-0.55,0.14-1.02-1.34-1.19-1.74c-0.35-0.86-0.63-1.75-0.79-2.66c-0.2-1.08-1.68-1.29-1.98-0.13c-0.28,1.09-0.75,2.14-1.43,3.04
		c-0.19,0.26-0.77,1.17-1.14,1.16c-0.21-0.01-0.52-0.56-0.62-0.71c-1.45-2.14-2.59-4.5-3.52-6.91c-0.46-1.2-2.35-0.54-1.89,0.66
		c0.62,1.61,1.35,3.18,2.17,4.7c0.41,0.76,0.85,1.5,1.31,2.23c0.37,0.59,0.76,1.19,1.35,1.59c1.86,1.28,3.52-0.54,4.59-2.52
		c0.13,0.34,0.28,0.69,0.44,1.02c0.54,1.11,1.27,2.42,2.72,2.31c2.66-0.2,3.4-3.96,3.8-6.01
		C118.42,109.16,116.46,108.76,116.21,110.02z"/>
	<path class="st10" d="M121.61,114.64c-2.08,5.04-7.4,8.44-12.85,8.14c-3.1-0.17-5.92-1.55-7.97-3.88c-1.04-1.19-1.9-2.53-2.75-3.85
		c-0.87-1.35-1.71-2.75-1.77-4.4c-0.05-1.28-2.05-1.29-2,0c0.07,1.87,0.84,3.49,1.82,5.06c0.93,1.48,1.9,2.95,3.02,4.29
		c2.34,2.8,5.61,4.44,9.24,4.75c6.54,0.57,12.73-3.62,15.19-9.58C124.03,113.99,122.09,113.47,121.61,114.64z"/>
	<path class="st10" d="M257.16,144.85c-19.87-0.06-104.74-0.12-124.61-0.17c-19.78-0.06-58.8-0.24-70.02-0.27c-1.29,0-1.26,2,0.03,2
		c19.87,0.06,16.73,0.12,36.6,0.17c19.78,0.06,39.57,0.11,59.35,0.17c11.22,0.03,87.45,0.07,98.67,0.1
		C258.48,146.85,258.45,144.85,257.16,144.85z"/>
	<path class="st10" d="M251.94,151.32c-19.87-0.06-94.74-0.12-114.61-0.17c-19.78-0.06-58.8-0.24-70.02-0.27c-1.29,0-1.26,2,0.03,2
		c19.87,0.06,16.73,0.12,36.6,0.17c19.78,0.06,39.57,0.11,59.35,0.17c11.22,0.03,77.45,0.07,88.67,0.1
		C253.26,153.32,253.23,151.32,251.94,151.32z"/>
	<path class="st10" d="M206.19,109.01c-1.18-1.05-3.42-0.78-4.89-0.89c-2.02-0.15-40.34-0.08-42.03,0.64
		c-1.37,0.59-2.08,1.74-2.56,3.1c-0.67,1.88-1.24,3.79-1.86,5.69c-2.9,8.92-5.81,17.84-8.71,26.76c-0.4,1.23,1.53,1.75,1.93,0.53
		c2.34-7.2,4.69-14.4,7.03-21.6c1.16-3.55,2.22-7.16,3.48-10.68c0.24-0.67,0.5-1.38,1.13-1.8c0.71-0.47,1.72-0.57,2.53-0.74
		c1.86-0.39,35.35-0.19,39.07,0.09c0.8,0.06,1.63,0.07,2.42,0.18c0.67,0.1,1.06,0.05,1.37,0.69c0.19,0.38,0.14,0.97,0.16,1.38
		c0.11,1.92-0.06,3.84-0.41,5.73c-0.73,4.04-1.97,8.01-3.16,11.94c-1.22,4.01-2.52,8-3.83,11.98c-0.4,1.23,1.53,1.75,1.93,0.53
		c2.52-7.69,5.36-15.48,6.9-23.44c0.37-1.9,0.62-3.84,0.6-5.77C207.28,111.95,207.33,110.02,206.19,109.01z"/>
	<path class="st10" d="M147.15,139.67c-5.49-0.13-10.98-0.11-16.46,0.06c-1.31,0.04-2.62,0.09-3.93,0.15
		c-1.19,0.05-2.51-0.03-3.66,0.3c-1.9,0.55-2.58,2.47-2.96,4.22c-0.28,1.26,1.67,1.72,1.95,0.46c0.17-0.77,0.32-1.75,0.9-2.33
		c0.74-0.76,2.14-0.57,3.12-0.61c2.37-0.11,4.75-0.2,7.12-0.25c4.67-0.11,9.34-0.1,14.01,0C148.51,141.7,148.43,139.7,147.15,139.67
		z"/>
	<path class="st10" d="M126.24,134.31c-0.06-1.1-0.15-2.28-1.34-2.72c-1.24-0.47-2.96-0.12-4.25-0.07c-1.7,0.06-3.39,0.14-5.08,0.25
		c-5.9,0.38-11.77,1.09-17.6,2.07c0.72-1.65,1.46-3.3,2.23-4.93c0.54-1.16-1.18-2.17-1.73-1.01c-1.04,2.22-2.04,4.46-3,6.71
		c-0.35,0.82,0.22,1.63,1.13,1.47c5.56-0.99,11.16-1.72,16.8-2.15c2.74-0.21,5.48-0.36,8.23-0.44c0.65-0.02,1.29-0.05,1.94-0.04
		c0.56,0,0.48-0.05,0.66,0.37c0.1,0.25,0.04,0.72,0.05,1c0.08,1.49,0.16,2.99,0.24,4.48c0.07,1.28,2.07,1.29,2,0
		C126.41,137.62,126.33,135.96,126.24,134.31z"/>
	<path class="st10" d="M138.52,136.37c-0.87-2.15-2.65-3.77-4.89-4.43c-2.38-0.69-5.01-0.16-7.06,1.17
		c-1.08,0.7-0.08,2.43,1.01,1.73c1.58-1.02,3.53-1.5,5.37-1.01c1.57,0.42,3.02,1.54,3.64,3.07c0.2,0.5,0.67,0.85,1.23,0.7
		C138.29,137.47,138.72,136.87,138.52,136.37z"/>
	<path class="st10" d="M135.92,136.5c-0.51-0.49-1.18-0.86-1.89-0.98c-0.35-0.06-0.71-0.1-1.06-0.06c-0.46,0.05-0.85,0.16-1.27,0.35
		c-0.21,0.09-0.4,0.38-0.46,0.6c-0.07,0.24-0.04,0.56,0.1,0.77c0.14,0.21,0.34,0.4,0.6,0.46c0.28,0.06,0.51,0.01,0.76-0.1
		c-0.06,0.03-0.13,0.05-0.19,0.08c0.18-0.07,0.36-0.11,0.55-0.15c0.16-0.01,0.32-0.01,0.48,0c0.16,0.03,0.32,0.07,0.48,0.13
		c0.14,0.07,0.27,0.14,0.39,0.23c0.03,0.03,0.07,0.05,0.1,0.08c0.38,0.36,1.04,0.4,1.41,0C136.28,137.52,136.32,136.88,135.92,136.5
		z"/>
	<path class="st10" d="M128.6,129.24c-1.19-4.1-2.26-8.25-3.61-12.3c-1.12-3.36-3.05-6.67-6.64-7.74c-1.24-0.37-1.77,1.56-0.53,1.93
		c3.4,1,4.75,4.61,5.67,7.68c1.09,3.65,2.13,7.31,3.19,10.96C127.03,131,128.96,130.48,128.6,129.24z"/>
	<path class="st10" d="M244.89,135.66c-3.71-0.17-7.43-0.21-11.14-0.24c-7.34-0.06-14.69,0.07-22.03,0.38c-1.28,0.05-1.29,2.05,0,2
		c5.69-0.24,11.38-0.38,17.08-0.39c2.81-0.01,5.61,0.01,8.42,0.06c1.4,0.02,2.81,0.05,4.21,0.09c0.66,0.02,1.32,0.04,1.98,0.06
		c0.41,0.01,0.82,0.03,1.24,0.04c0.03,0,0.07,0.01,0.12,0.01c-0.08,0.58-0.32,1.32-0.38,1.69c-0.14,0.81-0.28,1.62-0.43,2.43
		c-0.22,1.26,1.71,1.8,1.93,0.53c0.29-1.64,0.88-3.47,0.89-5.13C246.77,135.95,245.96,135.71,244.89,135.66z"/>
	<path class="st10" d="M215.95,139.72c-0.12-0.21-0.36-0.41-0.6-0.46c-0.26-0.06-0.54-0.05-0.77,0.1c-0.21,0.14-0.41,0.34-0.46,0.6
		c-0.14,0.7-0.28,1.41-0.41,2.11c-0.05,0.27-0.04,0.53,0.1,0.77c0.12,0.21,0.36,0.41,0.6,0.46c0.26,0.06,0.54,0.05,0.77-0.1
		c0.21-0.14,0.41-0.34,0.46-0.6c0.14-0.7,0.28-1.41,0.41-2.11C216.1,140.22,216.09,139.96,215.95,139.72z"/>
	<path class="st10" d="M219.2,140.99c-0.06-0.12-0.15-0.21-0.26-0.28c-0.1-0.09-0.21-0.15-0.34-0.18l-0.27-0.04
		c-0.18,0-0.35,0.05-0.5,0.14c-0.22,0.14-0.4,0.34-0.46,0.6c-0.09,0.38-0.19,0.75-0.28,1.13c-0.04,0.13-0.05,0.27-0.02,0.4
		c0.01,0.13,0.05,0.26,0.12,0.37c0.06,0.12,0.15,0.21,0.26,0.28c0.1,0.09,0.21,0.15,0.34,0.18c0.09,0.01,0.18,0.02,0.27,0.04
		c0.18,0,0.35-0.05,0.5-0.14c0.22-0.14,0.4-0.34,0.46-0.6c0.09-0.38,0.19-0.75,0.28-1.13c0.04-0.13,0.05-0.27,0.02-0.4
		C219.31,141.22,219.27,141.1,219.2,140.99z"/>
	<path class="st10" d="M238.63,129.5c-8.6,0.09-19.01-0.23-27.61-0.15c-1.29,0.01-1.29,2.01,0,2c8.26-0.08,18.34,0.24,26.6,0.16
		c-0.01,0.84-0.02,1.68-0.02,2.52c-0.01,1.29,1.99,1.29,2,0c0.01-1.18,0.02-2.35,0.03-3.53C239.64,129.96,239.17,129.5,238.63,129.5
		z"/>
	<path class="st10" d="M238.79,110.65c-4.84,0.45-9.72,0.36-14.54-0.33c-1.26-0.18-1.8,1.75-0.53,1.93
		c4.6,0.65,9.24,0.83,13.87,0.49c-0.43,2.38-0.97,4.74-1.66,7.07c-0.68,2.29-1.37,4.79-2.86,6.71c-1.48,1.9-3.73,2.57-6.01,1.81
		c-2.32-0.77-3.9-2.88-4.68-5.12c-1.06-3.06-0.84-6.35-0.58-9.52c0.1-1.28-1.9-1.28-2,0c-0.46,5.6-0.37,13.1,5.48,16.05
		c2.41,1.21,5.38,1.31,7.63-0.31c2.13-1.54,3.26-4,4.1-6.41c1.25-3.6,2.15-7.33,2.75-11.1C239.85,111.34,239.5,110.58,238.79,110.65
		z"/>
	<path class="st10" d="M233.15,96.72c-1.31-1.07-3.18-1.37-4.77-0.79c-0.51,0.18-0.85,0.68-0.7,1.23c0.13,0.49,0.72,0.88,1.23,0.7
		c1.13-0.41,2.63-0.26,3.34,0.83c0.25,0.38,0.4,0.83,0.15,1.21c-0.32,0.48-1.08,0.68-1.58,0.91c-1.35,0.61-3.31,1.83-3.29,3.52
		c0.01,0.84,0.54,1.55,1.29,1.89c0.39,0.18,0.8,0.24,1.23,0.24c0.02,0,0.06,0,0.11,0.01c0,0.67,0.7,1.37,1.49,0.94
		c0.72-0.39,0.9-1.3,0.52-2c-0.4-0.75-1.16-0.95-1.96-0.95c-0.35,0-0.88,0.06-0.56-0.41c0.37-0.54,1.03-0.93,1.6-1.24
		c1.22-0.66,2.61-1.01,3.12-2.46C234.84,99.06,234.17,97.55,233.15,96.72z"/>
	<path class="st10" d="M218.29,119.37c-0.63-0.28-1.24-0.61-1.81-0.99c-0.46-0.3-0.92-0.66-1.15-1.17
		c-0.16-0.35-0.13-0.74,0.02-0.94c0.3-0.41,0.71-0.58,1.17-0.68c0.23-0.05,0.41-0.06,0.75-0.04c0.04,0,0.08,0.01,0.12,0.01
		c0.01,0,0.13,0.02,0.15,0.03c0.16,0.03,0.32,0.08,0.47,0.13c0.14,0.05,0.41,0.18,0.63,0.33c0.03,0.02,0.05,0.03,0.07,0.05
		c0.07,0.05,0.13,0.11,0.19,0.17c0.04,0.04,0.08,0.07,0.11,0.11c0,0,0.19,0.22,0.12,0.13c0.33,0.43,0.86,0.65,1.37,0.36
		c0.42-0.25,0.69-0.94,0.36-1.37c-0.84-1.11-2-1.77-3.38-1.93c-1.27-0.14-2.72,0.29-3.56,1.29c-1.06,1.26-0.83,2.94,0.2,4.14
		c0.95,1.12,2.44,1.82,3.77,2.37c0.15,0.06,0.31,0.12,0.46,0.18c-0.36,0.05-0.74,0.04-1.1,0c-0.54-0.06-1,0.5-1,1
		c0,0.59,0.46,0.94,1,1c1.26,0.14,3.33-0.08,3.66-1.6C221.28,120.28,219.41,119.86,218.29,119.37z"/>
	<path class="st10" d="M210.72,136.44c-0.52-0.12-1.09,0.16-1.23,0.7c-0.42,1.65-0.62,3.36-0.59,5.05c0.01,0.52,0.45,1.02,1,1
		c0.53-0.02,1.01-0.44,1-1c-0.01-0.79,0.02-1.58,0.11-2.37c0.01-0.06,0.02-0.13,0.02-0.19c0,0,0.02-0.14,0.02-0.17
		c0.03-0.21,0.07-0.42,0.11-0.63c0.07-0.39,0.16-0.77,0.26-1.16C211.55,137.16,211.26,136.56,210.72,136.44z"/>
	<path class="st10" d="M212.27,131.63c0.03-0.24-0.13-0.55-0.29-0.71c-0.17-0.17-0.46-0.3-0.71-0.29c-0.26,0.01-0.53,0.1-0.71,0.29
		c-0.19,0.21-0.26,0.43-0.29,0.71c-0.13,1.08-0.16,2.16-0.09,3.24c0.02,0.27,0.1,0.51,0.29,0.71c0.17,0.17,0.46,0.3,0.71,0.29
		c0.51-0.02,1.04-0.44,1-1C212.1,133.79,212.13,132.71,212.27,131.63z"/>
	<path class="st10" d="M242.56,140.79c-0.01-0.13-0.05-0.26-0.12-0.37c-0.06-0.12-0.15-0.21-0.26-0.28
		c-0.1-0.09-0.21-0.15-0.34-0.18l-0.27-0.04c-0.18,0-0.35,0.05-0.5,0.14c-0.07,0.05-0.13,0.1-0.2,0.16
		c-0.12,0.12-0.21,0.27-0.26,0.44c-0.06,0.16-0.1,0.32-0.13,0.49c-0.04,0.26-0.07,0.5-0.05,0.76c-0.01,0.14,0.02,0.27,0.09,0.39
		c0.04,0.12,0.11,0.23,0.21,0.32c0.09,0.1,0.2,0.17,0.32,0.21c0.12,0.06,0.25,0.09,0.39,0.09c0.09-0.01,0.18-0.02,0.27-0.04
		c0.17-0.05,0.32-0.13,0.44-0.26c0.05-0.07,0.1-0.13,0.16-0.2c0.09-0.16,0.14-0.32,0.14-0.5c-0.01-0.11,0-0.23,0.01-0.34
		c0.03-0.13,0.05-0.25,0.1-0.38C242.58,141.06,242.59,140.93,242.56,140.79z"/>
	<path class="st10" d="M85.97,113.01c-3.57,0.34-7.21,0.62-10.73,1.3c-2.86,0.55-5.33,2.01-6.03,5.02
		c-0.76,3.26-0.17,7.01,0.27,10.28c0.51,3.83,1.38,7.59,2.58,11.26c0.4,1.22,2.33,0.7,1.93-0.53c-1.04-3.17-1.84-6.42-2.36-9.72
		c-0.49-3.09-0.88-6.39-0.67-9.52c0.09-1.36,0.46-2.74,1.57-3.62c1.02-0.8,2.34-1.09,3.59-1.31c3.25-0.56,6.57-0.85,9.85-1.16
		C87.24,114.89,87.25,112.89,85.97,113.01z"/>
	<path class="st10" d="M233.89,84.63c-0.3-0.75-1.11-1.03-1.86-0.85c-0.57,0.14-1.06,0.51-1.51,0.87c-0.73,0.6-1.27,1.39-1.67,2.24
		c-0.36-0.63-0.79-1.21-1.33-1.71c-0.49-0.46-1.1-0.8-1.79-0.63c-0.67,0.16-1.1,0.82-1.07,1.48c0.02,0.56,0.28,1.05,0.51,1.54
		c0.24,0.49,0.49,0.97,0.75,1.44c0.61,1.08,1.29,2.12,2.04,3.1c0.32,0.43,0.86,0.65,1.37,0.36c0.31-0.18,0.53-0.6,0.5-0.98
		c0.15-0.09,0.29-0.21,0.37-0.36c0.13-0.05,0.25-0.12,0.36-0.21c0.88-0.77,1.64-1.68,2.25-2.68c0.33-0.54,0.6-1.11,0.84-1.69
		C233.9,85.95,234.16,85.28,233.89,84.63z"/>
	<g>
		<path class="st10" d="M182.18,126.05c-0.49-0.26-0.99-0.11-1.31,0.3c0.02-0.03,0.03-0.04-0.03,0.02
			c-0.02,0.02-0.05,0.05-0.07,0.07c-0.03,0.02-0.06,0.04-0.1,0.06c0.02-0.01,0.03-0.01,0.06-0.02c0,0,0,0,0,0
			c-0.03,0.01-0.05,0.02-0.08,0.03c-0.05,0.02-0.08,0.03-0.07,0.02c-0.04,0.01-0.09,0.02-0.13,0.03c-0.15,0.01-0.29,0.01-0.44,0
			c-0.11-0.02-0.21-0.04-0.32-0.08c-0.02-0.01-0.04-0.02-0.05-0.02c-0.07-0.04-0.14-0.08-0.21-0.13c-0.01-0.01-0.03-0.02-0.04-0.04
			c-0.02-0.01-0.03-0.03-0.04-0.05c-0.01-0.03-0.03-0.06-0.05-0.09c0-0.01,0-0.01,0-0.02c0,0,0,0,0,0c0.01-0.01,0.01-0.02,0.01-0.03
			c0.03-0.03,0.06-0.06,0.08-0.08c0.01,0,0.01-0.01,0.02-0.01c0.03-0.02,0.05-0.03,0.08-0.04c0.02-0.01,0.04-0.01,0.07-0.02
			c0.02,0,0.04-0.01,0.05-0.01c0.16-0.01,0.31-0.01,0.47,0c0.08,0.02,0.16,0.03,0.24,0.05c0.51,0.13,1.11-0.17,1.23-0.7
			c0.12-0.52-0.16-1.09-0.7-1.23c-0.79-0.21-1.67-0.21-2.4,0.2c-0.68,0.39-1.21,1.17-1.15,1.98c0.11,1.51,1.71,2.43,3.12,2.32
			c0.87-0.07,1.62-0.42,2.13-1.15C182.84,126.98,182.64,126.28,182.18,126.05z"/>
		<path class="st10" d="M180.65,126.5c0.01,0,0.01,0,0.01-0.01c0,0,0,0,0.01,0c-0.05,0.02-0.08,0.03-0.09,0.03c0.01,0,0.02,0,0.02,0
			C180.62,126.51,180.64,126.51,180.65,126.5z"/>
	</g>
	<path class="st10" d="M106.42,42.57v14.08c0,1.29,2,1.29,2,0V42.57C108.42,41.28,106.42,41.28,106.42,42.57z"/>
	<path class="st10" d="M189.92,41.35c-20.67-0.1-41.33-0.31-62-0.64c-5.89-0.09-11.78-0.2-17.68-0.31c-1.29-0.02-1.29,1.98,0,2
		c20.66,0.39,41.33,0.67,62,0.84c5.89,0.05,11.79,0.08,17.68,0.11C191.21,43.36,191.21,41.36,189.92,41.35z"/>
	<path class="st10" d="M199.52,45.95c-0.04-1.28-2.04-1.29-2,0c0.54,19.51,0.65,39.04,0.34,58.56c-0.02,1.29,1.98,1.29,2,0
		C200.17,84.99,200.06,65.47,199.52,45.95z"/>
	<path class="st10" d="M194.93,46.79c0.01-1.29-1.99-1.29-2,0c-0.17,17.27,0.25,34.55,1.26,51.8c0.07,1.28,2.07,1.29,2,0
		C195.18,81.34,194.76,64.06,194.93,46.79z"/>
	<path class="st10" d="M197.98,41.9c-0.19-0.17-0.44-0.3-0.71-0.29c-0.27,0.01-0.51,0.1-0.71,0.29c-0.57,0.56-1.14,1.11-1.71,1.66
		c-0.18,0.18-0.29,0.45-0.29,0.71c0,0.25,0.11,0.54,0.29,0.71c0.19,0.17,0.44,0.3,0.71,0.29c0.27-0.01,0.51-0.1,0.71-0.29
		c0.57-0.55,1.14-1.11,1.71-1.66c0.18-0.18,0.29-0.45,0.29-0.71C198.28,42.36,198.17,42.07,197.98,41.9z"/>
	<path class="st10" d="M110.08,46.79v9.85c0,1.29,2,1.29,2,0v-9.85C112.08,45.5,110.08,45.5,110.08,46.79z"/>
	<path class="st10" d="M111.51,43.84c-0.56-0.47-1.13-0.94-1.69-1.41c-0.09-0.1-0.2-0.17-0.32-0.21c-0.12-0.06-0.25-0.09-0.39-0.09
		c-0.25,0-0.54,0.11-0.71,0.29c-0.17,0.19-0.3,0.44-0.29,0.71c0.01,0.25,0.09,0.54,0.29,0.71c0.56,0.47,1.13,0.94,1.69,1.41
		c0.09,0.1,0.2,0.17,0.32,0.21c0.12,0.06,0.25,0.09,0.39,0.09c0.25,0,0.54-0.11,0.71-0.29c0.17-0.19,0.3-0.44,0.29-0.71
		C111.79,44.29,111.71,44,111.51,43.84z"/>
	<path class="st10" d="M191.32,47.65c-20.21-0.28-40.41-0.93-60.59-1.94c-5.79-0.29-11.58-0.61-17.37-0.97c-1.29-0.08-1.28,1.92,0,2
		c20.17,1.22,40.36,2.09,60.57,2.58c5.8,0.14,11.59,0.25,17.39,0.33C192.61,49.67,192.61,47.67,191.32,47.65z"/>
	<path class="st10" d="M182.84,107.92c-10.22-10.93-26.27-15.64-40.79-12.05c-1.25,0.31-0.72,2.24,0.53,1.93
		c13.84-3.43,29.1,1.12,38.84,11.53C182.31,110.28,183.72,108.86,182.84,107.92z"/>
	<path class="st10" d="M191.07,87.8c-6.23,1.68-11.96,4.94-16.59,9.44c-0.92,0.9,0.49,2.31,1.41,1.41c4.39-4.26,9.8-7.33,15.7-8.92
		C192.84,89.4,192.31,87.47,191.07,87.8z"/>
	<path class="st10" d="M173.57,93.33c-1.41-2.16-4.3-2.58-6.32-1.29c-1.32-2.16-4.23-2.68-6.29-1.26c-0.8-1.43-2.28-2.23-3.81-2.21
		c0.31-1.34,0.04-2.76-1.11-3.9c-1.09-1.08-2.68-1.28-3.96-0.76c0-1.81-0.12-3.61-0.41-5.4c-0.3-1.89-0.84-4.59-3.41-3.57
		c-1.9,0.75-3.52,2.65-4.6,4.32c-0.27,0.42-0.5,0.86-0.72,1.31c-0.27-1.17-0.64-2.3-1.18-3.31c-0.91-1.68-3.54-2.63-4.6-0.53
		c-0.58,1.15,1.15,2.16,1.73,1.01c0.43-0.85,1.2,0.62,1.32,0.92c0.28,0.67,0.46,1.41,0.64,2.12c0.4,1.58,0.63,3.18,0.72,4.81
		c0.07,1.3,1.9,1.28,2,0c0.26-3.21,1.9-6.27,4.48-8.21c0.28-0.21,0.69-0.65,1.06-0.53c0.39,0.12,0.34,0.62,0.42,1.02
		c0.2,0.99,0.34,1.99,0.44,2.99c0.18,1.96,0.17,3.92,0.01,5.88c-0.09,1.11,1.79,1.38,1.96,0.27c0.25-1.55,2.08-1.88,2.96-0.61
		c0.69,0.99,0.4,2.18-0.3,3.05c-0.35,0.26-0.68,0.58-0.98,0.97c-0.59,0.78,0.59,1.96,1.37,1.37c0.36-0.27,0.68-0.59,0.97-0.93
		c1.38-0.88,3.38-0.08,3.58,1.74c0.11,0.96,1.29,1.39,1.86,0.5c1.29-2,4-1.33,4.49,0.89c0.2,0.91,1.37,0.89,1.83,0.24
		c0.95-1.34,3.23-1.25,4.12,0.1C172.55,95.41,174.28,94.41,173.57,93.33z"/>
	<path class="st10" d="M190.72,58.6c-2.63-0.5-5.21,0.43-7.15,2.22c-2.09,1.93-3.18,4.71-3.78,7.43c-0.61,2.78-0.87,5.63,0.99,8
		c1.82,2.32,4.69,3.29,7.49,3.81c1.26,0.23,1.8-1.69,0.53-1.93c-2.27-0.42-4.65-1.06-6.24-2.85c-1.66-1.86-1.33-4.24-0.84-6.49
		c0.86-3.92,3.59-9.18,8.47-8.26C191.44,60.76,191.98,58.83,190.72,58.6z"/>
	<path class="st10" d="M189.49,72.98c0.09-1.28-1.91-1.28-2,0c-0.28,4.03-0.37,8.07-0.25,12.11c0.04,1.28,2.04,1.29,2,0
		C189.13,81.05,189.21,77.01,189.49,72.98z"/>
	<path class="st10" d="M185.57,82.12c-1.04-1.33-3.07-1.38-4.45-0.61c-1.18,0.66-1.88,1.87-2.25,3.15c-0.79-0.1-1.64,0.15-2.23,0.68
		c-1.1,0.97-1.16,2.68-0.65,3.96c0.2,0.5,0.67,0.85,1.23,0.7c0.48-0.13,0.9-0.73,0.7-1.23c-0.16-0.41-0.25-0.75-0.24-1.15
		c0-0.13,0.01-0.25,0.08-0.43c0.04-0.11,0.13-0.26,0.16-0.3c0.01-0.01,0.07-0.07,0.09-0.09c0.06-0.04,0.12-0.08,0.18-0.11
		c0.02-0.01,0.03-0.02,0.02-0.02c0.01,0,0.03,0,0.06-0.01c0.02,0,0.31-0.05,0.12-0.03c0.01,0,0.11,0,0.16,0
		c0.03,0.01,0.07,0.01,0.1,0.02c0.01,0.01,0.06,0.03,0.1,0.05c0.01,0.02,0.1,0.11,0.12,0.13c0.45,0.54,1.57,0.28,1.67-0.44
		c0.08-0.59,0.23-1.26,0.45-1.76c0.13-0.29,0.29-0.58,0.49-0.83c0.02-0.02,0.17-0.18,0.24-0.25c0.12-0.12,0.15-0.14,0.24-0.2
		c0.43-0.29,0.77-0.34,1.27-0.34c0.07,0,0.39,0.08,0.46,0.11c0.04,0.02,0.32,0.22,0.21,0.12c0.1,0.09,0.19,0.19,0.27,0.3
		c0.33,0.43,1.07,0.35,1.41,0C185.99,83.11,185.9,82.55,185.57,82.12z"/>
	<path class="st16" d="M141.58,56.55c0.58-1.19,1.04-2.72-0.38-3.25c-1.1-0.41-2.21,0.11-3.16,0.78c-0.34-0.6-0.93-1.07-1.65-1.24
		c-1.01-0.24-1.95,0.12-2.71,0.74c-0.58-0.96-1.98-1.22-2.87-0.43c-0.61,0.54-0.72,1.28-0.53,1.97c-0.34,0.04-0.67,0.1-1,0.18
		c-0.67,0.18-1.51,0.46-1.99,0.98c-0.49,0.53-0.43,1.34,0.03,1.86c0.54,0.61,1.46,0.68,2.21,0.66c0.29-0.01,0.8,0,1.1-0.12
		c0,0.08,0.01,0.16,0.01,0.22c0.03,0.71,0.41,1.38,1,1.78c0.82,0.56,1.85,0.44,2.56-0.11c0.66,0.79,1.58,1.3,2.71,1.11
		c0.9-0.15,1.57-0.8,1.8-1.59c1.25,0.36,2.6,0.34,3.41-0.91C142.7,58.29,142.36,57.11,141.58,56.55z"/>
	<path class="st16" d="M170.25,66.75c-0.64-0.12-1.28-0.18-1.93-0.22c-0.12-0.62-0.6-1.18-1.28-1.24c-0.84-0.08-1.71,0.21-2.29,0.82
		c-0.04-0.04-0.08-0.08-0.13-0.12c-0.96-0.72-2.16-1.03-3.35-0.81c-0.7,0.13-1.25,0.74-1.29,1.43c-0.2,0.01-0.4,0.01-0.59,0.03
		c-0.55,0.05-1.09,0.16-1.53,0.53c-0.6,0.5-0.87,1.36-0.5,2.08c0.33,0.65,0.89,0.93,1.6,0.89c1.01-0.05,2.02-0.1,3.03-0.14
		c0.01,0.34,0.02,0.61,0.13,0.96c0.37,1.11,1.52,1.95,2.7,1.51c0.51-0.19,0.85-0.55,1.08-0.99c0.69,0.32,1.45,0.45,2.22,0.37
		c0.93-0.1,2.1-0.61,2.48-1.53c0.08-0.2,0.11-0.41,0.12-0.62c0.2-0.17,0.38-0.35,0.54-0.55C171.99,68.21,171.34,66.96,170.25,66.75z
		"/>
	<path class="st16" d="M170.8,57.13c0.64,0.12,1.28,0.18,1.93,0.22c0.12,0.62,0.6,1.18,1.28,1.24c0.84,0.08,1.71-0.21,2.29-0.82
		c0.04,0.04,0.08,0.08,0.13,0.12c0.96,0.72,2.16,1.03,3.35,0.81c0.7-0.13,1.25-0.74,1.29-1.43c0.2-0.01,0.4-0.01,0.59-0.03
		c0.55-0.05,1.09-0.16,1.53-0.53c0.6-0.5,0.87-1.36,0.5-2.08c-0.33-0.65-0.89-0.92-1.6-0.89c-1.01,0.05-2.02,0.1-3.03,0.14
		c-0.01-0.34-0.02-0.61-0.13-0.95c-0.37-1.11-1.52-1.95-2.7-1.51c-0.51,0.19-0.85,0.55-1.08,0.99c-0.69-0.32-1.45-0.45-2.22-0.37
		c-0.93,0.1-2.1,0.61-2.48,1.53c-0.08,0.2-0.11,0.41-0.12,0.62c-0.2,0.17-0.38,0.35-0.54,0.55
		C169.06,55.67,169.71,56.93,170.8,57.13z"/>
	<path class="st16" d="M164.78,79.82c-0.07-0.25-0.2-0.47-0.39-0.66c-0.1-0.08-0.2-0.16-0.3-0.23c-0.23-0.14-0.49-0.2-0.76-0.2
		h-0.75c-0.21-0.01-0.4,0.04-0.58,0.13c-0.19,0.06-0.35,0.16-0.48,0.31c-0.15,0.14-0.25,0.3-0.31,0.48
		c-0.09,0.18-0.14,0.37-0.13,0.58c0.02,0.13,0.04,0.27,0.05,0.4c0.07,0.25,0.2,0.47,0.39,0.66c0.1,0.08,0.2,0.16,0.3,0.23
		c0.23,0.14,0.49,0.2,0.76,0.2h0.75c0.21,0.01,0.4-0.04,0.58-0.13c0.19-0.06,0.35-0.16,0.48-0.31c0.15-0.14,0.25-0.3,0.31-0.48
		c0.09-0.18,0.14-0.37,0.13-0.58C164.82,80.08,164.8,79.95,164.78,79.82z"/>
	<path class="st16" d="M148.64,66.11c-0.05-0.12-0.1-0.24-0.15-0.36c-0.13-0.23-0.31-0.4-0.54-0.54c-0.13-0.06-0.25-0.13-0.38-0.19
		c-0.17-0.11-0.36-0.17-0.56-0.18c-0.2-0.04-0.4-0.04-0.6,0.03c-0.2,0.05-0.37,0.14-0.51,0.27c-0.16,0.11-0.29,0.25-0.39,0.42
		l-0.15,0.36c-0.07,0.27-0.07,0.53,0,0.8l0.15,0.36c0.13,0.23,0.31,0.4,0.54,0.54c0.13,0.06,0.25,0.13,0.38,0.19
		c0.17,0.11,0.36,0.17,0.56,0.18c0.2,0.04,0.4,0.04,0.6-0.03c0.2-0.05,0.37-0.14,0.51-0.27c0.16-0.11,0.29-0.25,0.39-0.42
		c0.05-0.12,0.1-0.24,0.15-0.36C148.71,66.65,148.71,66.38,148.64,66.11z"/>
	<path class="st16" d="M160.31,59.19l-0.23-0.3c-0.19-0.19-0.41-0.31-0.66-0.39c-0.31-0.13-0.63-0.25-0.94-0.38
		c-0.2-0.06-0.4-0.07-0.6-0.03c-0.2,0.01-0.39,0.07-0.56,0.18c-0.17,0.09-0.31,0.22-0.42,0.39c-0.13,0.14-0.22,0.32-0.27,0.51
		c-0.02,0.13-0.04,0.27-0.05,0.4c0,0.27,0.07,0.52,0.2,0.76c0.08,0.1,0.16,0.2,0.23,0.3c0.19,0.19,0.41,0.31,0.66,0.39
		c0.31,0.13,0.63,0.25,0.94,0.38c0.2,0.06,0.4,0.07,0.6,0.03c0.2-0.01,0.39-0.07,0.56-0.18c0.17-0.09,0.32-0.22,0.42-0.39
		c0.13-0.14,0.22-0.31,0.27-0.51c0.02-0.13,0.04-0.27,0.05-0.4C160.52,59.67,160.45,59.42,160.31,59.19z"/>
</g>
</svg>
