<?xml version="1.0" encoding="utf-8"?>
<!-- Generator: Adobe Illustrator 24.2.0, SVG Export Plug-In . SVG Version: 6.00 Build 0)  -->
<svg version="1.1" id="line" xmlns="http://www.w3.org/2000/svg" xmlns:xlink="http://www.w3.org/1999/xlink" x="0px" y="0px"
	 viewBox="0 0 270 230" style="enable-background:new 0 0 270 230;" xml:space="preserve">
<style type="text/css">
	.st0{fill:#BCDFDF;}
	.st1{fill:#99D3DD;}
	.st2{fill:#ABCB58;}
	.st3{fill:#C7D555;}
	.st4{fill:#FFFFFF;}
	.st5{fill:#AAB4B9;}
	.st6{fill:#FDDBBF;}
	.st7{fill:#F4CA99;}
	.st8{fill:#DC9F5C;}
	.st9{fill:#F6B1AC;}
	.st10{fill:#651811;}
	.st11{fill:#E9E56D;}
	.st12{fill:#9BC0D5;}
	.st13{fill:#DDE8F0;}
	.st14{fill:#EF7C68;}
	.st15{fill:#FFE1A2;}
	.st16{fill:#E9F4F4;}
	.st17{fill:#CDD95F;}
	.st18{fill:#B2DCDA;}
	.st19{fill:#9DAEB9;}
	.st20{fill:#F0EA7A;}
	.st21{fill:#CCDB81;}
	.st22{fill:#F4A5AD;}
	.st23{fill:#B2B2B2;}
	.st24{fill:#C0C4C6;}
	.st25{fill:#E3E8EA;}
	.st26{fill:#FFDB83;}
	.st27{fill:#C0C0C0;}
	.st28{fill:#6EC6D9;}
	.st29{fill:#878D91;}
	.st30{fill:#F0867B;}
	.st31{fill:#FFDE90;}
	.st32{fill:#C53C6C;}
	.st33{fill:#EEBF6D;}
	.st34{fill:#903D8F;}
	.st35{fill:#514E9C;}
	.st36{fill:#F9BB7A;}
	.st37{fill:#F28F6C;}
	.st38{fill:#FFE586;}
	.st39{fill:#6FC5D3;}
	.st40{fill:#9BD4E4;}
	.st41{fill:#F6B9C2;}
	.st42{fill:#F4A08B;}
	.st43{fill:#D1E8E8;}
	.st44{fill:#FCC249;}
	.st45{fill:#9F5A24;}
	.st46{fill:#BCE4FA;}
	.st47{fill:#B07147;}
	.st48{fill:#D88959;}
	.st49{fill:#FFEC96;}
	.st50{fill:#91D0D4;}
	.st51{fill:#651811;stroke:#651811;stroke-width:0.75;stroke-linecap:round;stroke-linejoin:round;stroke-miterlimit:10;}
	.st52{fill:#C1E3E6;}
	.st53{fill:#C4D4DE;}
	.st54{fill:#651811;stroke:#651811;stroke-width:0.5;stroke-miterlimit:10;}
	.st55{fill:#651811;stroke:#651811;stroke-width:0.5;stroke-linecap:round;stroke-linejoin:round;stroke-miterlimit:10;}
	.st56{fill:#D8E0E6;}
	.st57{fill:#FECB4A;}
	.st58{fill:#EEF8FE;}
	.st59{fill:#ADCE68;}
	.st60{fill:#FCD7BA;}
	.st61{fill:#651811;stroke:#651811;stroke-width:0.25;stroke-miterlimit:10;}
	.st62{fill:#F4A8B3;}
	.st63{fill:#F7AE6E;}
	.st64{fill:#FEDFB3;}
	.st65{fill:#F7B28C;}
	.st66{fill:#FFFBDC;}
	.st67{fill:#FCC24F;}
	.st68{fill:none;stroke:#651811;stroke-width:2;stroke-linecap:round;stroke-linejoin:round;stroke-miterlimit:10;}
	.st69{fill:#9EC65A;}
	.st70{fill:#A7D9DE;}
	.st71{fill:#CACCCE;}
	.st72{fill:#FBBE49;}
	.st73{fill:#9BC76B;}
	.st74{fill:#D9E181;}
	.st75{fill:#F6B9C5;}
	.st76{fill:#87CDD8;}
	.st77{fill:#651811;stroke:#651811;stroke-width:0.4;stroke-miterlimit:10;}
	.st78{fill:#A8D7CC;}
	.st79{fill:#CDEAFC;}
	.st80{fill:#D6D6D6;}
	.st81{fill:#F8C3C3;}
	.st82{fill:#D7BCA5;}
	.st83{fill:#FFD247;}
	.st84{fill:#F59B42;}
	.st85{fill:#FFF59B;}
	.st86{fill:#90D1DB;}
	.st87{fill:#EB935F;}
	.st88{fill:#DD7636;}
</style>
<g>
	<path class="st0" d="M243.38,75.08c-22.29-45.32-86.58-56.73-124.47-51.75C81.15,28.3,42.89,46.46,27.04,76.15
		c-7.82,14.66-5.32,34.79-0.06,45.88c6.91,14.56,28.55,49.97,117.85,44.02c72.23-4.82,92.5-34.15,99.28-51.22
		C249.17,102.1,249.5,87.52,243.38,75.08z"/>
	<path class="st1" d="M208.39,151.51c-8.17-36.41-47.82-52.85-72.76-53.85c-24.86-1-51.82,7.74-65.98,27.82
		c-6.99,9.91-8.1,25.16-6.23,34.05c2.46,11.67,11.55,40.64,69.56,47.29c46.92,5.38,63.87-13.88,70.51-25.71
		C208.45,172.29,210.63,161.51,208.39,151.51z"/>
	
		<ellipse transform="matrix(0.2252 -0.9743 0.9743 0.2252 3.1248 210.3531)" class="st4" cx="133.83" cy="103.21" rx="46.71" ry="46.71"/>
	<path class="st4" d="M191.85,141.04c-4.7-12.86-18.4-15.05-30.49-14.24c-18.72,1.25-37.43,2.9-56.14,4.35
		c-0.04,0-0.07,0.02-0.11,0.02c-6.36-1.32-13.3-1.26-19.32,1.47c-5.7,2.59-5.24,7.6-4.61,13.01c0.71,6.16,0.68,13.25,3.37,18.95
		c1.11,2.36,2.69,4.3,4.77,5.87c2.87,2.18,7.25,3.38,7.9,7.37c0.31,1.9,2.08,2.65,3.74,2.45c0.51,0.11,1.07,0.11,1.69-0.06
		c2.62-0.74,4.86-2.13,6.98-3.74c10.17,5.7,21.15,6.67,35.08,6.14c6.99-0.27,34-3.15,39.23-6.76
		C193.58,169.22,195.74,151.69,191.85,141.04z"/>
	<g>
		<path class="st6" d="M119.81,106.72c3.53,6.23,11.55,7.71,18.08,6.07c3.33-0.83,6.36-3.76,6.78-6.83
			c4.12-0.31,8.64-1.57,9.26-5.42c0.55-3.38-1.71-4.6-4.33-4.66c0.29-2.06,0.39-4.13,0.32-6.28c-0.04-1.35-0.8-2.15-1.76-2.48
			c0.3-2.08-2.25-4.5-4.77-3.13c-4.96,2.7-9.5,2.5-14.84,1.49c-3.05-0.57-6.61-0.45-8.71,2.22
			C116.43,92.07,117.23,102.16,119.81,106.72z"/>
		<path class="st6" d="M130.14,114.12c0.5-0.76,1.37-1.28,2.28-1.35c0.56-1.19,1.98-2,3.28-1.7c1.64,0.38,2.64,1.84,2.4,3.5
			c-0.22,1.51-1.2,2.79-2.49,3.54c-0.21,0.33-0.48,0.62-0.83,0.83c-1.35,0.84-3.26,0.63-4.17-0.78c-0.15-0.24-0.3-0.47-0.46-0.71
			C129.49,116.43,129.47,115.14,130.14,114.12z"/>
		<path class="st7" d="M149.68,84.36c0.11-0.49,0.22-0.98,0.35-1.46c0.2-0.73,0.75-1.16,1.47-1.19c0-0.05,0-0.09,0.01-0.14
			c0.15-0.78,0.96-1.37,1.75-1.2c1.9,0.42,2.29,2.57,2.5,4.24c0.48,0.22,0.86,0.65,0.87,1.21c0.02,1.26-0.02,2.52-0.13,3.77
			c-0.1,1.14-0.21,2.33-0.51,3.43c-0.36,1.34-1.48,2.5-2.98,2.01c-0.15-0.05-0.3-0.12-0.44-0.2c-0.34,0.62-1.34,0.96-1.94,0.57
			c-0.83-0.53-1.3-1.31-1.12-2.32c0-0.02,0.01-0.03,0.01-0.05c-0.41-0.24-0.72-0.64-0.72-1.13c0.01-2.25,0.23-4.48,0.67-6.67
			c0.01-0.12,0.01-0.23,0.02-0.35C149.51,84.69,149.58,84.52,149.68,84.36z"/>
		<path class="st8" d="M119.51,82.31c3.18,2.09,7.31,3.06,11.06,3.36c6.5,0.51,13.09-1.01,18.61-4.45c0.3,0.42,0.8,0.66,1.36,0.68
			c1.27,0.05,2.29-1.03,2.53-2.22c0.26-1.33-0.41-2.54-1.52-3.25c-1.27-0.81-2.9-0.97-4.36-1.17c-1.65-0.23-3.3-0.38-4.93-0.71
			c-1.59-0.32-3.18-0.82-4.49-1.81c-1.32-0.99-2.38-2.25-4-2.76c-1.39-0.44-2.86-0.1-3.83,0.73c-1.19-1-2.72-1.54-4.36-1.19
			c-1.08,0.23-2.05,0.88-2.73,1.74c-0.43-0.26-0.89-0.46-1.4-0.57c-1.95-0.44-3.86,0.6-4.9,2.23
			C114.35,76.32,116.49,80.32,119.51,82.31z"/>
		<path class="st7" d="M147.47,106.47c0.37-0.53,0.78-1.02,1.21-1.49c0.27-0.46,0.51-0.95,0.68-1.45c0.11-0.33,0.53-0.64,0.84-0.75
			c0.35-0.13,0.83-0.12,1.16,0.06c0.34,0.18,0.64,0.47,0.75,0.84l0.08,0.38c0.02,0.27-0.03,0.54-0.15,0.78
			c-0.04,0.11-0.1,0.22-0.14,0.34c0,0,0,0,0,0.01c0.02,0.39-0.08,0.81-0.36,1.11c-0.15,0.14-0.28,0.3-0.43,0.46
			c-0.4,0.62-0.86,1.19-1.39,1.68c-0.29,0.28-0.59,0.48-1.01,0.51c-0.37,0.03-0.83-0.1-1.11-0.36c-0.28-0.26-0.5-0.62-0.51-1.01
			c0.01-0.13,0.01-0.27,0.02-0.4C147.19,106.91,147.3,106.68,147.47,106.47z"/>
		<path class="st72" d="M149.56,122.7c-3.36-1.92-6.94-3.4-10.66-4.48c-0.93-0.27-1.91,0.43-2.24,1.29
			c-6.93-0.73-14.05,0.77-20.1,4.3c-3.02,1.76-5.99,4.28-6.51,7.88c5.41-2.96,11.94-3.65,18.16-3.03
			C133.78,123.39,141.86,122.45,149.56,122.7z"/>
		<path class="st10" d="M136.82,112.54c0.58,0.05,0.93,0.48,0.95,1.04c0.02,0.38,0.04,0.76,0.07,1.14c0,0.02,0,0.03,0,0.04
			c0,0.01,0,0.02,0,0.04c0.01,0.09,0.02,0.17,0.03,0.26c0.02,0.19,0.04,0.38,0.06,0.57c0.09,0.74,0.21,1.48,0.35,2.21
			c0.1,0.51-0.21,1.1-0.75,1.2c-0.52,0.09-1.09-0.21-1.2-0.75c-0.31-1.58-0.49-3.19-0.57-4.79
			C135.76,112.97,136.32,112.49,136.82,112.54z"/>
		<path class="st10" d="M126.44,118.29c-0.09,0.2,0.06-0.14,0.08-0.17c0.04-0.08,0.07-0.16,0.11-0.25c0.08-0.19,0.16-0.39,0.24-0.58
			c0.14-0.36,0.27-0.73,0.38-1.1c0.11-0.37,0.22-0.75,0.31-1.12c0.05-0.2,0.09-0.41,0.13-0.61c0-0.02,0.01-0.04,0.01-0.05
			c0-0.01,0-0.02,0.01-0.04c0.02-0.12,0.04-0.24,0.06-0.35c0.08-0.52,0.47-1.01,1.04-0.95c0.49,0.04,1.04,0.49,0.95,1.04
			c-0.28,1.85-0.83,3.59-1.64,5.27c-0.23,0.47-0.98,0.58-1.38,0.3C126.25,119.32,126.2,118.79,126.44,118.29z"/>
		<path class="st10" d="M127,117.64c0.8,0.58,1.75,0.66,2.71,0.72c1,0.07,2,0.09,3,0.04c2.02-0.09,4.03-0.52,5.83-1.47
			c1.14-0.6,2.07,1.17,0.93,1.77c-2.13,1.11-4.47,1.58-6.85,1.69c-1.14,0.05-2.28,0.02-3.41-0.07c-1.16-0.1-2.33-0.31-3.29-1.01
			C124.87,118.56,125.95,116.88,127,117.64z"/>
		<path class="st10" d="M125.19,119.45c1.49,1.77,4.11,1.77,6.23,1.58c2.8-0.25,5.57-0.89,8.2-1.89c1.2-0.45,2.08,1.34,0.87,1.8
			c-3.04,1.16-6.23,1.91-9.48,2.11c-2.63,0.17-5.54-0.15-7.35-2.3C122.84,119.76,124.36,118.46,125.19,119.45z"/>
		<path class="st10" d="M106.92,131.29c4.14-4.85,9-9.36,15.12-11.51c0.51-0.18,1.08-0.06,1.34,0.46c0.22,0.44,0.05,1.16-0.46,1.34
			c-5.79,2.04-10.42,6.25-14.35,10.85C107.74,133.4,106.08,132.27,106.92,131.29z"/>
		<path class="st10" d="M129.57,98.5c1.44-0.51,1.99-2.18,2.39-3.5c0.19-0.62,1.14-0.31,0.95,0.31c-0.44,1.46-1.06,2.96-2.34,3.78
			c0.38,0.26,0.81,0.44,1.27,0.5c0.27,0.04,0.49,0.23,0.48,0.52c-0.01,0.25-0.25,0.51-0.52,0.48c-0.96-0.13-1.82-0.55-2.48-1.26
			C129.04,99.03,129.23,98.62,129.57,98.5z"/>
		<path class="st10" d="M124.66,92.6c0.12-0.71,0.41-1.55,1.02-1.83c0.19-0.09,0.39-0.1,0.58-0.05c0.01,0,0.02-0.01,0.03,0
			c0.69,0.07,1,0.88,1.14,1.59c0.15,0.75,0.11,1.56-0.1,2.29c-0.19,0.65-0.58,1.33-1.21,1.41c-0.63,0.08-1.12-0.5-1.33-1.14
			C124.56,94.15,124.53,93.36,124.66,92.6z"/>
		<path class="st10" d="M139.19,95.04c0.12-0.71,0.41-1.55,1.02-1.83c0.19-0.09,0.39-0.1,0.58-0.05c0.01,0,0.02-0.01,0.03,0
			c0.69,0.07,1,0.88,1.14,1.59c0.15,0.75,0.11,1.56-0.1,2.29c-0.19,0.65-0.58,1.33-1.21,1.41c-0.63,0.08-1.12-0.5-1.33-1.14
			C139.09,96.59,139.06,95.8,139.19,95.04z"/>
		<path class="st10" d="M116.74,98.66c0.44-4.31,2.42-8.51,1.77-12.89c-0.19-1.27,1.76-1.72,1.95-0.45c0.65,4.34-1,8.34-1.61,12.58
			c-0.59,4.08,0.51,7.88,3.53,10.76c6.67,6.38,16.92,3.59,23.28-1.64c0.99-0.82,2.35,0.65,1.35,1.47
			c-5.5,4.52-12.75,7.22-19.82,5.14C120.6,111.69,116.03,105.57,116.74,98.66z"/>
		<path class="st10" d="M141.52,88.63c0.44-0.06,0.89-0.01,1.31,0.15c0.76,0.29,1.35,0.88,1.65,1.64c0.04,0.06,0.06,0.12,0.08,0.18
			c0.01,0.02,0.02,0.04,0.02,0.06c0.03,0.12,0,0.25-0.07,0.36c-0.04,0.09-0.09,0.17-0.16,0.24c-0.14,0.14-0.45,0.17-0.61,0.03
			c-0.22-0.19-0.43-0.38-0.66-0.55c-0.11-0.08-0.22-0.16-0.33-0.23c-0.05-0.03-0.1-0.06-0.15-0.09c-0.03-0.02-0.07-0.04-0.1-0.06
			c-0.06-0.03-0.07-0.04-0.04-0.02c-0.11-0.06-0.24-0.11-0.36-0.15c-0.07-0.02-0.14-0.04-0.21-0.06c-0.09-0.03,0.01,0-0.09-0.02
			c-0.3-0.05-0.46-0.05-0.74,0.02c-0.34,0.08-0.59-0.22-0.6-0.53C140.46,89.03,141.03,88.69,141.52,88.63z"/>
		<path class="st10" d="M123.89,87.22c0.36-0.26,0.78-0.43,1.22-0.49c0.81-0.11,1.61,0.13,2.23,0.65c0.06,0.03,0.11,0.07,0.15,0.12
			c0.02,0.02,0.04,0.02,0.05,0.04c0.09,0.09,0.12,0.22,0.11,0.35c0.01,0.1,0,0.19-0.03,0.28c-0.06,0.19-0.31,0.37-0.52,0.32
			c-0.28-0.06-0.56-0.13-0.84-0.17c-0.13-0.02-0.26-0.04-0.4-0.05c-0.06,0-0.11-0.01-0.17-0.01c-0.04,0-0.08,0-0.11,0
			c-0.06,0-0.08,0-0.04,0c-0.13,0-0.26,0.02-0.39,0.04c-0.07,0.01-0.15,0.03-0.22,0.05c-0.09,0.02,0.01-0.01-0.08,0.02
			c-0.29,0.1-0.43,0.18-0.64,0.37c-0.26,0.24-0.63,0.09-0.78-0.18C123.15,88.07,123.49,87.51,123.89,87.22z"/>
		<path class="st10" d="M132.93,67.28c0.54-0.17,1.05,0.32,1.18,0.79c0.62,2.27,2.54,3.8,4.69,4.55c2.56,0.88,5.22,0.59,7.87,0.73
			c2.15,0.12,4.24,0.62,5.88,2.09c1.38,1.24,2.24,3.01,1.89,4.88c-0.24,1.25-2.23,1.12-1.99-0.15c0.4-2.12-1.35-3.8-3.25-4.41
			c-2.47-0.79-5.19-0.31-7.73-0.56c-3.76-0.37-7.43-2.16-8.94-5.67c-2.44,0.92-5.24,2.67-4.29,5.64c0.39,1.23-1.57,1.6-1.96,0.39
			C124.85,71.1,129.41,68.42,132.93,67.28z"/>
		<path class="st10" d="M123.68,69.5c1.45-1.33,3.38-2.02,5.34-2.03c0.54,0,0.96,0.56,0.92,1.07c-0.04,0.57-0.53,0.92-1.07,0.92
			c-1.36,0.01-2.82,0.57-3.89,1.55c-1.08,1-1.73,2.42-1.83,3.87c-0.04,0.54-0.53,0.96-1.07,0.92c-0.54-0.04-0.96-0.53-0.92-1.07
			C121.31,72.75,122.21,70.85,123.68,69.5z"/>
		<path class="st10" d="M122.73,68.92c1.27,0.15,1.14,2.14-0.15,1.99c-3.44-0.4-5.72,5.08-4.58,7.79c1.2,2.88,4.87,4.17,7.6,5.01
			c6.61,2.03,13.87,1.53,20.17-1.29c1.17-0.53,2.06,1.27,0.88,1.8c-7.75,3.47-17.01,3.71-24.81,0.22c-3.3-1.48-6.5-4.09-6.14-8.08
			C115.98,72.99,118.88,68.47,122.73,68.92z"/>
		<path class="st10" d="M148.59,82.85c0.42-0.11,0.84-0.23,1.25-0.36c0.18-0.06,0.35-0.11,0.53-0.17c0.04-0.01,0.11-0.04,0.13-0.04
			c0.11-0.04,0.22-0.08,0.33-0.12c0.79-0.29,1.56-0.61,2.32-0.96c0.47-0.22,1.12-0.04,1.34,0.46c0.21,0.49,0.05,1.1-0.46,1.34
			c-1.62,0.76-3.31,1.37-5.04,1.82c-0.51,0.13-1.1-0.27-1.18-0.79C147.72,83.46,148.05,82.99,148.59,82.85z"/>
		<g>
			<path class="st10" d="M147.35,102.7c0.32-0.46,0.93-0.54,1.39-0.26c1,0.62,1.35,0.56,2.15,0.15c0.98-0.51,1.69-1.65,1.82-2.68
				c0.12-1.03-0.24-2.04-0.95-2.63c-0.76-0.63-1.89-0.78-2.67-0.23c-0.44,0.31-1.03,0.34-1.41-0.1c-0.32-0.38-0.34-1.1,0.1-1.41
				c1.15-0.8,2.6-1.04,3.94-0.55c1.22,0.44,2.21,1.47,2.67,2.67c1.02,2.7-0.42,6.17-3.28,6.97c-1.5,0.42-2.1,0.33-3.5-0.53
				C147.15,103.81,147.05,103.13,147.35,102.7z"/>
			<path class="st10" d="M149.64,97.8c0.17-0.23,0.46-0.27,0.7-0.13c0.73,0.45,1.25,1.25,1.36,2.1c0.03,0.26-0.11,0.55-0.39,0.59
				c-0.25,0.04-0.55-0.12-0.59-0.39c-0.02-0.14-0.05-0.27-0.09-0.41c-0.04-0.11-0.08-0.22-0.14-0.32c-0.02-0.03-0.03-0.06-0.05-0.09
				c-0.01-0.01-0.02-0.04-0.03-0.05c-0.01-0.01-0.02-0.02-0.02-0.03c-0.02-0.03-0.04-0.06-0.07-0.09c-0.04-0.05-0.09-0.1-0.13-0.15
				c-0.02-0.02-0.05-0.05-0.07-0.07c0,0-0.01-0.01-0.01-0.01c-0.02-0.01-0.05-0.04-0.06-0.05c-0.03-0.02-0.06-0.05-0.09-0.07
				c-0.06-0.04-0.12-0.08-0.18-0.12C149.54,98.36,149.48,98,149.64,97.8z"/>
			<path class="st10" d="M149.54,99.33c0.03-0.08,0.08-0.15,0.14-0.21c0.15-0.13,0.3-0.26,0.45-0.39c0.05-0.05,0.1-0.08,0.17-0.09
				c0.06-0.03,0.13-0.04,0.2-0.03c0.07,0,0.13,0.02,0.19,0.06c0.06,0.02,0.11,0.06,0.15,0.11c0.02,0.04,0.05,0.07,0.07,0.11
				c0.04,0.08,0.06,0.17,0.05,0.26c-0.01,0.04-0.02,0.09-0.03,0.13c-0.03,0.08-0.08,0.15-0.14,0.21c-0.15,0.13-0.3,0.26-0.45,0.39
				c-0.05,0.05-0.1,0.08-0.17,0.09c-0.06,0.03-0.13,0.04-0.2,0.03c-0.07,0-0.13-0.02-0.19-0.06c-0.06-0.02-0.11-0.06-0.15-0.11
				c-0.02-0.04-0.05-0.07-0.07-0.11c-0.04-0.08-0.06-0.17-0.05-0.26C149.52,99.41,149.53,99.37,149.54,99.33z"/>
		</g>
		<path class="st10" d="M154.47,97.6c-0.01-0.05-0.01-0.1-0.03-0.16c-0.05-0.22-0.13-0.44-0.22-0.65c-0.09-0.2-0.23-0.39-0.35-0.57
			c-0.07-0.1-0.17-0.2-0.27-0.28c0.68-0.57,0.95-1.98,1.14-2.74c0.28-1.17,0.37-2.41,0.27-3.61c-0.05-0.61,0.45-1.11,0.96-1.18
			c0.1-1.92-0.28-3.84-1.12-5.59c-0.56-1.16,1.24-2.04,1.8-0.88c1.38,2.89,1.67,6.11,0.9,9.22c-0.08,0.31-0.31,0.51-0.58,0.59
			c-0.07,0.8-0.2,1.59-0.41,2.38c-0.36,1.37-0.88,2.81-2.08,3.62C154.48,97.71,154.48,97.65,154.47,97.6z"/>
		<path class="st10" d="M148.82,85.36c0.58,0.04,0.92,0.53,0.92,1.07c0.02,3.13-0.08,6.26-0.31,9.39c-0.09,1.28-2.09,1.14-1.99-0.15
			c0.23-3.12,0.33-6.26,0.31-9.39C147.74,85.75,148.31,85.33,148.82,85.36z"/>
		<path class="st10" d="M144.99,107.5c0.36-0.28,0.7-0.57,1.02-0.9c0.07-0.08,0.15-0.15,0.22-0.23c0.04-0.05,0.08-0.09,0.12-0.14
			c0.15-0.17,0.29-0.35,0.42-0.54c0.26-0.36,0.48-0.74,0.7-1.13c0,0,0,0,0,0c0,0,0,0,0,0c0.02-0.05,0.04-0.09,0.07-0.14
			c0.05-0.1,0.1-0.21,0.14-0.31c0.09-0.22,0.18-0.44,0.26-0.67c0.17-0.49,0.78-0.81,1.28-0.61c0.51,0.21,0.79,0.75,0.61,1.28
			c-0.66,1.93-1.9,3.66-3.52,4.9c-0.42,0.32-1.06,0.34-1.41-0.1C144.56,108.51,144.54,107.84,144.99,107.5z"/>
		<path class="st10" d="M144.57,109.48c-0.13,0.03,0.17-0.04,0.16-0.04c0.09-0.02,0.17-0.04,0.26-0.07
			c0.19-0.05,0.38-0.11,0.56-0.18c0.19-0.06,0.37-0.14,0.55-0.21c0.08-0.03,0.16-0.07,0.25-0.11c0,0,0.13-0.06,0.17-0.08
			c0.68-0.34,1.32-0.78,1.9-1.27c0.42-0.37,1.02-1.04,1.43-1.6c0.12-0.16,0.37-0.58,0.53-0.88c0.18-0.35,0.34-0.71,0.48-1.08
			c0.19-0.51,0.89-0.67,1.34-0.45c0.52,0.26,0.64,0.83,0.45,1.34c-1.29,3.42-4.39,5.9-7.93,6.62c-0.53,0.11-1.04-0.43-1.07-0.92
			C143.6,109.95,144.04,109.59,144.57,109.48z"/>
		<path class="st10" d="M155.16,80.88c0.13-0.24,0.32-0.39,0.57-0.5c0.87-0.38,1.77-0.64,2.7-0.81c0.24-0.04,0.56,0.09,0.74,0.25
			c0.18,0.16,0.33,0.43,0.34,0.68c0.01,0.26-0.06,0.54-0.25,0.74c-0.06,0.06-0.13,0.11-0.19,0.17c-0.15,0.1-0.31,0.15-0.48,0.17
			c-0.01,0-0.02,0-0.02,0c-0.74,0.16-1.47,0.39-2.17,0.7c-0.23,0.1-0.56,0.06-0.78-0.05c-0.22-0.11-0.43-0.33-0.5-0.57
			C155.03,81.4,155.03,81.11,155.16,80.88z"/>
		<path class="st10" d="M154.66,79.38c0.17-0.12,0.33-0.24,0.48-0.38c0.32-0.29,0.61-0.62,0.87-0.97c0.14-0.19,0.45-0.32,0.68-0.34
			c0.25-0.02,0.55,0.07,0.74,0.25c0.18,0.18,0.33,0.41,0.34,0.68l-0.02,0.27c-0.04,0.18-0.11,0.33-0.23,0.47
			c-0.47,0.66-1.07,1.22-1.74,1.68c-0.21,0.14-0.5,0.2-0.75,0.15c-0.24-0.05-0.51-0.21-0.64-0.42c-0.13-0.22-0.21-0.49-0.15-0.75
			C154.3,79.76,154.44,79.53,154.66,79.38z"/>
		<path class="st10" d="M153.13,80.1c0.07-0.18,0.13-0.36,0.2-0.54c0.25-0.75,0.45-1.51,0.6-2.28c0.1-0.51,0.65-0.92,1.17-0.79
			c0.53,0.13,0.89,0.62,0.79,1.17c-0.22,1.14-0.55,2.25-0.97,3.33c-0.09,0.22-0.35,0.42-0.57,0.5c-0.23,0.08-0.55,0.07-0.78-0.05
			c-0.22-0.12-0.42-0.32-0.5-0.57C152.99,80.6,153.02,80.36,153.13,80.1z"/>
		<path class="st10" d="M129.74,102.12c0.96,0.85,2.15,1.41,3.44,1.55c0.58,0.07,1.2,0.01,1.73-0.26c0.57-0.3,1.04-0.79,1.51-1.22
			c0.2-0.18,0.49-0.23,0.71-0.04c0.19,0.16,0.24,0.52,0.04,0.71c-0.55,0.5-1.1,1.06-1.76,1.42c-0.68,0.36-1.42,0.46-2.18,0.41
			c-1.53-0.11-3-0.8-4.15-1.81C128.59,102.44,129.25,101.69,129.74,102.12z"/>
		<path class="st10" d="M153.91,123.6c-3.19-2.33-6.94-3.89-10.85-4.5c-0.53-0.08-1.08,0.14-1.23,0.7c-0.13,0.47,0.16,1.15,0.7,1.23
			c3.76,0.59,7.3,2.05,10.37,4.3c0.44,0.32,1.12,0.07,1.37-0.36C154.56,124.47,154.34,123.92,153.91,123.6z"/>
	</g>
	<g>
		<g>
			<g>
				<path class="st30" d="M176.02,145.88c-0.15-1.63-0.11-3.49-1.8-4.28c-3.31-1.54-7.66-1.04-11.18-0.83
					c-7.98,0.46-17.96,0.61-25.95,0.33c-3.84-0.13-9.69-0.58-13.53-0.57c-3.08,0.01-7.36,1.13-7.75,4.78c0,0.03,0.01,0.06,0,0.1
					c-0.79,4.47-1.12,9-0.98,13.54c0.06,2.02,0.02,4.24,0.67,6.17c0.68,2,2.38,2.87,4.27,3.51c6.44,2.2,15.37,1.18,22.09,1.65
					c0.06-0.1,0.13-0.18,0.2-0.27c0.41,0.18,0.88,0.23,1.35,0.13c1.07-0.24,2.17-0.17,3.25-0.16c1.26,0.02,2.51-0.03,3.76-0.15
					c2.55-0.23,5.09-0.68,7.61-1.13c0.34-0.06,0.62-0.24,0.85-0.47c2.11-0.11,4.99-0.23,6.58-0.42c2.02-0.24,4.04-0.6,5.99-1.2
					c1.59-0.48,3.47-0.96,4-2.73c0.59-1.95,0.6-4.21,0.72-6.24c0.11-1.8,0.16-3.6,0.15-5.4C176.32,150.13,176.21,148,176.02,145.88z
					"/>
				<path class="st10" d="M177.95,145.14c-0.16-1.64-0.31-3.37-1.62-4.55c-1.26-1.13-3.17-1.48-4.79-1.71
					c-2.04-0.3-4.09-0.32-6.14-0.24c-8.79,0.35-19.51,0.76-28.31,0.46c-2.47-0.09-4.94-0.21-7.41-0.37c-2.2-0.14-6.41-0.34-8.6-0.02
					c-3.6,0.53-7.08,2.96-7.28,6.86c0,0,0,0,0,0c-0.76,4.58-1.11,9.22-0.93,13.86c0.15,3.93,0.29,7.22,4.17,9.42
					c3.21,1.82,11.1,1.98,17,1.98c5.63,0,11.68-0.2,11.68-0.23c4.7-0.3,19.2-0.55,22.97-1.25c3.24-0.6,7.81-1.42,8.76-5.12
					c0.5-1.94,0.57-4.09,0.71-6.08c0.14-2.12,0.2-4.25,0.17-6.38C178.3,149.55,178.17,147.34,177.95,145.14z M176.19,157.66
					c-0.13,2.02-0.13,4.29-0.72,6.24c-0.53,1.77-2.41,2.25-4,2.73c-1.95,0.59-3.97,0.96-5.99,1.2c-1.98,0.24-5.97,0.37-7.96,0.5
					c-1.07,0.07-11.75,0.26-12.82,0.35c-0.37,0.03-0.77,0.05-1.16,0.09c0,0,0,0.01,0.01,0.01c-6.76-0.06-18.18,0.95-23.85-0.99
					c-1.89-0.65-3.34-1.23-4.02-3.24c-0.65-1.93-0.76-3.58-0.82-5.6c-0.14-4.54,0.2-9.07,0.98-13.54c0.01-0.04,0-0.06,0-0.1
					c0.39-3.65,4.67-4.77,7.75-4.78c3.84-0.01,9.69,0.43,13.53,0.57c7.99,0.27,17.97,0.13,25.95-0.33
					c3.52-0.21,7.87-0.71,11.18,0.83c1.69,0.79,1.65,2.65,1.8,4.28c0.19,2.12,0.29,4.25,0.31,6.37
					C176.35,154.06,176.3,155.86,176.19,157.66z"/>
			</g>
			<g>
				<path class="st4" d="M145.43,157.98c-0.03-2.84-0.12-5.68-0.28-8.52c-0.07-1.25,0.12-3.07-0.64-4.13
					c-0.76-1.06-2.19-0.99-3.34-1.07c-2.14-0.14-5.1-0.57-6.78,1.16c-0.86,0.88-1.08,2.08-1.13,3.29c-0.05,1.37-0.03,2.76-0.01,4.13
					c0.04,3.19,0.15,6.41,0.51,9.58c0.09,0.82,0.36,1.49,1.11,1.87c0.69,0.35,1.59,0.25,2.35,0.23c0.51,0.11,1.02,0.17,1.48,0.22
					c1.28,0.15,2.6,0.04,3.85-0.27c1.24-0.31,2.4-0.9,2.75-2.26C145.64,160.89,145.44,159.33,145.43,157.98z"/>
			</g>
			<g>
				<path class="st4" d="M159.32,157.95c-0.03-2.84-0.12-5.68-0.28-8.52c-0.07-1.25,0.12-3.07-0.64-4.13
					c-0.76-1.06-2.19-1-3.34-1.07c-2.14-0.14-5.1-0.57-6.78,1.16c-0.86,0.88-1.08,2.08-1.13,3.29c-0.05,1.37-0.03,2.76-0.01,4.13
					c0.04,3.19,0.15,6.41,0.51,9.58c0.09,0.82,0.36,1.49,1.11,1.87c0.69,0.35,1.59,0.25,2.35,0.23c0.51,0.11,1.02,0.17,1.48,0.22
					c1.28,0.15,2.6,0.04,3.85-0.27c1.24-0.31,2.4-0.9,2.75-2.26C159.53,160.85,159.33,159.3,159.32,157.95z"/>
			</g>
			<g>
				<path class="st4" d="M173.25,157.73c-0.03-2.84-0.12-5.68-0.28-8.52c-0.07-1.25,0.12-3.07-0.64-4.13
					c-0.76-1.06-2.19-0.99-3.34-1.07c-2.14-0.14-5.1-0.57-6.78,1.16c-0.86,0.88-1.08,2.08-1.13,3.29c-0.05,1.37-0.03,2.76-0.01,4.13
					c0.04,3.19,0.15,6.41,0.51,9.58c0.09,0.82,0.36,1.49,1.11,1.87c0.69,0.35,1.59,0.25,2.35,0.23c0.51,0.11,1.02,0.17,1.48,0.22
					c1.28,0.15,2.6,0.04,3.85-0.27c1.24-0.31,2.4-0.9,2.75-2.26C173.46,160.64,173.26,159.09,173.25,157.73z"/>
			</g>
			<g>
				<path class="st4" d="M131.54,158.02c-0.03-2.84-0.12-5.68-0.28-8.52c-0.07-1.25,0.12-3.07-0.64-4.13
					c-0.76-1.06-2.19-0.99-3.34-1.07c-2.14-0.14-5.1-0.57-6.78,1.16c-0.86,0.88-1.08,2.08-1.13,3.29c-0.05,1.37-0.03,2.76-0.01,4.13
					c0.04,3.19,0.15,6.41,0.51,9.58c0.09,0.82,0.36,1.49,1.11,1.87c0.69,0.35,1.59,0.25,2.35,0.23c0.51,0.11,1.02,0.17,1.48,0.22
					c1.28,0.15,2.6,0.04,3.85-0.27c1.24-0.31,2.4-0.9,2.75-2.26C131.75,160.92,131.55,159.37,131.54,158.02z"/>
			</g>
			<path class="st10" d="M162.45,132.73c-0.15-1.4,0.02-3.73-1.79-4.3c-1.01-0.32-2.26-0.31-3.32-0.41
				c-1.14-0.11-2.28-0.2-3.42-0.27c-2.53-0.16-5.06-0.23-7.6-0.22c-2.53,0.01-5.07,0.12-7.6,0.31c-1.96,0.15-4.37,0.1-6.19,0.84
				c-1.79,0.74-2.21,2.35-2.5,3.95c-0.4,2.19-0.53,4.4-0.4,6.62c0.06,1.06,1.75,1.13,1.96,0.23c9.66,1.75,19.57-0.23,29.33,0.37
				c0.24,0.95,1.98,0.89,1.95-0.19C162.83,137.34,162.7,135.03,162.45,132.73z"/>
			<g>
				<path class="st4" d="M142.33,129.94c-0.57-0.15-1.03,0.2-1.22,0.71c-0.46,1.22-0.98,2.42-1.56,3.6
					c-0.29,0.59-0.6,1.18-0.92,1.76c-0.14,0.25-0.28,0.49-0.42,0.74c-0.12-0.22-0.24-0.45-0.36-0.67c-0.31-0.58-0.6-1.16-0.89-1.75
					c-0.57-1.16-1.09-2.34-1.57-3.55c-0.2-0.5-0.68-0.85-1.24-0.69c-0.48,0.14-0.89,0.73-0.69,1.24c0.92,2.3,1.98,4.55,3.18,6.73
					c0.34,0.61,0.74,1.29,1.52,1.32c0.81,0.03,1.17-0.6,1.53-1.21c0.6-1.02,1.16-2.06,1.68-3.12c0.62-1.27,1.17-2.57,1.67-3.89
					C143.23,130.66,142.81,130.07,142.33,129.94z"/>
				<path class="st4" d="M146.63,129.82c-1.29,0.01-1.27,2.01,0.02,2C147.94,131.81,147.92,129.81,146.63,129.82z"/>
				<path class="st4" d="M146.24,132.78c-0.54,0.03-1,0.45-0.99,1.01c0.02,1.62-0.03,3.24-0.15,4.86c-0.04,0.52,0.5,1.02,1.01,0.99
					c0.58-0.03,0.95-0.45,0.99-1.01c0.12-1.62,0.17-3.24,0.15-4.86C147.24,133.25,146.78,132.75,146.24,132.78z"/>
				<path class="st4" d="M158.03,136.76c-1.76,0.22-3.53,0.32-5.3,0.32c0.03-0.03,0.05-0.06,0.08-0.09
					c0.56-0.57,1.12-1.14,1.68-1.71c1.13-1.15,2.26-2.31,3.39-3.46c0.64-0.65,0.12-1.65-0.72-1.7c-2.17-0.14-4.34-0.26-6.51-0.35
					c-0.54-0.02-1,0.49-0.99,1.01c0.01,0.56,0.47,0.97,1.01,0.99c1.41,0.06,2.83,0.15,4.24,0.23c-0.65,0.66-1.3,1.32-1.94,1.98
					c-1.1,1.12-2.33,2.21-3.17,3.55c-0.43,0.68,0.16,1.46,0.88,1.5c2.47,0.13,4.94,0.04,7.39-0.27c0.54-0.07,1-0.42,0.99-1.01
					C159.03,137.26,158.57,136.69,158.03,136.76z"/>
			</g>
		</g>
		<path class="st10" d="M126.11,148.41c-1.02,1.88-2.35,3.52-3.96,4.92c-0.97,0.85,0.45,2.26,1.41,1.41
			c0.72-0.63,1.38-1.32,1.99-2.04c-0.28,2.58-0.56,5.16-0.85,7.74c-0.06,0.54,0.5,1,1,1c0.59,0,0.94-0.46,1-1
			c0.42-3.84,0.84-7.68,1.26-11.53C128.09,147.91,126.56,147.59,126.11,148.41z"/>
		<path class="st10" d="M142.94,150.91c0.26-1.16-0.03-2.49-1.02-3.22c-0.99-0.73-2.41-0.5-3.38,0.16
			c-2.24,1.51-2.32,4.36-0.92,6.43c-0.14,0.14-0.28,0.28-0.4,0.44c-1.39,1.71-3.08,4.99-0.82,6.7c1.94,1.48,4.84,0.42,5.8-1.7
			c0.92-2.04,0.19-4.29-1.42-5.65C141.74,153.2,142.63,152.28,142.94,150.91z M140.46,156.98c0.3,0.93,0.1,2.07-0.71,2.69
			c-0.6,0.46-1.9,0.74-2.37-0.06c-0.28-0.47,0.01-1.17,0.19-1.63c0.21-0.55,0.5-1.07,0.83-1.55c0.25-0.36,0.55-0.68,0.86-0.99
			C139.8,155.82,140.25,156.32,140.46,156.98z M139.88,152.2c-0.26,0.25-0.52,0.49-0.79,0.72c-0.45-0.74-0.62-1.69-0.25-2.49
			c0.25-0.53,1.48-1.78,2.03-0.98C141.49,150.35,140.49,151.6,139.88,152.2z"/>
		<path class="st10" d="M155.8,148.36c-0.08-0.06-0.18-0.09-0.27-0.11c-0.18-0.18-0.44-0.3-0.72-0.33
			c-2.48-0.25-3.87,2.11-4.54,4.13c-0.4,1.2-0.64,2.44-0.75,3.7c-0.1,1.09-0.1,2.25,0.27,3.29c0.72,2.02,3.02,3.55,5.07,2.29
			c2.03-1.24,2.36-4.12,2.58-6.27C157.66,152.78,157.81,149.92,155.8,148.36z M155.37,155.58c-0.16,1.12-0.65,4.97-2.61,4.09
			c-1.8-0.8-1.36-3.67-1.07-5.18c0.29-1.51,0.93-4.6,2.94-4.57c0.05,0.06,0.1,0.12,0.17,0.17c0.57,0.44,0.68,1.38,0.72,2.04
			C155.58,153.28,155.52,154.45,155.37,155.58z"/>
		<path class="st10" d="M170.13,155.38c-0.19-1.26-1.08-2.35-2.33-2.68c-0.35-0.1-0.73-0.13-1.1-0.1c0.33-1.05,0.67-2.11,1-3.16
			c0.39-1.23-1.54-1.76-1.93-0.53c-0.56,1.75-1.12,3.51-1.67,5.26c-0.29,0.91,1.03,1.76,1.67,0.97c0.82-1,2.38-0.55,2.41,0.76
			c0.04,1.86-2.51,1.87-3.88,1.82c-1.29-0.04-1.29,1.96,0,2c1.46,0.05,3.03,0.01,4.28-0.84
			C169.75,158.08,170.35,156.79,170.13,155.38z"/>
		<path class="st10" d="M170.78,147.91l-3.58,0.3c-0.52,0.04-1.03,0.43-1,1c0.02,0.5,0.44,1.05,1,1l3.58-0.3
			c0.52-0.04,1.03-0.43,1-1C171.75,148.4,171.33,147.86,170.78,147.91z"/>
	</g>
	<g>
		<path class="st73" d="M115.49,142.44c-0.15-2.31-1.9-2.45-3.8-2.36c-2.11,0.1-4.21,0.2-6.32,0.29c-4.96,0.23-9.91,0.46-14.87,0.69
			c-0.36,0.02-0.65,0.13-0.87,0.31c-0.64-0.07-1.29,0.24-1.45,1.07c-0.65,3.45-0.92,6.97-0.7,10.48c0.2,3.27,0.62,6.83,1.96,9.85
			c1.11,2.5,3.2,4.04,5.64,5.13c2.32,1.03,4.92,1.76,6.63,3.74c0.82,0.95,2.12,0.28,2.51-0.66c1.49-3.59,5.71-3.8,8.21-6.35
			c2.49-2.55,3-6.28,3.18-9.68C115.82,150.82,115.76,146.56,115.49,142.44z"/>
		<path class="st72" d="M106.77,152.99c-0.15-0.78-0.7-1.46-1.48-1.68c-0.63-0.18-1.29-0.09-1.92-0.01
			c-0.87,0.11-1.72,0.27-2.56,0.52c-0.22-0.34-0.55-0.58-1.01-0.65c-0.71-0.1-1.47,0.35-1.65,1.07c-0.02,0.07-0.03,0.14-0.04,0.22
			c-0.57,0.21-0.93,0.73-0.99,1.39c-0.12,1.3-0.04,2.58,0.17,3.86c0.18,1.14,0.54,2.27,1.32,3.15c0.89,1.01,2.21,1.34,3.5,1.13
			c1.28-0.2,2.31-1.01,3.06-2.03c0.69-0.92,1.12-2.06,1.38-3.17C106.84,155.58,107,154.22,106.77,152.99z"/>
		<path class="st74" d="M115.71,140.95c-0.21-0.08-0.43-0.14-0.65-0.21c-0.28-0.22-0.64-0.33-1-0.33c-3.81-1.06-8-1.01-11.9-0.98
			c-4.8,0.04-9.58,0.46-14.32,1.18c-1.9,0.29-1.09,3.13,0.8,2.84c4.47-0.68,8.99-1.04,13.52-1.08c3.43-0.03,7.06-0.07,10.44,0.72
			c0.03,2.75,0.07,5.51,0.1,8.26c0.03,2.8,0.18,5.76-0.96,8.39c-2.05,4.73-9.53,5.44-9.42,11.41c0.02,1.07,0.98,1.53,1.81,1.4
			c0.22-1.35,0.94-2.59,1.92-3.56c1.01-1.38,2.87-2.31,4.2-3.21c2.24-1.52,3.82-3.43,4.67-5.99c0.9-2.71,0.83-5.62,0.79-8.43
			c-0.03-2.49-0.06-4.99-0.09-7.49C116.88,143.7,117.24,141.53,115.71,140.95z"/>
		<path class="st4" d="M95.13,144.22c-0.37-0.37-1.05-0.4-1.41,0c-1.89,2.04-3.6,4.27-5.07,6.63c-0.28,0.44-0.11,1.12,0.36,1.37
			c0.49,0.26,1.07,0.12,1.37-0.36c1.41-2.26,2.95-4.27,4.76-6.23C95.5,145.24,95.52,144.61,95.13,144.22z"/>
		<path class="st4" d="M92.99,151.32c-0.51-0.27-1.05-0.1-1.37,0.36c-1.02,1.46-1.93,3-2.7,4.61c-0.23,0.47-0.14,1.1,0.36,1.37
			c0.45,0.24,1.12,0.14,1.37-0.36c0.78-1.61,1.68-3.15,2.7-4.61C93.65,152.26,93.44,151.56,92.99,151.32z"/>
		<path class="st4" d="M93.07,158.02c-0.03-0.13-0.09-0.24-0.18-0.34c-0.07-0.11-0.16-0.19-0.28-0.26c-0.23-0.12-0.51-0.18-0.77-0.1
			c-0.24,0.08-0.47,0.23-0.6,0.46c-0.19,0.34-0.38,0.69-0.56,1.03c-0.07,0.11-0.11,0.24-0.12,0.37c-0.03,0.13-0.02,0.27,0.02,0.4
			c0.03,0.13,0.09,0.24,0.18,0.34c0.07,0.11,0.16,0.19,0.28,0.26c0.23,0.12,0.51,0.18,0.77,0.1c0.24-0.08,0.47-0.23,0.6-0.46
			c0.19-0.34,0.38-0.69,0.56-1.03c0.07-0.11,0.11-0.24,0.12-0.37C93.12,158.28,93.11,158.15,93.07,158.02z"/>
		<path class="st4" d="M114.55,144.4c-0.42-0.38-1-0.37-1.41,0c-1.13,1-2.12,2.13-3.01,3.35c-0.14,0.2-0.16,0.54-0.1,0.77
			c0.06,0.23,0.24,0.48,0.46,0.6c0.23,0.12,0.51,0.18,0.77,0.1c0.26-0.08,0.44-0.24,0.6-0.46c0.07-0.1,0.15-0.2,0.23-0.3
			c0.74-0.95,1.57-1.84,2.47-2.65C114.94,145.46,114.93,144.75,114.55,144.4z"/>
		<path class="st4" d="M113.74,150.86c0-0.25-0.11-0.54-0.29-0.71c-0.19-0.18-0.44-0.3-0.71-0.29c-0.27,0.01-0.51,0.1-0.71,0.29
			c-0.66,0.63-1.23,1.38-1.64,2.18c-0.12,0.24-0.17,0.51-0.1,0.77c0.06,0.23,0.24,0.48,0.46,0.6c0.23,0.12,0.51,0.18,0.77,0.1
			c0.24-0.08,0.48-0.23,0.6-0.46c0.19-0.37,0.42-0.72,0.67-1.05c0.21-0.26,0.42-0.5,0.66-0.73
			C113.63,151.39,113.74,151.11,113.74,150.86z"/>
		<g>
			<path class="st10" d="M116.71,139.95c-5.38-0.82-8.91-0.89-14.34-0.89c-5.25,0-10.53,0.12-15.67,1.33
				c-1.25,0.29-0.72,2.22,0.53,1.93c4.97-1.17,10.06-1.25,15.14-1.26c5.24,0,8.61,0.02,13.8,0.82
				C117.44,142.07,117.98,140.14,116.71,139.95z"/>
			<g>
				<path class="st10" d="M105.29,147.26c-0.18-1.16-0.65-2.29-1.65-2.97c-1.02-0.7-2.39-0.57-3.38,0.12
					c-1.01,0.71-1.61,1.83-2.04,2.97c-0.45,1.21-0.62,2.54-0.48,3.83c0.06,0.52,0.42,1.03,1,1c0.49-0.02,1.06-0.44,1-1
					c-0.05-0.46-0.06-0.91-0.03-1.37c0.01-0.11,0.02-0.22,0.03-0.33c0-0.01,0-0.02,0-0.02c0.01-0.05,0.02-0.1,0.02-0.14
					c0.04-0.25,0.1-0.5,0.17-0.75c0.06-0.21,0.13-0.42,0.2-0.63c0.02-0.06,0.07-0.19,0.09-0.22c0.01-0.02,0.05-0.1,0.04-0.1
					c0.03-0.07,0.06-0.13,0.09-0.2c0.09-0.19,0.2-0.38,0.31-0.56c0.13-0.21,0.2-0.31,0.31-0.44c0.07-0.08,0.14-0.15,0.22-0.23
					c0.04-0.04,0.08-0.07,0.12-0.1c0,0,0,0,0.01,0c0.08-0.06,0.17-0.11,0.26-0.16c0.03-0.02,0.07-0.03,0.1-0.05
					c0.02-0.01,0.05-0.02,0.08-0.02c0.06-0.02,0.13-0.04,0.19-0.05c0,0,0.04-0.01,0.06-0.01c0.03,0,0.06,0,0.07,0
					c0.05,0,0.09,0,0.14,0c0.04,0.01,0.09,0.02,0.13,0.03c0.03,0.01,0.06,0.02,0.08,0.03c0.01,0.01,0.03,0.02,0.06,0.03
					c0.03,0.02,0.13,0.09,0.14,0.09c0.06,0.05,0.11,0.1,0.16,0.16c0.03,0.03,0.04,0.04,0.05,0.04c0,0.01,0.01,0.02,0.03,0.05
					c0.06,0.09,0.12,0.18,0.17,0.28c0.02,0.04,0.04,0.08,0.06,0.13c0,0.01,0,0.01,0.01,0.03c0.04,0.1,0.07,0.21,0.1,0.31
					c0.06,0.23,0.11,0.46,0.15,0.69c0.01,0.05,0.02,0.11,0.02,0.16c0,0.02,0,0.01,0,0.02c0,0.01,0,0.01,0,0.04
					c0.02,0.16,0.04,0.32,0.05,0.48c0.03,0.28,0.05,0.57,0.06,0.85c0.03,0.59,0.04,1.18,0.02,1.76c-0.02,0.52,0.47,1.02,1,1
					c0.56-0.02,0.98-0.44,1-1C105.56,149.75,105.48,148.5,105.29,147.26z"/>
				<path class="st10" d="M107.06,150.41c-3.49,0.4-7,0.54-10.5,0.43c-1.29-0.04-1.29,1.96,0,2c3.51,0.11,7.02-0.03,10.5-0.43
					c0.54-0.06,1-0.42,1-1C108.06,150.92,107.6,150.35,107.06,150.41z"/>
				<path class="st10" d="M107.97,152.15c-0.07-0.54-0.41-1-1-1c-0.49,0-1.07,0.46-1,1c0.35,2.66,0.58,6.45-2.06,8.05
					c-0.98,0.6-2.2,0.87-3.34,0.66c-0.7-0.12-1.32-0.39-1.77-0.96c-0.39-0.5-0.63-1.13-0.82-1.73c-0.57-1.81-0.79-3.69-0.71-5.58
					c0.05-1.29-1.95-1.28-2,0c-0.08,2.03,0.16,4.09,0.76,6.03c0.54,1.77,1.47,3.34,3.29,3.98c3.13,1.09,6.88-0.58,8.13-3.63
					C108.32,156.89,108.26,154.36,107.97,152.15z"/>
				<path class="st10" d="M102.94,155.38c-0.01-0.1-0.02-0.21-0.04-0.31c-0.01-0.04-0.02-0.07-0.03-0.11
					c-0.04-0.11-0.09-0.23-0.14-0.34c-0.02-0.03-0.03-0.06-0.05-0.09c-0.05-0.08-0.15-0.2-0.18-0.23c-0.04-0.04-0.08-0.07-0.13-0.11
					c-0.04-0.03-0.07-0.06-0.12-0.09c-0.04-0.02-0.2-0.09-0.24-0.1c-0.01,0-0.02-0.01-0.04-0.01c-0.19-0.04-0.4-0.06-0.59,0.01
					c-0.2,0.07-0.33,0.14-0.49,0.29c-0.04,0.04-0.07,0.09-0.1,0.12c-0.03,0.04-0.07,0.09-0.1,0.13c-0.05,0.1-0.1,0.2-0.13,0.31
					c0,0.01-0.01,0.03-0.01,0.04c-0.02,0.08-0.03,0.19-0.04,0.28c0,0.01,0,0.02,0,0.03c0,0.02,0,0.03,0,0.05
					c0.01,0.11,0.02,0.21,0.04,0.32c0.01,0.04,0.02,0.08,0.03,0.12c0.04,0.12,0.09,0.23,0.14,0.34c0.02,0.04,0.04,0.08,0.07,0.11
					c0.02,0.04,0.05,0.05,0.08,0.08c0.01,0.01,0.01,0.03,0.02,0.04c0.09,0.15,0.21,0.27,0.36,0.36c0.08,0.03,0.16,0.07,0.24,0.1
					c0.18,0.05,0.35,0.05,0.53,0c0.1-0.04,0.21-0.07,0.31-0.14c0.18-0.12,0.22-0.16,0.33-0.31c0.04-0.06,0.09-0.11,0.12-0.17
					c0.04-0.08,0.1-0.21,0.13-0.32c0.02-0.1,0.03-0.2,0.04-0.3c0-0.01,0-0.03,0-0.04C102.95,155.42,102.95,155.4,102.94,155.38z"/>
				<path class="st10" d="M103.49,156.87c-0.04-0.12-0.11-0.23-0.21-0.32c-0.21-0.26-0.43-0.52-0.64-0.78
					c-0.09-0.1-0.2-0.17-0.32-0.21c-0.12-0.06-0.25-0.09-0.39-0.09c-0.01,0-0.02,0.01-0.03,0.01c-0.18-0.06-0.38-0.09-0.56-0.03
					c-0.23,0.08-0.49,0.23-0.6,0.46c-0.15,0.32-0.3,0.64-0.44,0.96c-0.07,0.16-0.14,0.32-0.14,0.5l0.04,0.27
					c0.03,0.13,0.09,0.24,0.18,0.34c0.04,0.08,0.1,0.13,0.18,0.18c0.06,0.06,0.14,0.1,0.22,0.13c0.08,0.05,0.16,0.07,0.25,0.07
					c0.13,0.03,0.27,0.02,0.4-0.02c0.1-0.02,0.2-0.04,0.3-0.06c0.28-0.03,0.56-0.05,0.84-0.03l0.27-0.04
					c0.08-0.03,0.16-0.07,0.24-0.1c0.07-0.05,0.13-0.1,0.2-0.16c0.1-0.09,0.17-0.2,0.21-0.32c0.05-0.08,0.07-0.16,0.07-0.25
					c0.02-0.09,0.02-0.18,0-0.27C103.56,157.03,103.54,156.95,103.49,156.87z"/>
			</g>
			<path class="st10" d="M103.71,171.57c-1.66-2.47-3.92-3.65-6.75-4.36c-1.43-0.36-2.94-0.66-4.17-1.51
				c-1.21-0.83-2.09-2.08-2.68-3.4c-1.34-2.97-1.53-6.53-1.76-9.74c-0.26-3.61-0.25-7.22,0-10.83c0.09-1.28-1.91-1.28-2,0
				c-0.25,3.69-0.26,7.39,0.02,11.08c0.25,3.29,0.5,6.83,1.76,9.92c1.02,2.49,2.78,4.55,5.32,5.55c1.42,0.56,2.94,0.79,4.39,1.25
				c1.75,0.55,3.12,1.53,4.15,3.06C102.7,173.65,104.43,172.65,103.71,171.57z"/>
			<path class="st10" d="M115.2,141.59c-0.15,3.24-0.3,6.48-0.45,9.72c-0.14,3.15-0.05,6.47-1.02,9.51
				c-0.94,2.94-2.94,4.52-5.58,5.91c-2.23,1.16-4.53,2.47-5.58,4.87c-0.51,1.17,1.21,2.19,1.73,1.01c1.19-2.7,4.11-3.62,6.47-5.03
				c2.42-1.45,4.04-3.54,4.9-6.23c0.95-2.98,0.91-6.22,1.05-9.31l0.48-10.45C117.26,140.3,115.26,140.31,115.2,141.59z"/>
		</g>
	</g>
	<path class="st10" d="M112.74,134.05c-0.19-0.17-0.44-0.3-0.71-0.29c-0.28,0.01-0.5,0.11-0.71,0.29c-0.88,0.75-1.76,1.5-2.63,2.25
		c-0.19,0.16-0.29,0.47-0.29,0.71c0,0.25,0.11,0.54,0.29,0.71c0.19,0.18,0.44,0.3,0.71,0.29c0.28-0.01,0.5-0.11,0.71-0.29l2.63-2.25
		c0.19-0.16,0.29-0.47,0.29-0.71C113.03,134.51,112.92,134.22,112.74,134.05z"/>
	<path class="st10" d="M124.44,131.94c-2.05,0.14-4.09,0.43-6.1,0.89c-0.51,0.12-0.86,0.73-0.7,1.23c0.17,0.53,0.68,0.82,1.23,0.7
		c0.94-0.21,1.89-0.39,2.84-0.54c0.11-0.02,0.22-0.03,0.34-0.05c0.01,0,0.01,0,0.02,0c0.07-0.01,0.15-0.02,0.22-0.03
		c0.23-0.03,0.45-0.05,0.68-0.08c0.49-0.05,0.98-0.09,1.47-0.13c0.52-0.03,1.03-0.43,1-1C125.41,132.43,125,131.91,124.44,131.94z"
		/>
	<path class="st10" d="M169.3,132.08h-3c-0.52,0-1.02,0.46-1,1c0.02,0.54,0.44,1,1,1h3c0.52,0,1.02-0.46,1-1
		C170.27,132.54,169.86,132.08,169.3,132.08z"/>
	<path class="st10" d="M178.61,134.06c-0.05-0.07-0.1-0.14-0.16-0.2c-0.12-0.12-0.27-0.21-0.44-0.26c-0.63-0.25-1.25-0.5-1.88-0.75
		c-0.23-0.09-0.57-0.02-0.77,0.1c-0.21,0.12-0.41,0.36-0.46,0.6c-0.06,0.26-0.05,0.54,0.1,0.77c0.05,0.07,0.1,0.13,0.16,0.2
		c0.12,0.12,0.27,0.21,0.44,0.26l1.88,0.75c0.23,0.09,0.57,0.02,0.77-0.1c0.21-0.12,0.41-0.36,0.46-0.6
		C178.77,134.58,178.76,134.29,178.61,134.06z"/>
	<path class="st10" d="M184.74,141.44c-0.38-1-0.75-2-1.13-3c-0.09-0.25-0.22-0.46-0.46-0.6c-0.21-0.13-0.53-0.18-0.77-0.1
		c-0.48,0.15-0.9,0.71-0.7,1.23c0.38,1,0.75,2,1.13,3c0.09,0.25,0.22,0.46,0.46,0.6c0.21,0.13,0.53,0.18,0.77,0.1
		C184.52,142.52,184.93,141.96,184.74,141.44z"/>
	<path class="st10" d="M186.43,149.14c-0.03-0.23-0.27-0.49-0.46-0.6c-0.21-0.13-0.53-0.18-0.77-0.1c-0.24,0.08-0.48,0.23-0.6,0.46
		c-0.13,0.25-0.14,0.49-0.1,0.77c0,0.02,0,0.03,0.01,0.04c0,0.01,0,0.01,0,0.02c0.01,0.09,0.02,0.19,0.03,0.28
		c0.02,0.16,0.03,0.32,0.05,0.49c0.03,0.34,0.05,0.68,0.06,1.01c0.02,0.68,0.01,1.35-0.04,2.03c-0.04,0.52,0.49,1.02,1,1
		c0.57-0.03,0.96-0.44,1-1C186.72,152.07,186.64,150.6,186.43,149.14z"/>
	<path class="st10" d="M111.8,172.55l-1.72-1.66c-0.19-0.18-0.45-0.29-0.71-0.29c-0.25,0-0.54,0.11-0.71,0.29
		c-0.18,0.19-0.3,0.44-0.29,0.71c0.01,0.26,0.1,0.52,0.29,0.71c0.57,0.55,1.14,1.11,1.72,1.66c0.19,0.18,0.45,0.29,0.71,0.29
		c0.25,0,0.54-0.11,0.71-0.29c0.17-0.19,0.3-0.44,0.29-0.71C112.08,173,112,172.74,111.8,172.55z"/>
	<path class="st10" d="M121.57,175.54c-0.21-0.19-0.43-0.26-0.71-0.29c-0.02,0-0.05-0.01-0.07-0.01c-0.01,0-0.01,0-0.03,0
		c-0.07-0.01-0.15-0.02-0.22-0.03c-0.17-0.03-0.34-0.06-0.51-0.09c-0.31-0.06-0.63-0.13-0.94-0.2c-0.65-0.16-1.28-0.35-1.91-0.57
		c-0.49-0.18-1.12,0.2-1.23,0.7c-0.13,0.56,0.17,1.04,0.7,1.23c1.36,0.49,2.77,0.8,4.21,0.98c0.24,0.03,0.55-0.13,0.71-0.29
		c0.17-0.17,0.3-0.46,0.29-0.71C121.86,175.99,121.77,175.72,121.57,175.54z"/>
	<path class="st10" d="M134.03,175.99c-0.16-0.49-0.7-0.88-1.23-0.7c-0.33,0.12-0.68,0.2-1.03,0.26c-0.44,0.05-0.89,0.05-1.33,0
		c-0.1-0.02-0.2-0.03-0.3-0.05c-0.51-0.11-1.11,0.15-1.23,0.7c-0.12,0.51,0.15,1.11,0.7,1.23c1.23,0.27,2.53,0.22,3.72-0.2
		c0.25-0.09,0.46-0.23,0.6-0.46C134.06,176.54,134.11,176.23,134.03,175.99z"/>
	<path class="st10" d="M142.07,175.67c-1.19-0.08-2.38-0.15-3.56-0.23c-0.52-0.03-1.02,0.48-1,1c0.03,0.57,0.44,0.96,1,1
		c1.19,0.08,2.38,0.15,3.56,0.23c0.52,0.03,1.02-0.48,1-1C143.05,176.1,142.64,175.71,142.07,175.67z"/>
	<path class="st10" d="M153.55,176.17c-0.18-0.55-0.68-0.8-1.23-0.7c-0.18,0.03-0.36,0.06-0.53,0.09c-0.04,0.01-0.09,0.01-0.13,0.02
		c-0.08,0.01-0.17,0.02-0.26,0.03c-0.35,0.03-0.71,0.05-1.07,0.05c-0.36,0-0.71-0.01-1.07-0.05c-0.09-0.01-0.17-0.02-0.26-0.03
		c-0.03,0-0.07-0.01-0.11-0.01c-0.19-0.02-0.37-0.06-0.56-0.09c-0.51-0.1-1.1,0.14-1.23,0.7c-0.11,0.49,0.15,1.13,0.7,1.23
		c1.68,0.31,3.36,0.31,5.03,0C153.37,177.3,153.71,176.65,153.55,176.17z"/>
	<path class="st10" d="M166.5,174.46c-0.16-0.48-0.7-0.89-1.23-0.7c-1.92,0.69-3.74,1.01-5.73,1.01c-0.52,0-1.02,0.46-1,1
		c0.02,0.54,0.44,1,1,1c2.13,0,4.26-0.36,6.26-1.08C166.29,175.52,166.67,175.01,166.5,174.46z"/>
	<path class="st10" d="M176.07,173.7c-0.16-0.51-0.69-0.86-1.23-0.7c-0.34,0.1-0.68,0.18-1.02,0.25c-0.08,0.01-0.16,0.03-0.24,0.04
		c-0.04,0.01-0.07,0.01-0.11,0.02c-0.17,0.02-0.34,0.04-0.51,0.05c-0.35,0.02-0.7,0.03-1.05,0.02c-0.16-0.01-0.32-0.02-0.48-0.03
		c-0.08-0.01-0.16-0.01-0.24-0.02c-0.03,0-0.07-0.01-0.1-0.01c-0.01,0-0.01,0-0.03-0.01c-0.28-0.04-0.52-0.05-0.77,0.1
		c-0.21,0.12-0.41,0.36-0.46,0.6c-0.11,0.48,0.15,1.15,0.7,1.23c1.63,0.24,3.27,0.17,4.85-0.3
		C175.87,174.78,176.24,174.22,176.07,173.7z"/>
	<path class="st10" d="M183.11,168.06c-0.47-0.25-1.1-0.13-1.37,0.36c-0.13,0.23-0.27,0.45-0.43,0.66c-0.26,0.31-0.54,0.6-0.86,0.86
		c-0.3,0.22-0.62,0.43-0.96,0.59c-0.22,0.1-0.4,0.37-0.46,0.6c-0.07,0.24-0.04,0.56,0.1,0.77c0.14,0.21,0.34,0.4,0.6,0.46
		c0.27,0.06,0.52,0.02,0.77-0.1c1.24-0.6,2.3-1.62,2.96-2.83C183.72,168.97,183.6,168.32,183.11,168.06z"/>
	<path class="st10" d="M186.01,158.74c-0.57,0.03-0.97,0.44-1,1c-0.01,0.2-0.03,0.39-0.06,0.59c-0.12,0.86-0.35,1.71-0.67,2.52
		c-0.09,0.22-0.02,0.57,0.1,0.77c0.12,0.21,0.36,0.41,0.6,0.46c0.26,0.06,0.54,0.05,0.77-0.1c0.23-0.15,0.36-0.34,0.46-0.6
		c0.47-1.16,0.72-2.39,0.8-3.64C187.04,159.21,186.53,158.71,186.01,158.74z"/>
	<path class="st68" d="M101.15,131.19c-6.2-6.92-10.22-15.88-10.91-25.86c-1.64-23.83,16.35-44.48,40.18-46.12
		c23.83-1.64,44.48,16.35,46.12,40.18c0.7,10.14-2.36,19.98-7.78,27.85"/>
	<g>
		<g>
			<path class="st4" d="M206.41,65.22c-0.17,0.39-0.09,0.75,0.16,1.09c1.23,1.66,3.09,2.54,5.05,3.03c-0.97,1.47-1.49,3.2-1.38,4.99
				l0.02,0c0,0.09,0,0.17,0,0.26c0,0.03,0.02,0.04,0.02,0.07c0.01,0.3,0.14,0.59,0.43,0.77c0.42,0.26,1.14,0.18,1.38-0.31
				c1.25-2.57,2.89-4.92,4.9-6.96c0.73-0.74,0.09-1.83-0.88-1.72c-1.43,0.16-2.85-0.2-4.21-0.6c-1.51-0.44-2.99-0.94-4.55-1.21
				C206.97,64.57,206.55,64.9,206.41,65.22z"/>
			<path class="st4" d="M184.75,75.46c2.19,1.58,4.71,2.5,7.35,2.73c-1.59,1.77-2.64,3.94-3.09,6.34c-0.17,0.92,1.07,1.37,1.65,0.84
				c6.59-6.07,13-11.02,22.18-15.58c0.8-0.4,1.44-1.21,0.88-1.56c-0.05-0.53-0.67-0.37-1.33-0.19c-9.06,2.51-18.15,4.61-27.25,5.6
				C184.25,73.75,184.05,74.96,184.75,75.46z"/>
		</g>
		<g>
			<path class="st4" d="M228.95,101.04c-0.33,0.27-0.43,0.63-0.36,1.04c0.32,2.04,1.55,3.68,3.06,5.03
				c-1.54,0.85-2.81,2.14-3.54,3.78l0.02,0.01c-0.04,0.08-0.08,0.15-0.12,0.23c-0.01,0.02,0,0.04-0.01,0.07
				c-0.13,0.27-0.15,0.58,0.02,0.89c0.25,0.43,0.93,0.69,1.37,0.36c2.3-1.69,4.85-3.02,7.57-3.88c0.99-0.31,0.93-1.57,0.02-1.93
				c-1.34-0.52-2.44-1.5-3.45-2.48c-1.13-1.09-2.21-2.22-3.47-3.18C229.75,100.73,229.22,100.82,228.95,101.04z"/>
			<path class="st4" d="M205.01,100.06c1.21,2.42,3.01,4.4,5.24,5.83c-2.23,0.82-4.17,2.27-5.68,4.18
				c-0.58,0.74,0.31,1.71,1.07,1.51c8.66-2.31,16.63-3.72,26.88-3.5c0.9,0.02,1.84-0.4,1.5-0.97c0.2-0.5-0.42-0.64-1.09-0.79
				c-9.18-1.98-18.22-4.34-26.73-7.69C205.36,98.31,204.63,99.29,205.01,100.06z"/>
		</g>
	</g>
	<g>
		<g>
			<path class="st4" d="M60.59,65.22c0.17,0.39,0.09,0.75-0.16,1.09c-1.23,1.66-3.09,2.54-5.05,3.03c0.97,1.47,1.49,3.2,1.38,4.99
				l-0.02,0c0,0.09,0,0.17,0,0.26c0,0.03-0.02,0.04-0.02,0.07c-0.01,0.3-0.14,0.59-0.43,0.77c-0.42,0.26-1.14,0.18-1.38-0.31
				c-1.25-2.57-2.89-4.92-4.9-6.96c-0.73-0.74-0.09-1.83,0.88-1.72c1.43,0.16,2.85-0.2,4.21-0.6c1.51-0.44,2.99-0.94,4.55-1.21
				C60.03,64.57,60.45,64.9,60.59,65.22z"/>
			<path class="st4" d="M81.87,73.65c-9.1-0.99-18.19-3.09-27.25-5.6c-0.66-0.18-1.28-0.34-1.33,0.19
				c-0.56,0.35,0.08,1.16,0.88,1.56c9.18,4.56,15.59,9.51,22.18,15.58c0.58,0.53,1.82,0.08,1.65-0.84c-0.44-2.4-1.49-4.58-3.09-6.34
				c2.63-0.23,5.15-1.15,7.35-2.73C82.95,74.96,82.75,73.75,81.87,73.65z"/>
		</g>
		<g>
			<path class="st4" d="M38.05,101.04c0.33,0.27,0.43,0.63,0.36,1.04c-0.32,2.04-1.55,3.68-3.06,5.03c1.54,0.85,2.81,2.14,3.54,3.78
				l-0.02,0.01c0.04,0.08,0.08,0.15,0.12,0.23c0.01,0.02,0,0.04,0.01,0.07c0.13,0.27,0.15,0.58-0.02,0.89
				c-0.25,0.43-0.93,0.69-1.37,0.36c-2.3-1.69-4.85-3.02-7.57-3.88c-0.99-0.31-0.93-1.57-0.02-1.93c1.34-0.52,2.44-1.5,3.45-2.48
				c1.13-1.09,2.21-2.22,3.47-3.18C37.25,100.73,37.78,100.82,38.05,101.04z"/>
			<path class="st4" d="M60.81,98.64c-8.52,3.35-17.55,5.71-26.73,7.69c-0.67,0.14-1.29,0.29-1.09,0.79
				c-0.34,0.57,0.6,0.99,1.5,0.97c10.25-0.22,18.22,1.19,26.88,3.5c0.76,0.2,1.65-0.77,1.07-1.51c-1.51-1.92-3.45-3.36-5.68-4.18
				c2.22-1.43,4.03-3.41,5.24-5.83C62.38,99.29,61.64,98.31,60.81,98.64z"/>
		</g>
	</g>
	<g>
		<path class="st30" d="M210.87,96.36c-1.57-1.92-4.17-1.41-6.01-0.25c-0.78,0.49-1.49,1.1-2.1,1.8c-0.19-0.72-0.41-1.43-0.73-2.11
			c-0.91-1.94-3.03-4.27-5.31-2.65c-1.83,1.3-1.69,4.02-1,5.88c0.75,2.03,2.38,3.49,3.44,5.33c0.17,0.3,0.41,0.54,0.69,0.71
			c0.24,0.36,0.61,0.63,1.06,0.72c3.55,0.68,7.5-0.94,9.52-3.95C211.49,100.26,212.21,98,210.87,96.36z"/>
		<path class="st10" d="M213.45,96.28c-0.91-2.03-4.02-2.17-5.91-1.85c-1.49,0.25-2.91,0.87-4.09,1.79
			c-0.14-1.4-0.59-2.75-1.67-3.74c-1.5-1.39-3.95-1.72-5.43-0.13c-1.55,1.67-1.46,4.56-1.1,6.66c0.4,2.3,1.39,4.46,2.87,6.26
			c0.82,0.99,2.4-0.23,1.58-1.23c-2.01-2.43-3.4-6.3-2.37-9.44c0.49-1.5,1.98-1.67,3.09-0.66c1.24,1.13,1.16,3.13,1.03,4.66
			c-0.08,0.94,1.2,1.56,1.79,0.72c1.21-1.74,3.14-2.82,5.26-2.98c0.76-0.06,2.66-0.07,3.09,0.72c0.36,0.67-0.35,1.69-0.72,2.19
			c-2.66,3.59-6.84,5.87-11.26,6.35c-1.28,0.14-0.98,2.12,0.3,1.98c4.43-0.48,8.57-2.62,11.56-5.91
			C212.71,100.3,214.32,98.22,213.45,96.28z"/>
	</g>
	<g>
		<path class="st30" d="M78.46,59.73c-2.41-0.62-4.19,1.33-4.99,3.36c-0.34,0.86-0.55,1.77-0.63,2.69
			c-0.58-0.47-1.18-0.91-1.84-1.27c-1.88-1.03-4.97-1.66-5.85,1c-0.7,2.13,1.01,4.24,2.67,5.33c1.81,1.19,3.98,1.4,5.93,2.26
			c0.32,0.14,0.66,0.19,0.98,0.16c0.4,0.15,0.87,0.15,1.28-0.05c3.27-1.55,5.49-5.19,5.34-8.82C81.28,62.5,80.52,60.26,78.46,59.73z
			"/>
		<path class="st10" d="M80.5,58.14c-1.93-1.1-4.53,0.63-5.86,2c-1.06,1.08-1.83,2.42-2.24,3.86c-0.95-1.05-2.1-1.87-3.56-2.03
			c-2.03-0.23-4.2,0.95-4.46,3.11c-0.27,2.26,1.52,4.54,3.05,6.02c1.68,1.62,3.76,2.77,6.02,3.35c1.25,0.32,1.8-1.61,0.55-1.92
			c-3.06-0.78-6.47-3.07-7.49-6.21c-0.49-1.51,0.61-2.52,2.1-2.36c1.67,0.17,2.79,1.84,3.59,3.14c0.5,0.8,1.89,0.54,1.87-0.48
			c-0.05-2.12,0.87-4.13,2.48-5.52c0.58-0.5,2.1-1.63,2.92-1.25c0.69,0.32,0.72,1.57,0.71,2.19c-0.03,4.47-2.04,8.78-5.32,11.78
			c-0.95,0.87,0.46,2.29,1.41,1.42c3.29-3,5.36-7.18,5.83-11.6C82.28,61.81,82.35,59.19,80.5,58.14z"/>
	</g>
	<g>
		<g>
			<path class="st6" d="M194.03,64.41c-0.02-0.34-0.07-0.68-0.17-1c-0.63-1.87-3-2.92-4.56-1.36c-0.59,0.6-0.79,1.41-0.95,2.2
				c-0.16,0.81-0.28,1.62-0.34,2.44C188,66.94,188,67.19,188,67.43c-0.04,0.15-0.07,0.31-0.07,0.48c0.03,2.71,0.37,5.43,1.06,8.05
				c0.43,1.65,2.7,2.08,3.64,0.61c0.19-0.29,0.33-0.6,0.46-0.91c0.6-0.36,1.04-0.96,1.25-1.65c0.49-1.58,0.66-3.37,0.77-5.02
				C195.21,67.33,195.06,65.77,194.03,64.41z"/>
			<path class="st44" d="M187.3,68.71c-0.03-1-0.65-1.85-1.66-2.03c-0.79-0.14-1.63,0.23-2.05,0.92c-0.55,0.33-0.93,0.91-0.96,1.62
				c-0.13,2.35,0.04,4.72,0.48,7.02c0.18,0.98,1.2,1.6,2.14,1.51c1.02-0.1,1.7-0.9,1.8-1.9C187.29,73.48,187.37,71.1,187.3,68.71z"
				/>
		</g>
		<g>
			<path class="st10" d="M188.84,74.91c-0.04-2.12-0.12-4.24-0.25-6.35c-0.07-1.13,0.07-2.68-1.41-2.86
				c-1.15-0.14-2.37-0.07-3.53-0.1c-1.28-0.04-1.43,1.96-0.14,2c0.6,0.02,1.2,0.03,1.8,0.05c0.28,0.01,0.56,0.02,0.85,0.02
				c0.14,0,0.28,0.01,0.42,0.01c0.07,0.6,0.05,1.25,0.08,1.82c0.05,0.83,0.08,1.65,0.11,2.48c0.03,0.83,0.05,1.65,0.07,2.48
				c0.01,0.43,0.01,0.86,0.02,1.29c0,0.18,0,0.36,0,0.54c0,0.06,0,0.12,0,0.18c-0.38,0.02-0.79-0.03-1.14-0.03
				c-0.37,0-0.91,0.08-1.33,0.03c-0.04-0.17-0.07-0.33-0.1-0.5c-0.07-0.34-0.13-0.68-0.18-1.02c-0.12-0.72-0.22-1.44-0.3-2.16
				c-0.16-1.39-0.24-2.78-0.25-4.18c0-0.54-0.36-1.03-0.93-1.07c-0.51-0.04-1.07,0.39-1.07,0.93c0.02,2.09,0.17,4.19,0.49,6.26
				c0.07,0.48,0.15,0.96,0.24,1.43c0.09,0.49,0.15,1.05,0.4,1.49c0.55,0.98,1.84,0.77,2.79,0.78c0.93,0,2.24,0.26,2.95-0.48
				C189.14,77.22,188.86,75.82,188.84,74.91z"/>
			<path class="st10" d="M196.01,73.87c0.22-0.16,0.45-0.32,0.67-0.49c0.55-0.44,0.99-1.07,0.8-1.81c-0.21-0.8-0.96-1.22-1.79-1.47
				c0.7-0.95,1.07-2.08,0.46-3.28c-0.5-0.99-1.34-1.3-2.22-1.23c0.29-0.76,0.67-2.41,0.68-3.23c0-1.34-0.71-2.97-2.26-3
				c-1.47-0.03-2.35,1.56-2.91,2.7c-0.51,1.04-1.11,3.25-2.22,3.81c-1.15,0.58-0.27,2.37,0.89,1.79c1.85-0.93,2.46-3.71,3.45-5.35
				c0.09-0.15,0.53-0.97,0.75-0.96c0.26,0.01,0.3,0.88,0.3,1.01c0,1.31-0.89,3.43-1.52,4.54c-0.56,0.99,0.56,2.02,1.48,1.32
				c0.41-0.31,1.77-1.22,1.88-0.19c0.09,0.86-0.9,1.53-1.47,1.99c-0.69,0.56-0.25,1.68,0.59,1.75c0.41,0.04,0.82,0.09,1.22,0.19
				c0.05,0.01,0.14,0.05,0.24,0.09c-0.24,0.19-0.5,0.43-0.64,0.53c-0.41,0.29-0.82,0.59-1.23,0.88c-0.52,0.37-0.41,1.26,0.09,1.58
				c0.32,0.21,0.93,0.5,1.42,0.56c-0.22,0.06-0.45,0.1-0.67,0.15c-1.56,0.32-3.13,0.4-4.71,0.28c-1.28-0.09-1.42,1.9-0.14,2
				c1.3,0.1,2.61,0.07,3.9-0.09c1.06-0.13,2.31-0.26,3.22-0.87c0.8-0.53,1.19-1.54,0.67-2.41C196.72,74.3,196.39,74.05,196.01,73.87
				z"/>
		</g>
	</g>
	<g>
		<g>
			<path class="st6" d="M68.74,106.37c-0.02-0.34-0.07-0.68-0.17-1c-0.63-1.87-3-2.92-4.56-1.36c-0.59,0.6-0.79,1.41-0.95,2.2
				c-0.16,0.81-0.28,1.62-0.34,2.44c-0.02,0.24-0.02,0.49-0.02,0.73c-0.04,0.15-0.07,0.31-0.07,0.48c0.03,2.71,0.37,5.43,1.06,8.05
				c0.43,1.65,2.7,2.08,3.64,0.61c0.19-0.29,0.33-0.6,0.46-0.91c0.6-0.36,1.04-0.96,1.25-1.65c0.49-1.58,0.67-3.37,0.77-5.02
				C69.92,109.28,69.76,107.72,68.74,106.37z"/>
			<path class="st44" d="M62.01,110.66c-0.03-1-0.65-1.85-1.66-2.03c-0.79-0.14-1.63,0.23-2.05,0.92c-0.55,0.33-0.93,0.91-0.96,1.62
				c-0.13,2.35,0.04,4.72,0.48,7.02c0.18,0.98,1.2,1.6,2.14,1.51c1.02-0.1,1.7-0.9,1.8-1.9C61.99,115.43,62.08,113.05,62.01,110.66z
				"/>
		</g>
		<g>
			<path class="st10" d="M63.55,116.86c-0.04-2.12-0.12-4.24-0.25-6.35c-0.07-1.13,0.07-2.68-1.41-2.86
				c-1.15-0.14-2.37-0.07-3.53-0.1c-1.28-0.04-1.43,1.96-0.14,2c0.6,0.02,1.2,0.03,1.8,0.05c0.28,0.01,0.56,0.02,0.85,0.02
				c0.14,0,0.28,0.01,0.42,0.01c0.07,0.6,0.05,1.25,0.08,1.82c0.05,0.83,0.08,1.65,0.11,2.48c0.03,0.83,0.05,1.65,0.07,2.48
				c0.01,0.43,0.01,0.86,0.02,1.29c0,0.18,0,0.36,0,0.54c0,0.06,0,0.12,0,0.18c-0.38,0.02-0.79-0.03-1.14-0.03
				c-0.37,0-0.91,0.08-1.33,0.03c-0.03-0.17-0.07-0.33-0.1-0.5c-0.07-0.34-0.13-0.68-0.18-1.02c-0.12-0.72-0.22-1.44-0.3-2.16
				c-0.16-1.39-0.24-2.78-0.25-4.18c0-0.54-0.36-1.03-0.93-1.07c-0.51-0.04-1.07,0.39-1.07,0.93c0.02,2.09,0.17,4.19,0.49,6.26
				c0.07,0.48,0.15,0.96,0.24,1.43c0.09,0.49,0.15,1.05,0.4,1.49c0.55,0.98,1.84,0.77,2.79,0.78c0.93,0,2.24,0.26,2.95-0.48
				C63.84,119.18,63.57,117.77,63.55,116.86z"/>
			<path class="st10" d="M70.72,115.82c0.22-0.16,0.45-0.32,0.67-0.49c0.55-0.44,0.99-1.07,0.8-1.81c-0.21-0.8-0.96-1.22-1.79-1.47
				c0.7-0.95,1.07-2.08,0.46-3.28c-0.5-0.99-1.34-1.3-2.22-1.23c0.29-0.76,0.67-2.41,0.68-3.23c0-1.34-0.71-2.97-2.26-3
				c-1.47-0.03-2.35,1.56-2.91,2.7c-0.51,1.04-1.11,3.25-2.22,3.81c-1.15,0.58-0.27,2.37,0.89,1.79c1.85-0.93,2.46-3.71,3.45-5.35
				c0.09-0.15,0.53-0.97,0.75-0.96c0.26,0.01,0.3,0.88,0.3,1.01c0,1.31-0.89,3.43-1.52,4.54c-0.56,0.99,0.56,2.02,1.48,1.32
				c0.41-0.31,1.77-1.22,1.88-0.19c0.09,0.86-0.9,1.53-1.47,1.99c-0.69,0.56-0.25,1.68,0.59,1.75c0.41,0.04,0.82,0.09,1.22,0.19
				c0.05,0.01,0.14,0.05,0.24,0.09c-0.24,0.19-0.5,0.43-0.64,0.53c-0.41,0.3-0.82,0.59-1.23,0.89c-0.52,0.37-0.41,1.26,0.09,1.58
				c0.33,0.21,0.93,0.5,1.42,0.56c-0.22,0.06-0.45,0.1-0.67,0.15c-1.56,0.32-3.13,0.4-4.71,0.28c-1.28-0.09-1.42,1.9-0.14,2
				c1.3,0.1,2.61,0.07,3.9-0.09c1.06-0.13,2.31-0.26,3.22-0.87c0.8-0.53,1.19-1.54,0.67-2.41C71.43,116.25,71.09,116,70.72,115.82z"
				/>
		</g>
	</g>
	<path class="st4" d="M190.91,117.7c-0.05-0.07-0.1-0.13-0.16-0.2c-0.12-0.12-0.27-0.21-0.44-0.26c-0.09-0.01-0.18-0.02-0.27-0.04
		c-0.18,0-0.35,0.05-0.5,0.14c-0.19,0.09-0.38,0.19-0.56,0.28c-0.12,0.06-0.21,0.15-0.28,0.26c-0.09,0.1-0.15,0.21-0.18,0.34
		c-0.04,0.13-0.05,0.27-0.02,0.4c0.01,0.13,0.05,0.26,0.12,0.37c0.05,0.07,0.1,0.13,0.16,0.2c0.12,0.12,0.27,0.21,0.44,0.26
		c0.09,0.01,0.18,0.02,0.27,0.04c0.18,0,0.35-0.05,0.5-0.14c0.19-0.09,0.38-0.19,0.56-0.28c0.12-0.06,0.21-0.15,0.28-0.26
		c0.09-0.1,0.15-0.21,0.18-0.34c0.04-0.13,0.05-0.27,0.02-0.4C191.02,117.94,190.98,117.81,190.91,117.7z"/>
	<path class="st4" d="M203.86,122.02c-1.29,0-1.29,2,0,2C205.14,124.02,205.15,122.02,203.86,122.02z"/>
	<path class="st4" d="M221.59,91.61c-1.29,0-1.29,2,0,2C222.88,93.61,222.88,91.61,221.59,91.61z"/>
	<path class="st4" d="M199.91,58.95c-1.29,0-1.29,2,0,2C201.2,60.95,201.2,58.95,199.91,58.95z"/>
	<path class="st4" d="M173.17,69.93c-1.29,0-1.29,2,0,2C174.45,71.93,174.46,69.93,173.17,69.93z"/>
	<path class="st4" d="M59.42,83.16c-1.29,0-1.29,2,0,2C60.7,85.16,60.71,83.16,59.42,83.16z"/>
	<path class="st4" d="M70.12,88.23c-1.29,0-1.29,2,0,2C71.4,90.23,71.4,88.23,70.12,88.23z"/>
	<path class="st4" d="M90.11,65.42c-1.29,0-1.29,2,0,2C91.39,67.42,91.4,65.42,90.11,65.42z"/>
	<path class="st4" d="M47.31,116.39c-1.29,0-1.29,2,0,2C48.6,118.39,48.6,116.39,47.31,116.39z"/>
	<path class="st4" d="M47.87,93.58c-1.29,0-1.29,2,0,2C49.16,95.58,49.16,93.58,47.87,93.58z"/>
	<path class="st4" d="M77.72,102.59c-1.29,0-1.29,2,0,2C79,104.59,79.01,102.59,77.72,102.59z"/>
	<g>
		<path class="st4" d="M219.39,114.72c-0.18-0.17-0.46-0.3-0.71-0.28c-0.26,0.02-0.53,0.1-0.7,0.3c-0.05,0.07-0.1,0.14-0.15,0.2
			c-0.09,0.16-0.13,0.33-0.13,0.51c-0.06,0.69-0.12,1.38-0.18,2.07c-0.02,0.24,0.14,0.54,0.3,0.7c0.18,0.17,0.46,0.3,0.71,0.28
			c0.26-0.02,0.53-0.1,0.7-0.3c0.05-0.07,0.1-0.14,0.15-0.2c0.09-0.16,0.13-0.33,0.13-0.51c0.06-0.69,0.12-1.38,0.18-2.07
			C219.71,115.18,219.55,114.88,219.39,114.72z"/>
		<path class="st4" d="M217.18,118.39c-0.07-0.05-0.14-0.1-0.2-0.15c-0.16-0.09-0.33-0.13-0.51-0.13c-0.5,0.07-1,0.14-1.5,0.21
			c-0.14,0-0.27,0.03-0.38,0.09c-0.12,0.04-0.23,0.11-0.32,0.21c-0.17,0.18-0.3,0.46-0.28,0.71c0.02,0.26,0.1,0.53,0.3,0.7
			c0.07,0.05,0.14,0.1,0.2,0.15c0.16,0.09,0.33,0.13,0.51,0.13c0.5-0.07,1-0.14,1.5-0.21c0.14,0,0.27-0.03,0.38-0.09
			c0.12-0.04,0.23-0.11,0.32-0.21c0.17-0.18,0.3-0.46,0.28-0.71C217.47,118.84,217.38,118.57,217.18,118.39z"/>
		<path class="st4" d="M219.82,122.39c-0.11-0.25-0.18-0.52-0.23-0.79c-0.02-0.24-0.03-0.49,0-0.73c0.02-0.24-0.14-0.54-0.3-0.7
			c-0.18-0.17-0.46-0.3-0.71-0.28c-0.26,0.02-0.53,0.1-0.7,0.3c-0.05,0.07-0.1,0.14-0.15,0.2c-0.09,0.16-0.13,0.33-0.13,0.51
			c-0.04,0.35-0.01,0.7,0.04,1.04c0.05,0.35,0.13,0.68,0.27,1.01c0.03,0.13,0.09,0.24,0.18,0.34c0.07,0.11,0.17,0.19,0.28,0.25
			c0.22,0.12,0.53,0.17,0.77,0.09c0.24-0.08,0.47-0.24,0.59-0.47c0.03-0.08,0.06-0.16,0.1-0.24
			C219.88,122.75,219.87,122.57,219.82,122.39z"/>
		<path class="st4" d="M222.9,119c-0.08-0.24-0.24-0.47-0.47-0.59c-0.08-0.03-0.16-0.06-0.24-0.1c-0.15-0.04-0.3-0.04-0.46,0
			c-0.37,0.05-0.75,0.06-1.13,0.03c-0.14,0-0.27,0.03-0.38,0.09c-0.12,0.04-0.23,0.11-0.32,0.21c-0.1,0.09-0.16,0.2-0.2,0.32
			c-0.06,0.12-0.09,0.25-0.08,0.39c0.02,0.26,0.1,0.53,0.3,0.7c0.07,0.05,0.14,0.1,0.2,0.15c0.16,0.09,0.33,0.13,0.51,0.13
			c0.53,0.05,1.06,0,1.58-0.1c0.13-0.03,0.24-0.09,0.34-0.18c0.11-0.07,0.19-0.17,0.25-0.28c0.07-0.12,0.11-0.24,0.11-0.37
			C222.96,119.27,222.95,119.14,222.9,119z"/>
	</g>
	<g>
		<path class="st4" d="M65.92,48.13c-0.18-0.17-0.46-0.3-0.71-0.28c-0.26,0.02-0.53,0.1-0.7,0.3c-0.05,0.07-0.1,0.14-0.15,0.2
			c-0.09,0.16-0.13,0.33-0.13,0.51c-0.06,0.69-0.12,1.38-0.18,2.07c-0.02,0.24,0.14,0.54,0.3,0.7c0.18,0.17,0.46,0.3,0.71,0.28
			c0.26-0.02,0.53-0.1,0.7-0.3c0.05-0.07,0.1-0.14,0.15-0.2c0.09-0.16,0.13-0.33,0.13-0.51c0.06-0.69,0.12-1.38,0.18-2.07
			C66.24,48.6,66.08,48.29,65.92,48.13z"/>
		<path class="st4" d="M63.71,51.8c-0.07-0.05-0.14-0.1-0.2-0.15c-0.16-0.09-0.33-0.13-0.51-0.13c-0.5,0.07-1,0.14-1.5,0.21
			c-0.14,0-0.27,0.03-0.38,0.09c-0.12,0.04-0.23,0.11-0.32,0.21c-0.17,0.18-0.3,0.46-0.28,0.71c0.02,0.26,0.1,0.53,0.3,0.7
			c0.07,0.05,0.14,0.1,0.2,0.15c0.16,0.09,0.33,0.13,0.51,0.13c0.5-0.07,1-0.14,1.5-0.21c0.14,0,0.27-0.03,0.38-0.09
			c0.12-0.04,0.23-0.11,0.32-0.21c0.17-0.18,0.3-0.46,0.28-0.71C64,52.25,63.91,51.98,63.71,51.8z"/>
		<path class="st4" d="M66.35,55.8c-0.11-0.25-0.18-0.52-0.23-0.79c-0.02-0.24-0.03-0.49,0-0.73c0.03-0.24-0.14-0.54-0.3-0.7
			c-0.18-0.17-0.46-0.3-0.71-0.28c-0.26,0.02-0.53,0.1-0.7,0.3c-0.05,0.07-0.1,0.14-0.15,0.2c-0.09,0.16-0.13,0.33-0.13,0.51
			c-0.04,0.35-0.01,0.7,0.04,1.04c0.05,0.35,0.13,0.68,0.27,1.01c0.03,0.13,0.09,0.24,0.18,0.34c0.07,0.11,0.17,0.19,0.28,0.25
			c0.22,0.12,0.53,0.17,0.77,0.09c0.24-0.08,0.47-0.24,0.59-0.47c0.03-0.08,0.06-0.16,0.1-0.24C66.4,56.16,66.4,55.98,66.35,55.8z"
			/>
		<path class="st4" d="M69.43,52.42c-0.08-0.24-0.24-0.47-0.47-0.59c-0.08-0.03-0.16-0.06-0.24-0.1c-0.15-0.04-0.3-0.04-0.46,0
			c-0.37,0.05-0.75,0.06-1.13,0.03c-0.14,0-0.27,0.03-0.38,0.09c-0.12,0.04-0.23,0.11-0.32,0.21c-0.1,0.09-0.16,0.2-0.2,0.32
			c-0.06,0.12-0.09,0.25-0.08,0.39c0.02,0.26,0.1,0.53,0.3,0.7c0.07,0.05,0.14,0.1,0.2,0.15c0.16,0.09,0.33,0.13,0.51,0.13
			c0.53,0.05,1.06,0,1.58-0.1c0.13-0.03,0.24-0.09,0.34-0.18c0.11-0.07,0.19-0.17,0.25-0.28c0.07-0.12,0.11-0.24,0.11-0.37
			C69.48,52.68,69.48,52.55,69.43,52.42z"/>
	</g>
</g>
</svg>
