<?xml version="1.0" encoding="utf-8"?>
<!-- Generator: Adobe Illustrator 24.2.0, SVG Export Plug-In . SVG Version: 6.00 Build 0)  -->
<svg version="1.1" id="line" xmlns="http://www.w3.org/2000/svg" xmlns:xlink="http://www.w3.org/1999/xlink" x="0px" y="0px"
	 viewBox="0 0 375 250" style="enable-background:new 0 0 375 250;" xml:space="preserve">
<style type="text/css">
	.st0{fill:#BCDFDF;}
	.st1{fill:#99D3DD;}
	.st2{fill:#ABCB58;}
	.st3{fill:#C7D555;}
	.st4{fill:#FFFFFF;}
	.st5{fill:#AAB4B9;}
	.st6{fill:#FDDBBF;}
	.st7{fill:#F4CA99;}
	.st8{fill:#DC9F5C;}
	.st9{fill:#F6B1AC;}
	.st10{fill:#651811;}
	.st11{fill:#E9E56D;}
	.st12{fill:#9BC0D5;}
	.st13{fill:#DDE8F0;}
	.st14{fill:#EF7C68;}
	.st15{fill:#FFE1A2;}
	.st16{fill:#E9F4F4;}
	.st17{fill:#CDD95F;}
	.st18{fill:#B2DCDA;}
	.st19{fill:#9DAEB9;}
	.st20{fill:#F0EA7A;}
	.st21{fill:#CCDB81;}
	.st22{fill:#F4A5AD;}
	.st23{fill:#B2B2B2;}
	.st24{fill:#C0C4C6;}
	.st25{fill:#E3E8EA;}
	.st26{fill:#FFDB83;}
	.st27{fill:#C0C0C0;}
	.st28{fill:#6EC6D9;}
	.st29{fill:#878D91;}
	.st30{fill:#F0867B;}
	.st31{fill:#FFDE90;}
	.st32{fill:#C53C6C;}
	.st33{fill:#EEBF6D;}
	.st34{fill:#903D8F;}
	.st35{fill:#514E9C;}
	.st36{fill:#F9BB7A;}
	.st37{fill:#F28F6C;}
	.st38{fill:#FFE586;}
	.st39{fill:#6FC5D3;}
	.st40{fill:#9BD4E4;}
	.st41{fill:#F6B9C2;}
	.st42{fill:#F4A08B;}
	.st43{fill:#D1E8E8;}
	.st44{fill:#FCC249;}
	.st45{fill:#9F5A24;}
	.st46{fill:#BCE4FA;}
	.st47{fill:#B07147;}
	.st48{fill:#D88959;}
	.st49{fill:#FFEC96;}
	.st50{fill:#91D0D4;}
	.st51{fill:#651811;stroke:#651811;stroke-width:0.75;stroke-linecap:round;stroke-linejoin:round;stroke-miterlimit:10;}
	.st52{fill:#C1E3E6;}
	.st53{fill:#C4D4DE;}
	.st54{fill:#651811;stroke:#651811;stroke-width:0.5;stroke-miterlimit:10;}
	.st55{fill:#651811;stroke:#651811;stroke-width:0.5;stroke-linecap:round;stroke-linejoin:round;stroke-miterlimit:10;}
	.st56{fill:#D8E0E6;}
	.st57{fill:#FECB4A;}
	.st58{fill:#EEF8FE;}
	.st59{fill:#ADCE68;}
	.st60{fill:#FCD7BA;}
	.st61{fill:#651811;stroke:#651811;stroke-width:0.25;stroke-miterlimit:10;}
	.st62{fill:#F4A8B3;}
	.st63{fill:#F7AE6E;}
	.st64{fill:#FEDFB3;}
	.st65{fill:#F7B28C;}
	.st66{fill:#FFFBDC;}
	.st67{fill:#FCC24F;}
	.st68{fill:none;stroke:#651811;stroke-width:2;stroke-linecap:round;stroke-linejoin:round;stroke-miterlimit:10;}
	.st69{fill:#9EC65A;}
	.st70{fill:#A7D9DE;}
	.st71{fill:#CACCCE;}
	.st72{fill:#FBBE49;}
	.st73{fill:#9BC76B;}
	.st74{fill:#D9E181;}
	.st75{fill:#F6B9C5;}
	.st76{fill:#87CDD8;}
	.st77{fill:#651811;stroke:#651811;stroke-width:0.4;stroke-miterlimit:10;}
	.st78{fill:#A8D7CC;}
	.st79{fill:#CDEAFC;}
	.st80{fill:#D6D6D6;}
	.st81{fill:#F8C3C3;}
	.st82{fill:#D7BCA5;}
	.st83{fill:#FFD247;}
	.st84{fill:#F59B42;}
	.st85{fill:#FFF59B;}
	.st86{fill:#90D1DB;}
	.st87{fill:#EB935F;}
	.st88{fill:#DD7636;}
</style>
<g>
	<path class="st63" d="M187.35,34.46c-43.25-16.76-72.66-7.81-89.18-1.55c-23.31,8.83-73.99,39.55-71.61,121.57
		c2.38,82.02,111.16,107.04,191.87,47.77C299.15,142.99,242.79,55.94,187.35,34.46z"/>
	<path class="st26" d="M335.27,78.7c-20.68-15.43-51.41-13.02-73.28-2.8c-21.81,10.19-41.06,30.45-44.23,55.63
		c-1.57,12.43,1.58,25.08,9.9,34.75c9.04,10.51,22.28,16.96,35.48,19.1c20.84,3.37,51.35-2.54,75.3-26.01
		c9.64-9.44,16.8-21.51,17.32-35.58C356.27,110.1,349.75,89.5,335.27,78.7z"/>
	<circle class="st4" cx="289.5" cy="128.09" r="45.21"/>
	<circle class="st4" cx="64.42" cy="60.4" r="45.21"/>
	<circle class="st4" cx="64.7" cy="171.73" r="45.21"/>
	<g>
		<path class="st4" d="M229.63,149.44c-0.15,0.48,0,0.9,0.34,1.26c1.67,1.79,3.98,2.57,6.35,2.89c-0.94,1.86-1.33,3.97-0.95,6.06
			l0.02,0c0.02,0.1,0.02,0.2,0.04,0.3c0.01,0.03,0.03,0.05,0.03,0.08c0.06,0.35,0.24,0.67,0.61,0.85c0.53,0.25,1.37,0.05,1.58-0.56
			c1.13-3.2,2.74-6.19,4.83-8.85c0.76-0.97-0.14-2.16-1.27-1.9c-1.66,0.38-3.39,0.15-5.04-0.13c-1.84-0.32-3.65-0.7-5.52-0.81
			C230.21,148.6,229.75,149.04,229.63,149.44z"/>
		<path class="st4" d="M236,152.4c-0.12,0.12-0.26,0.23-0.38,0.34c-0.05,0.02-0.1,0.01-0.15,0.04
			c-23.45,11.06-52.36,20.54-78.01,24.34c-7.35,1.09-14.74,1.86-22.15,2.33c-0.88,0.05-1.2,1.02-0.91,1.59
			c2.66,1.21,13.73,3.95,20.43,4.49c-1.01,3.96-2.71,7.66-5.08,11.01c-0.61,0.86,0.39,1.83,1.27,1.46
			c12.06-5.07,24.14-10.1,36.19-15.2c10.59-4.48,25.01-11.08,34.78-17.2c5.45-3.42,10.63-7.27,15.32-11.68
			C238.26,153.02,236.94,151.51,236,152.4z"/>
	</g>
	<g>
		<path class="st4" d="M232.02,102.85c-0.48,0.15-0.74,0.51-0.84,1c-0.51,2.39,0.16,4.73,1.26,6.86c-2.07,0.29-4.01,1.18-5.52,2.68
			l0.02,0.01c-0.07,0.07-0.16,0.13-0.23,0.2c-0.02,0.02-0.02,0.05-0.04,0.07c-0.26,0.25-0.42,0.58-0.35,0.99
			c0.09,0.58,0.74,1.15,1.36,0.98c3.27-0.9,6.64-1.29,10.03-1.09c1.23,0.07,1.7-1.35,0.83-2.13c-1.26-1.14-2.06-2.69-2.77-4.21
			c-0.79-1.69-1.51-3.39-2.49-4.99C233.04,102.85,232.42,102.73,232.02,102.85z"/>
		<path class="st4" d="M234.95,111.27c-0.22-0.06-0.43-0.12-0.65-0.18c0.02-0.25-0.08-0.51-0.36-0.72
			c-11.41-8.57-23.67-15.97-36.58-22.04c-13.09-6.15-27.04-11.38-41.26-14.14c-7.92-1.53-16.02-2.02-23.99-0.68
			c-1.25,1.02-0.15,2.03,0.04,1.99c7.49,0.53,14.4,3.73,21.01,7.15c-3.89,0.9-7.55,2.56-10.78,4.97c-0.75,0.56-0.45,1.92,0.6,1.84
			c12.51-1,25.07,0.38,37.23,3.38c12.15,2.99,23.41,7.03,35.04,11.55c6.4,2.49,12.97,7.02,19.61,8.78
			C236.1,113.49,236.19,111.6,234.95,111.27z"/>
	</g>
	<g>
		<g>
			<g>
				<path class="st6" d="M86.29,48.49c-1-1.61-2.7-1.63-4.38-1.34c-1.92,0.33-3.84,0.67-5.78,0.91c-3.86,0.49-7.72,0.57-11.49-0.52
					c-0.15-0.04-0.28-0.06-0.41-0.06c-0.1-0.05-0.21-0.1-0.33-0.14c-0.81-0.23-1.64-0.12-2.37,0.25c-0.51-0.39-1.23-0.55-1.82-0.39
					c-1.13,0.31-1.57,1.39-1.4,2.46c0.54,3.28,0.61,6.61,0.25,9.9c-0.39,0.41-0.72,0.87-0.93,1.41c-0.52,1.36-0.47,2.63-0.04,3.8
					c-0.05,0.19-0.09,0.39-0.14,0.58c-0.44,1.61,1.02,2.62,2.29,2.45c2.48,2.31,6.28,3.88,8.82,4.4c5.43,1.11,12.38-0.15,15.91-4.79
					c2.03-2.67,2.02-5.9,2.15-9.11c0.07-1.78,0.14-3.57,0.2-5.35C86.89,51.49,87.1,49.81,86.29,48.49z"/>
				<path class="st6" d="M74.21,74.43c-0.32-0.8-0.9-1.36-1.64-1.7c-0.1-0.61-0.52-1.16-1.16-1.26c-0.26-0.04-0.52-0.01-0.76,0.06
					c-0.02-0.01-0.03-0.03-0.05-0.04c-0.73-0.33-1.65-0.08-2.01,0.68c-0.25,0.52-0.52,1.22-0.69,1.94c-0.02,0.03-0.05,0.06-0.07,0.1
					c-0.44,0.76-0.5,1.77-0.13,2.57c0.2,0.44,0.46,0.85,0.85,1.14c0.18,0.13,0.37,0.26,0.58,0.35c0.4,0.16,0.63,0.18,1.06,0.21
					c0.17,0.01,0.36-0.05,0.54-0.14c0.01,0.02,0.02,0.03,0.03,0.05c0.46,0.68,1.31,1.03,2.11,0.75c0.99-0.35,1.31-1.39,1.47-2.32
					C74.47,76.03,74.5,75.17,74.21,74.43z"/>
				<path class="st4" d="M74.73,63.22c-0.05,0.01-0.1,0.02-0.15,0.02c-0.81,0.01-1.62,0.02-2.43-0.07c-0.33-0.03-0.66-0.09-0.97-0.2
					c-0.28-0.09-0.57-0.18-0.84-0.31c-0.07-0.03-0.13-0.08-0.2-0.12c-0.03,0.02-0.06,0.03-0.09,0.05c-0.3,0.2-0.57,0.58-0.63,0.94
					c-0.01,0.04-0.01,0.09-0.01,0.13c0.02,0.03,0.04,0.05,0.07,0.08c0.56,0.6,1.16,1.17,1.84,1.64c0.74,0.08,1.48,0.12,2.22,0.06
					c0.39-0.03,0.77-0.22,1.03-0.51c0.24-0.28,0.41-0.72,0.37-1.09C74.9,63.63,74.84,63.41,74.73,63.22z"/>
				<path class="st8" d="M93.73,71.9c-0.44-1.28-0.84-2.58-1.2-3.88c-0.67-2.47-1.2-4.98-1.55-7.52c-0.8-5.75-0.72-11.66,0.21-17.39
					c0.03-0.19,0.03-0.37,0.03-0.56c0.76-0.89,1.1-1.95,0.3-3.18c-0.73-1.13-2.15-1.51-3.33-1.97c-1.35-0.54-2.71-1.06-4.07-1.56
					c-2.73-1-5.48-1.94-8.25-2.8c-2.6-0.81-5.24-1.46-7.97-1.11c-2.86,0.36-5.71,1.56-8.24,2.92c-1.17,0.63-2.29,1.45-3.1,2.49
					c0,0-0.01,0-0.01,0c-3.57,0.35-6.59,2.23-8.93,4.9c-2.53,2.88-4.13,6.38-6.41,9.43c-2.11,2.82-4.95,5.05-8.13,6.55
					c-1.43,0.67-2.9,1.27-3.87,2.59C28,62.42,28.17,64.39,29,66.13c1.48,3.12,4.27,5.96,6.91,8.13c2.88,2.37,6.27,4.71,10.11,4.94
					c2.05,0.13,4.11-0.42,6.06-1.01c2.03-0.61,4.05-1.24,6.07-1.85c1.73-0.53,3.7-0.94,4.9-2.41c1.21-1.49,0.87-3.38-0.37-4.74
					c-1.22-1.34-2.94-2.06-4.22-3.31c-1.36-1.33-1.22-3.32-1.12-5.08c0.14-2.41,0.31-4.81,0.47-7.22c0.07-1.13,0.15-2.27,0.22-3.4
					c0.04-0.65,0.08-1.3,0.13-1.95c0.01-0.21,0.03-0.41,0.04-0.62c1.16-0.09,2.23-0.27,3.32-1c0.53-0.36,1-0.79,1.41-1.27
					c7.4,3.75,16.49,3.78,23.94,0.1c-0.51,4.58-0.56,9.19-0.05,13.78c0.17,1.52,0.39,3.03,0.66,4.53c-0.3,0.23-0.54,0.59-0.63,1.1
					c-0.39,2.05-1.52,3.65-3.12,4.97c-1.63,1.35-3.57,1.95-5.34,3.02c-2.25,1.35-2.82,3.98-1.47,6.22c1.11,1.85,3.25,2.83,5.33,3
					c2.4,0.2,4.71-0.84,6.78-1.95c1.18-0.63,2.35-1.29,3.52-1.94c1.17-0.65,2.21-1.41,2.21-2.88C94.75,74.13,94.1,72.98,93.73,71.9z
					"/>
				<path class="st75" d="M56.99,103.34c0.7-1.41,1.46-2.79,2.07-4.24c1.74-4.14,1.18-8.73-0.39-12.87
					c-0.69-1.81-2.05-3.47-4.16-3.35C53,82.98,51.79,84,51.42,85.33c-0.02,0.04-0.05,0.08-0.08,0.12c-2.32,4.71-4.61,9.43-6.81,14.2
					C48.53,101.28,52.73,102.55,56.99,103.34z"/>
				<path class="st75" d="M63.51,104.16c4.88,0.31,9.73-0.07,14.31-1.34c0.31-1.38,0.68-2.74,1.22-4.04
					c0.96,0.91,1.97,1.76,3.03,2.55c3.06-1.29,5.95-3.05,8.6-5.32c-2.23-3.23-3.74-7.09-5.19-10.56c-0.78-1.87-3.08-1.9-3.86,0
					c-2.4,5.86-8.76,9.52-14.98,9.11c-0.08,0-0.14,0.01-0.22,0.01c-0.33-0.33-0.77-0.54-1.33-0.54c-0.97,0-2.14,0.92-2,2
					C63.44,98.72,63.59,101.44,63.51,104.16z"/>
				<path class="st8" d="M43.69,99.31c0.88-1.57,1.81-3.12,2.78-4.64c2.26-3.54,4.74-6.93,7.44-10.15c1.65-1.96-1.17-4.8-2.83-2.83
					c-4.17,4.96-7.86,10.32-11.01,15.97C41.26,98.24,42.46,98.79,43.69,99.31z"/>
				<path class="st8" d="M58.86,103.66c1.32,0.2,2.63,0.35,3.95,0.46c0.16-1.07,0.31-2.14,0.44-3.21
					c0.92-7.55,1.06-15.18,0.47-22.76c-0.2-2.55-4.2-2.57-4,0c0.57,7.26,0.46,14.56-0.36,21.8
					C59.22,101.19,59.05,102.42,58.86,103.66z"/>
				<path class="st10" d="M66.66,72.02c-0.58-0.03-0.98,0.35-1.09,0.91c-0.07,0.37-0.14,0.75-0.22,1.12c0,0.02-0.01,0.03-0.01,0.04
					c0,0.01,0,0.02-0.01,0.04c-0.02,0.09-0.04,0.17-0.06,0.26c-0.04,0.18-0.09,0.37-0.14,0.55c-0.19,0.72-0.41,1.44-0.65,2.14
					c-0.17,0.49,0.06,1.12,0.59,1.29c0.5,0.16,1.11-0.06,1.29-0.59c0.52-1.52,0.92-3.09,1.21-4.67
					C67.66,72.59,67.17,72.04,66.66,72.02z"/>
				<path class="st10" d="M76.18,79.12c0.07,0.21-0.04-0.15-0.05-0.18c-0.03-0.09-0.05-0.17-0.07-0.26c-0.06-0.2-0.11-0.4-0.16-0.61
					c-0.09-0.38-0.17-0.76-0.23-1.14c-0.06-0.38-0.11-0.77-0.15-1.16c-0.02-0.21-0.03-0.42-0.05-0.63c0-0.02,0-0.04,0-0.05
					c0-0.01,0-0.02,0-0.04c0-0.12-0.01-0.24-0.01-0.36c-0.01-0.52-0.33-1.06-0.91-1.09c-0.49-0.02-1.09,0.35-1.09,0.91
					c0.03,1.87,0.33,3.67,0.91,5.45c0.16,0.5,0.89,0.71,1.33,0.48C76.22,80.17,76.35,79.65,76.18,79.12z"/>
				<path class="st10" d="M84.9,44.53c-7.6,3.72-16.88,3.2-23.99-1.4c-1.08-0.7-2.24,0.93-1.16,1.63c7.7,4.98,17.75,5.61,26,1.58
					C86.9,45.77,86.06,43.96,84.9,44.53z"/>
				<path class="st10" d="M75.71,78.4c-0.87,0.47-1.82,0.42-2.78,0.35c-1-0.07-2-0.18-2.98-0.36c-1.99-0.37-3.92-1.06-5.58-2.24
					c-1.05-0.75-2.21,0.88-1.16,1.63c1.96,1.39,4.22,2.17,6.56,2.6c1.12,0.21,2.26,0.33,3.39,0.39c1.16,0.06,2.35,0,3.4-0.56
					C77.69,79.61,76.85,77.79,75.71,78.4z"/>
				<path class="st10" d="M75.87,59.08c-1.36-0.7-1.69-2.43-1.91-3.79c-0.1-0.63-1.09-0.46-0.98,0.18c0.24,1.5,0.67,3.07,1.83,4.06
					c-0.41,0.21-0.86,0.33-1.33,0.33c-0.27,0-0.52,0.17-0.54,0.45c-0.02,0.25,0.18,0.54,0.45,0.54c0.96,0,1.88-0.31,2.63-0.93
					C76.33,59.67,76.19,59.24,75.87,59.08z"/>
				<path class="st10" d="M81.49,54.34c-0.03-0.72-0.2-1.59-0.78-1.95c-0.18-0.11-0.38-0.15-0.57-0.12c-0.01,0-0.02-0.01-0.02-0.01
					c-0.7-0.02-1.11,0.74-1.34,1.42c-0.24,0.72-0.32,1.53-0.2,2.28c0.1,0.67,0.4,1.4,1.01,1.55c0.61,0.16,1.17-0.34,1.47-0.96
					C81.39,55.89,81.52,55.11,81.49,54.34z"/>
				<path class="st10" d="M66.94,53.46c-0.03-0.72-0.21-1.59-0.78-1.95c-0.18-0.11-0.38-0.15-0.57-0.12c-0.01,0-0.02-0.01-0.02-0.01
					c-0.7-0.02-1.11,0.74-1.34,1.42c-0.24,0.72-0.32,1.53-0.2,2.28c0.1,0.67,0.4,1.4,1.01,1.55c0.61,0.16,1.17-0.34,1.47-0.96
					C66.84,55.01,66.97,54.23,66.94,53.46z"/>
				<path class="st10" d="M65.19,52.25c-0.1-0.04-0.19-0.09-0.28-0.13c-0.01,0,0,0-0.01,0c-0.02-0.01-0.03-0.02-0.05-0.03
					c-0.05-0.03-0.09-0.05-0.13-0.08c-0.18-0.11-0.36-0.23-0.52-0.37c-0.04-0.03-0.08-0.07-0.12-0.1c-0.02-0.02-0.03-0.03-0.05-0.05
					c-0.01-0.01-0.03-0.03-0.04-0.03c0,0-0.01-0.01-0.01-0.01c-0.02-0.02-0.04-0.04-0.06-0.06c-0.04-0.04-0.07-0.07-0.11-0.11
					c-0.15-0.16-0.28-0.32-0.41-0.5c-0.15-0.21-0.51-0.24-0.7-0.06c-0.21,0.19-0.23,0.48-0.06,0.7c0.56,0.78,1.33,1.38,2.21,1.76
					c0.24,0.1,0.56-0.04,0.64-0.29C65.57,52.63,65.45,52.37,65.19,52.25z"/>
				<path class="st10" d="M65.38,53.24c-0.14-0.26-0.4-0.33-0.67-0.24c-0.02,0.01-0.02,0.01-0.03,0.01c-0.02,0-0.03,0.01-0.05,0.01
					c-0.04,0.01-0.08,0.02-0.12,0.03c-0.09,0.02-0.19,0.04-0.28,0.06c-0.1,0.01-0.19,0.02-0.29,0.03c-0.01,0-0.01,0-0.01,0
					c-0.01,0-0.03,0-0.04,0c-0.05,0-0.1,0-0.15,0c-0.19-0.01-0.38-0.03-0.58-0.07c-0.01,0-0.01,0-0.02,0c-0.01,0,0,0-0.01,0
					c-0.05-0.01-0.11-0.03-0.16-0.04c-0.09-0.03-0.18-0.06-0.27-0.1c-0.24-0.1-0.56,0.04-0.64,0.29c-0.08,0.26,0.03,0.54,0.29,0.64
					c0.9,0.36,1.88,0.35,2.78,0.04C65.39,53.82,65.5,53.46,65.38,53.24z"/>
				<path class="st10" d="M83.65,52.15c-0.12-0.22-0.42-0.38-0.67-0.24c-0.15,0.09-0.31,0.17-0.47,0.24
					c-0.09,0.04-0.17,0.07-0.26,0.11c-0.04,0.02-0.09,0.04-0.13,0.05c0.03,0,0.04-0.01,0.05-0.01c-0.02,0-0.06,0.01-0.07,0.02
					c-0.17,0.05-0.34,0.09-0.51,0.12c-0.09,0.01-0.17,0.03-0.26,0.04c-0.05,0-0.09,0.01-0.14,0.01c-0.02,0-0.05,0-0.07,0
					c0.02,0,0.02,0,0.03,0c-0.14,0.01-0.25,0.02-0.36,0.11c-0.09,0.08-0.17,0.21-0.18,0.34c-0.01,0.24,0.17,0.55,0.45,0.54
					c0.83-0.03,1.64-0.24,2.36-0.66c0.12-0.07,0.21-0.15,0.26-0.28C83.71,52.42,83.71,52.26,83.65,52.15z"/>
				<path class="st10" d="M84.15,54.18c-0.06-0.27-0.3-0.45-0.58-0.4c-0.54,0.08-0.99,0.16-1.51,0.1c-0.05-0.01-0.09-0.01-0.14-0.02
					c-0.03,0-0.05-0.01-0.08-0.02c-0.01,0-0.01,0-0.02-0.01c-0.11-0.03-0.21-0.06-0.31-0.11c-0.04-0.02-0.09-0.04-0.13-0.06
					c0.09,0.04-0.07-0.05-0.09-0.06c-0.04-0.03-0.08-0.05-0.11-0.08c-0.02-0.02-0.04-0.03-0.06-0.05c-0.01-0.01-0.01-0.01-0.02-0.02
					c-0.18-0.19-0.49-0.26-0.7-0.06c-0.19,0.17-0.26,0.51-0.06,0.7c0.42,0.43,0.96,0.66,1.55,0.76c0.62,0.09,1.26,0,1.87-0.1
					C84,54.72,84.21,54.44,84.15,54.18z"/>
				<path class="st10" d="M61.87,76.85c-1.09-0.1-2.22,0.11-3.2,0.61c-0.23,0.12-0.42,0.31-0.51,0.55
					c-0.09,0.23-0.09,0.55,0.03,0.78c0.25,0.47,0.83,0.73,1.33,0.48c0.2-0.1,0.41-0.18,0.62-0.26c0.34-0.1,0.69-0.16,1.04-0.19
					c0.17,0,0.34,0,0.51,0.01c0.52,0.05,1.06-0.37,1.09-0.91C62.8,77.39,62.43,76.9,61.87,76.85z"/>
				<path class="st10" d="M88.57,60.92c0.13-4.33-1.29-8.76-0.06-13.01c0.35-1.23-1.52-1.94-1.87-0.7
					c-1.22,4.22-0.11,8.4-0.05,12.68c0.05,4.13-1.54,7.74-4.91,10.21c-7.45,5.45-17.24,1.34-22.86-4.68
					c-0.88-0.94-2.42,0.34-1.53,1.28c4.85,5.21,11.69,8.83,18.98,7.69C83.03,73.33,88.36,67.87,88.57,60.92z"/>
				<path class="st10" d="M63.64,46.45c-0.69-0.42-0.99-0.65-1.48-1.26c-1.44,1.07-2.88,2.15-4.32,3.22
					c-0.42,0.31-0.48,1.02-0.13,1.41c0.38,0.42,0.96,0.46,1.41,0.13c1.54-1.15,3.09-2.3,4.63-3.45
					C63.71,46.47,63.67,46.47,63.64,46.45z"/>
				<path class="st10" d="M45.23,99.94c2.64-6.9,6.05-13.5,11.26-18.82c0.89-0.91-0.38-2.45-1.28-1.54
					C49.75,85.16,46.17,92,43.4,99.19C44.01,99.45,44.62,99.7,45.23,99.94z"/>
				<path class="st10" d="M90.1,96.49c0.51-0.42,1.02-0.86,1.51-1.32c-0.02-0.03-0.05-0.06-0.07-0.09
					c-3.21-4.47-5.51-9.51-8.93-13.84c-0.8-1.01-2.33,0.27-1.53,1.28C84.53,86.88,86.84,92.01,90.1,96.49z"/>
				<path class="st10" d="M81.1,101.73c0.67-0.26,1.34-0.54,1.99-0.84c-1.11-1.05-2.19-2.13-3.24-3.19
					c-0.9-0.91-2.45,0.37-1.54,1.28C79.23,99.9,80.15,100.82,81.1,101.73z"/>
				<path class="st10" d="M74.73,62.5c-1.69,0.61-3.45,0.11-5.1-0.4c-0.02-0.09-0.05-0.19-0.07-0.28c-0.05-0.27-0.37-0.41-0.62-0.35
					c-0.28,0.08-0.4,0.35-0.35,0.62c0.29,1.62,1.42,3.32,3.03,3.88c0.86,0.3,1.74,0.04,2.4-0.54c0.68-0.6,1.01-1.48,1.31-2.32
					C75.48,62.77,75.08,62.38,74.73,62.5z M73.43,64.64c-0.47,0.46-1.07,0.6-1.67,0.32c-0.73-0.34-1.29-0.96-1.67-1.67
					c1.3,0.37,2.64,0.63,3.97,0.42C73.89,64.05,73.7,64.37,73.43,64.64z"/>
				<path class="st10" d="M55.7,36.78c-6.52,0.97-10.62,6.37-13.83,11.65c-3.33,5.47-7.15,12.51-14.3,13.17
					c-0.69,0.06-1.04,0.69-0.88,1.33c2.11,8.28,8.71,14.97,16.89,17.35c1.24,0.36,1.63-1.6,0.4-1.96
					c-7.15-2.08-12.85-7.83-15.07-14.89c5.89-1.12,9.87-6.14,12.89-11.04c3.35-5.45,6.97-12.56,14.03-13.61
					C57.1,38.58,56.98,36.58,55.7,36.78z"/>
				<path class="st10" d="M96.51,74.77c-4.97-8.08-4.87-17.96-4.72-27.13c0.02-1.29-1.98-1.14-2,0.14
					c-0.15,9.28-0.11,19.09,4.63,27.35c-2.91,2.58-6.5,4.31-10.34,4.96c-1.26,0.21-1.14,2.21,0.13,2c4.63-0.78,8.81-2.86,12.23-6.09
					C96.76,75.68,96.72,75.12,96.51,74.77z"/>
				<path class="st10" d="M93.29,36.94c-0.11-0.57-0.68-1.18-1.33-0.88c-6.32,2.91-12.89-1.82-18.89-3.45
					c-4.79-1.29-13-1.91-15.71,3.42c-0.58,1.15,1.21,2.04,1.79,0.89c1.32-2.6,5.01-3.17,7.62-3.2c3.1-0.04,6.19,0.79,9.06,1.87
					c4.93,1.85,10.29,4.52,15.55,2.82c-0.05,1.96-1,3.77-2.72,4.9c-1.08,0.7,0.04,2.36,1.12,1.65
					C92.44,43.25,93.87,40.06,93.29,36.94z"/>
				<path class="st10" d="M58.05,48.95c-0.15,7.2-0.39,14.76-4.1,21.16c-0.65,1.12,1.15,2,1.79,0.89c3.89-6.7,4.14-14.64,4.3-22.18
					C60.07,47.53,58.08,47.67,58.05,48.95z"/>
				<path class="st10" d="M70.43,83.8c-0.72,2.77-1.71,6.93-2.74,11.44c0.51-0.34,1.22-0.36,1.77-0.07c0.1,0.05,0.17,0.14,0.25,0.21
					c1-4.4,1.97-8.46,2.68-11.17C72.71,82.95,70.75,82.56,70.43,83.8z"/>
				<path class="st10" d="M83.37,84.06c-0.16-0.43-0.63-0.63-1.06-0.59c-0.52,0.04-0.77,0.33-1.01,0.76
					c-0.15,0.27-0.09,0.56,0.05,0.82c-0.96,2.44-3.15,4.73-5.18,6.18c-2.43,1.73-5.42,2.59-8.4,2.29c-2.01-0.21-3.65-0.9-5.02-1.91
					c0.09,0.83,0.16,1.67,0.2,2.51c1.74,0.91,3.68,1.42,5.7,1.46c3.48,0.06,6.81-1.16,9.51-3.34c1.35-1.09,2.54-2.39,3.51-3.81
					C82.43,87.29,83.88,85.45,83.37,84.06z"/>
				<path class="st10" d="M59.13,90.55c-0.17-0.83-0.4-1.64-0.7-2.43c-0.2-0.53-0.03-1.08,0.32-1.5c-0.91-1.75-1.63-3.66-2.27-5.53
					c-0.42-1.22-2.25-0.42-1.84,0.79c1.11,3.25,2.33,6.63,4.6,9.27C59.21,90.95,59.17,90.75,59.13,90.55z"/>
				<path class="st10" d="M78.56,102.6c0.2-0.84,0.39-1.68,0.59-2.52c0.29-1.26-1.67-1.65-1.96-0.4l-0.82,3.51
					C77.1,103.01,77.83,102.82,78.56,102.6z"/>
				<path class="st10" d="M76.33,80.75c-0.16,0.82-0.31,1.65-0.59,2.43c-0.19,0.53-0.63,1.77-1.26,1.93
					c-0.55,0.14-1.02-1.34-1.19-1.74c-0.35-0.86-0.63-1.75-0.79-2.66c-0.2-1.08-1.68-1.29-1.98-0.13c-0.28,1.09-0.75,2.14-1.43,3.04
					c-0.19,0.26-0.77,1.17-1.14,1.16c-0.21-0.01-0.52-0.56-0.62-0.71c-1.45-2.14-2.59-4.5-3.52-6.91c-0.46-1.2-2.35-0.54-1.89,0.66
					c0.62,1.61,1.35,3.18,2.17,4.7c0.41,0.76,0.85,1.5,1.31,2.23c0.37,0.59,0.76,1.19,1.35,1.59c1.86,1.28,3.52-0.54,4.59-2.52
					c0.13,0.34,0.28,0.69,0.44,1.02c0.54,1.11,1.27,2.42,2.72,2.31c2.65-0.2,3.4-3.96,3.8-6.01C78.54,79.89,76.58,79.49,76.33,80.75
					z"/>
				<path class="st10" d="M57.33,103.4c0.66,0.12,1.32,0.23,1.98,0.32c1.25-8.66,1.44-17.47,0.51-26.2c-0.13-1.27-2.14-1.28-2,0
					C58.74,86.16,58.56,94.85,57.33,103.4z"/>
				<path class="st10" d="M61.56,104c0.66,0.07,1.32,0.12,1.98,0.16c0.77-9.2,0.49-18.49-0.87-27.66c-0.19-1.27-2.12-0.73-1.93,0.53
					C62.06,85.96,62.33,95.02,61.56,104z"/>
				<path class="st10" d="M40.77,97.99c0.7-1.24,1.43-2.47,2.2-3.68c1.88-2.95,3.96-5.76,6.31-8.35c1.11-1.23,2.27-2.4,3.49-3.52
					c1.36-1.24,2.74-2.53,4.62-2.82c1.27-0.2,0.73-2.12-0.53-1.93c-3.39,0.52-6.22,3.87-8.44,6.25c-2.5,2.68-4.73,5.61-6.73,8.67
					c-0.96,1.47-1.86,2.97-2.72,4.49C39.57,97.4,40.17,97.7,40.77,97.99z"/>
			</g>
			<path class="st68" d="M36.62,27.95c7.48-6.17,17.06-9.88,27.51-9.88c23.89,0,43.25,19.36,43.25,43.25s-19.36,43.25-43.25,43.25
				c-23.89,0-43.25-19.36-43.25-43.25c0-12.33,5.48-23.84,13.77-31.72"/>
		</g>
		<g>
			<g>
				<path class="st30" d="M134.69,86.11c-0.15-1.63-0.11-3.49-1.8-4.28c-3.31-1.54-7.66-1.04-11.18-0.83
					c-7.98,0.46-17.96,0.61-25.95,0.33c-3.84-0.13-7.69-0.58-11.53-0.57c-3.08,0.01-7.36,1.13-7.75,4.78c0,0.03,0.01,0.06,0,0.1
					c-0.79,4.47-1.12,9-0.98,13.54c0.06,2.02,0.02,4.24,0.67,6.17c0.68,2,2.38,2.87,4.27,3.51c6.45,2.2,13.37,1.18,20.09,1.65
					c0.06-0.1,0.13-0.18,0.2-0.27c0.41,0.18,0.88,0.23,1.35,0.13c1.07-0.24,2.17-0.17,3.25-0.16c1.26,0.02,2.51-0.03,3.76-0.15
					c2.55-0.23,5.09-0.68,7.61-1.13c0.34-0.06,0.62-0.24,0.85-0.47c2.11-0.11,4.99-0.23,6.58-0.42c2.02-0.24,4.04-0.61,5.99-1.2
					c1.59-0.48,3.47-0.96,4-2.73c0.59-1.95,0.6-4.21,0.72-6.24c0.11-1.8,0.16-3.6,0.15-5.4C134.98,90.35,134.88,88.23,134.69,86.11z
					"/>
				<path class="st10" d="M136.62,85.37c-0.16-1.64-0.31-3.37-1.62-4.55c-1.26-1.13-3.17-1.48-4.79-1.71
					c-2.04-0.3-4.09-0.32-6.14-0.24c-8.79,0.35-19.51,0.76-28.31,0.46c-2.47-0.09-4.94-0.21-7.41-0.37c-2.2-0.14-4.41-0.34-6.6-0.02
					c-3.6,0.53-7.08,2.96-7.28,6.86c0,0,0,0,0,0c-0.76,4.58-1.11,9.22-0.93,13.86c0.15,3.93,0.17,7.44,4.17,9.42
					c3.54,1.75,9.1,1.98,15,1.98c5.63,0,11.68-0.2,11.68-0.23c4.7-0.3,19.2-0.55,22.97-1.25c3.24-0.6,7.81-1.42,8.76-5.12
					c0.5-1.94,0.57-4.09,0.71-6.08c0.14-2.12,0.2-4.25,0.17-6.38C136.96,89.77,136.84,87.57,136.62,85.37z M134.85,97.88
					c-0.13,2.02-0.13,4.29-0.72,6.24c-0.53,1.77-2.41,2.25-4,2.73c-1.95,0.59-3.97,0.96-5.99,1.2c-1.98,0.24-5.97,0.37-7.96,0.5
					c-1.07,0.07-11.75,0.26-12.82,0.35c-0.37,0.03-0.77,0.05-1.16,0.09c0,0,0,0.01,0.01,0.01c-6.76-0.06-16.18,0.95-21.85-0.99
					c-1.89-0.65-3.49-0.65-4.17-2.66c-0.65-1.93-0.61-4.16-0.67-6.17c-0.14-4.54,0.2-9.07,0.98-13.54c0.01-0.04-0.01-0.06,0-0.1
					c0.39-3.65,4.67-4.77,7.75-4.78c3.84-0.01,7.69,0.43,11.53,0.57c7.99,0.27,17.97,0.13,25.95-0.33
					c3.52-0.21,7.87-0.71,11.18,0.83c1.69,0.79,1.65,2.65,1.8,4.28c0.19,2.12,0.29,4.25,0.31,6.37
					C135.01,94.28,134.96,96.08,134.85,97.88z"/>
				<g>
					<path class="st4" d="M104.1,98.21c-0.03-2.84-0.12-5.68-0.28-8.52c-0.07-1.25,0.12-3.07-0.64-4.13c-0.76-1.06-2.19-1-3.34-1.07
						c-2.14-0.14-5.1-0.57-6.78,1.16c-0.86,0.88-1.08,2.08-1.13,3.29c-0.05,1.37-0.03,2.76-0.01,4.13c0.04,3.19,0.15,6.41,0.51,9.58
						c0.09,0.82,0.36,1.49,1.11,1.87c0.69,0.35,1.59,0.25,2.35,0.23c0.51,0.11,1.02,0.17,1.48,0.22c1.28,0.15,2.6,0.04,3.85-0.27
						c1.24-0.31,2.4-0.9,2.75-2.26C104.3,101.11,104.11,99.56,104.1,98.21z"/>
				</g>
				<g>
					<path class="st4" d="M117.99,98.17c-0.03-2.84-0.12-5.68-0.28-8.52c-0.07-1.25,0.12-3.07-0.64-4.13
						c-0.76-1.06-2.19-1-3.34-1.07c-2.14-0.14-5.1-0.57-6.78,1.16c-0.86,0.88-1.08,2.08-1.13,3.29c-0.05,1.37-0.03,2.76-0.01,4.13
						c0.04,3.19,0.15,6.41,0.51,9.58c0.09,0.82,0.36,1.49,1.11,1.87c0.69,0.35,1.59,0.25,2.35,0.23c0.51,0.11,1.02,0.17,1.48,0.22
						c1.28,0.15,2.6,0.04,3.85-0.27c1.24-0.31,2.4-0.9,2.75-2.26C118.19,101.08,118,99.52,117.99,98.17z"/>
				</g>
				<g>
					<path class="st4" d="M131.99,98.17c-0.03-2.84-0.12-5.68-0.28-8.52c-0.07-1.25,0.12-3.07-0.64-4.13
						c-0.76-1.06-2.19-1-3.34-1.07c-2.14-0.14-5.1-0.57-6.78,1.16c-0.86,0.88-1.08,2.08-1.13,3.29c-0.05,1.37-0.03,2.76-0.01,4.13
						c0.04,3.19,0.15,6.41,0.51,9.58c0.09,0.82,0.36,1.49,1.11,1.87c0.69,0.35,1.59,0.25,2.35,0.23c0.51,0.11,1.02,0.17,1.48,0.22
						c1.28,0.15,2.6,0.04,3.85-0.27c1.24-0.31,2.4-0.9,2.75-2.26C132.19,101.08,132,99.52,131.99,98.17z"/>
				</g>
				<g>
					<path class="st4" d="M90.21,98.24c-0.03-2.84-0.12-5.68-0.28-8.52c-0.07-1.25,0.12-3.07-0.64-4.13c-0.76-1.06-2.19-1-3.34-1.07
						c-2.14-0.14-5.1-0.57-6.78,1.16c-0.86,0.88-1.08,2.08-1.13,3.29c-0.05,1.37-0.03,2.76-0.01,4.13c0.04,3.19,0.15,6.41,0.51,9.58
						c0.09,0.82,0.36,1.49,1.11,1.87c0.69,0.35,1.59,0.25,2.35,0.23c0.51,0.11,1.02,0.17,1.48,0.22c1.28,0.15,2.6,0.04,3.85-0.27
						c1.24-0.31,2.4-0.9,2.75-2.26C90.41,101.15,90.22,99.59,90.21,98.24z"/>
				</g>
			</g>
			<path class="st10" d="M121.11,72.95c-0.15-1.4,0.02-3.73-1.79-4.31c-1.01-0.32-2.26-0.31-3.32-0.41
				c-1.14-0.11-2.28-0.2-3.42-0.27c-2.53-0.16-5.06-0.23-7.6-0.22c-2.53,0.01-5.07,0.12-7.6,0.31c-1.96,0.15-4.37,0.1-6.19,0.84
				c-1.79,0.74-2.21,2.35-2.5,3.95c-0.4,2.19-0.53,4.4-0.39,6.62c0.06,1.06,1.75,1.13,1.96,0.23c9.66,1.75,19.57-0.23,29.33,0.37
				c0.24,0.95,1.98,0.89,1.95-0.19C121.5,77.57,121.36,75.26,121.11,72.95z"/>
			<g>
				<path class="st4" d="M100.99,70.16c-0.57-0.15-1.03,0.2-1.22,0.71c-0.46,1.22-0.98,2.42-1.56,3.6c-0.29,0.59-0.6,1.18-0.92,1.76
					c-0.14,0.25-0.28,0.49-0.42,0.74c-0.12-0.22-0.24-0.45-0.36-0.67c-0.31-0.58-0.6-1.16-0.89-1.75c-0.57-1.16-1.09-2.34-1.57-3.55
					c-0.2-0.5-0.68-0.85-1.24-0.69c-0.48,0.14-0.89,0.73-0.69,1.24c0.92,2.3,1.98,4.55,3.18,6.73c0.34,0.61,0.74,1.29,1.52,1.32
					c0.81,0.03,1.17-0.6,1.53-1.21c0.6-1.02,1.16-2.06,1.68-3.12c0.62-1.27,1.17-2.57,1.67-3.89
					C101.89,70.88,101.48,70.29,100.99,70.16z"/>
				<path class="st4" d="M105.3,70.04c-1.29,0.01-1.27,2.01,0.02,2C106.6,72.03,106.59,70.03,105.3,70.04z"/>
				<path class="st4" d="M104.9,73c-0.54,0.03-1,0.45-0.99,1.01c0.02,1.62-0.03,3.24-0.15,4.86c-0.04,0.52,0.5,1.02,1.01,0.99
					c0.58-0.03,0.95-0.45,0.99-1.01c0.12-1.62,0.17-3.24,0.15-4.86C105.91,73.47,105.45,72.98,104.9,73z"/>
				<path class="st4" d="M116.69,76.98c-1.76,0.22-3.53,0.32-5.3,0.32c0.03-0.03,0.05-0.06,0.08-0.09c0.56-0.57,1.12-1.14,1.68-1.71
					c1.13-1.15,2.26-2.31,3.39-3.46c0.64-0.65,0.12-1.65-0.72-1.7c-2.17-0.14-4.34-0.26-6.51-0.35c-0.54-0.02-1,0.49-0.99,1.01
					c0.01,0.56,0.47,0.97,1.01,0.99c1.41,0.06,2.83,0.15,4.24,0.23c-0.65,0.66-1.3,1.32-1.94,1.98c-1.1,1.12-2.33,2.21-3.17,3.55
					c-0.43,0.68,0.16,1.46,0.88,1.5c2.47,0.13,4.94,0.04,7.39-0.27c0.54-0.07,1-0.42,0.99-1.01
					C117.7,77.48,117.23,76.92,116.69,76.98z"/>
			</g>
			<path class="st10" d="M87.6,96.4c-0.18-1.54-1.08-2.91-2.55-3.5c-0.51-0.2-1.05-0.29-1.58-0.28c0.4-0.99,0.75-2,1.04-3.03
				c0.35-1.24-1.58-1.77-1.93-0.53c-0.46,1.65-1.07,3.25-1.84,4.78c-0.51,1.02,0.71,1.98,1.57,1.21c0.56-0.49,1.42-0.56,2.09-0.27
				c0.69,0.3,1.12,1.03,1.22,1.76c0.09,0.68-0.1,1.66-0.83,1.93c-0.98,0.36-2.24,0.06-3.13-0.4c-1.14-0.59-2.15,1.13-1.01,1.73
				c1.48,0.77,3.48,1.16,5.06,0.45C87.14,99.6,87.77,97.89,87.6,96.4z"/>
			<path class="st10" d="M87.77,88.93c-1.32-0.24-2.66-0.38-4-0.42c-0.52-0.01-1.02,0.47-1,1c0.02,0.55,0.44,0.99,1,1
				c0.61,0.02,1.23,0.05,1.84,0.12c0.16,0.02,0.31,0.03,0.47,0.05c0.07,0.01,0.14,0.02,0.22,0.03c0,0,0,0,0.01,0
				c0.01,0,0.01,0,0.01,0c0.31,0.04,0.62,0.09,0.93,0.15c0.27,0.05,0.53,0.04,0.77-0.1c0.21-0.12,0.41-0.36,0.46-0.6
				C88.58,89.67,88.32,89.03,87.77,88.93z"/>
			<path class="st10" d="M101.29,89.84c-0.18-0.21-0.45-0.3-0.73-0.29c-0.04-0.25-0.18-0.49-0.47-0.65
				c-0.93-0.55-2.1-0.44-2.97,0.17c-0.83,0.58-1.38,1.47-1.85,2.35c-0.97,1.83-1.71,4.04-1.23,6.12c0.41,1.8,2.1,3.43,4.04,3.23
				c2.17-0.22,3.27-2.23,3.83-4.12C102.59,94.35,102.93,91.82,101.29,89.84z M100.25,95.16c-0.29,1.2-0.63,2.87-1.85,3.48
				c-0.93,0.47-1.91-0.26-2.28-1.12c-0.56-1.3-0.07-2.91,0.43-4.14c0.28-0.68,1.4-3.41,2.53-2.74c0.19,0.11,0.37,0.14,0.55,0.13
				c0.04,0.18,0.11,0.35,0.24,0.5C100.77,92.33,100.55,93.91,100.25,95.16z"/>
			<path class="st10" d="M115.37,89.84c-0.18-0.21-0.45-0.3-0.73-0.29c-0.04-0.25-0.18-0.49-0.47-0.65
				c-0.93-0.55-2.1-0.44-2.97,0.17c-0.83,0.58-1.38,1.47-1.85,2.35c-0.97,1.83-1.71,4.04-1.23,6.12c0.41,1.8,2.1,3.43,4.04,3.23
				c2.17-0.22,3.27-2.23,3.83-4.12C116.67,94.35,117.01,91.82,115.37,89.84z M114.33,95.16c-0.29,1.2-0.63,2.87-1.85,3.48
				c-0.93,0.47-1.91-0.26-2.28-1.12c-0.56-1.3-0.07-2.91,0.43-4.14c0.28-0.68,1.4-3.41,2.53-2.74c0.19,0.11,0.37,0.14,0.55,0.13
				c0.04,0.18,0.11,0.35,0.24,0.5C114.84,92.33,114.63,93.91,114.33,95.16z"/>
			<path class="st10" d="M128.98,89.84c-0.18-0.21-0.45-0.3-0.73-0.29c-0.04-0.25-0.18-0.49-0.47-0.65
				c-0.93-0.55-2.1-0.44-2.97,0.17c-0.83,0.58-1.38,1.47-1.85,2.35c-0.97,1.83-1.71,4.04-1.23,6.12c0.41,1.8,2.1,3.43,4.04,3.23
				c2.17-0.22,3.27-2.23,3.83-4.12C130.28,94.35,130.62,91.82,128.98,89.84z M127.94,95.16c-0.29,1.2-0.63,2.87-1.85,3.48
				c-0.93,0.47-1.91-0.26-2.28-1.12c-0.56-1.3-0.07-2.91,0.43-4.14c0.28-0.68,1.4-3.41,2.53-2.74c0.19,0.11,0.37,0.14,0.55,0.13
				c0.04,0.18,0.11,0.35,0.24,0.5C128.45,92.33,128.24,93.91,127.94,95.16z"/>
		</g>
	</g>
	<g>
		<g>
			<g>
				<path class="st59" d="M87.03,196.99c-3.25-2.62-7.04-3.82-11.14-4.33c-4.56-0.56-9.14-0.98-13.71-1.46
					c-0.6-0.06-1.07,0.11-1.43,0.41c-0.65-0.13-1.36,0.04-1.91,0.7c-1.02,1.24-1.29,2.75-1.43,4.3c-0.15,1.64-0.34,2.6-1.7,3.61
					c-1.09,0.81-2.58,1.43-3.18,2.72c-2.36,0.3-6.35,0.62-6.42-1.14c-0.03-0.75-0.83-1.25-1.5-0.86c-1.76,1.01-6.08,4.15-3.69,6.42
					c1.18,1.12,3.21,1.69,4.67,2.33c1.72,0.75,3.46,1.47,5.23,2.08c5.09,1.75,10.59,2.61,15.82,1.58c0.65,0.28,1.29,0.58,1.95,0.84
					c6.99-1.85,13.91-3.99,20.26-7.38c1.29-1.11,2.55-2.26,3.77-3.47C91.09,200.95,89.24,198.77,87.03,196.99z"/>
				<path class="st6" d="M88.58,165.02c-0.24-2.23-1.17-4.13-3.56-4.59c-0.92-0.18-1.84-0.09-2.75,0.06
					c-0.53,0.09-1.64,0.44-2.13,0.12c-0.23-0.15-0.49-1.24-0.76-1.69c-0.57-0.97-1.6-1.63-2.73-1.65c-2.41-0.05-4.31,2.13-5.98,3.58
					c-0.75,0.66-3.77,2.91-4.48,0.99c-0.89-2.4-4.71-1.21-3.81,1.22c0.07,0.19,0.15,0.36,0.24,0.54c-0.74,0.07-1.43,0.53-1.64,1.48
					c-1.73,7.76,1.58,16.06,7.97,20.65c-0.44,0.95-0.69,1.96-0.55,3.07c0.22,1.72,1.54,3.24,3.24,3.64c3.62,0.85,4.62-2.6,4.76-5.65
					c2.98,0.4,6.12-0.25,8.42-2.24c3.38-2.92,3.71-7.94,3.94-12.09C88.9,169.99,88.85,167.49,88.58,165.02z"/>
				<path class="st9" d="M69.93,176.28c-0.36-1.95-1.95-3.65-3.91-4.05c-1.17-0.24-2.46-0.06-3.46,0.63
					c-0.94,0.65-1.75,1.71-1.88,2.87c-0.06,0.55-0.05,1.04,0.26,1.53c0.2,0.32,0.55,0.61,0.93,0.77c0.2,0.77,0.58,1.49,1.12,2.07
					c0.78,0.83,2.02,1.17,3.13,1.04c1.08-0.12,2.34-0.38,3.13-1.18C70.21,178.98,70.16,177.53,69.93,176.28z"/>
				<path class="st9" d="M89.33,175.36c-0.08-0.3-0.22-0.58-0.41-0.82c0-0.71-0.34-1.41-1.03-1.76c-1.14-0.57-2.48-0.48-3.55,0.19
					c-0.78,0.49-1.39,1.28-1.76,2.11c-0.75,1.67-0.9,3.56-0.35,5.31c0.14,0.45,0.34,0.89,0.56,1.3c0.59,1.08,1.92,1.22,2.93,0.74
					c0.8-0.37,1.38-1.13,1.91-1.82c0.51-0.66,0.99-1.35,1.3-2.13C89.31,177.51,89.6,176.42,89.33,175.36z"/>
				<path class="st4" d="M75.62,177.36c-0.1-0.27-0.29-0.53-0.56-0.67c-0.37-0.19-0.8-0.18-1.17,0c-0.01-0.01-0.01-0.03-0.02-0.04
					c-0.07-0.11-0.16-0.2-0.27-0.27c-0.1-0.08-0.22-0.14-0.35-0.17c-0.24-0.06-0.56-0.01-0.77,0.13c-0.21,0.15-0.39,0.36-0.44,0.62
					l-0.03,0.27c0.01,0.18,0.06,0.35,0.16,0.5c0.15,0.31,0.3,0.63,0.44,0.94c0.09,0.2,0.21,0.38,0.38,0.52
					c0.27,0.22,0.62,0.37,0.98,0.34c0.51-0.05,0.96-0.34,1.26-0.74c0.08-0.11,0.17-0.22,0.24-0.34c0.02-0.03,0.03-0.06,0.04-0.09
					c0.05-0.11,0.1-0.22,0.12-0.34C75.69,177.8,75.69,177.57,75.62,177.36z"/>
				<path class="st15" d="M88.65,160.74c0,0.16,0.02,0.32,0.05,0.48c0.11,0.49,0.22,0.99,0.33,1.49c0.06-0.06,0.12-0.12,0.19-0.17
					c0.96-0.66,2.01-1.13,3.11-1.5c0.13-0.04,0.26-0.08,0.39-0.12c-0.07-0.31-0.14-0.62-0.21-0.92c-0.06-0.26-0.16-0.47-0.28-0.65
					c1.08-0.67,1.98-1.57,2.45-2.78c0.88-2.28-0.05-5.25-2.61-5.89c-1.25-0.32-2.55,0.27-3.75-0.09c-1.11-0.33-2.03-1.28-2.89-2.01
					c-2.13-1.79-4.55-3.07-7.33-3.52c-3.01-0.48-6.09-0.14-8.94,0.95c-1.43,0.55-2.82,1.26-4.11,2.09
					c-0.69,0.45-1.35,0.93-1.99,1.45c-0.24,0.19-0.47,0.39-0.71,0.59c-0.11,0.1-0.23,0.19-0.34,0.29c-1.22-0.81-2.93-0.68-4.19,0.16
					c-1.18,0.79-1.71,2.05-1.96,3.39c-0.67-0.4-1.43-0.68-2.11-0.83c-2.12-0.46-4.23,0.34-5.26,2.3c-0.98,1.88-0.85,4.13-0.78,6.18
					l0.23,6.68c-2.46-2.17-5.2-4.17-8.47-4.67c-1.87-0.29-3.89-0.04-5.36,1.25c-1.34,1.19-1.94,2.97-2.1,4.71
					c-0.22,2.33,0.26,4.66,1.02,6.86c0.37,1.07,0.86,2.09,1.26,3.14c0.17,0.46,0.39,0.9,0.03,1.28c-0.31,0.33-1,0.47-1.41,0.69
					c-3.34,1.77-4.48,5.68-1.84,8.6c0.56,0.62,1.22,1.13,1.91,1.59c0.79,0.53,1.8,0.88,2.48,1.54c1.37,1.33-0.52,3.52,1.08,4.96
					c1.52,1.38,4.09,0.67,5.87,0.33c1.09-0.21,2.23-0.43,3.34-0.2c1.18,0.24,1.82,1.03,2.46,1.98c1,1.49,2.1,2.82,4.01,3
					c1.73,0.17,3.38-0.72,4.19-2.25c0.98-1.85,0.25-3.66-0.46-5.46c-0.5-1.28-1.02-2.65-1.18-4.04c0.82-0.24,1.63-0.83,2.23-1.41
					c0.43-0.41,0.82-0.85,1.25-1.26c0.01-0.01,0.03-0.03,0.05-0.04l0,0c0.09,0.04,0.18,0.07,0.29,0.11c2.13,0.77,4.76,0.81,6.86-0.1
					c1.54-0.67,2.51-2.09,2.11-3.81c-0.31-1.33-1.35-2.24-2.54-2.8c-1.65-0.77-3.28-1.56-4.87-2.43c0.26-1.17,0.46-2.36,0.6-3.52
					c0.55-4.43,0.27-8.9-0.81-13.22c1.28-0.56,2.36-1.51,3.32-2.54c0.6-0.65,1.2-1.43,1.87-2.11c0.9,1.25,2.33,2.13,3.92,2.21
					c1.42,0.07,2.67-0.57,3.87-1.27c1.37-0.8,2.73-1.64,4.1-2.44c0.71-0.41,2.14-1.34,2.97-0.7c0.29,0.22,0.44,0.82,0.58,1.13
					c0.31,0.7,0.64,1.35,1.17,1.91C83.56,161.26,86.26,161.28,88.65,160.74z"/>
				<path class="st15" d="M65.87,133.97c-0.75-0.4-1.85-0.27-2.41,0.41c-0.75,0.92-1.33,1.92-1.77,2.97
					c-0.19-0.37-0.4-0.74-0.64-1.06c-1-1.3-2.61-1.86-4.1-0.98c-1.11,0.66-1.83,1.95-2.13,3.16c-0.01,0.04-0.01,0.09-0.02,0.13
					c-0.47-0.3-0.99-0.53-1.57-0.59c-1.51-0.17-2.82,0.8-3.23,2.24c-0.31,1.11-0.06,2.3,0.33,3.35c0.8,2.18,2.05,4.13,3.66,5.81
					c1.83,1.9,4.1,3.26,6.58,4.11c0.6,0.21,1.24-0.01,1.72-0.42c0.43,0.37,1.01,0.55,1.61,0.43c0.92-0.18,1.75-1.03,1.65-2.03
					c-0.05-0.51-0.12-1.02-0.18-1.52c0.14-0.2,0.24-0.43,0.26-0.68c0.41-4.37,0.82-8.74,1.24-13.11
					C66.96,135.29,66.72,134.43,65.87,133.97z M60.06,144.22c-0.22-0.3-0.44-0.59-0.67-0.88c-0.08-0.1-0.17-0.2-0.26-0.3
					c-0.21-0.67-0.38-1.35-0.45-1.92c-0.03-0.26-0.04-0.52-0.05-0.78c0,0.01,0.01,0.02,0.01,0.03c0.51,1.2,0.96,2.42,1.35,3.66
					C60.02,144.08,60.04,144.15,60.06,144.22z"/>
				<path class="st15" d="M96.67,193.11c-0.87-0.67-2.99-1.79-2.55-3.07c0.23-0.68,1.01-1.36,1.47-1.88c0.54-0.6,1.1-1.18,1.61-1.81
					c2.53-3.11,3.1-7.18,2.09-11c-1.03-3.93-3.46-7.22-5.89-10.4c-0.91-1.19-2.34-0.85-3.08,0.05c-0.7,0.17-1.27,0.7-1.32,1.65
					c-0.35,6.69-0.68,14.38-5.7,19.45c-0.93,0.94-2.02,1.74-3.21,2.31c-1.75,0.84-3.12,2.15-2.41,4.27
					c0.05,0.16,0.12,0.31,0.19,0.46c2.61,0.88,5.17,1.68,7.37,3.52c0.92,0.77,1.7,1.65,2.39,2.58c0.57,0.28,1.12,0.6,1.63,0.98
					c0.44,0.33,0.84,0.69,1.18,1.14c0.49,0.66,0.69,1.47,1.18,2.13c0.12,0.16,0.25,0.3,0.38,0.43c2.6-2.51,5.05-5.21,7.36-8.02
					C98.65,194.83,97.67,193.87,96.67,193.11z"/>
				<path class="st10" d="M90.6,164.64c0.31-1.25-1.68-1.46-1.99-0.23c-1.77,7.23,1.36,20.01-8.74,22.07
					c-7.64,1.56-15.94-3.59-18.84-10.6c-0.13-0.32-0.36-0.48-0.61-0.55c-0.06,0.67-0.18,1.32-0.42,2.02
					c-0.07,0.2-0.14,0.39-0.22,0.58c2.84,5.6,8.53,9.56,14.72,10.57c3.24,0.53,6.73,0.2,9.56-1.56c2.97-1.85,4.49-5.08,5.18-8.4
					C90.19,173.97,89.49,169.21,90.6,164.64z"/>
				<path class="st10" d="M60.8,165.36c-0.12-1.28-2.1-0.97-1.98,0.31c0.41,4.26,0.82,8.58,0.15,12.84
					c-0.29,1.86-0.71,3.99-1.94,5.49c-1.17,1.44-3.04,2.11-4.33,3.43c-2.22,2.27-1.68,4.8,0.12,7.09c0.73,0.93,1.86,2,1.8,3.28
					c-0.08,1.73-2.15,2.72-3.49,3.37c-1.15,0.56-0.35,2.4,0.81,1.83c2.69-1.31,5.75-3.62,4.32-7c-0.53-1.26-1.54-2.22-2.32-3.31
					c-1.19-1.66-0.8-3.14,0.81-4.42c1.53-1.21,3.27-2.01,4.34-3.72c1-1.6,1.46-3.5,1.79-5.34C61.69,174.64,61.24,169.95,60.8,165.36
					z"/>
				<path class="st10" d="M63.35,159.07c-0.51-0.18-1.1,0.03-1.3,0.55c-0.11,0.28-0.23,0.55-0.37,0.82
					c-0.03,0.06-0.07,0.13-0.1,0.19c0.1-0.2-0.03,0.05-0.04,0.07c-0.07,0.12-0.15,0.24-0.23,0.36c-0.16,0.25-0.34,0.49-0.53,0.72
					c-0.09,0.11-0.18,0.22-0.28,0.32c-0.05,0.05-0.1,0.1-0.14,0.16c-0.02,0.02-0.02,0.02-0.03,0.03c-0.01,0.01-0.01,0.01-0.03,0.03
					c-0.42,0.41-0.87,0.78-1.35,1.1c-0.06,0.04-0.12,0.08-0.18,0.12c-0.02,0.01-0.02,0.02-0.03,0.02c-0.01,0.01-0.02,0.01-0.04,0.02
					c-0.12,0.07-0.25,0.14-0.37,0.2c-0.28,0.14-0.56,0.27-0.86,0.38c-0.49,0.19-0.74,0.85-0.51,1.32c0.25,0.5,0.8,0.72,1.32,0.51
					c2.55-0.99,4.63-3.09,5.63-5.63C64.09,159.89,63.86,159.25,63.35,159.07z"/>
				<path class="st10" d="M88.78,160.2c-2.18,0.82-4.4-0.43-6.29-1.44c-1.82-0.98-3.71-1.95-5.83-1.88c-1.94,0.06-3.65,0.99-5.25,2
					c-0.88,0.55-1.8,1.26-2.85,1.44c-0.75,0.13-1.84-0.06-2.04-0.94c-0.29-1.24-2.27-0.95-1.98,0.31c0.42,1.8,2.15,2.84,3.96,2.66
					c2.45-0.25,4.27-2.3,6.52-3.12c2.8-1.02,5.22,0.64,7.62,1.88c2.17,1.12,4.56,1.82,6.93,0.93
					C90.79,161.57,89.98,159.74,88.78,160.2z"/>
				<path class="st10" d="M95.7,157.38c-0.47-0.16-1.15,0.02-1.3,0.55c-0.08,0.3-0.2,0.57-0.33,0.85c-0.01,0.03-0.01,0.03-0.02,0.04
					c0,0,0,0-0.01,0.01c-0.04,0.06-0.08,0.13-0.12,0.19c-0.08,0.13-0.17,0.25-0.27,0.37c-0.04,0.05-0.08,0.09-0.12,0.14
					c0,0-0.08,0.09-0.11,0.12c-0.04,0.03-0.09,0.08-0.1,0.09c-0.06,0.05-0.11,0.1-0.17,0.15c-0.12,0.1-0.24,0.18-0.37,0.27
					c-0.02,0.01-0.02,0.01-0.02,0.02c-0.01,0.01-0.01,0.01-0.03,0.02c-0.07,0.04-0.13,0.07-0.2,0.11c-1.06,0.52-2.17,0.5-3.23,0
					c-0.47-0.22-1.13,0.06-1.3,0.55c-0.19,0.54,0.05,1.06,0.55,1.3c1.48,0.7,3.32,0.7,4.79-0.03c1.38-0.69,2.49-1.95,2.91-3.45
					C96.4,158.18,96.25,157.58,95.7,157.38z"/>
				<path class="st10" d="M92.24,150.36c-2.43,1.3-4.99,0.01-6.95-1.54c-2.05-1.63-3.85-3.62-6.29-4.69c-4.57-2-10.16,0.45-13,4.24
					c-0.77,1.03,0.83,2.23,1.6,1.2c1.46-1.96,3.56-3.3,5.93-3.88c2.99-0.73,5.39,0.37,7.66,2.26c3.24,2.7,7.29,6.69,11.85,4.25
					C94.17,151.59,93.38,149.75,92.24,150.36z"/>
				<path class="st10" d="M57.23,149.57c-2.08-0.28-3.98,0.46-5.74,1.51c-1.68,0.99-3.5,2.08-4.7,3.64c-1.25,1.62-1.4,3.6-1.24,5.57
					c0.08,1.05,0.52,2.48,0.25,3.5c-0.19,0.7-0.67,0.37-1.19,0.19c-0.71-0.25-1.41-0.51-2.11-0.76c-3.08-1.12-8.07-3.81-10.8-0.61
					c-2.67,3.12-0.9,7.67,0.33,10.99c0.29,0.79,1.25,2.54,0.71,3.29c-0.43,0.59-1.33,0.88-1.9,1.31c-0.55,0.42-1.32,1.16-1.21,1.93
					c0.12,0.87,0.96,1.23,1.73,1.14c0.82-0.09,0.98-0.94,0.65-1.5c0.69-0.62,1.77-0.96,2.34-1.69c0.95-1.21,0.46-2.63,0.01-3.94
					c-0.61-1.79-1.42-3.55-1.81-5.41c-0.34-1.65-0.47-4.2,1.15-5.26c1.39-0.91,3.38-0.1,4.78,0.4c2.05,0.74,4.09,1.61,6.18,2.23
					c4.34,1.27,2.89-4.54,2.83-6.87c-0.07-2.56,1.29-3.99,3.3-5.35c1.84-1.24,3.9-2.65,6.23-2.34
					C58.28,151.73,58.5,149.74,57.23,149.57z"/>
				<path class="st10" d="M65.04,148.89c-1.4-1.24-2.99-2.49-4.96-2.46c-0.95,0.01-1.89,0.3-2.59,0.97
					c-0.74,0.71-1.12,1.62-1.05,2.65c0.04,0.54,0.64,0.91,1.14,0.83c0.57-0.09,0.87-0.6,0.83-1.14c0.01,0.14,0-0.02,0.01-0.08
					c0-0.01,0.01-0.07,0.01-0.11c0.01-0.04,0.05-0.16,0.05-0.16c0.02-0.06,0.05-0.11,0.07-0.16c0.01-0.02,0.02-0.04,0.03-0.05
					c0.05-0.07,0.1-0.14,0.15-0.2c0.02-0.02,0.02-0.03,0.02-0.03c0,0,0,0,0.01-0.01c0.06-0.06,0.13-0.11,0.19-0.17
					c0.17-0.13,0.35-0.23,0.58-0.28c0.36-0.08,0.52-0.08,0.89-0.04c0.55,0.07,1.16,0.32,1.65,0.65c0.63,0.41,1.19,0.91,1.76,1.4
					c0.41,0.36,1.09,0.21,1.4-0.2C65.59,149.83,65.45,149.25,65.04,148.89z"/>
				<path class="st10" d="M58.42,140.42c-1.38-2.92-4.81-7.31-8.46-5.17c-1.65,0.96-2.41,2.8-2.36,4.66
					c0.05,1.96,0.99,3.75,2.08,5.33c1.2,1.74,2.72,3.26,4.44,4.49c1.05,0.75,2.25-0.85,1.2-1.6c-1.56-1.12-2.91-2.47-4.01-4.04
					c-1.01-1.45-1.95-3.21-1.66-5.04c0.24-1.51,1.71-2.93,3.28-2.13c1.64,0.84,2.91,2.7,3.67,4.32
					C57.14,142.39,58.97,141.59,58.42,140.42z"/>
				<path class="st10" d="M62.1,135.09c-1.01-1.32-2.45-2.52-4.08-2.97c-1.55-0.43-3.44-0.26-4.4,1.2c-0.71,1.07,0.89,2.27,1.6,1.2
					c0.62-0.93,1.96-0.66,2.82-0.26c1.22,0.56,2.19,1.55,2.91,2.67c1.72,2.69,1.7,6.05,1.33,9.11c-0.16,1.28,1.83,1.51,1.99,0.23
					C64.74,142.43,64.54,138.28,62.1,135.09z"/>
				<path class="st10" d="M68.2,135.43c-0.08-0.68-0.28-1.36-0.76-1.86c-0.57-0.6-1.38-0.79-2.18-0.76
					c-1.41,0.04-2.78,0.62-3.86,1.53c-0.99,0.83,0.26,2.4,1.24,1.57c0.75-0.63,1.75-1.12,2.76-1.11c0.38,0,0.64,0.08,0.75,0.47
					c0.15,0.52,0.15,1.12,0.17,1.66c0.12,2.54-0.3,5.1-1.17,7.48c-0.44,1.21,1.41,1.96,1.86,0.75
					C68.12,142.06,68.6,138.68,68.2,135.43z"/>
				<path class="st10" d="M67.88,185.63c-0.58-0.04-0.99,0.33-1.11,0.88c-0.08,0.37-0.16,0.74-0.25,1.11c0,0.02-0.01,0.03-0.01,0.04
					c0,0.01-0.01,0.02-0.01,0.04c-0.02,0.08-0.04,0.17-0.07,0.25c-0.05,0.18-0.1,0.37-0.15,0.55c-0.21,0.72-0.44,1.43-0.7,2.13
					c-0.18,0.49,0.03,1.12,0.55,1.3c0.5,0.18,1.11-0.03,1.3-0.55c0.56-1.51,0.99-3.07,1.32-4.64
					C68.86,186.22,68.38,185.67,67.88,185.63z"/>
				<path class="st10" d="M75.74,192.97c0.08-0.01,0.15-0.01,0.23,0c0.22,0.01,0.43,0.04,0.64,0.09c0.08,0.02,0.15,0.04,0.23,0.07
					c0.15,0.06,0.29,0.12,0.43,0.18c0-0.12-0.02-0.23-0.06-0.36c0.06,0.21-0.04-0.15-0.05-0.18c-0.02-0.09-0.05-0.17-0.07-0.26
					c-0.05-0.2-0.1-0.41-0.14-0.61c-0.08-0.38-0.15-0.76-0.2-1.15c-0.05-0.38-0.1-0.77-0.12-1.16c-0.01-0.21-0.02-0.42-0.03-0.63
					c0-0.03,0-0.04,0-0.05c0-0.01,0-0.02,0-0.04c0-0.12,0-0.24,0-0.36c0-0.52-0.3-1.07-0.88-1.11c-0.49-0.03-1.1,0.32-1.11,0.88
					c-0.01,1.62,0.19,3.19,0.59,4.75C75.38,193.02,75.56,192.99,75.74,192.97z"/>
				<path class="st10" d="M77.84,191.64c-4.49,0.91-9.11,0.32-13.23-1.68c-1.16-0.56-1.9,1.3-0.75,1.86
					c4.41,2.14,9.48,2.77,14.29,1.8C79.41,193.37,79.11,191.39,77.84,191.64z"/>
				<path class="st10" d="M42.74,196.73c-2.43,0.41-6.18,2.49-8.05-0.23c-0.93-1.35,0.04-3.02,0.42-4.4
					c0.29-1.09,0.43-2.3,0.01-3.37c-1.04-2.66-5.02-2.68-7.4-2.74c-1.28-0.03-1.52,1.95-0.23,1.99c1.44,0.04,2.91,0.16,4.31,0.51
					c1.26,0.31,1.71,1.03,1.55,2.3c-0.16,1.25-0.79,2.38-0.98,3.63c-0.18,1.19,0.05,2.35,0.76,3.33c1.37,1.9,3.87,2.34,6.05,1.98
					c1.27-0.21,2.45-0.73,3.71-0.98c0.89-0.17,2.77-0.12,2.7,1.23c-0.07,1.28,1.92,1.52,1.99,0.23
					C47.71,197.56,45.03,196.35,42.74,196.73z"/>
				<path class="st10" d="M98.43,184.57c-0.71,1.54-2.05,2.51-3.29,3.59c-0.98,0.85-2.29,1.94-2.2,3.37
					c0.08,1.35,1.39,2.39,2.36,3.17c0.64,0.52,1.32,0.96,2.03,1.36c0.1,0.06,0.78,0.42,1.26,0.78c0.44-0.53,0.88-1.05,1.31-1.59
					c-0.82-0.65-1.91-1.06-2.71-1.62c-0.69-0.49-2.49-1.59-2.07-2.65c0.27-0.69,1.34-1.33,1.88-1.79c1.33-1.13,2.54-2.27,3.28-3.88
					c3.25-7.12-2.93-13.76-5.67-19.82c-0.53-1.17-2.36-0.37-1.83,0.81C95.23,171.72,101.38,178.19,98.43,184.57z"/>
				<path class="st10" d="M63.93,190.7c-0.08-0.54-0.61-0.91-1.14-0.83c-2.86,0.4-5.59,1.59-7.82,3.42c-0.42,0.34-0.5,0.98-0.16,1.4
					c0.33,0.42,0.99,0.5,1.41,0.16c1.99-1.64,4.34-2.66,6.88-3.01C63.63,191.77,64.01,191.23,63.93,190.7z"/>
				<path class="st10" d="M79.01,193.73c-2.32,1.99-5.43,2.16-8.34,1.86c-2.61-0.27-6.56-0.44-7.76-3.26
					c-0.5-1.18-2.34-0.38-1.83,0.81c1.49,3.51,5.7,4.03,9.04,4.41c3.52,0.4,7.33,0.17,10.13-2.25
					C81.23,194.46,79.99,192.89,79.01,193.73z"/>
				<path class="st10" d="M81.15,194.92c4.24,2.24,7.62,5.84,9.74,10.07c0.51-0.47,1.01-0.95,1.51-1.44
					c-2.37-4.41-6.02-8.13-10.5-10.49C80.75,192.47,80.02,194.33,81.15,194.92z"/>
				<path class="st10" d="M77.24,172.09c-0.15-0.33-0.47-0.46-0.81-0.52c-0.18-0.03-0.23-0.08-0.32-0.26
					c-0.12-0.25-0.17-0.47-0.23-0.75c-0.06-0.29-0.09-0.55,0.05-0.82c0.13-0.24-0.05-0.56-0.28-0.65c-0.27-0.11-0.52,0.04-0.65,0.28
					c-0.29,0.55-0.17,1.2-0.01,1.77c0.15,0.52,0.36,1.05,0.87,1.3c0.12,0.06,0.25,0.09,0.39,0.12c0.02,0,0.04,0.01,0.06,0.01
					c-0.02,0.07-0.04,0.09-0.11,0.18c-0.26,0.3-0.7,0.5-1.08,0.51c-0.27,0-0.52,0.15-0.55,0.44c-0.03,0.24,0.17,0.56,0.44,0.55
					c0.62-0.01,1.22-0.19,1.7-0.61C77.13,173.27,77.51,172.66,77.24,172.09z"/>
				<path class="st10" d="M75.76,176.47c-1.39,0.1-2.78-0.16-4.06-0.73c-0.19-0.49-1.03-0.33-0.95,0.27
					c0.11,0.8,0.32,1.59,0.63,2.33c0.16,0.37,0.34,0.73,0.54,1.08c0.2,0.33,0.45,0.65,0.82,0.81c0.8,0.33,1.6-0.18,2.08-0.8
					c0.51-0.68,0.95-1.43,1.41-2.15C76.48,176.88,76.2,176.43,75.76,176.47z M74.23,178.51c-0.2,0.3-0.65,1.01-1.12,0.77
					c-0.22-0.11-0.35-0.41-0.46-0.62c-0.15-0.29-0.29-0.59-0.41-0.89c-0.11-0.29-0.2-0.58-0.28-0.87c0.95,0.34,1.94,0.54,2.95,0.56
					C74.68,177.81,74.46,178.16,74.23,178.51z"/>
				<path class="st10" d="M68.59,167.55c-0.13-0.62-0.61-1.23-1.28-1.26c-0.7-0.03-1.25,0.47-1.49,1.09
					c-0.23,0.61-0.27,1.3-0.21,1.94c0.04,0.39,0.13,0.9,0.4,1.2c0.24,0.43,0.67,0.72,1.2,0.49c0.28-0.12,0.47-0.38,0.63-0.63
					c0.18-0.29,0.34-0.6,0.47-0.92C68.53,168.89,68.72,168.18,68.59,167.55z"/>
				<path class="st10" d="M82.98,167.81c-0.13-0.62-0.61-1.23-1.28-1.26c-0.7-0.03-1.25,0.47-1.49,1.09
					c-0.23,0.61-0.27,1.3-0.21,1.94c0.04,0.39,0.13,0.9,0.4,1.2c0.24,0.43,0.67,0.72,1.2,0.49c0.28-0.12,0.47-0.38,0.63-0.63
					c0.18-0.29,0.34-0.6,0.47-0.92C82.92,169.15,83.11,168.44,82.98,167.81z"/>
				<path class="st10" d="M66.31,167.05c-0.19-0.22-0.47-0.24-0.7-0.08c-0.02,0.01-0.03,0.02-0.05,0.04
					c-0.04,0.02-0.07,0.04-0.11,0.06c-0.04,0.02-0.09,0.04-0.14,0.06c-0.02,0.01-0.04,0.01-0.06,0.02
					c-0.09,0.02-0.17,0.04-0.26,0.05c-0.05,0.01-0.09,0.01-0.14,0.01c-0.02,0-0.04,0-0.06,0c-0.09,0-0.19-0.01-0.28-0.03
					c-0.02,0-0.04-0.01-0.06-0.01c-0.04-0.01-0.08-0.02-0.11-0.04c-0.04-0.01-0.26-0.08-0.27-0.12c0,0.01,0.09,0.06,0.03,0.01
					c-0.02-0.01-0.04-0.02-0.06-0.04c-0.05-0.03-0.09-0.06-0.13-0.1c-0.2-0.16-0.55-0.12-0.7,0.1c-0.16,0.23-0.12,0.52,0.1,0.7
					c0.83,0.67,2.06,0.68,2.93,0.07C66.45,167.61,66.48,167.25,66.31,167.05z"/>
				<path class="st10" d="M66.69,168.19c-0.11-0.22-0.42-0.39-0.66-0.26c-0.18,0.1-0.36,0.19-0.55,0.25
					c-0.02,0.01-0.19,0.05-0.07,0.02c-0.05,0.01-0.11,0.03-0.16,0.04c-0.1,0.02-0.2,0.04-0.3,0.05c-0.1,0.01-0.2,0.03-0.3,0.02
					c-0.03,0-0.06,0-0.07,0c-0.05,0-0.09,0-0.14-0.01c-0.1-0.01-0.2-0.02-0.3-0.04c-0.05-0.01-0.11-0.02-0.16-0.03
					c-0.02-0.01-0.05-0.01-0.07-0.02c-0.25-0.07-0.56,0.01-0.65,0.28c-0.08,0.23,0.01,0.57,0.28,0.65c0.97,0.28,2.03,0.2,2.91-0.3
					C66.66,168.72,66.82,168.45,66.69,168.19z"/>
				<path class="st10" d="M84.72,169.19c-0.06-0.28-0.29-0.44-0.57-0.42c-0.02,0-0.04,0-0.06,0c-0.03,0-0.07,0-0.1,0
					c-0.09,0-0.17-0.02-0.26-0.03c-0.03,0-0.05-0.01-0.08-0.01c0,0,0,0-0.01,0c-0.01,0-0.01,0-0.01,0
					c-0.02-0.01-0.04-0.01-0.06-0.02c-0.09-0.03-0.17-0.06-0.26-0.1c-0.03-0.02-0.07-0.03-0.1-0.05c-0.01-0.01-0.03-0.02-0.04-0.03
					c-0.07-0.05-0.15-0.1-0.21-0.15c-0.03-0.03-0.06-0.05-0.09-0.08c-0.06-0.05-0.01-0.02,0.01,0.01c-0.01-0.02-0.03-0.03-0.04-0.04
					c-0.06-0.07-0.12-0.14-0.18-0.22c-0.15-0.21-0.51-0.25-0.7-0.08c-0.21,0.18-0.24,0.48-0.08,0.7c0.55,0.77,1.5,1.16,2.43,1.09
					C84.57,169.74,84.78,169.44,84.72,169.19z"/>
				<path class="st10" d="M85.11,167.71c-0.05-0.27-0.29-0.46-0.57-0.42c-0.11,0.02-0.21,0.03-0.32,0.04
					c-0.05,0-0.09,0.01-0.14,0.01c-0.02,0-0.02,0-0.03,0c-0.02,0-0.04,0-0.07,0c-0.2,0-0.4-0.02-0.6-0.05
					c-0.1-0.01-0.2-0.03-0.29-0.05c-0.02,0-0.18-0.04-0.07-0.02c-0.04-0.01-0.09-0.02-0.13-0.04c-0.21-0.06-0.41-0.14-0.6-0.23
					c-0.24-0.11-0.56,0.03-0.65,0.28c-0.09,0.27,0.02,0.53,0.28,0.65c0.86,0.4,1.84,0.53,2.78,0.4
					C84.96,168.24,85.17,167.97,85.11,167.71z"/>
				<path class="st10" d="M64.73,173.06c-0.64-0.07-0.75,0.92-0.11,0.99C65.26,174.12,65.37,173.13,64.73,173.06z"/>
				<path class="st10" d="M66.34,173.88c-0.64-0.07-0.75,0.92-0.11,0.99C66.86,174.94,66.98,173.95,66.34,173.88z"/>
				<path class="st10" d="M68.42,172.35c-0.64-0.07-0.75,0.92-0.11,0.99C68.95,173.41,69.06,172.42,68.42,172.35z"/>
				<path class="st10" d="M79.8,172.58c-0.64-0.07-0.75,0.92-0.11,0.99C80.33,173.65,80.44,172.66,79.8,172.58z"/>
				<path class="st10" d="M81.25,174.16c-0.64-0.07-0.75,0.92-0.11,0.99C81.78,175.23,81.89,174.24,81.25,174.16z"/>
				<path class="st10" d="M82.77,172.64c-0.64-0.07-0.75,0.92-0.11,0.99C83.3,173.7,83.41,172.71,82.77,172.64z"/>
				<path class="st10" d="M44.23,201.08c-0.42-0.39-0.99-0.37-1.41,0c-1.3,1.14-2.5,2.39-3.59,3.73c-0.17,0.21-0.29,0.42-0.29,0.71
					c0,0.25,0.11,0.54,0.29,0.71c0.36,0.33,1.06,0.43,1.41,0c1.09-1.34,2.29-2.59,3.59-3.73C44.63,202.15,44.61,201.43,44.23,201.08
					z"/>
			</g>
			<path class="st68" d="M106.35,161.31c2.12,9.46,1.1,19.68-3.63,29.01c-10.8,21.31-36.82,29.83-58.13,19.03
				c-21.31-10.8-29.83-36.82-19.03-58.13c10.8-21.31,36.82-29.83,58.13-19.03c11,5.57,18.79,15.67,22.08,26.62"/>
		</g>
		<g>
			<path class="st30" d="M143.17,194.54c-0.15-1.63-0.11-3.49-1.8-4.28c-3.31-1.54-7.66-1.04-11.18-0.83
				c-7.98,0.46-17.96,0.61-25.95,0.33c-3.84-0.13-7.69-0.58-11.53-0.57c-3.08,0.01-7.36,1.13-7.75,4.78c0,0.03,0.01,0.06,0,0.1
				c-0.79,4.47-1.12,9-0.98,13.54c0.06,2.02,0.02,4.24,0.67,6.17c0.68,2,2.38,2.87,4.27,3.51c6.45,2.2,13.37,1.18,20.09,1.65
				c0.06-0.1,0.13-0.18,0.2-0.27c0.41,0.18,0.88,0.23,1.35,0.13c1.07-0.24,2.17-0.17,3.25-0.16c1.26,0.02,2.51-0.03,3.76-0.15
				c2.55-0.23,5.09-0.68,7.61-1.13c0.34-0.06,0.62-0.24,0.85-0.47c2.11-0.11,4.99-0.23,6.58-0.42c2.02-0.24,4.04-0.6,5.99-1.2
				c1.59-0.48,3.47-0.96,4-2.73c0.59-1.95,0.6-4.21,0.72-6.24c0.11-1.8,0.16-3.6,0.15-5.4
				C143.46,198.79,143.36,196.66,143.17,194.54z"/>
			<path class="st10" d="M145.1,193.81c-0.16-1.64-0.31-3.37-1.62-4.55c-1.26-1.13-3.17-1.48-4.79-1.71
				c-2.04-0.3-4.09-0.32-6.14-0.24c-8.79,0.35-19.51,0.76-28.31,0.46c-2.47-0.09-4.94-0.21-7.41-0.37c-2.2-0.14-4.41-0.34-6.6-0.02
				c-3.6,0.53-7.08,2.96-7.28,6.86c0,0,0,0,0,0c-0.76,4.58-1.11,9.22-0.93,13.86c0.15,3.93,0.17,7.44,4.17,9.42
				c3.54,1.75,9.1,1.98,15,1.98c5.63,0,11.68-0.2,11.68-0.23c4.7-0.3,19.2-0.55,22.97-1.25c3.24-0.6,7.81-1.42,8.76-5.12
				c0.5-1.94,0.57-4.09,0.71-6.08c0.14-2.12,0.2-4.25,0.17-6.38C145.44,198.21,145.32,196.01,145.1,193.81z M143.33,206.32
				c-0.13,2.02-0.13,4.29-0.72,6.24c-0.53,1.77-2.41,2.25-4,2.73c-1.95,0.59-3.97,0.96-5.99,1.2c-1.98,0.24-5.97,0.37-7.96,0.5
				c-1.07,0.07-11.75,0.26-12.82,0.35c-0.37,0.03-0.77,0.05-1.16,0.09c0,0,0,0.01,0.01,0.01c-6.76-0.06-16.18,0.95-21.85-0.99
				c-1.89-0.65-3.49-0.65-4.17-2.66c-0.65-1.93-0.61-4.16-0.67-6.17c-0.14-4.54,0.2-9.07,0.98-13.54c0.01-0.04,0-0.06,0-0.1
				c0.39-3.65,4.67-4.77,7.75-4.78c3.84-0.01,7.69,0.43,11.53,0.57c7.99,0.27,17.97,0.13,25.95-0.33c3.52-0.21,7.87-0.71,11.18,0.83
				c1.69,0.79,1.65,2.65,1.8,4.28c0.19,2.12,0.29,4.25,0.31,6.37C143.49,202.72,143.44,204.52,143.33,206.32z"/>
			<g>
				<path class="st4" d="M112.58,206.64c-0.03-2.84-0.12-5.68-0.28-8.52c-0.07-1.25,0.12-3.07-0.64-4.13
					c-0.76-1.06-2.19-1-3.34-1.07c-2.14-0.14-5.1-0.57-6.78,1.16c-0.86,0.88-1.08,2.08-1.13,3.29c-0.05,1.37-0.03,2.76-0.01,4.13
					c0.04,3.19,0.15,6.41,0.51,9.58c0.09,0.82,0.36,1.49,1.11,1.87c0.69,0.35,1.59,0.25,2.35,0.23c0.51,0.11,1.02,0.17,1.48,0.22
					c1.28,0.15,2.6,0.04,3.85-0.27c1.24-0.31,2.4-0.9,2.75-2.26C112.78,209.55,112.59,208,112.58,206.64z"/>
			</g>
			<g>
				<path class="st4" d="M126.47,206.61c-0.03-2.84-0.12-5.68-0.28-8.52c-0.07-1.25,0.12-3.07-0.64-4.13
					c-0.76-1.06-2.19-0.99-3.34-1.07c-2.14-0.14-5.1-0.57-6.78,1.16c-0.86,0.88-1.08,2.08-1.13,3.29c-0.05,1.37-0.03,2.76-0.01,4.13
					c0.04,3.19,0.15,6.41,0.51,9.58c0.09,0.82,0.36,1.49,1.11,1.87c0.69,0.35,1.59,0.25,2.35,0.23c0.51,0.11,1.02,0.17,1.48,0.22
					c1.28,0.15,2.6,0.04,3.85-0.27c1.24-0.31,2.4-0.9,2.75-2.26C126.67,209.52,126.48,207.96,126.47,206.61z"/>
			</g>
			<g>
				<path class="st4" d="M140.4,206.4c-0.03-2.84-0.12-5.68-0.28-8.52c-0.07-1.25,0.12-3.07-0.64-4.13c-0.76-1.06-2.19-1-3.34-1.07
					c-2.14-0.14-5.1-0.57-6.78,1.16c-0.86,0.88-1.08,2.08-1.13,3.29c-0.05,1.37-0.03,2.76-0.01,4.13c0.04,3.19,0.15,6.41,0.51,9.58
					c0.09,0.82,0.36,1.49,1.11,1.87c0.69,0.35,1.59,0.25,2.35,0.23c0.51,0.11,1.02,0.17,1.48,0.22c1.28,0.15,2.6,0.04,3.85-0.27
					c1.24-0.31,2.4-0.9,2.75-2.26C140.6,209.31,140.41,207.75,140.4,206.4z"/>
			</g>
			<g>
				<path class="st4" d="M98.69,206.68c-0.03-2.84-0.12-5.68-0.28-8.52c-0.07-1.25,0.12-3.07-0.64-4.13c-0.76-1.06-2.19-1-3.34-1.07
					c-2.14-0.14-5.1-0.57-6.78,1.16c-0.86,0.88-1.08,2.08-1.13,3.29c-0.05,1.37-0.03,2.76-0.01,4.13c0.04,3.19,0.15,6.41,0.51,9.58
					c0.09,0.82,0.36,1.49,1.11,1.87c0.69,0.35,1.59,0.25,2.35,0.23c0.51,0.11,1.02,0.17,1.48,0.22c1.28,0.15,2.6,0.04,3.85-0.27
					c1.24-0.31,2.4-0.9,2.75-2.26C98.89,209.59,98.7,208.03,98.69,206.68z"/>
			</g>
			<path class="st10" d="M129.59,181.39c-0.15-1.4,0.02-3.73-1.79-4.3c-1.01-0.32-2.26-0.31-3.32-0.41
				c-1.14-0.11-2.28-0.2-3.42-0.27c-2.53-0.16-5.06-0.23-7.6-0.22c-2.53,0.01-5.07,0.12-7.6,0.31c-1.96,0.15-4.37,0.1-6.19,0.84
				c-1.79,0.74-2.21,2.35-2.5,3.95c-0.4,2.19-0.53,4.4-0.39,6.62c0.06,1.06,1.75,1.13,1.96,0.23c9.66,1.75,19.57-0.23,29.33,0.37
				c0.24,0.95,1.98,0.89,1.95-0.19C129.98,186.01,129.84,183.7,129.59,181.39z"/>
			<g>
				<path class="st4" d="M109.47,178.6c-0.57-0.15-1.03,0.2-1.22,0.71c-0.46,1.22-0.98,2.42-1.56,3.6c-0.29,0.59-0.6,1.18-0.92,1.76
					c-0.14,0.25-0.28,0.49-0.42,0.74c-0.12-0.22-0.24-0.45-0.36-0.67c-0.31-0.58-0.6-1.16-0.89-1.75c-0.57-1.16-1.09-2.34-1.57-3.55
					c-0.2-0.5-0.68-0.85-1.24-0.69c-0.48,0.14-0.89,0.73-0.69,1.24c0.92,2.3,1.98,4.55,3.18,6.73c0.34,0.61,0.74,1.29,1.52,1.32
					c0.81,0.03,1.17-0.6,1.53-1.21c0.6-1.02,1.16-2.06,1.68-3.12c0.62-1.27,1.17-2.57,1.67-3.89
					C110.37,179.32,109.96,178.73,109.47,178.6z"/>
				<path class="st4" d="M113.78,178.48c-1.29,0.01-1.27,2.01,0.02,2C115.08,180.47,115.07,178.47,113.78,178.48z"/>
				<path class="st4" d="M113.38,181.44c-0.54,0.03-1,0.45-0.99,1.01c0.02,1.62-0.03,3.24-0.15,4.86c-0.04,0.52,0.5,1.02,1.01,0.99
					c0.58-0.03,0.95-0.45,0.99-1.01c0.12-1.62,0.17-3.24,0.15-4.86C114.39,181.91,113.93,181.41,113.38,181.44z"/>
				<path class="st4" d="M125.17,185.42c-1.76,0.22-3.53,0.32-5.3,0.32c0.03-0.03,0.05-0.06,0.08-0.09
					c0.56-0.57,1.12-1.14,1.68-1.71c1.13-1.15,2.26-2.31,3.39-3.46c0.64-0.65,0.12-1.65-0.72-1.7c-2.17-0.14-4.34-0.26-6.51-0.35
					c-0.54-0.02-1,0.49-0.99,1.01c0.01,0.56,0.47,0.97,1.01,0.99c1.41,0.06,2.83,0.15,4.24,0.23c-0.65,0.66-1.3,1.32-1.94,1.98
					c-1.1,1.12-2.33,2.21-3.17,3.55c-0.43,0.68,0.16,1.46,0.88,1.5c2.47,0.13,4.94,0.04,7.39-0.27c0.54-0.07,1-0.42,0.99-1.01
					C126.18,185.92,125.71,185.36,125.17,185.42z"/>
			</g>
		</g>
	</g>
	<g>
		<g>
			<path class="st6" d="M273.76,136.22c3.53,6.23,11.55,7.71,18.08,6.07c3.33-0.83,6.36-3.76,6.78-6.83
				c4.12-0.31,8.64-1.57,9.26-5.42c0.55-3.38-1.71-4.6-4.33-4.66c0.29-2.06,0.39-4.13,0.32-6.28c-0.04-1.35-0.8-2.15-1.76-2.48
				c0.3-2.08-2.25-4.5-4.77-3.13c-4.96,2.7-9.5,2.5-14.84,1.49c-3.05-0.57-6.61-0.45-8.71,2.22
				C270.38,121.56,271.18,131.66,273.76,136.22z"/>
			<path class="st6" d="M284.1,143.61c0.5-0.76,1.37-1.28,2.28-1.35c0.56-1.19,1.98-2,3.28-1.7c1.64,0.38,2.64,1.84,2.4,3.5
				c-0.22,1.51-1.2,2.79-2.49,3.54c-0.21,0.33-0.48,0.62-0.83,0.83c-1.35,0.84-3.26,0.63-4.17-0.78c-0.15-0.24-0.3-0.47-0.46-0.71
				C283.44,145.92,283.42,144.63,284.1,143.61z"/>
			<path class="st7" d="M303.63,113.86c0.11-0.49,0.22-0.98,0.35-1.46c0.2-0.73,0.75-1.16,1.47-1.19c0-0.05,0-0.09,0.01-0.14
				c0.15-0.78,0.96-1.37,1.75-1.2c1.9,0.42,2.29,2.57,2.5,4.24c0.48,0.22,0.86,0.65,0.87,1.21c0.02,1.26-0.02,2.52-0.13,3.77
				c-0.1,1.14-0.21,2.33-0.51,3.43c-0.36,1.34-1.48,2.5-2.98,2.01c-0.15-0.05-0.3-0.12-0.44-0.2c-0.34,0.62-1.34,0.96-1.94,0.57
				c-0.83-0.53-1.3-1.31-1.12-2.32c0-0.02,0.01-0.03,0.01-0.05c-0.41-0.24-0.72-0.64-0.72-1.13c0.01-2.25,0.23-4.48,0.67-6.67
				c0.01-0.12,0.01-0.23,0.02-0.35C303.46,114.19,303.53,114.01,303.63,113.86z"/>
			<path class="st8" d="M273.46,111.8c3.18,2.09,7.31,3.06,11.06,3.36c6.5,0.51,13.09-1.01,18.61-4.45c0.3,0.42,0.8,0.66,1.36,0.68
				c1.27,0.05,2.29-1.03,2.53-2.22c0.26-1.33-0.41-2.54-1.52-3.25c-1.27-0.81-2.9-0.97-4.36-1.17c-1.65-0.23-3.3-0.38-4.93-0.71
				c-1.59-0.32-3.18-0.82-4.49-1.81c-1.32-0.99-2.38-2.25-4-2.76c-1.39-0.44-2.86-0.1-3.83,0.73c-1.19-1-2.71-1.54-4.36-1.19
				c-1.08,0.23-2.05,0.88-2.73,1.74c-0.43-0.26-0.89-0.46-1.4-0.57c-1.95-0.44-3.86,0.6-4.9,2.23
				C268.3,105.81,270.44,109.82,273.46,111.8z"/>
			<path class="st7" d="M301.43,135.97c0.37-0.53,0.78-1.02,1.21-1.49c0.27-0.46,0.51-0.95,0.68-1.45c0.11-0.33,0.53-0.64,0.84-0.75
				c0.35-0.13,0.83-0.12,1.16,0.06c0.34,0.18,0.64,0.47,0.75,0.84l0.08,0.38c0.02,0.27-0.03,0.54-0.15,0.78
				c-0.04,0.11-0.1,0.22-0.14,0.34c0,0,0,0,0,0.01c0.02,0.39-0.08,0.81-0.36,1.11c-0.15,0.14-0.28,0.3-0.43,0.46
				c-0.4,0.62-0.86,1.19-1.39,1.68c-0.29,0.28-0.59,0.48-1.01,0.51c-0.37,0.03-0.83-0.1-1.11-0.36c-0.28-0.26-0.5-0.62-0.51-1.01
				c0.01-0.13,0.01-0.27,0.02-0.4C301.14,136.41,301.25,136.17,301.43,135.97z"/>
			<path class="st76" d="M263.94,162.02c-0.12,3.85,2.97,6.25,6.2,7.62c7.69,3.28,16.83,3.67,25.06,2.72
				c3.85-0.44,7.75-1.33,11.24-3.05c3.4-1.67,6.66-4.79,5.86-8.95c-0.36-1.87-1.58-3.21-3.04-4.35c-1.6-1.25-3.3-2.39-5.05-3.43
				c-3.56-2.12-7.38-3.7-11.35-4.86c-0.93-0.27-1.91,0.43-2.24,1.29c-6.93-0.73-14.05,0.77-20.1,4.3
				C267.27,155.19,264.07,157.96,263.94,162.02z"/>
			<path class="st10" d="M290.78,142.03c0.58,0.05,0.93,0.48,0.95,1.04c0.02,0.38,0.04,0.76,0.07,1.14c0,0.02,0,0.03,0,0.04
				c0,0.01,0,0.02,0,0.04c0.01,0.09,0.02,0.17,0.03,0.26c0.02,0.19,0.04,0.38,0.06,0.57c0.09,0.74,0.21,1.48,0.35,2.21
				c0.1,0.51-0.21,1.1-0.75,1.2c-0.52,0.09-1.09-0.21-1.2-0.75c-0.31-1.58-0.49-3.19-0.57-4.79
				C289.71,142.46,290.27,141.99,290.78,142.03z"/>
			<path class="st10" d="M280.39,147.78c-0.09,0.2,0.06-0.14,0.08-0.17c0.04-0.08,0.07-0.16,0.11-0.25
				c0.08-0.19,0.16-0.39,0.24-0.58c0.14-0.36,0.27-0.73,0.38-1.1c0.11-0.37,0.22-0.75,0.31-1.12c0.05-0.2,0.09-0.41,0.13-0.61
				c0.01-0.02,0.01-0.04,0.01-0.05c0-0.01,0-0.02,0.01-0.04c0.02-0.12,0.04-0.24,0.06-0.35c0.08-0.52,0.47-1.01,1.04-0.95
				c0.49,0.04,1.04,0.49,0.95,1.04c-0.28,1.85-0.83,3.59-1.64,5.27c-0.23,0.47-0.98,0.58-1.38,0.3
				C280.2,148.82,280.15,148.29,280.39,147.78z"/>
			<path class="st10" d="M280.95,147.13c0.8,0.58,1.75,0.66,2.71,0.72c1,0.07,2,0.09,3,0.04c2.02-0.09,4.03-0.52,5.83-1.47
				c1.14-0.6,2.07,1.17,0.93,1.77c-2.13,1.11-4.47,1.58-6.85,1.69c-1.14,0.05-2.28,0.02-3.41-0.07c-1.16-0.1-2.33-0.31-3.29-1.01
				C278.82,148.06,279.9,146.37,280.95,147.13z"/>
			<path class="st10" d="M279.14,148.94c1.49,1.77,4.11,1.77,6.23,1.58c2.8-0.25,5.57-0.89,8.2-1.89c1.2-0.45,2.08,1.34,0.87,1.8
				c-3.04,1.16-6.23,1.91-9.48,2.11c-2.63,0.17-5.54-0.15-7.35-2.3C276.79,149.26,278.31,147.95,279.14,148.94z"/>
			<path class="st10" d="M296.69,147.81c8.2,2.48,15.21,8.17,19.38,15.64c0.63,1.13-1.17,1.99-1.8,0.87
				c-3.92-7.03-10.56-12.31-18.26-14.63C294.78,149.32,295.46,147.44,296.69,147.81z"/>
			<path class="st10" d="M260.87,160.79c4.14-4.85,9-9.36,15.12-11.51c0.51-0.18,1.08-0.06,1.34,0.46c0.22,0.44,0.05,1.16-0.46,1.34
				c-5.79,2.04-10.42,6.25-14.35,10.85C261.69,162.9,260.04,161.77,260.87,160.79z"/>
			<path class="st10" d="M283.52,127.99c1.44-0.51,1.99-2.18,2.39-3.5c0.19-0.62,1.14-0.31,0.95,0.31
				c-0.44,1.46-1.06,2.96-2.34,3.78c0.38,0.26,0.81,0.44,1.27,0.5c0.27,0.04,0.49,0.23,0.48,0.52c-0.01,0.25-0.25,0.51-0.52,0.48
				c-0.96-0.13-1.82-0.55-2.48-1.26C282.99,128.52,283.18,128.12,283.52,127.99z"/>
			<path class="st10" d="M278.61,122.09c0.12-0.71,0.41-1.55,1.02-1.83c0.19-0.09,0.39-0.1,0.58-0.05c0.01,0,0.02-0.01,0.03,0
				c0.69,0.07,1,0.88,1.14,1.59c0.15,0.75,0.11,1.56-0.1,2.29c-0.19,0.65-0.58,1.33-1.21,1.41c-0.63,0.08-1.12-0.5-1.33-1.14
				C278.51,123.64,278.48,122.85,278.61,122.09z"/>
			<path class="st10" d="M293.14,124.54c0.12-0.71,0.41-1.55,1.02-1.83c0.19-0.09,0.39-0.1,0.58-0.05c0.01,0,0.02-0.01,0.03,0
				c0.69,0.07,1,0.88,1.14,1.59c0.15,0.75,0.11,1.56-0.1,2.29c-0.19,0.65-0.58,1.33-1.21,1.41c-0.63,0.08-1.12-0.5-1.33-1.14
				C293.04,126.09,293.01,125.3,293.14,124.54z"/>
			<path class="st10" d="M270.69,128.16c0.44-4.31,2.42-8.51,1.77-12.89c-0.19-1.27,1.76-1.72,1.95-0.45
				c0.65,4.34-1,8.34-1.61,12.58c-0.59,4.08,0.51,7.88,3.53,10.76c6.67,6.38,16.92,3.59,23.28-1.64c0.99-0.82,2.35,0.65,1.35,1.47
				c-5.5,4.52-12.75,7.22-19.82,5.14C274.56,141.18,269.99,135.07,270.69,128.16z"/>
			<path class="st10" d="M295.47,118.12c0.44-0.06,0.89-0.01,1.31,0.15c0.76,0.29,1.35,0.88,1.65,1.64
				c0.04,0.06,0.06,0.12,0.08,0.18c0.01,0.02,0.02,0.04,0.02,0.06c0.04,0.12,0,0.25-0.07,0.36c-0.04,0.09-0.09,0.17-0.16,0.24
				c-0.14,0.14-0.45,0.17-0.61,0.03c-0.22-0.19-0.43-0.38-0.66-0.55c-0.11-0.08-0.22-0.16-0.33-0.23c-0.05-0.03-0.1-0.06-0.15-0.09
				c-0.03-0.02-0.07-0.04-0.1-0.06c-0.06-0.03-0.07-0.04-0.04-0.02c-0.11-0.06-0.24-0.11-0.36-0.15c-0.07-0.02-0.14-0.04-0.21-0.06
				c-0.09-0.03,0.01,0-0.09-0.02c-0.3-0.05-0.46-0.05-0.74,0.02c-0.34,0.08-0.59-0.22-0.6-0.53
				C294.42,118.52,294.98,118.18,295.47,118.12z"/>
			<path class="st10" d="M277.84,116.71c0.36-0.26,0.78-0.43,1.22-0.49c0.81-0.11,1.61,0.13,2.23,0.65
				c0.06,0.03,0.11,0.07,0.15,0.12c0.02,0.02,0.04,0.02,0.05,0.04c0.09,0.09,0.12,0.22,0.11,0.35c0.01,0.1,0,0.19-0.03,0.28
				c-0.06,0.19-0.31,0.37-0.52,0.32c-0.28-0.06-0.56-0.13-0.84-0.17c-0.13-0.02-0.26-0.04-0.4-0.05c-0.06,0-0.11-0.01-0.17-0.01
				c-0.04,0-0.08,0-0.11,0c-0.06,0-0.08,0-0.04,0c-0.13,0-0.26,0.02-0.39,0.04c-0.07,0.01-0.15,0.03-0.22,0.05
				c-0.09,0.02,0.01-0.01-0.09,0.02c-0.29,0.1-0.43,0.18-0.64,0.37c-0.26,0.24-0.63,0.09-0.78-0.18
				C277.1,117.57,277.44,117,277.84,116.71z"/>
			<path class="st10" d="M286.89,96.77c0.54-0.17,1.05,0.32,1.18,0.79c0.62,2.27,2.54,3.8,4.69,4.55c2.56,0.88,5.22,0.59,7.87,0.73
				c2.15,0.12,4.24,0.62,5.88,2.09c1.38,1.24,2.24,3.01,1.89,4.88c-0.24,1.25-2.23,1.12-1.99-0.15c0.4-2.12-1.35-3.8-3.25-4.41
				c-2.47-0.79-5.19-0.31-7.73-0.56c-3.76-0.37-7.43-2.16-8.94-5.67c-2.44,0.92-5.24,2.67-4.29,5.64c0.39,1.23-1.57,1.6-1.96,0.39
				C278.8,100.59,283.37,97.91,286.89,96.77z"/>
			<path class="st10" d="M277.63,98.99c1.45-1.33,3.38-2.02,5.34-2.03c0.54,0,0.96,0.56,0.92,1.07c-0.04,0.57-0.53,0.92-1.07,0.92
				c-1.36,0.01-2.82,0.57-3.89,1.55c-1.08,1-1.73,2.42-1.83,3.87c-0.04,0.54-0.53,0.96-1.07,0.92c-0.54-0.04-0.96-0.53-0.92-1.07
				C275.26,102.24,276.16,100.34,277.63,98.99z"/>
			<path class="st10" d="M276.68,98.42c1.27,0.15,1.14,2.14-0.15,1.99c-3.44-0.4-5.72,5.08-4.58,7.79c1.2,2.88,4.87,4.17,7.6,5.01
				c6.61,2.03,13.87,1.53,20.17-1.29c1.17-0.53,2.06,1.27,0.88,1.8c-7.75,3.47-17.01,3.71-24.81,0.22c-3.3-1.48-6.5-4.09-6.14-8.08
				C269.94,102.48,272.83,97.97,276.68,98.42z"/>
			<path class="st10" d="M302.55,112.34c0.42-0.11,0.84-0.23,1.25-0.36c0.18-0.06,0.35-0.11,0.53-0.17
				c0.04-0.01,0.11-0.04,0.13-0.04c0.11-0.04,0.22-0.08,0.33-0.12c0.79-0.29,1.56-0.61,2.32-0.96c0.47-0.22,1.12-0.04,1.34,0.46
				c0.21,0.49,0.05,1.1-0.46,1.34c-1.62,0.76-3.31,1.37-5.04,1.82c-0.51,0.13-1.1-0.27-1.18-0.79
				C301.67,112.96,302,112.48,302.55,112.34z"/>
			<g>
				<path class="st10" d="M301.3,132.2c0.32-0.46,0.93-0.54,1.39-0.26c1,0.62,1.35,0.56,2.15,0.15c0.98-0.51,1.69-1.65,1.82-2.68
					c0.12-1.03-0.24-2.04-0.95-2.63c-0.76-0.63-1.89-0.78-2.67-0.23c-0.44,0.31-1.03,0.34-1.41-0.1c-0.32-0.38-0.34-1.1,0.1-1.41
					c1.15-0.8,2.6-1.04,3.94-0.55c1.22,0.44,2.21,1.47,2.67,2.67c1.02,2.7-0.42,6.17-3.28,6.97c-1.5,0.42-2.1,0.33-3.5-0.53
					C301.1,133.31,301.01,132.63,301.3,132.2z"/>
				<path class="st10" d="M303.59,127.29c0.17-0.23,0.46-0.27,0.7-0.13c0.73,0.45,1.25,1.25,1.36,2.09
					c0.03,0.26-0.11,0.55-0.39,0.59c-0.25,0.04-0.55-0.12-0.59-0.39c-0.02-0.14-0.05-0.27-0.09-0.41c-0.04-0.11-0.08-0.22-0.14-0.32
					c-0.02-0.03-0.03-0.06-0.05-0.09c-0.01-0.01-0.02-0.04-0.03-0.05c-0.01-0.01-0.02-0.02-0.02-0.03
					c-0.02-0.03-0.05-0.06-0.07-0.09c-0.04-0.05-0.09-0.1-0.13-0.15c-0.02-0.02-0.05-0.05-0.07-0.07c0,0-0.01-0.01-0.01-0.01
					c-0.02-0.01-0.05-0.04-0.06-0.05c-0.03-0.02-0.06-0.05-0.09-0.07c-0.06-0.04-0.12-0.08-0.18-0.12
					C303.5,127.85,303.43,127.5,303.59,127.29z"/>
				<path class="st10" d="M303.5,128.82c0.03-0.08,0.08-0.15,0.14-0.21c0.15-0.13,0.3-0.26,0.45-0.39c0.05-0.05,0.1-0.08,0.17-0.09
					c0.06-0.03,0.13-0.04,0.2-0.03c0.07,0,0.13,0.02,0.19,0.06c0.06,0.02,0.11,0.06,0.15,0.11c0.02,0.04,0.05,0.07,0.07,0.11
					c0.04,0.08,0.06,0.17,0.05,0.26c-0.01,0.04-0.02,0.09-0.03,0.13c-0.03,0.08-0.08,0.15-0.14,0.21c-0.15,0.13-0.3,0.26-0.45,0.39
					c-0.05,0.05-0.1,0.08-0.17,0.09c-0.06,0.03-0.13,0.04-0.2,0.03c-0.07,0-0.13-0.02-0.19-0.06c-0.06-0.02-0.11-0.06-0.15-0.11
					c-0.02-0.04-0.05-0.07-0.07-0.11c-0.04-0.08-0.06-0.17-0.05-0.26C303.48,128.91,303.49,128.87,303.5,128.82z"/>
			</g>
			<path class="st10" d="M308.42,127.1c-0.01-0.05-0.01-0.1-0.03-0.16c-0.05-0.22-0.13-0.44-0.22-0.65
				c-0.09-0.2-0.23-0.39-0.35-0.57c-0.07-0.1-0.17-0.2-0.27-0.28c0.68-0.57,0.95-1.98,1.14-2.74c0.28-1.17,0.37-2.41,0.27-3.61
				c-0.05-0.61,0.45-1.11,0.96-1.18c0.1-1.92-0.28-3.84-1.12-5.59c-0.56-1.16,1.24-2.04,1.8-0.88c1.38,2.89,1.67,6.11,0.9,9.22
				c-0.08,0.31-0.31,0.51-0.58,0.59c-0.07,0.8-0.2,1.59-0.41,2.38c-0.36,1.37-0.88,2.81-2.08,3.62
				C308.43,127.2,308.43,127.15,308.42,127.1z"/>
			<path class="st10" d="M302.77,114.86c0.58,0.04,0.92,0.53,0.92,1.07c0.02,3.13-0.08,6.26-0.31,9.39
				c-0.09,1.28-2.09,1.14-1.99-0.15c0.23-3.12,0.33-6.26,0.31-9.39C301.7,115.24,302.26,114.82,302.77,114.86z"/>
			<path class="st10" d="M298.94,136.99c0.36-0.28,0.7-0.57,1.02-0.9c0.07-0.08,0.15-0.15,0.22-0.23c0.04-0.05,0.08-0.09,0.12-0.14
				c0.15-0.17,0.29-0.35,0.42-0.54c0.26-0.36,0.48-0.74,0.7-1.13c0,0,0,0,0,0c0,0,0,0,0,0c0.02-0.05,0.04-0.09,0.07-0.14
				c0.05-0.1,0.1-0.21,0.14-0.31c0.09-0.22,0.18-0.44,0.26-0.67c0.17-0.49,0.78-0.81,1.28-0.61c0.51,0.21,0.79,0.75,0.61,1.28
				c-0.66,1.93-1.9,3.66-3.52,4.9c-0.42,0.32-1.06,0.34-1.41-0.1C298.52,138,298.49,137.33,298.94,136.99z"/>
			<path class="st10" d="M298.52,138.97c-0.13,0.03,0.17-0.04,0.16-0.04c0.09-0.02,0.17-0.04,0.26-0.07
				c0.19-0.05,0.38-0.11,0.56-0.18c0.19-0.07,0.37-0.14,0.55-0.21c0.08-0.03,0.16-0.07,0.25-0.11c-0.01,0,0.13-0.06,0.17-0.08
				c0.68-0.34,1.32-0.78,1.9-1.27c0.42-0.37,1.02-1.04,1.43-1.6c0.12-0.16,0.37-0.58,0.53-0.88c0.18-0.35,0.34-0.71,0.48-1.08
				c0.19-0.51,0.89-0.67,1.34-0.45c0.52,0.26,0.64,0.83,0.45,1.34c-1.29,3.42-4.39,5.9-7.93,6.62c-0.53,0.11-1.04-0.43-1.07-0.92
				C297.55,139.45,297.99,139.08,298.52,138.97z"/>
			<path class="st10" d="M309.11,110.37c0.13-0.24,0.32-0.39,0.57-0.5c0.87-0.38,1.77-0.64,2.7-0.81c0.24-0.04,0.56,0.09,0.74,0.25
				c0.18,0.16,0.33,0.43,0.34,0.68c0.01,0.26-0.06,0.54-0.25,0.74c-0.06,0.06-0.13,0.11-0.19,0.17c-0.15,0.1-0.31,0.15-0.48,0.17
				c-0.01,0-0.02,0-0.02,0c-0.74,0.16-1.47,0.39-2.17,0.7c-0.23,0.1-0.56,0.06-0.78-0.05c-0.22-0.11-0.43-0.33-0.5-0.57
				C308.98,110.9,308.98,110.61,309.11,110.37z"/>
			<path class="st10" d="M308.62,108.87c0.17-0.12,0.33-0.25,0.48-0.38c0.32-0.29,0.61-0.62,0.87-0.97
				c0.14-0.19,0.45-0.32,0.68-0.34c0.25-0.02,0.55,0.07,0.74,0.25c0.18,0.18,0.33,0.41,0.34,0.68l-0.02,0.27
				c-0.04,0.18-0.11,0.33-0.23,0.47c-0.47,0.66-1.07,1.22-1.74,1.68c-0.21,0.14-0.5,0.2-0.75,0.15c-0.24-0.05-0.51-0.21-0.64-0.42
				c-0.13-0.22-0.21-0.49-0.15-0.75C308.26,109.25,308.39,109.03,308.62,108.87z"/>
			<path class="st10" d="M307.08,109.59c0.07-0.18,0.13-0.36,0.2-0.54c0.25-0.75,0.45-1.51,0.6-2.28c0.1-0.51,0.65-0.92,1.17-0.79
				c0.53,0.13,0.89,0.62,0.79,1.17c-0.22,1.14-0.55,2.25-0.97,3.33c-0.09,0.22-0.35,0.42-0.57,0.5c-0.23,0.08-0.55,0.07-0.78-0.05
				c-0.22-0.12-0.42-0.32-0.5-0.57C306.95,110.1,306.98,109.86,307.08,109.59z"/>
			<path class="st10" d="M283.69,131.62c0.96,0.85,2.15,1.41,3.44,1.55c0.58,0.07,1.2,0.01,1.73-0.26c0.57-0.3,1.04-0.79,1.51-1.22
				c0.2-0.18,0.49-0.23,0.71-0.04c0.19,0.16,0.24,0.52,0.04,0.71c-0.55,0.5-1.1,1.06-1.76,1.42c-0.68,0.36-1.42,0.46-2.18,0.41
				c-1.53-0.11-3-0.8-4.15-1.81C282.55,131.94,283.21,131.19,283.69,131.62z"/>
		</g>
		<path class="st68" d="M318.56,160.95c-7.04,6.67-16.34,11.03-26.77,11.74c-23.83,1.64-44.48-16.35-46.12-40.18
			c-1.64-23.83,16.35-44.48,40.18-46.12c23.83-1.64,44.48,16.35,46.12,40.18c0.85,12.3-3.83,24.17-11.55,32.59"/>
	</g>
	<g>
		<path class="st30" d="M204.85,161.03c-1.89-1.61-4.35-0.64-5.96,0.84c-0.68,0.62-1.26,1.35-1.75,2.14
			c-0.32-0.68-0.66-1.33-1.1-1.94c-1.24-1.75-3.74-3.66-5.7-1.66c-1.56,1.61-0.95,4.25,0.07,5.96c1.11,1.86,2.96,3,4.34,4.62
			c0.22,0.26,0.51,0.46,0.81,0.57c0.3,0.31,0.71,0.51,1.18,0.52c3.62,0.03,7.21-2.27,8.66-5.59
			C206.16,164.76,206.46,162.4,204.85,161.03z"/>
		<path class="st10" d="M207.38,160.49c-1.25-1.83-4.35-1.41-6.14-0.76c-1.42,0.51-2.7,1.38-3.7,2.49c-0.39-1.35-1.08-2.6-2.31-3.38
			c-1.72-1.1-4.19-0.99-5.37,0.84c-1.23,1.92-0.62,4.75,0.11,6.75c0.8,2.19,2.17,4.14,3.94,5.64c0.98,0.83,2.32-0.66,1.33-1.49
			c-2.41-2.03-4.47-5.59-4.02-8.86c0.22-1.57,1.65-2,2.92-1.2c1.42,0.89,1.7,2.88,1.85,4.4c0.09,0.94,1.46,1.32,1.89,0.38
			c0.88-1.93,2.59-3.34,4.64-3.88c0.74-0.19,2.6-0.55,3.17,0.15c0.48,0.59-0.04,1.73-0.32,2.28c-1.98,4.01-5.67,7-9.94,8.26
			c-1.23,0.37-0.59,2.26,0.65,1.89c4.27-1.26,7.97-4.11,10.32-7.89C207.37,164.57,208.57,162.24,207.38,160.49z"/>
	</g>
	<g>
		<path class="st6" d="M188.5,98.62c-0.6,0.08-1.2,0.16-1.8,0.24c-0.1-0.14-0.22-0.26-0.36-0.36c0.16-0.15,0.32-0.29,0.48-0.43
			c1.26-1.08-0.14-2.99-1.54-2.56c-0.05-0.32-0.18-0.62-0.41-0.85c-0.52-0.53-1.22-0.52-1.86-0.26c-1.89,0.78-3.31,2.31-4.5,3.94
			c0.02-0.47-0.34-1.09-0.77-1.27c-2.01-0.87-3.04,0.96-3.79,2.53c-0.8,1.65-1.39,3.38-1.76,5.18c-0.28,1.36,1.1,2.15,2.09,1.83
			c0.14,0.55,0.59,0.99,1.11,1.17c-0.14,0.58,0.05,1.21,0.55,1.58c0.26,0.19,0.6,0.31,0.94,0.32c-0.01,0.5,0.23,1.02,0.61,1.3
			c0.63,0.47,1.43,0.41,2.02-0.11c1.81-1.63,3.61-3.25,5.42-4.88c1.73-1.55,3.69-3.03,4.91-5.04
			C190.39,100.02,189.68,98.46,188.5,98.62z"/>
		<path class="st6" d="M184.35,90.74c-0.64,0.02-1.28,0.05-1.92,0.07c0.66-0.35,0.91-1.24,0.63-1.9c-0.32-0.74-1.04-1.05-1.81-0.91
			c-0.3,0.06-0.61,0.11-0.91,0.17c0.2-0.16,0.39-0.32,0.59-0.47c1.39-1.06-0.39-3.36-1.85-2.44c-0.85,0.54-1.7,1.07-2.54,1.61
			c-0.49,0.31-0.7,0.75-0.72,1.2c-0.22,0.23-0.44,0.48-0.62,0.75c0.62-1.38-0.8-2.61-2.13-2c-2.43,1.1-4.31,3.05-6.08,4.99
			c-1.08,1.18,0.12,2.84,1.33,2.66c-0.11,0.17-0.22,0.35-0.34,0.52c-0.42,0.63-0.17,1.55,0.4,1.98c0.27,0.2,0.55,0.3,0.84,0.31
			c-0.46,1.01-0.56,2.06,0.32,3.14c0.35,0.43,0.99,0.52,1.5,0.41c1.9-0.42,3.1-2.36,4.32-3.72c0.07-0.08,0.14-0.15,0.21-0.23
			c0.36,0.57,1.07,0.95,1.73,0.74c2.97-0.93,5.67-2.37,8.15-4.25C186.54,92.55,185.6,90.69,184.35,90.74z"/>
		<path class="st50" d="M169.18,99.62c0.01-0.85-0.23-1.69-0.52-2.48c-0.3-0.8-0.64-1.63-1.12-2.35c-0.35-0.54-0.82-0.99-1.46-1.15
			c-0.41-0.1-0.82-0.05-1.19,0.11c-0.71-0.03-1.4,0.4-1.59,1.14c-0.39,1.53-0.38,3.17,0.04,4.69c0.24,0.87,0.58,1.74,1.16,2.43
			c0.78,0.94,2.25,1.16,3.26,0.45C168.71,101.79,169.17,100.77,169.18,99.62z"/>
		<path class="st50" d="M177.21,113.83c0.48-1.08,0.23-2.1-0.24-3.14c-0.4-0.87-0.87-1.78-1.61-2.41c-0.41-0.35-0.85-0.61-1.32-0.79
			c-0.77-0.99-1.81-1.66-3.17-1.3c-1.13,0.3-1.95,1.34-1.84,2.53c0.09,0.98,0.64,1.83,1.2,2.61c0.53,0.74,1.1,1.45,1.76,2.09
			c0.68,0.66,1.44,1.39,2.35,1.71C175.45,115.52,176.74,114.9,177.21,113.83z"/>
		<path class="st77" d="M173.24,100.52c0.16-0.55,0.37-1.09,0.62-1.62c-1.04,0.47-2.04,1.09-3.08,1.53c0,0,0-0.01-0.01-0.01
			c-0.08-0.17-0.15-0.34-0.23-0.51c-0.15-0.34-0.3-0.68-0.45-1.01c-0.25-0.56-0.5-1.13-0.76-1.69c-0.61-1.35-1.21-2.71-1.82-4.06
			c-0.41-0.91-1.74-0.13-1.34,0.76c0.81,1.8,1.61,3.61,2.42,5.41c0.43,0.97,0.89,3.16,2.39,2.69c0.76-0.24,1.49-0.77,2.21-1.12
			C173.2,100.78,173.21,100.65,173.24,100.52z"/>
		<path class="st77" d="M167.27,92.21c2.01-1.91,4.06-3.78,6.13-5.63c0.13,0.81,0.09,1.62-0.18,2.45c-0.24,0.76,0.76,1.23,1.29,0.74
			c1.47-1.36,3.12-2.48,4.95-3.3c0.07-0.03,0.93-0.37,1.1-0.57c-0.11,0.29-0.6,1.1-0.66,1.19c-0.6,0.94-1.38,1.77-2.27,2.43
			c-0.79,0.58-0.05,1.92,0.76,1.34c1.3-0.93,2.74-1.59,4.32-1.89c0.11-0.02,0.21-0.03,0.32-0.05c0,0,0,0,0,0.01
			c-0.28,0.24-0.49,0.64-0.74,0.91c-0.61,0.69-1.28,1.32-1.99,1.91c-0.72,0.6,0.19,1.55,0.92,1.22c1.1-0.49,2.3-0.72,3.51-0.63
			c0.89,0.06,0.68,0.44,0.21,0.95c-0.37,0.41-0.79,0.77-1.23,1.11c0.03,0.03,0.08,0.06,0.11,0.1c0.09,0.12,0.16,0.25,0.19,0.38
			c0.26,0.01,0.51,0.11,0.73,0.33c0.06,0.06,0.11,0.14,0.16,0.22c0.9-0.69,1.86-1.56,2.07-2.64c0.37-1.92-1.56-2.17-3.45-1.93
			c1.13-1.24,2-2.68,0.76-3.37c-0.77-0.43-2.01-0.08-2.91,0.21c0.91-1.33,1.34-2.68-0.06-3.19c-0.61-0.22-1.27,0.08-1.83,0.3
			c-0.76,0.31-1.51,0.66-2.23,1.06c-0.77,0.43-1.51,0.93-2.22,1.47c-0.01-0.8-0.16-1.6-0.47-2.37c-0.22-0.54-0.82-0.76-1.28-0.35
			c-2.4,2.12-4.76,4.28-7.08,6.49C165.46,91.8,166.55,92.9,167.27,92.21z"/>
		<path class="st77" d="M169.77,100.51c-0.72,0.41-1.45,0.82-2.17,1.23c-0.33,0.19-0.67,0.38-1,0.57c-0.17,0.09-0.33,0.19-0.5,0.28
			c-0.05,0.03-0.1,0.05-0.14,0.08c-0.63-1.13-1.14-2.37-1.63-3.56c-0.28-0.68-0.54-1.36-0.79-2.05c-0.2-0.55-0.45-1.13-0.59-1.71
			c0.07-0.04,0.13-0.08,0.2-0.12c0.16-0.09,0.32-0.19,0.48-0.28c0.3-0.17,0.59-0.33,0.9-0.49c0.63-0.33,1.27-0.63,1.92-0.92
			c0.38-0.17,0.48-0.71,0.29-1.05c-0.22-0.39-0.67-0.46-1.05-0.29c-0.85,0.38-1.68,0.78-2.49,1.23c-0.64,0.35-1.68,0.74-1.81,1.55
			c-0.07,0.46,0.14,0.92,0.28,1.34c0.13,0.41,0.27,0.81,0.42,1.22c0.3,0.84,0.63,1.67,0.97,2.49c0.34,0.82,0.71,1.63,1.09,2.43
			c0.32,0.67,0.68,1.91,1.58,1.92c0.42,0.01,0.78-0.26,1.14-0.47c0.39-0.22,0.78-0.44,1.17-0.66c0.84-0.47,1.67-0.95,2.51-1.42
			C171.39,101.36,170.63,100.02,169.77,100.51z"/>
		<path class="st77" d="M191.45,98.6c-0.25-1.94-2.16-1.58-3.88-0.76c0.68-1.52,1.06-3.17-0.33-3.44c-0.86-0.17-1.93,0.55-2.7,1.11
			c0.45-1.55,0.44-2.96-1.05-3.02c-0.65-0.02-1.19,0.47-1.65,0.86c-0.63,0.53-1.23,1.1-1.79,1.7c-0.6,0.65-1.15,1.35-1.65,2.08
			c-0.26-0.76-0.65-1.47-1.18-2.1c-0.38-0.45-1.01-0.47-1.33,0.07c-1.62,2.76-3.19,5.55-4.71,8.37c-0.47,0.87,0.9,1.58,1.37,0.71
			c1.32-2.44,2.68-4.86,4.07-7.26c0.38,0.73,0.59,1.51,0.6,2.39c0.01,0.79,1.1,0.94,1.45,0.31c0.97-1.75,2.2-3.33,3.68-4.67
			c0.06-0.06,0.76-0.64,0.87-0.89c-0.01,0.31-0.23,1.23-0.26,1.34c-0.27,1.08-0.76,2.11-1.41,3.02c-0.57,0.8,0.55,1.84,1.14,1.03
			c0.95-1.29,2.11-2.37,3.51-3.14c0.09-0.05,0.19-0.1,0.29-0.15c0,0,0,0,0,0.01c-0.19,0.31-0.27,0.76-0.42,1.1
			c-0.36,0.85-0.8,1.65-1.29,2.43c-0.5,0.79,0.66,1.41,1.26,0.87c0.89-0.81,1.97-1.4,3.14-1.69c0.86-0.22,0.78,0.21,0.5,0.84
			c-0.24,0.52-0.54,1.03-0.86,1.5c-1.36,1.96-3.29,3.46-5.13,4.94c-0.9,0.72-1.79,1.45-2.65,2.22c-0.89,0.8-1.68,1.75-2.58,2.54
			c0,0,0,0-0.01-0.01c-0.12-0.14-0.25-0.27-0.37-0.41c-0.25-0.27-0.5-0.55-0.75-0.82c-0.42-0.46-0.83-0.91-1.25-1.37
			c-1-1.1-1.99-2.19-2.99-3.29c-0.67-0.74-1.7,0.41-1.03,1.14c1.33,1.46,2.66,2.93,3.99,4.39c0.72,0.79,1.83,2.73,3.11,1.81
			c0.65-0.47,1.18-1.2,1.76-1.76c0.7-0.68,1.42-1.34,2.16-1.96c1.17-0.98,2.39-1.91,3.55-2.9c1.17-1,2.3-2.06,3.22-3.31
			C190.59,101.38,191.63,99.95,191.45,98.6z"/>
		<path class="st77" d="M177.51,111.28c-0.56,0.62-1.12,1.23-1.68,1.85c-0.26,0.28-0.52,0.57-0.77,0.85
			c-0.13,0.14-0.26,0.28-0.39,0.43c-0.04,0.04-0.07,0.08-0.11,0.12c-0.95-0.88-1.82-1.9-2.65-2.87c-0.48-0.56-0.94-1.13-1.39-1.7
			c-0.36-0.46-0.78-0.93-1.09-1.44c0.05-0.06,0.1-0.12,0.15-0.18c0.12-0.14,0.25-0.28,0.37-0.41c0.23-0.25,0.46-0.5,0.7-0.74
			c0.5-0.51,1.01-1,1.54-1.47c0.31-0.28,0.23-0.83-0.05-1.09c-0.33-0.31-0.78-0.22-1.09,0.05c-0.69,0.62-1.35,1.27-1.98,1.94
			c-0.5,0.54-1.37,1.22-1.24,2.04c0.07,0.46,0.42,0.83,0.68,1.19c0.25,0.34,0.51,0.69,0.78,1.02c0.55,0.7,1.12,1.39,1.7,2.07
			c0.58,0.67,1.18,1.33,1.79,1.97c0.52,0.54,1.24,1.6,2.1,1.34c0.4-0.13,0.66-0.5,0.94-0.8c0.3-0.33,0.6-0.66,0.9-1
			c0.65-0.71,1.29-1.42,1.94-2.13C179.32,111.58,178.18,110.55,177.51,111.28z"/>
		<path class="st77" d="M188.2,85.73c0.9-1.29,1.8-2.59,2.69-3.88c0.23-0.33,0.03-0.88-0.31-1.04c-0.41-0.2-0.8-0.04-1.04,0.31
			c-0.9,1.29-1.8,2.59-2.69,3.88c-0.23,0.33-0.03,0.88,0.31,1.04C187.57,86.24,187.96,86.08,188.2,85.73z"/>
		<path class="st77" d="M195.09,83.13c-0.33-0.32-0.77-0.24-1.09,0.02l-4.37,3.62c-0.32,0.27-0.25,0.82,0.02,1.09
			c0.33,0.32,0.77,0.24,1.09-0.02l4.37-3.62C195.44,83.95,195.37,83.4,195.09,83.13z"/>
		<path class="st77" d="M196.86,88.43c-0.14-0.43-0.53-0.6-0.95-0.53c-1.41,0.23-2.79,0.62-4.12,1.16
			c-0.37,0.15-0.67,0.53-0.53,0.95c0.12,0.36,0.55,0.69,0.95,0.53c1.32-0.54,2.7-0.93,4.12-1.16
			C196.73,89.31,196.98,88.79,196.86,88.43z"/>
	</g>
	<g>
		<g>
			<path class="st6" d="M175.33,170.75c0.02-0.34,0.01-0.68-0.06-1.01c-0.42-1.93-2.66-3.24-4.38-1.86
				c-0.66,0.53-0.94,1.31-1.19,2.08c-0.25,0.78-0.47,1.58-0.61,2.39c-0.04,0.24-0.07,0.48-0.1,0.73c-0.06,0.15-0.1,0.3-0.12,0.47
				c-0.28,2.7-0.24,5.43,0.15,8.12c0.24,1.69,2.45,2.37,3.54,1.01c0.22-0.27,0.4-0.55,0.56-0.85c0.64-0.29,1.14-0.84,1.43-1.5
				c0.67-1.52,1.04-3.27,1.33-4.9C176.17,173.78,176.19,172.22,175.33,170.75z"/>
			<path class="st44" d="M168.16,174.27c0.09-1-0.43-1.91-1.42-2.2c-0.77-0.22-1.65,0.05-2.14,0.68c-0.58,0.27-1.02,0.8-1.14,1.5
				c-0.39,2.32-0.49,4.69-0.32,7.03c0.07,0.99,1.01,1.73,1.96,1.74c1.03,0.02,1.79-0.7,2.01-1.69
				C167.6,179.01,167.95,176.64,168.16,174.27z"/>
		</g>
		<g>
			<path class="st10" d="M168.99,180.6c0.2-2.11,0.36-4.23,0.47-6.34c0.06-1.13,0.37-2.66-1.08-3c-1.13-0.27-2.35-0.34-3.49-0.5
				c-1.27-0.18-1.64,1.79-0.36,1.97c0.59,0.08,1.19,0.17,1.78,0.25c0.28,0.04,0.56,0.08,0.84,0.12c0.14,0.02,0.28,0.04,0.41,0.06
				c0.01,0.6-0.09,1.24-0.12,1.82c-0.05,0.83-0.1,1.65-0.17,2.47c-0.06,0.82-0.13,1.65-0.21,2.47c-0.04,0.43-0.08,0.86-0.13,1.29
				c-0.02,0.18-0.04,0.36-0.06,0.54c-0.01,0.06-0.01,0.12-0.02,0.18c-0.38-0.03-0.78-0.12-1.13-0.16c-0.37-0.04-0.91-0.02-1.33-0.12
				c-0.02-0.17-0.03-0.34-0.04-0.5c-0.03-0.34-0.05-0.69-0.07-1.04c-0.04-0.73-0.06-1.45-0.06-2.18c0-1.4,0.08-2.79,0.23-4.18
				c0.06-0.54-0.24-1.06-0.8-1.16c-0.5-0.09-1.11,0.26-1.16,0.8c-0.22,2.08-0.3,4.18-0.22,6.27c0.02,0.48,0.05,0.97,0.08,1.45
				c0.04,0.5,0.04,1.06,0.23,1.53c0.44,1.04,1.74,0.97,2.68,1.09c0.92,0.11,2.2,0.51,2.99-0.15
				C169.02,182.93,168.9,181.51,168.99,180.6z"/>
			<path class="st10" d="M176.23,180.37c0.24-0.14,0.49-0.27,0.72-0.41c0.6-0.37,1.11-0.95,1-1.71c-0.12-0.82-0.81-1.32-1.61-1.66
				c0.81-0.87,1.3-1.94,0.83-3.21c-0.39-1.05-1.18-1.44-2.07-1.47c0.37-0.73,0.94-2.32,1.04-3.14c0.15-1.33-0.37-3.03-1.9-3.24
				c-1.45-0.2-2.51,1.29-3.2,2.35c-0.63,0.98-1.47,3.11-2.64,3.54c-1.21,0.44-0.53,2.33,0.68,1.88c1.94-0.71,2.87-3.41,4.03-4.93
				c0.11-0.14,0.63-0.9,0.86-0.87c0.26,0.04,0.2,0.91,0.18,1.04c-0.15,1.3-1.27,3.31-2.02,4.34c-0.67,0.92,0.33,2.07,1.33,1.48
				c0.45-0.26,1.9-1.01,1.89,0.02c-0.01,0.86-1.07,1.42-1.69,1.81c-0.75,0.48-0.43,1.64,0.39,1.81c0.4,0.08,0.8,0.18,1.19,0.32
				c0.05,0.02,0.14,0.07,0.23,0.12c-0.26,0.16-0.54,0.37-0.69,0.46c-0.44,0.25-0.88,0.49-1.32,0.74c-0.56,0.31-0.55,1.2-0.09,1.58
				c0.3,0.24,0.87,0.6,1.34,0.72c-0.23,0.03-0.46,0.05-0.68,0.07c-1.58,0.14-3.15,0.04-4.71-0.25c-1.26-0.24-1.63,1.73-0.36,1.97
				c1.28,0.24,2.58,0.36,3.89,0.35c1.07-0.01,2.32,0,3.3-0.5c0.86-0.44,1.35-1.39,0.93-2.32
				C176.89,180.88,176.58,180.59,176.23,180.37z"/>
		</g>
	</g>
	<g>
		<path class="st30" d="M174.74,60.17c-1.83-2.4-6.47-2.05-9.27-1.18c-2.09,0.65-3.8,1.97-5.08,3.66c-1.28-1.81-2.93-3.3-5.26-3.7
			c-3.88-0.66-6.67,2.18-7.44,5.82c-0.43,2.01,0.24,3.76,1.21,5.5c0.84,1.49,1.72,2.95,2.69,4.36c2.02,2.93,4.4,5.55,7.42,7.47
			c0.87,0.55,1.71,0.32,2.27-0.23c0.42,0.02,0.85-0.06,1.25-0.29c1.36-0.78,2.6-2.12,3.75-3.18c2.47-2.3,4.77-4.86,6.6-7.71
			C174.69,67.89,176.94,63.05,174.74,60.17z"/>
		<path class="st10" d="M177,61.45c-0.94-3.66-4.05-5.23-7.66-4.7c-3.06,0.45-5.85,1.86-8.1,3.93c-1.42-2.16-3.75-3.56-6.42-3.56
			c-3.06,0-5.65,1.81-7.07,4.46c-3.37,6.29,1.07,12.96,5.54,17.26c1.31,1.26,2.67,2.45,4.02,3.66c0.51,0.46,1.12,1.26,1.79,1.49
			c0.69,0.24,1.28-0.12,1.88-0.43c2.92-1.53,5.61-3.45,7.99-5.73c2.28-2.19,4.26-4.66,5.87-7.38
			C176.43,67.76,177.82,64.61,177,61.45z M174.2,67.42c-1.49,3.21-3.74,6.15-6.25,8.62c-1.25,1.23-2.61,2.36-4.04,3.38
			c-0.71,0.5-1.43,0.98-2.17,1.43c-0.46,0.28-1.33,0.93-1.99,1.15c-1.15-0.86-2.2-1.97-3.25-2.92c-1.26-1.14-2.52-2.29-3.66-3.55
			c-2.16-2.41-3.99-5.33-4.22-8.64c-0.2-2.78,1.05-5.88,3.64-7.19c2.81-1.42,6.13-0.18,7.57,2.5c-0.45,0.92,0.93,1.89,1.71,1
			c2.35-2.7,6.26-4.92,9.96-4.57c1.84,0.17,3.09,1.5,3.56,3.24C175.57,63.74,174.99,65.71,174.2,67.42z"/>
	</g>
	<g>
		<path class="st44" d="M211.46,83.85c-0.16-1.25-0.48-2.59-1.98-2.75c-1.02-0.1-1.66,0.26-2.08,0.86
			c-0.55-1.26-2.84-1.04-2.88,0.64c-0.13,4.83-0.05,9.66,0.22,14.48c0.04,0.78,0.65,1.54,1.5,1.5c1.18-0.05,2.48,0.03,3.65-0.2
			c1.67-0.32,1.49-2.11,1.56-3.44c0.13-2.5,0.3-5.01,0.26-7.52C211.69,86.23,211.62,85.04,211.46,83.85z"/>
		<path class="st6" d="M225.33,93.87c-0.36-0.57-0.85-1.09-1.38-1.55c0.94-0.73,1.75-1.62,1.61-2.64c-0.16-1.2-1.12-1.54-2.2-1.58
			c0.24-0.43,0.48-0.86,0.72-1.29c0.56-1,1.28-2.18,0.45-3.27c-0.64-0.84-1.81-0.93-2.77-0.7c-0.22,0.05-0.44,0.14-0.65,0.24
			c0.44-1.62,0.92-3.22,1.19-4.88c0.28-1.7,0.87-5.3-1.02-6.35c-2.13-1.18-3.27,2.01-3.94,3.41c-0.93,1.95-1.82,3.9-3.56,5.27
			c-0.39,0.31-0.54,0.68-0.51,1.03c-0.31,0.24-0.52,0.62-0.51,1.14c0.13,4.84-0.06,9.67-0.56,14.49c-0.09,0.87,0.77,1.42,1.5,1.5
			c3.54,0.38,7.08-0.66,10.37-1.89C225.31,96.31,226.17,95.21,225.33,93.87z"/>
		<g>
			<path class="st10" d="M212.78,85.3c-0.01-0.8-0.02-1.61-0.03-2.41c-0.01-0.55,0.05-1.16-0.25-1.65c-0.67-1.1-2.41-0.75-3.49-0.76
				c-1.57-0.02-3.14-0.04-4.71-0.07c-0.8-0.01-1.1,0.75-0.91,1.34c-0.44,0.07-0.84,0.37-0.88,0.93c-0.32,5.49-0.08,10.98,0.65,16.44
				c0.06,0.42,0.57,0.74,0.96,0.73c1.58-0.04,3.15-0.1,4.73-0.2c1.07-0.07,2.82,0.14,3.52-0.87c0.35-0.5,0.29-1.18,0.3-1.76
				c0.02-0.8,0.04-1.61,0.05-2.41c0.03-1.55,0.05-3.1,0.05-4.65C212.8,88.4,212.8,86.85,212.78,85.3z M209.87,97.58
				c-0.67,0.05-1.35,0.09-2.02,0.13c-0.94,0.05-1.89,0.08-2.83,0.11c-0.63-5.02-0.79-10.09-0.5-15.14c0.01-0.1-0.02-0.18-0.04-0.27
				c1.18,0.02,2.35,0.03,3.53,0.05c0.62,0.01,1.23,0.02,1.85,0.03c0.26,0,0.59,0.07,0.84,0.01c0.02,0,0.03,0,0.04,0.01
				c0,0.01,0,0.02,0.01,0.03c-0.11,0.51,0.02,1.19,0.02,1.72c0.01,0.63,0.01,1.26,0.02,1.9c0.01,1.26,0.01,2.53,0,3.79
				c-0.01,1.21-0.02,2.41-0.04,3.62c-0.01,0.63-0.02,1.26-0.03,1.89c-0.01,0.59-0.15,1.31-0.04,1.89c0,0.05,0,0.1,0,0.15
				C210.47,97.46,210.09,97.57,209.87,97.58z"/>
			<path class="st10" d="M222.49,72.05c-0.37-0.8-0.94-1.68-1.86-1.9c-1.06-0.25-1.79,0.52-2.31,1.33c-1,1.56-1.46,3.39-2.43,4.98
				c-1.04,1.7-2.44,3.17-4.07,4.31c-1.05,0.73-0.05,2.46,1.01,1.73c1.71-1.19,3.18-2.64,4.36-4.37c0.56-0.82,1.03-1.69,1.43-2.6
				c0.42-0.96,0.77-1.96,1.31-2.86c0.1-0.16,0.21-0.31,0.32-0.46c0.03,0.03,0.05,0.05,0.08,0.08c0.18,0.4,0.44,0.76,0.59,1.19
				c0.34,0.93,0.48,1.91,0.48,2.9c0,2.27-0.76,4.46-1.55,6.57c-0.19,0.51,0.21,1.1,0.7,1.23c0.56,0.15,1.04-0.19,1.23-0.7
				C223.15,79.82,224.23,75.77,222.49,72.05z"/>
			<path class="st10" d="M225.65,91.87c0.25-0.27,0.5-0.54,0.74-0.83c0.61-0.75,1.17-1.57,0.9-2.58c-0.33-1.23-1.3-1.68-2.37-1.74
				c0.17-0.28,0.34-0.56,0.49-0.84c0.49-0.91,0.91-1.92,0.45-2.94c-0.9-2-3.28-1.73-4.97-1.12c-1.2,0.43-0.69,2.36,0.53,1.93
				c0.57-0.2,2.97-0.99,2.58,0.44c-0.16,0.58-0.59,1.18-0.9,1.69c-0.35,0.58-0.74,1.14-1.14,1.69c-0.5,0.69,0.34,1.76,1.13,1.47
				c0.45-0.17,2.83-0.84,2.06,0.35c-0.62,0.95-1.56,1.79-2.41,2.53c-0.65,0.57-0.14,1.74,0.71,1.71c0.83-0.03,3.1,0.12,1.86,1.38
				c-0.92,0.93-2.49,1.37-3.7,1.74c-2.77,0.85-5.72,1.11-8.59,0.72c-0.54-0.07-1.07,0.13-1.23,0.7c-0.13,0.47,0.16,1.16,0.7,1.23
				c4.1,0.56,8.22,0.04,12.02-1.61c1.48-0.64,3.28-1.75,3.18-3.6C227.62,92.87,226.72,92.19,225.65,91.87z"/>
		</g>
	</g>
	<g>
		<path class="st10" d="M109.41,197.98c-0.18-0.21-0.45-0.3-0.73-0.29c-0.04-0.25-0.18-0.49-0.47-0.65
			c-0.93-0.55-2.1-0.44-2.97,0.17c-0.83,0.58-1.38,1.47-1.85,2.35c-0.97,1.83-1.71,4.04-1.23,6.12c0.41,1.8,2.1,3.43,4.04,3.23
			c2.17-0.22,3.27-2.23,3.83-4.12C110.71,202.49,111.05,199.97,109.41,197.98z M108.37,203.3c-0.29,1.2-0.63,2.87-1.85,3.48
			c-0.93,0.47-1.91-0.26-2.28-1.12c-0.56-1.3-0.07-2.91,0.43-4.14c0.28-0.68,1.4-3.41,2.53-2.74c0.19,0.11,0.37,0.14,0.55,0.13
			c0.04,0.18,0.11,0.35,0.24,0.5C108.88,200.47,108.67,202.06,108.37,203.3z"/>
		<path class="st10" d="M123.49,197.98c-0.18-0.21-0.45-0.3-0.73-0.29c-0.04-0.25-0.18-0.49-0.47-0.65
			c-0.93-0.55-2.1-0.44-2.97,0.17c-0.83,0.58-1.38,1.47-1.85,2.35c-0.97,1.83-1.71,4.04-1.23,6.12c0.41,1.8,2.1,3.43,4.04,3.23
			c2.17-0.22,3.27-2.23,3.83-4.12C124.79,202.49,125.13,199.97,123.49,197.98z M122.44,203.3c-0.29,1.2-0.63,2.87-1.85,3.48
			c-0.93,0.47-1.91-0.26-2.28-1.12c-0.56-1.3-0.07-2.91,0.43-4.14c0.28-0.68,1.4-3.41,2.53-2.74c0.19,0.11,0.37,0.14,0.55,0.13
			c0.04,0.18,0.11,0.35,0.24,0.5C122.96,200.47,122.75,202.06,122.44,203.3z"/>
		<path class="st10" d="M137.09,197.98c-0.18-0.21-0.45-0.3-0.73-0.29c-0.04-0.25-0.18-0.49-0.47-0.65
			c-0.93-0.55-2.1-0.44-2.97,0.17c-0.83,0.58-1.38,1.47-1.85,2.35c-0.97,1.83-1.71,4.04-1.23,6.12c0.41,1.8,2.1,3.43,4.04,3.23
			c2.17-0.22,3.27-2.23,3.83-4.12C138.4,202.49,138.74,199.97,137.09,197.98z M136.05,203.3c-0.29,1.2-0.63,2.87-1.85,3.48
			c-0.93,0.47-1.91-0.26-2.28-1.12c-0.56-1.3-0.07-2.91,0.43-4.14c0.28-0.68,1.4-3.41,2.53-2.74c0.19,0.11,0.37,0.14,0.55,0.13
			c0.04,0.18,0.11,0.35,0.24,0.5C136.57,200.47,136.36,202.06,136.05,203.3z"/>
	</g>
	<g>
		<path class="st4" d="M194.38,63.18c-0.18-0.17-0.46-0.3-0.71-0.28c-0.26,0.02-0.53,0.1-0.7,0.3c-0.05,0.07-0.1,0.14-0.15,0.2
			c-0.09,0.16-0.13,0.33-0.13,0.51c-0.06,0.69-0.12,1.38-0.18,2.07c-0.02,0.24,0.14,0.54,0.3,0.7c0.18,0.17,0.46,0.3,0.71,0.28
			c0.26-0.02,0.53-0.1,0.7-0.3c0.05-0.07,0.1-0.14,0.15-0.2c0.09-0.16,0.13-0.33,0.13-0.51c0.06-0.69,0.12-1.38,0.18-2.07
			C194.7,63.65,194.55,63.34,194.38,63.18z"/>
		<path class="st4" d="M192.18,66.85c-0.07-0.05-0.14-0.1-0.2-0.15c-0.16-0.09-0.33-0.13-0.51-0.13c-0.5,0.07-1,0.14-1.5,0.21
			c-0.14,0-0.27,0.03-0.38,0.09c-0.12,0.04-0.23,0.11-0.32,0.21c-0.17,0.18-0.3,0.46-0.28,0.71c0.02,0.26,0.1,0.53,0.3,0.7
			c0.07,0.05,0.14,0.1,0.2,0.15c0.16,0.09,0.33,0.13,0.51,0.13c0.5-0.07,1-0.14,1.5-0.21c0.14,0,0.27-0.03,0.38-0.09
			c0.12-0.04,0.23-0.11,0.32-0.21c0.17-0.18,0.3-0.46,0.28-0.71C192.46,67.3,192.38,67.03,192.18,66.85z"/>
		<path class="st4" d="M194.82,70.86c-0.11-0.25-0.18-0.52-0.23-0.79c-0.02-0.24-0.03-0.49,0-0.73c0.02-0.24-0.14-0.54-0.3-0.7
			c-0.18-0.17-0.46-0.3-0.71-0.28c-0.26,0.02-0.53,0.1-0.7,0.3c-0.05,0.07-0.1,0.14-0.15,0.2c-0.09,0.16-0.13,0.33-0.13,0.51
			c-0.04,0.35-0.01,0.7,0.04,1.04c0.05,0.35,0.13,0.68,0.27,1.01c0.03,0.13,0.09,0.24,0.18,0.34c0.07,0.11,0.17,0.19,0.28,0.25
			c0.22,0.12,0.53,0.17,0.77,0.09c0.24-0.08,0.47-0.24,0.59-0.47c0.03-0.08,0.06-0.16,0.1-0.24
			C194.87,71.21,194.87,71.03,194.82,70.86z"/>
		<path class="st4" d="M197.9,67.47c-0.08-0.24-0.24-0.47-0.47-0.59c-0.08-0.03-0.16-0.06-0.24-0.1c-0.15-0.04-0.3-0.04-0.46,0
			c-0.37,0.05-0.75,0.06-1.13,0.03c-0.14,0-0.27,0.03-0.38,0.09c-0.12,0.04-0.23,0.11-0.32,0.21c-0.1,0.09-0.16,0.2-0.2,0.32
			c-0.06,0.12-0.09,0.25-0.08,0.39c0.02,0.26,0.1,0.53,0.3,0.7c0.07,0.05,0.14,0.1,0.2,0.15c0.16,0.09,0.33,0.13,0.51,0.13
			c0.53,0.05,1.06,0,1.58-0.1c0.13-0.03,0.24-0.09,0.34-0.18c0.11-0.07,0.19-0.17,0.25-0.28c0.07-0.12,0.11-0.24,0.11-0.37
			C197.95,67.73,197.94,67.6,197.9,67.47z"/>
	</g>
	<g>
		<path class="st4" d="M171.71,196.07c-0.18-0.17-0.46-0.3-0.71-0.28c-0.26,0.02-0.53,0.1-0.7,0.3c-0.05,0.07-0.1,0.14-0.15,0.2
			c-0.09,0.16-0.13,0.33-0.13,0.51c-0.06,0.69-0.12,1.38-0.18,2.07c-0.02,0.24,0.14,0.54,0.3,0.7c0.18,0.17,0.46,0.3,0.71,0.28
			c0.26-0.02,0.53-0.1,0.7-0.3c0.05-0.07,0.1-0.14,0.15-0.2c0.09-0.16,0.13-0.33,0.13-0.51c0.06-0.69,0.12-1.38,0.18-2.07
			C172.04,196.54,171.88,196.23,171.71,196.07z"/>
		<path class="st4" d="M169.51,199.74c-0.07-0.05-0.14-0.1-0.2-0.15c-0.16-0.09-0.33-0.13-0.51-0.13c-0.5,0.07-1,0.14-1.5,0.21
			c-0.14,0-0.27,0.03-0.38,0.09c-0.12,0.04-0.23,0.11-0.32,0.21c-0.17,0.18-0.3,0.46-0.28,0.71c0.02,0.26,0.1,0.53,0.3,0.7
			c0.07,0.05,0.14,0.1,0.2,0.15c0.16,0.09,0.33,0.13,0.51,0.13c0.5-0.07,1-0.14,1.5-0.21c0.14,0,0.27-0.03,0.38-0.09
			c0.12-0.04,0.23-0.11,0.32-0.21c0.17-0.18,0.3-0.46,0.28-0.71C169.8,200.19,169.71,199.92,169.51,199.74z"/>
		<path class="st4" d="M172.15,203.75c-0.11-0.25-0.18-0.52-0.23-0.79c-0.02-0.24-0.03-0.49,0-0.73c0.02-0.24-0.14-0.54-0.3-0.7
			c-0.18-0.17-0.46-0.3-0.71-0.28c-0.26,0.02-0.53,0.1-0.7,0.3c-0.05,0.07-0.1,0.14-0.15,0.2c-0.09,0.16-0.13,0.33-0.13,0.51
			c-0.04,0.35-0.01,0.7,0.04,1.04c0.05,0.35,0.13,0.68,0.27,1.01c0.03,0.13,0.09,0.24,0.18,0.34c0.07,0.11,0.17,0.19,0.28,0.25
			c0.22,0.12,0.53,0.17,0.77,0.09c0.24-0.08,0.47-0.24,0.59-0.47c0.03-0.08,0.06-0.16,0.1-0.24
			C172.2,204.1,172.2,203.92,172.15,203.75z"/>
		<path class="st4" d="M175.23,200.36c-0.08-0.24-0.24-0.47-0.47-0.59c-0.08-0.03-0.16-0.06-0.24-0.1c-0.15-0.04-0.3-0.04-0.46,0
			c-0.37,0.05-0.75,0.06-1.13,0.03c-0.14,0-0.27,0.03-0.38,0.09c-0.12,0.04-0.23,0.11-0.32,0.21c-0.1,0.09-0.16,0.2-0.2,0.32
			c-0.06,0.12-0.09,0.25-0.08,0.39c0.02,0.26,0.1,0.53,0.3,0.7c0.07,0.05,0.14,0.1,0.2,0.15c0.16,0.09,0.33,0.13,0.51,0.13
			c0.53,0.05,1.06,0,1.58-0.1c0.13-0.03,0.24-0.09,0.34-0.18c0.11-0.07,0.19-0.17,0.25-0.28c0.07-0.12,0.11-0.24,0.11-0.37
			C175.28,200.62,175.27,200.49,175.23,200.36z"/>
	</g>
	<path class="st4" d="M145.18,103.06c-1.93,0-1.93,3,0,3C147.11,106.06,147.11,103.06,145.18,103.06z"/>
	<path class="st4" d="M126.41,62.89c-1.93,0-1.93,3,0,3C128.34,65.89,128.34,62.89,126.41,62.89z"/>
	<path class="st4" d="M204.87,108.69c-1.93,0-1.93,3,0,3C206.8,111.69,206.8,108.69,204.87,108.69z"/>
	<path class="st4" d="M234.53,89.17c-1.93,0-1.93,3,0,3C236.46,92.17,236.46,89.17,234.53,89.17z"/>
	<path class="st4" d="M133.92,171.01c-1.93,0-1.93,3,0,3C135.85,174.01,135.85,171.01,133.92,171.01z"/>
	<path class="st4" d="M180.95,160.88c-1.93,0-1.93,3,0,3C182.88,163.88,182.88,160.88,180.95,160.88z"/>
	<path class="st4" d="M200.47,180.03c-1.93,0-1.93,3,0,3C202.4,183.03,202.4,180.03,200.47,180.03z"/>
	<path class="st4" d="M219.61,170.01c-1.29,0-1.29,2,0,2C220.9,172.01,220.9,170.01,219.61,170.01z"/>
	<path class="st10" d="M96.78,207.42c-0.15-0.56-0.7-0.79-1.23-0.7c-0.83,0.15-1.67,0.22-2.51,0.24c-0.38,0.01-0.76,0-1.14-0.02
		c0.2-0.28,0.4-0.56,0.61-0.83c0.41-0.56,0.83-1.12,1.23-1.69c0.83-1.18,1.6-2.4,2.16-3.72c0.32-0.75,0.43-1.51-0.08-2.21
		c-0.44-0.61-1.17-0.96-1.89-1.11c-1.44-0.29-2.85,0.1-3.99,1.02c-0.42,0.34-0.35,1.06,0,1.41c0.42,0.42,0.99,0.34,1.41,0
		c0.67-0.54,2.02-0.82,2.75-0.25c-0.01-0.01,0.04,0.03,0.07,0.05c0,0.03-0.01,0.06-0.02,0.07c-0.14,0.28-0.25,0.58-0.39,0.86
		c-0.3,0.59-0.64,1.17-1,1.73c-0.74,1.15-1.57,2.23-2.38,3.33c-0.38,0.52-0.95,1.11-1.06,1.76c-0.07,0.4,0.05,0.8,0.34,1.08
		c0.31,0.31,0.7,0.34,1.11,0.39c1.77,0.21,3.55,0.11,5.3-0.2C96.61,208.56,96.91,207.91,96.78,207.42z"/>
</g>
</svg>
