<?xml version="1.0" encoding="utf-8"?>
<!-- Generator: Adobe Illustrator 24.2.0, SVG Export Plug-In . SVG Version: 6.00 Build 0)  -->
<svg version="1.1" id="line" xmlns="http://www.w3.org/2000/svg" xmlns:xlink="http://www.w3.org/1999/xlink" x="0px" y="0px"
	 viewBox="0 0 315 200" style="enable-background:new 0 0 315 200;" xml:space="preserve">
<style type="text/css">
	.st0{fill:#BCDFDF;}
	.st1{fill:#99D3DD;}
	.st2{fill:#ABCB58;}
	.st3{fill:#C7D555;}
	.st4{fill:#FFFFFF;}
	.st5{fill:#AAB4B9;}
	.st6{fill:#FDDBBF;}
	.st7{fill:#F4CA99;}
	.st8{fill:#DC9F5C;}
	.st9{fill:#F6B1AC;}
	.st10{fill:#651811;}
	.st11{fill:#E9E56D;}
	.st12{fill:#9BC0D5;}
	.st13{fill:#DDE8F0;}
	.st14{fill:#EF7C68;}
	.st15{fill:#FFE1A2;}
	.st16{fill:#E9F4F4;}
	.st17{fill:#CDD95F;}
	.st18{fill:#B2DCDA;}
	.st19{fill:#9DAEB9;}
	.st20{fill:#F0EA7A;}
	.st21{fill:#CCDB81;}
	.st22{fill:#F4A5AD;}
	.st23{fill:#B2B2B2;}
	.st24{fill:#C0C4C6;}
	.st25{fill:#E3E8EA;}
	.st26{fill:#FFDB83;}
	.st27{fill:#C0C0C0;}
	.st28{fill:#6EC6D9;}
	.st29{fill:#878D91;}
	.st30{fill:#F0867B;}
	.st31{fill:#FFDE90;}
	.st32{fill:#C53C6C;}
	.st33{fill:#EEBF6D;}
	.st34{fill:#903D8F;}
	.st35{fill:#514E9C;}
	.st36{fill:#F9BB7A;}
	.st37{fill:#F28F6C;}
	.st38{fill:#FFE586;}
	.st39{fill:#6FC5D3;}
	.st40{fill:#9BD4E4;}
	.st41{fill:#F6B9C2;}
	.st42{fill:#F4A08B;}
	.st43{fill:#D1E8E8;}
	.st44{fill:#FCC249;}
	.st45{fill:#9F5A24;}
	.st46{fill:#BCE4FA;}
	.st47{fill:#B07147;}
	.st48{fill:#D88959;}
	.st49{fill:#FFEC96;}
	.st50{fill:#91D0D4;}
	.st51{fill:#651811;stroke:#651811;stroke-width:0.75;stroke-linecap:round;stroke-linejoin:round;stroke-miterlimit:10;}
	.st52{fill:#C1E3E6;}
	.st53{fill:#C4D4DE;}
	.st54{fill:#651811;stroke:#651811;stroke-width:0.5;stroke-miterlimit:10;}
	.st55{fill:#651811;stroke:#651811;stroke-width:0.5;stroke-linecap:round;stroke-linejoin:round;stroke-miterlimit:10;}
	.st56{fill:#D8E0E6;}
	.st57{fill:#FECB4A;}
	.st58{fill:#EEF8FE;}
	.st59{fill:#ADCE68;}
	.st60{fill:#FCD7BA;}
	.st61{fill:#651811;stroke:#651811;stroke-width:0.25;stroke-miterlimit:10;}
	.st62{fill:#F4A8B3;}
	.st63{fill:#F7AE6E;}
	.st64{fill:#FEDFB3;}
	.st65{fill:#F7B28C;}
	.st66{fill:#FFFBDC;}
	.st67{fill:#FCC24F;}
	.st68{fill:none;stroke:#651811;stroke-width:2;stroke-linecap:round;stroke-linejoin:round;stroke-miterlimit:10;}
	.st69{fill:#9EC65A;}
	.st70{fill:#A7D9DE;}
	.st71{fill:#CACCCE;}
	.st72{fill:#FBBE49;}
	.st73{fill:#9BC76B;}
	.st74{fill:#D9E181;}
	.st75{fill:#F6B9C5;}
	.st76{fill:#87CDD8;}
	.st77{fill:#651811;stroke:#651811;stroke-width:0.4;stroke-miterlimit:10;}
	.st78{fill:#A8D7CC;}
	.st79{fill:#CDEAFC;}
	.st80{fill:#D6D6D6;}
	.st81{fill:#F8C3C3;}
	.st82{fill:#D7BCA5;}
	.st83{fill:#FFD247;}
	.st84{fill:#F59B42;}
	.st85{fill:#FFF59B;}
	.st86{fill:#90D1DB;}
	.st87{fill:#EB935F;}
	.st88{fill:#DD7636;}
</style>
<g>
	<path class="st69" d="M263.05,35.43c-30.95-21.34-55.15-19.9-68.92-18.13c-19.45,2.5-63.51,16.98-74.38,81.73
		c-10.86,64.75,69.63,105.01,141.41,73.85C332.94,141.72,302.72,62.78,263.05,35.43z"/>
	<path class="st3" d="M135.88,68.89c-22.68-19.18-42.4-21.72-53.73-22.51c-16-1.12-53.22,2.41-69.13,45.33
		c-15.91,42.92,44.75,82.32,106.21,71.37C180.7,152.13,164.94,93.48,135.88,68.89z"/>
	<path class="st4" d="M252.63,61.23l-1.01,0.91c-0.08-0.78-0.17-1.55-0.25-2.33c-0.2-1.88-2.63-2.84-3.73-1.01
		c-0.73,1.22-1.46,2.44-2.2,3.66c-0.44-0.84-0.87-1.67-1.31-2.51c-0.83-1.6-3.16-1.08-3.66,0.48c-0.54,1.69-0.81,3.43-0.83,5.17
		c-0.1-0.06-0.2-0.12-0.3-0.17c-1.09-0.6-2.86,0.03-2.99,1.36c-2.79-3.15-6.36-5.59-10.4-7.04c-3.04-4.07-9.49-5.56-14.43-5.05
		c-3.85,0.4-7.34,1.95-11.03,2.98c-3.13,0.87-6.58,1.19-9.38-0.76c-1.01-0.71-2.7-0.01-2.94,1.2c-0.67,3.42-0.47,6.8,0.56,10.04
		c-0.35,0.32-0.58,0.79-0.58,1.41c0.05,8.01-1.07,15.94-3.28,23.62c-2.12-3.07-4.07-6.25-5.83-9.54c-0.58-1.08-1.13-2.17-1.67-3.27
		c-0.55-1.13-1.07-1.94-0.74-3.2c0.68-2.59,0.82-5.11,0.33-7.75c-0.24-1.28-1.91-1.82-2.94-1.2c-0.31,0.19-0.61,0.41-0.9,0.63
		c-0.34-0.99-0.74-1.97-1.25-2.91c-0.66-1.22-2.85-1.39-3.45,0c-0.33,0.77-0.63,1.54-0.9,2.32c-0.95-1.31-1.96-2.58-3.02-3.8
		c-1.2-1.37-3.36-0.21-3.41,1.41c-0.01,0.4,0,0.81,0,1.21c-0.38-0.32-0.75-0.63-1.14-0.93c-1.21-0.94-3.56-0.51-3.41,1.41
		c0.44,5.58,3.03,10.56,7.24,14.14c-0.31,3.65,0.68,7.33,1.84,10.77c1.22,3.59,2.84,7.07,4.83,10.3c0.75,1.21,1.56,2.38,2.4,3.52
		c0.39,0.59,0.8,1.17,1.25,1.72c0.34,0.41,0.69,0.81,1.06,1.2c3.17,3.7,6.85,6.95,10.94,9.6c1.97,1.27,4.63,2.87,7.15,3.13
		c1.08,2.57,2.56,4.94,4.4,7.06c0.15,0.34,0.29,0.69,0.45,1.04c0.44,0.94,1.38,0.93,2.04,0.46c4.71,0.82,9.48,1.3,14.27,1.34
		c3.12,0.03,6.3-0.13,9.28-1.03c-0.03,0.23-0.06,0.46-0.08,0.68c-0.13,1.07,1.01,2,2,2c1.19,0,1.87-0.92,2-2
		c0.12-0.97,0.24-1.94,0.36-2.92c0.27-0.46,0.31-0.98,0.18-1.47c0.16-1.35,0.33-2.7,0.49-4.05c0.16-1.32,0.34-2.63,0.48-3.95
		c0.01-0.1,0.02-0.18,0.03-0.25c0.14-0.1,0.54-0.17,0.73-0.23c0.6-0.2,1.19-0.43,1.77-0.67c4.18-1.75,7.81-4.67,10.64-8.19
		c6.44-8.02,8.61-18.19,10.14-28.12c0.96-6.2,1.78-12.43,3.53-18.47C256.55,61.17,254.06,59.94,252.63,61.23z"/>
	<path class="st6" d="M77.1,97.94c-1.57-0.14-3.09,0.27-4.53,0.86c-0.72,0.3-1.42,0.62-2.13,0.94c-0.31,0.14-0.63,0.29-0.95,0.42
		c-0.1,0.04-0.37,0.16-0.59,0.25c-0.19-0.41-0.35-0.94-0.47-1.26c-0.24-0.61-0.45-1.22-0.65-1.84c-0.01-0.62-0.04-1.23-0.1-1.85
		c-0.07-0.81-0.64-1.5-1.5-1.5c-0.76,0-1.57,0.69-1.5,1.5c0.04,0.42,0.04,0.84,0.06,1.27c-0.11,0.27-0.13,0.59-0.01,0.95
		c0.02,0.05,0.04,0.1,0.05,0.15c0,2.1-0.23,4.18-0.76,6.23c-0.35,1.37-0.94,2.8-0.57,4.23c0.35,1.38,1.49,2.24,2.59,3.02
		c1.13,0.8,2.45,1.37,3.86,1.22c1.4-0.15,2.68-0.96,3.75-1.83c2-1.6,1.48-4.31,0.63-6.51c1.36-1.15,2.67-2.37,3.88-3.68
		C79.1,99.49,78.39,98.06,77.1,97.94z"/>
	<path class="st4" d="M136.18,104.69c-0.61-3.14-4.52-3.09-7.04-3.45c-1.5-0.21-3.01-0.41-4.52-0.56c-1.44-0.15-2.87-0.1-3.98,0.96
		c-0.95,0.9-1.29,2.3-1.71,3.48c-0.53,1.48-1.05,2.96-1.58,4.43c-0.69,1.94-1.38,3.87-2.07,5.81c-0.24-0.18-0.48-0.36-0.75-0.51
		c-1.21-0.67-2.48-0.02-2.94,1.2c-1.51,4-3.41,8.22-6.01,11.65c-0.98,1.3-1.97,2.12-3.29,0.82c-1.44-1.42-2.65-3.16-3.83-4.8
		c-1.24-1.73-2.42-3.51-3.51-5.34c-0.31-0.52-0.62-1.05-0.92-1.58c-0.13-0.24-0.3-0.8-0.49-0.97c0.03-0.01,0.05-0.03,0.08-0.04
		c0.3-0.04,0.7-0.21,0.99-0.3c3.8-1.19,7.22-3.48,9.75-6.56c0.75-0.92,0.72-1.9,0-2.83c-3.25-4.18-3.43-9.95-3.33-15
		c0.06-3.07,0.23-6.15,0.03-9.21c-0.07-1.06-0.16-3.02-0.71-4.48c1.71-3.38,1.68-7.34,0.14-10.84c-0.35-0.79-1.48-1.14-2.26-0.92
		c-7.39,2.07-14.84-2.31-22.22-2.63c-3.24-0.14-6.69,0.38-9.46,2.15c-1.18,0.76-2.25,1.64-2.67,2.98c-2.15,0.26-4.22,0.92-6.11,1.92
		c-4.19,1.53-7.85,4.62-10.6,8.13c-1.99,2.54-3.48,5.42-5.46,7.97c-0.92,1.19-2.01,2.26-3.35,2.95c-1.6,0.82-3.47,1.07-5.23,1.35
		c-1.16,0.18-1.54,1.5-1.4,2.46c1.21,8.17,6.37,15.49,13.31,19.87c1.75,1.1,3.63,2,5.57,2.7c0.95,0.34,1.91,0.63,2.89,0.85
		c0.46,0.11,0.93,0.19,1.4,0.27c0.05,0.01,0.12,0.03,0.19,0.05c-0.2,0.51-0.28,1.23-0.42,1.72c-0.17,0.58-0.36,1.15-0.55,1.71
		c-0.44,1.28-0.94,2.54-1.43,3.81c-0.9,2.31-1.81,4.63-2.35,7.05c-1.02,4.5-2.07,8.43,0.3,12.36c-1.31,4.32-4,10.33-6.57,13.98
		c1.03,0.46,2.57-1.28,3.5-0.6c0.87,0.64,1.75,1.33,2.78,1.64c0.19,0.06,0.37,0.14,0.53,0.22c18.43-6.41,38.86-3.81,56.97-11.52
		c2.27-0.97,4.41-2.13,5.96-4.11c1.3-1.67,2.07-3.62,3.08-5.47c1.01-1.83,2.26-3.04,4.25-3.75c2.2-0.79,4.51-1.3,6.52-2.57
		c1.93-1.22,4.71-3.38,3.97-6.01c-0.25-0.88-1.22-1.38-1.13-2.28c0.1-1.09,0.79-2.25,1.2-3.24c1.02-2.47,1.95-4.99,2.78-7.53
		c0.39-1.2,0.77-2.4,1.12-3.61C135.95,107.26,136.43,105.96,136.18,104.69z"/>
	<path class="st18" d="M248.38,76.76c-0.7-0.7-1.75-0.93-2.67-1.18c-1.25-0.34-2.52-0.6-3.81-0.79c-0.84-0.13-1.56,0.2-1.85,1.05
		c-2.06,6.12-4.75,12.01-8.04,17.57c-1.54,2.6-3.13,5.35-5.13,7.62c-1.19,1.35-2.55,2.1-4.04,2.52c-0.3-0.47-0.85-0.76-1.59-0.58
		c-3.5,0.86-7.04,1.5-10.61,1.94c-0.26-0.27-0.6-0.46-1.03-0.44c-3.46,0.12-6.99,0.28-10.42-0.35c-3.37-0.62-6.29-2.11-9.05-4.11
		c-5.01-3.63-9.92-7.99-12.94-13.47c0.04-0.22,0.03-0.48-0.08-0.75c-0.53-1.35-1.06-2.7-1.58-4.06c-0.46-1.18-1.9-1.23-2.6-0.6
		c-0.1-0.03-0.18-0.07-0.28-0.09c-1.04-0.2-2.04,0.17-2.9,0.74c-0.44,0.29-0.84,0.64-1.27,0.94c-0.41,0.28-0.57,0.39-0.84,0.3
		c-1-0.33-2.29,0.79-1.85,1.85c1.76,4.19,3.66,8.31,5.74,12.35c1.96,3.81,3.98,7.68,6.83,10.93c1.65,1.88,3.53,3.48,5.55,4.9
		c-0.1,0.53,0.09,1.1,0.74,1.42c3.88,1.94,7.79,3.86,11.66,5.83c-0.06,0.59-0.01,1.21,0.18,1.83c0.65,2.1,2.56,3.48,3.65,5.33
		c0.57,0.97,0.95,1.98,1.25,3.06c0.27,0.99,0.6,1.94,1.43,2.6c0.8,0.64,1.79,0.75,2.77,0.88c1.32,0.19,2.63,0.37,3.95,0.56
		c0.56,0.08,1.1-0.06,1.46-0.43c0.79-0.08,1.57-0.18,2.31-0.24c2.35-0.19,4.71-0.38,7.06-0.56c1.81-0.14,3.66-0.2,4.4-2.16
		c0.39-1.03,0.41-2.21,0.54-3.29c0.16-1.3,0.31-2.59,0.47-3.89c0.24-2.01,0.49-4.03,0.73-6.04c2.5,0,5.24-2.49,6.99-3.84
		c3.13-2.41,5.98-5.13,8.28-8.35c4.76-6.65,6.14-14.88,6.95-22.83C248.95,81.13,249.81,78.2,248.38,76.76z"/>
	<path class="st4" d="M217.96,103.82c-0.73-0.79-1.87-0.83-2.87-0.87c-1.01-0.04-2.01,0.03-3.01,0.15
		c-2.01,0.25-3.97,0.69-5.96,1.04c-1.07,0.19-2.13,0.32-3.21,0.38c-1.05,0.06-2.08,0.17-2.93,0.85c-1.53,1.23-1.56,3.43-0.93,5.14
		c0.26,0.71,0.92,1.19,1.67,1.08c1.02,1.83,2.38,3.45,4.2,4.55c1.6,0.97,3.49,1.37,5.31,0.79c1.71-0.55,3.19-1.74,4.33-3.11
		c1.2-1.44,2.2-3.06,2.97-4.76C218.22,107.53,219.34,105.31,217.96,103.82z"/>
	<path class="st6" d="M250.86,62.71c-0.3,0.53-0.58,1.06-0.86,1.59c-0.01-0.16-0.01-0.32-0.02-0.48c-0.13-1.7-2.37-2.02-2.95-0.4
		c-0.13,0.37-0.25,0.75-0.37,1.12c-0.16-0.63-0.42-1.24-0.84-1.78c-0.32-0.41-0.99-0.51-1.46-0.39c-0.55,0.15-0.85,0.55-1.05,1.05
		c-0.57,1.45-0.59,3.02-0.46,4.55c-0.34-0.35-0.71-0.68-1.11-0.98c-0.47-0.35-1.25-0.22-1.67,0.12c-0.51,0.41-0.63,0.95-0.54,1.58
		c0.16,1.07,0.52,2.12,1.03,3.08c-0.07-0.01-0.15-0.02-0.22-0.03c-0.05-0.01-0.11,0-0.16,0c0.2,0.39,0.37,0.8,0.44,1.22
		c0.11,0.62,0.11,1.21,0.04,1.81c2.79,0.3,5.57,0.63,8.35,1c0.66,0.09,1.26-0.53,1.45-1.1c1.17-3.57,2.22-7.18,3.15-10.82
		C254.02,62.25,251.71,61.2,250.86,62.71z"/>
	<path class="st6" d="M174.24,72.06c-0.81-0.22-1.6,0.27-1.85,1.05c-0.08,0.24-0.17,0.48-0.25,0.73c-0.12-1.56-0.36-3.1-1.17-4.47
		c-0.79-1.34-2.7-0.68-2.8,0.76c-0.03,0.5-0.04,1.01-0.05,1.51c-0.62-1.22-1.23-2.45-1.87-3.66c-0.79-1.5-3.23-0.47-2.74,1.16
		c0.11,0.36,0.22,0.72,0.33,1.08c-0.03-0.05-0.07-0.1-0.1-0.15c-0.44-0.61-1.15-0.93-1.87-0.61c-0.08,0.03-0.15,0.07-0.22,0.12
		c-0.93-0.02-1.94,0.8-1.59,1.88c0.94,2.89,2.12,5.76,3.65,8.39c0.84,1.44,2.05,2.2,3.7,2.38c1.54,0.16,3.12-0.24,4.45-1.01
		c0.56-0.33,0.76-0.84,0.71-1.33c0.06-0.06,0.12-0.12,0.17-0.19c0.59-0.07,1.05-0.51,1.29-1.09c0.61-1.51,1.03-3.07,1.25-4.68
		C175.39,73.11,175.09,72.3,174.24,72.06z"/>
	<path class="st6" d="M93.69,81.22c-0.95-1.64-2.65-1.7-4.34-1.46c-1.93,0.27-3.86,0.57-5.8,0.76c-3.87,0.38-7.73,0.37-11.47-0.83
		c-0.15-0.05-0.28-0.06-0.41-0.07c-0.1-0.06-0.21-0.11-0.33-0.14c-0.8-0.25-1.64-0.16-2.37,0.18c-0.5-0.4-1.22-0.59-1.81-0.44
		c-1.14,0.28-1.61,1.35-1.46,2.42c0.45,3.29,0.44,6.63-0.02,9.91c-0.4,0.4-0.74,0.85-0.97,1.39c-0.26,0.64-0.39,1.26-0.42,1.86
		c0.34-0.48,0.88-0.77,1.5-0.79c0.82-0.04,1.54,0.6,1.77,1.35c0.44,1.39,0.96,2.75,1.39,4.15c2.68-1.04,5.35-2.42,8.31-1.86
		c0.61,0.11,1.13,0.71,1.28,1.28c0.18,0.66-0.03,1.29-0.47,1.79c-0.64,0.7-1.47,0.78-2.32,1.03c-0.13,0.04-0.26,0.1-0.39,0.14
		c-0.06,0.03-0.11,0.05-0.17,0.08c-0.27,0.14-0.53,0.29-0.78,0.46c-0.23,0.15-0.45,0.3-0.68,0.45c0.11,0.38,0.17,0.78,0.2,1.18
		c0.49,0.16,0.97,0.31,1.4,0.41c5.39,1.25,12.38,0.18,16.04-4.36c2.1-2.62,2.18-5.85,2.39-9.05c0.12-1.78,0.23-3.56,0.35-5.35
		C94.21,84.23,94.47,82.55,93.69,81.22z"/>
	<path class="st6" d="M80.92,106.82c-0.3-0.8-0.86-1.38-1.6-1.74c-0.08-0.61-0.49-1.17-1.13-1.29c-0.26-0.05-0.52-0.03-0.76,0.04
		c-0.02-0.01-0.03-0.03-0.05-0.04c-0.73-0.35-1.65-0.12-2.03,0.62c-0.23,0.45-0.47,1.02-0.66,1.63c0.01,0.25,0,0.51-0.03,0.76
		c-0.07,0.55-0.15,1.09-0.32,1.62c-0.03,0.09-0.07,0.17-0.1,0.26c0.03,0.1,0.05,0.21,0.09,0.31c0.19,0.44,0.44,0.86,0.82,1.16
		c0.18,0.14,0.36,0.27,0.57,0.36c0.39,0.17,0.63,0.2,1.06,0.24c0.17,0.02,0.36-0.04,0.55-0.13c0.01,0.02,0.02,0.03,0.03,0.05
		c0.44,0.7,1.28,1.06,2.09,0.81c1-0.32,1.35-1.35,1.53-2.28C81.13,108.42,81.19,107.57,80.92,106.82z"/>
	<path class="st8" d="M100.5,104.81c-0.41-1.29-0.78-2.6-1.1-3.91c-0.61-2.49-1.06-5.01-1.35-7.56c-0.64-5.77-0.41-11.68,0.68-17.38
		c0.04-0.19,0.04-0.37,0.04-0.56c0.79-0.86,1.15-1.92,0.38-3.17c-0.7-1.15-2.11-1.56-3.28-2.06c-1.33-0.57-2.68-1.13-4.02-1.67
		c-2.7-1.08-5.42-2.09-8.17-3.02c-2.57-0.88-5.2-1.6-7.94-1.32c-2.87,0.29-5.75,1.41-8.32,2.69c-1.19,0.59-2.33,1.39-3.17,2.4
		c0,0-0.01,0-0.01,0c-3.58,0.25-6.65,2.05-9.06,4.66c-2.6,2.81-4.3,6.27-6.67,9.25c-2.19,2.77-5.08,4.92-8.31,6.33
		c-1.45,0.63-2.94,1.19-3.93,2.49c-1.23,1.6-1.11,3.56-0.33,5.33c1.4,3.16,4.11,6.07,6.69,8.31c2.01,1.75,4.28,3.46,6.8,4.44
		c0.07,0.31,0.27,0.59,0.66,0.7c2.14,0.63,4.45,1.24,6.66,0.54c0.94-0.3,1.85-0.81,2.5-1.57c0.33-0.38,0.57-0.83,0.83-1.26
		c0.45,0.3,1.14,0.19,1.42-0.32c1.48-2.66,2.3-5.61,2.4-8.65c0.01-0.16-0.02-0.3-0.07-0.42c0.28-1.12,0.49-2.26,0.57-3.41
		c-0.14-0.95-0.06-1.97,0.02-2.92c0.2-2.4,0.44-4.8,0.66-7.2c0.1-1.13,0.21-2.26,0.31-3.4c0.06-0.65,0.12-1.29,0.18-1.94
		c0.02-0.21,0.04-0.41,0.06-0.62c1.16-0.06,2.24-0.21,3.35-0.91c0.54-0.34,1.02-0.76,1.45-1.23c7.3,3.94,16.39,4.22,23.92,0.75
		c-0.63,4.56-0.81,9.17-0.42,13.78c0.13,1.52,0.31,3.04,0.54,4.54c-0.31,0.23-0.55,0.58-0.66,1.08c-0.44,2.04-1.62,3.6-3.25,4.88
		c-1.66,1.31-3.62,1.85-5.42,2.87c-2.28,1.29-2.93,3.9-1.64,6.18c1.06,1.88,3.17,2.92,5.25,3.14c2.4,0.26,4.73-0.71,6.83-1.76
		c1.2-0.6,2.38-1.23,3.57-1.85c1.19-0.62,2.25-1.35,2.29-2.82C101.46,107.07,100.84,105.9,100.5,104.81z"/>
	<path class="st18" d="M115.53,128.42c-0.02-0.12-0.02-0.24-0.05-0.36c-0.26-1.05-1.19-1.9-2.29-1.96c-1.14-0.06-2.17,0.6-3.02,1.31
		c-1.85,1.53-3.25,3.77-4.73,5.64c-0.45,0.57-1.17,1.26-1.68,2c-1.27-0.51-2.48-1.34-3.3-2.01c-4.45-3.65-6.57-9.7-8.57-14.9
		c-0.73-1.89-3.03-1.98-3.86-0.1c-2.5,5.68-8.74,9.12-14.83,8.73c-0.04-0.35-0.25-0.68-0.69-0.81c-1.16-0.34-2.44-0.72-3.46-1.4
		c-0.86-0.57-0.4-1.71-0.25-2.62c0.38-2.26,1.02-4.45,1.88-6.57c0.21-0.53-0.24-1.06-0.7-1.23c-2.81-1.05-5.63-2.1-8.44-3.14
		c-0.53-0.2-1.07,0.22-1.23,0.7c-2.24,6.56-4.56,13.1-6.72,19.69c-0.76,2.31-2.42,6.02-0.83,8.3c0.53,0.77,1.22,1.22,1.99,1.46
		c-1.7,5.18-4.23,10.07-7.56,14.39c-0.73,0.94-0.87,2.5,0.4,3.14c3.56,1.79,7.35,3.05,11.3,3.61c3.79,0.53,7.87,0.63,10.14-3.02
		c1.9-3.05,2.11-7.39,1.83-10.88c1.3,0.64,2.79,0.64,4.2,0.34c1.46-0.31,3.12-0.77,4.38-1.61c2.75-1.82,2.98-5.38,3.57-8.34
		c0.51-2.54,1.05-5.11,2.09-7.47c1.74,1.74,3.67,3.3,5.75,4.62c0.23,0.15,0.47,0.23,0.69,0.28c1.89,1.66,3.96,3.09,6.35,4.1
		c0.21,0.09,0.43,0.17,0.64,0.25c0.04,0.05,0.08,0.1,0.13,0.15c1.65,1.48,3.72,2.01,5.9,1.73c1.91-0.25,3.67-1.21,5.21-2.31
		c1.61-1.15,3.08-2.46,3.95-4.27c0.8-1.68,1.19-3.55,2.11-4.95C116.33,130.11,116.15,129.06,115.53,128.42z"/>
	<path class="st6" d="M125.61,126.72c-0.03-0.11-0.08-0.2-0.12-0.3c-1.37-0.12-2.76-0.06-4.08-0.48c-0.01,0-0.02,0.01-0.03,0.01
		c-0.05,0.01-0.24,0.06-0.36,0.09c-0.34,0.05-0.72-0.01-1.05-0.03c-0.02,0-0.03,0-0.04,0c-0.02-0.01-0.04-0.01-0.07-0.02
		c-0.21-0.06-0.43-0.11-0.64-0.18c-0.18-0.06-0.36-0.13-0.54-0.2c-0.03-0.01-0.06-0.02-0.08-0.04c-0.02-0.01-0.06-0.03-0.12-0.06
		c-0.34-0.19-0.67-0.36-1-0.57c-0.7-0.44-1.36-0.93-2.02-1.42c-0.05-0.04-0.11-0.06-0.17-0.09c0.28-1.72,0.43-3.47,0.41-5.22
		c-0.01-0.5-0.38-0.92-0.87-0.98c-0.44-0.06-1.02,0.22-1.1,0.72c-0.01,0.09-0.02,0.18-0.03,0.27c0,0-0.01,0-0.01,0
		c0,0.03,0,0.05,0,0.08c-0.09,0.71-0.14,1.41-0.09,2.13c0,0.04,0.02,0.07,0.03,0.11c-0.01,0.14-0.01,0.29-0.03,0.43
		c-0.04,0.44-0.08,0.88-0.14,1.32c-0.01,0.05-0.03,0.18-0.03,0.18c-0.02,0.11-0.03,0.21-0.05,0.32c-0.04,0.25-0.08,0.5-0.13,0.75
		c0,0.02,0,0.03,0,0.05c-0.23,0.15-0.42,0.35-0.55,0.58c-0.57,1.01-0.25,2.08,0.64,2.75c1.54,1.15,3.14,2.29,5.02,2.81
		c1.11,0.31,2.2,0.37,3.34,0.23c1.03-0.13,1.99-0.59,2.93-1C125.39,128.63,125.85,127.51,125.61,126.72z"/>
	<path class="st10" d="M82.76,111.56c0.06,0.21-0.04-0.15-0.05-0.18c-0.02-0.09-0.05-0.17-0.07-0.26c-0.05-0.2-0.1-0.41-0.14-0.61
		c-0.08-0.38-0.15-0.76-0.2-1.15c-0.05-0.38-0.09-0.77-0.12-1.16c-0.01-0.21-0.02-0.42-0.03-0.63c0-0.02,0-0.04,0-0.05
		c0-0.01,0-0.02,0-0.04c0-0.12,0-0.24,0-0.36c0.01-0.52-0.3-1.07-0.88-1.11c-0.49-0.04-1.1,0.32-1.11,0.88
		c-0.02,1.87,0.24,3.68,0.77,5.47c0.15,0.5,0.87,0.73,1.32,0.52C82.78,112.61,82.92,112.1,82.76,111.56z"/>
	<path class="st10" d="M92.4,77.21c-7.7,3.51-16.96,2.74-23.95-2.04c-1.06-0.73-2.27,0.87-1.2,1.6c7.57,5.18,17.6,6.09,25.95,2.28
		C94.38,78.51,93.58,76.68,92.4,77.21z"/>
	<path class="st10" d="M82.31,110.83c-0.88,0.44-1.83,0.37-2.79,0.28c-1-0.1-1.99-0.24-2.97-0.44c-1.29-0.27-2.53-0.7-3.7-1.29
		c-0.01,0.02-0.03,0.04-0.04,0.06c0,0,0,0,0.01,0c-0.01,0.02-0.03,0.03-0.05,0.05c-0.06,0.07-0.12,0.15-0.17,0.22
		c0,0.09,0,0.18-0.02,0.27c-0.01,0.24-0.08,0.47-0.22,0.68c-0.13,0.17-0.25,0.34-0.4,0.49c1.38,0.69,2.85,1.18,4.37,1.5
		c1.11,0.24,2.25,0.39,3.38,0.48c1.16,0.09,2.35,0.07,3.41-0.47C84.26,112.09,83.47,110.25,82.31,110.83z"/>
	<path class="st10" d="M82.99,90.39c-1.34-0.73-1.62-2.47-1.81-3.84c-0.09-0.64-1.07-0.49-0.99,0.15c0.2,1.51,0.58,3.09,1.72,4.1
		c-0.42,0.2-0.87,0.31-1.33,0.3c-0.27-0.01-0.52,0.15-0.55,0.44c-0.03,0.25,0.17,0.55,0.44,0.55c0.96,0.03,1.89-0.26,2.65-0.85
		C83.44,90.99,83.31,90.56,82.99,90.39z"/>
	<path class="st10" d="M88.74,86.93c-0.01-0.72-0.16-1.6-0.72-1.97c-0.18-0.12-0.37-0.16-0.57-0.14c-0.01,0-0.02-0.01-0.02-0.01
		c-0.7-0.04-1.13,0.71-1.38,1.39c-0.26,0.71-0.36,1.52-0.26,2.28c0.09,0.67,0.37,1.41,0.97,1.58c0.61,0.18,1.18-0.31,1.49-0.92
		C88.59,88.48,88.75,87.7,88.74,86.93z"/>
	<path class="st10" d="M74.22,85.66c-0.01-0.72-0.16-1.6-0.72-1.97c-0.18-0.12-0.37-0.16-0.57-0.14c-0.01,0-0.02-0.01-0.02-0.01
		c-0.7-0.04-1.13,0.71-1.38,1.39c-0.26,0.71-0.36,1.52-0.26,2.28c0.09,0.67,0.37,1.41,0.97,1.58c0.61,0.18,1.18-0.31,1.49-0.92
		C74.07,87.2,74.22,86.43,74.22,85.66z"/>
	<path class="st10" d="M72.5,84.41c-0.09-0.04-0.19-0.09-0.28-0.14c-0.01,0,0,0-0.01,0c-0.02-0.01-0.03-0.02-0.05-0.03
		c-0.04-0.03-0.09-0.05-0.13-0.08c-0.18-0.12-0.35-0.24-0.51-0.38c-0.04-0.03-0.08-0.07-0.12-0.1c-0.02-0.02-0.03-0.03-0.05-0.05
		c-0.01-0.01-0.03-0.03-0.04-0.04c0,0-0.01-0.01-0.01-0.01c-0.02-0.02-0.04-0.04-0.06-0.06c-0.04-0.04-0.07-0.08-0.11-0.11
		c-0.14-0.16-0.27-0.33-0.39-0.51c-0.15-0.22-0.51-0.25-0.7-0.08c-0.22,0.19-0.24,0.47-0.08,0.7c0.54,0.79,1.29,1.42,2.16,1.82
		c0.24,0.11,0.56-0.03,0.65-0.28C72.87,84.79,72.75,84.53,72.5,84.41z"/>
	<path class="st10" d="M72.66,85.4c-0.13-0.26-0.39-0.34-0.66-0.26c-0.02,0.01-0.02,0.01-0.03,0.01c-0.02,0-0.03,0.01-0.05,0.01
		c-0.04,0.01-0.08,0.02-0.12,0.03c-0.09,0.02-0.19,0.04-0.29,0.05c-0.1,0.01-0.19,0.02-0.29,0.02c-0.01,0-0.01,0-0.01,0
		c-0.01,0-0.03,0-0.04,0c-0.05,0-0.1,0-0.15,0c-0.19-0.01-0.38-0.04-0.57-0.08c-0.01,0-0.01,0-0.02,0c-0.01,0,0,0-0.01,0
		c-0.05-0.02-0.11-0.03-0.16-0.05c-0.09-0.03-0.18-0.07-0.27-0.1c-0.24-0.1-0.56,0.02-0.65,0.28c-0.09,0.26,0.02,0.54,0.28,0.65
		c0.89,0.38,1.87,0.4,2.78,0.11C72.66,85.98,72.77,85.62,72.66,85.4z"/>
	<path class="st10" d="M90.96,84.8c-0.11-0.22-0.41-0.39-0.66-0.26c-0.15,0.09-0.31,0.16-0.48,0.23c-0.09,0.04-0.17,0.07-0.26,0.1
		c-0.04,0.01-0.09,0.04-0.13,0.04c0.03,0,0.04-0.01,0.05-0.01c-0.02,0-0.06,0.01-0.07,0.01c-0.17,0.04-0.34,0.08-0.52,0.1
		c-0.09,0.01-0.17,0.02-0.26,0.03c-0.05,0-0.09,0.01-0.14,0.01c-0.02,0-0.05,0-0.07,0c0.02,0,0.02,0,0.03,0
		c-0.14,0-0.25,0.01-0.37,0.1c-0.1,0.08-0.18,0.21-0.19,0.33c-0.02,0.24,0.16,0.56,0.44,0.55c0.83-0.01,1.65-0.19,2.38-0.6
		c0.12-0.06,0.21-0.14,0.26-0.27C91.01,85.07,91.01,84.91,90.96,84.8z"/>
	<path class="st10" d="M91.4,86.84c-0.05-0.27-0.29-0.45-0.57-0.42c-0.54,0.07-0.99,0.13-1.51,0.06c-0.05-0.01-0.09-0.01-0.14-0.02
		c-0.03-0.01-0.05-0.01-0.08-0.02c-0.01,0-0.01,0-0.02-0.01c-0.11-0.03-0.21-0.07-0.31-0.11c-0.04-0.02-0.09-0.04-0.13-0.06
		c0.09,0.05-0.07-0.05-0.09-0.06c-0.04-0.03-0.08-0.06-0.11-0.08c-0.02-0.02-0.04-0.03-0.06-0.05c-0.01-0.01-0.01-0.01-0.02-0.02
		c-0.18-0.19-0.49-0.27-0.7-0.08c-0.19,0.16-0.27,0.5-0.08,0.7c0.41,0.44,0.94,0.69,1.53,0.8c0.62,0.11,1.26,0.03,1.87-0.05
		C91.24,87.38,91.45,87.1,91.4,86.84z"/>
	<path class="st10" d="M94.08,79.94c-1.33,4.19-0.33,8.4-0.39,12.67c-0.06,4.13-1.75,7.7-5.18,10.07
		c-4.11,2.84-8.82,2.85-13.14,1.29c-0.03,0.07-0.05,0.14-0.1,0.2c-0.19,0.28-0.38,0.56-0.56,0.84c-0.16,0.28-0.38,0.5-0.66,0.66
		c2.8,1.08,5.81,1.54,8.93,1.14c6.8-0.87,12.27-6.19,12.67-13.12c0.25-4.32-1.05-8.79,0.29-13.01
		C96.32,79.47,94.46,78.71,94.08,79.94z"/>
	<path class="st10" d="M71.1,78.56c-0.68-0.44-0.98-0.67-1.45-1.3c-1.47,1.04-2.94,2.07-4.4,3.11c-0.43,0.3-0.5,1.01-0.16,1.4
		c0.37,0.43,0.95,0.49,1.4,0.16c1.57-1.11,3.15-2.22,4.72-3.33C71.17,78.59,71.13,78.58,71.1,78.56z"/>
	<path class="st10" d="M110.53,124.91c-2.27,2.57-4.46,5.25-6.82,7.74c-0.7,0.74-1.19,0.77-1.98,0.09
		c-0.55-0.48-1.05-1.02-1.53-1.56c-0.91-1.02-1.74-2.12-2.51-3.25c-3.09-4.55-5.26-9.66-8.56-14.07c-0.77-1.03-2.34,0.21-1.57,1.24
		c3.82,5.11,6.12,11.19,10.1,16.19c1.5,1.88,4.2,5.54,6.83,3.39c1.35-1.11,2.44-2.67,3.6-3.98c1.34-1.52,2.69-3.05,4.03-4.57
		C112.98,125.15,111.37,123.95,110.53,124.91z"/>
	<path class="st10" d="M116.22,131.2c-1.71,2.66-3.68,5.16-5.93,7.39c-1.03,1.02-2.13,2.16-3.37,2.92
		c-1.53,0.94-3.38,0.64-5.04,0.24c-6.58-1.59-11.48-6.78-15.95-11.52c-0.88-0.93-2.45,0.3-1.57,1.24
		c4.97,5.26,10.36,10.81,17.72,12.36c1.56,0.33,3.24,0.5,4.77-0.07c1.64-0.61,2.98-1.97,4.22-3.16c2.57-2.46,4.83-5.21,6.75-8.21
		C118.51,131.32,116.92,130.11,116.22,131.2z"/>
	<path class="st10" d="M118.28,129.89c-1.47-1.5-2.94-3.01-4.41-4.51c-0.36-0.37-0.97-0.54-1.4-0.16c-0.37,0.32-0.55,1.01-0.16,1.4
		c1.47,1.5,2.94,3.01,4.41,4.51c0.36,0.37,0.97,0.54,1.4,0.16C118.49,130.97,118.67,130.29,118.28,129.89z"/>
	<path class="st10" d="M129.73,125.83c-0.23-0.36-0.59-0.57-1.01-0.63c-0.21-0.03-0.38-0.01-0.6,0.03c-0.03,0-0.05,0.01-0.07,0.01
		c-0.43-0.17-0.97,0.03-1.2,0.42c-0.29,0.5-0.09,1.06,0.36,1.37c0.05,0.04,0.12,0.05,0.18,0.08c-0.09,0.07-0.17,0.15-0.26,0.22
		c-0.71,0.56-1.54,1.04-2.38,1.42c-1.69,0.76-3.57,1.05-5.41,0.93c-0.54-0.04-1,0.5-0.99,1.01c0,0.58,0.47,0.95,1.01,0.99
		c2.44,0.17,4.92-0.39,7.08-1.53c1.05-0.55,2.15-1.27,2.96-2.15C129.95,127.39,130.2,126.55,129.73,125.83z"/>
	<path class="st10" d="M63.43,68.68c-6.54,0.8-10.79,6.09-14.13,11.27c-3.47,5.38-7.48,12.31-14.65,12.79
		c-0.69,0.05-1.06,0.67-0.91,1.3c1.89,8.34,8.3,15.19,16.42,17.8c1.23,0.39,1.67-1.56,0.45-1.95c-7.09-2.28-12.63-8.18-14.66-15.29
		c5.92-0.96,10.03-5.87,13.18-10.69c3.5-5.36,7.31-12.37,14.39-13.23C64.78,70.52,64.71,68.52,63.43,68.68z"/>
	<path class="st10" d="M103.2,107.76c-4.76-8.21-4.39-18.09-3.99-27.25c0.06-1.29-1.94-1.2-2,0.08c-0.4,9.27-0.62,19.08,3.89,27.47
		c-2.98,2.5-6.61,4.13-10.47,4.68c-1.26,0.18-1.19,2.18,0.08,2c4.65-0.66,8.89-2.63,12.39-5.76
		C103.43,108.67,103.41,108.12,103.2,107.76z"/>
	<path class="st10" d="M101,69.86c-0.09-0.58-0.64-1.2-1.3-0.91c-6.39,2.74-12.83-2.17-18.8-3.95c-4.75-1.42-12.94-2.26-15.79,3
		c-0.61,1.13,1.15,2.07,1.77,0.94c1.39-2.56,5.09-3.03,7.7-2.99c3.1,0.04,6.16,0.96,9.01,2.12c4.88,1.98,10.16,4.8,15.47,3.24
		c-0.1,1.96-1.1,3.75-2.85,4.82c-1.1,0.67-0.02,2.36,1.08,1.68C99.98,76.14,101.49,72.99,101,69.86z"/>
	<path class="st10" d="M65.45,80.92c-0.35,7.2-0.78,14.74-4.67,21.04c-0.68,1.1,1.09,2.03,1.77,0.94c4.07-6.6,4.54-14.52,4.9-22.06
		C67.51,79.55,65.51,79.64,65.45,80.92z"/>
	<path class="st10" d="M76.89,116.09c-2.09,7.27-6.38,24.22-7.83,31.65c-0.25,1.26,1.7,1.72,1.95,0.45
		c1.44-7.43,5.74-24.38,7.83-31.65C79.19,115.3,77.24,114.85,76.89,116.09z"/>
	<path class="st10" d="M80.36,146.89c-4.26,0.53-8.65,0.72-12.89,0.04c0.07,0.46,0.05,0.93-0.08,1.36c-0.06,0.21-0.15,0.41-0.25,0.6
		c4.37,0.7,8.89,0.55,13.3-0.01C81.7,148.73,81.63,146.73,80.36,146.89z"/>
	<path class="st10" d="M83.21,132.14c-1.25,4.75-2.5,9.49-3.74,14.24c-0.33,1.25,1.62,1.7,1.95,0.45c1.25-4.75,2.5-9.49,3.74-14.24
		C85.49,131.34,83.54,130.9,83.21,132.14z"/>
	<path class="st10" d="M82.87,113.2c-0.18,0.81-0.36,1.64-0.66,2.42c-0.2,0.52-0.67,1.75-1.31,1.9c-0.55,0.13-0.99-1.37-1.14-1.77
		c-0.33-0.87-0.58-1.77-0.72-2.69c-0.17-1.08-1.65-1.33-1.97-0.19c-0.31,1.08-0.81,2.12-1.52,3c-0.2,0.25-0.8,1.15-1.17,1.13
		c-0.21-0.01-0.51-0.58-0.6-0.73c-0.93-1.47-1.72-3.03-2.4-4.64c-0.05,0.03-0.09,0.07-0.14,0.11c-0.19,0.14-0.39,0.27-0.59,0.41
		c-0.21,0.13-0.44,0.21-0.68,0.22c-0.15,0.03-0.29,0.03-0.44,0.02c0.33,0.76,0.68,1.51,1.05,2.25c0.39,0.77,0.81,1.53,1.25,2.27
		c0.36,0.6,0.73,1.21,1.31,1.63c1.83,1.33,3.53-0.45,4.65-2.4c0.12,0.35,0.26,0.69,0.41,1.03c0.51,1.13,1.21,2.45,2.65,2.38
		c2.66-0.13,3.51-3.87,3.96-5.9C85.1,112.39,83.15,111.94,82.87,113.2z"/>
	<path class="st10" d="M88.64,116.23c-3.18,4.46-8.31,8.33-13.96,8.59c-2.69,0.12-5.18-0.84-6.92-2.87
		c-0.16,0.78-0.33,1.55-0.53,2.32c1.98,1.75,4.5,2.6,7.18,2.55c6.39-0.13,12.25-4.36,15.85-9.4C91,116.37,89.39,115.19,88.64,116.23
		z"/>
	<g>
		<path class="st83" d="M182.58,37.52c-2.03-1.22-4.08-2.35-6.17-1.51c-2.15-0.36-4.1,1.14-5.69,2.62
			c-1.85,1.73-3.42,3.81-4.57,6.07c-1.13,2.23-2.26,4.99-2.11,7.54c0.16,2.61,1.89,5.05,3.83,6.69c1.91,1.62,4.32,2.74,6.86,2.68
			c2.48-0.06,4.78-1.18,6.6-2.81c2.03-1.82,3.33-4.29,4.19-6.85c0.86-2.56,1.58-5.51,1.59-8.22
			C187.13,40.71,185.14,39.06,182.58,37.52z"/>
		<path class="st84" d="M178.21,40.24c-0.89-1.08-2.31-1.42-3.65-1.19c-1.45,0.24-2.65,1.23-3.58,2.31
			c-0.96,1.11-1.82,2.34-2.47,3.66c-1.31,2.68-1.71,5.88-0.45,8.6c-0.1,0.55,0.18,1.19,0.87,1.3c0.31,0.18,0.67,0.17,0.98,0.03
			c2.42-0.09,4.82-1.17,6.44-2.99c1.93-2.16,2.7-5.21,2.84-8.05C179.26,42.63,179.06,41.26,178.21,40.24z"/>
		<path class="st85" d="M180.55,38.51c-0.75-1.03-2.49-0.03-1.73,1.01c0.97,1.33,1.07,2.93,1.02,4.53c-0.06,1.7-0.34,3.39-0.92,5
			c-1.02,2.84-3.15,5.36-6.04,6.39c-1.2,0.43-0.69,2.36,0.53,1.93c3.5-1.24,6.02-4.08,7.33-7.5c0.71-1.85,1.03-3.85,1.09-5.82
			C181.9,42.13,181.71,40.11,180.55,38.51z"/>
		<g>
			<path class="st10" d="M179.32,36.31c-1.2-0.48-1.95,1.38-0.75,1.85c3.91,1.56,3.15,6.59,2.24,9.78
				c-0.99,3.49-2.56,7.28-5.96,9.04c-2.82,1.46-6.25,0.72-8.27-1.73c-2.5-3.03-1.35-7.25,0.43-10.33c1.96-3.38,5.03-7.86,9.46-7.56
				c1.28,0.09,1.52-1.9,0.23-1.99c-4.88-0.33-8.24,3.56-10.65,7.3c-2.43,3.77-4.25,8.8-1.64,12.97c1.99,3.18,6.07,4.85,9.69,3.79
				c4.53-1.33,7.04-5.72,8.34-9.95C183.79,45.05,184.71,38.46,179.32,36.31z"/>
			<path class="st10" d="M175.69,43.53c0.54,1.17,2.38,0.37,1.83-0.8c-0.72-1.54-2.48-2.09-4.04-1.58
				c-1.46,0.49-2.93,1.93-2.74,3.57c0.19,1.63,1.74,2.52,2.71,3.66c0.83,0.97,1.48,2.55,0.16,3.42c-1.41,0.93-3.14,0.02-4.19-1.02
				c-0.38-0.38-0.95-0.53-1.4-0.16c-0.38,0.3-0.55,1.02-0.16,1.4c1.44,1.42,3.43,2.58,5.52,2.02c2-0.53,3.37-2.35,2.92-4.45
				c-0.23-1.05-0.81-1.96-1.53-2.73c-0.61-0.65-1.47-1.21-1.91-2.01C172.15,43.57,175.03,42.1,175.69,43.53z"/>
			<path class="st10" d="M174.94,40c-1.62,4.64-3.43,9.22-5.41,13.73c-0.52,1.18,1.34,1.93,1.85,0.75c1.98-4.5,3.78-9.08,5.41-13.73
				C177.22,39.54,175.37,38.79,174.94,40z"/>
			<path class="st10" d="M187.66,42.91c-0.51-3.21-3.17-5.81-6.39-6.26c-1.26-0.18-1.8,1.75-0.53,1.93
				c2.79,0.39,4.87,2.55,5.03,5.39c0.17,3.11-0.85,6.5-2.12,9.31c-1.2,2.64-2.87,5.59-5.93,6.25c-3.25,0.7-6.4-0.96-9.19-2.4
				c-1.14-0.59-2.15,1.14-1.01,1.73c3.38,1.75,7.21,3.59,11.11,2.51c3.52-0.98,5.53-4.3,6.92-7.45
				C186.99,50.63,188.24,46.53,187.66,42.91z"/>
			<path class="st10" d="M181.69,56.89c-0.05-0.07-0.1-0.14-0.16-0.2c-0.12-0.12-0.27-0.21-0.44-0.26
				c-0.81-0.34-1.63-0.68-2.44-1.02c-0.22-0.09-0.57-0.01-0.77,0.1c-0.21,0.12-0.41,0.36-0.46,0.6c-0.06,0.26-0.05,0.54,0.1,0.77
				c0.05,0.07,0.1,0.13,0.16,0.2c0.12,0.12,0.27,0.21,0.44,0.26c0.81,0.34,1.63,0.68,2.44,1.02c0.22,0.09,0.57,0.01,0.77-0.1
				c0.21-0.12,0.41-0.36,0.46-0.6C181.85,57.4,181.84,57.12,181.69,56.89z"/>
			<path class="st10" d="M183.83,51.04c-0.1,0-0.2-0.01-0.3-0.02c-0.28-0.05-0.56-0.12-0.82-0.22c-0.18-0.08-0.36-0.17-0.53-0.28
				c-0.21-0.14-0.53-0.17-0.77-0.1c-0.23,0.06-0.48,0.24-0.6,0.46c-0.26,0.5-0.11,1.07,0.36,1.37c0.79,0.5,1.72,0.77,2.66,0.8
				c0.25,0.01,0.53-0.12,0.71-0.29c0.17-0.17,0.3-0.46,0.29-0.71C184.81,51.48,184.39,51.05,183.83,51.04z"/>
			<path class="st10" d="M186.3,45.96c-0.07-0.23-0.23-0.5-0.46-0.6c-0.72-0.31-1.41-0.69-2.06-1.13c-0.21-0.14-0.54-0.17-0.77-0.1
				c-0.23,0.06-0.48,0.24-0.6,0.46c-0.12,0.23-0.18,0.51-0.1,0.77c0.08,0.26,0.23,0.45,0.46,0.6c0.65,0.44,1.34,0.82,2.06,1.13
				c0.11,0.07,0.24,0.11,0.37,0.12c0.13,0.03,0.27,0.02,0.4-0.02c0.23-0.06,0.48-0.24,0.6-0.46
				C186.32,46.5,186.38,46.22,186.3,45.96z"/>
		</g>
	</g>
	<g>
		<path class="st83" d="M257.67,133.63c-2.03-1.22-4.08-2.35-6.17-1.51c-2.15-0.36-4.1,1.14-5.69,2.62
			c-1.85,1.73-3.42,3.81-4.57,6.07c-1.13,2.23-2.26,4.99-2.11,7.54c0.16,2.61,1.89,5.05,3.83,6.69c1.91,1.62,4.32,2.74,6.86,2.68
			c2.48-0.06,4.78-1.18,6.6-2.81c2.03-1.82,3.33-4.29,4.19-6.85c0.86-2.56,1.58-5.51,1.59-8.22
			C262.22,136.81,260.22,135.17,257.67,133.63z"/>
		<path class="st84" d="M253.3,136.34c-0.89-1.08-2.31-1.42-3.65-1.19c-1.45,0.24-2.65,1.23-3.58,2.31
			c-0.96,1.11-1.82,2.34-2.47,3.66c-1.31,2.68-1.71,5.88-0.45,8.6c-0.1,0.55,0.18,1.19,0.87,1.3c0.31,0.18,0.67,0.17,0.98,0.03
			c2.42-0.09,4.82-1.17,6.44-2.99c1.93-2.16,2.7-5.21,2.84-8.05C254.34,138.73,254.14,137.36,253.3,136.34z"/>
		<path class="st85" d="M255.63,134.62c-0.75-1.03-2.49-0.03-1.73,1.01c0.97,1.33,1.07,2.93,1.02,4.53c-0.06,1.7-0.34,3.39-0.92,5
			c-1.02,2.84-3.15,5.36-6.04,6.39c-1.2,0.43-0.69,2.36,0.53,1.93c3.5-1.24,6.02-4.08,7.33-7.5c0.71-1.85,1.03-3.85,1.09-5.82
			C256.98,138.24,256.79,136.21,255.63,134.62z"/>
		<g>
			<path class="st10" d="M254.4,132.42c-1.2-0.48-1.95,1.38-0.75,1.85c3.91,1.56,3.15,6.59,2.24,9.78
				c-0.99,3.49-2.56,7.28-5.96,9.04c-2.82,1.46-6.25,0.72-8.27-1.73c-2.5-3.03-1.35-7.25,0.43-10.33c1.96-3.38,5.03-7.86,9.46-7.56
				c1.28,0.09,1.52-1.9,0.23-1.99c-4.88-0.33-8.24,3.56-10.65,7.3c-2.43,3.77-4.25,8.8-1.64,12.97c1.99,3.18,6.07,4.85,9.69,3.79
				c4.53-1.33,7.04-5.72,8.34-9.95C258.88,141.16,259.79,134.57,254.4,132.42z"/>
			<path class="st10" d="M250.77,139.64c0.54,1.17,2.38,0.37,1.83-0.8c-0.72-1.54-2.48-2.09-4.04-1.58
				c-1.46,0.49-2.93,1.93-2.74,3.57c0.19,1.63,1.74,2.52,2.71,3.66c0.83,0.97,1.48,2.55,0.16,3.42c-1.41,0.93-3.14,0.02-4.19-1.02
				c-0.38-0.38-0.95-0.53-1.4-0.16c-0.38,0.3-0.55,1.02-0.16,1.4c1.44,1.42,3.43,2.58,5.52,2.02c2-0.53,3.37-2.35,2.92-4.45
				c-0.23-1.05-0.81-1.96-1.53-2.74c-0.61-0.65-1.47-1.21-1.91-2.01C247.23,139.68,250.11,138.21,250.77,139.64z"/>
			<path class="st10" d="M250.02,136.11c-1.62,4.64-3.43,9.22-5.41,13.73c-0.52,1.18,1.34,1.93,1.85,0.75
				c1.98-4.5,3.78-9.08,5.41-13.73C252.3,135.65,250.45,134.89,250.02,136.11z"/>
			<path class="st10" d="M262.74,139.01c-0.51-3.21-3.17-5.81-6.39-6.26c-1.26-0.18-1.8,1.75-0.53,1.93
				c2.79,0.39,4.87,2.55,5.03,5.39c0.17,3.11-0.85,6.5-2.12,9.31c-1.2,2.64-2.87,5.59-5.93,6.25c-3.25,0.7-6.4-0.96-9.19-2.4
				c-1.14-0.59-2.15,1.14-1.01,1.73c3.38,1.75,7.21,3.59,11.11,2.51c3.52-0.98,5.53-4.3,6.92-7.45
				C262.07,146.74,263.32,142.63,262.74,139.01z"/>
			<path class="st10" d="M256.78,152.99c-0.05-0.07-0.1-0.14-0.16-0.2c-0.12-0.12-0.27-0.21-0.44-0.26
				c-0.81-0.34-1.63-0.68-2.44-1.02c-0.22-0.09-0.57-0.01-0.77,0.1c-0.21,0.12-0.41,0.36-0.46,0.6c-0.06,0.26-0.05,0.54,0.1,0.77
				c0.05,0.07,0.1,0.13,0.16,0.2c0.12,0.12,0.27,0.21,0.44,0.26c0.81,0.34,1.63,0.68,2.44,1.02c0.22,0.09,0.57,0.01,0.77-0.1
				c0.21-0.12,0.41-0.36,0.46-0.6C256.93,153.51,256.92,153.22,256.78,152.99z"/>
			<path class="st10" d="M258.92,147.14c-0.1,0-0.2-0.01-0.3-0.02c-0.28-0.05-0.56-0.12-0.82-0.22c-0.18-0.08-0.36-0.17-0.53-0.28
				c-0.21-0.14-0.53-0.17-0.77-0.1c-0.23,0.06-0.48,0.24-0.6,0.46c-0.26,0.5-0.11,1.07,0.36,1.37c0.79,0.5,1.72,0.77,2.66,0.8
				c0.25,0.01,0.53-0.12,0.71-0.29c0.17-0.17,0.3-0.46,0.29-0.71C259.89,147.59,259.48,147.16,258.92,147.14z"/>
			<path class="st10" d="M261.38,142.07c-0.07-0.23-0.23-0.5-0.46-0.6c-0.72-0.31-1.41-0.69-2.06-1.13
				c-0.21-0.14-0.54-0.17-0.77-0.1c-0.23,0.06-0.48,0.24-0.6,0.46c-0.12,0.23-0.18,0.51-0.1,0.77c0.08,0.26,0.23,0.45,0.46,0.6
				c0.65,0.44,1.34,0.82,2.06,1.13c0.11,0.07,0.24,0.11,0.37,0.12c0.13,0.03,0.27,0.02,0.4-0.02c0.23-0.06,0.48-0.24,0.6-0.46
				C261.4,142.61,261.46,142.33,261.38,142.07z"/>
		</g>
	</g>
	<g>
		<g>
			<path class="st30" d="M122.92,146.91c-0.15-1.64-0.11-3.49-1.8-4.28c-3.31-1.54-7.66-1.04-11.18-0.83
				c-7.98,0.46-17.96,0.61-25.95,0.33c-3.84-0.13-7.69-0.58-11.53-0.57c-3.08,0.01-7.36,1.13-7.75,4.78c0,0.03,0.01,0.06,0,0.1
				c-0.79,4.47-1.12,9-0.98,13.54c0.06,2.02,0.02,4.24,0.67,6.17c0.68,2.01,2.38,2.87,4.27,3.51c6.45,2.2,13.37,1.18,20.09,1.65
				c0.06-0.1,0.13-0.18,0.2-0.27c0.41,0.18,0.88,0.23,1.35,0.13c1.07-0.24,2.17-0.17,3.25-0.16c1.26,0.02,2.51-0.03,3.76-0.15
				c2.55-0.23,5.09-0.68,7.61-1.13c0.34-0.06,0.62-0.24,0.85-0.47c2.11-0.11,4.99-0.23,6.58-0.42c2.02-0.24,4.04-0.6,5.99-1.2
				c1.59-0.48,3.47-0.96,4-2.73c0.59-1.95,0.6-4.21,0.72-6.24c0.11-1.8,0.16-3.6,0.15-5.4
				C123.21,151.15,123.11,149.02,122.92,146.91z"/>
			<path class="st10" d="M124.85,146.17c-0.16-1.64-0.31-3.37-1.62-4.55c-1.26-1.13-3.17-1.48-4.79-1.71
				c-2.04-0.3-4.09-0.32-6.14-0.24c-8.79,0.35-19.51,0.76-28.31,0.46c-2.47-0.09-4.94-0.21-7.41-0.37c-2.2-0.14-4.41-0.34-6.6-0.02
				c-3.6,0.53-7.08,2.96-7.28,6.86c0,0,0,0,0,0c-0.76,4.58-1.11,9.22-0.93,13.86c0.15,3.93,0.17,7.44,4.17,9.42
				c3.54,1.75,9.1,1.98,15,1.98c5.63,0,11.68-0.2,11.68-0.23c4.7-0.3,19.2-0.55,22.97-1.25c3.24-0.6,7.81-1.42,8.76-5.12
				c0.5-1.94,0.57-4.09,0.71-6.08c0.14-2.12,0.2-4.25,0.17-6.38C125.19,150.57,125.07,148.37,124.85,146.17z M123.08,158.68
				c-0.13,2.02-0.13,4.29-0.72,6.24c-0.53,1.77-2.41,2.25-4,2.73c-1.95,0.59-3.97,0.96-5.99,1.2c-1.98,0.24-5.97,0.37-7.96,0.5
				c-1.07,0.07-11.75,0.26-12.82,0.35c-0.37,0.03-0.77,0.05-1.16,0.09c0,0,0,0.01,0.01,0.01c-6.76-0.06-16.18,0.95-21.85-0.99
				c-1.89-0.65-3.49-0.65-4.17-2.66c-0.65-1.93-0.61-4.16-0.67-6.17c-0.14-4.54,0.2-9.07,0.98-13.54c0.01-0.04,0-0.06,0-0.1
				c0.39-3.65,4.67-4.77,7.75-4.78c3.84-0.01,7.69,0.43,11.53,0.57c7.99,0.27,17.97,0.13,25.95-0.33c3.52-0.21,7.87-0.71,11.18,0.83
				c1.69,0.79,1.65,2.65,1.8,4.28c0.19,2.12,0.29,4.25,0.31,6.37C123.24,155.08,123.19,156.88,123.08,158.68z"/>
			<g>
				<path class="st4" d="M92.32,159c-0.03-2.84-0.12-5.68-0.28-8.52c-0.07-1.25,0.12-3.07-0.64-4.13c-0.76-1.06-2.19-0.99-3.34-1.07
					c-2.14-0.14-5.1-0.57-6.78,1.16c-0.86,0.88-1.08,2.08-1.13,3.29c-0.05,1.37-0.03,2.76-0.01,4.13c0.04,3.19,0.15,6.41,0.51,9.58
					c0.09,0.82,0.36,1.49,1.11,1.87c0.69,0.35,1.59,0.25,2.35,0.23c0.51,0.11,1.02,0.17,1.48,0.22c1.28,0.15,2.6,0.04,3.85-0.27
					c1.24-0.31,2.4-0.9,2.75-2.26C92.53,161.91,92.34,160.36,92.32,159z"/>
			</g>
			<g>
				<path class="st4" d="M106.21,158.97c-0.03-2.84-0.12-5.68-0.28-8.52c-0.07-1.25,0.12-3.07-0.64-4.13
					c-0.76-1.06-2.19-0.99-3.34-1.07c-2.14-0.14-5.1-0.57-6.78,1.16c-0.86,0.88-1.08,2.08-1.13,3.29c-0.05,1.37-0.03,2.76-0.01,4.13
					c0.04,3.19,0.15,6.41,0.51,9.58c0.09,0.82,0.36,1.49,1.11,1.87c0.69,0.35,1.59,0.25,2.35,0.23c0.51,0.11,1.02,0.17,1.48,0.22
					c1.28,0.15,2.6,0.04,3.85-0.27c1.24-0.31,2.4-0.9,2.75-2.26C106.42,161.88,106.23,160.32,106.21,158.97z"/>
			</g>
			<g>
				<path class="st4" d="M120.22,158.97c-0.03-2.84-0.12-5.68-0.28-8.52c-0.07-1.25,0.12-3.07-0.64-4.13
					c-0.76-1.06-2.19-0.99-3.34-1.07c-2.14-0.14-5.1-0.57-6.78,1.16c-0.86,0.88-1.08,2.08-1.13,3.29c-0.05,1.37-0.03,2.76-0.01,4.13
					c0.04,3.19,0.15,6.41,0.51,9.58c0.09,0.82,0.36,1.49,1.11,1.87c0.69,0.35,1.59,0.25,2.35,0.23c0.51,0.11,1.02,0.17,1.48,0.22
					c1.28,0.15,2.6,0.04,3.85-0.27c1.24-0.31,2.4-0.9,2.75-2.26C120.42,161.88,120.23,160.32,120.22,158.97z"/>
			</g>
			<g>
				<path class="st4" d="M78.43,159.04c-0.03-2.84-0.12-5.68-0.28-8.52c-0.07-1.25,0.12-3.07-0.64-4.13
					c-0.76-1.06-2.19-0.99-3.34-1.07c-2.14-0.14-5.1-0.57-6.78,1.16c-0.86,0.88-1.08,2.08-1.13,3.29c-0.05,1.37-0.03,2.76-0.01,4.13
					c0.04,3.19,0.15,6.41,0.51,9.58c0.09,0.82,0.36,1.49,1.11,1.87c0.69,0.35,1.59,0.25,2.35,0.23c0.51,0.11,1.02,0.17,1.48,0.22
					c1.28,0.15,2.6,0.04,3.85-0.27c1.24-0.31,2.4-0.9,2.75-2.26C78.64,161.95,78.45,160.39,78.43,159.04z"/>
			</g>
		</g>
		<path class="st10" d="M109.34,133.75c-0.15-1.4,0.02-3.73-1.79-4.31c-1.01-0.32-2.26-0.31-3.32-0.41
			c-1.14-0.11-2.28-0.2-3.42-0.27c-2.53-0.16-5.06-0.23-7.6-0.22c-2.53,0.01-5.07,0.12-7.6,0.31c-1.96,0.15-4.37,0.1-6.19,0.84
			c-1.79,0.74-2.21,2.35-2.5,3.95c-0.4,2.19-0.53,4.4-0.39,6.62c0.06,1.06,1.75,1.13,1.96,0.23c9.66,1.75,19.57-0.23,29.33,0.37
			c0.24,0.95,1.98,0.89,1.95-0.19C109.73,138.37,109.59,136.06,109.34,133.75z"/>
		<g>
			<path class="st4" d="M89.22,130.96c-0.57-0.15-1.03,0.2-1.22,0.71c-0.46,1.22-0.98,2.42-1.56,3.6c-0.29,0.59-0.6,1.18-0.92,1.76
				c-0.14,0.25-0.28,0.49-0.42,0.74c-0.12-0.22-0.24-0.45-0.36-0.67c-0.31-0.58-0.6-1.16-0.89-1.75c-0.57-1.16-1.09-2.34-1.57-3.55
				c-0.2-0.5-0.68-0.85-1.24-0.69c-0.48,0.14-0.89,0.73-0.69,1.24c0.92,2.3,1.98,4.55,3.18,6.73c0.34,0.61,0.74,1.29,1.52,1.32
				c0.81,0.03,1.17-0.6,1.53-1.21c0.6-1.02,1.16-2.06,1.68-3.12c0.62-1.27,1.17-2.57,1.67-3.89
				C90.12,131.68,89.71,131.09,89.22,130.96z"/>
			<path class="st4" d="M93.53,130.84c-1.29,0.01-1.27,2.01,0.02,2C94.83,132.83,94.82,130.83,93.53,130.84z"/>
			<path class="st4" d="M93.13,133.8c-0.54,0.03-1,0.45-0.99,1.01c0.02,1.62-0.03,3.24-0.15,4.86c-0.04,0.52,0.5,1.02,1.01,0.99
				c0.58-0.03,0.95-0.45,0.99-1.01c0.12-1.62,0.17-3.24,0.15-4.86C94.14,134.27,93.67,133.77,93.13,133.8z"/>
			<path class="st4" d="M104.92,137.78c-1.76,0.22-3.53,0.32-5.3,0.32c0.03-0.03,0.05-0.06,0.08-0.09c0.56-0.57,1.12-1.14,1.68-1.71
				c1.13-1.15,2.26-2.31,3.39-3.46c0.64-0.65,0.12-1.65-0.72-1.7c-2.17-0.14-4.34-0.26-6.51-0.35c-0.54-0.02-1,0.49-0.99,1.01
				c0.01,0.56,0.47,0.97,1.01,0.99c1.41,0.06,2.83,0.15,4.24,0.23c-0.65,0.66-1.3,1.32-1.94,1.98c-1.1,1.12-2.33,2.21-3.17,3.55
				c-0.43,0.68,0.16,1.46,0.88,1.5c2.47,0.13,4.94,0.04,7.39-0.27c0.54-0.07,1-0.42,0.99-1.01
				C105.93,138.28,105.46,137.72,104.92,137.78z"/>
		</g>
		<path class="st10" d="M75.18,148.45c-0.48,0-0.79,0.31-0.92,0.71c-1.09-0.58-2.39-0.62-3.56-0.11c-1.46,0.65-2.33,2.12-2.53,3.67
			c-0.19,1.48,0.23,3.32,1.67,4.06c1.33,0.68,2.6,0,3.57-0.95c-0.03,0.28-0.07,0.55-0.1,0.83c-0.18,1.5-0.51,4.26-2.61,4.03
			c-0.54-0.06-1,0.5-1,1c0,0.59,0.46,0.94,1,1c2.69,0.3,4.11-2.45,4.44-4.68c0.42-2.83,0.7-5.7,1.04-8.54
			C76.21,148.91,75.7,148.45,75.18,148.45z M70.33,154.48c-0.44-0.97-0.21-2.3,0.48-3.09c0.68-0.78,2-1.02,2.8-0.29
			c0.08,0.07,0.16,0.1,0.24,0.14c-0.23,0.76-0.56,1.5-1.01,2.17C72.38,154.09,70.97,155.89,70.33,154.48z"/>
		<path class="st10" d="M103.92,151.15c-0.46-1.16-1.46-2.04-2.7-1.98c-2.72-0.9-4.07,2.17-4.81,4.2c-0.78,2.15-1.33,4.88-0.04,6.95
			c1.21,1.95,3.7,2.73,5.63,1.31c2.01-1.49,2.29-4.07,2.39-6.39C104.45,153.9,104.42,152.42,103.92,151.15z M102.4,155.03
			c-0.05,1.48-0.07,3.4-1.12,4.58c-0.9,1.01-2.21,1.01-3.04-0.08c-1-1.31-0.63-3.2-0.21-4.65c0.27-0.93,0.62-1.82,1.08-2.67
			c0.32-0.6,0.68-1.24,1.38-1.14c0.2,0.13,0.46,0.19,0.76,0.11C102.52,150.86,102.42,154.43,102.4,155.03z"/>
		<path class="st10" d="M89.91,150.87c-0.46-1.16-1.46-2.04-2.7-1.98c-2.72-0.9-4.07,2.17-4.81,4.2c-0.78,2.15-1.33,4.88-0.04,6.95
			c1.21,1.95,3.7,2.73,5.63,1.31c2.01-1.48,2.29-4.07,2.39-6.39C90.44,153.62,90.41,152.14,89.91,150.87z M88.39,154.75
			c-0.05,1.48-0.07,3.4-1.12,4.58c-0.9,1.01-2.21,1.01-3.04-0.08c-1-1.31-0.63-3.2-0.21-4.65c0.27-0.93,0.62-1.82,1.08-2.67
			c0.32-0.6,0.68-1.24,1.38-1.14c0.2,0.13,0.46,0.19,0.76,0.11C88.51,150.58,88.41,154.14,88.39,154.75z"/>
		<path class="st10" d="M118,151.06c-0.46-1.16-1.46-2.04-2.7-1.98c-2.72-0.9-4.07,2.17-4.81,4.2c-0.78,2.15-1.33,4.88-0.04,6.95
			c1.21,1.95,3.7,2.73,5.63,1.31c2.01-1.48,2.29-4.07,2.39-6.39C118.53,153.81,118.5,152.33,118,151.06z M116.48,154.93
			c-0.05,1.48-0.07,3.4-1.12,4.58c-0.9,1.01-2.21,1.01-3.04-0.08c-1-1.31-0.63-3.2-0.21-4.65c0.27-0.93,0.62-1.82,1.08-2.67
			c0.32-0.6,0.68-1.24,1.38-1.14c0.2,0.13,0.46,0.19,0.76,0.11C116.59,150.77,116.5,154.33,116.48,154.93z"/>
	</g>
	<g>
		<path class="st83" d="M165.86,96.8c-0.82-0.95-1.98-1.56-3.15-1.97c-0.9-0.32-1.9-0.5-2.87-0.42c-0.19-0.08-0.4-0.12-0.66-0.11
			c-2.93,0.13-4.63,2.55-5.42,5.13c-0.44,1.43-0.72,2.91-0.91,4.4c-0.18,1.36-0.24,2.8,0.2,4.13c0.85,2.58,3.23,4.38,5.96,4.44
			c2.68,0.06,4.91-1.65,6.24-3.86c1.38-2.29,2.02-5.2,1.97-7.86C167.2,99.25,166.81,97.9,165.86,96.8z"/>
		<path class="st84" d="M159.02,99.42c0.03-0.09,0.06-0.18,0.06-0.27c0-0.55-0.46-0.99-1-1c-1.02-0.02-1.77,0.69-2.29,1.49
			c-0.52,0.81-0.94,1.73-1.2,2.65c-0.49,1.78-0.45,4,1.2,5.17c0.44,0.31,1.11,0.08,1.37-0.36c0.04-0.07,0.05-0.14,0.07-0.21
			c0.31-0.19,0.55-0.49,0.7-0.87c0.61-1.5,0.96-3.06,1.14-4.67c0.02-0.18-0.03-0.38-0.11-0.57c0.04-0.15,0.08-0.29,0.12-0.44
			C159.16,100.04,159.13,99.72,159.02,99.42z"/>
		<path class="st10" d="M158.79,93.74c-1.28,0.06-1.29,2.06,0,2c2.42-0.12,2.62,3.87,2.57,5.53c-0.06,2.25-0.76,4.47-2,6.35
			c-0.57,0.87-1.3,1.78-2.28,2.21c-1.07,0.47-2.11-0.01-2.83-0.86c-1.57-1.84-1.45-4.54-0.85-6.73c0.35-1.3,0.83-2.61,1.46-3.8
			c0.52-0.98,1.2-1.92,2.32-2.22c1.24-0.33,0.71-2.26-0.53-1.93c-2.92,0.79-4.15,4.13-4.97,6.72c-0.95,2.98-1.11,6.51,0.92,9.09
			c0.89,1.13,2.24,1.99,3.72,1.93c1.5-0.05,2.81-0.98,3.77-2.08c1.98-2.28,3.09-5.29,3.25-8.29
			C163.51,98.75,162.72,93.55,158.79,93.74z"/>
		<path class="st10" d="M159.64,98.27c-0.19-0.5-0.67-0.85-1.23-0.7c-0.48,0.13-0.89,0.72-0.7,1.23c1.06,2.79,0.2,5.69-1.36,8.1
			c-0.7,1.08,1.03,2.09,1.73,1.01C159.9,105.09,160.88,101.52,159.64,98.27z"/>
		<path class="st10" d="M163.78,108.86c-0.14-0.21-0.34-0.41-0.6-0.46c-0.5-0.1-1-0.2-1.5-0.3c-0.27-0.05-0.53-0.04-0.77,0.1
			c-0.21,0.12-0.41,0.36-0.46,0.6c-0.06,0.26-0.05,0.54,0.1,0.77c0.14,0.21,0.34,0.41,0.6,0.46c0.5,0.1,1,0.2,1.5,0.3
			c0.27,0.05,0.53,0.04,0.77-0.1c0.21-0.12,0.41-0.36,0.46-0.6C163.94,109.37,163.93,109.09,163.78,108.86z"/>
		<path class="st10" d="M165.38,104.74c-0.15-0.23-0.34-0.37-0.6-0.46c-0.56-0.19-1.13-0.38-1.69-0.56
			c-0.24-0.08-0.56-0.02-0.77,0.1c-0.21,0.12-0.41,0.36-0.46,0.6c-0.06,0.26-0.05,0.54,0.1,0.77c0.15,0.23,0.34,0.37,0.6,0.46
			c0.56,0.19,1.13,0.38,1.69,0.56c0.24,0.08,0.56,0.02,0.77-0.1c0.21-0.12,0.41-0.36,0.46-0.6
			C165.54,105.25,165.53,104.97,165.38,104.74z"/>
		<path class="st10" d="M166.49,99.62c-0.21-0.19-0.43-0.27-0.71-0.29c-0.04,0-0.08-0.01-0.12-0.01c-0.55-0.08-1.08-0.23-1.59-0.44
			c0.01,0,0.02,0.01,0.02,0.01c-0.24-0.1-0.47-0.16-0.74-0.09c-0.23,0.06-0.48,0.24-0.6,0.46c-0.12,0.23-0.18,0.51-0.1,0.77
			c0.08,0.23,0.23,0.49,0.46,0.6c0.42,0.19,0.85,0.36,1.29,0.48c0.45,0.12,0.91,0.19,1.37,0.23c0.24,0.02,0.54-0.13,0.71-0.29
			c0.17-0.17,0.3-0.46,0.29-0.71C166.77,100.07,166.69,99.8,166.49,99.62z"/>
		<path class="st10" d="M167.24,97.11c-1.5-2.33-4.43-3.17-7.05-3.49c-1.27-0.15-1.26,1.82,0,1.98c2.03,0.25,4.49,0.93,5.53,2.84
			c1.06,1.96,0.58,4.29-0.12,6.28c-0.65,1.87-1.51,3.79-2.95,5.2c-0.79,0.77-1.69,1.39-2.84,1.26c-1.18-0.13-2.37-0.46-3.52-0.75
			c-1.25-0.32-1.78,1.59-0.53,1.91c1.4,0.36,2.93,0.81,4.39,0.85c1.36,0.04,2.52-0.66,3.52-1.51c2.01-1.72,3.16-4.31,3.97-6.75
			C168.47,102.4,168.75,99.46,167.24,97.11z"/>
	</g>
	<g>
		<path class="st83" d="M224.2,48.12c-0.82-0.95-1.98-1.56-3.15-1.97c-0.9-0.32-1.9-0.5-2.87-0.42c-0.19-0.08-0.4-0.12-0.66-0.11
			c-2.93,0.13-4.63,2.55-5.42,5.13c-0.44,1.43-0.72,2.91-0.91,4.4c-0.18,1.36-0.24,2.8,0.2,4.13c0.85,2.58,3.23,4.38,5.96,4.44
			c2.68,0.06,4.91-1.65,6.24-3.86c1.38-2.29,2.02-5.2,1.97-7.86C225.54,50.56,225.15,49.22,224.2,48.12z"/>
		<path class="st84" d="M217.36,50.74c0.03-0.09,0.06-0.18,0.06-0.27c0-0.55-0.46-0.99-1-1c-1.02-0.02-1.77,0.69-2.29,1.49
			c-0.52,0.81-0.94,1.73-1.2,2.65c-0.49,1.78-0.45,4,1.2,5.17c0.44,0.31,1.11,0.08,1.37-0.36c0.04-0.07,0.05-0.14,0.07-0.21
			c0.31-0.19,0.55-0.49,0.7-0.87c0.61-1.5,0.96-3.06,1.14-4.67c0.02-0.18-0.03-0.38-0.11-0.57c0.04-0.15,0.08-0.29,0.12-0.44
			C217.5,51.36,217.47,51.04,217.36,50.74z"/>
		<path class="st10" d="M217.13,45.06c-1.28,0.06-1.29,2.06,0,2c2.42-0.12,2.62,3.87,2.57,5.53c-0.06,2.25-0.76,4.47-2,6.35
			c-0.57,0.87-1.3,1.78-2.28,2.21c-1.07,0.47-2.11-0.01-2.83-0.86c-1.57-1.84-1.45-4.54-0.85-6.73c0.35-1.3,0.83-2.61,1.46-3.8
			c0.52-0.98,1.2-1.92,2.32-2.22c1.24-0.33,0.71-2.26-0.53-1.93c-2.92,0.79-4.14,4.13-4.97,6.72c-0.95,2.98-1.11,6.51,0.92,9.09
			c0.89,1.13,2.24,1.99,3.72,1.93c1.5-0.05,2.81-0.98,3.77-2.08c1.98-2.28,3.09-5.29,3.25-8.29
			C221.85,50.07,221.06,44.87,217.13,45.06z"/>
		<path class="st10" d="M217.99,49.59c-0.19-0.5-0.67-0.85-1.23-0.7c-0.48,0.13-0.89,0.72-0.7,1.23c1.06,2.79,0.2,5.69-1.36,8.1
			c-0.7,1.08,1.03,2.09,1.73,1.01C218.25,56.41,219.22,52.84,217.99,49.59z"/>
		<path class="st10" d="M222.12,60.18c-0.14-0.21-0.34-0.41-0.6-0.46c-0.5-0.1-1-0.2-1.5-0.3c-0.27-0.05-0.53-0.04-0.77,0.1
			c-0.21,0.12-0.41,0.36-0.46,0.6c-0.06,0.26-0.05,0.54,0.1,0.77c0.14,0.21,0.34,0.41,0.6,0.46c0.5,0.1,1,0.2,1.5,0.3
			c0.27,0.05,0.53,0.04,0.77-0.1c0.21-0.12,0.41-0.36,0.46-0.6C222.28,60.69,222.27,60.4,222.12,60.18z"/>
		<path class="st10" d="M223.73,56.06c-0.15-0.23-0.34-0.37-0.6-0.46c-0.56-0.19-1.13-0.38-1.69-0.56c-0.24-0.08-0.56-0.02-0.77,0.1
			c-0.21,0.12-0.41,0.36-0.46,0.6c-0.06,0.26-0.05,0.54,0.1,0.77c0.15,0.23,0.34,0.37,0.6,0.46c0.56,0.19,1.13,0.38,1.69,0.56
			c0.24,0.08,0.56,0.02,0.77-0.1c0.21-0.12,0.41-0.36,0.46-0.6C223.88,56.57,223.87,56.28,223.73,56.06z"/>
		<path class="st10" d="M224.83,50.94c-0.2-0.19-0.43-0.27-0.71-0.29c-0.04,0-0.08-0.01-0.12-0.01c-0.55-0.08-1.08-0.23-1.59-0.44
			c0.01,0,0.02,0.01,0.02,0.01c-0.24-0.1-0.47-0.16-0.74-0.09c-0.23,0.06-0.48,0.24-0.6,0.46c-0.12,0.23-0.18,0.51-0.1,0.77
			c0.08,0.23,0.23,0.49,0.46,0.6c0.42,0.19,0.85,0.36,1.29,0.48c0.45,0.12,0.91,0.19,1.37,0.23c0.24,0.02,0.54-0.13,0.71-0.29
			c0.17-0.17,0.3-0.46,0.29-0.71C225.11,51.39,225.03,51.12,224.83,50.94z"/>
		<path class="st10" d="M225.58,48.42c-1.5-2.33-4.43-3.17-7.05-3.49c-1.27-0.15-1.26,1.82,0,1.98c2.03,0.25,4.49,0.93,5.53,2.84
			c1.06,1.96,0.58,4.29-0.12,6.28c-0.65,1.87-1.51,3.79-2.95,5.2c-0.79,0.77-1.69,1.39-2.84,1.26c-1.18-0.13-2.37-0.46-3.52-0.75
			c-1.25-0.32-1.78,1.59-0.53,1.91c1.4,0.36,2.93,0.81,4.39,0.85c1.36,0.04,2.52-0.66,3.52-1.51c2.01-1.72,3.16-4.31,3.97-6.75
			C226.81,53.72,227.09,50.77,225.58,48.42z"/>
	</g>
	<g>
		<path class="st10" d="M79.76,97.94c-0.51-0.79-1.48-0.9-2.34-0.88c-1,0.02-2,0.14-2.97,0.36c-1.49,0.34-2.89,0.93-4.19,1.7
			c-0.28-1.17-0.7-2.31-1.28-3.37c-0.69-1.27-1.81-3.21-3.55-2.74c-1.8,0.49-1.27,3.05-1.3,4.41c-0.05,1.95-1.54,7.5-1.81,9.43
			c-0.08,0.54,0.47,1.01,0.97,1.03c0.59,0.02,0.96-0.44,1.03-0.97c0.2-1.44,1.67-6.49,1.75-7.94c0.04-0.63,0.06-1.27,0.07-1.9
			c0.01-0.36,0.01-0.73,0.01-1.09c0-0.17,0.06-0.61,0.03-0.87c0.01,0.01,0.02,0.01,0.03,0.02c0.21,0.21,0.38,0.49,0.54,0.74
			c0.3,0.47,0.58,0.96,0.81,1.47c0.55,1.16,0.87,2.39,1.03,3.66c0.11,0.83,1.13,0.89,1.66,0.49c1.19-0.88,2.56-1.55,3.99-1.96
			c0.72-0.2,1.45-0.36,2.19-0.43c0.35-0.04,0.7-0.05,1.05-0.06c0.11,0,0.24,0.02,0.37,0.02c-0.15,0.17-0.33,0.41-0.39,0.47
			c-0.21,0.18-0.44,0.34-0.68,0.49c-0.54,0.32-1.11,0.57-1.69,0.78c-1.28,0.47-2.59,0.86-3.79,1.52c-1.12,0.62-0.17,2.38,0.96,1.76
			c1.54-0.86,3.28-1.21,4.86-1.97C78.47,101.45,80.91,99.71,79.76,97.94z"/>
		<path class="st10" d="M76.06,102.69c-0.1-0.51-0.71-0.88-1.21-0.74c-0.54,0.16-0.84,0.66-0.74,1.21c0.01,0.04,0.02,0.09,0.02,0.13
			c0,0.02,0,0.02,0.01,0.03c0,0.07,0,0.15,0,0.16c0,0.14,0,0.3-0.03,0.44c0,0.01,0,0,0,0.01c-0.01,0.04-0.02,0.09-0.03,0.13
			c-0.02,0.09-0.05,0.17-0.07,0.26c-0.03,0.08-0.06,0.17-0.09,0.25c-0.01,0.02-0.02,0.05-0.03,0.06c-0.08,0.16-0.18,0.31-0.28,0.46
			c-0.02,0.02-0.04,0.05-0.05,0.07c-0.05,0.05-0.1,0.11-0.15,0.16c-0.06,0.06-0.13,0.12-0.2,0.18c-0.03,0.02-0.05,0.04-0.08,0.07
			c-0.15,0.1-0.3,0.19-0.46,0.26c-0.47,0.22-0.67,0.91-0.4,1.36c0.29,0.49,0.85,0.64,1.36,0.4
			C75.45,106.74,76.43,104.63,76.06,102.69z"/>
		<path class="st10" d="M75.54,105.72c-0.29-0.44-0.87-0.69-1.36-0.4c-0.43,0.26-0.71,0.89-0.4,1.36c0.05,0.07,0.09,0.14,0.13,0.22
			c0.01,0.01,0.04,0.08,0.05,0.12c0.01,0.05,0.03,0.11,0.03,0.11c0.02,0.07,0.02,0.14,0.04,0.21c0,0.01,0,0,0.01,0.01
			c0,0.01,0,0.01,0,0.02c0,0.09,0,0.17,0,0.26c0,0.07-0.01,0.14-0.02,0.21c0,0.01,0,0,0,0.01c0,0.01,0,0.01-0.01,0.03
			c-0.04,0.14-0.08,0.28-0.13,0.41c-0.01,0.02-0.01,0.03-0.01,0.04c-0.01,0.01-0.01,0.02-0.02,0.04c-0.04,0.06-0.07,0.12-0.11,0.18
			c-0.04,0.06-0.08,0.12-0.12,0.18c-0.01,0.01-0.04,0.06-0.07,0.09c-0.03,0.03-0.08,0.09-0.09,0.1c-0.06,0.06-0.12,0.12-0.18,0.18
			c-0.1,0.1-0.21,0.19-0.32,0.28c-0.02,0.02-0.02,0.02-0.03,0.03c0,0,0,0-0.01,0c-0.06,0.04-0.12,0.08-0.18,0.12
			c-0.27,0.17-0.56,0.32-0.86,0.45c-0.06,0.03-0.13,0.05-0.19,0.08c-0.02,0.01-0.18,0.07-0.18,0.07c-0.16,0.06-0.32,0.11-0.48,0.16
			c-0.36,0.11-0.72,0.21-1.08,0.3c-0.5,0.14-0.89,0.68-0.74,1.21c0.15,0.51,0.67,0.88,1.21,0.74c1.58-0.42,3.26-0.92,4.41-2.16
			C75.99,109.15,76.51,107.22,75.54,105.72z"/>
		<path class="st10" d="M71,113.04c-3.72-0.63-7.1-2.48-9.63-5.29c-0.86-0.96-2.26,0.48-1.4,1.43c2.74,3.04,6.5,5.11,10.54,5.79
			c0.53,0.09,1.07-0.17,1.21-0.73C71.86,113.76,71.54,113.13,71,113.04z"/>
		<path class="st10" d="M69.02,114.66c-0.99,4.26-2.25,8.46-3.81,12.55c-0.77,2.04-1.62,4.06-2.53,6.04
			c-0.88,1.9-1.74,3.98-3.04,5.64c-1.21,1.54-3.54,2.9-5.32,1.41c-1.65-1.38-1.5-3.88-1.21-5.8c0.61-4.05,2.25-7.89,3.83-11.64
			c1.77-4.21,3.5-8.42,4.16-12.97c0.19-1.27-1.81-1.32-2-0.06c-0.69,4.7-2.67,9.07-4.49,13.42c-1.73,4.14-3.67,8.7-3.68,13.26
			c-0.01,3.97,3.04,7.71,7.26,5.98c2.02-0.83,3.35-2.61,4.36-4.48c1.15-2.13,2.16-4.36,3.11-6.59c2.23-5.23,3.98-10.65,5.27-16.18
			C71.22,114,69.32,113.4,69.02,114.66z"/>
	</g>
	<g>
		<path class="st10" d="M77.68,94.04c-0.11,0.01-0.23,0.01-0.34,0.01c-0.02,0-0.13-0.02-0.17-0.02c0.03,0,0.06,0.01,0,0
			c0,0-0.01,0-0.01,0c0,0-0.01,0-0.01,0c0,0,0,0,0.01,0c-0.03,0-0.05-0.01-0.08-0.01c-0.11-0.02-0.22-0.05-0.33-0.09
			c-0.05-0.02-0.11-0.04-0.16-0.06c0,0,0,0,0,0c-0.03-0.01-0.06-0.03-0.09-0.04c-0.1-0.05-0.2-0.11-0.3-0.17
			c-0.05-0.03-0.09-0.06-0.14-0.1c0,0-0.01-0.01-0.01-0.01c-0.02-0.01-0.04-0.03-0.05-0.04c-0.09-0.08-0.18-0.16-0.26-0.25
			c-0.03-0.04-0.07-0.08-0.1-0.12c0,0,0,0,0,0c-0.02-0.03-0.04-0.06-0.06-0.09c-0.15-0.22-0.45-0.33-0.68-0.18
			c-0.22,0.14-0.34,0.45-0.18,0.68c0.65,0.97,1.8,1.57,2.97,1.48c0.26-0.02,0.51-0.22,0.5-0.5C78.17,94.29,77.96,94.02,77.68,94.04z
			"/>
		<path class="st10" d="M77.17,94.03c-0.01,0-0.01,0-0.01,0c0,0,0,0,0,0C77.16,94.03,77.17,94.03,77.17,94.03z"/>
	</g>
	<path class="st10" d="M132.32,103.22c-2.95-0.66-5.91-1.32-8.86-1.98c-1.25-0.28-1.79,1.65-0.53,1.93c2.02,0.45,4.04,0.9,6.07,1.36
		l3.03,0.68c0.42,0.09,0.96,0.14,1.35,0.33c0.62,0.3,0.6,0.78,0.45,1.39c-0.94,3.91-2.21,7.75-3.73,11.47
		c-0.77,1.89-1.62,3.74-2.54,5.57c-0.39,0.77-0.78,1.98-1.71,2.18c-1.03,0.22-2.46-0.36-3.48-0.6c-1.01-0.24-2.02-0.49-3.02-0.77
		c-0.46-0.13-0.92-0.26-1.38-0.39c-0.33-0.1-1.27-0.21-1.45-0.51c-0.29-0.45,0.44-2.22,0.59-2.8c0.28-1.05,0.59-2.09,0.92-3.13
		c1.41-4.45,3.16-8.77,4.92-13.09c0.48-1.19-1.45-1.71-1.93-0.53c-1.93,4.75-3.87,9.51-5.33,14.43c-0.35,1.19-0.68,2.39-0.97,3.6
		c-0.24,0.99-0.61,2.19,0.26,2.99c0.73,0.67,2,0.84,2.91,1.11c1.23,0.35,2.46,0.68,3.7,0.97c1.99,0.47,4.67,1.54,6.32-0.2
		c0.7-0.74,1.12-1.75,1.56-2.65c0.57-1.16,1.12-2.33,1.63-3.51c1.95-4.46,3.76-9.21,4.73-14
		C136.38,104.44,134.5,103.7,132.32,103.22z"/>
	<path class="st10" d="M130.24,109.66c-1.15-1.17-2.76-1.98-4.44-1.78c-1.68,0.2-3.41,1.41-3.54,3.22
		c-0.06,0.83,0.34,1.63,0.94,2.19c0.63,0.59,1.41,0.88,2.16,1.26c1.06,0.54,2.03,1.88,1.1,3c-0.5,0.6-1.39,0.55-2.09,0.38
		c-0.85-0.2-1.58-0.63-2.19-1.25c-0.91-0.92-2.32,0.5-1.41,1.41c1.17,1.19,2.83,1.96,4.52,1.94c1.81-0.02,3.27-1.26,3.5-3.07
		c0.22-1.68-0.82-3.26-2.26-4.06c-0.66-0.36-1.5-0.57-2.02-1.14c-0.44-0.48-0.19-1.02,0.27-1.41c1.27-1.09,3.03-0.33,4.05,0.7
		C129.73,111.99,131.15,110.57,130.24,109.66z"/>
	<path class="st10" d="M126.37,107.29c-1.22,4.38-2.44,8.76-3.66,13.14c-0.35,1.24,1.58,1.77,1.93,0.53
		c1.22-4.38,2.44-8.76,3.66-13.14C128.64,106.58,126.71,106.05,126.37,107.29z"/>
	<path class="st10" d="M116.97,117.84c-0.3-0.93-1.1-2.17-2.17-2.26c-1.31-0.11-1.78,1.42-1.97,2.45c-0.19,1.02-0.24,2.07-0.4,3.09
		c-0.18,1.14-0.43,2.26-0.73,3.37c-0.34,1.24,1.59,1.77,1.93,0.53c0.39-1.41,0.67-2.83,0.87-4.28c0.09-0.63,0.13-1.27,0.22-1.91
		c0.04-0.26,0.1-0.52,0.17-0.77c0.06,0.1,0.13,0.2,0.17,0.31C115.44,119.59,117.37,119.07,116.97,117.84z"/>
	<path class="st10" d="M53.32,141.51c-1.4,5.91-4.5,11.28-8.86,15.5c-0.93,0.9,0.62,2.17,1.53,1.29c4.61-4.47,7.82-10.21,9.3-16.45
		C55.59,140.59,53.61,140.26,53.32,141.51z"/>
	<g>
		<path class="st6" d="M196.57,72.04c1.18-1.48,2.88-1.29,4.51-0.81c1.87,0.56,3.73,1.13,5.63,1.6c3.78,0.95,7.6,1.5,11.47,0.86
			c0.15-0.02,0.29-0.02,0.42-0.01c0.11-0.04,0.22-0.07,0.35-0.09c0.83-0.13,1.64,0.08,2.32,0.53c0.56-0.33,1.29-0.4,1.85-0.17
			c1.09,0.44,1.4,1.57,1.09,2.61c-0.93,3.19-1.41,6.49-1.44,9.8c0.34,0.46,0.61,0.95,0.75,1.51c0.35,1.41,0.15,2.67-0.42,3.77
			c0.03,0.2,0.04,0.4,0.07,0.59c0.24,1.65-1.33,2.47-2.57,2.16c-2.74,2-6.7,3.09-9.28,3.3c-5.52,0.45-12.27-1.64-15.22-6.67
			c-1.7-2.9-1.3-6.1-1.04-9.3c0.15-1.78,0.29-3.56,0.44-5.34C195.62,74.94,195.61,73.24,196.57,72.04z"/>
		<path class="st6" d="M205.44,99.24c0.41-0.75,1.06-1.24,1.83-1.49c0.17-0.59,0.66-1.09,1.31-1.11c0.26-0.01,0.52,0.05,0.75,0.16
			c0.02-0.01,0.04-0.03,0.06-0.03c0.77-0.24,1.65,0.12,1.92,0.91c0.19,0.55,0.37,1.27,0.46,2.01c0.02,0.04,0.04,0.07,0.06,0.11
			c0.35,0.81,0.28,1.81-0.18,2.56c-0.25,0.41-0.56,0.79-0.99,1.03c-0.2,0.11-0.4,0.22-0.62,0.28c-0.41,0.11-0.65,0.1-1.08,0.08
			c-0.17-0.01-0.35-0.09-0.52-0.21c-0.01,0.01-0.02,0.03-0.03,0.05c-0.54,0.62-1.43,0.86-2.18,0.49c-0.94-0.47-1.14-1.54-1.18-2.48
			C205,100.8,205.06,99.94,205.44,99.24z"/>
		<path class="st8" d="M238.76,76.56c0-0.11,0.02-0.22,0.04-0.32c-0.91-1.98-1.83-3.96-3.07-5.77c-2-2.93-4.78-5.16-8.28-5.94
			c0,0-0.01,0-0.01,0c-0.68-1.12-1.69-2.08-2.78-2.84c-2.05-1.44-4.37-2.8-6.79-3.58c-3.68-0.72-7.25,0.4-10.82,1.43
			c-3.41,0.99-6.89,1.71-10.37,1.09c-0.22,0.06-0.44,0.11-0.65,0.16c-1.23,0.32-2.68,0.52-3.55,1.56c-0.94,1.13-0.74,2.23-0.09,3.2
			c-0.03,0.18-0.05,0.37-0.04,0.56c0.23,5.8-0.41,11.68-1.89,17.29c-0.65,2.47-1.48,4.91-2.44,7.28c-0.51,1.26-1.06,2.49-1.66,3.71
			c-0.5,1.03-1.29,2.09-1.43,3.25c-0.04,0.3-0.02,0.58,0.04,0.83c3.64,3.16,7.61,5.79,12.24,7.38c1.89-0.08,3.8-0.81,4.98-2.33
			c1.61-2.06,1.35-4.74-0.71-6.35c-1.63-1.27-3.49-2.1-4.94-3.64c-1.42-1.5-2.36-3.22-2.5-5.31c-0.03-0.51-0.22-0.89-0.5-1.16
			c0.45-1.46,0.85-2.93,1.2-4.41c1.06-4.5,1.57-9.08,1.61-13.69c6.94,4.54,15.98,5.61,23.77,2.78c0.36,0.52,0.76,1.01,1.25,1.43
			c0.99,0.85,2.04,1.16,3.18,1.39c-0.01,0.21-0.02,0.42-0.03,0.62c-0.04,0.65-0.07,1.3-0.11,1.95c-0.06,1.14-0.13,2.27-0.19,3.41
			c-0.13,2.41-0.25,4.82-0.4,7.22c-0.11,1.76-0.22,3.75-1.73,4.91c-1.42,1.09-3.22,1.6-4.59,2.78c-1.39,1.2-1.95,3.03-0.93,4.66
			c1.01,1.61,2.92,2.25,4.57,2.98c0.53,0.24,1.06,0.47,1.59,0.71c6.03-5.32,11.35-11.39,14.95-18.42c-0.06-0.24-0.07-0.49-0.02-0.73
			C238.24,81.85,238.75,79.37,238.76,76.56z"/>
		<path class="st10" d="M213.22,97.76c0.58,0.04,0.93,0.47,0.97,1.03c0.02,0.38,0.05,0.76,0.09,1.14c0,0.02,0,0.03,0,0.04
			c0,0.01,0,0.02,0,0.04c0.01,0.09,0.02,0.17,0.03,0.26c0.02,0.19,0.05,0.38,0.07,0.57c0.1,0.74,0.23,1.47,0.39,2.2
			c0.11,0.51-0.2,1.1-0.74,1.21c-0.52,0.1-1.09-0.19-1.21-0.74c-0.33-1.58-0.54-3.18-0.64-4.79
			C212.16,98.2,212.72,97.72,213.22,97.76z"/>
		<path class="st10" d="M202.93,103.66c-0.09,0.2,0.06-0.14,0.08-0.17c0.04-0.08,0.07-0.16,0.11-0.25c0.08-0.19,0.16-0.39,0.23-0.58
			c0.14-0.36,0.26-0.73,0.37-1.11c0.11-0.37,0.21-0.75,0.29-1.13c0.04-0.2,0.08-0.41,0.12-0.62c0-0.02,0.01-0.04,0.01-0.05
			c0-0.01,0-0.02,0.01-0.04c0.02-0.12,0.04-0.24,0.05-0.35c0.07-0.52,0.45-1.01,1.03-0.97c0.49,0.04,1.04,0.48,0.97,1.03
			c-0.25,1.85-0.77,3.6-1.56,5.3c-0.22,0.48-0.97,0.6-1.38,0.32C202.75,104.7,202.69,104.17,202.93,103.66z"/>
		<path class="st10" d="M198.43,68.27c7.1,4.6,16.37,5.21,23.99,1.5c1.16-0.56,2.11,1.19,0.96,1.76c-8.25,4.01-18.3,3.43-26-1.56
			C196.29,69.26,197.35,67.57,198.43,68.27z"/>
		<path class="st10" d="M203.47,103c0.81,0.57,1.76,0.63,2.72,0.68c1,0.05,2,0.06,3,0c2.02-0.12,4.02-0.58,5.81-1.55
			c1.13-0.61,2.09,1.14,0.96,1.76c-2.11,1.14-4.45,1.65-6.83,1.79c-1.14,0.07-2.28,0.06-3.41-0.02c-1.16-0.08-2.33-0.28-3.31-0.96
			C201.36,103.96,202.42,102.26,203.47,103z"/>
		<path class="st10" d="M205.64,83.8c1.43-0.53,1.97-2.21,2.35-3.53c0.18-0.62,1.13-0.32,0.96,0.3c-0.42,1.46-1.03,2.97-2.3,3.81
			c0.38,0.26,0.81,0.43,1.28,0.49c0.27,0.03,0.49,0.23,0.48,0.52c-0.01,0.25-0.25,0.52-0.52,0.48c-0.96-0.12-1.83-0.53-2.5-1.23
			C205.11,84.33,205.3,83.92,205.64,83.8z"/>
		<path class="st10" d="M192.81,84.1c0.39-4.31,2.33-8.54,1.63-12.91c-0.2-1.26,1.74-1.74,1.94-0.47c0.7,4.34-0.91,8.35-1.47,12.59
			c-0.55,4.09,0.6,7.87,3.65,10.72c6.74,6.3,16.95,3.41,23.26-1.9c0.98-0.83,2.36,0.63,1.37,1.46c-5.45,4.58-12.67,7.36-19.77,5.35
			C196.82,97.09,192.18,91.02,192.81,84.1z"/>
		<path class="st10" d="M219.31,72.73c0.74-0.34,1.07-0.52,1.63-1.08c1.3,1.24,2.6,2.48,3.9,3.72c0.38,0.36,0.35,1.07-0.04,1.41
			c-0.43,0.37-1.01,0.34-1.41-0.04c-1.39-1.33-2.79-2.66-4.18-3.99C219.23,72.75,219.27,72.75,219.31,72.73z"/>
		<path class="st10" d="M238.95,76.08c0.05-0.7,0.07-1.4,0.08-2.11c-2.39-4.44-5.59-8.48-10.68-9.88c-1.24-0.34-1.61,1.63-0.37,1.96
			c5.54,1.53,8.39,6.69,10.69,11.68C238.74,77.18,238.83,76.62,238.95,76.08z"/>
		<path class="st10" d="M195.59,105.25c0.29-0.52,0.14-1.35-0.62-1.58c-3.74-1.11-7.09-3.26-9.67-6.17
			c5.69-7.64,6.91-17.37,7.88-26.6c0.13-1.27-1.83-1.65-1.96-0.37c-0.96,9.12-2.04,18.94-7.95,26.37c0,0-0.01,0.01-0.01,0.02
			C186.94,100.36,190.93,103.34,195.59,105.25z"/>
		<path class="st10" d="M191.01,59.73c0.17-0.56,0.81-1.09,1.42-0.71c5.92,3.65,13.01-0.26,19.17-1.15
			c4.91-0.71,13.14-0.33,15.18,5.29c0.44,1.21-1.45,1.88-1.89,0.67c-0.99-2.73-4.59-3.75-7.18-4.09c-3.07-0.41-6.24,0.04-9.22,0.77
			c-5.12,1.25-10.76,3.25-15.78,0.93c-0.19,1.95,0.53,3.87,2.11,5.19c0.99,0.83-0.33,2.34-1.31,1.51
			C191.1,66.1,190.06,62.76,191.01,59.73z"/>
		<path class="st10" d="M224.55,75.89c-0.72,7.17-1.39,14.7,1.52,21.5c0.51,1.19-1.38,1.85-1.89,0.67
			c-3.05-7.12-2.35-15.03-1.6-22.54C222.71,74.24,224.68,74.62,224.55,75.89z"/>
		<path class="st10" d="M208.06,109c1,7.5,2.75,24.9,3.09,32.46c0.06,1.28-1.94,1.45-1.99,0.16c-0.33-7.56-2.09-24.96-3.09-32.46
			C205.9,107.88,207.9,107.73,208.06,109z"/>
		<path class="st10" d="M202.57,105.26c0.06,0.83,0.11,1.67,0.29,2.49c0.12,0.55,0.41,1.83,1.01,2.07c0.53,0.21,1.18-1.21,1.39-1.58
			c0.45-0.81,0.83-1.66,1.11-2.55c0.33-1.05,1.83-1.07,1.98,0.11c0.15,1.12,0.49,2.21,1.06,3.19c0.16,0.28,0.62,1.25,0.99,1.29
			c0.21,0.02,0.59-0.5,0.7-0.63c1.69-1.95,3.12-4.15,4.33-6.43c0.6-1.13,2.4-0.26,1.8,0.88c-0.81,1.53-1.72,3-2.72,4.41
			c-0.5,0.7-1.02,1.39-1.57,2.06c-0.44,0.54-0.9,1.09-1.53,1.42c-2,1.04-3.43-0.96-4.25-3.05c-0.17,0.33-0.36,0.65-0.56,0.96
			c-0.67,1.04-1.56,2.24-2.97,1.96c-2.61-0.52-2.9-4.34-3.05-6.42C200.48,104.14,202.48,103.98,202.57,105.26z"/>
		<path class="st10" d="M203.31,78.29c-0.24-0.43-0.61-0.79-1.07-0.96c-0.49-0.18-1-0.06-1.46,0.15c-1.67,0.77-2.95,2.36-3.63,4.03
			c-0.1,0.25,0.11,0.55,0.35,0.61c0.29,0.08,0.51-0.1,0.62-0.35c0.54-1.32,1.52-2.46,2.74-3.2c0.28-0.17,0.65-0.4,0.99-0.32
			c0.32,0.08,0.53,0.38,0.66,0.66c0.35,0.78,0.43,1.73,0.45,2.57c0.02,0.64,1.02,0.64,1,0C203.93,80.45,203.82,79.23,203.31,78.29z"
			/>
		<path class="st10" d="M217.74,78.99c-0.24-0.43-0.61-0.79-1.07-0.96c-0.49-0.18-1-0.06-1.46,0.15c-1.67,0.77-2.95,2.36-3.63,4.03
			c-0.1,0.25,0.11,0.55,0.35,0.61c0.29,0.08,0.51-0.1,0.62-0.35c0.54-1.32,1.52-2.46,2.74-3.2c0.28-0.17,0.65-0.4,0.99-0.32
			c0.32,0.08,0.53,0.38,0.66,0.66c0.35,0.78,0.43,1.73,0.45,2.57c0.02,0.64,1.02,0.64,1,0C218.36,81.15,218.25,79.93,217.74,78.99z"
			/>
		<path class="st10" d="M199.86,78.22c-0.28-0.4-0.56-0.8-0.83-1.2c-0.08-0.11-0.17-0.19-0.3-0.23c-0.12-0.03-0.28-0.02-0.39,0.05
			c-0.11,0.07-0.2,0.17-0.23,0.3c-0.03,0.13-0.03,0.28,0.05,0.39c0.28,0.4,0.56,0.8,0.83,1.2c0.08,0.11,0.17,0.19,0.3,0.23
			c0.12,0.03,0.28,0.02,0.39-0.05c0.11-0.07,0.2-0.17,0.23-0.3C199.94,78.48,199.94,78.33,199.86,78.22z"/>
		<path class="st10" d="M198.87,79.39c-0.04-0.12-0.11-0.23-0.23-0.3c-0.1-0.06-0.19-0.12-0.28-0.19c-0.17-0.14-0.32-0.29-0.46-0.46
			c-0.02-0.03-0.04-0.06-0.06-0.09c-0.07-0.11-0.17-0.19-0.3-0.23c-0.12-0.03-0.28-0.02-0.39,0.05c-0.11,0.07-0.2,0.17-0.23,0.3
			c-0.03,0.13-0.02,0.27,0.05,0.39c0.3,0.45,0.69,0.83,1.16,1.09c0.11,0.06,0.26,0.09,0.39,0.05c0.12-0.03,0.24-0.12,0.3-0.23
			C198.89,79.66,198.92,79.51,198.87,79.39z"/>
		<path class="st10" d="M219.16,78.18c-0.21-0.19-0.5-0.19-0.71,0c-0.08,0.07-0.16,0.14-0.24,0.2c-0.25,0.19-0.51,0.36-0.78,0.5
			c-0.11,0.06-0.2,0.18-0.23,0.3c-0.03,0.12-0.02,0.28,0.05,0.39c0.15,0.24,0.44,0.31,0.68,0.18c0.44-0.23,0.85-0.52,1.22-0.86
			c0.09-0.08,0.15-0.23,0.15-0.35C219.3,78.41,219.25,78.26,219.16,78.18z"/>
		<path class="st10" d="M220.08,79.61c-0.14-0.21-0.46-0.34-0.68-0.18c-0.36,0.25-0.74,0.47-1.14,0.64
			c-0.07,0.03-0.14,0.06-0.21,0.08c-0.12,0.05-0.23,0.11-0.3,0.23c-0.06,0.11-0.09,0.27-0.05,0.39c0.08,0.24,0.35,0.45,0.62,0.35
			c0.56-0.21,1.1-0.48,1.6-0.82c0.11-0.08,0.19-0.17,0.23-0.3C220.16,79.88,220.15,79.72,220.08,79.61z"/>
		<path class="st10" d="M212.34,86.38c-1.81,1.25-4.13,1.05-6.21,0.86c-0.2-0.02-0.33,0.07-0.4,0.2c-0.21-0.57-1.13-0.31-0.95,0.29
			c0.34,1.13,0.77,2.23,1.28,3.28c0.26,0.54,0.55,1.07,0.86,1.58c0.28,0.47,0.59,0.95,1.01,1.31c0.79,0.67,1.98,0.85,2.75,0.03
			c0.35-0.37,0.55-0.85,0.75-1.31c0.23-0.54,0.45-1.09,0.64-1.65c0.45-1.31,0.79-2.66,1.01-4.03
			C213.14,86.56,212.73,86.11,212.34,86.38z M211.16,90.51c-0.22,0.65-0.46,1.29-0.74,1.92c-0.18,0.4-0.41,0.98-0.9,1.06
			c-0.56,0.09-1.03-0.36-1.34-0.77c-0.37-0.5-0.67-1.06-0.96-1.61c-0.49-0.93-0.88-1.91-1.22-2.9c0.04,0.01,0.08,0.03,0.13,0.04
			c1.91,0.17,3.98,0.29,5.76-0.48C211.69,88.69,211.47,89.61,211.16,90.51z"/>
		<path class="st4" d="M211.16,90.51c-0.22,0.65-0.46,1.29-0.74,1.92c-0.18,0.4-0.41,0.98-0.9,1.06c-0.56,0.09-1.03-0.36-1.34-0.77
			c-0.37-0.5-0.67-1.06-0.96-1.61c-0.49-0.93-0.88-1.91-1.22-2.9c0.04,0.01,0.08,0.03,0.13,0.04c1.91,0.17,3.98,0.29,5.76-0.48
			C211.69,88.69,211.47,89.61,211.16,90.51z"/>
		<path class="st81" d="M210.79,91.38c0.02,0.02,0,0.02-0.1-0.05c-0.04-0.01-0.08-0.03-0.12-0.04c-0.11-0.03-0.22-0.06-0.33-0.09
			c-0.05-0.01-0.11-0.02-0.16-0.03c0,0,0,0,0,0c-0.01,0-0.02,0-0.03,0c-0.09-0.01-0.19-0.02-0.28-0.03c-0.24-0.01-0.48-0.01-0.72,0
			c-0.11,0.01-0.23,0.02-0.34,0.03c-0.06,0.01-0.13,0.02-0.19,0.03c-0.23,0.04-0.45,0.1-0.68,0.17c-0.08,0.03-0.17,0.06-0.25,0.09
			c-0.01,0-0.01,0-0.01,0.01c-0.04,0.02-0.07,0.04-0.11,0.06c0.22,0.41,0.45,0.81,0.72,1.18c0.31,0.41,0.78,0.86,1.34,0.77
			c0.49-0.08,0.72-0.66,0.9-1.06c0.15-0.34,0.27-0.69,0.4-1.03C210.81,91.39,210.8,91.39,210.79,91.38z"/>
		<path class="st10" d="M212.5,88.6c-0.21-0.21-0.49-0.17-0.71,0c-0.3,0.24-0.77,0.27-1.14,0.31c-0.5,0.05-0.99,0.09-1.49,0.11
			c-1,0.04-1.99,0-2.99-0.1c-0.27-0.03-0.5,0.25-0.5,0.5c0,0.29,0.23,0.47,0.5,0.5c1.11,0.11,2.22,0.15,3.33,0.09
			c1-0.05,2.17-0.05,2.99-0.69C212.71,89.14,212.67,88.78,212.5,88.6z"/>
		<g>
			<path class="st10" d="M239.49,74.17c-2.9,11.21-7.06,25.55-19.99,28.61c-1.25,0.3-0.72,2.22,0.53,1.93
				c13.67-3.23,18.3-18.08,21.38-30C241.74,73.46,239.82,72.93,239.49,74.17z"/>
			<path class="st10" d="M250.18,76.19c-0.11,0.04-0.22,0.08-0.34,0.1c-0.22,0.04-0.47,0.08-0.69,0.06
				c-0.17-0.02-0.31-0.04-0.44-0.07c0.06,0.4-0.01,0.86-0.02,1.31c-0.03,0.97-0.08,1.94-0.16,2.91c-0.3,3.94-0.99,7.85-2.11,11.64
				c-2.02,6.84-5.53,13.24-10.56,18.34c-2.74,2.79-5.89,5.11-9.37,6.9c-1.15,0.59-0.13,2.31,1.01,1.73
				c14.76-7.56,22.17-23.74,23.1-39.72c0.05-0.94,0.28-2.28,0.14-3.46C250.56,76.03,250.37,76.11,250.18,76.19z"/>
			<path class="st10" d="M254.94,61.53c-0.13-0.7-0.64-1.3-1.4-1.34c-0.79-0.04-1.46,0.58-2.02,1.06c-0.34,0.29-0.67,0.61-0.97,0.94
				c0.02-0.79,0.04-1.57,0.02-2.36c-0.01-0.41-0.3-0.88-0.73-0.96c-1.58-0.31-2.58,0.9-3.15,2.22c-0.23,0.54-0.43,1.08-0.62,1.63
				c-0.13-0.46-0.25-0.93-0.38-1.39c-0.17-0.6-0.44-1.18-1.07-1.4c-0.73-0.25-1.42,0.15-1.86,0.7c-1.33,1.66-1.45,3.86-1.25,5.98
				c-0.42-0.31-0.85-0.62-1.29-0.89c-0.78-0.48-1.95-0.65-2.48,0.28c-0.53,0.93,0.27,2.36,0.6,3.24c0.44,1.19,0.94,2.36,1.47,3.5
				c0.54,1.17,2.27,0.15,1.73-1.01c-0.56-1.2-1.05-2.43-1.49-3.68c0.04,0.02,0.08,0.05,0.11,0.07c0.72,0.52,1.43,1.04,2.15,1.55
				c0.79,0.57,1.59-0.37,1.47-1.13c-0.31-1.89-0.66-4.04,0.09-5.87c0.02-0.05,0.05-0.1,0.08-0.15c0,0.01,0.01,0.02,0.01,0.03
				c0.08,0.28,0.15,0.56,0.23,0.84c0.31,1.13,0.61,2.25,0.92,3.38c0.25,0.91,1.73,1,1.93,0c0.24-1.22,0.56-2.42,0.97-3.6
				c0.06-0.17,0.28-0.9,0.55-1.51c-0.03,1.39-0.09,2.77-0.26,4.16c-0.12,0.98,1.46,1.38,1.86,0.5c0.54-1.15,1.23-2.19,2.13-3.09
				c0.18-0.18,0.36-0.35,0.55-0.51c-0.02,0.14-0.04,0.29-0.07,0.42c-0.57,2.67-1.52,5.23-2.82,7.64c-0.61,1.13,1.12,2.14,1.73,1.01
				c0.88-1.64,1.63-3.36,2.21-5.13c0.29-0.89,0.54-1.79,0.74-2.71C254.82,63.2,255.09,62.33,254.94,61.53z"/>
			<path class="st10" d="M249.78,75.34c-3.8,0.42-5.57-0.85-9.13-2.03c-1.22-0.41-1.75,1.52-0.53,1.93c3.71,1.24,5.7,2.54,9.66,2.1
				c0.54-0.06,1-0.42,1-1C250.78,75.84,250.32,75.28,249.78,75.34z"/>
		</g>
		<path class="st10" d="M175.37,79.3c4.68,10.59,11.11,24.07,24.36,24.99c1.28,0.09,1.07,2.08-0.21,1.99
			c-14.02-0.97-20.99-14.87-25.96-26.14C173.03,78.96,174.85,78.13,175.37,79.3z"/>
		<path class="st10" d="M195.88,119.81c-3.73-1.2-7.21-2.98-10.37-5.29c-5.78-4.22-10.29-9.96-13.39-16.39
			c-1.72-3.56-3.03-7.3-3.97-11.14c-0.23-0.95-0.44-1.9-0.63-2.85c-0.11-0.55-0.31-1.12-0.22-1.59c-0.05-0.05-0.11-0.07-0.15-0.12
			c0-0.01-0.01-0.01-0.02-0.02c-0.05,0.03-0.1,0.05-0.15,0.07c-0.17,0.09-0.36,0.13-0.56,0.12h-0.47c-0.26,0-0.5-0.07-0.72-0.19
			c-0.06,1.29,0.45,2.79,0.68,3.81c3.51,15.61,13.45,30.38,29.24,35.45C196.39,122.07,197.1,120.2,195.88,119.81z"/>
		<path class="st10" d="M158.08,69.34c0.02-0.71,0.42-1.39,1.16-1.55c0.77-0.17,1.53,0.34,2.16,0.72c0.39,0.23,0.75,0.49,1.11,0.77
			c-0.15-0.77-0.3-1.55-0.41-2.33c-0.06-0.41,0.15-0.92,0.57-1.07c1.51-0.56,2.69,0.47,3.47,1.68c0.31,0.49,0.6,1,0.88,1.51
			c0.05-0.48,0.09-0.95,0.15-1.43c0.07-0.62,0.24-1.24,0.83-1.55c0.68-0.36,1.42-0.09,1.95,0.39c1.58,1.42,2.06,3.58,2.2,5.7
			c0.37-0.38,0.74-0.75,1.13-1.09c0.69-0.6,1.82-0.96,2.49-0.12c0.67,0.83,0.11,2.37-0.07,3.3c-0.24,1.24-0.54,2.48-0.89,3.7
			c-0.35,1.24-2.21,0.52-1.87-0.72c0.36-1.28,0.64-2.57,0.87-3.87c-0.03,0.03-0.07,0.06-0.1,0.09c-0.62,0.63-1.24,1.25-1.87,1.88
			c-0.68,0.69-1.63-0.11-1.63-0.88c0-1.92,0-4.09-1.04-5.78c-0.03-0.05-0.06-0.09-0.1-0.14c0,0.01,0,0.02-0.01,0.03
			c-0.03,0.29-0.06,0.58-0.09,0.87c-0.12,1.16-0.24,2.32-0.36,3.48c-0.1,0.94-1.55,1.26-1.9,0.31c-0.43-1.17-0.94-2.3-1.54-3.39
			c-0.09-0.16-0.42-0.84-0.79-1.4c0.25,1.37,0.54,2.72,0.93,4.06c0.27,0.94-1.21,1.59-1.76,0.8c-0.72-1.05-1.57-1.96-2.6-2.7
			c-0.2-0.15-0.41-0.28-0.63-0.42c0.04,0.14,0.08,0.28,0.13,0.4c1,2.54,2.35,4.92,4.02,7.08c0.79,1.02-0.75,2.3-1.54,1.28
			c-1.14-1.48-2.16-3.05-3.02-4.71c-0.43-0.83-0.82-1.68-1.17-2.55C158.47,70.97,158.05,70.15,158.08,69.34z"/>
		<path class="st10" d="M165.92,81.35c3.82-0.2,4.85-0.97,8.17-2.71c1.14-0.6,1.97,1.22,0.84,1.82c-3.46,1.82-4.7,2.66-8.68,2.87
			c-0.54,0.03-1.05-0.25-1.15-0.82C165.02,82.01,165.38,81.38,165.92,81.35z"/>
		<path class="st10" d="M219.48,103.08c-1.48,2.81-2.93,5.64-4.45,8.43c-1.27,2.32-2.98,4.94-5.78,5.5
			c-2.65,0.53-5.16-1.29-6.74-3.25c-1.9-2.36-2.99-5.27-4.07-8.07c-0.46-1.19-2.39-0.67-1.93,0.53c1.2,3.13,2.43,6.33,4.58,8.95
			c1.84,2.25,4.69,4.15,7.72,3.9c3.13-0.25,5.48-2.54,7.08-5.07c1.99-3.16,3.58-6.62,5.32-9.92
			C221.81,102.95,220.08,101.94,219.48,103.08z"/>
		<path class="st10" d="M203.75,139.03c-0.06-0.21-0.21-0.41-0.4-0.55c0-0.28-0.24-0.99-0.26-1.09c-0.14-0.52-0.29-1.04-0.43-1.56
			c-0.29-1.04-0.58-2.08-0.87-3.11c-0.54-1.93-1.13-3.85-1.36-5.85c-0.09-0.83-0.25-1.39-0.89-1.95c-0.54-0.48-1.02-0.96-1.39-1.59
			c-0.83-1.44-0.98-3.11-0.48-4.68c0.39-1.23-1.54-1.75-1.93-0.53c-0.53,1.64-0.49,3.44,0.13,5.05c0.31,0.82,0.74,1.56,1.3,2.23
			c0.29,0.35,0.66,0.61,0.95,0.94c0.37,0.42,0.33,0.88,0.41,1.44c0.31,2.26,1.04,4.46,1.65,6.65c0.31,1.1,0.61,2.2,0.92,3.31
			c0.23,0.82,0.32,2.11,1.14,2.57c0.38,0.21,0.91,0.17,1.21-0.16C203.76,139.82,203.87,139.46,203.75,139.03z"/>
		<path class="st10" d="M227.48,117.26c0.16-1.27-1.84-1.26-2,0c-1.03,8.03-1.35,16.12-0.96,24.21c0.06,1.28,2.06,1.29,2,0
			C226.12,133.38,226.44,125.29,227.48,117.26z"/>
	</g>
	<g>
		<g>
			<path class="st30" d="M243.04,146.91c-0.15-1.64-0.11-3.49-1.8-4.28c-3.31-1.54-7.66-1.04-11.18-0.83
				c-7.98,0.46-17.96,0.61-25.95,0.33c-3.84-0.13-7.69-0.58-11.53-0.57c-3.08,0.01-7.36,1.13-7.75,4.78c0,0.03,0.01,0.06,0,0.1
				c-0.79,4.47-1.12,9-0.98,13.54c0.06,2.02,0.02,4.24,0.67,6.17c0.68,2.01,2.38,2.87,4.27,3.51c6.45,2.2,13.37,1.18,20.09,1.65
				c0.06-0.1,0.13-0.18,0.2-0.27c0.41,0.18,0.88,0.23,1.35,0.13c1.07-0.24,2.17-0.17,3.25-0.16c1.26,0.02,2.51-0.03,3.76-0.15
				c2.55-0.23,5.09-0.68,7.61-1.13c0.34-0.06,0.62-0.24,0.85-0.47c2.11-0.11,4.99-0.23,6.58-0.42c2.02-0.24,4.04-0.6,5.99-1.2
				c1.59-0.48,3.47-0.96,4-2.73c0.59-1.95,0.6-4.21,0.72-6.24c0.11-1.8,0.16-3.6,0.15-5.4
				C243.33,151.15,243.23,149.02,243.04,146.91z"/>
			<path class="st10" d="M244.97,146.17c-0.16-1.64-0.31-3.37-1.62-4.55c-1.26-1.13-3.17-1.48-4.79-1.71
				c-2.04-0.3-4.09-0.32-6.14-0.24c-8.79,0.35-19.51,0.76-28.31,0.46c-2.47-0.09-4.94-0.21-7.41-0.37c-2.2-0.14-4.41-0.34-6.6-0.02
				c-3.6,0.53-7.08,2.96-7.28,6.86c0,0,0,0,0,0c-0.76,4.58-1.11,9.22-0.93,13.86c0.15,3.93,0.17,7.44,4.17,9.42
				c3.54,1.75,9.1,1.98,15,1.98c5.63,0,11.68-0.2,11.68-0.23c4.7-0.3,19.2-0.55,22.97-1.25c3.24-0.6,7.81-1.42,8.76-5.12
				c0.5-1.94,0.57-4.09,0.71-6.08c0.14-2.12,0.2-4.25,0.17-6.38C245.31,150.57,245.19,148.37,244.97,146.17z M243.2,158.68
				c-0.13,2.02-0.13,4.29-0.72,6.24c-0.53,1.77-2.41,2.25-4,2.73c-1.95,0.59-3.97,0.96-5.99,1.2c-1.98,0.24-5.97,0.37-7.96,0.5
				c-1.07,0.07-11.75,0.26-12.82,0.35c-0.37,0.03-0.77,0.05-1.16,0.09c0,0,0,0.01,0.01,0.01c-6.76-0.06-16.18,0.95-21.85-0.99
				c-1.89-0.65-3.49-0.65-4.17-2.66c-0.65-1.93-0.61-4.16-0.67-6.17c-0.14-4.54,0.2-9.07,0.98-13.54c0.01-0.04-0.01-0.06,0-0.1
				c0.39-3.65,4.67-4.77,7.75-4.78c3.84-0.01,7.69,0.43,11.53,0.57c7.99,0.27,17.97,0.13,25.95-0.33c3.52-0.21,7.87-0.71,11.18,0.83
				c1.69,0.79,1.65,2.65,1.8,4.28c0.19,2.12,0.29,4.25,0.31,6.37C243.36,155.08,243.31,156.88,243.2,158.68z"/>
			<g>
				<path class="st4" d="M212.45,159c-0.03-2.84-0.12-5.68-0.28-8.52c-0.07-1.25,0.12-3.07-0.64-4.13
					c-0.76-1.06-2.19-0.99-3.34-1.07c-2.14-0.14-5.1-0.57-6.78,1.16c-0.86,0.88-1.08,2.08-1.13,3.29c-0.05,1.37-0.03,2.76-0.01,4.13
					c0.04,3.19,0.15,6.41,0.51,9.58c0.09,0.82,0.36,1.49,1.11,1.87c0.69,0.35,1.59,0.25,2.35,0.23c0.51,0.11,1.02,0.17,1.48,0.22
					c1.28,0.15,2.6,0.04,3.85-0.27c1.24-0.31,2.4-0.9,2.75-2.26C212.65,161.91,212.46,160.36,212.45,159z"/>
			</g>
			<g>
				<path class="st4" d="M226.34,158.97c-0.03-2.84-0.12-5.68-0.28-8.52c-0.07-1.25,0.12-3.07-0.64-4.13
					c-0.76-1.06-2.19-0.99-3.34-1.07c-2.14-0.14-5.1-0.57-6.78,1.16c-0.86,0.88-1.08,2.08-1.13,3.29c-0.05,1.37-0.03,2.76-0.01,4.13
					c0.04,3.19,0.15,6.41,0.51,9.58c0.09,0.82,0.36,1.49,1.11,1.87c0.69,0.35,1.59,0.25,2.35,0.23c0.51,0.11,1.02,0.17,1.48,0.22
					c1.28,0.15,2.6,0.04,3.85-0.27c1.24-0.31,2.4-0.9,2.75-2.26C226.54,161.88,226.35,160.32,226.34,158.97z"/>
			</g>
			<g>
				<path class="st4" d="M240.34,158.97c-0.03-2.84-0.12-5.68-0.28-8.52c-0.07-1.25,0.12-3.07-0.64-4.13
					c-0.76-1.06-2.19-0.99-3.34-1.07c-2.14-0.14-5.1-0.57-6.78,1.16c-0.86,0.88-1.08,2.08-1.13,3.29c-0.05,1.37-0.03,2.76-0.01,4.13
					c0.04,3.19,0.15,6.41,0.51,9.58c0.09,0.82,0.36,1.49,1.11,1.87c0.69,0.35,1.59,0.25,2.35,0.23c0.51,0.11,1.02,0.17,1.48,0.22
					c1.28,0.15,2.6,0.04,3.85-0.27c1.24-0.31,2.4-0.9,2.75-2.26C240.54,161.88,240.35,160.32,240.34,158.97z"/>
			</g>
			<g>
				<path class="st4" d="M198.56,159.04c-0.03-2.84-0.12-5.68-0.28-8.52c-0.07-1.25,0.12-3.07-0.64-4.13
					c-0.76-1.06-2.19-0.99-3.34-1.07c-2.14-0.14-5.1-0.57-6.78,1.16c-0.86,0.88-1.08,2.08-1.13,3.29c-0.05,1.37-0.03,2.76-0.01,4.13
					c0.04,3.19,0.15,6.41,0.51,9.58c0.09,0.82,0.36,1.49,1.11,1.87c0.69,0.35,1.59,0.25,2.35,0.23c0.51,0.11,1.02,0.17,1.48,0.22
					c1.28,0.15,2.6,0.04,3.85-0.27c1.24-0.31,2.4-0.9,2.75-2.26C198.76,161.95,198.57,160.39,198.56,159.04z"/>
			</g>
		</g>
		<path class="st10" d="M229.46,133.75c-0.15-1.4,0.02-3.73-1.79-4.31c-1.01-0.32-2.26-0.31-3.32-0.41
			c-1.14-0.11-2.28-0.2-3.42-0.27c-2.53-0.16-5.06-0.23-7.6-0.22c-2.53,0.01-5.07,0.12-7.6,0.31c-1.96,0.15-4.37,0.1-6.19,0.84
			c-1.79,0.74-2.21,2.35-2.5,3.95c-0.4,2.19-0.53,4.4-0.39,6.62c0.06,1.06,1.75,1.13,1.96,0.23c9.66,1.75,19.57-0.23,29.33,0.37
			c0.24,0.95,1.98,0.89,1.95-0.19C229.85,138.37,229.71,136.06,229.46,133.75z"/>
		<g>
			<path class="st4" d="M209.35,130.96c-0.57-0.15-1.03,0.2-1.22,0.71c-0.46,1.22-0.98,2.42-1.56,3.6c-0.29,0.59-0.6,1.18-0.92,1.76
				c-0.14,0.25-0.28,0.49-0.42,0.74c-0.12-0.22-0.24-0.45-0.36-0.67c-0.31-0.58-0.6-1.16-0.89-1.75c-0.57-1.16-1.09-2.34-1.57-3.55
				c-0.2-0.5-0.68-0.85-1.24-0.69c-0.48,0.14-0.89,0.73-0.69,1.24c0.92,2.3,1.98,4.55,3.18,6.73c0.34,0.61,0.74,1.29,1.52,1.32
				c0.81,0.03,1.17-0.6,1.53-1.21c0.6-1.02,1.16-2.06,1.68-3.12c0.62-1.27,1.17-2.57,1.67-3.89
				C210.25,131.68,209.83,131.09,209.35,130.96z"/>
			<path class="st4" d="M213.65,130.84c-1.29,0.01-1.27,2.01,0.02,2C214.95,132.83,214.94,130.83,213.65,130.84z"/>
			<path class="st4" d="M213.26,133.8c-0.54,0.03-1,0.45-0.99,1.01c0.02,1.62-0.03,3.24-0.15,4.86c-0.04,0.52,0.5,1.02,1.01,0.99
				c0.58-0.03,0.95-0.45,0.99-1.01c0.12-1.62,0.17-3.24,0.15-4.86C214.26,134.27,213.8,133.77,213.26,133.8z"/>
			<path class="st4" d="M225.04,137.78c-1.76,0.22-3.53,0.32-5.3,0.32c0.03-0.03,0.05-0.06,0.08-0.09c0.56-0.57,1.12-1.14,1.68-1.71
				c1.13-1.15,2.26-2.31,3.39-3.46c0.64-0.65,0.12-1.65-0.72-1.7c-2.17-0.14-4.34-0.26-6.51-0.35c-0.54-0.02-1,0.49-0.99,1.01
				c0.01,0.56,0.47,0.97,1.01,0.99c1.41,0.06,2.83,0.15,4.24,0.23c-0.65,0.66-1.3,1.32-1.94,1.98c-1.1,1.12-2.33,2.21-3.17,3.55
				c-0.43,0.68,0.16,1.46,0.88,1.5c2.47,0.13,4.94,0.04,7.39-0.27c0.54-0.07,1-0.42,0.99-1.01
				C226.05,138.28,225.58,137.72,225.04,137.78z"/>
		</g>
		<path class="st10" d="M224.04,151.15c-0.46-1.16-1.46-2.04-2.7-1.98c-2.72-0.9-4.07,2.17-4.81,4.2c-0.78,2.15-1.33,4.88-0.04,6.95
			c1.21,1.95,3.7,2.73,5.63,1.31c2.01-1.49,2.29-4.07,2.39-6.39C224.57,153.9,224.54,152.42,224.04,151.15z M222.52,155.03
			c-0.05,1.48-0.07,3.4-1.12,4.58c-0.9,1.01-2.21,1.01-3.04-0.08c-1-1.31-0.63-3.2-0.21-4.65c0.27-0.93,0.62-1.82,1.08-2.67
			c0.32-0.6,0.68-1.24,1.38-1.14c0.2,0.13,0.46,0.19,0.76,0.11C222.64,150.86,222.54,154.43,222.52,155.03z"/>
		<path class="st10" d="M210.03,150.87c-0.46-1.16-1.46-2.04-2.7-1.98c-2.72-0.9-4.07,2.17-4.81,4.2c-0.78,2.15-1.33,4.88-0.04,6.95
			c1.21,1.95,3.7,2.73,5.63,1.31c2.01-1.48,2.29-4.07,2.39-6.39C210.57,153.62,210.54,152.14,210.03,150.87z M208.52,154.75
			c-0.05,1.48-0.07,3.4-1.12,4.58c-0.9,1.01-2.21,1.01-3.04-0.08c-1-1.31-0.63-3.2-0.21-4.65c0.27-0.93,0.62-1.82,1.08-2.67
			c0.32-0.6,0.68-1.24,1.38-1.14c0.2,0.13,0.46,0.19,0.76,0.11C208.63,150.58,208.54,154.14,208.52,154.75z"/>
		<path class="st10" d="M238.12,151.06c-0.46-1.16-1.46-2.04-2.7-1.98c-2.72-0.9-4.07,2.17-4.81,4.2c-0.78,2.15-1.33,4.88-0.04,6.95
			c1.21,1.95,3.7,2.73,5.63,1.31c2.01-1.48,2.29-4.07,2.39-6.39C238.65,153.81,238.62,152.33,238.12,151.06z M236.6,154.93
			c-0.05,1.48-0.07,3.4-1.12,4.58c-0.9,1.01-2.21,1.01-3.04-0.08c-1-1.31-0.63-3.2-0.21-4.65c0.27-0.93,0.62-1.82,1.08-2.67
			c0.32-0.6,0.68-1.24,1.38-1.14c0.2,0.13,0.46,0.19,0.76,0.11C236.72,150.77,236.62,154.33,236.6,154.93z"/>
		<path class="st10" d="M195.67,151.55c0.52-0.02,1.02-0.45,1-1c-0.02-0.53-0.44-1.02-1-1c-1.1,0.03-2.21,0.07-3.31,0.1
			c-0.01,0-0.01,0-0.02,0.01c-0.05-0.02-0.08-0.05-0.13-0.07c-0.48-0.13-1.14,0.16-1.23,0.7c-0.26,1.51-0.52,3.03-0.77,4.54
			c-0.12,0.68,0.44,1.52,1.23,1.23c0.59-0.21,1.45-0.49,2.01-0.02c0.47,0.4,0.47,1.38,0.39,1.93c-0.19,1.3-1.75,2.13-2.87,1.25
			c-0.42-0.33-1-0.41-1.41,0c-0.35,0.35-0.43,1.08,0,1.41c1.06,0.83,2.44,1.2,3.74,0.72c1.27-0.46,2.24-1.57,2.47-2.9
			c0.23-1.27,0.08-2.93-0.94-3.85c-0.69-0.62-1.55-0.83-2.43-0.78c0.12-0.73,0.25-1.45,0.37-2.18
			C193.74,151.61,194.71,151.58,195.67,151.55z"/>
	</g>
	<g>
		<path class="st83" d="M178.07,125.14c1.08,0.64,2.37,0.86,3.61,0.89c0.95,0.02,1.96-0.12,2.85-0.5c0.2,0.02,0.42-0.01,0.66-0.1
			c2.75-1.03,3.6-3.87,3.55-6.57c-0.03-1.5-0.23-2.99-0.51-4.46c-0.26-1.35-0.64-2.74-1.47-3.86c-1.61-2.19-4.44-3.16-7.05-2.36
			c-2.56,0.78-4.15,3.1-4.73,5.61c-0.6,2.61-0.3,5.58,0.58,8.09C176.03,123.23,176.82,124.39,178.07,125.14z"/>
		<path class="st84" d="M183.75,120.51c0,0.09,0,0.19,0.03,0.28c0.17,0.53,0.74,0.8,1.26,0.64c0.98-0.29,1.47-1.21,1.72-2.13
			c0.25-0.93,0.36-1.93,0.31-2.9c-0.09-1.85-0.82-3.94-2.75-4.54c-0.52-0.16-1.08,0.27-1.19,0.77c-0.02,0.08,0,0.15,0,0.22
			c-0.23,0.28-0.37,0.64-0.39,1.05c-0.11,1.62,0.04,3.21,0.37,4.79c0.04,0.18,0.15,0.36,0.29,0.51c0,0.15,0.02,0.3,0.02,0.46
			C183.43,119.97,183.56,120.27,183.75,120.51z"/>
		<path class="st10" d="M185.74,125.84c1.2-0.46,0.58-2.36-0.62-1.9c-2.26,0.87-3.69-2.86-4.17-4.45c-0.65-2.16-0.67-4.48-0.08-6.66
			c0.27-1,0.69-2.1,1.48-2.81c0.87-0.78,2.01-0.64,2.95-0.07c2.06,1.26,2.79,3.87,2.91,6.13c0.07,1.34,0.03,2.74-0.2,4.07
			c-0.19,1.1-0.54,2.2-1.51,2.83c-1.08,0.7,0.03,2.37,1.11,1.67c2.53-1.66,2.65-5.21,2.63-7.93c-0.03-3.12-0.97-6.53-3.7-8.35
			c-1.2-0.8-2.74-1.19-4.14-0.68c-1.41,0.51-2.37,1.81-2.93,3.15c-1.17,2.79-1.29,5.99-0.51,8.89
			C179.7,122.56,182.06,127.25,185.74,125.84z"/>
		<path class="st10" d="M183.52,121.81c0.34,0.42,0.91,0.6,1.39,0.28c0.42-0.28,0.62-0.96,0.28-1.39c-1.88-2.32-1.96-5.34-1.23-8.12
			c0.33-1.25-1.63-1.66-1.96-0.42C181.15,115.41,181.33,119.11,183.52,121.81z"/>
		<path class="st10" d="M176.29,113.03c0.19,0.16,0.45,0.28,0.71,0.25c0.51-0.06,1.01-0.12,1.52-0.18c0.27-0.03,0.52-0.13,0.7-0.34
			c0.16-0.18,0.27-0.47,0.25-0.71c-0.02-0.26-0.13-0.53-0.34-0.7c-0.19-0.16-0.45-0.28-0.71-0.25c-0.51,0.06-1.01,0.12-1.52,0.18
			c-0.27,0.03-0.52,0.13-0.7,0.34c-0.16,0.18-0.27,0.47-0.25,0.71C175.98,112.59,176.08,112.86,176.29,113.03z"/>
		<path class="st10" d="M176.05,117.45c0.21,0.17,0.44,0.25,0.71,0.25c0.59,0,1.19,0.01,1.78,0.01c0.25,0,0.54-0.15,0.7-0.34
			c0.16-0.18,0.27-0.47,0.25-0.71c-0.02-0.26-0.13-0.53-0.34-0.7c-0.21-0.17-0.44-0.25-0.71-0.25c-0.59,0-1.19-0.01-1.78-0.01
			c-0.25,0-0.54,0.15-0.7,0.34c-0.16,0.18-0.27,0.47-0.25,0.71C175.74,117.01,175.84,117.28,176.05,117.45z"/>
		<path class="st10" d="M176.59,122.65c0.25,0.11,0.49,0.12,0.76,0.06c0.04-0.01,0.08-0.02,0.12-0.02c0.55-0.09,1.1-0.12,1.65-0.08
			c-0.01,0-0.02,0-0.03,0c0.26,0.02,0.5,0.01,0.73-0.14c0.2-0.13,0.38-0.38,0.42-0.62c0.04-0.26,0.02-0.54-0.14-0.76
			c-0.14-0.2-0.37-0.4-0.62-0.42c-0.46-0.05-0.92-0.08-1.38-0.05c-0.46,0.03-0.92,0.11-1.37,0.21c-0.24,0.06-0.47,0.29-0.58,0.5
			c-0.11,0.22-0.15,0.53-0.06,0.76C176.18,122.31,176.35,122.54,176.59,122.65z"/>
		<path class="st10" d="M176.66,125.28c2.15,1.75,5.2,1.63,7.79,1.12c1.26-0.25,0.63-2.13-0.62-1.88c-2.01,0.4-4.56,0.51-6.14-0.98
			c-1.62-1.53-1.88-3.89-1.84-6c0.04-1.98,0.26-4.07,1.18-5.86c0.51-0.98,1.17-1.85,2.31-2.09c1.16-0.24,2.4-0.3,3.58-0.38
			c1.28-0.08,1.2-2.06-0.09-1.98c-1.45,0.09-3.04,0.14-4.44,0.56c-1.3,0.38-2.19,1.41-2.87,2.53c-1.37,2.25-1.66,5.08-1.67,7.65
			C173.85,120.63,174.5,123.52,176.66,125.28z"/>
	</g>
	<g>
		<path class="st83" d="M247.49,53.83c1.08,0.64,2.37,0.86,3.61,0.89c0.95,0.02,1.96-0.12,2.85-0.5c0.2,0.02,0.42-0.01,0.66-0.1
			c2.75-1.03,3.6-3.87,3.55-6.57c-0.03-1.5-0.23-2.99-0.51-4.46c-0.26-1.35-0.64-2.74-1.47-3.86c-1.61-2.19-4.44-3.16-7.05-2.36
			c-2.56,0.78-4.15,3.1-4.73,5.61c-0.6,2.61-0.3,5.58,0.58,8.09C245.45,51.93,246.24,53.08,247.49,53.83z"/>
		<path class="st84" d="M253.17,49.21c0,0.09,0,0.19,0.03,0.28c0.17,0.53,0.74,0.8,1.26,0.64c0.98-0.29,1.47-1.21,1.72-2.13
			c0.24-0.93,0.36-1.93,0.31-2.9c-0.09-1.85-0.82-3.94-2.75-4.54c-0.52-0.16-1.08,0.27-1.19,0.77c-0.02,0.08,0,0.15,0,0.22
			c-0.23,0.28-0.37,0.64-0.39,1.05c-0.11,1.62,0.04,3.21,0.37,4.79c0.04,0.18,0.15,0.36,0.29,0.51c0,0.15,0.02,0.3,0.02,0.46
			C252.85,48.66,252.98,48.96,253.17,49.21z"/>
		<path class="st10" d="M255.16,54.53c1.2-0.46,0.58-2.36-0.62-1.9c-2.26,0.87-3.69-2.86-4.17-4.45c-0.65-2.16-0.67-4.48-0.08-6.66
			c0.27-1,0.69-2.1,1.48-2.81c0.87-0.78,2.01-0.64,2.95-0.07c2.06,1.26,2.79,3.87,2.91,6.13c0.07,1.34,0.03,2.74-0.2,4.07
			c-0.19,1.1-0.54,2.2-1.51,2.83c-1.08,0.7,0.03,2.37,1.11,1.67c2.53-1.66,2.65-5.21,2.63-7.93c-0.03-3.12-0.97-6.53-3.7-8.35
			c-1.2-0.8-2.74-1.19-4.14-0.68c-1.41,0.51-2.37,1.81-2.93,3.15c-1.17,2.79-1.29,5.99-0.51,8.89
			C249.12,51.25,251.48,55.94,255.16,54.53z"/>
		<path class="st10" d="M252.94,50.5c0.34,0.42,0.91,0.6,1.39,0.28c0.42-0.28,0.62-0.96,0.28-1.39c-1.88-2.32-1.96-5.34-1.23-8.12
			c0.33-1.25-1.63-1.66-1.96-0.42C250.57,44.1,250.75,47.8,252.94,50.5z"/>
		<path class="st10" d="M245.71,41.73c0.19,0.16,0.45,0.28,0.71,0.25c0.51-0.06,1.01-0.12,1.52-0.18c0.27-0.03,0.52-0.13,0.7-0.34
			c0.16-0.18,0.27-0.47,0.25-0.71c-0.02-0.26-0.13-0.53-0.34-0.7c-0.19-0.16-0.45-0.28-0.71-0.25c-0.51,0.06-1.01,0.12-1.52,0.18
			c-0.27,0.03-0.52,0.13-0.7,0.34c-0.16,0.18-0.27,0.47-0.25,0.71C245.4,41.29,245.5,41.56,245.71,41.73z"/>
		<path class="st10" d="M245.47,46.14c0.21,0.17,0.44,0.25,0.71,0.25c0.59,0,1.19,0.01,1.78,0.01c0.25,0,0.54-0.15,0.7-0.34
			c0.16-0.18,0.27-0.47,0.25-0.71c-0.02-0.26-0.13-0.53-0.34-0.7c-0.21-0.17-0.44-0.25-0.71-0.25c-0.59,0-1.19-0.01-1.78-0.01
			c-0.25,0-0.54,0.15-0.7,0.34c-0.16,0.18-0.27,0.47-0.25,0.71C245.16,45.7,245.26,45.97,245.47,46.14z"/>
		<path class="st10" d="M246.01,51.35c0.25,0.11,0.49,0.12,0.76,0.06c0.04-0.01,0.08-0.02,0.12-0.02c0.55-0.09,1.1-0.12,1.65-0.08
			c-0.01,0-0.02,0-0.03,0c0.26,0.02,0.5,0.01,0.73-0.14c0.2-0.13,0.38-0.38,0.42-0.62c0.04-0.26,0.02-0.55-0.14-0.76
			c-0.14-0.2-0.37-0.4-0.62-0.42c-0.46-0.05-0.92-0.08-1.38-0.05c-0.46,0.03-0.92,0.11-1.37,0.21c-0.24,0.06-0.47,0.29-0.58,0.5
			c-0.11,0.22-0.15,0.53-0.06,0.76C245.6,51.01,245.77,51.23,246.01,51.35z"/>
		<path class="st10" d="M246.08,53.97c2.15,1.75,5.2,1.63,7.79,1.12c1.26-0.25,0.63-2.13-0.62-1.88c-2.01,0.4-4.56,0.51-6.14-0.98
			c-1.62-1.53-1.88-3.89-1.84-6c0.04-1.98,0.26-4.07,1.18-5.86c0.51-0.98,1.17-1.85,2.31-2.09c1.16-0.24,2.4-0.3,3.58-0.38
			c1.28-0.08,1.2-2.06-0.09-1.98c-1.45,0.09-3.04,0.14-4.44,0.56c-1.3,0.38-2.19,1.41-2.87,2.53c-1.37,2.25-1.66,5.08-1.67,7.65
			C243.27,49.32,243.92,52.21,246.08,53.97z"/>
	</g>
	<g>
		<path class="st83" d="M269.48,76.86c-1.04-0.71-2.31-1.01-3.54-1.12c-0.95-0.08-1.96,0-2.88,0.32c-0.2-0.03-0.42-0.02-0.66,0.06
			c-2.81,0.86-3.84,3.63-3.96,6.33c-0.07,1.5,0.04,3,0.23,4.49c0.17,1.36,0.47,2.77,1.23,3.95c1.47,2.29,4.23,3.43,6.89,2.8
			c2.61-0.61,4.34-2.83,5.07-5.3c0.76-2.56,0.65-5.55-0.07-8.11C271.4,78.89,270.69,77.69,269.48,76.86z"/>
		<path class="st84" d="M263.52,81.12c0-0.09,0.01-0.19-0.01-0.28c-0.14-0.54-0.69-0.84-1.22-0.72c-0.99,0.23-1.54,1.11-1.85,2.02
			c-0.3,0.91-0.48,1.91-0.49,2.87c-0.03,1.85,0.57,3.99,2.46,4.7c0.51,0.19,1.1-0.2,1.23-0.69c0.02-0.08,0.01-0.15,0.02-0.22
			c0.25-0.26,0.41-0.62,0.46-1.02c0.22-1.61,0.16-3.21-0.07-4.81c-0.03-0.18-0.13-0.36-0.25-0.53c0-0.15,0-0.31,0.01-0.46
			C263.81,81.68,263.7,81.38,263.52,81.12z"/>
		<path class="st10" d="M261.88,75.68c-1.22,0.38-0.73,2.32,0.5,1.94c2.31-0.72,3.5,3.09,3.88,4.71c0.51,2.2,0.39,4.52-0.34,6.65
			c-0.34,0.98-0.82,2.05-1.65,2.71c-0.91,0.73-2.05,0.52-2.95-0.12c-1.98-1.39-2.54-4.03-2.52-6.3c0.02-1.35,0.14-2.74,0.46-4.05
			c0.26-1.08,0.68-2.16,1.69-2.73c1.12-0.63,0.12-2.37-1-1.73c-2.63,1.5-2.98,5.03-3.12,7.75c-0.17,3.12,0.56,6.58,3.17,8.57
			c1.15,0.87,2.66,1.36,4.09,0.94c1.44-0.43,2.48-1.66,3.12-2.96c1.35-2.71,1.66-5.9,1.07-8.84
			C267.7,79.34,265.63,74.5,261.88,75.68z"/>
		<path class="st10" d="M263.84,79.84c-0.31-0.44-0.87-0.65-1.37-0.37c-0.43,0.25-0.68,0.92-0.37,1.37
			c1.73,2.43,1.62,5.45,0.72,8.18c-0.41,1.23,1.52,1.76,1.93,0.54C265.8,86.38,265.85,82.67,263.84,79.84z"/>
		<path class="st10" d="M270.5,89.05c-0.18-0.17-0.44-0.31-0.69-0.29c-0.51,0.03-1.02,0.05-1.53,0.08c-0.27,0.01-0.52,0.1-0.72,0.29
			c-0.17,0.17-0.3,0.45-0.29,0.69c0.01,0.26,0.09,0.54,0.29,0.72c0.18,0.17,0.44,0.31,0.69,0.29c0.51-0.03,1.02-0.05,1.53-0.08
			c0.27-0.01,0.52-0.1,0.72-0.29c0.17-0.17,0.3-0.45,0.29-0.69C270.79,89.51,270.7,89.23,270.5,89.05z"/>
		<path class="st10" d="M271.02,84.66c-0.2-0.18-0.42-0.28-0.69-0.29c-0.59-0.04-1.18-0.08-1.78-0.12
			c-0.25-0.02-0.55,0.12-0.72,0.29c-0.17,0.17-0.3,0.45-0.29,0.69c0.01,0.26,0.09,0.54,0.29,0.72c0.2,0.18,0.42,0.28,0.69,0.29
			c0.59,0.04,1.18,0.08,1.78,0.12c0.25,0.02,0.55-0.12,0.72-0.29c0.17-0.17,0.3-0.45,0.29-0.69
			C271.3,85.12,271.22,84.84,271.02,84.66z"/>
		<path class="st10" d="M270.81,79.43c-0.25-0.13-0.48-0.15-0.76-0.11c-0.04,0.01-0.08,0.01-0.12,0.02
			c-0.55,0.06-1.1,0.05-1.65-0.02c0.01,0,0.02,0,0.03,0c-0.26-0.04-0.5-0.04-0.74,0.1c-0.21,0.12-0.41,0.36-0.46,0.6
			c-0.06,0.26-0.05,0.54,0.1,0.77c0.13,0.21,0.34,0.42,0.6,0.46c0.45,0.08,0.91,0.14,1.37,0.14c0.46,0,0.93-0.05,1.38-0.13
			c0.24-0.04,0.49-0.26,0.61-0.46c0.12-0.21,0.18-0.52,0.11-0.76C271.19,79.8,271.04,79.56,270.81,79.43z"/>
		<path class="st10" d="M270.9,76.81c-2.03-1.88-5.09-1.95-7.7-1.6c-1.27,0.17-0.76,2.08,0.5,1.91c2.03-0.27,4.58-0.23,6.06,1.36
			c1.52,1.63,1.64,4,1.46,6.1c-0.16,1.97-0.51,4.05-1.55,5.77c-0.57,0.95-1.28,1.77-2.43,1.94c-1.18,0.17-2.41,0.15-3.59,0.16
			c-1.29,0-1.32,1.98-0.04,1.98c1.45,0,3.04,0.05,4.46-0.28c1.33-0.3,2.28-1.27,3.03-2.35c1.51-2.16,1.97-4.96,2.14-7.53
			C273.42,81.62,272.95,78.7,270.9,76.81z"/>
	</g>
	<g>
		<path class="st83" d="M253.52,96.61c-2.11-1.09-4.22-2.08-6.25-1.11c-2.17-0.22-4.01,1.41-5.5,2.99
			c-1.74,1.84-3.17,4.03-4.16,6.35c-0.98,2.3-1.93,5.13-1.61,7.66c0.33,2.59,2.21,4.92,4.25,6.43c2.01,1.49,4.49,2.46,7.02,2.23
			c2.47-0.22,4.69-1.49,6.41-3.24c1.91-1.95,3.05-4.5,3.73-7.11c0.69-2.61,1.22-5.6,1.05-8.3
			C258.26,99.49,256.16,97.98,253.52,96.61z"/>
		<path class="st84" d="M249.33,99.6c-0.96-1.02-2.39-1.26-3.72-0.95c-1.43,0.33-2.56,1.4-3.42,2.53c-0.88,1.17-1.67,2.45-2.23,3.81
			c-1.13,2.76-1.33,5.97,0.11,8.61c-0.07,0.55,0.26,1.18,0.95,1.24c0.32,0.16,0.68,0.13,0.98-0.03c2.41-0.25,4.73-1.48,6.23-3.4
			c1.78-2.28,2.35-5.38,2.31-8.22C250.53,101.92,250.24,100.56,249.33,99.6z"/>
		<path class="st85" d="M251.55,97.73c-0.81-0.98-2.48,0.13-1.66,1.12c1.05,1.27,1.26,2.86,1.31,4.45c0.05,1.7-0.12,3.41-0.59,5.05
			c-0.83,2.9-2.79,5.56-5.62,6.77c-1.17,0.5-0.53,2.4,0.66,1.89c3.41-1.47,5.75-4.46,6.83-7.96c0.59-1.89,0.78-3.91,0.71-5.88
			C253.13,101.25,252.81,99.24,251.55,97.73z"/>
		<g>
			<path class="st10" d="M250.18,95.61c-1.23-0.4-1.85,1.5-0.63,1.9c4,1.3,3.57,6.37,2.87,9.62c-0.76,3.54-2.08,7.43-5.36,9.4
				c-2.72,1.64-6.19,1.12-8.37-1.19c-2.69-2.86-1.82-7.15-0.24-10.33c1.73-3.5,4.5-8.17,8.95-8.16c1.28,0,1.39-1.99,0.1-2
				c-4.89-0.02-7.99,4.09-10.15,7.97c-2.18,3.92-3.67,9.06-0.8,13.04c2.2,3.05,6.37,4.44,9.92,3.15c4.43-1.62,6.65-6.16,7.67-10.47
				C255.21,104.04,255.7,97.41,250.18,95.61z"/>
			<path class="st10" d="M247.03,103.05c0.62,1.13,2.4,0.21,1.78-0.92c-0.82-1.49-2.61-1.93-4.13-1.31c-1.43,0.58-2.8,2.11-2.5,3.74
				c0.29,1.61,1.9,2.41,2.95,3.48c0.89,0.91,1.64,2.45,0.39,3.4c-1.34,1.02-3.13,0.22-4.25-0.75c-0.41-0.35-0.98-0.46-1.41-0.07
				c-0.36,0.33-0.48,1.06-0.07,1.41c1.53,1.33,3.59,2.35,5.64,1.66c1.96-0.66,3.21-2.56,2.62-4.63c-0.29-1.03-0.93-1.91-1.7-2.63
				c-0.65-0.61-1.54-1.12-2.03-1.88C243.49,103.32,246.27,101.67,247.03,103.05z"/>
			<path class="st10" d="M246.05,99.58c-1.32,4.74-2.82,9.42-4.5,14.05c-0.44,1.21,1.46,1.84,1.9,0.63
				c1.68-4.62,3.18-9.31,4.5-14.05C248.3,98.97,246.4,98.34,246.05,99.58z"/>
			<path class="st10" d="M258.93,101.65c-0.72-3.17-3.54-5.59-6.78-5.83c-1.27-0.09-1.69,1.86-0.41,1.96
				c2.81,0.21,5.03,2.23,5.37,5.05c0.37,3.1-0.42,6.54-1.51,9.43c-1.02,2.71-2.5,5.77-5.51,6.62c-3.19,0.91-6.45-0.54-9.33-1.79
				c-1.18-0.51-2.08,1.27-0.9,1.79c3.49,1.52,7.43,3.12,11.25,1.78c3.45-1.21,5.24-4.65,6.42-7.88
				C258.76,109.4,259.74,105.23,258.93,101.65z"/>
			<path class="st10" d="M253.89,115.99c-0.06-0.06-0.11-0.13-0.17-0.19c-0.13-0.12-0.29-0.19-0.46-0.23
				c-0.84-0.29-1.67-0.57-2.51-0.86c-0.23-0.08-0.57,0.02-0.76,0.15c-0.2,0.13-0.38,0.38-0.42,0.63c-0.04,0.26-0.01,0.55,0.15,0.76
				c0.06,0.06,0.11,0.13,0.17,0.19c0.13,0.12,0.28,0.19,0.46,0.23c0.84,0.29,1.67,0.57,2.51,0.86c0.23,0.08,0.57-0.02,0.76-0.15
				c0.2-0.13,0.38-0.38,0.42-0.63C254.08,116.49,254.05,116.21,253.89,115.99z"/>
			<path class="st10" d="M255.64,110.01c-0.1,0-0.2,0-0.3,0c-0.28-0.03-0.56-0.09-0.83-0.17c-0.19-0.07-0.37-0.15-0.54-0.24
				c-0.22-0.12-0.54-0.13-0.78-0.05c-0.23,0.08-0.47,0.27-0.57,0.5c-0.23,0.51-0.04,1.07,0.45,1.34c0.82,0.45,1.77,0.66,2.7,0.62
				c0.25-0.01,0.52-0.15,0.69-0.34c0.16-0.18,0.27-0.48,0.25-0.72C256.64,110.39,256.2,109.99,255.64,110.01z"/>
			<path class="st10" d="M257.77,104.79c-0.09-0.23-0.26-0.48-0.5-0.57c-0.74-0.27-1.45-0.6-2.13-1c-0.22-0.13-0.55-0.13-0.78-0.05
				c-0.23,0.08-0.47,0.27-0.57,0.5c-0.11,0.24-0.15,0.52-0.05,0.78c0.1,0.25,0.26,0.43,0.5,0.57c0.68,0.4,1.39,0.73,2.13,1
				c0.12,0.07,0.25,0.1,0.38,0.09c0.13,0.02,0.27,0.01,0.4-0.04c0.23-0.08,0.47-0.27,0.57-0.5
				C257.83,105.33,257.87,105.04,257.77,104.79z"/>
		</g>
	</g>
	<g>
		<path class="st4" d="M175.26,143.38c-0.42,0.04-0.7,0.29-0.87,0.67c-0.85,1.88-0.73,3.93-0.2,5.88c-1.76-0.13-3.52,0.24-5.03,1.21
			l0.01,0.02c-0.07,0.05-0.15,0.08-0.22,0.13c-0.02,0.01-0.03,0.04-0.05,0.05c-0.26,0.16-0.45,0.4-0.47,0.75
			c-0.03,0.49,0.4,1.08,0.94,1.05c2.85-0.15,5.71,0.14,8.46,0.91c1,0.28,1.64-0.8,1.07-1.6c-0.83-1.17-1.21-2.59-1.52-3.97
			c-0.35-1.54-0.63-3.07-1.15-4.56C176.1,143.56,175.61,143.35,175.26,143.38z"/>
		<path class="st4" d="M175.54,151.05c-7.76-13.26-23.01-20.5-38.18-18.16c-4.52,0.7-8.87,2.25-12.84,4.51
			c-0.36,0.21-0.48,0.52-0.47,0.84c-0.41,0.6,0.12,1.73,1.1,1.58c1.92-0.31,3.85-0.3,5.76-0.01c-2.53,3.78-2.04,8.64-1.41,13.04
			c0.16,1.1,1.61,0.78,1.93,0c1.43-3.54,4.03-6.57,7.28-8.56c3.63-2.23,7.85-2.9,12.05-2.54c4.45,0.38,8.85,1.82,12.95,3.56
			c3.84,1.64,7.46,3.8,10.25,6.95C174.73,153.12,176.1,152.01,175.54,151.05z"/>
	</g>
	<g>
		<path class="st83" d="M161.5,130.73c-0.72-1.03-1.82-1.75-2.94-2.28c-0.86-0.41-1.84-0.68-2.81-0.7c-0.18-0.1-0.39-0.16-0.64-0.18
			c-2.93-0.17-4.86,2.07-5.91,4.56c-0.58,1.38-1,2.83-1.34,4.29c-0.31,1.34-0.52,2.77-0.22,4.13c0.59,2.66,2.78,4.68,5.49,5.02
			c2.66,0.33,5.05-1.15,6.6-3.21c1.61-2.14,2.54-4.97,2.75-7.63C162.59,133.29,162.34,131.92,161.5,130.73z"/>
		<path class="st84" d="M154.43,132.65c0.04-0.09,0.08-0.17,0.08-0.27c0.06-0.55-0.36-1.03-0.89-1.1c-1.01-0.13-1.84,0.51-2.43,1.25
			c-0.6,0.75-1.11,1.62-1.46,2.52c-0.67,1.72-0.85,3.94,0.67,5.26c0.41,0.36,1.1,0.19,1.4-0.22c0.05-0.06,0.06-0.13,0.09-0.2
			c0.32-0.16,0.59-0.44,0.79-0.8c0.76-1.43,1.26-2.95,1.6-4.53c0.04-0.18,0.01-0.38-0.06-0.58c0.06-0.14,0.11-0.29,0.17-0.43
			C154.51,133.28,154.51,132.95,154.43,132.65z"/>
		<path class="st10" d="M154.78,126.98c-1.28-0.07-1.49,1.92-0.2,1.99c2.42,0.12,2.21,4.11,2,5.76c-0.28,2.24-1.2,4.37-2.63,6.12
			c-0.66,0.8-1.48,1.64-2.49,1.97c-1.11,0.36-2.1-0.23-2.73-1.14c-1.37-1.99-0.98-4.67-0.17-6.79c0.48-1.26,1.09-2.52,1.84-3.64
			c0.62-0.92,1.38-1.79,2.53-1.98c1.27-0.21,0.94-2.18-0.33-1.97c-2.99,0.49-4.54,3.69-5.62,6.18c-1.24,2.87-1.76,6.36,0,9.14
			c0.77,1.22,2.03,2.2,3.51,2.3c1.5,0.1,2.9-0.69,3.96-1.69c2.2-2.07,3.61-4.95,4.07-7.92
			C158.97,132.43,158.71,127.18,154.78,126.98z"/>
		<path class="st10" d="M155.17,131.56c-0.14-0.52-0.58-0.91-1.15-0.82c-0.49,0.08-0.96,0.63-0.82,1.15
			c0.78,2.88-0.37,5.68-2.17,7.92c-0.81,1.01,0.81,2.18,1.62,1.18C154.74,138.37,156.08,134.92,155.17,131.56z"/>
		<path class="st10" d="M158.22,142.51c-0.11-0.22-0.3-0.44-0.55-0.52c-0.49-0.15-0.97-0.3-1.46-0.45
			c-0.26-0.08-0.52-0.09-0.78,0.02c-0.22,0.1-0.44,0.32-0.52,0.55c-0.08,0.25-0.1,0.54,0.02,0.78c0.11,0.22,0.3,0.44,0.55,0.52
			c0.49,0.15,0.97,0.3,1.46,0.45c0.26,0.08,0.52,0.09,0.78-0.02c0.22-0.1,0.44-0.32,0.52-0.55
			C158.33,143.04,158.34,142.76,158.22,142.51z"/>
		<path class="st10" d="M160.23,138.58c-0.12-0.24-0.3-0.41-0.55-0.52c-0.54-0.24-1.08-0.49-1.62-0.73
			c-0.23-0.1-0.55-0.08-0.78,0.02c-0.22,0.1-0.44,0.32-0.52,0.55c-0.08,0.25-0.1,0.54,0.02,0.78c0.12,0.24,0.3,0.41,0.55,0.52
			c0.54,0.24,1.08,0.49,1.62,0.73c0.23,0.1,0.55,0.08,0.78-0.02c0.22-0.1,0.44-0.32,0.52-0.55
			C160.34,139.11,160.35,138.82,160.23,138.58z"/>
		<path class="st10" d="M161.85,133.6c-0.18-0.21-0.4-0.31-0.67-0.36c-0.04-0.01-0.08-0.02-0.12-0.02c-0.54-0.14-1.05-0.33-1.54-0.6
			c0.01,0,0.02,0.01,0.02,0.01c-0.23-0.13-0.45-0.21-0.72-0.16c-0.24,0.04-0.51,0.19-0.64,0.4c-0.15,0.22-0.23,0.49-0.18,0.76
			c0.05,0.24,0.18,0.51,0.4,0.64c0.4,0.23,0.81,0.44,1.24,0.61c0.43,0.16,0.89,0.28,1.34,0.36c0.24,0.05,0.55-0.07,0.73-0.22
			c0.19-0.16,0.35-0.43,0.36-0.67C162.08,134.07,162.02,133.8,161.85,133.6z"/>
		<path class="st10" d="M162.85,131.17c-1.25-2.47-4.09-3.6-6.67-4.18c-1.25-0.28-1.44,1.69-0.2,1.97c2,0.45,4.38,1.38,5.21,3.38
			c0.86,2.05,0.14,4.32-0.75,6.23c-0.84,1.79-1.89,3.62-3.46,4.88c-0.86,0.69-1.82,1.22-2.95,0.97c-1.16-0.25-2.31-0.69-3.42-1.1
			c-1.21-0.44-1.93,1.4-0.72,1.84c1.36,0.5,2.84,1.1,4.28,1.29c1.35,0.18,2.58-0.4,3.65-1.15c2.17-1.5,3.58-3.97,4.63-6.31
			C163.54,136.56,164.11,133.66,162.85,131.17z"/>
	</g>
	<g>
		<path class="st4" d="M266.56,115.14c-0.18-0.17-0.46-0.3-0.71-0.28c-0.26,0.02-0.53,0.1-0.7,0.3c-0.05,0.07-0.1,0.14-0.15,0.2
			c-0.09,0.16-0.13,0.33-0.13,0.51c-0.06,0.69-0.12,1.38-0.18,2.07c-0.02,0.24,0.14,0.54,0.3,0.7c0.18,0.17,0.46,0.3,0.71,0.28
			c0.26-0.02,0.53-0.1,0.7-0.3c0.05-0.07,0.1-0.14,0.15-0.2c0.09-0.16,0.13-0.33,0.13-0.51c0.06-0.69,0.12-1.38,0.18-2.07
			C266.88,115.6,266.72,115.3,266.56,115.14z"/>
		<path class="st4" d="M264.35,118.81c-0.07-0.05-0.14-0.1-0.2-0.15c-0.16-0.09-0.33-0.13-0.51-0.13c-0.5,0.07-1,0.14-1.5,0.21
			c-0.14,0-0.27,0.03-0.38,0.09c-0.12,0.04-0.23,0.11-0.32,0.21c-0.17,0.18-0.3,0.46-0.28,0.71c0.02,0.26,0.1,0.53,0.3,0.7
			c0.07,0.05,0.14,0.1,0.2,0.15c0.16,0.09,0.33,0.13,0.51,0.13c0.5-0.07,1-0.14,1.5-0.21c0.14,0,0.27-0.03,0.38-0.09
			c0.12-0.04,0.23-0.11,0.32-0.21c0.17-0.18,0.3-0.46,0.28-0.71C264.64,119.26,264.55,118.99,264.35,118.81z"/>
		<path class="st4" d="M266.99,122.81c-0.11-0.25-0.18-0.52-0.23-0.79c-0.02-0.24-0.03-0.49,0-0.73c0.02-0.24-0.14-0.54-0.3-0.7
			c-0.18-0.17-0.46-0.3-0.71-0.28c-0.26,0.02-0.53,0.1-0.7,0.3c-0.05,0.07-0.1,0.14-0.15,0.2c-0.09,0.16-0.13,0.33-0.13,0.51
			c-0.04,0.35-0.01,0.7,0.04,1.04c0.05,0.35,0.13,0.68,0.27,1.01c0.03,0.13,0.09,0.24,0.18,0.34c0.07,0.11,0.17,0.19,0.28,0.25
			c0.22,0.12,0.53,0.17,0.77,0.09c0.24-0.08,0.47-0.24,0.59-0.47c0.03-0.08,0.06-0.16,0.1-0.24
			C267.05,123.17,267.04,122.99,266.99,122.81z"/>
		<path class="st4" d="M270.07,119.42c-0.08-0.24-0.24-0.47-0.47-0.59c-0.08-0.03-0.16-0.06-0.24-0.1c-0.15-0.04-0.3-0.04-0.46,0
			c-0.37,0.05-0.75,0.06-1.13,0.03c-0.14,0-0.27,0.03-0.38,0.09c-0.12,0.04-0.23,0.11-0.32,0.21c-0.1,0.09-0.16,0.2-0.2,0.32
			c-0.06,0.12-0.09,0.25-0.08,0.39c0.02,0.26,0.1,0.53,0.3,0.7c0.07,0.05,0.14,0.1,0.2,0.15c0.16,0.09,0.33,0.13,0.51,0.13
			c0.53,0.05,1.06,0,1.58-0.1c0.13-0.03,0.24-0.09,0.34-0.18c0.11-0.07,0.19-0.17,0.25-0.28c0.07-0.12,0.11-0.24,0.11-0.37
			C270.13,119.69,270.12,119.56,270.07,119.42z"/>
	</g>
	<g>
		<path class="st4" d="M151.15,80.08c-0.18-0.17-0.46-0.3-0.71-0.28c-0.26,0.02-0.53,0.1-0.7,0.3c-0.05,0.07-0.1,0.14-0.15,0.2
			c-0.09,0.16-0.13,0.33-0.13,0.51c-0.06,0.69-0.12,1.38-0.18,2.07c-0.02,0.24,0.14,0.54,0.3,0.7c0.18,0.17,0.46,0.3,0.71,0.28
			c0.26-0.02,0.53-0.1,0.7-0.3c0.05-0.07,0.1-0.14,0.15-0.2c0.09-0.16,0.13-0.33,0.13-0.51c0.06-0.69,0.12-1.38,0.18-2.07
			C151.47,80.55,151.31,80.25,151.15,80.08z"/>
		<path class="st4" d="M148.94,83.76c-0.07-0.05-0.14-0.1-0.2-0.15c-0.16-0.09-0.33-0.13-0.51-0.13c-0.5,0.07-1,0.14-1.5,0.21
			c-0.14,0-0.27,0.03-0.38,0.09c-0.12,0.04-0.23,0.11-0.32,0.21c-0.17,0.18-0.3,0.46-0.28,0.71c0.02,0.26,0.1,0.53,0.3,0.7
			c0.07,0.05,0.14,0.1,0.2,0.15c0.16,0.09,0.33,0.13,0.51,0.13c0.5-0.07,1-0.14,1.5-0.21c0.14,0,0.27-0.03,0.38-0.09
			c0.12-0.04,0.23-0.11,0.32-0.21c0.17-0.18,0.3-0.46,0.28-0.71C149.23,84.2,149.14,83.93,148.94,83.76z"/>
		<path class="st4" d="M151.58,87.76c-0.11-0.25-0.18-0.52-0.23-0.79c-0.02-0.24-0.03-0.49,0-0.73c0.02-0.24-0.14-0.54-0.3-0.7
			c-0.18-0.17-0.46-0.3-0.71-0.28c-0.26,0.02-0.53,0.1-0.7,0.3c-0.05,0.07-0.1,0.14-0.15,0.2c-0.09,0.16-0.13,0.33-0.13,0.51
			c-0.04,0.35-0.01,0.7,0.04,1.04c0.05,0.35,0.13,0.68,0.27,1.01c0.03,0.13,0.09,0.24,0.18,0.34c0.07,0.11,0.17,0.19,0.28,0.25
			c0.22,0.12,0.53,0.17,0.77,0.09c0.24-0.08,0.47-0.24,0.59-0.47c0.03-0.08,0.06-0.16,0.1-0.24
			C151.63,88.11,151.63,87.93,151.58,87.76z"/>
		<path class="st4" d="M154.66,84.37c-0.08-0.24-0.24-0.47-0.47-0.59c-0.08-0.03-0.16-0.06-0.24-0.1c-0.15-0.04-0.3-0.04-0.46,0
			c-0.37,0.05-0.75,0.06-1.13,0.03c-0.14,0-0.27,0.03-0.38,0.09c-0.12,0.04-0.23,0.11-0.32,0.21c-0.1,0.09-0.16,0.2-0.2,0.32
			c-0.06,0.12-0.09,0.25-0.08,0.39c0.02,0.26,0.1,0.53,0.3,0.7c0.07,0.05,0.14,0.1,0.2,0.15c0.16,0.09,0.33,0.13,0.51,0.13
			c0.53,0.05,1.06,0,1.58-0.1c0.13-0.03,0.24-0.09,0.34-0.18c0.11-0.07,0.19-0.17,0.25-0.28c0.07-0.12,0.11-0.24,0.11-0.37
			C154.71,84.63,154.7,84.5,154.66,84.37z"/>
	</g>
	<path class="st4" d="M271.89,106.29c-1.29,0-1.29,2,0,2C273.18,108.29,273.18,106.29,271.89,106.29z"/>
	<path class="st4" d="M261.75,68.93c-1.29,0-1.29,2,0,2C263.04,70.93,263.04,68.93,261.75,68.93z"/>
	<path class="st4" d="M269.45,64.43c-1.29,0-1.29,2,0,2C270.74,66.43,270.74,64.43,269.45,64.43z"/>
	<path class="st4" d="M236.6,52.98c-1.29,0-1.29,2,0,2C237.89,54.98,237.89,52.98,236.6,52.98z"/>
	<path class="st4" d="M201.31,43.22c-1.29,0-1.29,2,0,2C202.6,45.22,202.6,43.22,201.31,43.22z"/>
	<path class="st4" d="M215.02,36.46c-1.29,0-1.29,2,0,2C216.3,38.46,216.3,36.46,215.02,36.46z"/>
	<path class="st4" d="M182.54,70.62c-1.29,0-1.29,2,0,2C183.83,72.62,183.83,70.62,182.54,70.62z"/>
	<path class="st4" d="M158.89,57.48c-1.29,0-1.29,2,0,2C160.18,59.48,160.18,57.48,158.89,57.48z"/>
	<path class="st4" d="M171.47,124.3c-1.29,0-1.29,2,0,2C172.75,126.3,172.76,124.3,171.47,124.3z"/>
	<path class="st4" d="M174.47,132.75c-1.29,0-1.29,2,0,2C175.76,134.75,175.76,132.75,174.47,132.75z"/>
	<path class="st4" d="M187.05,128.43c-1.29,0-1.29,2,0,2C188.33,130.43,188.34,128.43,187.05,128.43z"/>
	<path class="st4" d="M177.85,165.22c-1.29,0-1.29,2,0,2C179.14,167.22,179.14,165.22,177.85,165.22z"/>
	<path class="st4" d="M272.73,135.1c-1.29,0-1.29,2,0,2C274.02,137.1,274.02,135.1,272.73,135.1z"/>
</g>
</svg>
