<?xml version="1.0" encoding="utf-8"?>
<!-- Generator: Adobe Illustrator 24.2.0, SVG Export Plug-In . SVG Version: 6.00 Build 0)  -->
<svg version="1.1" id="line" xmlns="http://www.w3.org/2000/svg" xmlns:xlink="http://www.w3.org/1999/xlink" x="0px" y="0px"
	 viewBox="0 0 320 250" style="enable-background:new 0 0 320 250;" xml:space="preserve">
<style type="text/css">
	.st0{fill:#BCDFDF;}
	.st1{fill:#99D3DD;}
	.st2{fill:#ABCB58;}
	.st3{fill:#C7D555;}
	.st4{fill:#FFFFFF;}
	.st5{fill:#AAB4B9;}
	.st6{fill:#FDDBBF;}
	.st7{fill:#F4CA99;}
	.st8{fill:#DC9F5C;}
	.st9{fill:#F6B1AC;}
	.st10{fill:#651811;}
	.st11{fill:#E9E56D;}
	.st12{fill:#9BC0D5;}
	.st13{fill:#DDE8F0;}
	.st14{fill:#EF7C68;}
	.st15{fill:#FFE1A2;}
	.st16{fill:#E9F4F4;}
	.st17{fill:#CDD95F;}
	.st18{fill:#B2DCDA;}
	.st19{fill:#9DAEB9;}
	.st20{fill:#F0EA7A;}
	.st21{fill:#CCDB81;}
	.st22{fill:#F4A5AD;}
	.st23{fill:#B2B2B2;}
	.st24{fill:#C0C4C6;}
	.st25{fill:#E3E8EA;}
	.st26{fill:#FFDB83;}
	.st27{fill:#C0C0C0;}
	.st28{fill:#6EC6D9;}
	.st29{fill:#878D91;}
	.st30{fill:#F0867B;}
	.st31{fill:#FFDE90;}
	.st32{fill:#C53C6C;}
	.st33{fill:#EEBF6D;}
	.st34{fill:#903D8F;}
	.st35{fill:#514E9C;}
	.st36{fill:#F9BB7A;}
	.st37{fill:#F28F6C;}
	.st38{fill:#FFE586;}
	.st39{fill:#6FC5D3;}
	.st40{fill:#9BD4E4;}
	.st41{fill:#F6B9C2;}
	.st42{fill:#F4A08B;}
	.st43{fill:#D1E8E8;}
	.st44{fill:#FCC249;}
	.st45{fill:#9F5A24;}
	.st46{fill:#BCE4FA;}
	.st47{fill:#B07147;}
	.st48{fill:#D88959;}
	.st49{fill:#FFEC96;}
	.st50{fill:#91D0D4;}
	.st51{fill:#651811;stroke:#651811;stroke-width:0.75;stroke-linecap:round;stroke-linejoin:round;stroke-miterlimit:10;}
	.st52{fill:#C1E3E6;}
	.st53{fill:#C4D4DE;}
	.st54{fill:#651811;stroke:#651811;stroke-width:0.5;stroke-miterlimit:10;}
	.st55{fill:#651811;stroke:#651811;stroke-width:0.5;stroke-linecap:round;stroke-linejoin:round;stroke-miterlimit:10;}
	.st56{fill:#D8E0E6;}
	.st57{fill:#FECB4A;}
	.st58{fill:#EEF8FE;}
	.st59{fill:#ADCE68;}
	.st60{fill:#FCD7BA;}
	.st61{fill:#651811;stroke:#651811;stroke-width:0.25;stroke-miterlimit:10;}
	.st62{fill:#F4A8B3;}
	.st63{fill:#F7AE6E;}
	.st64{fill:#FEDFB3;}
	.st65{fill:#F7B28C;}
	.st66{fill:#FFFBDC;}
	.st67{fill:#FCC24F;}
	.st68{fill:none;stroke:#651811;stroke-width:2;stroke-linecap:round;stroke-linejoin:round;stroke-miterlimit:10;}
	.st69{fill:#9EC65A;}
	.st70{fill:#A7D9DE;}
	.st71{fill:#CACCCE;}
	.st72{fill:#FBBE49;}
	.st73{fill:#9BC76B;}
	.st74{fill:#D9E181;}
	.st75{fill:#F6B9C5;}
	.st76{fill:#87CDD8;}
	.st77{fill:#651811;stroke:#651811;stroke-width:0.4;stroke-miterlimit:10;}
	.st78{fill:#A8D7CC;}
	.st79{fill:#CDEAFC;}
	.st80{fill:#D6D6D6;}
	.st81{fill:#F8C3C3;}
	.st82{fill:#D7BCA5;}
	.st83{fill:#FFD247;}
	.st84{fill:#F59B42;}
	.st85{fill:#FFF59B;}
	.st86{fill:#90D1DB;}
	.st87{fill:#EB935F;}
	.st88{fill:#DD7636;}
</style>
<g>
	<path class="st63" d="M246.81,212.63c41.66-17.08,57.71-51.07,56.63-79.84c-1.08-28.67-19.38-58.03-59.83-71.75
		c-19.98-6.78-86.57-14-127.21,21.57c-22.65,19.83-31.22,64.62-9.14,101.06c8.88,14.66,24.06,27.6,47.6,33.86
		C177.75,223.63,217.65,224.58,246.81,212.63z"/>
	<path class="st26" d="M246.88,25.56c-24.18-13.73-42.3-11.37-52.58-9.33c-14.5,2.87-46.99,15.75-52.35,63.15
		c-5.36,47.4,56.87,72.08,109.46,45.63C304,98.56,277.87,43.16,246.88,25.56z"/>
	<path class="st4" d="M36.06,118.42c9.29-7.66,21.19-12.27,34.18-12.27c29.67,0,53.73,24.05,53.73,53.73s-24.05,53.73-53.73,53.73
		s-53.73-24.05-53.73-53.73c0-15.32,6.81-29.62,17.1-39.41"/>
	<path class="st4" d="M268.92,132.24c-1.63-4.89-5-8.15-9.06-11.12c-2.3-1.68-4.7-3.19-7.12-4.69c-1.03-0.64-1.91-1.32-2.48-2.41
		c-0.29-0.55-0.49-1.14-0.66-1.74c0.61-0.18,1.19-0.41,1.75-0.69c0.61,0.69,1.74,1.12,2.56,0.5c5.53-4.19,9.72-9.95,11.9-16.48
		c3.35-7.08,4.04-18.15-4.05-21.96c-4.19-1.98-9.13-2.6-13.68-3.17c-2.07-0.26-4.21-0.27-6.25-0.75c-2.07-0.49-3.08-1.85-4.66-3.13
		c-3.36-2.73-8.6-1.77-12.09,0.36c-4.02,2.46-4.5,7.23-2.82,11.31c0.47,1.14,1.03,2.23,1.62,3.31c0.41,0.76,1.34,1.91,1.24,2.83
		c-0.1,0.87-1.01,1.91-1.41,2.68c-0.56,1.08-1.06,2.2-1.49,3.33c-1.52,4.01-1.98,8.63-0.44,12.7c0.78,2.06,1.95,4.02,3.62,5.5
		c0.86,0.75,1.8,1.34,2.78,1.9c0.6,0.35,1.39,0.66,1.21,1.47c-0.22,0.94-1.25,1.48-2.03,1.9c-1.13,0.6-2.3,1.11-3.42,1.72
		c-0.66,0.36-1.31,0.74-1.95,1.14c-1.86-14.02-3.97-28.01-6.53-41.92c-0.16-1.54-0.32-3.07-0.48-4.61c4.28,0.15,9.4-4.78,11.7-7.63
		c4.03-4.98,6.11-11.83,3.55-17.98c-2.46-5.93-8.34-9.55-14.45-10.75c-6.46-1.28-14.06-0.97-19.65,2.85
		c-5.06,3.46-8.24,8.95-9.18,14.93c-8.53,0.82-17.05,1.76-25.55,2.85c-4.57,0.58-9.13,1.2-13.69,1.85
		c-4.06,0.58-8.15,1.19-12.06,2.46c-3.68,1.2-7.84,3.02-10.36,6.09c-2.72,3.33-2.6,7.77-2.67,11.86
		c-0.17,9.28,0.65,18.55,1.94,27.73c0.13,0.93,0.27,1.86,0.41,2.79c0.69,9.3,1.59,18.59,2.72,27.85c1.99,16.3,4.63,32.53,7.96,48.61
		c0.84,4.06,1.72,8.1,2.64,12.14c0.76,3.3,1.39,6.89,3.35,9.74c2.05,2.97,5.18,4.49,8.65,5.14c3.68,0.69,7.49,0.93,11.22,1.15
		c15.81,0.91,31.8-0.78,47.07-4.96c6.41-1.76,14.65-3.47,17.74-10.12c3.12-6.72,0.87-13.87-0.52-20.7c-0.07-0.35-0.13-0.69-0.2-1.04
		c5.42,3.72,10.98,7.27,17.14,9.66c6.45,2.5,15.25,4.55,20.61-1.15c4.86-5.17,4.87-12.78,5.06-19.58
		c1.05-5.39,1.73-10.85,1.99-16.33C270.68,142.54,270.56,137.16,268.92,132.24z"/>
	<path class="st23" d="M94.77,127.93c-0.05-0.06-0.11-0.11-0.17-0.16c0-0.01,0-0.02-0.01-0.03c-0.43-1.27-1.29-1.91-2.35-2.16
		c-0.17-0.16-0.36-0.3-0.56-0.4c-2.81-1.35-5.84-1.04-8.85-1.1c-0.1-0.08-0.2-0.16-0.3-0.24c-1.66-1.22-3.55-2.04-5.5-2.68
		c-6.21-2.05-17.66-6.27-21.93,1.24c-0.21,0.37-0.25,0.74-0.18,1.1c-0.91,1.35-1.51,2.89-2.02,4.45c-0.75,2.29-1.21,4.65-1.43,7.04
		c-0.43,4.69,0.18,9.42,1.74,13.86c0.38,1.08,1.95,0.8,1.95-0.34c0-0.83,0.03-1.66,0.07-2.48c0.03-0.08,0.06-0.15,0.07-0.24
		c0.01-0.13,0.02-0.26,0.03-0.39c-0.04-0.02-0.08-0.03-0.1-0.04c0,0-0.01,0-0.01,0c-0.05-0.02-0.09-0.04-0.13-0.07
		c-0.17-0.12-0.33-0.23-0.49-0.36c-0.01-0.01-0.02-0.02-0.03-0.02c-0.02-0.02-0.04-0.04-0.06-0.06c-0.17-0.18-0.33-0.38-0.48-0.57
		c-0.04-0.05-0.08-0.11-0.11-0.16c-0.02-0.03-0.03-0.06-0.05-0.09c-0.1-0.2-0.19-0.4-0.28-0.6c-0.03-0.06-0.05-0.12-0.07-0.19
		c-0.05-0.15-0.07-0.32-0.1-0.48c-0.03-0.15-0.07-0.31-0.07-0.47c0-0.26,0.02-0.52,0.07-0.77c0.01-0.03,0.01-0.06,0.02-0.09
		c0-0.01,0.01-0.02,0.01-0.02c0.07-0.18,0.14-0.39,0.21-0.57c0.01-0.01,0.01-0.03,0.02-0.04c0.01-0.03,0.03-0.05,0.04-0.08
		c0.11-0.16,0.23-0.33,0.35-0.48c0-0.01,0.01-0.01,0.01-0.02c0.01-0.01,0.02-0.02,0.03-0.03c0.14-0.15,0.42-0.36,0.5-0.42
		c0.03-0.02,0.05-0.04,0.08-0.06c0.19-0.11,0.4-0.19,0.6-0.28c0.03-0.01,0.07-0.03,0.11-0.04c0.02-0.01,0.04-0.01,0.06-0.02
		c0.16-0.04,0.33-0.06,0.49-0.09c0.09-0.63,0.18-1.26,0.28-1.89c0.04-0.04,0.08-0.07,0.12-0.11c0.2-0.22,0.38-0.47,0.56-0.7
		c0.16-0.01,0.31-0.05,0.46-0.11c0-0.18,0-0.36,0.03-0.55c0.33-2.5,0.88-5.15,2.26-7.31c0.2-0.31,0.45-0.57,0.74-0.76
		c0.23-0.79,0.55-1.55,1.09-2.21c0.57-0.7,1.87-0.58,2.36,0.16c0.02-0.01,0.04-0.03,0.06-0.04c0.07-0.03,0.12-0.04,0.19-0.05
		c0.48,0.25,0.98,0.47,1.48,0.68c0.78,0.53,1.56,1.03,2.43,1.42c2.04,0.91,4.24,1.34,6.35,2.03c2.2,0.72,4.21,1.85,6.33,2.76
		c2.22,0.96,4.46,1.48,6.89,1.41c1.96-0.05,4.62-0.14,6.29-1.31C95.41,131.67,96.03,129.45,94.77,127.93z"/>
	<path class="st23" d="M85.01,154.4c-0.09-1.77,0.15-4.24-1.24-5.6c-1.35-1.31-3.24-0.97-4.91-0.7c-1.98,0.31-4.16,0.95-6.17,0.86
		c-1.6-0.07-2.37-2.14-3.58-3.02c-1.46-1.05-3.34-1.46-5.12-1.4c-1.1,0.04-2.2,0.24-3.27,0.48c-0.92,0.21-1.96,0.37-2.78,0.87
		c-2.06,1.23-1.01,3.32-1.13,5.19c-0.04,0.65,0.27,1.07,0.71,1.28c-0.28,2.26-0.53,4.52-0.72,6.79c-0.24,3.01-0.96,6.66,0.62,9.42
		c0.47,0.81,1.7,1.01,2.36,0.3c0.08-0.08,0.15-0.17,0.22-0.25c-0.14,4.71,0.37,9.42,1.5,14.01c0.32,1.31,2.06,1.39,2.74,0.36
		c0.19-0.29,0.38-0.58,0.57-0.86c0.59,3.36,1.8,6.59,3.62,9.51c0.57,0.92,2.04,1.02,2.59,0c1.35-2.53,2.61-5.1,3.82-7.7
		c0.22,0.46,0.45,0.92,0.67,1.38c0.36,0.73,1.39,0.92,2.05,0.54c2.47-1.41,2.68-4.53,3.16-7.04c0.4-2.11,0.81-4.21,1.21-6.32
		c0.47,0.37,1.2,0.45,1.71,0.13c1.69-1.04,1.39-3.29,1.44-5.01c0.07-2.2,0.1-4.4,0.09-6.6C85.18,158.8,85.12,156.6,85.01,154.4z"/>
	<path class="st80" d="M83.56,148.84c-0.08-1.28-2.08-1.29-2,0c0.38,6.13,0.52,12.27,0.47,18.41c0,0,0,0,0,0
		c-0.33-0.6-1.1-0.61-1.57-0.2c-1.72,1.49-1.3,4.38-1.47,6.41c-0.16,1.96-0.41,3.9-0.72,5.83c-0.28-0.63-0.57-1.38-1.1-1.8
		c-1.06-0.84-2.43-0.19-2.97,0.91c-0.71,1.43-0.83,3.29-1.31,4.82c-0.45,1.43-1,2.81-1.61,4.17c-0.67-0.03-1.4,0.69-0.99,1.5
		c0.14,0.27,0.28,0.54,0.41,0.81c0.33,0.64,1.4,0.66,1.73,0c1.13-2.33,2.08-4.75,2.77-7.25c0.09-0.32,0.65-3.15,0.84-3.14
		c0.16,0.01,0.71,1.45,0.8,1.64c0.33,0.68,0.67,1.37,1,2.05c0.37,0.75,1.66,0.59,1.83-0.24c0.49-2.44,0.87-4.9,1.13-7.38
		c0.14-1.27,0.24-2.55,0.31-3.83c0.04-0.65-0.01-1.41,0.16-2.08c0.42,0.35,0.9,0.62,1.46,0.82c0.63,0.22,1.26-0.35,1.27-0.96
		C84.13,162.49,83.98,155.66,83.56,148.84z"/>
	<path class="st80" d="M65.52,172.46c-0.54,0.02-1,0.44-1,1v3.52c0,0.52,0.46,1.02,1,1c0.54-0.02,1-0.44,1-1v-3.52
		C66.52,172.93,66.06,172.43,65.52,172.46z"/>
	<path class="st80" d="M69.73,172.47c0.05-0.52-0.5-1.02-1-1c-0.58,0.03-0.95,0.44-1,1c-0.14,1.5-0.18,3-0.1,4.51
		c0.03,0.52,0.44,1.02,1,1c0.52-0.02,1.03-0.44,1-1C69.55,175.47,69.59,173.97,69.73,172.47z"/>
	<path class="st80" d="M73.69,171.34c-0.17-0.17-0.46-0.3-0.71-0.29c-0.54,0.02-1,0.44-1,1v2.11c0,0.26,0.11,0.53,0.29,0.71
		c0.17,0.17,0.46,0.3,0.71,0.29c0.54-0.02,1-0.44,1-1v-2.11C73.98,171.79,73.87,171.52,73.69,171.34z"/>
	<path class="st80" d="M63.13,155.28c-0.58,0.03-0.96,0.44-1,1c-0.09,1.17-0.19,2.35-0.28,3.52c-0.04,0.52,0.49,1.02,1,1
		c0.58-0.03,0.96-0.44,1-1c0.09-1.17,0.19-2.35,0.28-3.52C64.17,155.76,63.64,155.26,63.13,155.28z"/>
	<path class="st80" d="M66.79,155.7c-0.56,0.03-0.97,0.44-1,1c-0.05,0.99-0.09,1.97-0.14,2.96c-0.02,0.52,0.48,1.02,1,1
		c0.56-0.03,0.97-0.44,1-1c0.05-0.99,0.09-1.97,0.14-2.96C67.81,156.18,67.31,155.68,66.79,155.7z"/>
	<path class="st80" d="M71.88,159.66c-0.02-0.23-0.02-0.46,0-0.69c0.03-0.15,0.05-0.3,0.1-0.45c0.07-0.25,0.03-0.55-0.1-0.77
		c-0.12-0.21-0.36-0.41-0.6-0.46c-0.54-0.12-1.07,0.16-1.23,0.7c-0.25,0.85-0.25,1.79,0,2.64c0.07,0.24,0.24,0.47,0.46,0.6
		c0.21,0.13,0.53,0.18,0.77,0.1c0.24-0.08,0.48-0.23,0.6-0.46c0.12-0.24,0.18-0.51,0.1-0.77C71.93,159.95,71.9,159.81,71.88,159.66z
		"/>
	<path class="st80" d="M75.8,155.99c-0.56,0.03-0.97,0.44-1,1c-0.05,1.03-0.09,2.06-0.14,3.1c-0.02,0.52,0.48,1.02,1,1
		c0.56-0.03,0.97-0.44,1-1c0.05-1.03,0.09-2.06,0.14-3.1C76.82,156.46,76.32,155.96,75.8,155.99z"/>
	<path class="st80" d="M66.65,165.85c-0.17-0.17-0.46-0.3-0.71-0.29c-0.26,0.01-0.53,0.1-0.71,0.29c-0.18,0.2-0.29,0.44-0.29,0.71
		v1.97c0,0.26,0.11,0.53,0.29,0.71c0.17,0.17,0.46,0.3,0.71,0.29c0.26-0.01,0.53-0.1,0.71-0.29c0.18-0.2,0.29-0.44,0.29-0.71v-1.97
		C66.94,166.3,66.83,166.03,66.65,165.85z"/>
	<path class="st80" d="M72.69,166.91c-0.04-0.06-0.06-0.12-0.09-0.19c-0.07-0.18-0.12-0.37-0.15-0.56c-0.02-0.2-0.03-0.4,0-0.59
		c0.03-0.24-0.13-0.55-0.29-0.71c-0.17-0.17-0.46-0.3-0.71-0.29c-0.26,0.01-0.53,0.1-0.71,0.29c-0.05,0.07-0.1,0.13-0.16,0.2
		c-0.09,0.16-0.14,0.32-0.14,0.5c-0.09,0.8,0.12,1.65,0.52,2.35c0.13,0.22,0.36,0.39,0.6,0.46c0.24,0.07,0.56,0.04,0.77-0.1
		c0.21-0.14,0.4-0.34,0.46-0.6C72.85,167.42,72.83,167.15,72.69,166.91z"/>
	<path class="st80" d="M77.63,165.01c-0.09-0.1-0.2-0.17-0.32-0.21c-0.12-0.06-0.25-0.09-0.39-0.09c-0.26,0.01-0.53,0.1-0.71,0.29
		c-0.18,0.2-0.29,0.44-0.29,0.71v1.27c0,0.26,0.11,0.53,0.29,0.71c0.09,0.1,0.2,0.17,0.32,0.21c0.12,0.06,0.25,0.09,0.39,0.09
		c0.26-0.01,0.53-0.1,0.71-0.29c0.18-0.2,0.29-0.44,0.29-0.71v-1.27C77.92,165.46,77.81,165.19,77.63,165.01z"/>
	<path class="st80" d="M90.3,131.81c-5.05,0.61-10.07-1.77-14.65-3.6c-4.74-1.89-9.38-4.03-13.83-6.53
		c-0.36-0.2-0.92-0.18-1.21,0.16c-0.69,0.8-1.31,1.64-1.89,2.5c-0.27,0.04-0.51,0.17-0.64,0.47c-0.03,0.08-0.07,0.16-0.1,0.24l0,0
		c0,0.01,0,0.01-0.01,0.02c-0.23,0.52-0.44,1.05-0.66,1.58c-1.03,1.94-1.81,4-2.33,6.14c-0.5,1.45-0.98,2.9-1.41,4.37
		c-0.37,1.24,1.56,1.76,1.93,0.53c0.05-0.17,0.11-0.34,0.16-0.51c0.3-0.09,0.57-0.29,0.67-0.64c0.9-3.22,1.93-6.4,3.07-9.54
		c0.64-1.12,1.37-2.18,2.18-3.18c4.37,2.4,8.91,4.48,13.54,6.33c4.75,1.9,9.95,4.3,15.19,3.67
		C91.56,133.65,91.58,131.65,90.3,131.81z"/>
	<path class="st47" d="M267.43,145.19c-0.25-3.53-1.09-6.98-2.46-10.25c-1.4-3.32-3.31-6.39-5.68-9.1c-1.2-1.37-2.52-2.64-3.94-3.77
		c-1.19-0.95-2.81-2.52-4.39-2.66c-1.06-0.09-1.78,0.57-2.37,1.36c-0.77,1.03-1.5,2.09-2.24,3.13c-1.48,2.09-2.96,4.2-4.41,6.31
		c-2.33,3.38-4.6,6.79-6.85,10.23l-6.64-18.62c0.23-0.08,0.45-0.17,0.66-0.27c-0.55-1-1.02-2.03-1.42-3.1
		c-1.2,0.29-2.4,0.59-3.6,0.88c-0.21,0.3-0.48,0.57-0.77,0.8c-0.5,0.37-1,0.73-1.52,1.08c-0.15,0.12-0.3,0.24-0.46,0.35
		c-0.5,0.38-1.04,0.67-1.6,0.93c0.03,0.38,0.1,0.76,0.18,1.13c-0.36,0.23-0.59,0.63-0.53,1.21c0.79,7.66,1.91,15.28,3.33,22.84
		c0.18,3,0.33,6.01,0.39,9.01c0.02,1.07,0.96,1.55,1.78,1.43c0.04,0.19,0.08,0.38,0.13,0.56c0.25,1.07,1.32,1.28,2.1,0.89
		c0.46,1.04,2.03,1.41,2.67,0.22c0.44-0.81,0.65-1.6,0.65-2.52c0-0.01,0-0.02,0-0.03c3.51,2.15,7.94,3.08,11.9,3.28
		c7.24,0.37,14.76-1.59,20.57-6.02c1.4-1.07,3-2.3,3.89-3.86C267.71,149.02,267.56,147,267.43,145.19z"/>
	<path class="st4" d="M247.53,116.35c-0.83-0.5-1.96-0.35-2.88-0.25c-3.6,0.39-7.24,2.09-10.9,2.05c-0.21-0.47-0.64-0.82-1.31-0.8
		c-0.68,0.02-1.35,0.03-2.03,0.05c-0.93,0.02-1.75,0.95-1.45,1.9c1.29,3.99,2.66,7.96,4.12,11.89c0.34,0.91,0.68,1.82,1.03,2.73
		c0.37,0.98,0.67,2.1,1.19,3.01c0.48,0.86,1.59,1.29,2.49,0.76c0.89-0.52,1.3-1.7,1.76-2.56l6-11.16c0.47-0.88,0.94-1.75,1.41-2.63
		c0.46-0.85,1.15-1.79,1.38-2.74C248.54,117.77,248.3,116.81,247.53,116.35z"/>
	<g>
		<path class="st6" d="M226.16,86.54c0.7-3.33,1.92-6.98,6.07-5.96c4.79,1.18,9.57,1.8,14.52,1.56c1.94-0.1,4.64-0.85,6.26,0.56
			c0.28-0.43,0.61-0.84,1.05-1.02c0.65-0.26,1.36,0.05,1.67,0.65c0.16,0.31,0.21,0.64,0.21,0.98c0.4-0.08,0.85,0.04,1.05,0.42
			c0.79,1.48,0.85,3,0.65,4.63c-0.27,2.22-0.74,4.44-1.16,6.64c-0.18,0.95-0.35,1.93-0.53,2.9c0.59,0.21,1.1,0.58,1.4,1.14
			c0.31,0.58,0.44,1.21,0.34,1.86c-0.17,1.23-1.17,2.21-2.26,2.7c-0.26,0.12-0.56,0.18-0.86,0.17c-0.42,1.35-0.94,2.66-1.62,3.89
			c-0.63,1.12-2.4,0.2-1.77-0.93c0.15-0.27,0.28-0.56,0.42-0.84c-0.38,0.5-0.8,0.97-1.3,1.38c-1.4,1.15-3.13,1.81-4.92,1.92
			c-0.93,0.34-1.89,0.59-2.87,0.74c0.15,0.77,0.23,1.57,0.2,2.36c-0.04,0.98-0.16,2.05-0.94,2.74c-0.67,0.58-1.58,0.71-2.41,0.91
			c-0.76,0.18-1.52,0.39-2.29,0.54c-0.72,0.14-1.44,0.05-1.95-0.53c-0.44-0.49-0.53-1.13-0.43-1.76c0.13-0.83,0.32-1.63,0.61-2.41
			c0.27-0.7,0.57-1.42,1.02-2.02c-0.77-0.15-1.53-0.34-2.27-0.59c-0.25,0.08-0.53,0.1-0.84,0.03c-3.64-0.9-7.06-3.24-8.32-6.9
			c-0.6-1.74-0.56-3.59-0.38-5.41c-0.12-1.15-0.13-2.3-0.03-3.45C224.66,91.17,225.11,88.65,226.16,86.54z"/>
		<path class="st45" d="M226.35,70.77c0.07-0.03,0.14-0.05,0.22-0.07c0.01-0.01,0.01-0.01,0.02-0.02c0.93-0.97,1.99-1.18,3.05-0.95
			c0.22-0.08,0.45-0.12,0.68-0.12c3.12-0.02,5.72,1.55,8.48,2.78c0.12-0.03,0.25-0.06,0.37-0.09c2.02-0.39,4.08-0.33,6.11-0.08
			c6.49,0.79,18.64,1.86,19.31,10.48c0.03,0.42-0.09,0.78-0.3,1.07c0.25,1.61,0.13,3.26-0.07,4.89c-0.3,2.39-0.89,4.72-1.71,6.98
			c-1.62,4.42-4.18,8.45-7.49,11.8c-0.8,0.81-2.1-0.11-1.62-1.14c0.35-0.75,0.68-1.51,1-2.28c0.01-0.08,0.01-0.16,0.04-0.25
			c0.05-0.12,0.09-0.24,0.13-0.36c0.04,0,0.08,0.01,0.11,0.01c0,0,0.01,0,0.01,0c0.05,0,0.1,0,0.14-0.01c0.2-0.03,0.4-0.07,0.6-0.11
			c0.01,0,0.03-0.01,0.04-0.01c0.03-0.01,0.05-0.02,0.08-0.03c0.23-0.08,0.46-0.2,0.67-0.31c0.06-0.03,0.11-0.06,0.17-0.1
			c0.03-0.02,0.05-0.04,0.08-0.06c0.18-0.13,0.34-0.28,0.51-0.42c0.05-0.04,0.1-0.09,0.15-0.14c0.11-0.12,0.2-0.26,0.29-0.39
			c0.09-0.13,0.19-0.25,0.26-0.4c0.11-0.23,0.2-0.48,0.26-0.73c0.01-0.03,0.01-0.06,0.02-0.09c0-0.01,0-0.02,0-0.03
			c0.02-0.19,0.04-0.41,0.05-0.6c0-0.01,0-0.03,0-0.04c0-0.03,0-0.06-0.01-0.09c-0.03-0.19-0.07-0.39-0.11-0.58
			c0-0.01,0-0.01,0-0.02c0-0.01-0.01-0.03-0.01-0.04c-0.06-0.2-0.23-0.51-0.27-0.59c-0.01-0.03-0.03-0.06-0.05-0.08
			c-0.12-0.18-0.28-0.35-0.42-0.51c-0.02-0.03-0.05-0.05-0.08-0.08c-0.02-0.01-0.03-0.03-0.05-0.04c-0.13-0.1-0.27-0.2-0.41-0.29
			c0.19-0.61,0.38-1.22,0.55-1.83c-0.02-0.05-0.04-0.09-0.06-0.15c-0.09-0.29-0.14-0.58-0.21-0.88c-0.14-0.08-0.26-0.18-0.37-0.29
			c0.08-0.16,0.15-0.33,0.21-0.51c0.77-2.41,1.4-5.03,1.08-7.57c-0.05-0.37-0.17-0.71-0.34-1c0.13-0.82,0.16-1.64-0.04-2.47
			c-0.22-0.87-1.45-1.32-2.2-0.86c-0.01-0.02-0.02-0.04-0.04-0.06c-0.05-0.06-0.1-0.09-0.15-0.13c-0.54,0.02-1.08,0.01-1.63-0.01
			c-0.93,0.15-1.85,0.27-2.81,0.25c-2.23-0.05-4.4-0.59-6.61-0.87c-2.3-0.29-4.6-0.12-6.9-0.2c-2.42-0.08-4.67-0.56-6.83-1.66
			c-1.75-0.89-4.11-2.1-5.13-3.87C224.18,73.89,224.57,71.61,226.35,70.77z"/>
		<path class="st10" d="M254.69,98.56c0.06-0.11,0.16-0.21,0.29-0.24c0.12-0.03,0.28-0.04,0.39,0.03c0.09,0.06,0.18,0.13,0.26,0.2
			c0.08,0.07,0.15,0.16,0.22,0.24c0.12,0.14,0.2,0.3,0.27,0.47c0.15,0.34,0.18,0.72,0.13,1.08c-0.02,0.12-0.12,0.25-0.22,0.31
			c-0.1,0.07-0.26,0.1-0.38,0.07c-0.12-0.03-0.25-0.1-0.31-0.22c-0.06-0.11-0.08-0.22-0.07-0.34c0,0,0,0,0,0
			c0.01-0.11,0-0.22-0.02-0.32c-0.02-0.08-0.05-0.17-0.08-0.25c-0.04-0.08-0.09-0.15-0.14-0.22c-0.07-0.08-0.14-0.15-0.22-0.21
			c0.03,0.02,0.06,0.04,0.09,0.06c-0.11-0.08-0.2-0.15-0.24-0.29C254.62,98.83,254.62,98.67,254.69,98.56z"/>
		<path class="st10" d="M244.17,110.28c0.58,0.01,0.96,0.42,1.02,0.97c0.04,0.38,0.1,0.75,0.15,1.13c0,0.02,0,0.03,0.01,0.04
			c0,0.01,0,0.02,0.01,0.04c0.01,0.09,0.03,0.17,0.04,0.26c0.03,0.19,0.07,0.37,0.1,0.56c0.14,0.73,0.31,1.46,0.51,2.18
			c0.14,0.5-0.13,1.11-0.67,1.25c-0.51,0.13-1.1-0.13-1.25-0.67c-0.42-1.55-0.72-3.14-0.91-4.74
			C243.13,110.78,243.66,110.27,244.17,110.28z"/>
		<path class="st10" d="M231.19,116.09c-0.08,0.2,0.05-0.14,0.07-0.18c0.03-0.08,0.06-0.17,0.09-0.25c0.07-0.2,0.13-0.4,0.2-0.6
			c0.11-0.37,0.22-0.75,0.3-1.12c0.09-0.38,0.16-0.76,0.22-1.14c0.03-0.21,0.06-0.41,0.09-0.62c0-0.02,0-0.04,0.01-0.05
			c0-0.01,0-0.02,0-0.04c0.01-0.12,0.02-0.24,0.03-0.36c0.04-0.52,0.39-1.04,0.97-1.02c0.5,0.01,1.07,0.42,1.02,0.97
			c-0.15,1.86-0.57,3.64-1.26,5.38c-0.19,0.49-0.94,0.65-1.36,0.39C231.08,117.13,230.99,116.61,231.19,116.09z"/>
		<path class="st10" d="M233.57,116.1c0.84,0.52,1.79,0.53,2.75,0.53c1,0,2-0.05,3-0.17c2.01-0.24,3.98-0.81,5.71-1.88
			c1.1-0.68,2.15,1.02,1.05,1.7c-2.04,1.26-4.35,1.9-6.71,2.17c-1.13,0.13-2.27,0.18-3.41,0.17c-1.17-0.01-2.35-0.15-3.36-0.77
			C231.51,117.17,232.47,115.41,233.57,116.1z"/>
		<path class="st10" d="M236.31,96.45c1.47-0.41,2.15-2.03,2.64-3.32c0.23-0.6,1.16-0.23,0.93,0.37c-0.54,1.42-1.27,2.87-2.61,3.6
			c0.36,0.29,0.77,0.5,1.23,0.6c0.26,0.05,0.47,0.27,0.44,0.55c-0.03,0.25-0.29,0.49-0.55,0.44c-0.94-0.2-1.78-0.68-2.38-1.44
			C235.74,96.94,235.97,96.55,236.31,96.45z"/>
		<path class="st10" d="M232.82,89.47c0.17-0.7,0.52-1.52,1.15-1.75c0.2-0.07,0.4-0.07,0.59,0c0.01,0,0.02,0,0.03,0
			c0.69,0.12,0.94,0.95,1.02,1.67c0.09,0.76,0,1.56-0.27,2.28c-0.24,0.63-0.68,1.28-1.3,1.32c-0.63,0.03-1.08-0.58-1.24-1.24
			C232.61,91,232.64,90.21,232.82,89.47z"/>
		<path class="st10" d="M246.89,93.87c0.17-0.7,0.52-1.52,1.15-1.75c0.2-0.07,0.4-0.07,0.59,0c0.01,0,0.02,0,0.03,0
			c0.69,0.12,0.94,0.95,1.02,1.67c0.09,0.76,0,1.56-0.27,2.28c-0.24,0.63-0.68,1.28-1.3,1.32c-0.63,0.03-1.08-0.58-1.24-1.24
			C246.68,95.4,246.7,94.61,246.89,93.87z"/>
		<path class="st10" d="M226.34,82.31c-0.1-1.28,1.88-1.59,1.98-0.31c0.34,4.38-1.6,8.25-2.52,12.43
			c-0.89,4.03-0.06,7.89,2.74,10.99c6.19,6.84,18,4.8,24.72,0.04c0.01-0.01,0.02-0.01,0.03-0.02c-0.1,0.21-0.2,0.42-0.3,0.62
			c-0.16,0.31-0.15,0.68-0.07,1.01c-0.11,0.34-0.22,0.68-0.33,1.01c-0.03,0.07-0.04,0.13-0.06,0.2c-5.47,3.25-13.42,4.73-19.57,2.42
			c-6.42-2.41-10.53-8.84-9.33-15.68C224.39,90.78,226.68,86.73,226.34,82.31z"/>
		<path class="st10" d="M231.88,68.54c1.26,0.05,2.54,0.39,3.65,0.99c1.2,0.65,2.07,1.93,3.3,2.45c1.4,0.59,3.21,0.1,4.68,0.03
			c1.5-0.07,3.02-0.05,4.52,0.05c3.28,0.24,6.58,0.91,9.65,2.08c2.61,0.99,5.12,2.51,6.56,4.97c0.64,1.1-0.95,2.31-1.6,1.19
			c-2.39-4.08-7.99-5.34-12.32-5.98c-2.72-0.4-5.45-0.45-8.19-0.21c-1.08,0.09-2.19,0.2-3.25-0.04c-1.14-0.26-1.91-0.9-2.76-1.66
			c-1.82-1.64-4.25-2.35-6.62-1.54c-1.89,0.65-4.46,2.77-3.88,5.04c0.51,1.98,2.9,2.97,4.67,3.49c2.62,0.77,5.4,1.03,8.1,1.31
			c6.19,0.63,12.41,0.75,18.62,0.39c1.28-0.07,1.53,1.91,0.25,1.99c-6.38,0.37-12.8,0.25-19.16-0.4c-3.04-0.31-6.14-0.64-9.06-1.6
			c-2.04-0.67-4.2-1.91-5.11-3.96C221.82,72.44,227.77,68.37,231.88,68.54z"/>
		<path class="st10" d="M233.54,117.98c-0.03,0.86-0.01,1.71,0.07,2.57c0.03,0.3,0.05,0.58,0.14,0.87c0.01,0.03,0.03,0.11,0.06,0.17
			c0.01-0.01,0.02-0.01,0.04-0.02c0.26-0.1,0.49-0.46,0.67-0.66c0.29-0.31,0.57-0.63,0.84-0.96c0.54-0.65,1.04-1.34,1.5-2.05
			c0.53-0.81,1.79-0.62,1.88,0.41c0.12,1.33,0.13,2.75,0.4,4.06c0.04,0.18,0.14,0.79,0.37,0.85c0.31,0.08,1.07-0.76,1.26-0.94
			c1.98-1.78,3.73-3.82,5.17-6.06c0.69-1.07,2.47-0.15,1.77,0.93c-0.95,1.47-1.99,2.87-3.16,4.17c-1.09,1.21-2.31,2.58-3.69,3.46
			c-1.38,0.87-2.86,0.25-3.44-1.2c-0.29-0.73-0.34-1.54-0.41-2.31c-0.01-0.07-0.01-0.14-0.02-0.2c-0.22,0.27-0.43,0.55-0.66,0.81
			c-0.69,0.79-1.48,1.75-2.63,1.73c-2.47-0.05-2.21-3.92-2.15-5.54C231.59,116.81,233.58,116.69,233.54,117.98z"/>
		<path class="st10" d="M236.29,120.35c-0.82,9.01-1.87,17.99-3.15,26.95c-0.38,2.61-0.78,5.22-1.19,7.83
			c0.7,0.06,1.39,0.37,1.89,0.88c0.41-2.6,0.81-5.19,1.19-7.79c1.32-9.11,2.39-18.26,3.22-27.43
			C238.36,119.52,236.41,119.07,236.29,120.35z"/>
		<path class="st10" d="M248.32,118.57c-4.08,7.26-8.52,14.31-13.28,21.14c-0.22,1.06-0.36,2.15-0.61,3.2
			c-0.03,0.12-0.08,0.23-0.12,0.34c0.31,0.1,0.65,0.04,0.91-0.32c5.37-7.54,10.34-15.36,14.87-23.43
			C250.72,118.37,248.95,117.45,248.32,118.57z"/>
		<path class="st10" d="M226.23,121.21c0.36,3.38,0.55,6.78,0.6,10.18c0.57-0.02,1.14,0.03,1.73,0.18c0.52,0.13,0.88,0.65,0.76,1.19
			c-0.24,1.11,0.89,2.55,1.35,3.54c0.56,1.22,1.06,2.47,1.49,3.74c0.84,2.49,1.41,5.07,1.76,7.68c0.17,1.28-1.83,1.37-2,0.11
			c-0.38-2.86-1.08-5.66-2.09-8.36c-0.49-1.31-1.06-2.59-1.69-3.84c-0.38-0.75-0.73-1.46-0.82-2.24c-0.38-0.04-0.76-0.03-1.16,0.05
			c-0.59,0.12-1.3-0.19-1.31-0.9c-0.02-3.75-0.22-7.5-0.62-11.23C224.09,120.04,226.09,119.94,226.23,121.21z"/>
		<path class="st10" d="M228.87,117.87c2.97,6.39,5.24,13.08,6.79,19.96c0.28,1.26-1.7,1.56-1.98,0.31
			c-1.51-6.71-3.75-13.22-6.64-19.46C226.5,117.51,228.33,116.71,228.87,117.87z"/>
		<path class="st10" d="M257.08,98.1c-0.07-0.08-0.12-0.16-0.2-0.24c-0.04-0.03-0.07-0.07-0.11-0.1c-0.18-0.14-0.37-0.28-0.57-0.4
			c-0.05-0.03-0.09-0.05-0.14-0.07c-0.04-0.02-0.08-0.03-0.12-0.04c0,0,0,0,0,0c0,0,0,0,0,0c-0.18-0.07-0.36-0.14-0.54-0.2
			c1.1-4.86,1.81-9.81,1.9-14.82c0.02-1.28,2.02-1.39,2-0.11c-0.11,5.44-0.89,10.81-2.12,16.09
			C257.15,98.18,257.12,98.14,257.08,98.1z"/>
		<path class="st10" d="M253.94,103.1c0.27,0.15,0.55,0.23,0.85,0.23c0.29,0.05,0.58,0.02,0.86-0.08c0.08-0.03,0.15-0.07,0.23-0.11
			c-0.38,1.3-0.77,2.59-1.19,3.88c1.44-0.69,2.56-2.06,3.45-3.36c1.5-2.18,2.74-4.56,3.73-7.01c1.93-4.78,3.14-10.3,1.68-15.37
			c-0.36-1.24,1.55-1.85,1.9-0.62c1.66,5.76,0.28,11.93-1.98,17.34c-1.13,2.71-2.57,5.35-4.35,7.69c-1.48,1.94-3.41,3.54-5.91,3.77
			c-0.59,0.06-1.24-0.6-1.03-1.21c0.59-1.72,1.14-3.46,1.66-5.21C253.88,103.06,253.91,103.08,253.94,103.1z"/>
		<path class="st10" d="M247.45,88.19c0.26,0,0.51,0.01,0.75,0.05c0.08-0.21,0.3-0.35,0.53-0.32c1.69,0.22,3.34,0.72,4.87,1.49
			c0.41,0.2,0.32,0.73,0.02,0.9c0.03,0.21-0.05,0.42-0.24,0.51c0.13,0.05,0.26,0.12,0.4,0.17c0.6,0.24,0.19,1.15-0.41,0.91
			c-2.06-0.83-4.09-1.75-6.07-2.75C246.91,88.94,246.92,88.2,247.45,88.19z"/>
		<path class="st10" d="M237.81,85.79c-0.23-0.11-0.47-0.2-0.7-0.27c0.01-0.23-0.12-0.45-0.35-0.51c-1.63-0.51-3.34-0.74-5.05-0.69
			c-0.46,0.01-0.59,0.53-0.4,0.81c-0.12,0.17-0.13,0.4,0.01,0.56c-0.14-0.01-0.29,0-0.43-0.01c-0.64-0.03-0.66,0.97-0.01,1
			c2.22,0.11,4.45,0.12,6.67,0.04C237.99,86.7,238.29,86.02,237.81,85.79z"/>
		<path class="st10" d="M254.91,95.78c1.9,0.01,3.77,1.28,4.22,3.19c0.44,1.88-0.35,3.96-2.12,4.85c-0.98,0.49-2.11,0.66-3.18,0.35
			c-0.5-0.14-0.91-0.65-0.76-1.19c0.13-0.5,0.65-0.92,1.19-0.76c0.12,0.03,0.24,0.07,0.37,0.09c0.03,0,0.11,0.01,0.16,0.02
			c0.19,0.01,0.37,0,0.56-0.02c0.05-0.01,0.09-0.01,0.14-0.02c-0.1,0.02-0.09,0.01,0.02-0.01c0.09-0.03,0.18-0.05,0.27-0.08
			c0.09-0.03,0.18-0.06,0.26-0.1c-0.17,0.08,0.15-0.09,0.18-0.11c0.08-0.05,0.16-0.11,0.23-0.16c0.03-0.02,0.04-0.03,0.05-0.03
			c0.01-0.01,0.01-0.02,0.04-0.05c0.08-0.08,0.15-0.16,0.23-0.24c0.03-0.03,0.06-0.07,0.08-0.1c0.01-0.01,0.01-0.01,0.02-0.04
			c0.09-0.15,0.17-0.31,0.24-0.47c0.01-0.04,0.07-0.22,0.08-0.25c0.02-0.09,0.04-0.19,0.06-0.28c0-0.01,0.01-0.16,0.02-0.18
			c0-0.09,0-0.18,0-0.28c-0.01-0.1-0.02-0.19-0.03-0.29c-0.01-0.03-0.04-0.16-0.04-0.17c-0.03-0.09-0.06-0.18-0.09-0.27
			c-0.02-0.05-0.03-0.07-0.03-0.08c-0.02-0.04-0.04-0.08-0.06-0.12c-0.05-0.08-0.1-0.16-0.15-0.24c-0.01-0.01-0.07-0.09-0.1-0.12
			c-0.13-0.14-0.27-0.27-0.43-0.39c-0.04-0.02-0.12-0.08-0.13-0.09c-0.08-0.05-0.16-0.09-0.25-0.13c-0.04-0.02-0.39-0.15-0.18-0.08
			c-0.09-0.03-0.18-0.05-0.27-0.08c-0.09-0.02-0.18-0.04-0.28-0.05c-0.03,0-0.03,0-0.04-0.01c-0.05,0-0.11,0-0.16,0
			c-0.52,0-1.05-0.38-1.05-0.95C253.96,96.32,254.35,95.78,254.91,95.78z"/>
		<path class="st4" d="M240.52,104.63c-0.31,0.34-0.64,0.74-1.06,0.94c-1.02,0.47-1.69-0.76-1.95-1.54
			c-0.33-1.03-0.52-2.1-0.62-3.17c0.04,0.02,0.07,0.04,0.11,0.05c1.89,0.43,3.83,0.46,5.75,0.18c-0.33,0.78-0.73,1.53-1.21,2.24
			C241.23,103.79,240.88,104.22,240.52,104.63z"/>
		<path class="st81" d="M240.74,104.51c-0.06-0.02-0.12-0.04-0.18-0.06c-0.01,0-0.04-0.01-0.08-0.03c-0.03-0.01-0.09-0.03-0.1-0.03
			c-0.06-0.02-0.12-0.03-0.18-0.05c-0.25-0.07-0.5-0.12-0.75-0.17c-0.13-0.02-0.25-0.05-0.38-0.07c-0.06-0.01-0.12-0.02-0.18-0.03
			c0,0,0,0-0.01,0c-0.52-0.05-1.02-0.08-1.53-0.07c-0.01,0-0.01,0-0.02,0c-0.06,0-0.12,0.01-0.18,0.01
			c-0.07,0.01-0.14,0.01-0.21,0.02c0.08,0.16,0.14,0.31,0.23,0.47c0.36,0.61,1.24,1.6,2.36,1.33c0.47-0.11,0.81-0.38,1.13-0.61
			c0.22-0.16,0.42-0.32,0.62-0.49C241.11,104.66,240.93,104.58,240.74,104.51z"/>
		<path class="st10" d="M242.12,101.93c-0.75,0.25-1.55,0.19-2.32,0.08c-0.9-0.13-1.8-0.29-2.7-0.44c-0.63-0.1-0.85,0.87-0.21,0.98
			c0.96,0.16,1.92,0.33,2.88,0.47c0.89,0.12,1.8,0.16,2.67-0.13C243.04,102.68,242.73,101.73,242.12,101.93z"/>
		<path class="st10" d="M243.36,100c-2.03,0.42-4.13,0.39-6.14-0.06c-0.32-0.07-0.53,0.15-0.58,0.4c-0.31-0.18-0.8-0.03-0.77,0.43
			c0.09,1.08,0.28,2.16,0.57,3.2c0.26,0.91,0.63,1.81,1.45,2.35c1.91,1.25,3.6-1.13,4.53-2.52c0.67-1,1.19-2.08,1.58-3.21
			C244.14,100.18,243.68,99.93,243.36,100z M240.52,104.63c-0.31,0.34-0.64,0.74-1.06,0.94c-1.02,0.47-1.69-0.76-1.95-1.54
			c-0.33-1.03-0.52-2.1-0.62-3.17c0.04,0.02,0.07,0.04,0.11,0.05c1.89,0.43,3.83,0.46,5.75,0.18c-0.33,0.78-0.73,1.53-1.21,2.24
			C241.23,103.79,240.88,104.22,240.52,104.63z"/>
	</g>
	<path class="st6" d="M85.28,134.29c-4.83-0.98-9.43-2.45-13.79-4.78c-1.71-0.91-3.84-2.75-5.9-2.16c-0.08-0.51-0.19-1.01-0.52-1.37
		c-0.48-0.52-1.25-0.53-1.79-0.13c-0.28,0.21-0.46,0.49-0.6,0.8c-0.33-0.24-0.79-0.32-1.13-0.07c-1.35,1-2.04,2.35-2.56,3.91
		c-0.7,2.12-1.22,4.33-1.78,6.5c-0.24,0.94-0.5,1.89-0.76,2.85c-0.62-0.06-1.24,0.05-1.75,0.43c-0.53,0.39-0.91,0.91-1.11,1.54
		c-0.37,1.18,0.12,2.5,0.89,3.4c0.19,0.22,0.43,0.41,0.7,0.52c-0.14,1.05-0.23,2.1-0.23,3.15c0.02-0.07,0.03-0.13,0.04-0.2
		c0.05-0.2,0.14-0.38,0.28-0.53c0.01-0.02,0.04-0.04,0.06-0.06c0.06-0.17,0.18-0.33,0.31-0.46c-0.05-0.31,0-0.66,0.22-1.01
		c1.36-2.2,3.9-2.79,6.34-2.44c1.46,0.21,2.61,0.75,3.66,1.48c0.05,0.01,0.11,0.01,0.15,0.03c1.07,0.39,1.96,0.99,2.78,1.77
		c0.58,0.55,1.11,1.14,1.72,1.64c0.25,0.18,0.52,0.34,0.8,0.48c0.06,0.03,0.1,0.06,0.15,0.1c0.52,0.17,1.05,0.31,1.61,0.38
		c1.83,0.22,3.39-0.48,5.1-1c2.93-0.89,5.83-0.96,8.52,0.48c0.04-0.1,0.09-0.21,0.13-0.31c0.78-2.12,1.45-4.59,1.4-6.95
		C89.02,138.96,89.47,135.14,85.28,134.29z"/>
	<path class="st10" d="M57.29,140.98c-0.01-0.13-0.06-0.26-0.16-0.34c-0.09-0.08-0.23-0.16-0.36-0.14
		c-0.11,0.02-0.22,0.04-0.33,0.07c-0.1,0.03-0.2,0.08-0.3,0.13c-0.17,0.08-0.31,0.19-0.45,0.31c-0.28,0.24-0.47,0.57-0.58,0.92
		c-0.04,0.12,0,0.28,0.06,0.38c0.07,0.1,0.19,0.2,0.31,0.22c0.13,0.02,0.27,0.01,0.38-0.06c0.1-0.07,0.16-0.16,0.21-0.28
		c0,0,0,0,0,0c0.04-0.1,0.09-0.19,0.15-0.28c0.05-0.07,0.11-0.13,0.18-0.19c0.07-0.05,0.14-0.1,0.22-0.14
		c0.09-0.04,0.19-0.07,0.29-0.09c-0.04,0.01-0.07,0.01-0.11,0.02c0.13-0.02,0.24-0.05,0.34-0.16
		C57.24,141.25,57.3,141.1,57.29,140.98z"/>
	<path class="st47" d="M94.7,196.82c-1.2-6.6-4.55-12.34-7.87-18.06c-0.82-1.13-1.64-2.26-2.41-3.42c-0.33-0.03-0.66,0.02-0.98,0.19
		c-0.98,0.53-1.25,1.86-1.57,2.83c-0.58,1.77-1.03,3.57-1.38,5.39c-0.16-0.13-0.35-0.21-0.55-0.25c0-0.59,0-1.18-0.01-1.76
		c-0.27,0.58-0.57,1.14-0.94,1.65c-0.62,0.86-1.86,1.04-2.55,0.21c-0.04,0.04-0.07,0.08-0.11,0.12c-0.02,0.03-0.17,0.24-0.18,0.24
		c-0.09,0.14-0.18,0.28-0.27,0.42c-0.78,1.26-1.36,2.62-2,3.95c-0.76,1.57-2.26,3.27-4.2,2.88c-2.06-0.43-2.78-2.74-3.08-4.67
		c-0.19-0.13-0.37-0.29-0.46-0.48c-0.01-0.01-0.01-0.02-0.02-0.04c-0.06-0.1-0.11-0.21-0.14-0.34c0,0,0,0,0-0.01
		c-0.87,0.72-2.05,0.98-3.08,0.69c-0.5-1.77-1-3.54-1.5-5.3c-0.09-0.33-0.3-0.52-0.54-0.62c-0.45-2.75-0.52-5.56-0.21-8.37
		c0.08-0.75-0.61-1.05-1.21-0.91c-0.06-0.09-0.13-0.17-0.21-0.25c-0.34-0.32-0.75-0.45-1.18-0.46c-0.25-1.25-0.5-2.51-0.77-3.75
		c-0.18-0.82-0.42-1.63-1.35-1.81c-0.01-0.01-0.01-0.02-0.02-0.03c0.05-0.15,0.09-0.31,0.14-0.46c0.29-0.86-0.74-1.52-1.47-1.13
		c-1.07,0.58-2.14,1.16-3.21,1.74c-0.04,0.02-0.06,0.06-0.1,0.08c-1.81,0.07-3.61,0.25-5.41,0.6c-0.85,0.17-1.38,1.05-1.41,1.9
		c-7.76,6.57-13.11,15.75-15.67,25.56c1.7,2.87,3.78,5.33,6.13,7.49c0.37,0.04,0.76,0.19,1.16,0.48c6.6,4.93,14.51,7.19,22.09,10.1
		c1.03-0.33,2.21-0.08,2.88,1.15c1.53,0.64,3.04,1.32,4.51,2.07c0.12,0.06,0.21,0.13,0.31,0.2c0.12,0.03,0.25,0.06,0.37,0.09
		c0.6,0.15,1.04,0.44,1.35,0.81c2.32-0.28,4.64-0.63,6.96-0.9c1.05-0.13,1.77,0.3,2.16,0.96c0.68-0.04,1.35-0.08,2.02-0.14
		c0.96-0.21,1.91-0.42,2.83-0.64c-0.36-3.44-0.72-6.89-1.08-10.33c-0.49-4.67-0.98-9.35-1.47-14.02c0.13,0.14,0.27,0.28,0.41,0.42
		c0.84,2.57,2.2,5.06,3.29,7.41c0.96,2.06,1.79,4.23,4.27,4.72c2.09,0.41,4.4-0.53,6.17-1.58c1.53-0.9,1.89-2.37,1.91-3.95
		C94.88,197.35,94.75,197.12,94.7,196.82z"/>
	<path class="st48" d="M38.16,202.77c-0.07-1.82-0.06-3.64,0.06-5.46c0.03-0.54-0.51-0.99-1.02-0.98c-0.58,0.01-0.94,0.48-0.98,1.02
		c-0.09,1.43-0.1,2.86-0.08,4.29C36.81,202.04,37.48,202.41,38.16,202.77z"/>
	<path class="st48" d="M49.21,207.81c-0.06-5.27-0.03-10.54,0.11-15.81c0.03-1.29-1.97-1.24-2,0.04c-0.13,4.99-0.17,9.99-0.11,14.98
		C47.87,207.29,48.53,207.56,49.21,207.81z"/>
	<path class="st48" d="M54.62,209.62c-0.76-5.37-1.14-10.78-1.12-16.2c0.01-1.29-1.99-1.24-2,0.04c-0.02,5.19,0.34,10.37,1.02,15.51
		C53.22,209.2,53.92,209.41,54.62,209.62z"/>
	<path class="st48" d="M56.39,205.67c-3.27,0.04-6.52-0.31-9.71-1.03c-1.26-0.28-1.75,1.65-0.49,1.94c3.36,0.76,6.8,1.13,10.25,1.09
		C57.72,207.65,57.67,205.65,56.39,205.67z"/>
	<path class="st48" d="M58.48,210.68c0.12-0.24,0.16-0.54,0.08-0.77c-0.2-0.57-0.69-0.76-1.24-0.67c0.16-0.03-0.13,0.02-0.16,0.02
		c-0.12,0.02-0.25,0.03-0.37,0.05c-0.21,0.03-0.43,0.05-0.64,0.07c-0.44,0.04-0.89,0.07-1.34,0.09c-0.23,0.01-0.45,0-0.67,0
		C55.58,209.91,57.02,210.32,58.48,210.68z"/>
	<path class="st48" d="M61.35,199.55c-0.19-0.54-0.7-0.79-1.24-0.67c-0.93,0.21-1.87,0.42-2.8,0.62c-0.23,0.05-0.47,0.27-0.59,0.47
		c-0.12,0.22-0.17,0.53-0.08,0.77c0.19,0.54,0.7,0.79,1.24,0.67c0.93-0.21,1.87-0.42,2.8-0.62c0.23-0.05,0.47-0.27,0.59-0.47
		C61.39,200.11,61.43,199.79,61.35,199.55z"/>
	<path class="st48" d="M70.03,193.06c0.01-1.29-1.99-1.24-2,0.04c-0.05,5.7,0.28,11.4,0.99,17.06c0.16,1.26,2.16,1.24,2-0.04
		C70.31,204.47,69.98,198.77,70.03,193.06z"/>
	<path class="st48" d="M73.14,197.13c0.01-0.54-0.5-0.99-1.02-0.98c-0.56,0.01-0.97,0.48-0.98,1.02c-0.07,2.88,0,5.76,0.22,8.63
		c0.04,0.54,0.46,0.99,1.02,0.98c0.52-0.01,1.02-0.48,0.98-1.02C73.15,202.89,73.07,200.01,73.14,197.13z"/>
	<path class="st48" d="M73.55,208.64c-0.17-0.5-0.71-0.85-1.24-0.67c-2.11,0.69-4.22,1.37-6.33,2.06c-0.5,0.16-0.85,0.73-0.67,1.24
		c0.17,0.5,0.71,0.85,1.24,0.67c2.11-0.69,4.22-1.37,6.33-2.06C73.37,209.72,73.73,209.16,73.55,208.64z"/>
	<path class="st10" d="M74.81,146.91c-1.16-1-1.07-2.76-0.97-4.13c0.05-0.64-0.95-0.7-1-0.06c-0.12,1.52-0.07,3.14,0.83,4.37
		c-0.45,0.11-0.91,0.12-1.37,0.01c-0.26-0.06-0.54,0.04-0.63,0.31c-0.08,0.24,0.05,0.57,0.31,0.63c0.94,0.23,1.9,0.14,2.77-0.28
		C75.12,147.59,75.08,147.15,74.81,146.91z"/>
	<path class="st10" d="M81.59,142.16c0.14-0.7,0.17-1.6-0.3-2.07c-0.15-0.15-0.33-0.23-0.53-0.25c-0.01,0-0.01-0.01-0.02-0.01
		c-0.67-0.18-1.25,0.46-1.64,1.07c-0.41,0.64-0.67,1.41-0.73,2.17c-0.06,0.67,0.07,1.45,0.62,1.75c0.56,0.3,1.22-0.06,1.65-0.59
		C81.12,143.64,81.44,142.92,81.59,142.16z"/>
	<path class="st10" d="M66.25,138.84c0.14-0.7,0.17-1.6-0.3-2.07c-0.15-0.15-0.33-0.23-0.53-0.25c-0.01,0-0.01-0.01-0.02-0.01
		c-0.67-0.18-1.25,0.46-1.64,1.07c-0.41,0.64-0.67,1.41-0.73,2.17c-0.06,0.67,0.07,1.45,0.62,1.75c0.56,0.3,1.22-0.06,1.65-0.59
		C65.79,140.32,66.1,139.59,66.25,138.84z"/>
	<path class="st10" d="M88.2,137.25c-2.17,3.82-2.07,8.14-3.02,12.31c-0.03,0.13-0.07,0.25-0.1,0.37c0.06,0.18,0.1,0.37,0.12,0.58
		c0.16,1.32,0.19,2.64,0.18,3.96c0.64-1.05,1.15-2.19,1.49-3.44c1.14-4.17,0.8-8.82,2.99-12.67
		C90.49,137.26,88.84,136.13,88.2,137.25z"/>
	<path class="st10" d="M90.73,123.55c-1.16-0.49-2.46-0.73-3.73-0.66c-1.36,0.08-2.69,0.87-4.03,0.81
		c-1.52-0.07-2.95-1.28-4.24-1.97c-1.33-0.71-2.7-1.34-4.11-1.88c-3.06-1.19-6.34-1.98-9.62-2.24c-2.78-0.22-5.7,0.08-8.06,1.7
		c-1.05,0.72-0.12,2.49,0.94,1.76c3.9-2.68,9.5-1.42,13.69-0.15c2.63,0.8,5.12,1.92,7.5,3.3c0.93,0.54,1.89,1.12,2.96,1.35
		c1.14,0.25,2.11,0.01,3.21-0.32c2.34-0.7,4.85-0.31,6.65,1.43c1.43,1.39,2.85,4.41,1.36,6.22c-1.31,1.58-3.89,1.45-5.71,1.17
		c-2.7-0.42-5.32-1.37-7.89-2.27c-5.87-2.07-11.55-4.61-17.01-7.59c-1.13-0.61-2.2,1.07-1.07,1.69c5.62,3.06,11.47,5.69,17.5,7.81
		c2.88,1.02,5.83,2.05,8.88,2.42c2.13,0.26,4.61,0.06,6.31-1.4C98.16,131.37,94.51,125.15,90.73,123.55z"/>
	<path class="st10" d="M64.14,195.65c0.22-4.15,0.49-8.31,0.8-12.45c-0.11,0.06-0.22,0.13-0.33,0.19c-0.12,0.06-0.25,0.12-0.38,0.17
		c-0.23,0.1-0.46,0.2-0.69,0.28c-0.22,0.06-0.43,0.06-0.65,0.03c-0.31,4.1-0.57,8.21-0.78,12.32c-0.23,4.57-0.42,9.15-0.51,13.72
		c-0.05,2.65,0.03,9.41,0.37,15.18c0.25-0.3,0.6-0.51,1-0.57c0.32-0.04,0.66,0.03,0.95,0.18c-0.33-5.93-0.36-12.99-0.29-15.77
		C63.73,204.5,63.91,200.07,64.14,195.65z"/>
	<path class="st10" d="M53.65,162.45c-5.23,0.67-12.05,4.18-15.66,7.84c-2.23,2.26-4.08,4.92-5.49,7.77
		c-2.43,4.93-3.78,10.36-4.52,15.88c0.47,0.11,0.92,0.34,1.27,0.68c0.08,0.08,0.18,0.17,0.27,0.25c0.01,0.01,0.02,0.02,0.03,0.03
		l0,0c0.13,0.03,0.25,0.1,0.38,0.15c1.05-8.5,3.41-17.32,9.64-23.54c3.22-3.21,9.57-6.47,14.12-7.06
		C54.96,164.29,54.93,162.28,53.65,162.45z"/>
	<path class="st10" d="M74.55,216.25c0.04-0.21,0.08-0.43,0.13-0.64c0-0.02,0.01-0.03,0.01-0.05c0.2-0.02,0.4-0.04,0.6-0.06
		c0.44-0.04,0.88-0.09,1.33-0.13c0.88-0.09,1.77-0.18,2.65-0.27c0.54-0.05,0.99-0.45,0.98-1.02c-0.01-0.51-0.48-1.03-1.02-0.98
		c-1.25,0.13-2.51,0.25-3.76,0.38c-0.6,0.06-1.35,0.02-1.9,0.28c-0.67,0.32-0.77,1.05-0.91,1.71c-0.12,0.59-0.21,1.19-0.28,1.78
		c-0.08,0.67-0.19,1.37,0,2.03c0.31,1.1,1.45,1.87,2.41,2.38c1.18,0.63,2.48,0.95,3.81,0.98c0.54,0.01,0.99-0.5,0.98-1.02
		c-0.01-0.56-0.48-0.97-1.02-0.98c-1.37-0.03-2.81-0.53-3.87-1.45c-0.11-0.09-0.25-0.24-0.31-0.31c-0.03-0.03-0.07-0.09-0.08-0.17
		c-0.07-0.35,0.01-0.77,0.05-1.12C74.39,217.16,74.46,216.7,74.55,216.25z"/>
	<path class="st10" d="M55.32,139.54c0.09-0.04,0.18-0.1,0.28-0.13c0.05-0.02,0.09-0.03,0.14-0.04c0.22-0.05,0.45-0.1,0.68-0.12
		c0.05,0,0.11-0.01,0.16,0c0.04,0,0.09,0.01,0.13,0.01c0,0,0,0,0,0c0,0,0,0,0,0c0.19,0.01,0.38,0.03,0.57,0.05
		c1.08-4.87,2.55-9.64,4.6-14.22c0.52-1.17-1.23-2.12-1.76-0.95c-2.23,4.97-3.81,10.16-4.94,15.45
		C55.23,139.58,55.27,139.56,55.32,139.54z"/>
	<path class="st10" d="M56.03,145.4c-0.31,0.02-0.6-0.03-0.87-0.16c-0.28-0.08-0.53-0.22-0.74-0.44c-0.06-0.06-0.11-0.13-0.16-0.19
		c-0.21,1.33-0.41,2.67-0.58,4.01c-1.01-1.24-1.43-2.95-1.69-4.51c-0.43-2.61-0.54-5.29-0.39-7.93c0.29-5.15,1.56-10.66,5.04-14.62
		c0.85-0.97-0.61-2.34-1.46-1.37c-3.96,4.51-5.34,10.68-5.6,16.53c-0.13,2.93,0.04,5.93,0.65,8.81c0.51,2.39,1.57,4.65,3.74,5.93
		c0.51,0.3,1.38-0.02,1.45-0.66c0.2-1.81,0.44-3.62,0.72-5.42C56.1,145.39,56.07,145.4,56.03,145.4z"/>
	<path class="st10" d="M68.53,134.46c-0.23-0.11-0.46-0.2-0.7-0.28c0.02-0.23-0.12-0.45-0.34-0.52c-1.63-0.52-3.33-0.77-5.04-0.73
		c-0.46,0.01-0.6,0.52-0.41,0.81c-0.12,0.17-0.13,0.4,0,0.56c-0.14-0.01-0.29-0.01-0.43-0.02c-0.64-0.04-0.67,0.96-0.02,1
		c2.22,0.13,4.44,0.16,6.67,0.1C68.7,135.37,69.01,134.69,68.53,134.46z"/>
	<path class="st10" d="M78.89,135.89c0.26,0,0.51,0.02,0.75,0.05c0.08-0.21,0.3-0.35,0.53-0.32c1.69,0.24,3.34,0.75,4.86,1.53
		c0.41,0.21,0.31,0.73,0.01,0.9c0.03,0.21-0.05,0.41-0.24,0.51c0.13,0.06,0.26,0.12,0.39,0.17c0.59,0.25,0.18,1.16-0.41,0.91
		c-2.06-0.85-4.07-1.78-6.05-2.81C78.34,136.63,78.36,135.89,78.89,135.89z"/>
	<path class="st10" d="M58.28,138.37c-1.72-0.81-3.96-0.45-5.18,1.08c-1.2,1.51-1.37,3.73-0.15,5.29c0.68,0.86,1.63,1.5,2.72,1.67
		c0.52,0.08,1.1-0.2,1.2-0.75c0.09-0.5-0.2-1.11-0.75-1.2c-0.12-0.02-0.25-0.04-0.37-0.08c-0.02-0.01-0.11-0.04-0.15-0.05
		c-0.17-0.07-0.34-0.16-0.5-0.26c-0.04-0.02-0.08-0.05-0.12-0.08c0.08,0.06,0.08,0.05-0.01-0.02c-0.07-0.06-0.14-0.12-0.21-0.19
		c-0.07-0.07-0.13-0.13-0.19-0.21c0.12,0.14-0.1-0.15-0.12-0.18c-0.05-0.08-0.1-0.16-0.14-0.24c-0.02-0.04-0.03-0.04-0.03-0.05
		c0-0.01,0-0.02-0.02-0.06c-0.03-0.1-0.07-0.21-0.1-0.31c-0.01-0.04-0.02-0.09-0.03-0.13c0-0.02,0-0.02-0.01-0.04
		c-0.02-0.18-0.02-0.35-0.02-0.53c0.01-0.03,0.03-0.23,0.04-0.26c0.02-0.09,0.04-0.19,0.07-0.28c0-0.01,0.06-0.15,0.06-0.17
		c0.04-0.08,0.08-0.17,0.12-0.25c0.05-0.08,0.1-0.17,0.15-0.25c0.02-0.02,0.1-0.13,0.11-0.14c0.06-0.07,0.13-0.14,0.2-0.21
		c0.04-0.04,0.06-0.05,0.06-0.06c0.04-0.03,0.07-0.05,0.11-0.08c0.08-0.05,0.16-0.1,0.24-0.15c0.01,0,0.11-0.05,0.14-0.07
		c0.18-0.07,0.36-0.13,0.55-0.17c0.04-0.01,0.15-0.02,0.16-0.02c0.09-0.01,0.19-0.01,0.28-0.02c0.04,0,0.41,0.03,0.2,0
		c0.09,0.01,0.19,0.03,0.28,0.05c0.09,0.02,0.18,0.05,0.27,0.07c0.03,0.01,0.03,0.01,0.04,0.01c0.05,0.02,0.1,0.04,0.14,0.06
		c0.47,0.22,1.11,0.1,1.35-0.41C58.91,139.26,58.79,138.61,58.28,138.37z"/>
	<path class="st10" d="M81.04,190.71c0.04-1.29-1.96-1.24-2,0.04c-0.43,12.52,0.43,25.04,2.5,37.4c0.21,1.26,2.13,0.68,1.92-0.57
		C81.41,215.41,80.62,203.05,81.04,190.71z"/>
	<path class="st10" d="M43.06,205.34c0.5-7.07,1.62-14.09,3.4-20.98c0.32-1.25-1.62-1.74-1.94-0.49c-1.73,6.72-2.87,13.58-3.4,20.48
		C41.76,204.69,42.41,205.02,43.06,205.34z"/>
	<path class="st10" d="M93.6,192.07c-2.03-7.41-6.05-14.15-11.48-19.51c0.01,0.15,0,0.31-0.03,0.47c-0.13,0.64-0.25,1.3-0.37,1.97
		c4.68,4.94,8.14,10.99,9.95,17.61C92.01,193.84,93.94,193.32,93.6,192.07z"/>
	<path class="st10" d="M71.47,151.44c-0.27-0.07-0.53-0.16-0.79-0.26c-0.06-0.02-0.13-0.05-0.19-0.08c0.04,0.02,0.03,0.01-0.02-0.01
		c-0.03-0.01-0.06-0.03-0.1-0.04c-0.12-0.05-0.24-0.11-0.35-0.17c-0.24-0.12-0.47-0.25-0.7-0.4c-0.12-0.07-0.23-0.15-0.35-0.23
		c-0.06-0.04-0.11-0.08-0.17-0.12c-0.03-0.02-0.06-0.04-0.08-0.06c-0.01-0.01-0.01-0.01-0.02-0.02c-0.21-0.16-0.51-0.22-0.71,0
		c-0.17,0.18-0.22,0.53,0,0.71c0.96,0.75,2.04,1.32,3.22,1.64c0.25,0.07,0.56-0.09,0.62-0.35
		C71.88,151.79,71.74,151.52,71.47,151.44z"/>
	<path class="st10" d="M84.52,148.89c-1.87-0.52-3.83-0.95-5.78-0.78c-1.85,0.17-3.54,1.25-5.42,1.1c-0.85-0.07-1.69-0.37-2.4-0.85
		c-0.77-0.52-1.34-1.28-2.06-1.86c-1.38-1.11-3.31-1.57-5.02-1.84c-2.14-0.34-4.3-0.28-6.41,0.17c-0.63,0.13-0.36,1.1,0.27,0.96
		c2.46-0.52,5.01-0.47,7.45,0.16c1.15,0.3,2.34,0.67,3.25,1.46c0.79,0.69,1.43,1.5,2.36,2.02c0.84,0.48,1.8,0.75,2.77,0.79
		c1.14,0.05,2.16-0.3,3.22-0.66c2.5-0.84,5.03-0.4,7.51,0.29C84.87,150.03,85.14,149.06,84.52,148.89z"/>
	<path class="st10" d="M87.02,162.55c-0.2-4.08-0.75-8.14-0.81-12.23c-0.02-1.29-2.02-1.29-2,0c0.06,4.25,0.65,8.46,0.83,12.7
		c0.09,2.12,0.08,4.27-0.21,6.38c-0.07,0.49-0.15,0.99-0.25,1.48c-0.15,0.73,0.03,0.55-0.52,0.57c-0.7,0.02-1.2-0.02-1.76,0.5
		c-1.2,1.12-1.34,3.25-1.72,4.75c-0.54,2.14-1.03,4.3-1.61,6.42c-0.12,0.44-0.2,1.18-0.78,0.84c-0.18-0.11-0.35-0.6-0.54-0.76
		c-0.49-0.44-1.21-0.6-1.81-0.3c-0.64,0.32-0.92,1.15-1.21,1.75c-0.44,0.91-0.84,1.83-1.27,2.74c-0.46,0.97-0.96,1.93-1.58,2.81
		c-0.43,0.62-0.77,0.87-1.52,0.49c-0.44-0.23-0.86-0.71-1.2-1.07c-1.46-1.54-2.36-3.55-2.58-5.66c-0.1-0.97-1.29-1.38-1.86-0.5
		c-0.26,0.4-0.53,0.81-0.79,1.21c-0.13-0.41-0.23-0.84-0.33-1.16c-0.22-0.67-0.42-1.34-0.6-2.02c-0.37-1.36-0.69-2.73-0.94-4.11
		c-0.53-2.83-0.77-5.7-0.79-8.59c-0.01-0.81-0.83-1.18-1.5-0.86c-0.59,0.28-0.8,0.73-1.25,1.16c-0.32,0.32-0.24,0.31-0.35-0.27
		c-0.09-0.47-0.15-0.91-0.17-1.39c-0.11-1.94-0.11-3.9-0.11-5.85c0-3.95,0.16-7.9,0.46-11.83c0.1-1.28-1.9-1.28-2,0
		c-0.39,5.09-0.54,10.19-0.43,15.29c0.04,1.73-0.25,4.41,1.02,5.83c0.53,0.59,1.31,0.72,2.02,0.41c0.15-0.06,0.27-0.16,0.39-0.26
		c0.18,3.64,0.71,7.26,1.66,10.78c0.29,1.06,0.61,2.1,0.96,3.14c0.24,0.7,0.44,1.7,1.11,2.13c0.82,0.52,1.49,0.14,2.04-0.5
		c0.28,0.91,0.67,1.78,1.18,2.6c0.89,1.42,2.36,3.28,4.05,3.75c1.87,0.52,3.01-1.22,3.84-2.61c0.55-0.93,1.01-1.9,1.46-2.88
		c0.29-0.64,0.58-1.63,1.02-2.35c0.13,0.21,0.27,0.47,0.33,0.52c0.22,0.24,0.47,0.43,0.79,0.53c0.52,0.18,1.12,0.11,1.62-0.13
		c1.46-0.71,1.66-2.57,2.01-3.96c0.52-2.08,1.04-4.17,1.57-6.25c0.12-0.48,0.21-0.97,0.36-1.44c0.18-0.55,0.21-0.77,0.79-0.77
		c0.68-0.01,1.12,0.25,1.71-0.28c1.09-0.97,1.05-3.35,1.19-4.68C87.12,166.6,87.12,164.57,87.02,162.55z"/>
	<path class="st10" d="M63.51,196.14c-2.8-5.05-5.97-9.88-9.48-14.47c0.83-1.61,1.56-3.26,2.18-4.96c0.28-0.79-0.55-1.34-1.23-1.23
		c-1.18,0.2-2.31,0.51-3.43,0.91c-0.02-3.67-0.39-7.33-1.14-10.93c-0.26-1.26-2.19-0.73-1.93,0.53c0.81,3.9,1.16,7.86,1.07,11.84
		c-0.02,0.83,0.85,1.15,1.5,0.86c0.83-0.36,1.68-0.64,2.55-0.87c-0.49,1.17-1.01,2.32-1.61,3.44c-0.15,0.29-0.22,0.73,0,1.01
		c3.63,4.71,6.89,9.68,9.78,14.87C62.4,198.27,64.13,197.26,63.51,196.14z"/>
	<path class="st82" d="M65.3,142.35c-0.09-0.28-0.34-0.39-0.62-0.35c-0.01,0,0,0-0.01,0c-0.03,0-0.06,0.01-0.09,0.01
		c-0.06,0.01-0.12,0.01-0.18,0.01c-0.12,0-0.25,0-0.37-0.01c-0.05,0-0.1-0.01-0.15-0.02c-0.01,0-0.11-0.02-0.13-0.02
		c-0.11-0.02-0.23-0.05-0.34-0.08c-0.1-0.03-0.2-0.07-0.31-0.11c-0.02-0.01-0.1-0.04-0.11-0.05c-0.06-0.03-0.11-0.05-0.17-0.08
		c-0.11-0.06-0.21-0.12-0.32-0.19c-0.01-0.01-0.1-0.07-0.11-0.08c-0.04-0.03-0.08-0.07-0.12-0.1c-0.2-0.17-0.52-0.21-0.71,0
		c-0.17,0.19-0.21,0.52,0,0.71c0.93,0.82,2.15,1.16,3.37,0.97C65.21,142.92,65.37,142.58,65.3,142.35z"/>
	<path class="st82" d="M64.81,143.49c-0.09-0.28-0.34-0.4-0.62-0.35c-0.03,0.01-0.11,0.03-0.14,0.02c0.07-0.01,0.09-0.01,0.05-0.01
		c-0.02,0-0.03,0-0.05,0.01c-0.08,0.01-0.16,0.01-0.24,0.02c-0.16,0.01-0.31,0-0.47-0.02c-0.01,0-0.01,0-0.02,0c0,0,0,0-0.01,0
		c-0.03-0.01-0.07-0.01-0.1-0.02c-0.08-0.01-0.16-0.03-0.24-0.05c-0.08-0.02-0.16-0.04-0.23-0.07c-0.03-0.01-0.07-0.02-0.1-0.04
		c-0.02-0.01-0.04-0.02-0.06-0.03c0.01,0,0.01,0,0.02,0.01c-0.13-0.05-0.24-0.09-0.38-0.05c-0.12,0.03-0.24,0.12-0.3,0.23
		c-0.11,0.22-0.08,0.57,0.18,0.68c0.39,0.17,0.78,0.28,1.2,0.33c0.39,0.05,0.77,0.02,1.15-0.05
		C64.71,144.06,64.88,143.73,64.81,143.49z"/>
	<path class="st82" d="M80.84,145.77c-0.07-0.24-0.36-0.45-0.62-0.35c-0.14,0.05-0.28,0.1-0.42,0.13c-0.04,0.01-0.07,0.01-0.11,0.02
		c0,0,0,0,0,0c-0.01,0-0.01,0-0.02,0c-0.07,0.01-0.15,0.01-0.22,0.01c-0.07,0-0.13,0-0.2,0c-0.04,0-0.07-0.01-0.11-0.01
		c-0.01,0-0.01,0-0.02,0c0,0,0,0,0,0c-0.15-0.03-0.29-0.06-0.43-0.1c-0.05-0.02-0.11-0.04-0.16-0.06c-0.02-0.01-0.04-0.02-0.05-0.02
		c-0.03-0.02-0.07-0.03-0.1-0.05c-0.13-0.07-0.25-0.14-0.36-0.23c-0.01-0.01-0.02-0.02-0.03-0.02c-0.03-0.02-0.06-0.05-0.08-0.07
		c-0.05-0.05-0.11-0.1-0.16-0.16c-0.02-0.02-0.04-0.04-0.06-0.07c0,0-0.08-0.1-0.04-0.05c0.04,0.05-0.03-0.05-0.04-0.06
		c-0.02-0.04-0.05-0.07-0.07-0.11c-0.14-0.23-0.45-0.32-0.68-0.18c-0.23,0.13-0.32,0.45-0.18,0.68c0.76,1.25,2.44,1.86,3.81,1.31
		C80.74,146.29,80.92,146.05,80.84,145.77z"/>
	<path class="st82" d="M79.93,146.98c-0.08-0.24-0.35-0.44-0.61-0.35c-0.08,0.03-0.16,0.05-0.24,0.07c-0.01,0-0.04,0.01-0.07,0.01
		c-0.02,0-0.05,0-0.06,0.01c-0.08,0.01-0.16,0.01-0.24,0c-0.03,0-0.05,0-0.08-0.01c-0.02,0-0.04-0.01-0.06-0.01
		c-0.08-0.02-0.15-0.04-0.22-0.06c-0.03-0.01-0.06-0.02-0.09-0.03c-0.01-0.01-0.03-0.01-0.04-0.02c-0.07-0.03-0.14-0.07-0.2-0.11
		c-0.02-0.01-0.04-0.03-0.06-0.04c-0.01-0.01-0.01-0.01-0.02-0.01c-0.02-0.02-0.04-0.03-0.05-0.05c-0.19-0.18-0.52-0.21-0.71,0
		c-0.18,0.19-0.21,0.52,0,0.71c0.64,0.58,1.58,0.8,2.4,0.52C79.83,147.51,80.02,147.25,79.93,146.98z"/>
	<g>
		<path class="st53" d="M216.38,100.98c-1.02-7.96-2.14-15.9-3.27-23.84c-0.11-0.8-0.73-1.42-1.46-1.72c-0.68-7-1.56-14-3.89-20.67
			c-0.44-1.27-1.57-2.21-2.99-1.89c-0.63,0.14-1.24,0.61-1.62,1.21c-1.91-0.47-3.84-0.58-5.79-0.52c-1.66-0.09-3.34-0.03-4.99,0
			c-3.27,0.06-6.54,0.24-9.79,0.54c-6.43,0.58-22.73,2.92-29.02,4.38c-0.95,0.1-1.91,0.19-2.86,0.29c-1.64-0.56-3.6-0.38-5.37-0.08
			c-3.11,0.52-6.19,1.2-9.23,2.03c-2.78,0.76-5.61,1.73-7.59,3.88c-0.53,0.25-0.99,0.68-1.26,1.37c-0.16,0.42-0.29,0.85-0.42,1.27
			c-0.67,1.61-0.93,3.38-1.02,5.14c0,0.01,0,0.02,0,0.03c-0.04,0.73-0.05,1.46-0.05,2.17c0.02,0.68,0.26,1.32,0.68,1.8
			c0.57,20.37,5.52,60.48,8.37,80.65c0.86,6.09,1.76,12.16,2.65,18.24c0.06,0.43,0.28,0.8,0.56,1.1c1.38,7.07,2.92,14.11,4.65,21.11
			c0.88,3.56,1.55,7.48,5.35,9.01c0.43,0.17,0.87,0.3,1.32,0.4c0.12,0.09,0.25,0.17,0.41,0.23c7.46,2.77,15.29,1.52,22.96,0.39
			c4.16-0.24,18.22-1.97,22.31-2.69c2.08-0.21,4.15-0.46,6.21-0.82c4.75-0.85,9.52-2.2,13.92-4.21c1.41-0.65,2.81-1.46,4.07-2.44
			c2.01-0.4,3.77-1.69,4.9-3.59c1.83-3.1,1.28-6.72,0.54-10.06c-1.5-6.68-1.6-13.4-1.86-20.2
			C222.24,149.22,218.19,115.15,216.38,100.98z M208.39,77.73c0.08,0.86-0.55,3.28,0.27,3.56c1.71,12.11,5.97,44.06,7.24,56.23
			c0.67,6.45,1.22,12.91,1.59,19.38c0.36,6.21,0.37,12.45,0.88,18.65c1.62,3.94,1.04,9.25-1.24,12.93
			c-0.04,0.46-0.08,0.95-0.15,1.44c-0.5,0.94-1.02,1.86-1.54,2.78c-0.81,0.52-1.84,0.9-2.55,1.25c-1.45,0.73-2.93,1.39-4.43,2
			c-5.8,2.36-21.9,5.05-28.09,5.88c-6.29,0.84-12.68,2.05-19.02,1.9c-3.12-0.07-6.24-1.23-9.35-1.48c-0.99-0.08-2.33-0.13-2.99-0.99
			c-0.84-1.09-0.98-2.87-1.3-4.16c-2.02-8.11-3.8-16.28-5.35-24.5c-0.08-0.4-0.22-0.73-0.42-1c-3-20.31-9.97-58.15-11.33-78.64
			c-0.4-6.04,0.79-14.44,0.69-20.5c-0.01-0.47-0.13-0.86-0.32-1.2c0.13-0.8,0.31-1.6,0.55-2.39c0.16-0.3,0.34-0.6,0.56-0.86
			c1.46-1.72,4.16-2.19,6.23-2.73c2.63-0.68,5.29-1.27,7.97-1.71c0.05,2.18,0.49,4.37,1.45,6.32c0.52,1.05,1.2,2.03,2.27,2.57
			c1.26,0.64,2.64,0.38,3.98,0.16c2.76-0.45,5.5-0.99,8.23-1.61c3.08-0.45,16.08-2.19,19.17-2.64c2.39-0.35,4.86-0.62,6.76-2.14
			c-0.02-0.2-0.04-0.4-0.03-0.61c0.13-2.76,0.62-5.57,3.39-6.87c3.15-1.48,6.8-0.92,10.14-0.78c1.08,0.05,1.79,0.53,2.2,1.21
			c0.02,0,0.04,0,0.05-0.01c0.02,0.08,0.04,0.15,0.07,0.23c0.13,0.27,0.21,0.55,0.24,0.85C205.97,66.36,207.79,71.28,208.39,77.73z"
			/>
		<path class="st10" d="M225.97,187.75c-0.07-3.27-0.34-6.55-0.55-9.81c-0.43-6.73-0.96-13.45-1.57-20.17
			c-1.24-13.58-5.42-46.95-7.39-60.44c-1.97-13.42-4.1-26.92-7.02-40.17c-0.56-2.56-1.79-4.49-4.54-4.9
			c-3.06-0.45-6.4-0.11-9.49-0.02c-6.58,0.2-13.15,0.69-19.68,1.46c-6.6,0.78-23.09,3.15-29.6,4.52c-3.25,0.69-6.49,1.45-9.71,2.28
			c-2.57,0.67-5.29,1.23-7.53,2.73c-1.84,1.23-2.99,2.94-2.77,5.2c0.13,1.28,2.08,0.83,1.95-0.44c-0.24-2.4,2.76-3.75,4.61-4.39
			c2.84-0.98,5.86-1.6,8.79-2.29c6.09-1.43,12.24-2.61,18.42-3.53c6.26-0.93,22.47-2.87,28.78-3.25c3.16-0.19,6.33-0.31,9.49-0.37
			c1.42-0.02,2.85-0.04,4.28-0.03c1.38,0,3.14-0.13,4.12,1.05c0.82,1,0.95,2.5,1.2,3.73c0.32,1.59,0.63,3.18,0.94,4.78
			c0.62,3.19,1.22,6.38,1.79,9.57c1.16,6.39,2.23,12.79,3.21,19.21c1.95,12.67,6.15,45.23,7.44,57.98
			c0.65,6.37,1.21,12.75,1.69,19.13c0.24,3.24,0.47,6.47,0.67,9.71c0.19,3.03,0.48,6.1,0.46,9.14c-0.02,2.86-0.63,5.55-3.19,7.17
			c-2.37,1.5-5.14,2.52-7.72,3.56c-5.53,2.22-11.26,3.94-17.09,5.18c-5.83,1.24-21.67,3.28-27.63,3.51
			c-2.91,0.11-5.82,0.1-8.73-0.03c-2.93-0.13-6.04-0.2-8.83-1.19c-5.03-1.79-6.88-7.13-8.05-11.86c-1.46-5.93-2.66-11.93-3.83-17.92
			c-4.89-25.09-10.5-70.37-11.65-95.91c-0.14-3.13-0.25-6.27-0.34-9.4c-0.03-1.28-2.03-1.38-2-0.09
			c0.73,26.94,6.1,73.65,10.96,100.16c1.22,6.64,2.57,13.26,4.04,19.85c1.09,4.88,2.11,10.4,5.7,14.15
			c4.09,4.27,10.65,4.16,16.14,4.29c6.21,0.15,12.43-0.26,18.57-1.19c6.2-0.94,22.23-3.72,28.17-5.74c2.91-0.99,5.78-2.1,8.59-3.33
			c2.52-1.1,5.41-2.18,7.11-4.46C225.78,193.07,226.03,190.3,225.97,187.75z"/>
		<path class="st10" d="M208.92,73.88c-0.88-4.01-1.76-8.03-2.64-12.04c-0.3-1.35-0.59-2.78-1.44-3.9c-0.97-1.28-2.4-1.68-3.95-1.73
			c-1.74-0.06-6.49,0.52-8.18,0.93c-1.43,0.34-3.18,0.77-4.25,1.83c-1.09,1.08-0.97,2.52-0.94,3.93c0.04,1.65-0.61,2.71-2.06,3.49
			c-1.19,0.63-2.53,0.94-3.86,1.17c-2.03,0.35-4.07,0.63-6.1,0.93c-3.86,0.57-17.64,2.4-21.5,2.92c-1.62,0.22-3.85,0.77-5.1-0.64
			c-0.96-1.08-1.07-2.78-1.36-4.13c-0.25-1.13-0.52-2.67-1.63-3.29c-1.32-0.73-3.16,0.18-4.45,0.53c-5.54,1.5-10.7,1.61-11.77,8.69
			c-0.19,1.27,1.81,1.36,2,0.09c0.41-2.7,1.51-3.51,3.82-4.47c2.84-1.19,2.97-1.43,5.93-2.23c0.86-0.23,1.88-0.7,2.77-0.75
			c0.9-0.06,1.02,0.39,1.23,1.22c0.33,1.29,0.48,2.61,0.94,3.86c0.97,2.61,3.19,3.56,5.86,3.35c3.64-0.29,7.28-0.95,10.9-1.47
			c3.31-0.48,16.61-2.11,19.88-2.82c2.22-0.49,4.77-1.41,5.93-3.53c0.58-1.07,0.6-2.2,0.55-3.39c-0.04-0.87-0.1-1.71,0.7-2.27
			c0.7-0.49,1.71-0.72,2.53-0.94c1.86-0.49,6.95-1.21,8.87-0.95c1.85,0.25,2.28,1.96,2.64,3.54c0.94,4.17,1.83,8.35,2.75,12.52
			C207.25,75.57,209.2,75.14,208.92,73.88z"/>
		<path class="st10" d="M175.32,201.57c-4.29,0.56-13.1,1.61-17.39,0.99c-3.76-0.55-6.14-0.24-8.2-3.75
			c-2.03-3.47-3.24-8.33-4.23-12.2c-1.02-4.02-1.82-8.11-2.66-12.17c-3.43-16.64-9.09-53.24-10.55-70.19
			c-0.83-9.59-1.11-19.22-0.67-28.84c0.06-1.29-1.94-1.38-2-0.09c-0.81,17.83,3.48,55.5,6.32,73.09c1.42,8.78,3.11,17.52,4.91,26.23
			c0.88,4.29,1.72,8.61,2.82,12.85c1.01,3.88,2.26,8.77,4.29,12.25c2.2,3.75,4.37,3.88,8.45,4.59c4.92,0.86,14.39-0.16,19.34-0.81
			C177.03,203.35,176.59,201.4,175.32,201.57z"/>
		<path class="st10" d="M207.49,76.88c0.47,4.54,1.06,10.03,1.54,14.57c1.29,12.36,5.15,44.56,6.44,56.93
			c0.89,8.5,1.77,16.99,2.66,25.49c0.41,3.93,1.03,8.12-0.14,11.98c-0.99,3.26-3.34,5.79-6.21,7.53
			c-5.24,3.18-25.35,5.85-33.51,7.44c0.01,0.01,0.01,0.03,0.02,0.04c-1.15,0.26-0.89,2.11,0.35,1.95c0.1-0.01,0.18-0.06,0.27-0.09
			c7.55-1.49,26.72-4.1,31.64-6.41c2.93-1.38,5.66-3.35,7.52-6.04c2.13-3.09,2.68-6.85,2.55-10.53c-0.15-4.25-0.77-8.51-1.21-12.74
			c-0.46-4.45-0.93-8.91-1.39-13.36l-5.34-46.31c-1.04-9.98-2.2-20.9-3.24-30.88C209.31,75.16,207.36,75.61,207.49,76.88z"/>
	</g>
	<path class="st68" d="M35.45,119.72c9-7.42,20.53-11.88,33.1-11.88c28.74,0,52.04,23.3,52.04,52.04s-23.3,52.04-52.04,52.04
		s-52.04-23.3-52.04-52.04c0-14.84,6.6-28.69,16.56-38.17"/>
	<g>
		<g>
			<path class="st30" d="M117.79,210.39c-0.15-1.63-0.11-3.49-1.8-4.28c-3.31-1.54-7.66-1.04-11.18-0.83
				c-7.98,0.46-17.96,0.61-25.95,0.33c-3.84-0.13-7.69-0.58-11.53-0.57c-3.08,0.01-7.36,1.13-7.75,4.78c0,0.03,0.01,0.06,0,0.1
				c-0.79,4.47-1.12,9-0.98,13.54c0.06,2.02,0.02,4.24,0.67,6.17c0.68,2,2.38,2.87,4.27,3.51c6.45,2.2,13.37,1.18,20.09,1.65
				c0.06-0.1,0.13-0.18,0.2-0.27c0.41,0.18,0.88,0.23,1.35,0.13c1.07-0.24,2.17-0.17,3.25-0.16c1.26,0.02,2.51-0.03,3.76-0.15
				c2.55-0.23,5.09-0.68,7.61-1.13c0.34-0.06,0.62-0.24,0.85-0.47c2.11-0.11,4.99-0.23,6.58-0.42c2.02-0.24,4.04-0.6,5.99-1.2
				c1.59-0.48,3.47-0.96,4-2.73c0.59-1.95,0.6-4.21,0.72-6.24c0.11-1.8,0.16-3.6,0.15-5.4
				C118.08,214.64,117.98,212.51,117.79,210.39z"/>
			<path class="st10" d="M119.72,209.66c-0.16-1.64-0.31-3.37-1.62-4.55c-1.26-1.13-3.17-1.48-4.79-1.71
				c-2.04-0.3-4.09-0.32-6.14-0.24c-8.79,0.35-19.51,0.76-28.31,0.46c-2.47-0.09-4.94-0.21-7.41-0.37c-2.2-0.14-4.41-0.34-6.6-0.02
				c-3.6,0.53-7.08,2.96-7.28,6.86c0,0,0,0,0,0c-0.76,4.58-1.11,9.22-0.93,13.86c0.15,3.93,0.17,7.44,4.17,9.42
				c3.54,1.75,9.1,1.98,15,1.98c5.63,0,11.68-0.2,11.68-0.23c4.7-0.3,19.2-0.55,22.97-1.25c3.24-0.6,7.81-1.42,8.76-5.12
				c0.5-1.94,0.57-4.09,0.71-6.08c0.14-2.12,0.2-4.25,0.17-6.38C120.06,214.06,119.93,211.85,119.72,209.66z M117.95,222.17
				c-0.13,2.02-0.13,4.29-0.72,6.24c-0.53,1.77-2.41,2.25-4,2.73c-1.95,0.59-3.97,0.96-5.99,1.2c-1.98,0.24-5.97,0.37-7.96,0.5
				c-1.07,0.07-11.75,0.26-12.82,0.35c-0.37,0.03-0.77,0.05-1.16,0.09c0,0,0,0.01,0.01,0.01c-6.76-0.06-16.18,0.95-21.85-0.99
				c-1.89-0.65-3.49-0.65-4.17-2.66c-0.65-1.93-0.61-4.16-0.67-6.17c-0.14-4.54,0.2-9.07,0.98-13.54c0.01-0.04-0.01-0.06,0-0.1
				c0.39-3.65,4.67-4.77,7.75-4.78c3.84-0.01,7.69,0.44,11.53,0.57c7.99,0.27,17.97,0.13,25.95-0.33c3.52-0.21,7.87-0.71,11.18,0.83
				c1.69,0.79,1.65,2.65,1.8,4.28c0.19,2.12,0.29,4.25,0.31,6.37C118.11,218.57,118.06,220.37,117.95,222.17z"/>
			<g>
				<path class="st4" d="M87.19,222.49c-0.03-2.84-0.12-5.68-0.28-8.52c-0.07-1.25,0.12-3.07-0.64-4.13
					c-0.76-1.06-2.19-0.99-3.34-1.07c-2.14-0.14-5.1-0.57-6.78,1.16c-0.86,0.88-1.08,2.08-1.13,3.29c-0.05,1.37-0.03,2.76-0.01,4.13
					c0.04,3.19,0.15,6.41,0.51,9.58c0.09,0.82,0.36,1.49,1.11,1.87c0.69,0.35,1.59,0.24,2.35,0.23c0.51,0.11,1.02,0.17,1.48,0.22
					c1.28,0.15,2.6,0.04,3.85-0.27c1.24-0.31,2.4-0.9,2.75-2.26C87.4,225.4,87.21,223.85,87.19,222.49z"/>
			</g>
			<g>
				<path class="st4" d="M101.08,222.46c-0.03-2.84-0.12-5.68-0.28-8.52c-0.07-1.25,0.12-3.07-0.64-4.13
					c-0.76-1.06-2.19-1-3.34-1.07c-2.14-0.14-5.1-0.57-6.78,1.16c-0.86,0.88-1.08,2.08-1.13,3.29c-0.05,1.37-0.03,2.76-0.01,4.13
					c0.04,3.19,0.15,6.41,0.51,9.58c0.09,0.82,0.36,1.49,1.11,1.87c0.69,0.35,1.59,0.24,2.35,0.23c0.51,0.11,1.02,0.17,1.48,0.22
					c1.28,0.15,2.6,0.04,3.85-0.27c1.24-0.31,2.4-0.9,2.75-2.26C101.29,225.36,101.1,223.81,101.08,222.46z"/>
			</g>
			<g>
				<path class="st4" d="M115.08,222.46c-0.03-2.84-0.12-5.68-0.28-8.52c-0.07-1.25,0.12-3.07-0.64-4.13
					c-0.76-1.06-2.19-1-3.34-1.07c-2.14-0.14-5.1-0.57-6.78,1.16c-0.86,0.88-1.08,2.08-1.13,3.29c-0.05,1.37-0.03,2.76-0.01,4.13
					c0.04,3.19,0.15,6.41,0.51,9.58c0.09,0.82,0.36,1.49,1.11,1.87c0.69,0.35,1.59,0.24,2.35,0.23c0.51,0.11,1.02,0.17,1.48,0.22
					c1.28,0.15,2.6,0.04,3.85-0.27c1.24-0.31,2.4-0.9,2.75-2.26C115.29,225.36,115.1,223.81,115.08,222.46z"/>
			</g>
			<g>
				<path class="st4" d="M73.3,222.53c-0.03-2.84-0.12-5.68-0.28-8.52c-0.07-1.25,0.12-3.07-0.64-4.13
					c-0.76-1.06-2.19-0.99-3.34-1.07c-2.14-0.14-5.1-0.57-6.78,1.16c-0.86,0.88-1.08,2.08-1.13,3.29c-0.05,1.37-0.03,2.76-0.01,4.13
					c0.04,3.19,0.15,6.41,0.51,9.58c0.09,0.82,0.36,1.49,1.11,1.87c0.69,0.35,1.59,0.24,2.35,0.23c0.51,0.11,1.02,0.17,1.48,0.22
					c1.28,0.15,2.6,0.04,3.85-0.27c1.24-0.31,2.4-0.9,2.75-2.26C73.51,225.44,73.32,223.88,73.3,222.53z"/>
			</g>
		</g>
		<path class="st10" d="M104.21,197.24c-0.15-1.4,0.02-3.73-1.79-4.3c-1.01-0.32-2.26-0.31-3.32-0.41c-1.14-0.11-2.28-0.2-3.42-0.27
			c-2.53-0.16-5.06-0.23-7.6-0.22c-2.53,0.01-5.07,0.12-7.6,0.31c-1.96,0.15-4.37,0.1-6.19,0.84c-1.79,0.74-2.21,2.35-2.5,3.95
			c-0.4,2.19-0.53,4.4-0.39,6.62c0.06,1.06,1.75,1.13,1.96,0.23c9.66,1.75,19.57-0.23,29.33,0.37c0.24,0.95,1.97,0.89,1.95-0.19
			C104.6,201.86,104.46,199.54,104.21,197.24z"/>
		<g>
			<path class="st4" d="M84.09,194.45c-0.57-0.15-1.03,0.2-1.22,0.71c-0.46,1.22-0.98,2.42-1.56,3.6c-0.29,0.59-0.6,1.18-0.92,1.76
				c-0.14,0.25-0.28,0.49-0.42,0.74c-0.12-0.22-0.24-0.45-0.36-0.67c-0.31-0.58-0.6-1.16-0.89-1.75c-0.57-1.16-1.09-2.34-1.57-3.55
				c-0.2-0.5-0.68-0.85-1.24-0.69c-0.48,0.14-0.89,0.73-0.69,1.24c0.92,2.3,1.98,4.55,3.18,6.73c0.34,0.61,0.74,1.29,1.52,1.32
				c0.81,0.03,1.17-0.6,1.53-1.21c0.6-1.02,1.16-2.06,1.68-3.12c0.62-1.27,1.17-2.57,1.67-3.89
				C84.99,195.17,84.58,194.58,84.09,194.45z"/>
			<path class="st4" d="M88.39,194.33c-1.29,0.01-1.27,2.01,0.02,2C89.7,196.32,89.68,194.32,88.39,194.33z"/>
			<path class="st4" d="M88,197.29c-0.54,0.03-1,0.45-0.99,1.01c0.02,1.62-0.03,3.24-0.15,4.86c-0.04,0.52,0.5,1.02,1.01,0.99
				c0.58-0.03,0.95-0.45,0.99-1.01c0.12-1.62,0.17-3.24,0.15-4.86C89,197.76,88.54,197.26,88,197.29z"/>
			<path class="st4" d="M99.79,201.27c-1.76,0.22-3.53,0.32-5.3,0.32c0.03-0.03,0.05-0.06,0.08-0.09c0.56-0.57,1.12-1.14,1.68-1.71
				c1.13-1.15,2.26-2.31,3.39-3.46c0.64-0.65,0.12-1.65-0.72-1.7c-2.17-0.14-4.34-0.26-6.51-0.35c-0.54-0.02-1,0.49-0.99,1.01
				c0.01,0.56,0.47,0.97,1.01,0.99c1.41,0.06,2.83,0.15,4.24,0.23c-0.65,0.66-1.3,1.32-1.94,1.98c-1.1,1.12-2.33,2.21-3.17,3.55
				c-0.43,0.68,0.16,1.46,0.88,1.5c2.47,0.13,4.94,0.04,7.39-0.27c0.54-0.07,1-0.42,0.99-1.01
				C100.79,201.77,100.33,201.21,99.79,201.27z"/>
		</g>
		<path class="st10" d="M70.05,211.93c-0.48,0-0.79,0.31-0.92,0.71c-1.09-0.58-2.39-0.62-3.56-0.11c-1.46,0.65-2.33,2.12-2.53,3.67
			c-0.19,1.48,0.23,3.32,1.67,4.06c1.33,0.68,2.6,0,3.57-0.95c-0.03,0.28-0.07,0.55-0.1,0.83c-0.18,1.5-0.51,4.26-2.61,4.03
			c-0.54-0.06-1,0.5-1,1c0,0.59,0.46,0.94,1,1c2.69,0.3,4.11-2.45,4.44-4.68c0.42-2.83,0.7-5.7,1.04-8.54
			C71.08,212.39,70.57,211.93,70.05,211.93z M65.2,217.97c-0.44-0.97-0.21-2.3,0.48-3.09c0.68-0.78,2-1.02,2.8-0.29
			c0.08,0.07,0.16,0.1,0.24,0.14c-0.23,0.76-0.56,1.5-1.01,2.17C67.25,217.58,65.84,219.38,65.2,217.97z"/>
		<path class="st10" d="M84.07,211.93c-0.48,0-0.79,0.31-0.92,0.71c-1.09-0.58-2.39-0.62-3.56-0.11c-1.46,0.65-2.33,2.12-2.53,3.67
			c-0.19,1.48,0.23,3.32,1.67,4.06c1.33,0.68,2.6,0,3.57-0.95c-0.03,0.28-0.07,0.55-0.1,0.83c-0.18,1.5-0.51,4.26-2.61,4.03
			c-0.54-0.06-1,0.5-1,1c0,0.59,0.46,0.94,1,1c2.69,0.3,4.11-2.45,4.44-4.68c0.42-2.83,0.7-5.7,1.04-8.54
			C85.1,212.39,84.59,211.93,84.07,211.93z M79.23,217.97c-0.44-0.97-0.21-2.3,0.48-3.09c0.68-0.78,2-1.02,2.8-0.29
			c0.08,0.07,0.16,0.1,0.24,0.14c-0.23,0.76-0.56,1.5-1.01,2.17C81.28,217.58,79.87,219.38,79.23,217.97z"/>
		<path class="st10" d="M98.1,211.93c-0.48,0-0.79,0.31-0.92,0.71c-1.09-0.58-2.39-0.62-3.56-0.11c-1.46,0.65-2.33,2.12-2.53,3.67
			c-0.19,1.48,0.23,3.32,1.67,4.06c1.33,0.68,2.6,0,3.57-0.95c-0.03,0.28-0.07,0.55-0.1,0.83c-0.18,1.5-0.51,4.26-2.61,4.03
			c-0.54-0.06-1,0.5-1,1c0,0.59,0.46,0.94,1,1c2.69,0.3,4.11-2.45,4.44-4.68c0.42-2.83,0.7-5.7,1.04-8.54
			C99.13,212.39,98.62,211.93,98.1,211.93z M93.25,217.97c-0.44-0.97-0.21-2.3,0.48-3.09c0.68-0.78,2-1.02,2.8-0.29
			c0.08,0.07,0.16,0.1,0.24,0.14c-0.23,0.76-0.56,1.5-1.01,2.17C95.31,217.58,93.89,219.38,93.25,217.97z"/>
		<path class="st10" d="M112.98,220.66c-0.52-1-1.42-1.71-2.36-2.31c0.03-0.04,0.07-0.08,0.11-0.12c0.91-1.11,1.88-2.28,2.01-3.76
			c0.26-3.01-3.11-4.33-5.37-2.71c-1.16,0.83-2.19,2.27-2.06,3.76c0.13,1.44,1.27,2.4,2.4,3.15c-0.37,0.41-0.74,0.82-1.12,1.21
			c-0.95,0.99-1.87,1.98-1.82,3.45c0.05,1.29,0.78,2.51,1.9,3.16c2.24,1.3,5.19,0.29,6.3-2
			C113.56,223.26,113.62,221.88,112.98,220.66z M108.96,217.1c-0.91-0.58-2.08-1.35-1.45-2.55c0.46-0.89,1.64-1.95,2.71-1.39
			c1.28,0.67,0.08,2.44-0.49,3.16c-0.22,0.29-0.47,0.56-0.7,0.84C109,217.14,108.98,217.12,108.96,217.1z M110.47,224.49
			c-0.84,0.69-2.15,0.8-3.02,0.1c-1.02-0.81-0.71-1.97,0.07-2.79c0.6-0.63,1.2-1.27,1.78-1.92c0.81,0.48,1.66,1.05,2.02,1.92
			C111.71,222.75,111.23,223.87,110.47,224.49z"/>
	</g>
	<g>
		<path class="st6" d="M226.38,155.77c-0.14-0.07-0.28-0.14-0.41-0.21c-1.21-0.86-2.49-1.62-3.83-2.26
			c0.74-2.65,1.06-5.37,0.93-8.16c-0.12-2.41-3.36-2.26-3.96-0.21c-0.61,2.09-1.09,4.21-1.45,6.35c-1.4-0.77-2.98-1.2-4.69-1.27
			c-1.75-0.07-2.44,2.54-1.13,3.53c0.5,0.37,0.99,0.74,1.49,1.11c-1.76,0.14-2.39,2.4-1.1,3.53c0.17,0.15,0.35,0.28,0.53,0.43
			c-1.7,0.06-3.12,2.26-1.41,3.5c3.25,2.37,6.93,4.25,10.49,6.15C222.63,163.86,224.05,159.58,226.38,155.77z"/>
		<path class="st10" d="M223.29,154.55c0.97,0.52,1.94,1.02,2.92,1.53c0.35-0.58,0.72-1.15,1.11-1.72c-1.21-0.6-2.3-1.15-3.18-1.63
			C223,152.13,222.16,153.94,223.29,154.55z"/>
		<path class="st10" d="M221.92,167.78c-0.68-0.4-1.36-0.81-2.03-1.21c-1.1-0.66-1.94,1.15-0.85,1.81c0.8,0.48,1.65,0.98,2.53,1.49
			C221.67,169.17,221.79,168.47,221.92,167.78z"/>
		<g>
			<polygon class="st10" points="220.91,144.84 220.92,144.85 220.92,144.85 220.91,144.84 			"/>
			<path class="st10" d="M220.89,144.82C220.89,144.82,220.89,144.82,220.89,144.82c0,0,0.01,0.01,0.01,0.01c0,0,0,0,0,0
				C220.9,144.83,220.89,144.82,220.89,144.82z"/>
			<path class="st10" d="M222.65,143.78c-0.43-0.56-1.05-0.95-1.77-0.94c-0.82,0-1.52,0.53-1.97,1.18c-0.81,1.16-1.3,2.53-1.6,3.9
				c-0.32,1.48-0.42,2.99-0.51,4.5c-0.03,0.54,0.23,1.06,0.8,1.16c0.48,0.09,1.13-0.26,1.16-0.8c0.09-1.46,0.18-2.93,0.49-4.37
				c0.13-0.63,0.3-1.24,0.54-1.83c0.23-0.57,0.52-1.29,1-1.69c0.03-0.06,0.06-0.08,0.09-0.07c-0.01-0.01-0.01-0.01,0,0
				c0.01,0,0.02,0,0.03,0.01c0.01,0.01-0.01,0-0.02,0c0,0,0.01,0.01,0.01,0.01c0.06,0.01,0.08,0.02,0,0
				c0.01,0.01,0.01,0.01,0.03,0.02c0.03,0.03,0.05,0.04,0.06,0.05c0.04,0.05,0.08,0.1,0.11,0.15c0.11,0.16,0.09,0.13,0.14,0.25
				c0.25,0.59,0.36,1.25,0.46,1.88c0.26,1.59,0.31,3.2,0.13,4.8c-0.06,0.54,0.24,1.06,0.8,1.16c0.5,0.09,1.11-0.26,1.16-0.8
				c0.17-1.51,0.18-3.04,0-4.56c-0.1-0.8-0.25-1.6-0.43-2.38C223.24,144.85,223.02,144.26,222.65,143.78z"/>
			<path class="st10" d="M220.88,144.84c0.02,0,0.02,0,0.03,0.01c-0.01-0.01-0.01-0.01-0.01-0.01
				C220.89,144.83,220.91,144.84,220.88,144.84z"/>
		</g>
		<path class="st10" d="M216.98,151.79c-0.95-0.83-1.96-1.65-3.17-2.05c-1.14-0.38-2.77-0.43-3.55,0.65c-0.8,1.1-0.1,2.45,0.65,3.35
			c0.21,0.25,0.43,0.5,0.65,0.74c-0.89,0-1.88,0.14-2.43,0.91c-0.79,1.1,0.13,2.11,0.94,2.84c0.38,0.35,0.79,0.67,1.19,0.99
			c-0.26,0.12-0.52,0.27-0.75,0.49c-0.92,0.85-1.04,2.09-0.37,3.14c0.7,1.08,1.92,1.95,2.98,2.66c1.18,0.79,2.42,1.43,3.75,1.91
			c1.2,0.44,2.06-1.37,0.85-1.81c-1.66-0.6-3.2-1.44-4.57-2.56c-0.39-0.32-1.58-1.09-1.44-1.68c0.18-0.76,1.73-0.39,2.18-0.31
			c0.92,0.17,1.68-1.17,0.82-1.75c-0.67-0.46-1.33-0.93-1.96-1.44c-0.32-0.25-0.63-0.51-0.94-0.78c-0.15-0.13-0.31-0.27-0.46-0.4
			c-0.07-0.06-0.14-0.13-0.21-0.19c0.04-0.01,0.08-0.01,0.1-0.02c0.37-0.03,0.74-0.01,1.11,0.03c0.79,0.1,1.52,0.33,2.24,0.68
			c1.01,0.49,1.98-0.97,1.07-1.67c-0.8-0.61-1.57-1.27-2.27-2c-0.26-0.27-1.68-1.55-1.47-2.02c0.01-0.02,0.73,0,0.86,0.02
			c0.33,0.05,0.64,0.18,0.94,0.33c0.74,0.37,1.38,0.93,2,1.47C216.67,154.18,217.95,152.64,216.98,151.79z"/>
	</g>
	<g>
		<path class="st3" d="M192.77,170.77c-0.06-0.99-0.71-1.84-1.73-1.96c-0.96-0.11-1.94,0.45-2.19,1.43
			c-0.01,0.02-0.01,0.04-0.02,0.07c-1.04-0.7-2.49-0.19-2.95,0.98c-0.42-0.54-1-0.92-1.86-0.97c-0.92-0.06-1.64,0.67-1.93,1.47
			c-0.01,0.03-0.02,0.07-0.03,0.1c-0.07-0.07-0.12-0.14-0.19-0.21c-0.98-0.86-2.26-0.64-2.94,0.21c-0.48-0.63-1.25-0.99-2.1-0.76
			c-0.97,0.27-1.78,1.45-1.4,2.46c0.78,2.04,1.64,4.05,2.9,5.84c0.91,1.3,2.59,1.17,3.35,0.06c0.44,0.29,0.97,0.41,1.55,0.25
			c0.58-0.16,0.95-0.54,1.18-1.01c0.03,0.05,0.06,0.1,0.09,0.15c0.46,0.67,1.15,1.08,1.99,0.95c0.57-0.09,1.14-0.43,1.46-0.94
			c0.32,0.17,0.67,0.28,0.99,0.28c0.56,0,1.07-0.24,1.43-0.63c0.77-0.11,1.45-0.67,1.68-1.45
			C192.64,175.06,192.9,172.9,192.77,170.77z"/>
		<g>
			<path class="st10" d="M191.88,182.43c-0.2-0.56-0.75-0.72-1.28-0.61c-2.2,0.47-7.25,1.32-9.49,1.56
				c-0.27,0.03-0.54,0.06-0.81,0.08c-0.13,0.01-0.27,0.03-0.4,0.04c0,0-0.01,0-0.01,0c-0.04-0.12-0.08-0.24-0.13-0.35l-0.3-0.86
				c-0.32-0.9-0.64-1.81-0.96-2.71c-0.01,0.04-0.02,0.07-0.04,0.11c-0.05,0.06-0.09,0.13-0.14,0.19c-0.08,0.09-0.18,0.16-0.29,0.2
				c-0.11,0.06-0.23,0.09-0.35,0.09c-0.13,0.01-0.25-0.02-0.36-0.07c-0.12-0.04-0.22-0.1-0.3-0.19c-0.06-0.06-0.11-0.14-0.16-0.2
				c-0.01-0.01-0.01-0.02-0.02-0.02c-0.04-0.07-0.07-0.14-0.1-0.22c0,0,0,0,0,0c0,0,0,0,0,0c-0.01-0.02-0.02-0.03-0.02-0.05
				c-0.01-0.03-0.02-0.07-0.04-0.1c-0.01-0.03-0.04-0.05-0.05-0.09c-0.01-0.08-0.03-0.16-0.04-0.25c0-0.07,0.01-0.13,0.02-0.2
				c-0.21,0.23-0.31,0.55-0.18,0.93c0.45,1.28,0.9,2.55,1.35,3.83c0.19,0.55,0.34,1.21,0.79,1.61c0.54,0.47,1.22,0.39,1.88,0.33
				c2.69-0.26,8.18-1.2,10.82-1.76C191.8,183.59,192.04,182.89,191.88,182.43z"/>
			<g>
				<path class="st10" d="M181.58,186.13c-0.01-0.02-0.01-0.04-0.02-0.06c0,0,0,0,0-0.01c0-0.01-0.01-0.01-0.01-0.02
					C181.56,186.13,181.58,186.15,181.58,186.13z"/>
				<path class="st10" d="M181.6,186.33c0-0.01,0-0.01,0-0.01c-0.01,0.04-0.01,0.07-0.01,0.09c0.01-0.03,0.01-0.05,0.01-0.05
					C181.6,186.34,181.6,186.34,181.6,186.33z"/>
				<path class="st10" d="M180.42,186.88c0.03,0,0.05,0.01,0.07,0.01c0.01,0,0.01,0,0.02,0
					C180.48,186.88,180.44,186.87,180.42,186.88z"/>
				<path class="st10" d="M183.52,185.63c-0.29-1.13-1.4-1.92-2.55-1.93c-0.23,0-0.44,0.1-0.61,0.25c-0.23-0.14-0.51-0.2-0.78-0.11
					c-1.04,0.35-1.74,1.28-1.8,2.37c-0.06,1.12,0.72,2.12,1.74,2.49c0.46,0.17,0.98,0.21,1.47,0.19c0.52-0.03,1.06-0.16,1.49-0.47
					C183.34,187.78,183.79,186.7,183.52,185.63z M181.58,186.4c0,0.02-0.01,0.04-0.02,0.07c-0.01,0.02-0.02,0.04-0.03,0.06
					c-0.01,0.01-0.02,0.03-0.02,0.04c0.02-0.02,0.02,0-0.01,0.04c-0.01,0.01-0.02,0.02-0.03,0.04c-0.01,0.01-0.02,0.03-0.02,0.04
					c0.01-0.02,0.01-0.02,0.02-0.03c-0.02,0.02-0.03,0.04-0.05,0.06c-0.01,0.01-0.03,0.03-0.04,0.04c-0.04,0.03-0.07,0.05-0.11,0.07
					c0,0,0,0-0.01,0c-0.04,0.01-0.11,0.04-0.18,0.05c-0.01,0-0.01,0-0.02,0c-0.03,0-0.07,0.01-0.1,0.01c-0.09,0-0.18,0.01-0.27,0
					c-0.06,0-0.12-0.01-0.17-0.01c0,0,0.01,0,0.02,0.01c0,0-0.02-0.01-0.03-0.01c-0.01,0-0.02,0-0.04,0c-0.07,0-0.06-0.01-0.03-0.01
					c-0.02,0-0.05,0-0.06-0.01c-0.06-0.01-0.12-0.03-0.18-0.05c0.01,0.01,0.02,0.01,0.02,0.02c0,0-0.03-0.01-0.06-0.03
					c-0.06-0.02-0.05-0.02-0.02-0.01c-0.01-0.01-0.04-0.02-0.03-0.02c-0.01-0.01-0.03-0.02-0.06-0.03
					c-0.03-0.03-0.09-0.08-0.12-0.11c0,0,0,0,0,0c-0.03-0.04-0.05-0.08-0.07-0.13c-0.01-0.02-0.02-0.05-0.02-0.06
					c-0.01-0.03-0.02-0.05-0.02-0.08c0,0,0,0,0,0c0-0.05-0.01-0.11-0.01-0.16c0-0.01,0-0.01,0-0.01c0.01-0.03,0.02-0.07,0.03-0.1
					c0.01-0.02,0.01-0.02,0.01-0.03c0.02-0.03,0.04-0.07,0.06-0.09c0.02-0.03,0.05-0.06,0.06-0.09c-0.01,0.02-0.01,0.03-0.02,0.05
					c0.03-0.04,0.07-0.07,0.1-0.1c0.03-0.02,0.05-0.03,0.08-0.05c0,0,0.01-0.01,0.02-0.01c0.01,0,0.03-0.01,0.04-0.01
					c0.13-0.04,0.25-0.12,0.36-0.21c0.15,0.09,0.32,0.15,0.51,0.15c0.01,0,0.03,0,0.04,0c-0.02,0-0.02-0.01-0.04-0.01
					c0.02,0.01,0.03,0.01,0.05,0.01c0.02,0,0.04,0,0.06,0c0.02,0,0.03,0,0.04,0.01c0,0-0.01,0,0.02,0.01c0,0,0,0,0,0
					c0,0-0.02,0-0.03,0c0.01,0,0.03,0.01,0.04,0.01c0,0,0,0,0,0c0.06,0.03,0.11,0.06,0.17,0.1c0,0,0,0,0,0
					c0.05,0.04,0.09,0.08,0.13,0.13c0,0.01,0,0,0.01,0.01c0.02,0.02,0.03,0.05,0.05,0.07c0-0.02-0.01-0.03-0.01-0.05c0,0,0,0,0,0
					c0.01,0.02,0.02,0.05,0.02,0.07c0.02,0.03,0.02,0.05,0.02,0.06c0,0.01,0.01,0.03,0.01,0.04c0,0.01,0,0.02,0.01,0.03
					c0,0.04,0,0.08,0,0.12c0-0.02,0.01-0.03,0.01-0.05c0,0,0,0,0,0c0,0.02-0.01,0.05-0.01,0.07c0,0.01,0,0.02,0,0.03
					C181.6,186.41,181.58,186.43,181.58,186.4z"/>
				<path class="st10" d="M179.91,185.93c0,0-0.01,0.01-0.01,0.01C179.83,186.02,179.85,186.05,179.91,185.93z"/>
				<path class="st10" d="M180.11,186.8c0.01,0,0.01,0,0.02,0.01c0,0,0,0,0,0c0.01,0,0.03,0.01,0.04,0.01
					C180.16,186.81,180.13,186.81,180.11,186.8z"/>
				<path class="st10" d="M181.05,185.71C181.05,185.71,181.05,185.71,181.05,185.71c0.04,0.01,0.07,0.02,0.09,0.02
					C181.11,185.72,181.08,185.71,181.05,185.71z"/>
				<path class="st10" d="M181.46,186.65c0.02-0.03,0.03-0.05,0.05-0.08C181.5,186.59,181.48,186.61,181.46,186.65
					C181.46,186.66,181.46,186.65,181.46,186.65z"/>
			</g>
			<g>
				<path class="st10" d="M191.43,184.51c-0.01-0.02-0.01-0.04-0.02-0.06c0,0,0,0,0-0.01c0-0.01-0.01-0.01-0.01-0.02
					C191.42,184.5,191.43,184.52,191.43,184.51z"/>
				<path class="st10" d="M191.45,184.71c0-0.01,0-0.01,0-0.01c-0.01,0.04-0.01,0.07-0.01,0.09c0.01-0.03,0.01-0.05,0.01-0.05
					C191.45,184.72,191.45,184.71,191.45,184.71z"/>
				<path class="st10" d="M190.27,185.25c0.03,0,0.05,0.01,0.07,0.01c0.01,0,0.01,0,0.02,0
					C190.34,185.26,190.3,185.25,190.27,185.25z"/>
				<path class="st10" d="M193.37,184.01c-0.29-1.13-1.4-1.92-2.55-1.93c-0.23,0-0.44,0.1-0.61,0.25c-0.23-0.14-0.51-0.2-0.78-0.11
					c-1.04,0.35-1.74,1.28-1.8,2.37c-0.06,1.12,0.72,2.12,1.74,2.49c0.46,0.17,0.98,0.21,1.47,0.19c0.52-0.03,1.06-0.16,1.49-0.47
					C193.2,186.16,193.64,185.07,193.37,184.01z M191.44,184.78c0,0.02-0.01,0.04-0.02,0.07c-0.01,0.02-0.02,0.04-0.03,0.06
					c-0.01,0.01-0.02,0.03-0.03,0.04c0.02-0.02,0.02,0-0.01,0.04c-0.01,0.01-0.02,0.02-0.03,0.04c-0.01,0.01-0.02,0.03-0.02,0.04
					c0.01-0.02,0.01-0.02,0.02-0.03c-0.02,0.02-0.03,0.04-0.05,0.06c-0.01,0.01-0.03,0.03-0.04,0.04c-0.04,0.03-0.07,0.05-0.11,0.07
					c0,0,0,0-0.01,0c-0.04,0.01-0.11,0.04-0.18,0.05c-0.01,0-0.01,0-0.02,0c-0.03,0-0.07,0.01-0.1,0.01c-0.09,0-0.18,0.01-0.27,0
					c-0.06,0-0.12-0.01-0.17-0.01c0,0,0.01,0,0.02,0.01c0,0-0.02-0.01-0.03-0.01c-0.01,0-0.02,0-0.04,0c-0.07,0-0.06-0.01-0.03-0.01
					c-0.02,0-0.05-0.01-0.06-0.01c-0.06-0.01-0.12-0.03-0.18-0.05c0.01,0.01,0.02,0.01,0.02,0.02c0,0-0.03-0.01-0.06-0.03
					c-0.06-0.02-0.05-0.02-0.02-0.01c-0.01-0.01-0.04-0.02-0.03-0.02c-0.01-0.01-0.03-0.02-0.06-0.03
					c-0.03-0.03-0.09-0.08-0.12-0.11c0,0,0,0,0,0c-0.03-0.04-0.05-0.08-0.07-0.13c-0.01-0.02-0.02-0.05-0.02-0.06
					c-0.01-0.03-0.02-0.05-0.02-0.08c0,0,0,0,0,0c0-0.05-0.01-0.11-0.01-0.16c0-0.01,0-0.01,0-0.01c0.01-0.03,0.02-0.07,0.03-0.1
					c0.01-0.02,0.01-0.02,0.01-0.03c0.02-0.03,0.04-0.07,0.06-0.09c0.02-0.03,0.05-0.06,0.06-0.09c-0.01,0.02-0.01,0.03-0.02,0.05
					c0.03-0.04,0.07-0.07,0.1-0.1c0.03-0.02,0.05-0.03,0.08-0.05c0,0,0.01-0.01,0.02-0.01c0.01,0,0.03-0.01,0.04-0.01
					c0.13-0.04,0.25-0.12,0.36-0.21c0.15,0.09,0.32,0.15,0.51,0.15c0.01,0,0.03,0,0.04,0c-0.02,0-0.02-0.01-0.04-0.01
					c0.02,0.01,0.03,0.01,0.05,0.01c0.02,0,0.04,0,0.06,0c0.02,0,0.03,0,0.04,0.01c0,0-0.01,0,0.02,0.01c0,0,0,0,0,0
					c0,0-0.02,0-0.03,0c0.01,0,0.03,0.01,0.04,0.01c0,0,0,0,0,0c0.06,0.03,0.11,0.06,0.17,0.1c0,0,0,0,0,0
					c0.05,0.04,0.09,0.08,0.13,0.13c0,0.01,0,0,0.01,0.01c0.02,0.02,0.03,0.05,0.05,0.07c0-0.02-0.01-0.03-0.01-0.05c0,0,0,0,0,0
					c0.01,0.02,0.02,0.05,0.02,0.07c0.02,0.03,0.02,0.05,0.02,0.06c0,0.01,0.01,0.03,0.01,0.04c0,0.01,0,0.02,0.01,0.03
					c0,0.04,0,0.08,0,0.12c0-0.02,0.01-0.03,0.01-0.05c0,0,0,0,0,0c0,0.02-0.01,0.05-0.01,0.07c0,0.01,0,0.02,0,0.03
					C191.45,184.78,191.44,184.81,191.44,184.78z"/>
				<path class="st10" d="M189.76,184.31c0,0-0.01,0.01-0.01,0.01C189.69,184.39,189.7,184.43,189.76,184.31z"/>
				<path class="st10" d="M189.96,185.18c0.01,0,0.01,0,0.02,0.01c0,0,0,0,0,0c0.01,0,0.03,0.01,0.04,0.01
					C190.01,185.19,189.99,185.18,189.96,185.18z"/>
				<path class="st10" d="M190.91,184.08C190.91,184.08,190.9,184.08,190.91,184.08c0.04,0.01,0.07,0.02,0.09,0.02
					C190.97,184.1,190.94,184.09,190.91,184.08z"/>
				<path class="st10" d="M191.32,185.03c0.02-0.03,0.03-0.05,0.05-0.08C191.35,184.96,191.34,184.99,191.32,185.03
					C191.32,185.03,191.32,185.03,191.32,185.03z"/>
			</g>
			<path class="st10" d="M192.06,177.63c-2.39,0.35-4.78,0.7-7.17,1.04c-1.16,0.17-2.31,0.34-3.47,0.51
				c-0.95,0.14-1.97,0.39-2.94,0.44c-0.41-0.61-0.69-1.44-0.98-2.07c-0.39-0.85-0.75-1.72-1.08-2.59c-0.62-1.64-2.16-6.11-2.6-7.81
				c-0.1-0.4-0.56-0.75-0.98-0.72c-1.98,0.18-3.89,0.58-5.76,1.26c-1.2,0.44-0.65,2.36,0.57,1.92c1.46-0.53,2.94-0.89,4.47-1.09
				c0.55,1.98,2.22,6.73,3.02,8.63c0.38,0.89,0.77,1.76,1.2,2.63c0.37,0.76,0.7,1.77,1.66,1.86c1.07,0.11,2.38-0.31,3.44-0.47
				c1.08-0.16,2.16-0.31,3.24-0.47l7.4-1.08C193.35,179.44,193.33,177.44,192.06,177.63z"/>
			<path class="st10" d="M193.46,168.57c-3.16-0.11-6.36,0.43-9.48,0.85c-3.09,0.41-6.16,0.93-9.16,1.77
				c-1.24,0.34-0.68,2.26,0.57,1.92c2.94-0.82,5.95-1.33,8.97-1.73c2.63-0.35,5.31-0.78,7.98-0.82c-0.32,2.45-0.66,4.9-1.01,7.34
				c-0.18,1.26,1.75,1.77,1.94,0.5c0.41-2.86,0.81-5.72,1.18-8.58C194.54,169.16,194.17,168.6,193.46,168.57z"/>
			<path class="st10" d="M183.88,178.92c-0.8-2.44-1.55-4.89-2.26-7.35c-0.15-0.52-0.73-0.83-1.24-0.68
				c-0.52,0.15-0.82,0.72-0.68,1.24c0.71,2.46,1.46,4.91,2.26,7.35c0.17,0.51,0.71,0.83,1.24,0.68
				C183.71,180.02,184.05,179.44,183.88,178.92z"/>
			<path class="st10" d="M188.66,177.58c0-0.02,0-0.03-0.01-0.05c-0.01-0.05-0.01-0.09-0.02-0.14c-0.02-0.14-0.04-0.28-0.05-0.42
				c-0.04-0.28-0.07-0.57-0.11-0.85c-0.07-0.59-0.15-1.18-0.22-1.77c-0.14-1.16-0.29-2.31-0.43-3.47c-0.07-0.54-0.44-0.99-1.02-0.98
				c-0.5,0.01-1.05,0.48-0.98,1.02c0.16,1.3,0.32,2.59,0.49,3.89c0.08,0.64,0.16,1.27,0.24,1.91c0.09,0.73,0.08,1.5,0.58,2.08
				c0.35,0.41,1.06,0.34,1.41-0.03C188.88,178.43,188.88,177.96,188.66,177.58z"/>
			<path class="st10" d="M192.26,173.17c-5.41,0.74-10.82,1.48-16.23,2.22c-1.26,0.17-1.24,2.17,0.04,2
				c5.41-0.74,10.82-1.48,16.23-2.22C193.55,174.99,193.53,172.99,192.26,173.17z"/>
		</g>
	</g>
	<g>
		<circle class="st69" cx="209.36" cy="53.12" r="17.2"/>
		<circle class="st68" cx="209.36" cy="53.12" r="17.2"/>
	</g>
	<path class="st47" d="M268.35,151.94c-0.07-1.21-0.18-2.43-0.33-3.64c-4.99-1.18-10.19-1.02-15.32-0.63
		c-0.11-0.24-0.31-0.43-0.6-0.51c-0.49-0.13-1.13,0.17-1.23,0.7c-0.65,3.44-1.3,6.93-1.06,10.44c-1.12,1.43-2.84,2.26-5.46,1.94
		c-2.24-0.27-4.61-1.55-6.61-2.54c-2.13-1.06-4.94-3.45-7.25-3.92c-3.6-0.73-3.95,2.69-5.02,5.13c-0.86,1.96-1.82,3.8-2.59,5.74
		c0.04,0.32,0.07,0.64,0.11,0.96c-0.05,0.04-0.09,0.07-0.14,0.11c-0.25,0.25-0.42,0.54-0.51,0.88c-0.14,0.53-0.27,1.06-0.41,1.59
		c-0.08,0.27-0.1,0.53-0.04,0.8c0.01,0.27,0.09,0.51,0.24,0.74c0.13,0.23,0.3,0.42,0.51,0.56c0.19,0.18,0.42,0.3,0.68,0.36
		c0.07,0.01,0.15,0.02,0.22,0.03c0.01,0.05,0.01,0.09,0.02,0.14c0.17,0.06,0.34,0.12,0.51,0.22c3.47,1.92,7.16,3.42,10.53,5.53
		c1.74,1.09,3.37,2.32,5.04,3.48c0.54,0.24,1.06,0.51,1.58,0.79c0.12,0,0.24,0.01,0.37,0.01c0.9,0.01,1.56-0.24,2.06-0.66
		c2.06,0.95,4.12,1.88,6.2,2.75c2.63,1.1,5.43,1.82,8.12,0.52c0.2-0.1,0.33-0.25,0.41-0.43c1,0.01,1.95-0.32,2.76-1.25
		c1.59-1.82,2.55-4.52,3.43-6.74c0.98-2.47,1.8-5,2.42-7.59C268.18,162.4,268.64,157.13,268.35,151.94z"/>
	<path class="st10" d="M268.57,147.18c-0.2-5.94-0.97-12.55-4.21-17.68c-2.98-4.71-7.78-7.78-12.43-10.62
		c-1.1-0.67-2.11,1.06-1.01,1.73c3.95,2.41,8.06,4.95,10.89,8.7c3.15,4.18,4.15,9.65,4.59,14.75c0.48,5.54,0.13,11.11-0.51,16.62
		c-0.59,5.1-1.22,10.35-2.94,15.21c-0.79,2.22-1.86,4.99-3.7,6.56c-1.91,1.63-4.62,1.07-6.82,0.44c-5.08-1.45-10.07-3.38-14.89-5.54
		c-2.37-1.06-6.55-3.15-8.85-4.36c-1.15-0.61-2.29-1.23-3.41-1.88c-0.53-0.3-1.06-0.61-1.58-0.92c-0.22-0.13-0.63-0.3-0.79-0.47
		c-0.35-0.38-0.25-0.4-0.1-0.99c0.66-2.58,2.6-6.5,3.58-8.97c0.49-1.24,1.02-2.47,1.56-3.68c0.16-0.36,0.32-0.88,0.54-1.26
		c0.06,0.01,0.15,0.04,0.28,0.15c0.31,0.25,0.9,0.46,1.26,0.64c2.66,1.35,7.18,3.6,9.89,4.84c2.43,1.11,5.03,2.23,7.76,1.92
		c2.9-0.32,2.99-2.65,3.31-5.08c0.41-3.09,0.71-6.19,0.92-9.3c0.08-1.28-1.92-1.28-2,0c-0.2,3.03-0.49,6.06-0.88,9.07
		c-0.09,0.7-0.14,1.43-0.3,2.11c-0.19,0.81-0.38,1.11-1.24,1.22c-1.46,0.18-2.94-0.22-4.3-0.71c-2.81-1.02-7.35-3.41-10.03-4.73
		c-1.19-0.59-2.37-1.22-3.57-1.8c-0.9-0.44-1.78-0.64-2.49,0.23c-0.76,0.92-1.15,2.35-1.62,3.44c-0.56,1.31-2.02,4.02-2.52,5.35
		c-0.5,1.33-0.98,2.67-1.42,4.01c-0.36,1.09-1.19,2.71-0.86,3.89c0.26,0.94,1.26,1.41,2.03,1.86c1.25,0.74,2.51,1.46,3.79,2.15
		c2.48,1.35,6.86,3.56,9.43,4.73c5.06,2.3,10.29,4.32,15.61,5.91c2.17,0.65,4.63,1.19,6.85,0.47c2.36-0.77,3.74-2.82,4.84-4.92
		c2.51-4.79,3.41-10.19,4.14-15.48C268.15,158.96,268.77,153.08,268.57,147.18z"/>
	<path class="st10" d="M257.24,124.03c-2.66,3.52-5.06,7.22-7.21,11.08c-1.37-0.48-2.74-0.96-4.11-1.44
		c-0.69-0.24-1.49,0.53-1.23,1.23l1,2.66c0.08,0.2,0.15,0.41,0.23,0.61c0.01,0.08,0.02,0.12,0.04,0.17
		c-0.23,0.05-0.48,0.08-0.69,0.14c-1.53,0.38-3,1.07-4.32,1.93c-3,1.95-5.27,4.74-7.49,7.5c-0.8,0.99,0.61,2.42,1.41,1.41
		c2.5-3.12,5.1-6.39,8.79-8.15c0.88-0.42,1.77-0.67,2.71-0.89c0.63-0.15,1.22-0.29,1.56-0.89c0.38-0.67,0.09-1.3-0.15-1.96
		c-0.14-0.38-0.29-0.77-0.43-1.15c0.96,0.34,1.92,0.67,2.88,1.01c0.4,0.14,0.93-0.09,1.13-0.46c2.25-4.11,4.79-8.05,7.61-11.79
		C259.74,124.01,258,123.01,257.24,124.03z"/>
	<path class="st10" d="M227.81,117.64c-3.52,0.12-6.29,2.34-8.86,4.52c-0.41,0.35-0.36,1.05,0,1.41c0.41,0.41,1,0.35,1.41,0
		c2.13-1.81,4.51-3.83,7.44-3.94C229.09,119.59,229.1,117.59,227.81,117.64z"/>
	<path class="st4" d="M218.77,43.45c-0.86-0.27-1.71-0.54-2.57-0.8c-0.67-0.21-1.45-0.61-2.16-0.54c-0.71,0.07-1.06,0.6-1.42,1.14
		c-0.51,0.75-0.98,1.54-1.43,2.32c-1.37,2.34-2.55,4.78-3.57,7.29c-0.76-1.24-1.55-2.46-2.4-3.64c-0.34-0.47-0.87-0.52-1.29-0.34
		c-0.18-0.07-0.39-0.1-0.64,0c-2.04,0.78-3.88,1.83-5.59,3.18c-0.44,0.34-0.33,1.06,0,1.41c3.58,3.83,7.22,7.65,11.69,10.46
		c0.44,0.27,1.13,0.12,1.37-0.36c3.04-6.13,5.92-12.35,8.63-18.64C219.63,44.32,219.44,43.67,218.77,43.45z M209.48,61.59
		c-3.59-2.43-6.63-5.54-9.6-8.7c1.22-0.85,2.54-1.56,3.92-2.09c0.02-0.01,0.03-0.02,0.04-0.03c1.1,1.56,2.14,3.17,3.08,4.84
		c0.45,0.8,1.54,0.53,1.83-0.24c1-2.71,2.2-5.33,3.61-7.85c0.64-1.14,1.37-2.22,2.03-3.34c0.18,0.06,0.36,0.11,0.53,0.17
		c0.37,0.11,0.73,0.23,1.1,0.34c0.37,0.12,0.74,0.23,1.11,0.35C214.72,50.62,212.17,56.14,209.48,61.59z"/>
	<path class="st79" d="M163.94,75.39c-5.55,5.35-10.86,10.95-15.93,16.75c0.68-1.27,1.42-2.52,2.21-3.73
		c1.72-2.67,4.34-5.4,4.85-8.63c0.15-0.96-0.89-1.69-1.67-0.97c-5.58,5.1-10.81,10.58-15.64,16.4c-0.82,0.98,0.59,2.41,1.41,1.41
		c3.62-4.37,7.47-8.54,11.53-12.51c-0.92,1.34-1.83,2.68-2.69,4.05c-1.82,2.9-3.38,5.96-4.38,9.24c-0.28,0.91,1.02,1.76,1.67,0.97
		c6.28-7.55,12.97-14.75,20.05-21.57C166.28,75.91,164.87,74.49,163.94,75.39z"/>
	<path class="st79" d="M168.99,78.66c-0.39-0.36-1.03-0.41-1.41,0c-1.64,1.74-3.27,3.48-4.91,5.23c-0.36,0.38-0.41,1.04,0,1.41
		c0.39,0.36,1.03,0.41,1.41,0c1.64-1.74,3.27-3.48,4.91-5.23C169.35,79.69,169.4,79.03,168.99,78.66z"/>
	<path class="st79" d="M180.63,77.16c-0.36-0.33-1.07-0.44-1.41,0c-1.31,1.69-2.63,3.38-3.94,5.07c-0.17,0.22-0.29,0.42-0.29,0.71
		c0,0.25,0.11,0.54,0.29,0.71c0.36,0.33,1.07,0.44,1.41,0c1.31-1.69,2.63-3.38,3.94-5.07c0.17-0.22,0.29-0.42,0.29-0.71
		C180.92,77.62,180.82,77.33,180.63,77.16z"/>
	<path class="st79" d="M169.67,184.77c-3.36,2.72-6.54,5.65-9.54,8.76c0.65-1.97,1.41-3.9,2.27-5.79c0.7-1.53,1.44-3.04,2.17-4.56
		c0.71-1.48,1.25-2.93,0.91-4.59c-0.15-0.72-1.19-0.99-1.67-0.44c-3.75,4.29-7.19,8.84-10.29,13.63c-0.7,1.08,1.03,2.09,1.73,1.01
		c2.28-3.53,4.74-6.92,7.39-10.17c-0.16,0.31-0.32,0.61-0.46,0.9c-0.71,1.47-1.41,2.94-2.06,4.44c-1.26,2.91-2.36,5.88-3.02,8.99
		c-0.2,0.91,0.96,1.77,1.67,0.97c2.85-3.2,5.9-6.22,9.12-9.04c-0.67,1.52-1.39,3.01-2.16,4.48c-0.59,1.14,1.13,2.15,1.73,1.01
		c1.46-2.8,2.75-5.68,3.88-8.63C171.74,184.71,170.35,184.22,169.67,184.77z"/>
	<path class="st79" d="M171.44,190.96c-0.49-0.26-1.07-0.12-1.37,0.36c-0.85,1.36-1.52,2.83-2.01,4.36c-0.16,0.5,0.19,1.11,0.7,1.23
		c0.55,0.12,1.06-0.16,1.23-0.7c0.11-0.36,0.24-0.71,0.37-1.05c0.04-0.09,0.07-0.19,0.11-0.28c0.01-0.03,0.03-0.07,0.04-0.1
		c0,0,0,0,0,0c0.07-0.16,0.14-0.32,0.21-0.48c0.31-0.68,0.67-1.33,1.07-1.97C172.08,191.88,171.91,191.2,171.44,190.96z"/>
	<path class="st79" d="M205.7,176.46c-2.54,3.71-5.08,7.42-7.61,11.13c-0.73,1.07,1,2.07,1.73,1.01c2.54-3.71,5.08-7.42,7.61-11.13
		C208.15,176.4,206.42,175.4,205.7,176.46z"/>
	<path class="st79" d="M212.52,175.56c-2.63,3.86-5.34,7.66-8.15,11.39c-0.32,0.43-0.07,1.12,0.36,1.37
		c0.51,0.3,1.04,0.07,1.37-0.36c2.81-3.73,5.53-7.53,8.15-11.39C214.97,175.5,213.24,174.5,212.52,175.56z"/>
	<path class="st48" d="M243.81,171.85c-4.67-2.12-9.07-4.77-13.14-7.89c-0.43-0.33-1.12-0.06-1.37,0.36
		c-0.31,0.51-0.07,1.04,0.36,1.37c4.07,3.12,8.47,5.77,13.14,7.89c0.5,0.23,1.07,0.14,1.37-0.36
		C244.43,172.79,244.3,172.07,243.81,171.85z"/>
	<path class="st48" d="M253.32,171.24c-6.55-2.24-12.71-5.48-18.29-9.58c-1.04-0.76-2.04,0.97-1.01,1.73
		c5.72,4.2,12.05,7.49,18.76,9.78C254.01,173.58,254.53,171.65,253.32,171.24z"/>
	<path class="st48" d="M247.57,167.53c-0.49-0.26-1.07-0.12-1.37,0.36c-0.94,1.5-1.88,3-2.82,4.51c-0.28,0.44-0.11,1.12,0.36,1.37
		c0.49,0.26,1.07,0.12,1.37-0.36c0.94-1.5,1.88-3,2.82-4.5C248.21,168.46,248.04,167.78,247.57,167.53z"/>
	<path class="st48" d="M251.8,167.98c-0.54-0.12-1.07,0.16-1.23,0.7c-0.3,0.98-0.63,1.95-0.99,2.9c-0.37,0.98-0.7,1.78-1.11,2.7
		c-0.21,0.48-0.15,1.1,0.36,1.37c0.44,0.23,1.14,0.15,1.37-0.36c0.89-1.98,1.67-4,2.3-6.08C252.66,168.71,252.32,168.1,251.8,167.98
		z"/>
	<path class="st48" d="M257.91,154.13c-0.6,5.16-1.81,10.23-3.56,15.12c-0.43,1.21,1.5,1.74,1.93,0.53
		c1.81-5.07,3.01-10.31,3.63-15.65C260.06,152.85,258.06,152.87,257.91,154.13z"/>
	<path class="st48" d="M263.53,145.68c-0.08-1.28-2.08-1.29-2,0c0.38,6.13,0.74,12.39-1.17,18.32c-0.39,1.23,1.54,1.75,1.93,0.53
		C264.25,158.44,263.92,151.98,263.53,145.68z"/>
	<path class="st48" d="M261.28,154.53c-0.18-0.17-0.45-0.32-0.71-0.29c-1.13,0.13-2.25,0.26-3.38,0.39
		c-0.27,0.03-0.5,0.09-0.71,0.29c-0.17,0.17-0.3,0.46-0.29,0.71c0.01,0.26,0.1,0.53,0.29,0.71c0.18,0.17,0.45,0.32,0.71,0.29
		c1.13-0.13,2.25-0.26,3.38-0.39c0.27-0.03,0.5-0.09,0.71-0.29c0.17-0.17,0.3-0.46,0.29-0.71
		C261.57,154.98,261.48,154.71,261.28,154.53z"/>
	<path class="st48" d="M260.79,160.05c-0.17-0.53-0.68-0.83-1.23-0.7c-0.43,0.1-0.87,0.18-1.31,0.25c-0.66,0.08-1.32,0.12-1.99,0.11
		c-0.52-0.01-1.02,0.47-1,1c0.02,0.55,0.44,0.99,1,1c1.29,0.02,2.58-0.13,3.83-0.43C260.6,161.16,260.95,160.55,260.79,160.05z"/>
	<path class="st48" d="M242.05,145.09c-0.48-0.13-1.14,0.16-1.23,0.7c-0.48,2.82-0.74,5.67-0.75,8.53c0,1.29,2,1.29,2,0
		c0.01-2.68,0.23-5.35,0.68-8C242.84,145.79,242.61,145.24,242.05,145.09z"/>
	<path class="st48" d="M245.79,142.42c-0.76,4.57-1.52,9.13-2.28,13.7c-0.21,1.26,1.72,1.8,1.93,0.53c0.76-4.57,1.52-9.13,2.28-13.7
		C247.92,141.7,246,141.15,245.79,142.42z"/>
	<path class="st48" d="M246.5,150.87c-0.51,0.02-1.03,0.01-1.54-0.03c-0.54-0.04-0.78-0.07-1.26-0.16c-0.47-0.09-0.93-0.2-1.39-0.33
		c-0.25-0.07-0.49-0.15-0.73-0.24c-0.1-0.04-0.21-0.08-0.31-0.11c-0.07-0.03-0.14-0.05-0.2-0.08c-0.11-0.05-0.14-0.06-0.07-0.03
		c-0.48-0.2-1.09-0.16-1.37,0.36c-0.23,0.43-0.16,1.15,0.36,1.37c2.06,0.88,4.26,1.33,6.51,1.26c0.52-0.02,1.02-0.45,1-1
		C247.48,151.35,247.06,150.86,246.5,150.87z"/>
	<path class="st48" d="M227.47,149.91c-0.53-3.56-1.07-7.12-1.6-10.68c-0.08-0.53-0.75-0.83-1.23-0.7c-0.57,0.16-0.78,0.69-0.7,1.23
		c0.53,3.56,1.07,7.12,1.6,10.68c0.08,0.53,0.75,0.83,1.23,0.7C227.35,150.98,227.55,150.44,227.47,149.91z"/>
	<g>
		<g>
			<path class="st30" d="M199.9,96.91c-0.39-1.6-0.62-3.44-2.41-3.97c-3.5-1.04-7.72,0.11-11.18,0.83
				c-7.82,1.64-17.67,3.26-25.61,4.16c-3.81,0.44-7.69,0.56-11.48,1.14c-3.04,0.46-7.12,2.21-6.96,5.87c0,0.03,0.02,0.06,0.02,0.1
				c-0.12,4.54,0.22,9.07,1.03,13.54c0.36,1.99,0.65,4.19,1.58,6.01c0.97,1.88,2.77,2.48,4.74,2.84c6.7,1.23,13.4-0.81,20.12-1.33
				c0.04-0.1,0.1-0.19,0.15-0.29c0.43,0.11,0.91,0.1,1.35-0.07c1.02-0.39,2.12-0.49,3.19-0.64c1.25-0.17,2.48-0.41,3.7-0.7
				c2.49-0.61,4.93-1.42,7.36-2.24c0.32-0.11,0.58-0.33,0.77-0.59c2.07-0.42,4.9-0.97,6.45-1.39c1.96-0.54,3.9-1.2,5.75-2.07
				c1.5-0.71,3.29-1.46,3.56-3.29c0.29-2.02-0.03-4.26-0.21-6.28c-0.16-1.79-0.37-3.58-0.65-5.36
				C200.81,101.07,200.4,98.98,199.9,96.91z"/>
			<path class="st10" d="M201.7,95.89c-0.4-1.6-0.81-3.29-2.27-4.26c-1.42-0.94-3.36-0.99-4.99-0.99c-2.06,0.01-4.09,0.29-6.11,0.67
				c-8.64,1.64-19.19,3.63-27.93,4.64c-2.46,0.28-4.92,0.53-7.39,0.73c-2.2,0.19-4.41,0.31-6.53,0.95
				c-3.49,1.05-6.56,3.98-6.19,7.86c0,0,0,0,0,0c-0.08,4.64,0.27,9.28,1.13,13.84c0.73,3.87,1.27,7.33,5.52,8.7
				c3.75,1.2,9.3,0.61,15.13-0.26c5.57-0.83,11.52-1.92,11.52-1.96c4.6-0.99,18.91-3.38,22.53-4.63c3.12-1.08,7.51-2.56,7.91-6.36
				c0.21-2-0.04-4.13-0.2-6.12c-0.17-2.12-0.43-4.24-0.77-6.34C202.69,100.2,202.24,98.04,201.7,95.89z M201.8,108.53
				c0.18,2.02,0.5,4.26,0.21,6.28c-0.27,1.83-2.05,2.58-3.56,3.29c-1.84,0.87-3.78,1.53-5.75,2.07c-1.92,0.53-5.85,1.25-7.8,1.67
				c-1.05,0.23-11.58,1.99-12.63,2.24c-0.36,0.09-0.75,0.16-1.13,0.27c0,0,0.01,0.01,0.01,0.01c-6.69,0.94-15.86,3.33-21.76,2.25
				c-1.97-0.36-3.55-0.13-4.51-2.01c-0.93-1.81-1.22-4.02-1.58-6.01c-0.81-4.47-1.15-9-1.03-13.54c0-0.04-0.01-0.06-0.02-0.1
				c-0.16-3.66,3.92-5.41,6.96-5.87c3.79-0.58,7.67-0.71,11.48-1.14c7.94-0.91,17.79-2.53,25.61-4.16
				c3.46-0.72,7.68-1.87,11.18-0.83c1.79,0.53,2.02,2.37,2.41,3.97c0.5,2.07,0.92,4.16,1.25,6.26
				C201.42,104.95,201.64,106.74,201.8,108.53z"/>
			<g>
				<path class="st4" d="M171.43,113.4c-0.45-2.8-0.96-5.6-1.54-8.38c-0.25-1.23-0.33-3.05-1.25-3.99
					c-0.91-0.93-2.31-0.66-3.46-0.57c-2.13,0.18-5.13,0.19-6.53,2.15c-0.72,1-0.76,2.22-0.63,3.42c0.15,1.37,0.37,2.73,0.6,4.09
					c0.51,3.15,1.1,6.32,1.92,9.4c0.21,0.8,0.57,1.42,1.37,1.69c0.73,0.24,1.61,0.01,2.36-0.12c0.52,0.03,1.04,0.01,1.5,0
					c1.29-0.04,2.57-0.34,3.76-0.83c1.18-0.49,2.24-1.24,2.39-2.65C172.06,116.24,171.64,114.74,171.43,113.4z"/>
			</g>
			<g>
				<path class="st4" d="M185.16,111.31c-0.45-2.8-0.96-5.6-1.54-8.38c-0.25-1.23-0.33-3.05-1.25-3.99
					c-0.91-0.93-2.31-0.66-3.46-0.57c-2.13,0.18-5.13,0.19-6.53,2.15c-0.72,1-0.76,2.22-0.63,3.42c0.15,1.37,0.37,2.73,0.6,4.09
					c0.51,3.15,1.1,6.32,1.92,9.4c0.21,0.8,0.57,1.42,1.37,1.69c0.73,0.24,1.61,0.01,2.36-0.12c0.52,0.03,1.04,0.01,1.5,0
					c1.29-0.04,2.57-0.34,3.76-0.83c1.18-0.49,2.24-1.24,2.39-2.65C185.79,114.16,185.37,112.65,185.16,111.31z"/>
			</g>
			<g>
				<path class="st4" d="M199.01,109.24c-0.45-2.8-0.96-5.6-1.54-8.38c-0.25-1.23-0.33-3.05-1.25-3.99
					c-0.91-0.93-2.31-0.66-3.46-0.56c-2.13,0.18-5.13,0.19-6.53,2.15c-0.72,1-0.76,2.22-0.63,3.42c0.15,1.37,0.37,2.73,0.6,4.09
					c0.51,3.15,1.1,6.32,1.92,9.4c0.21,0.8,0.57,1.42,1.37,1.69c0.73,0.24,1.61,0.01,2.36-0.12c0.52,0.03,1.04,0.01,1.5,0
					c1.29-0.04,2.57-0.34,3.76-0.83c1.18-0.49,2.24-1.24,2.39-2.65C199.64,112.09,199.22,110.58,199.01,109.24z"/>
			</g>
			<g>
				<path class="st4" d="M157.7,115.49c-0.45-2.8-0.96-5.6-1.54-8.38c-0.25-1.23-0.33-3.05-1.25-3.99
					c-0.91-0.93-2.31-0.66-3.46-0.57c-2.13,0.18-5.13,0.19-6.53,2.15c-0.72,1-0.76,2.22-0.63,3.42c0.15,1.37,0.37,2.73,0.6,4.09
					c0.51,3.15,1.1,6.32,1.92,9.4c0.21,0.8,0.57,1.42,1.37,1.69c0.73,0.24,1.61,0.01,2.36-0.12c0.52,0.03,1.04,0.01,1.5,0
					c1.29-0.04,2.57-0.34,3.76-0.83c1.18-0.49,2.24-1.24,2.39-2.65C158.33,118.33,157.91,116.82,157.7,115.49z"/>
			</g>
		</g>
		<path class="st10" d="M184.53,85.91c-0.36-1.36-0.53-3.69-2.41-3.99c-1.05-0.17-2.28,0.03-3.35,0.09
			c-1.14,0.06-2.28,0.14-3.42,0.24c-2.52,0.22-5.04,0.52-7.55,0.91c-2.5,0.39-5,0.87-7.47,1.43c-1.92,0.44-4.31,0.74-6,1.75
			c-1.67,0.99-1.84,2.65-1.89,4.28c-0.07,2.23,0.13,4.43,0.59,6.61c0.22,1.04,1.9,0.86,1.97-0.06c9.81,0.3,19.32-3.13,29.06-3.97
			c0.38,0.9,2.09,0.59,1.9-0.48C185.59,90.42,185.11,88.15,184.53,85.91z"/>
		<g>
			<path class="st4" d="M164.22,86.13c-0.58-0.06-0.99,0.35-1.11,0.88c-0.28,1.28-0.61,2.54-1.01,3.79
				c-0.2,0.63-0.42,1.26-0.65,1.88c-0.1,0.27-0.2,0.53-0.31,0.79c-0.15-0.2-0.31-0.4-0.46-0.61c-0.39-0.53-0.77-1.06-1.14-1.6
				c-0.73-1.07-1.42-2.16-2.08-3.27c-0.27-0.47-0.8-0.74-1.32-0.5c-0.45,0.21-0.77,0.86-0.5,1.32c1.25,2.14,2.63,4.21,4.14,6.18
				c0.42,0.55,0.92,1.16,1.7,1.08c0.8-0.09,1.07-0.77,1.33-1.42c0.45-1.09,0.85-2.21,1.2-3.33c0.42-1.34,0.78-2.71,1.07-4.09
				C165.21,86.7,164.71,86.18,164.22,86.13z"/>
			<path class="st4" d="M168.45,85.37c-1.27,0.2-0.96,2.18,0.31,1.98C170.04,87.14,169.73,85.17,168.45,85.37z"/>
			<path class="st4" d="M168.5,88.36c-0.53,0.11-0.92,0.59-0.83,1.14c0.26,1.6,0.45,3.21,0.57,4.83c0.04,0.52,0.65,0.93,1.14,0.83
				c0.57-0.12,0.87-0.58,0.83-1.14c-0.12-1.62-0.31-3.23-0.57-4.83C169.56,88.67,169.03,88.25,168.5,88.36z"/>
			<path class="st4" d="M180.75,90.55c-1.71,0.48-3.44,0.84-5.2,1.1c0.02-0.03,0.04-0.07,0.07-0.1c0.47-0.65,0.94-1.29,1.4-1.94
				c0.95-1.31,1.89-2.61,2.84-3.92c0.54-0.74-0.13-1.64-0.97-1.58c-2.16,0.18-4.33,0.39-6.49,0.62c-0.54,0.06-0.91,0.63-0.83,1.14
				c0.09,0.56,0.61,0.89,1.14,0.83c1.41-0.15,2.82-0.27,4.22-0.4c-0.54,0.75-1.09,1.5-1.63,2.25c-0.92,1.27-1.98,2.53-2.61,3.98
				c-0.32,0.74,0.37,1.42,1.09,1.35c2.46-0.24,4.89-0.69,7.27-1.36c0.52-0.15,0.92-0.57,0.83-1.14
				C181.82,90.89,181.27,90.4,180.75,90.55z"/>
		</g>
		<path class="st10" d="M152.91,105.49c-0.47,0.07-0.73,0.42-0.81,0.83c-1.16-0.42-2.46-0.26-3.53,0.42c-1.35,0.86-1.99,2.45-1.96,4
			c0.03,1.49,0.72,3.25,2.25,3.77c1.41,0.48,2.57-0.39,3.39-1.47c0.01,0.28,0.02,0.56,0.02,0.83c0.04,1.51,0.13,4.29-1.99,4.37
			c-0.54,0.02-0.91,0.65-0.84,1.14c0.09,0.58,0.59,0.86,1.14,0.84c2.7-0.1,3.7-3.03,3.7-5.29c0-2.87-0.15-5.74-0.23-8.6
			C154,105.79,153.42,105.42,152.91,105.49z M149.01,112.18c-0.58-0.89-0.55-2.24,0.02-3.13c0.56-0.87,1.83-1.31,2.73-0.7
			c0.09,0.06,0.17,0.08,0.26,0.1c-0.11,0.79-0.33,1.56-0.68,2.29C150.98,111.49,149.85,113.48,149.01,112.18z"/>
		<path class="st10" d="M166.78,103.42c-0.47,0.07-0.73,0.42-0.81,0.83c-1.16-0.42-2.46-0.26-3.53,0.42c-1.35,0.86-1.99,2.45-1.96,4
			c0.03,1.49,0.72,3.25,2.25,3.77c1.41,0.48,2.57-0.39,3.39-1.47c0.01,0.28,0.02,0.56,0.02,0.83c0.04,1.51,0.13,4.29-1.99,4.37
			c-0.54,0.02-0.91,0.65-0.84,1.14c0.09,0.58,0.59,0.86,1.14,0.84c2.7-0.1,3.7-3.03,3.7-5.29c0-2.87-0.15-5.74-0.23-8.6
			C167.87,103.72,167.3,103.34,166.78,103.42z M162.88,110.1c-0.58-0.89-0.55-2.24,0.02-3.13c0.56-0.87,1.83-1.31,2.73-0.7
			c0.09,0.06,0.17,0.08,0.26,0.1c-0.11,0.79-0.33,1.56-0.68,2.29C164.86,109.42,163.72,111.41,162.88,110.1z"/>
		<path class="st10" d="M180.66,101.34c-0.47,0.07-0.73,0.42-0.81,0.83c-1.16-0.42-2.46-0.26-3.53,0.42c-1.35,0.86-1.99,2.45-1.96,4
			c0.03,1.49,0.72,3.25,2.25,3.77c1.41,0.48,2.57-0.39,3.39-1.47c0.01,0.28,0.02,0.56,0.02,0.83c0.04,1.51,0.13,4.29-1.99,4.37
			c-0.54,0.02-0.91,0.65-0.84,1.14c0.09,0.58,0.59,0.86,1.14,0.84c2.7-0.1,3.7-3.03,3.7-5.29c0-2.87-0.15-5.74-0.23-8.6
			C181.74,101.65,181.17,101.27,180.66,101.34z M176.75,108.03c-0.58-0.89-0.55-2.24,0.02-3.13c0.56-0.87,1.83-1.31,2.73-0.7
			c0.09,0.06,0.17,0.08,0.26,0.1c-0.11,0.79-0.33,1.56-0.68,2.29C178.73,107.34,177.6,109.33,176.75,108.03z"/>
		<path class="st10" d="M196.66,107.78c-0.67-0.91-1.65-1.48-2.68-1.93c0.03-0.05,0.06-0.09,0.09-0.14
			c0.74-1.23,1.52-2.53,1.43-4.02c-0.19-3.02-3.72-3.82-5.71-1.88c-1.02,1-1.83,2.57-1.48,4.02c0.34,1.4,1.61,2.19,2.84,2.76
			c-0.3,0.46-0.61,0.92-0.92,1.36c-0.79,1.12-1.56,2.23-1.29,3.68c0.24,1.27,1.14,2.36,2.34,2.84c2.41,0.95,5.17-0.48,5.93-2.91
			C197.62,110.26,197.47,108.89,196.66,107.78z M192.16,104.85c-0.99-0.44-2.26-1.02-1.82-2.31c0.32-0.94,1.33-2.17,2.47-1.78
			c1.37,0.48,0.44,2.4-0.02,3.2c-0.18,0.32-0.38,0.62-0.57,0.93C192.2,104.88,192.18,104.86,192.16,104.85z M194.74,111.94
			c-0.73,0.8-2.01,1.11-2.97,0.55c-1.13-0.65-1-1.84-0.35-2.77c0.5-0.72,1-1.44,1.48-2.17c0.88,0.35,1.8,0.79,2.28,1.6
			C195.71,110.03,195.4,111.21,194.74,111.94z"/>
	</g>
	<g>
		<path class="st69" d="M187.17,155.55c-0.34-0.26-0.72-0.25-1.1-0.09c-1.89,0.83-3.17,2.44-4.08,4.24
			c-1.22-1.27-2.78-2.17-4.56-2.46l0,0.02c-0.08-0.02-0.17-0.04-0.25-0.05c-0.03,0-0.04,0.01-0.07,0.01c-0.3-0.05-0.6,0-0.85,0.25
			c-0.35,0.35-0.43,1.07,0,1.41c2.22,1.79,4.15,3.92,5.68,6.34c0.56,0.88,1.76,0.5,1.87-0.48c0.16-1.43,0.83-2.74,1.52-3.97
			c0.77-1.37,1.58-2.71,2.2-4.16C187.68,156.24,187.45,155.76,187.17,155.55z"/>
		<path class="st69" d="M182.03,132.15c-2.04,1.78-3.49,4.04-4.31,6.55c-1.36-1.95-3.25-3.46-5.49-4.43
			c-0.86-0.37-1.57,0.74-1.19,1.42c4.44,7.78,7.83,15.13,10.22,25.1c0.21,0.87,0.86,1.68,1.32,1.21c0.53,0.07,0.51-0.57,0.48-1.25
			c-0.42-9.39-0.43-18.72,0.64-27.81C183.81,132.04,182.68,131.58,182.03,132.15z"/>
	</g>
	<g>
		<path class="st83" d="M184.95,131.81c-0.82-0.95-1.98-1.56-3.15-1.97c-0.9-0.32-1.9-0.5-2.87-0.42c-0.19-0.08-0.4-0.12-0.66-0.11
			c-2.93,0.13-4.63,2.55-5.42,5.13c-0.44,1.43-0.72,2.91-0.91,4.4c-0.18,1.36-0.24,2.8,0.2,4.13c0.85,2.58,3.23,4.38,5.96,4.44
			c2.68,0.06,4.91-1.65,6.24-3.86c1.38-2.29,2.02-5.2,1.97-7.86C186.29,134.25,185.9,132.91,184.95,131.81z"/>
		<path class="st84" d="M178.1,134.43c0.03-0.09,0.06-0.18,0.06-0.27c0-0.55-0.46-0.99-1-1c-1.02-0.02-1.77,0.69-2.29,1.49
			c-0.52,0.81-0.94,1.73-1.2,2.65c-0.49,1.78-0.45,4,1.2,5.17c0.44,0.31,1.11,0.08,1.37-0.36c0.04-0.07,0.05-0.14,0.07-0.21
			c0.31-0.19,0.55-0.49,0.7-0.87c0.61-1.5,0.96-3.06,1.14-4.67c0.02-0.18-0.03-0.38-0.11-0.57c0.04-0.15,0.08-0.29,0.12-0.44
			C178.25,135.05,178.22,134.72,178.1,134.43z"/>
		<path class="st10" d="M177.88,128.75c-1.28,0.06-1.29,2.06,0,2c2.42-0.12,2.62,3.87,2.57,5.53c-0.06,2.25-0.76,4.47-2,6.35
			c-0.57,0.87-1.3,1.78-2.28,2.21c-1.07,0.47-2.11-0.01-2.83-0.86c-1.57-1.84-1.45-4.54-0.85-6.73c0.35-1.3,0.83-2.61,1.46-3.8
			c0.52-0.98,1.2-1.92,2.32-2.22c1.24-0.33,0.71-2.26-0.53-1.93c-2.92,0.79-4.15,4.13-4.97,6.72c-0.95,2.98-1.11,6.51,0.92,9.09
			c0.89,1.13,2.24,1.99,3.72,1.93c1.5-0.05,2.81-0.98,3.77-2.08c1.98-2.28,3.09-5.29,3.25-8.29
			C182.6,133.75,181.81,128.55,177.88,128.75z"/>
		<path class="st10" d="M178.73,133.27c-0.19-0.5-0.67-0.85-1.23-0.7c-0.48,0.13-0.89,0.72-0.7,1.23c1.06,2.79,0.2,5.69-1.36,8.1
			c-0.7,1.08,1.03,2.09,1.73,1.01C178.99,140.09,179.97,136.52,178.73,133.27z"/>
		<path class="st10" d="M182.87,143.86c-0.14-0.21-0.34-0.41-0.6-0.46c-0.5-0.1-1-0.2-1.5-0.3c-0.27-0.05-0.53-0.04-0.77,0.1
			c-0.21,0.12-0.41,0.36-0.46,0.6c-0.06,0.26-0.05,0.54,0.1,0.77c0.14,0.21,0.34,0.41,0.6,0.46c0.5,0.1,1,0.2,1.5,0.3
			c0.27,0.05,0.53,0.04,0.77-0.1c0.21-0.12,0.41-0.36,0.46-0.6C183.03,144.38,183.02,144.09,182.87,143.86z"/>
		<path class="st10" d="M184.47,139.74c-0.15-0.23-0.34-0.37-0.6-0.46c-0.56-0.19-1.13-0.38-1.69-0.56
			c-0.24-0.08-0.56-0.02-0.77,0.1c-0.21,0.12-0.41,0.36-0.46,0.6c-0.06,0.26-0.05,0.54,0.1,0.77c0.15,0.23,0.34,0.37,0.6,0.46
			c0.56,0.19,1.13,0.38,1.69,0.56c0.24,0.08,0.56,0.02,0.77-0.1c0.21-0.12,0.41-0.36,0.46-0.6
			C184.63,140.26,184.62,139.97,184.47,139.74z"/>
		<path class="st10" d="M185.58,134.63c-0.21-0.19-0.43-0.27-0.71-0.29c-0.04,0-0.08-0.01-0.12-0.01c-0.55-0.08-1.08-0.23-1.59-0.44
			c0.01,0,0.02,0.01,0.02,0.01c-0.24-0.1-0.47-0.16-0.74-0.09c-0.23,0.06-0.48,0.24-0.6,0.46c-0.12,0.23-0.18,0.51-0.1,0.77
			c0.08,0.23,0.23,0.49,0.46,0.6c0.42,0.19,0.85,0.36,1.29,0.48c0.45,0.12,0.91,0.19,1.37,0.23c0.24,0.02,0.54-0.13,0.71-0.29
			c0.17-0.17,0.3-0.46,0.29-0.71C185.86,135.08,185.78,134.81,185.58,134.63z"/>
		<path class="st10" d="M186.33,132.11c-1.5-2.33-4.43-3.17-7.05-3.49c-1.27-0.15-1.26,1.82,0,1.98c2.03,0.25,4.49,0.93,5.53,2.84
			c1.06,1.96,0.58,4.29-0.12,6.28c-0.65,1.87-1.51,3.79-2.95,5.2c-0.79,0.77-1.69,1.39-2.84,1.26c-1.18-0.13-2.37-0.46-3.52-0.75
			c-1.25-0.32-1.78,1.59-0.53,1.91c1.4,0.36,2.93,0.81,4.39,0.85c1.36,0.04,2.52-0.66,3.52-1.51c2.01-1.71,3.16-4.31,3.97-6.75
			C187.56,137.4,187.84,134.46,186.33,132.11z"/>
	</g>
	<path class="st3" d="M169.49,148.59c-4.78-6.47-9.83-13.2-17.17-16.92c-1.14-0.58-2.16,1.14-1.01,1.73
		c7.03,3.57,11.87,10,16.45,16.2C168.52,150.62,170.26,149.62,169.49,148.59z"/>
	<path class="st3" d="M166.96,137.24c-1.66-1.67-3.36-3.3-5.11-4.89c-0.39-0.35-1.04-0.41-1.41,0c-0.35,0.38-0.41,1.04,0,1.41
		c1.74,1.58,3.45,3.21,5.11,4.89c0.37,0.37,1.05,0.4,1.41,0C167.32,138.25,167.35,137.63,166.96,137.24z"/>
	<path class="st3" d="M192.51,124.77c-0.57-0.13-1.03,0.18-1.23,0.7c-0.64,1.64-1.11,3.34-1.4,5.07c-0.09,0.51,0.13,1.1,0.7,1.23
		c0.48,0.11,1.14-0.15,1.23-0.7c0.29-1.73,0.76-3.43,1.4-5.07C193.4,125.51,193,124.88,192.51,124.77z"/>
	<path class="st3" d="M198.97,122.82c-6.22,8.95-9.51,19.75-9.39,30.65c0.01,1.29,2.02,1.29,2,0c-0.12-10.57,3.08-20.96,9.11-29.64
		C201.43,122.77,199.7,121.77,198.97,122.82z"/>
</g>
</svg>
