<?xml version="1.0" encoding="utf-8"?>
<!-- Generator: Adobe Illustrator 24.2.0, SVG Export Plug-In . SVG Version: 6.00 Build 0)  -->
<svg version="1.1" id="pic" xmlns="http://www.w3.org/2000/svg" xmlns:xlink="http://www.w3.org/1999/xlink" x="0px" y="0px"
	 viewBox="0 0 297.95 366.62" style="enable-background:new 0 0 297.95 366.62;" xml:space="preserve">
<style type="text/css">
	.st0{fill:#F6AD6D;}
	.st1{fill:#FFDB83;}
	.st2{fill:#FFFFFF;}
	.st3{fill:#B5C6D1;}
	.st4{fill:#ACCD67;}
	.st5{fill:#631711;}
	.st6{fill:#B8CFDD;}
	.st7{fill:#641811;}
	.st8{fill:#EF7E68;}
	.st9{fill:#FBC770;}
	.st10{fill:#FFE476;}
	.st11{fill:#9E82BA;}
	.st12{fill:#7369AD;}
	.st13{fill:#FFFFFF;stroke:#FFFFFF;stroke-width:0.4;stroke-miterlimit:10;}
	.st14{fill:#77BBE7;}
	.st15{fill:#FCDABE;}
	.st16{fill:#F5B0AB;}
	.st17{fill:#FFE0A1;}
	.st18{fill:none;stroke:#641811;stroke-width:2;stroke-linecap:round;stroke-linejoin:round;stroke-miterlimit:10;}
	.st19{fill:#EF847B;}
</style>
<g>
	<path class="st0" d="M243.91,243.46c2.42-42.58-13.49-82.48-21.82-96.58c-21.76-36.86-70.96-52.3-118.56-34.24
		c-45.42,17.22-81.57,141.4-6.28,197.2C153.23,351.32,239.64,318.61,243.91,243.46z"/>
	<path class="st1" d="M227.33,85.81c-10.32-26.93-40.77-43-67.54-46.41c-26.68-3.4-56.96,4.24-74.99,26.12
		c-8.9,10.81-13.49,24.63-11.4,38.73c2.27,15.32,10.91,29.33,22.1,39.23c17.67,15.63,50.01,28.28,86.65,20.41
		c14.74-3.16,28.71-10.28,37.61-23.25C228.41,128.01,234.55,104.66,227.33,85.81z"/>
	<g>
		<path class="st2" d="M131.4,257.23c-6.97,3.35-15.84,2.58-22.17-1.84c-7.98-5.57-9.33-17.1-3-24.44c0.23-0.27,1.95-2.65,2.88-3.41
			c1.32-1.08,2.68-2.12,4.27-3.02c3.15-1.79,7.74-3.51,12.01-2.94c4.03,0.54,7.61,1.2,10.75,3.91c3.31,2.85,5.29,7.1,5.93,11.38
			C143.31,245.15,138.97,253.59,131.4,257.23z"/>
	</g>
	<g>
		<path class="st2" d="M130.85,307.28c-7.32,3.47-16.64,2.66-23.29-1.92c-8.38-5.77-9.82-17.71-3.17-25.3
			c0.24-0.28,2.04-2.74,3.03-3.53c1.39-1.12,2.81-2.19,4.48-3.13c3.31-1.85,8.13-3.63,12.62-3.03c4.24,0.56,7.99,1.25,11.3,4.05
			c3.48,2.96,5.56,7.35,6.24,11.78C143.36,294.78,138.8,303.51,130.85,307.28z"/>
	</g>
	<g>
		<path class="st3" d="M141.96,285.67c-0.54-3.02-1.74-6-3.59-8.49h-31.13c-0.16,0-0.29-0.04-0.41-0.08
			c-0.99,1.04-2.23,2.74-2.44,2.97c-1.48,1.69-2.54,3.6-3.23,5.61C114.76,285.97,128.36,285.73,141.96,285.67z"/>
	</g>
	<g>
		<path class="st2" d="M186.7,258.84c-6.97,3.35-15.84,2.58-22.17-1.84c-7.98-5.57-9.33-17.1-3-24.44c0.23-0.27,1.95-2.65,2.88-3.41
			c1.32-1.08,2.68-2.12,4.27-3.02c3.15-1.79,7.74-3.51,12.01-2.94c4.03,0.54,7.61,1.2,10.75,3.91c3.31,2.85,5.29,7.1,5.93,11.38
			C198.61,246.76,194.27,255.2,186.7,258.84z"/>
	</g>
	<g>
		<path class="st4" d="M134.76,254.91c0.03-0.98,0.06-1.95,0.08-2.93c0.02-0.55-0.43-0.93-0.96-0.99
			c-7.99-0.85-16.04-1.13-24.07-0.87c-0.32-0.75-1.77-0.64-1.91,0.4c-0.17,1.27-1,3.48,0.08,4.51c1.1,1.06,2.68,1.85,4.06,2.51
			c2.84,1.36,5.92,2.18,9.07,2.39c3.29,0.21,6.79-0.52,9.89-1.6c1.12-0.39,3.16-1.79,3.82-2.85
			C135.16,254.95,134.75,255.51,134.76,254.91z"/>
		<path class="st4" d="M124.38,231.35c-3.7-0.14-7.18,1.5-10.04,3.97c-2.76,2.38-5.88,5.87-6.43,9.78
			c-0.15,1.05,0.98,1.32,1.61,0.78c8.48,0.62,16.95,1.24,25.43,1.86c0.51,0.04,1.06-0.49,1.03-1.05
			C135.6,239.29,132.03,231.64,124.38,231.35z"/>
		<g>
			<path class="st5" d="M135.55,246.75c-9.3-0.1-18.59-0.58-27.85-1.43c-1.28-0.12-1.34,1.88-0.06,2
				c9.26,0.85,18.55,1.33,27.85,1.43C136.78,248.76,136.84,246.76,135.55,246.75z"/>
			<path class="st5" d="M132.1,235.12c-2.32-2.77-5.86-4.67-9.52-4.68c-3.84-0.02-7.22,2.15-9.88,4.76
				c-2.86,2.8-5.11,6.3-5.82,10.28c-0.22,1.25,1.69,1.85,1.91,0.59c0.6-3.38,2.34-6.36,4.7-8.82c2.28-2.39,5.21-4.64,8.64-4.79
				c7.3-0.31,11.46,7.01,12.02,13.38c0.11,1.27,2.11,1.34,2,0.06C135.82,241.99,134.65,238.15,132.1,235.12z"/>
			<path class="st5" d="M114.87,233.2c-0.82-1.38-1.63-2.76-2.45-4.13c-0.27-0.45-0.88-0.68-1.36-0.4c-0.45,0.27-0.68,0.88-0.4,1.36
				c0.82,1.38,1.63,2.76,2.45,4.13c0.27,0.45,0.88,0.68,1.36,0.4C114.92,234.29,115.15,233.68,114.87,233.2z"/>
			<path class="st5" d="M135.99,228.95c-0.5-0.28-1.05-0.14-1.38,0.32c-0.27,0.38-0.55,0.75-0.83,1.11
				c-0.15,0.19-0.29,0.38-0.44,0.56c-0.07,0.09-0.14,0.18-0.21,0.26c-0.04,0.04-0.07,0.09-0.11,0.13c-0.01,0.01-0.01,0.01-0.02,0.02
				c0,0,0,0-0.01,0.01c-0.6,0.72-1.22,1.43-1.86,2.11c-0.36,0.38-0.44,1.02-0.04,1.41c0.37,0.36,1.03,0.45,1.41,0.04
				c1.36-1.45,2.63-2.99,3.8-4.61C136.61,229.9,136.44,229.21,135.99,228.95z"/>
			<path class="st5" d="M118.3,237.98c-0.49-0.55-1.35-0.52-1.87-0.04c-0.23,0.21-0.37,0.47-0.48,0.74
				c-0.06,0.08-0.11,0.16-0.15,0.25c-0.17,0.42-0.26,0.84-0.33,1.28c-0.06,0.39-0.09,0.8-0.02,1.19c0.1,0.62,0.59,1.13,1.22,1.18
				c0.58,0.04,1.08-0.34,1.34-0.83c0.39-0.77,0.64-1.6,0.69-2.47C118.74,238.81,118.62,238.33,118.3,237.98z"/>
			<path class="st5" d="M128.53,238.18c-0.49-0.55-1.35-0.52-1.87-0.04c-0.23,0.21-0.37,0.47-0.48,0.74
				c-0.06,0.08-0.11,0.16-0.15,0.25c-0.17,0.42-0.26,0.84-0.33,1.28c-0.06,0.39-0.09,0.8-0.02,1.19c0.1,0.62,0.59,1.13,1.22,1.18
				c0.58,0.04,1.08-0.34,1.34-0.83c0.39-0.77,0.64-1.6,0.69-2.47C128.97,239.01,128.85,238.54,128.53,238.18z"/>
		</g>
		<g>
			<path class="st5" d="M108.69,249.75c-0.01-0.54-0.41-1.01-0.97-1.03c-0.52-0.02-1.04,0.43-1.03,0.97
				c0.05,2.66,0.08,2.32-0.08,4.98c-0.03,0.54,0.44,1.01,0.97,1.03c0.56,0.02,0.99-0.43,1.03-0.97
				C108.77,252.07,108.74,252.41,108.69,249.75z"/>
			<path class="st5" d="M134.83,250.03c-9.09,0.01-18.17-0.48-27.21-1.45c-1.28-0.14-1.29,1.86-0.02,2
				c9.04,0.98,18.12,1.46,27.21,1.45C136.09,252.02,136.12,250.03,134.83,250.03z"/>
			<path class="st5" d="M134.09,251.24l-0.13,4.6c-0.04,1.29,1.96,1.35,2,0.06l0.13-4.6C136.12,250.01,134.12,249.95,134.09,251.24z
				"/>
		</g>
	</g>
	<g>
		<path class="st6" d="M182,228.21c-0.4-0.33-0.93-0.28-1.31,0.04c-1.38,1.16-2.43,2.62-3.17,4.26c-0.1,0.22-0.03,0.57,0.08,0.77
			c0.12,0.21,0.35,0.42,0.58,0.48c0.25,0.07,0.54,0.06,0.77-0.08c0.17-0.1,0.27-0.24,0.36-0.39c0.43,0.18,1.04,0.1,1.26-0.36
			c0.55-1.14,1.1-2.29,1.65-3.43C182.43,229.06,182.41,228.55,182,228.21z"/>
		<path class="st6" d="M186.5,247.89c-0.71-0.81-1.14-1.81-1.37-2.85c-0.04-0.27-0.08-0.54-0.1-0.81c-0.04-0.5-0.04-0.99-0.01-1.48
			c0.18-1.71,0.92-3.36,1.9-4.78c0.31-0.45,0.18-0.89-0.12-1.18c-0.04-0.48-0.41-0.91-0.95-0.93c-3.57-0.14-7,0.8-10,2.65
			c-0.08-0.26-0.28-0.48-0.64-0.55c-2.01-0.4-4.09-0.75-6.04,0.1c-1.64,0.72-2.85,2.21-3.47,3.86c-1.37,3.65,0.08,8.52,3.05,10.98
			c1.49,1.23,3.42,1.89,5.35,1.62c0.98-0.14,1.92-0.53,2.78-1.01c0.43-0.24,0.83-0.5,1.24-0.76c0.05-0.03,0.09-0.06,0.14-0.09
			c0.09-0.05,0.15-0.08,0.2-0.11c0.15,0.09,0.31,0.46,0.41,0.58c1,1.19,2.72,1.82,4.24,1.45c1.67-0.4,2.67-1.92,2.93-3.54
			c0.02-0.16,0.03-0.31,0.04-0.47c0.08,0.03,0.16,0.06,0.25,0.07c0.66,0.1,1.24-0.51,1.26-1.15
			C187.6,248.78,186.92,248.36,186.5,247.89z"/>
		<g>
			<path class="st7" d="M182.96,226.66c-0.19-0.61-0.97-0.87-1.5-0.51c-1.46,1-2.77,2.23-3.8,3.67c-1.12,1.56-1.93,3.38-1.43,5.32
				c0.12,0.48,0.67,0.72,1.13,0.64c0.14,0.02,0.29,0.01,0.43-0.06c1.73-0.8,3.26-1.91,4.32-3.52
				C183.18,230.59,183.54,228.52,182.96,226.66z M178.13,233.29c0.19-0.88,0.71-1.75,1.25-2.45c0.56-0.73,1.18-1.39,1.86-1.98
				C181.1,230.68,179.73,232.28,178.13,233.29z"/>
			<path class="st7" d="M172.85,237.69c1.22,0,2.34,0.33,3.45,0.83c1.16,0.53,1.81,0.25,2.87-0.33c2.36-1.3,5.35-1.71,7.6,0.04
				c1.01,0.79,2.35-0.7,1.33-1.49c-2.02-1.57-4.54-2.01-7.02-1.43c-0.61,0.14-1.2,0.34-1.78,0.59c-0.57,0.25-1.22,0.8-1.83,0.83
				c-0.57,0.02-1.21-0.42-1.77-0.6c-0.66-0.21-1.33-0.33-2.01-0.39c-2.36-0.21-4.84,0.41-6.73,1.87c-2.12,1.64-2.44,4.09-2.34,6.62
				c0.18,4.74,1.95,10.82,7.52,11.25c1.11,0.09,2.23-0.05,3.3-0.35c0.53-0.15,1.03-0.35,1.53-0.58c0.75-0.34,1.04-0.37,1.7,0.1
				c0.94,0.67,1.79,1.17,2.99,1.17c1.16-0.01,2.33-0.45,3.24-1.15c1.06-0.81,1.83-1.95,2.44-3.12c0.55-1.05,1.45-2.43,0.77-3.61
				c-0.33-0.57-0.89-0.98-1.24-1.54c-0.35-0.55-0.59-1.18-0.72-1.82c-0.3-1.44-0.02-2.87,0.73-4.13c0.66-1.11-1.12-2.01-1.78-0.91
				c-0.97,1.61-1.27,3.52-0.91,5.37c0.18,0.92,0.51,1.8,1.01,2.6c0.22,0.35,0.49,0.64,0.74,0.96c0.22,0.29,0.36,0.38,0.31,0.74
				c-0.05,0.31-0.31,0.68-0.45,0.96c-0.84,1.73-2.49,4.26-4.8,3.56c-0.82-0.25-1.39-1-2.19-1.32c-0.94-0.38-1.75-0.08-2.62,0.31
				c-1.82,0.83-4.1,1.2-5.93,0.2c-1.95-1.05-2.72-3.39-3.19-5.42c-0.48-2.09-0.99-5.19,0.09-7.17
				C168.17,238.46,170.86,237.69,172.85,237.69z"/>
		</g>
	</g>
	<path class="st2" d="M209.5,189.81c-0.06-0.57-0.56-0.91-1.1-0.89c-2.28,0.08-6.37,0.52-8.65,0.6c-0.54,0.02-0.95,0.58-0.89,1.1
		c0.06,0.57,0.56,0.91,1.1,0.89c2.28-0.08,6.37-0.52,8.65-0.6C209.15,190.89,209.56,190.32,209.5,189.81z"/>
	<g>
		<path class="st8" d="M197.59,185.67c-1.75-7.01-5.83-10.45-12.8-11.94c-0.86-0.18-1.43-0.61-1.78-1.15
			c-3.39-0.02-6.73,0.72-10.12,0.73c-0.18,0.71-0.59,1.37-1.32,1.88c-2.39,1.67-4.69,3.68-6.64,5.95c-2.94,1.46-5.19,4.16-5.96,7.37
			c-0.84,3.51-0.81,7.91,0.94,11.16c0.48,1.72,1.23,3.34,2.31,4.7c4.48,6.78,12.53,9.45,20.26,8.4c6.85-1.84,12.36-7.07,16.59-12.69
			C199.85,195.35,198.68,190.04,197.59,185.67z"/>
		<path class="st9" d="M160.76,196.14c-0.15,0.24-0.29,0.5-0.42,0.75c0.04,1.55,0.4,3.11,1,4.61c2.31,3.19,5.41,6,9.02,7.52
			c5.25,2.21,11.24,2.39,16.86,2.18c-0.01-0.46-0.16-0.91-0.53-1.26c-0.77-0.73-1.73-1.22-2.49-1.94c-0.7-0.66-1.14-1.54-1.61-2.35
			c-0.92-1.58-2.01-3.21-3.71-4.06c-0.98-0.49-2.03-0.67-3.13-0.67c-0.68,0-1.8,0.27-2.39-0.1c-0.06-0.04-0.11-0.09-0.16-0.14
			c-0.78-4.11-3.17-8.19-7.79-8.75c-0.83-0.1-1.23-0.23-1.5-1.04c-0.27-0.79-0.4-1.62-0.8-2.37c-0.51-0.94-1.58-1.8-2.69-1.21
			c-0.98,0.52-1.01,1.68-0.93,2.64C159.65,192.07,160.08,194.13,160.76,196.14z"/>
		<path class="st10" d="M183.63,211.42c-1.32-2.79-7.01-3.42-9.47-4.49c-1.54-0.67-1.85-1.99-2.64-3.32
			c-0.67-1.12-1.64-1.83-2.88-2.23c-1.2-0.39-2.48-0.42-3.69-0.75c-1.48-0.41-2.06-1.32-2.14-2.84c-0.07-1.41,0.03-2.79-0.54-4.12
			c-0.56-1.31-1.59-2.37-2.86-3.02c-1.11-0.56-2.14,1.02-1.13,1.64c-0.01,0.09-0.04,0.18-0.02,0.28c0.32,2.91,0.67,5.84,1.8,8.57
			c1.07,2.6,2.89,4.68,5.15,6.32c2.19,1.59,4.68,2.71,7.15,3.79c2.67,1.17,8.1,2.91,10.88,1.51
			C183.73,212.52,183.85,211.89,183.63,211.42z"/>
		<path class="st11" d="M199.39,194.26c-0.02-0.17-0.12-0.32-0.25-0.45c-0.01-0.2-0.02-0.4-0.05-0.6c-0.06-0.49-0.66-0.82-1.13-0.74
			c0.07-1.97,0.13-3.94,0.17-5.91c0.07-3.4-0.91-6.42-4.41-7.58c-1.92-0.64-4.02-0.89-6.01-1.21c-2.09-0.34-4.2-0.59-6.31-0.77
			c-4.37-0.37-8.77-0.38-13.15-0.07c-0.66,0.05-1.27,0.36-1.6,0.88c-0.07-0.01-0.15-0.01-0.22-0.01c-0.04,0.05-0.09,0.09-0.14,0.13
			c-0.22,0.24-0.44,0.48-0.66,0.72c-0.12,0.13-0.23,0.27-0.35,0.4c-0.02,0.03-0.03,0.04-0.05,0.06c0,0.01,0,0.01-0.01,0.01
			c-0.38,0.49-0.77,0.98-1.13,1.49c-0.24,0.33-0.46,0.68-0.68,1.02c0.3,0.1,0.65,0.12,1.04,0c1.2-0.35,2.45-0.29,3.56,0.32
			c1.32,0.72,1.94,2.01,2.49,3.35c0.62,1.49,1.17,2.99,2.23,4.24c1.09,1.28,2.61,1.96,4.24,2.23c2.85,0.46,5.73-0.2,7.84,2.19
			c1.86,2.11,2.6,4.98,3.82,7.45c1.03,2.08,2.7,4.62,4.97,5.62c0.13-0.18,0.25-0.37,0.38-0.55c0.46-0.71,1.14-1.17,1.94-1.4
			c0.1-0.03,0.2-0.04,0.3-0.06c0.47-0.66,0.94-1.33,1.38-2.01l0.09-2.88c0.28-0.04,0.53-0.18,0.68-0.44
			C199.31,198.03,199.64,196.16,199.39,194.26z"/>
		<path class="st12" d="M200.51,190.96c-0.07-2.89-0.23-5.86-1.32-8.57c-1.11-2.74-3.21-4.73-5.71-6.22
			c-3.02-1.8-6.44-2.88-9.94-3.19c-2.97-0.26-6.51-0.15-8.81,2.01c-1.7-0.62-3.65-0.32-5.07,0.86c-1,0.82,0.38,2.27,1.37,1.45
			c0.92-0.76,2.24-0.84,3.3-0.34c1.42,0.67,1.5,2.17,2.22,3.39c1.42,2.41,4.01,1.83,6.35,2.15c2.5,0.35,3.05,3.05,4.46,4.75
			c0.71,0.86,1.64,1.44,2.74,1.64c1.4,0.26,3.12-0.26,4.05,1.11c1.17,1.71,0.68,4.96,3.28,5.49
			C200.07,196.03,200.55,192.81,200.51,190.96z"/>
		<g>
			<path class="st13" d="M192.65,191.53c0.01-2.55,0.34-5.81-1.07-8.09c-1.54-2.49-5.05-2.78-7.69-2.95
				c-1.87-0.12-3.75-0.06-5.63-0.01c-1.79,0.05-3.61-0.03-5.4,0.15c-2.85,0.28-5.73,1.76-6.19,4.85c-0.15,1,1.43,1.04,1.57,0.05
				c0.4-2.74,3.72-3.34,5.96-3.41c2.7-0.08,5.43-0.17,8.14-0.12c1.42,0.03,2.85,0.12,4.24,0.39c1.21,0.23,2.59,0.52,3.4,1.53
				c1.44,1.78,1.07,4.88,1.07,7c0,2.82-0.06,5.66-0.4,8.46c-0.15,1.21-0.28,2.59-0.95,3.64c-0.6,0.96-1.64,1.47-2.7,1.75
				c-2.46,0.65-5.18,0.46-7.69,0.33c-1.43-0.07-2.85-0.18-4.27-0.28c-1.53-0.1-3.16-0.07-4.62-0.57c-3.22-1.08-2.83-4.26-2.7-7.03
				c0.16-3.31,0.31-6.62,0.47-9.93c0.05-1.01-1.53-1.06-1.57-0.05c-0.17,3.51-0.33,7.01-0.5,10.52c-0.13,2.67-0.23,5.57,2.25,7.24
				c1.22,0.82,2.7,1.09,4.14,1.22c1.73,0.16,3.47,0.24,5.2,0.35c3.07,0.2,6.37,0.48,9.39-0.22c2.63-0.61,4.28-2.26,4.8-4.92
				C192.58,198.2,192.63,194.82,192.65,191.53z"/>
			<path class="st13" d="M187.94,186.16c-0.08-0.19-0.24-0.33-0.4-0.45c-0.09-0.06-0.19-0.1-0.29-0.14
				c-0.1-0.04-0.22-0.05-0.32-0.06c-0.11-0.01-0.22,0-0.32,0.03c-0.15,0.04-0.25,0.1-0.35,0.17c-0.18,0.01-0.36,0.07-0.49,0.2
				c-0.15,0.15-0.24,0.34-0.25,0.55c-0.01,0.24,0.05,0.44,0.14,0.66c0.02,0.04,0.04,0.08,0.06,0.12c0.06,0.08,0.12,0.18,0.2,0.26
				c0.16,0.15,0.35,0.28,0.56,0.34c0.21,0.06,0.45,0.07,0.66,0.01c0.21-0.06,0.4-0.16,0.56-0.32c0.15-0.15,0.28-0.34,0.33-0.55
				c0.02-0.1,0.05-0.21,0.04-0.32C188.05,186.45,188.03,186.36,187.94,186.16z"/>
			<path class="st13" d="M181.81,187.94c-0.97-0.28-1.44,1.22-0.46,1.5c1.54,0.44,2.68,1.88,2.83,3.47
				c0.15,1.58-0.79,3.11-2.12,3.92c-3.1,1.88-7.75-0.78-7.1-4.53c0.33-1.94,2.01-3.9,4.16-3.42c0.98,0.22,1.45-1.29,0.46-1.51
				c-2.58-0.57-4.9,1.04-5.83,3.41c-0.98,2.5-0.19,5.13,1.87,6.79c1.78,1.43,4.24,1.92,6.37,1.05c2.03-0.83,3.56-2.77,3.74-4.97
				C185.95,191.14,184.22,188.64,181.81,187.94z"/>
		</g>
	</g>
	<path class="st2" d="M121.15,144.12c-5.96,0.1-11.89,1.02-17.58,2.79c-2.5,0.78-5.23,1.61-7.47,2.99
		c-2.16,1.34-3.31,3.35-3.86,5.79c-1.34,5.95-1.97,12.15-2.67,18.2c-0.73,6.26-1.28,12.55-1.69,18.84
		c-1.65,25.12-1.29,50.39-0.72,75.54c0.08,3.51,0.21,7.02,0.49,10.52c0.23,2.83,0.47,5.72,1.58,8.37c1.79,4.28,7.26,7.59,11.42,4.2
		c1-0.82-0.38-2.27-1.37-1.45c-1.66,1.36-4.03,0.9-5.69-0.22c-2-1.36-2.88-3.8-3.34-6.07c-1.09-5.35-1-11.07-1.11-16.51
		c-0.23-11.65-0.39-23.31-0.38-34.96c0.01-23.27,0.84-46.61,4.36-69.64c0.25-1.67,0.51-3.34,0.81-5c0.25-1.39,0.52-2.85,1.28-4.06
		c1.51-2.4,5.01-3.31,7.53-4.16c5.92-2,12.12-3.06,18.37-3.17C122.37,146.09,122.44,144.09,121.15,144.12z"/>
	<path class="st2" d="M102.82,239.52c-3.41,0.68-11.09,0.52-14.53-0.05c-0.53-0.09-1.08,0.1-1.25,0.66
		c-0.14,0.46,0.13,1.16,0.66,1.25c3.81,0.64,11.8,0.84,15.59,0.09C104.56,241.21,104.09,239.27,102.82,239.52z"/>
	<path class="st2" d="M102.98,188.25c-4.13-0.24-8.26-0.47-12.38-0.71c-1.29-0.07-1.34,1.93-0.06,2c4.13,0.24,8.26,0.47,12.38,0.71
		C104.2,190.32,104.26,188.32,102.98,188.25z"/>
	<path class="st2" d="M212.33,235.89c0.13-24.98-1.33-49.96-4.36-74.76c-0.38-3.1-0.62-6.3-1.34-9.35c-0.57-2.39-1.6-4.76-3.64-6.25
		c-2.28-1.68-5.25-1.77-7.97-1.88c-3.6-0.14-7.2-0.29-10.8-0.43c-1.29-0.05-1.35,1.95-0.06,2c2.86,0.11,5.73,0.23,8.59,0.34
		c2.47,0.1,5.17-0.06,7.53,0.79c4.64,1.66,4.79,7.76,5.31,11.86c1.44,11.24,2.55,22.53,3.34,33.84c1.56,22.55,1.82,45.19,0.78,67.77
		c-0.29,6.36-0.69,12.71-1.19,19.06c-0.12,1.55-0.25,3.09-0.38,4.64c-0.06,0.73-0.13,1.46-0.2,2.19c-0.06,0.71,0.01,1.85-0.55,2.4
		c-0.47,0.47-1.4,0.63-2.01,0.83c-0.75,0.25-1.49,0.5-2.24,0.74c-1.33,0.44-2.65,0.88-3.98,1.32c-0.47-0.52-0.75-1.12-0.79-1.89
		c-0.06-1.28-2.06-1.35-2-0.06c0.05,1.07,0.33,2.05,0.98,2.92c0.92,1.23,1.52,1.23,2.91,0.76c1.42-0.47,2.83-0.94,4.25-1.42
		c1.23-0.41,2.67-0.7,3.77-1.4c0.87-0.55,1.3-1.4,1.46-2.39c0.26-1.54,0.31-3.14,0.45-4.69c0.26-3.09,0.51-6.18,0.72-9.27
		C211.79,261.02,212.26,248.46,212.33,235.89z"/>
	<path class="st2" d="M210.07,237.21c-4.13,0.36-8.23,0.99-12.27,1.94c-1.25,0.29-0.78,2.24,0.48,1.94
		c3.86-0.9,7.78-1.54,11.73-1.88c0.54-0.05,1.01-0.39,1.03-0.97C211.05,237.74,210.61,237.16,210.07,237.21z"/>
	<g>
		<path class="st7" d="M141.61,177.67c-2.75-3.78-6.81-6.03-11.29-7.15c-4.97-1.23-10.21-0.7-14.91,1.79
			c-2.72,1.45-5.17,3.16-7.23,5.25c-1.13,1.15-3.17,4.14-3.17,4.31c-4.77,6.96-4.47,16.4,1.22,22.91c5.77,6.6,16,8.67,24.21,6.19
			c8.71-2.63,14.92-10.59,15.25-19.72C145.88,186.46,144.44,181.56,141.61,177.67z M132.84,207.93c-6.97,3.35-15.84,2.58-22.17-1.84
			c-7.98-5.57-9.33-17.1-3-24.44c0.23-0.27,1.95-2.65,2.88-3.41c1.32-1.08,2.68-2.12,4.27-3.02c3.15-1.79,7.74-3.51,12.01-2.94
			c4.03,0.54,7.61,1.2,10.75,3.91c3.31,2.85,5.29,7.1,5.93,11.38C144.74,195.85,140.4,204.29,132.84,207.93z"/>
		<path class="st14" d="M132.84,207.93c-6.97,3.35-15.84,2.58-22.17-1.84c-7.98-5.57-9.33-17.1-3-24.44
			c0.23-0.27,1.95-2.65,2.88-3.41c1.32-1.08,2.68-2.12,4.27-3.02c3.15-1.79,7.74-3.51,12.01-2.94c4.03,0.54,7.61,1.2,10.75,3.91
			c3.31,2.85,5.29,7.1,5.93,11.38C144.74,195.85,140.4,204.29,132.84,207.93z"/>
		<g>
			<path class="st2" d="M133.57,183.53c-1.19-0.79-2.8-0.93-4.17-0.58c-3.1,0.78-4.81,3.65-5.06,6.65c-3.2,0.14-6.43-1.47-8.16-4.18
				c-0.62-0.97-1.79-0.88-2.46-0.3c-0.57,0.44-0.89,1.35-0.45,1.98c0.55,0.79,1.1,1.57,1.65,2.36c-0.19,0.02-0.39,0.03-0.58,0.05
				c-1.01,0.1-2.01,0.56-2.16,1.69c-0.16,1.16,0.83,1.87,1.59,2.56c0.16,0.15,0.33,0.3,0.49,0.44c-1.13,0.45-1.07,2.02-0.17,2.71
				c1.13,0.87,2.38,1.58,3.7,2.1c-0.76,0.31-1.56,0.53-2.29,0.74c-1.64,0.47-1.47,3.01,0.32,3.05c5.91,0.13,12.23-0.77,15.65-6.18
				c1.63-2.57,2.76-5.82,3.26-8.81C135.01,186.22,135.06,184.52,133.57,183.53z"/>
			<g>
				<path class="st7" d="M122.96,189.25c-1.83-0.46-3.45-1.42-4.88-2.64c-0.71-0.61-1.39-1.26-2.03-1.94
					c-0.57-0.6-1.12-1.43-1.89-1.79c-0.67-0.32-1.45-0.13-1.8,0.55c-0.38,0.72-0.2,1.75-0.07,2.51c0.19,1.14,0.63,2.22,1.25,3.19
					c-0.44,0.01-0.86,0.08-1.21,0.26c-0.81,0.42-0.96,1.38-0.71,2.19c0.38,1.21,1.2,2.3,2.17,3.16c-0.23,0.12-0.42,0.29-0.51,0.55
					c-0.27,0.77,0.49,1.48,0.98,1.96c1.18,1.15,2.67,1.94,4.28,2.28c0.97,0.2,1.43-1.28,0.45-1.48c-0.85-0.18-1.65-0.46-2.4-0.92
					c-0.34-0.21-0.66-0.44-0.96-0.7c-0.08-0.07-0.3-0.25-0.5-0.43c0.21-0.04,0.42-0.08,0.63-0.13c0.66-0.13,0.78-1.07,0.23-1.41
					c-1-0.61-1.85-1.41-2.45-2.42c-0.18-0.3-0.73-1.08-0.36-1.31c0.2-0.12,0.72-0.03,0.94-0.02c0.37,0.01,0.74,0.06,1.11,0.11
					c0.68,0.1,1.02-0.86,0.58-1.3c-1.01-1.03-1.7-2.3-1.99-3.73c-0.07-0.35-0.11-0.71-0.12-1.07c0-0.06,0.02-0.18,0.02-0.29
					c0.45,0.58,1.02,1.12,1.54,1.64c2.03,2.07,4.38,3.92,7.24,4.65C123.47,190.97,123.93,189.49,122.96,189.25z"/>
				<path class="st7" d="M118.68,199.79c-0.06,0-0.13-0.01-0.19-0.02c-1.66-0.34-3.19-1.15-4.4-2.34l-0.05-0.05
					c-0.52-0.51-1.31-1.28-1-2.17c0.07-0.2,0.18-0.36,0.35-0.5c-0.98-0.93-1.67-1.98-2.01-3.06c-0.28-0.88-0.12-1.99,0.83-2.48
					c0.25-0.13,0.55-0.22,0.9-0.26c-0.54-0.93-0.9-1.91-1.07-2.93c-0.14-0.81-0.32-1.88,0.1-2.67c0.41-0.77,1.3-1.05,2.13-0.66
					c0.61,0.29,1.07,0.83,1.52,1.35c0.15,0.18,0.3,0.35,0.45,0.5c0.74,0.77,1.38,1.39,2.01,1.92c1.54,1.3,3.14,2.17,4.78,2.59l0,0
					c0.35,0.09,0.6,0.32,0.69,0.64c0.1,0.36-0.01,0.77-0.28,1.05c-0.25,0.26-0.61,0.36-0.98,0.27c-2.48-0.63-4.82-2.13-7.36-4.72
					l-0.35-0.36c-0.25-0.25-0.51-0.51-0.76-0.78c0.02,0.21,0.05,0.42,0.09,0.63c0.27,1.35,0.93,2.59,1.92,3.6
					c0.29,0.3,0.35,0.8,0.14,1.21c-0.19,0.37-0.55,0.57-0.94,0.51c-0.42-0.06-0.76-0.1-1.08-0.11c-0.05,0-0.12-0.01-0.2-0.02
					c-0.14-0.01-0.51-0.05-0.6,0c-0.03,0.05-0.01,0.23,0.37,0.85l0.07,0.12c0.56,0.93,1.35,1.72,2.36,2.33
					c0.35,0.21,0.53,0.63,0.45,1.06c-0.07,0.42-0.37,0.73-0.76,0.8l-0.13,0.03c0,0,0,0,0.01,0.01l0.11,0.1
					c0.27,0.24,0.58,0.46,0.93,0.68c0.68,0.42,1.44,0.71,2.32,0.89c0.35,0.07,0.59,0.28,0.69,0.58c0.11,0.34,0.02,0.76-0.24,1.05
					C119.28,199.67,118.99,199.8,118.68,199.79z M113.54,182.97c-0.4-0.01-0.76,0.19-0.96,0.57c-0.34,0.64-0.17,1.62-0.05,2.33
					c0.19,1.11,0.6,2.15,1.22,3.12l0.24,0.37l-0.44,0.01c-0.46,0.01-0.82,0.09-1.1,0.23c-0.7,0.36-0.8,1.21-0.59,1.89
					c0.34,1.07,1.06,2.13,2.1,3.05l0.27,0.24l-0.32,0.17c-0.21,0.11-0.33,0.24-0.39,0.41c-0.21,0.6,0.42,1.21,0.88,1.65l0.05,0.05
					c1.15,1.12,2.59,1.89,4.16,2.21c0.27,0.05,0.43-0.06,0.53-0.17c0.14-0.16,0.2-0.39,0.14-0.56c-0.04-0.13-0.15-0.22-0.32-0.25
					c-0.94-0.19-1.75-0.5-2.48-0.95c-0.37-0.23-0.71-0.47-1-0.73l-0.1-0.09c-0.11-0.09-0.26-0.22-0.41-0.35l-0.36-0.33l1.11-0.22
					c0.28-0.06,0.35-0.32,0.37-0.4c0.03-0.17-0.01-0.42-0.22-0.55c-1.08-0.66-1.94-1.5-2.53-2.5l-0.07-0.11
					c-0.27-0.43-0.52-0.88-0.43-1.22c0.03-0.13,0.11-0.24,0.23-0.31c0.21-0.12,0.53-0.11,0.9-0.07c0.07,0.01,0.13,0.01,0.18,0.01
					c0.34,0.01,0.7,0.05,1.13,0.12c0.23,0.04,0.36-0.14,0.42-0.24c0.1-0.19,0.11-0.47-0.05-0.64c-1.06-1.08-1.77-2.41-2.05-3.85
					c-0.08-0.37-0.12-0.75-0.13-1.11c0-0.05,0.01-0.12,0.01-0.2l0.06-0.76l0.39,0.51c0.34,0.44,0.76,0.86,1.16,1.26l0.36,0.36
					c2.47,2.52,4.73,3.98,7.12,4.58c0.24,0.06,0.41-0.04,0.5-0.13c0.15-0.15,0.21-0.38,0.16-0.57c-0.04-0.15-0.15-0.25-0.33-0.29
					l0,0c-1.71-0.43-3.39-1.34-4.98-2.69c-0.65-0.55-1.3-1.17-2.05-1.96c-0.16-0.16-0.31-0.34-0.46-0.52
					c-0.41-0.48-0.83-0.97-1.35-1.22C113.88,183.01,113.71,182.97,113.54,182.97z"/>
			</g>
			<g>
				<path class="st7" d="M134.07,187.72c-0.99,2.27-0.95,4.85-2,7.1c-0.97,2.07-2.73,4.07-4.62,5.36c-2.09,1.43-4.55,1.65-7.01,1.71
					c-1.66,0.04-3.79,0.12-5.56-0.42c1.58-0.34,3.09-0.96,4.47-1.85c0.83-0.54,0.1-1.9-0.74-1.36c-1.86,1.21-3.95,1.9-6.17,1.98
					c-0.6,0.02-1.14,0.83-0.58,1.3c2.06,1.77,5.01,1.89,7.6,1.9c2.79,0.01,5.77-0.12,8.23-1.58c2.13-1.27,4-3.29,5.27-5.42
					c1.52-2.56,1.43-5.58,2.6-8.26C135.94,187.26,134.46,186.82,134.07,187.72z"/>
				<path class="st7" d="M118.27,203.68c-2.4-0.07-4.79-0.4-6.59-1.94c-0.29-0.25-0.39-0.61-0.26-0.97c0.15-0.43,0.57-0.75,1-0.77
					c2.15-0.08,4.18-0.73,6.04-1.94c0.46-0.3,1-0.18,1.31,0.29c0.29,0.44,0.28,1.12-0.29,1.49c-1.1,0.71-2.29,1.26-3.56,1.63
					c1.41,0.25,2.96,0.22,4.25,0.19l0.26-0.01c2.22-0.05,4.76-0.22,6.88-1.67c1.9-1.3,3.6-3.27,4.53-5.26
					c0.53-1.13,0.78-2.38,1.03-3.59c0.24-1.17,0.48-2.38,0.97-3.5l0,0c0.27-0.62,0.96-0.77,1.46-0.55c0.49,0.22,0.69,0.71,0.48,1.2
					c-0.5,1.15-0.77,2.4-1.03,3.6c-0.34,1.58-0.7,3.22-1.58,4.69c-1.36,2.28-3.31,4.29-5.36,5.51c-2.53,1.51-5.64,1.63-8.36,1.62
					C119.06,203.69,118.67,203.69,118.27,203.68z M119,198.39c-0.08,0-0.17,0.02-0.27,0.08c-1.94,1.26-4.06,1.94-6.3,2.02
					c-0.23,0.01-0.47,0.2-0.55,0.43c-0.06,0.17-0.02,0.31,0.12,0.43c1.96,1.68,4.75,1.83,7.44,1.84c2.65,0.01,5.67-0.1,8.1-1.55
					c1.98-1.18,3.87-3.12,5.18-5.33c0.84-1.4,1.17-2.93,1.52-4.54c0.27-1.23,0.54-2.5,1.06-3.7c0.15-0.34-0.1-0.49-0.22-0.54
					c-0.22-0.1-0.63-0.1-0.8,0.29c-0.47,1.08-0.71,2.26-0.94,3.4c-0.25,1.24-0.51,2.52-1.06,3.7c-0.97,2.07-2.73,4.11-4.7,5.46
					c-2.23,1.52-4.86,1.7-7.15,1.75l-0.26,0.01c-1.63,0.04-3.66,0.09-5.38-0.44l-0.92-0.28l0.94-0.2c1.58-0.34,3.06-0.95,4.39-1.82
					c0.34-0.22,0.27-0.6,0.14-0.8C119.31,198.55,119.19,198.39,119,198.39z"/>
			</g>
			<g>
				<path class="st7" d="M137.45,184.42c-0.08,0.01-0.16,0.02-0.24,0.03c0.25-0.35,0.48-0.71,0.7-1.08
					c0.29-0.49-0.03-1.18-0.63-1.18c-1.2-0.01-2.19,0.55-3.09,1.25c-0.66-0.72-1.69-1.08-2.66-1.33c-1.52-0.4-3.14-0.45-4.55,0.3
					c-2.84,1.51-3.49,4.89-3.94,7.78c-0.15,0.98,1.39,1.02,1.54,0.04c0.34-2.18,0.75-4.74,2.64-6.16c0.91-0.68,2.02-0.83,3.13-0.65
					c0.79,0.13,2.6,0.43,2.9,1.35c0.18,0.56,0.82,0.78,1.28,0.38c0.17-0.15,0.35-0.31,0.54-0.46c-0.21,0.24-0.42,0.47-0.65,0.69
					c-0.51,0.51-0.08,1.34,0.54,1.33c-0.23,0.19-0.47,0.36-0.73,0.53c-0.83,0.54-0.09,1.9,0.74,1.36c1.23-0.8,2.26-1.79,3.1-2.99
					C138.4,185.15,138.03,184.38,137.45,184.42z"/>
				<path class="st7" d="M123.68,191.19c-0.05,0-0.1-0.01-0.14-0.01c-0.53-0.08-0.84-0.51-0.75-1.03c0.5-3.19,1.22-6.44,4.07-7.96
					c1.31-0.7,2.9-0.8,4.74-0.33c0.9,0.24,1.9,0.57,2.62,1.24c0.77-0.58,1.79-1.18,3.07-1.17c0.01,0,0.01,0,0.02,0
					c0.34,0.01,0.65,0.2,0.83,0.5c0.19,0.33,0.19,0.73,0,1.06c-0.13,0.22-0.27,0.45-0.43,0.7c0.25,0.06,0.47,0.23,0.61,0.48
					c0.2,0.35,0.19,0.78-0.01,1.08c-0.85,1.21-1.92,2.24-3.17,3.06c-0.46,0.3-1,0.19-1.3-0.28c-0.29-0.44-0.29-1.12,0.29-1.49
					c0.11-0.07,0.22-0.15,0.33-0.23c-0.17-0.11-0.31-0.28-0.4-0.49c-0.1-0.24-0.11-0.49-0.03-0.72c-0.09-0.01-0.17-0.01-0.26-0.04
					c-0.34-0.09-0.61-0.36-0.73-0.72c-0.26-0.79-2.1-1.08-2.7-1.18c-1.17-0.19-2.15,0.02-2.94,0.6c-1.83,1.37-2.23,3.93-2.55,6
					C124.73,190.89,124.19,191.2,123.68,191.19z M129.65,182.07c-0.96-0.03-1.82,0.16-2.57,0.56c-2.65,1.41-3.33,4.53-3.81,7.6
					c-0.05,0.35,0.19,0.44,0.34,0.46c0.26,0.04,0.65-0.09,0.71-0.49c0.33-2.15,0.75-4.83,2.74-6.32c0.88-0.66,2.03-0.9,3.32-0.7
					c1.28,0.2,2.79,0.56,3.1,1.52c0.06,0.19,0.21,0.34,0.39,0.39c0.17,0.05,0.34,0,0.49-0.12c0.18-0.15,0.36-0.31,0.55-0.46
					l0.35,0.36c-0.21,0.24-0.43,0.48-0.66,0.7c-0.22,0.22-0.15,0.47-0.11,0.57c0.07,0.17,0.24,0.34,0.47,0.34l0.73-0.01l-0.57,0.45
					c-0.24,0.19-0.49,0.37-0.75,0.54c-0.34,0.22-0.27,0.6-0.14,0.8c0.06,0.09,0.27,0.36,0.61,0.14c1.2-0.78,2.22-1.77,3.04-2.93
					c0.11-0.16,0.08-0.39-0.01-0.54c-0.04-0.06-0.18-0.26-0.4-0.25l0,0c-0.04,0-0.08,0.01-0.12,0.01l-0.65,0.07l0.31-0.45
					c0.28-0.4,0.5-0.74,0.68-1.06c0.1-0.17,0.1-0.38,0-0.56c-0.05-0.09-0.17-0.25-0.42-0.25c-1.22-0.01-2.21,0.63-2.94,1.2
					l-0.18,0.14l-0.16-0.17c-0.63-0.69-1.64-1.03-2.53-1.26C130.83,182.18,130.22,182.09,129.65,182.07z"/>
			</g>
		</g>
	</g>
	<g>
		<path class="st7" d="M196.91,179.28c-2.75-3.78-6.81-6.03-11.29-7.15c-4.97-1.23-10.21-0.7-14.91,1.79
			c-2.72,1.45-5.17,3.16-7.23,5.25c-1.13,1.15-3.17,4.14-3.17,4.31c-4.77,6.96-4.47,16.4,1.22,22.91c5.77,6.6,16,8.67,24.21,6.19
			c8.71-2.63,14.92-10.59,15.25-19.72C201.18,188.07,199.74,183.17,196.91,179.28z M188.14,209.54c-6.97,3.35-15.84,2.58-22.17-1.84
			c-7.98-5.57-9.33-17.1-3-24.44c0.23-0.27,1.95-2.65,2.88-3.41c1.32-1.08,2.68-2.12,4.27-3.02c3.15-1.79,7.74-3.51,12.01-2.94
			c4.03,0.54,7.61,1.2,10.75,3.91c3.31,2.85,5.29,7.1,5.93,11.38C200.04,197.46,195.7,205.9,188.14,209.54z"/>
	</g>
	<g>
		<path class="st7" d="M140.18,226.97c-2.75-3.78-6.81-6.03-11.29-7.15c-4.97-1.23-10.21-0.7-14.91,1.79
			c-2.72,1.45-5.17,3.16-7.23,5.25c-1.13,1.15-3.17,4.14-3.17,4.31c-4.77,6.96-4.47,16.4,1.22,22.91c5.77,6.6,16,8.67,24.21,6.19
			c8.71-2.63,14.92-10.59,15.25-19.72C144.44,235.76,143.01,230.86,140.18,226.97z M131.4,257.23c-6.97,3.35-15.84,2.58-22.17-1.84
			c-7.98-5.57-9.33-17.1-3-24.44c0.23-0.27,1.95-2.65,2.88-3.41c1.32-1.08,2.68-2.12,4.27-3.02c3.15-1.79,7.74-3.51,12.01-2.94
			c4.03,0.54,7.61,1.2,10.75,3.91c3.31,2.85,5.29,7.1,5.93,11.38C143.31,245.15,138.97,253.59,131.4,257.23z"/>
	</g>
	<g>
		<path class="st7" d="M195.48,228.58c-2.75-3.78-6.81-6.03-11.29-7.15c-4.97-1.23-10.21-0.7-14.91,1.79
			c-2.72,1.45-5.17,3.16-7.23,5.25c-1.13,1.15-3.17,4.14-3.17,4.31c-4.77,6.96-4.47,16.4,1.22,22.91c5.77,6.6,16,8.67,24.21,6.19
			c8.71-2.63,14.92-10.59,15.25-19.72C199.74,237.37,198.31,232.47,195.48,228.58z M186.7,258.84c-6.97,3.35-15.84,2.58-22.17-1.84
			c-7.98-5.57-9.33-17.1-3-24.44c0.23-0.27,1.95-2.65,2.88-3.41c1.32-1.08,2.68-2.12,4.27-3.02c3.15-1.79,7.74-3.51,12.01-2.94
			c4.03,0.54,7.61,1.2,10.75,3.91c3.31,2.85,5.29,7.1,5.93,11.38C198.61,246.76,194.27,255.2,186.7,258.84z"/>
	</g>
	<g>
		<path class="st7" d="M194.6,277.9c-2.75-3.78-6.81-6.03-11.29-7.15c-4.97-1.23-10.21-0.7-14.91,1.79
			c-2.72,1.45-5.17,3.16-7.23,5.25c-1.13,1.15-3.17,4.14-3.17,4.31c-4.77,6.96-4.47,16.4,1.22,22.91c5.77,6.6,16,8.67,24.21,6.19
			c8.71-2.63,14.92-10.59,15.25-19.72C198.87,286.69,197.44,281.79,194.6,277.9z M185.83,308.15c-6.97,3.35-15.84,2.58-22.17-1.84
			c-7.98-5.57-9.33-17.1-3-24.44c0.23-0.27,1.95-2.65,2.88-3.41c1.32-1.08,2.68-2.12,4.27-3.02c3.15-1.79,7.74-3.51,12.01-2.94
			c4.03,0.54,7.61,1.2,10.75,3.91c3.31,2.85,5.29,7.1,5.93,11.38C197.73,296.08,193.39,304.51,185.83,308.15z"/>
		<path class="st14" d="M185.83,308.15c-6.97,3.35-15.84,2.58-22.17-1.84c-7.98-5.57-9.33-17.1-3-24.44
			c0.23-0.27,1.95-2.65,2.88-3.41c1.32-1.08,2.68-2.12,4.27-3.02c3.15-1.79,7.74-3.51,12.01-2.94c4.03,0.54,7.61,1.2,10.75,3.91
			c3.31,2.85,5.29,7.1,5.93,11.38C197.73,296.08,193.39,304.51,185.83,308.15z"/>
	</g>
	<g>
		<circle class="st2" cx="151.84" cy="93.5" r="45.21"/>
		<g>
			<g>
				<path class="st4" d="M174.18,118.76c-3.25-2.62-7.04-3.82-11.14-4.33c-4.56-0.56-9.14-0.98-13.71-1.46
					c-0.6-0.06-1.07,0.11-1.43,0.41c-0.65-0.13-1.36,0.04-1.91,0.7c-1.02,1.24-1.29,2.75-1.43,4.3c-0.15,1.64-0.34,2.6-1.7,3.61
					c-1.09,0.81-2.58,1.43-3.18,2.72c-2.36,0.3-6.34,0.62-6.42-1.14c-0.03-0.75-0.83-1.25-1.5-0.86c-1.76,1.01-6.08,4.15-3.69,6.42
					c1.18,1.12,3.21,1.69,4.67,2.33c1.72,0.75,3.46,1.47,5.23,2.08c5.09,1.75,10.59,2.61,15.82,1.58c0.65,0.28,1.29,0.58,1.95,0.84
					c6.99-1.85,13.91-3.99,20.26-7.38c1.29-1.11,2.55-2.26,3.77-3.47C178.23,122.72,176.39,120.54,174.18,118.76z"/>
				<path class="st15" d="M175.72,86.8c-0.24-2.23-1.17-4.13-3.56-4.59c-0.92-0.18-1.84-0.09-2.75,0.06
					c-0.53,0.09-1.64,0.44-2.13,0.12c-0.23-0.15-0.49-1.24-0.76-1.69c-0.57-0.97-1.6-1.63-2.73-1.65c-2.41-0.05-4.31,2.13-5.98,3.58
					c-0.75,0.66-3.77,2.91-4.48,0.99c-0.89-2.4-4.71-1.21-3.81,1.22c0.07,0.19,0.15,0.36,0.24,0.54c-0.74,0.07-1.43,0.53-1.64,1.48
					c-1.73,7.76,1.58,16.06,7.97,20.65c-0.44,0.95-0.69,1.96-0.55,3.07c0.22,1.72,1.54,3.24,3.24,3.64c3.62,0.85,4.62-2.6,4.76-5.65
					c2.98,0.4,6.12-0.25,8.42-2.24c3.38-2.92,3.71-7.94,3.94-12.09C176.05,91.76,175.99,89.26,175.72,86.8z"/>
				<path class="st16" d="M157.08,98.05c-0.36-1.95-1.95-3.65-3.91-4.05c-1.17-0.24-2.46-0.06-3.46,0.63
					c-0.94,0.65-1.75,1.71-1.88,2.87c-0.06,0.55-0.05,1.04,0.26,1.53c0.2,0.32,0.55,0.61,0.93,0.77c0.2,0.77,0.58,1.49,1.12,2.07
					c0.78,0.83,2.02,1.17,3.13,1.04c1.08-0.12,2.34-0.38,3.13-1.18C157.36,100.75,157.31,99.31,157.08,98.05z"/>
				<path class="st16" d="M176.47,97.13c-0.08-0.3-0.22-0.58-0.41-0.82c0-0.71-0.34-1.41-1.03-1.76c-1.14-0.57-2.48-0.48-3.55,0.19
					c-0.78,0.49-1.39,1.28-1.76,2.11c-0.75,1.67-0.9,3.56-0.35,5.31c0.14,0.45,0.34,0.89,0.56,1.3c0.59,1.08,1.92,1.22,2.93,0.74
					c0.8-0.37,1.38-1.13,1.91-1.82c0.51-0.66,0.99-1.35,1.3-2.13C176.45,99.28,176.75,98.19,176.47,97.13z"/>
				<path class="st2" d="M162.76,99.13c-0.1-0.27-0.29-0.53-0.56-0.67c-0.37-0.19-0.8-0.18-1.17,0c-0.01-0.01-0.01-0.03-0.02-0.04
					c-0.07-0.11-0.16-0.2-0.27-0.27c-0.1-0.08-0.22-0.14-0.35-0.17c-0.24-0.06-0.56-0.01-0.77,0.13c-0.21,0.15-0.39,0.36-0.44,0.62
					L159.17,99c0.01,0.18,0.06,0.35,0.16,0.5c0.15,0.31,0.3,0.63,0.44,0.94c0.09,0.2,0.21,0.38,0.38,0.52
					c0.27,0.22,0.62,0.37,0.98,0.34c0.51-0.05,0.96-0.34,1.26-0.74c0.08-0.11,0.17-0.22,0.24-0.34c0.02-0.03,0.03-0.06,0.04-0.09
					c0.05-0.11,0.1-0.22,0.12-0.34C162.84,99.57,162.84,99.35,162.76,99.13z"/>
				<path class="st17" d="M175.8,82.51c0,0.16,0.02,0.32,0.05,0.48c0.11,0.49,0.22,0.99,0.33,1.49c0.06-0.06,0.12-0.12,0.19-0.17
					c0.96-0.66,2.01-1.13,3.11-1.5c0.13-0.04,0.26-0.08,0.39-0.12c-0.07-0.31-0.14-0.62-0.21-0.92c-0.06-0.26-0.16-0.47-0.28-0.65
					c1.08-0.67,1.98-1.57,2.45-2.78c0.88-2.28-0.05-5.25-2.61-5.89c-1.25-0.32-2.55,0.27-3.75-0.09c-1.11-0.33-2.03-1.28-2.89-2.01
					c-2.13-1.79-4.55-3.07-7.33-3.52c-3.01-0.48-6.09-0.14-8.94,0.95c-1.43,0.55-2.82,1.26-4.11,2.09
					c-0.69,0.45-1.35,0.93-1.99,1.45c-0.24,0.19-0.47,0.39-0.71,0.59c-0.11,0.1-0.23,0.2-0.34,0.29c-1.22-0.81-2.93-0.68-4.19,0.16
					c-1.18,0.79-1.71,2.05-1.96,3.39c-0.67-0.4-1.43-0.68-2.11-0.83c-2.12-0.46-4.23,0.34-5.26,2.3c-0.98,1.88-0.85,4.13-0.78,6.18
					l0.23,6.68c-2.46-2.17-5.2-4.17-8.47-4.67c-1.87-0.29-3.89-0.04-5.36,1.25c-1.34,1.19-1.94,2.97-2.1,4.71
					c-0.22,2.33,0.26,4.66,1.02,6.86c0.37,1.07,0.86,2.09,1.26,3.14c0.17,0.46,0.39,0.9,0.03,1.28c-0.31,0.33-1,0.47-1.41,0.69
					c-3.34,1.77-4.48,5.68-1.84,8.6c0.56,0.62,1.22,1.13,1.91,1.59c0.79,0.53,1.8,0.88,2.48,1.54c1.37,1.33-0.52,3.52,1.08,4.96
					c1.52,1.38,4.09,0.67,5.87,0.33c1.09-0.21,2.23-0.43,3.34-0.2c1.18,0.24,1.82,1.03,2.46,1.98c1,1.49,2.1,2.82,4.01,3
					c1.73,0.17,3.38-0.72,4.19-2.25c0.98-1.85,0.25-3.66-0.46-5.46c-0.5-1.28-1.02-2.65-1.18-4.04c0.82-0.24,1.63-0.83,2.23-1.41
					c0.43-0.41,0.82-0.85,1.25-1.26c0.01-0.01,0.03-0.03,0.05-0.04l0,0c0.09,0.04,0.18,0.07,0.29,0.11c2.13,0.77,4.76,0.81,6.86-0.1
					c1.54-0.67,2.51-2.09,2.11-3.81c-0.31-1.33-1.35-2.24-2.54-2.8c-1.65-0.77-3.28-1.56-4.87-2.43c0.26-1.17,0.46-2.36,0.6-3.52
					c0.55-4.43,0.27-8.9-0.81-13.22c1.28-0.56,2.36-1.51,3.32-2.54c0.6-0.65,1.2-1.43,1.87-2.11c0.9,1.25,2.33,2.13,3.92,2.21
					c1.42,0.07,2.67-0.57,3.87-1.27c1.37-0.8,2.73-1.64,4.1-2.44c0.71-0.41,2.14-1.34,2.97-0.7c0.29,0.22,0.44,0.82,0.58,1.13
					c0.31,0.7,0.64,1.35,1.17,1.91C170.7,83.04,173.41,83.05,175.8,82.51z"/>
				<path class="st17" d="M153.01,55.75c-0.75-0.4-1.85-0.27-2.41,0.41c-0.75,0.92-1.33,1.92-1.77,2.97
					c-0.19-0.37-0.4-0.74-0.64-1.06c-1-1.3-2.61-1.86-4.1-0.98c-1.11,0.66-1.83,1.95-2.13,3.16c-0.01,0.04-0.01,0.09-0.02,0.13
					c-0.47-0.3-0.98-0.53-1.57-0.59c-1.51-0.17-2.82,0.8-3.23,2.24c-0.31,1.11-0.06,2.3,0.33,3.35c0.8,2.18,2.05,4.13,3.66,5.81
					c1.83,1.9,4.1,3.26,6.58,4.11c0.6,0.21,1.24-0.01,1.71-0.42c0.43,0.37,1.01,0.55,1.61,0.43c0.92-0.18,1.75-1.03,1.65-2.03
					c-0.05-0.51-0.12-1.02-0.18-1.52c0.14-0.2,0.24-0.43,0.26-0.68c0.41-4.37,0.82-8.74,1.24-13.11
					C154.11,57.06,153.87,56.2,153.01,55.75z M147.2,65.99c-0.22-0.3-0.44-0.59-0.67-0.88c-0.08-0.1-0.17-0.2-0.26-0.3
					c-0.21-0.67-0.38-1.35-0.45-1.92c-0.03-0.26-0.04-0.52-0.05-0.78c0,0.01,0.01,0.02,0.01,0.03c0.51,1.2,0.96,2.42,1.35,3.66
					C147.17,65.85,147.18,65.92,147.2,65.99z"/>
				<path class="st17" d="M183.82,114.88c-0.87-0.67-2.99-1.79-2.55-3.07c0.23-0.68,1.01-1.36,1.47-1.88
					c0.54-0.6,1.1-1.18,1.61-1.81c2.53-3.11,3.1-7.18,2.09-11c-1.03-3.93-3.46-7.22-5.89-10.4c-0.91-1.19-2.34-0.85-3.08,0.05
					c-0.7,0.17-1.27,0.7-1.32,1.65c-0.35,6.69-0.68,14.38-5.7,19.45c-0.93,0.94-2.02,1.74-3.21,2.31c-1.75,0.84-3.12,2.15-2.41,4.27
					c0.05,0.16,0.12,0.31,0.19,0.46c2.61,0.88,5.17,1.68,7.37,3.52c0.92,0.77,1.7,1.65,2.39,2.58c0.57,0.28,1.12,0.6,1.63,0.98
					c0.44,0.33,0.84,0.69,1.18,1.14c0.49,0.66,0.69,1.47,1.18,2.13c0.12,0.16,0.25,0.3,0.38,0.43c2.6-2.51,5.05-5.21,7.36-8.02
					C185.8,116.6,184.81,115.64,183.82,114.88z"/>
				<path class="st7" d="M177.75,86.42c0.31-1.25-1.68-1.46-1.99-0.23c-1.77,7.23,1.36,20.01-8.74,22.07
					c-7.64,1.56-15.94-3.59-18.84-10.6c-0.13-0.32-0.36-0.48-0.61-0.55c-0.06,0.67-0.18,1.32-0.42,2.02
					c-0.07,0.2-0.14,0.39-0.22,0.58c2.84,5.6,8.53,9.56,14.72,10.57c3.24,0.53,6.73,0.2,9.56-1.56c2.97-1.85,4.49-5.08,5.18-8.4
					C177.34,95.74,176.63,90.99,177.75,86.42z"/>
				<path class="st7" d="M147.95,87.13c-0.12-1.28-2.1-0.97-1.98,0.31c0.41,4.26,0.82,8.58,0.15,12.84
					c-0.29,1.86-0.71,3.99-1.94,5.49c-1.17,1.44-3.04,2.11-4.33,3.43c-2.22,2.27-1.68,4.8,0.13,7.09c0.73,0.93,1.86,2,1.8,3.28
					c-0.08,1.73-2.15,2.72-3.49,3.37c-1.15,0.56-0.35,2.4,0.81,1.83c2.69-1.31,5.75-3.62,4.32-7c-0.53-1.26-1.54-2.22-2.32-3.31
					c-1.19-1.66-0.8-3.14,0.81-4.42c1.53-1.21,3.27-2.01,4.34-3.72c1-1.6,1.46-3.5,1.79-5.34
					C148.84,96.41,148.39,91.72,147.95,87.13z"/>
				<path class="st7" d="M150.49,80.85c-0.51-0.18-1.1,0.03-1.3,0.55c-0.11,0.28-0.23,0.55-0.37,0.82c-0.03,0.06-0.07,0.13-0.1,0.19
					c0.1-0.2-0.03,0.05-0.04,0.07c-0.07,0.12-0.15,0.24-0.23,0.36c-0.16,0.25-0.34,0.49-0.53,0.72c-0.09,0.11-0.18,0.22-0.28,0.32
					c-0.05,0.05-0.1,0.1-0.14,0.16c-0.02,0.02-0.02,0.02-0.03,0.03s-0.01,0.01-0.03,0.03c-0.42,0.41-0.87,0.78-1.35,1.1
					c-0.06,0.04-0.12,0.08-0.18,0.12c-0.02,0.01-0.02,0.02-0.03,0.02c-0.01,0.01-0.02,0.01-0.04,0.02c-0.12,0.07-0.25,0.14-0.37,0.2
					c-0.28,0.14-0.56,0.27-0.86,0.38c-0.49,0.19-0.74,0.85-0.51,1.32c0.25,0.5,0.8,0.72,1.32,0.51c2.55-0.99,4.63-3.09,5.63-5.63
					C151.24,81.66,151.01,81.02,150.49,80.85z"/>
				<path class="st7" d="M175.93,81.97c-2.18,0.82-4.4-0.43-6.29-1.44c-1.82-0.98-3.71-1.95-5.83-1.88c-1.94,0.06-3.65,0.99-5.25,2
					c-0.88,0.55-1.8,1.26-2.85,1.44c-0.75,0.13-1.84-0.06-2.04-0.94c-0.29-1.24-2.27-0.95-1.98,0.31c0.42,1.8,2.15,2.84,3.96,2.66
					c2.45-0.25,4.27-2.3,6.52-3.12c2.8-1.02,5.22,0.64,7.62,1.88c2.17,1.12,4.56,1.82,6.93,0.93
					C177.94,83.35,177.13,81.52,175.93,81.97z"/>
				<path class="st7" d="M182.85,79.16c-0.47-0.16-1.15,0.02-1.3,0.55c-0.08,0.3-0.2,0.57-0.33,0.85c-0.01,0.03-0.01,0.03-0.02,0.04
					c0,0,0,0-0.01,0.01c-0.04,0.06-0.08,0.13-0.12,0.19c-0.08,0.13-0.17,0.25-0.27,0.37c-0.04,0.05-0.08,0.09-0.12,0.14
					c0,0-0.08,0.09-0.11,0.12c-0.04,0.03-0.09,0.08-0.1,0.09c-0.06,0.05-0.11,0.1-0.17,0.15c-0.12,0.1-0.24,0.18-0.37,0.27
					c-0.02,0.01-0.02,0.01-0.02,0.02c-0.01,0.01-0.01,0.01-0.03,0.02c-0.07,0.04-0.13,0.07-0.2,0.11c-1.06,0.52-2.17,0.5-3.23,0
					c-0.47-0.22-1.13,0.06-1.3,0.55c-0.19,0.54,0.05,1.06,0.55,1.3c1.48,0.7,3.32,0.7,4.79-0.03c1.38-0.69,2.49-1.95,2.91-3.45
					C183.54,79.96,183.39,79.35,182.85,79.16z"/>
				<path class="st7" d="M179.38,72.13c-2.43,1.3-4.99,0.01-6.95-1.54c-2.05-1.63-3.85-3.62-6.29-4.69c-4.57-2-10.16,0.45-13,4.24
					c-0.77,1.03,0.83,2.23,1.6,1.2c1.46-1.96,3.56-3.3,5.93-3.88c2.99-0.73,5.39,0.37,7.66,2.26c3.24,2.7,7.29,6.69,11.85,4.25
					C181.32,73.36,180.52,71.52,179.38,72.13z"/>
				<path class="st7" d="M144.37,71.35c-2.08-0.28-3.98,0.46-5.74,1.51c-1.68,0.99-3.5,2.08-4.7,3.64c-1.25,1.62-1.4,3.6-1.24,5.57
					c0.08,1.05,0.52,2.48,0.25,3.5c-0.19,0.7-0.67,0.37-1.19,0.19c-0.71-0.25-1.41-0.51-2.11-0.76c-3.08-1.12-8.07-3.81-10.8-0.61
					c-2.67,3.13-0.9,7.68,0.33,10.99c0.29,0.79,1.25,2.54,0.71,3.29c-0.43,0.59-1.33,0.88-1.9,1.31c-0.55,0.42-1.32,1.16-1.21,1.93
					c0.12,0.87,0.96,1.23,1.73,1.14c0.82-0.09,0.98-0.94,0.65-1.5c0.69-0.62,1.77-0.96,2.34-1.69c0.95-1.21,0.46-2.63,0.01-3.94
					c-0.61-1.79-1.42-3.55-1.81-5.41c-0.34-1.65-0.47-4.2,1.15-5.26c1.39-0.91,3.38-0.1,4.78,0.4c2.05,0.74,4.09,1.61,6.18,2.23
					c4.34,1.27,2.89-4.54,2.83-6.87c-0.07-2.56,1.29-3.99,3.3-5.35c1.84-1.24,3.9-2.65,6.23-2.34
					C145.42,73.5,145.65,71.52,144.37,71.35z"/>
				<path class="st7" d="M152.19,70.66c-1.4-1.24-2.99-2.49-4.96-2.46c-0.95,0.01-1.89,0.3-2.59,0.97
					c-0.74,0.71-1.12,1.62-1.05,2.65c0.04,0.54,0.64,0.91,1.14,0.83c0.57-0.09,0.87-0.6,0.83-1.14c0.01,0.14,0-0.02,0.01-0.08
					c0-0.01,0.01-0.07,0.01-0.11c0.01-0.04,0.05-0.16,0.05-0.16c0.02-0.06,0.05-0.11,0.07-0.16c0.01-0.02,0.02-0.04,0.03-0.05
					c0.05-0.07,0.1-0.14,0.15-0.2c0.02-0.02,0.02-0.03,0.02-0.03s0,0,0.01-0.01c0.06-0.06,0.13-0.11,0.19-0.17
					c0.17-0.13,0.35-0.23,0.58-0.28c0.36-0.08,0.52-0.08,0.89-0.04c0.55,0.07,1.16,0.32,1.65,0.65c0.63,0.41,1.19,0.91,1.76,1.4
					c0.41,0.36,1.09,0.21,1.4-0.2C152.74,71.6,152.6,71.02,152.19,70.66z"/>
				<path class="st7" d="M145.56,62.2c-1.38-2.92-4.81-7.31-8.46-5.17c-1.65,0.96-2.41,2.8-2.36,4.66c0.05,1.96,0.99,3.75,2.08,5.33
					c1.2,1.74,2.72,3.26,4.44,4.49c1.05,0.75,2.25-0.85,1.2-1.6c-1.56-1.12-2.91-2.47-4.01-4.04c-1.01-1.45-1.95-3.21-1.66-5.04
					c0.24-1.51,1.71-2.93,3.28-2.13c1.64,0.84,2.91,2.7,3.67,4.32C144.28,64.16,146.12,63.36,145.56,62.2z"/>
				<path class="st7" d="M149.25,56.86c-1.01-1.32-2.45-2.52-4.08-2.97c-1.55-0.43-3.44-0.26-4.4,1.2c-0.71,1.07,0.89,2.27,1.6,1.2
					c0.62-0.93,1.96-0.66,2.82-0.26c1.22,0.56,2.19,1.55,2.91,2.67c1.72,2.69,1.7,6.05,1.33,9.11c-0.16,1.28,1.83,1.51,1.99,0.23
					C151.89,64.2,151.68,60.05,149.25,56.86z"/>
				<path class="st7" d="M155.34,57.2c-0.08-0.68-0.28-1.36-0.76-1.86c-0.57-0.6-1.38-0.79-2.18-0.76
					c-1.41,0.04-2.78,0.62-3.86,1.53c-0.99,0.83,0.26,2.4,1.24,1.57c0.75-0.63,1.75-1.12,2.76-1.11c0.38,0,0.64,0.08,0.75,0.47
					c0.15,0.52,0.15,1.12,0.17,1.66c0.12,2.54-0.3,5.1-1.17,7.48c-0.44,1.21,1.41,1.96,1.86,0.75
					C155.27,63.83,155.74,60.46,155.34,57.2z"/>
				<path class="st7" d="M155.02,107.4c-0.58-0.04-0.99,0.33-1.11,0.88c-0.08,0.37-0.16,0.74-0.25,1.11c0,0.02-0.01,0.03-0.01,0.04
					s-0.01,0.02-0.01,0.04c-0.02,0.08-0.04,0.17-0.07,0.25c-0.05,0.18-0.1,0.37-0.15,0.55c-0.21,0.72-0.44,1.43-0.7,2.13
					c-0.18,0.49,0.03,1.12,0.55,1.3c0.5,0.18,1.11-0.03,1.3-0.55c0.56-1.51,0.99-3.07,1.32-4.64
					C156.01,108,155.53,107.44,155.02,107.4z"/>
				<path class="st7" d="M162.89,114.75c0.08-0.01,0.15-0.01,0.23,0c0.21,0.01,0.43,0.04,0.64,0.09c0.08,0.02,0.15,0.04,0.23,0.07
					c0.15,0.06,0.29,0.12,0.43,0.18c-0.01-0.12-0.02-0.23-0.06-0.36c0.06,0.21-0.04-0.15-0.05-0.18c-0.02-0.09-0.05-0.17-0.07-0.26
					c-0.05-0.2-0.1-0.41-0.14-0.61c-0.08-0.38-0.15-0.76-0.2-1.15c-0.05-0.38-0.1-0.77-0.12-1.16c-0.01-0.21-0.02-0.42-0.03-0.63
					c0-0.03,0-0.04,0-0.05s0-0.02,0-0.04c0-0.12,0-0.24,0-0.36c0-0.52-0.3-1.07-0.88-1.11c-0.49-0.03-1.1,0.32-1.11,0.88
					c-0.01,1.62,0.19,3.19,0.59,4.75C162.52,114.79,162.7,114.76,162.89,114.75z"/>
				<path class="st7" d="M164.99,113.42c-4.49,0.91-9.11,0.32-13.23-1.68c-1.16-0.56-1.9,1.3-0.75,1.86
					c4.41,2.14,9.48,2.77,14.29,1.8C166.56,115.14,166.26,113.16,164.99,113.42z"/>
				<path class="st7" d="M129.89,118.5c-2.43,0.41-6.18,2.49-8.05-0.23c-0.93-1.35,0.04-3.02,0.42-4.4c0.29-1.09,0.43-2.3,0.01-3.37
					c-1.04-2.66-5.02-2.68-7.4-2.74c-1.28-0.03-1.52,1.95-0.23,1.99c1.44,0.04,2.91,0.16,4.31,0.51c1.26,0.31,1.71,1.03,1.55,2.3
					c-0.16,1.25-0.79,2.38-0.98,3.63c-0.18,1.19,0.05,2.35,0.76,3.33c1.37,1.9,3.87,2.34,6.05,1.98c1.27-0.21,2.45-0.73,3.71-0.98
					c0.89-0.17,2.77-0.12,2.7,1.23c-0.07,1.28,1.92,1.52,1.99,0.23C134.85,119.33,132.17,118.12,129.89,118.5z"/>
				<path class="st7" d="M185.58,106.34c-0.71,1.54-2.05,2.51-3.29,3.59c-0.98,0.85-2.29,1.94-2.2,3.37
					c0.08,1.35,1.39,2.39,2.36,3.17c0.64,0.52,1.32,0.96,2.03,1.36c0.1,0.06,0.78,0.42,1.26,0.78c0.44-0.53,0.88-1.05,1.31-1.59
					c-0.82-0.65-1.91-1.06-2.71-1.62c-0.69-0.48-2.49-1.59-2.07-2.65c0.27-0.69,1.34-1.33,1.88-1.79c1.33-1.13,2.54-2.27,3.28-3.88
					c3.25-7.12-2.93-13.76-5.67-19.82c-0.53-1.17-2.36-0.37-1.83,0.81C182.38,93.5,188.53,99.96,185.58,106.34z"/>
				<path class="st7" d="M151.08,112.48c-0.08-0.54-0.61-0.91-1.14-0.83c-2.86,0.4-5.59,1.59-7.82,3.42
					c-0.42,0.34-0.5,0.98-0.16,1.41c0.33,0.42,0.99,0.5,1.41,0.16c1.99-1.64,4.34-2.66,6.88-3.01
					C150.78,113.54,151.16,113,151.08,112.48z"/>
				<path class="st7" d="M166.15,115.5c-2.32,1.99-5.43,2.16-8.34,1.86c-2.61-0.27-6.56-0.44-7.76-3.26
					c-0.5-1.18-2.34-0.38-1.83,0.81c1.49,3.51,5.7,4.03,9.04,4.41c3.52,0.4,7.33,0.17,10.13-2.25
					C168.37,116.23,167.13,114.66,166.15,115.5z"/>
				<path class="st7" d="M168.29,116.69c4.24,2.24,7.62,5.84,9.74,10.07c0.51-0.47,1.01-0.95,1.51-1.44
					c-2.37-4.41-6.02-8.13-10.5-10.49C167.9,114.24,167.16,116.1,168.29,116.69z"/>
				<path class="st7" d="M164.39,93.86c-0.15-0.33-0.47-0.46-0.81-0.52c-0.18-0.03-0.23-0.08-0.32-0.26
					c-0.12-0.25-0.17-0.47-0.23-0.75c-0.06-0.29-0.09-0.55,0.05-0.82c0.13-0.24-0.05-0.56-0.28-0.65c-0.27-0.11-0.52,0.04-0.65,0.28
					c-0.29,0.55-0.17,1.2-0.01,1.77c0.15,0.52,0.36,1.05,0.87,1.3c0.12,0.06,0.25,0.09,0.39,0.12c0.02,0,0.04,0.01,0.06,0.01
					c-0.02,0.07-0.04,0.09-0.11,0.18c-0.26,0.3-0.7,0.5-1.08,0.51c-0.27,0-0.52,0.15-0.55,0.44c-0.03,0.24,0.17,0.56,0.44,0.55
					c0.62-0.01,1.22-0.19,1.7-0.61C164.28,95.04,164.65,94.43,164.39,93.86z"/>
				<path class="st7" d="M162.9,98.24c-1.39,0.1-2.78-0.16-4.06-0.73c-0.19-0.49-1.03-0.33-0.95,0.27c0.11,0.8,0.32,1.59,0.63,2.33
					c0.16,0.37,0.34,0.73,0.54,1.08c0.2,0.33,0.45,0.65,0.82,0.81c0.8,0.33,1.6-0.18,2.08-0.8c0.51-0.68,0.95-1.43,1.41-2.15
					C163.63,98.65,163.35,98.21,162.9,98.24z M161.37,100.28c-0.2,0.3-0.65,1.01-1.12,0.77c-0.22-0.11-0.35-0.41-0.46-0.62
					c-0.15-0.29-0.29-0.59-0.41-0.89c-0.11-0.29-0.2-0.58-0.28-0.87c0.95,0.34,1.94,0.54,2.95,0.56
					C161.83,99.59,161.6,99.94,161.37,100.28z"/>
				<path class="st7" d="M155.74,89.32c-0.13-0.62-0.61-1.23-1.28-1.26c-0.7-0.03-1.25,0.47-1.49,1.09
					c-0.23,0.61-0.27,1.3-0.21,1.94c0.04,0.39,0.13,0.9,0.4,1.2c0.24,0.43,0.67,0.72,1.2,0.49c0.28-0.12,0.47-0.38,0.63-0.63
					c0.18-0.29,0.34-0.6,0.47-0.92C155.68,90.66,155.87,89.95,155.74,89.32z"/>
				<path class="st7" d="M170.13,89.59c-0.13-0.62-0.61-1.23-1.28-1.26c-0.7-0.03-1.25,0.47-1.49,1.09
					c-0.23,0.61-0.27,1.3-0.21,1.94c0.04,0.39,0.13,0.9,0.4,1.2c0.24,0.43,0.67,0.72,1.2,0.49c0.28-0.12,0.47-0.38,0.63-0.63
					c0.18-0.29,0.34-0.6,0.47-0.92C170.07,90.92,170.25,90.21,170.13,89.59z"/>
				<path class="st7" d="M153.46,88.83c-0.19-0.22-0.47-0.24-0.7-0.08c-0.02,0.01-0.03,0.02-0.05,0.04
					c-0.04,0.02-0.07,0.04-0.11,0.06s-0.09,0.04-0.14,0.06c-0.02,0.01-0.04,0.01-0.06,0.02c-0.09,0.02-0.17,0.04-0.26,0.05
					c-0.05,0.01-0.09,0.01-0.14,0.01c-0.02,0-0.04,0-0.06,0c-0.09,0-0.19-0.01-0.28-0.03c-0.02,0-0.04-0.01-0.06-0.01
					c-0.04-0.01-0.08-0.02-0.11-0.04c-0.04-0.01-0.26-0.08-0.27-0.12c0,0.01,0.09,0.06,0.03,0.01c-0.02-0.01-0.04-0.02-0.06-0.04
					c-0.05-0.03-0.09-0.06-0.13-0.1c-0.2-0.16-0.55-0.12-0.7,0.1c-0.16,0.23-0.12,0.52,0.1,0.7c0.83,0.67,2.06,0.68,2.93,0.07
					C153.6,89.38,153.63,89.02,153.46,88.83z"/>
				<path class="st7" d="M153.84,89.97c-0.11-0.22-0.42-0.39-0.66-0.26c-0.18,0.1-0.36,0.19-0.55,0.25
					c-0.02,0.01-0.19,0.05-0.07,0.02c-0.05,0.01-0.11,0.03-0.16,0.04c-0.1,0.02-0.2,0.04-0.3,0.05s-0.2,0.03-0.3,0.02
					c-0.03,0-0.06,0-0.07,0c-0.05,0-0.09,0-0.14-0.01c-0.1-0.01-0.2-0.02-0.3-0.04c-0.05-0.01-0.11-0.02-0.16-0.03
					c-0.02-0.01-0.05-0.01-0.07-0.02c-0.25-0.07-0.56,0.01-0.65,0.28c-0.08,0.23,0.01,0.57,0.28,0.65c0.97,0.28,2.03,0.2,2.91-0.3
					C153.81,90.5,153.96,90.23,153.84,89.97z"/>
				<path class="st7" d="M171.87,90.96c-0.06-0.28-0.29-0.44-0.57-0.42c-0.02,0-0.04,0-0.06,0c-0.03,0-0.07,0-0.1,0
					c-0.09,0-0.17-0.02-0.26-0.03c-0.03,0-0.05-0.01-0.08-0.02c0,0,0,0-0.01,0s-0.01,0-0.01,0c-0.02-0.01-0.04-0.01-0.06-0.02
					c-0.09-0.03-0.18-0.06-0.26-0.1c-0.03-0.02-0.07-0.03-0.1-0.05c-0.01-0.01-0.03-0.02-0.04-0.03c-0.07-0.05-0.15-0.1-0.21-0.15
					c-0.03-0.03-0.06-0.05-0.09-0.08c-0.06-0.05-0.01-0.02,0.01,0.01c-0.01-0.02-0.03-0.03-0.04-0.04
					c-0.06-0.07-0.12-0.14-0.18-0.22c-0.15-0.21-0.5-0.25-0.7-0.08c-0.21,0.18-0.24,0.48-0.08,0.7c0.55,0.77,1.5,1.16,2.43,1.09
					C171.72,91.51,171.92,91.21,171.87,90.96z"/>
				<path class="st7" d="M172.26,89.48c-0.05-0.27-0.29-0.46-0.57-0.42c-0.11,0.02-0.21,0.03-0.32,0.04c-0.05,0-0.09,0.01-0.14,0.01
					c-0.02,0-0.02,0-0.03,0c-0.02,0-0.04,0-0.07,0c-0.2,0-0.4-0.02-0.6-0.05c-0.1-0.01-0.2-0.03-0.29-0.05
					c-0.02,0-0.18-0.04-0.07-0.02c-0.04-0.01-0.09-0.02-0.13-0.04c-0.21-0.06-0.41-0.14-0.6-0.23c-0.24-0.11-0.56,0.03-0.65,0.28
					c-0.09,0.27,0.02,0.53,0.28,0.65c0.86,0.4,1.84,0.53,2.78,0.4C172.1,90.01,172.31,89.74,172.26,89.48z"/>
				<path class="st7" d="M151.88,94.83c-0.64-0.07-0.75,0.92-0.11,0.99C152.4,95.9,152.52,94.9,151.88,94.83z"/>
				<path class="st7" d="M153.48,95.65c-0.64-0.07-0.75,0.92-0.11,0.99C154.01,96.72,154.12,95.72,153.48,95.65z"/>
				<path class="st7" d="M155.57,94.12c-0.64-0.07-0.75,0.92-0.11,0.99S156.21,94.19,155.57,94.12z"/>
				<path class="st7" d="M166.95,94.35c-0.64-0.07-0.75,0.92-0.11,0.99C167.48,95.42,167.59,94.43,166.95,94.35z"/>
				<path class="st7" d="M168.4,95.94c-0.64-0.07-0.75,0.92-0.11,0.99C168.92,97,169.04,96.01,168.4,95.94z"/>
				<path class="st7" d="M169.92,94.41c-0.64-0.07-0.75,0.92-0.11,0.99C170.44,95.48,170.56,94.48,169.92,94.41z"/>
				<path class="st7" d="M131.38,122.85c-0.42-0.39-0.99-0.37-1.41,0c-1.3,1.14-2.5,2.39-3.59,3.73c-0.17,0.21-0.29,0.42-0.29,0.71
					c0,0.25,0.11,0.54,0.29,0.71c0.36,0.33,1.06,0.43,1.41,0c1.09-1.34,2.29-2.59,3.59-3.73
					C131.78,123.92,131.76,123.2,131.38,122.85z"/>
			</g>
			<path class="st18" d="M193.49,83.08c2.12,9.46,1.1,19.68-3.63,29.01c-10.8,21.31-36.82,29.83-58.13,19.03
				S101.91,94.3,112.7,72.99s36.82-29.83,58.13-19.03c11,5.57,18.79,15.67,22.08,26.62"/>
		</g>
	</g>
	<g>
		<g>
			<path class="st19" d="M181.29,136.23c-0.15-1.63-0.11-3.49-1.8-4.28c-3.31-1.54-7.66-1.04-11.18-0.83
				c-7.98,0.46-17.96,0.61-25.95,0.33c-3.84-0.13-7.69-0.58-11.53-0.57c-3.08,0.01-7.36,1.13-7.75,4.78c0,0.03,0.01,0.06,0,0.1
				c-0.79,4.47-1.12,9-0.98,13.54c0.06,2.02,0.02,4.24,0.67,6.17c0.68,2,2.38,2.87,4.27,3.51c6.45,2.2,13.37,1.18,20.09,1.65
				c0.06-0.1,0.13-0.18,0.2-0.27c0.41,0.18,0.88,0.23,1.35,0.13c1.07-0.24,2.17-0.17,3.25-0.16c1.26,0.02,2.51-0.03,3.76-0.15
				c2.55-0.23,5.09-0.68,7.61-1.13c0.34-0.06,0.62-0.24,0.85-0.47c2.11-0.11,4.99-0.23,6.58-0.42c2.02-0.24,4.04-0.6,5.99-1.2
				c1.59-0.48,3.47-0.96,4-2.73c0.59-1.95,0.6-4.21,0.72-6.24c0.11-1.8,0.16-3.6,0.15-5.4
				C181.59,140.48,181.48,138.35,181.29,136.23z"/>
			<path class="st7" d="M183.22,135.49c-0.16-1.64-0.31-3.37-1.62-4.55c-1.26-1.13-3.17-1.48-4.79-1.71
				c-2.04-0.3-4.09-0.32-6.14-0.24c-8.79,0.35-19.51,0.76-28.31,0.46c-2.47-0.09-4.94-0.21-7.41-0.37c-2.2-0.14-4.41-0.34-6.6-0.02
				c-3.6,0.53-7.08,2.96-7.28,6.86l0,0c-0.76,4.58-1.11,9.22-0.93,13.86c0.15,3.93,0.17,7.44,4.17,9.42c3.54,1.75,9.1,1.98,15,1.98
				c5.63,0,11.68-0.2,11.68-0.23c4.7-0.3,19.2-0.55,22.97-1.25c3.24-0.6,7.81-1.42,8.76-5.12c0.5-1.94,0.57-4.09,0.71-6.08
				c0.14-2.12,0.2-4.25,0.17-6.38C183.57,139.9,183.44,137.69,183.22,135.49z M181.46,148c-0.13,2.02-0.13,4.29-0.72,6.24
				c-0.53,1.77-2.41,2.25-4,2.73c-1.95,0.59-3.97,0.96-5.99,1.2c-1.98,0.24-5.97,0.37-7.96,0.5c-1.07,0.07-11.75,0.26-12.82,0.35
				c-0.37,0.03-0.77,0.05-1.16,0.09c0,0,0,0.01,0.01,0.01c-6.76-0.06-16.18,0.95-21.85-0.99c-1.89-0.65-3.49-0.65-4.17-2.66
				c-0.65-1.93-0.61-4.16-0.67-6.17c-0.14-4.54,0.2-9.07,0.98-13.54c0.01-0.04-0.01-0.06,0-0.1c0.39-3.65,4.67-4.77,7.75-4.78
				c3.84-0.01,7.69,0.44,11.53,0.57c7.99,0.27,17.97,0.13,25.95-0.33c3.52-0.21,7.87-0.71,11.18,0.83c1.69,0.79,1.65,2.65,1.8,4.28
				c0.19,2.12,0.29,4.25,0.31,6.37C181.62,144.4,181.57,146.2,181.46,148z"/>
			<g>
				<path class="st2" d="M150.7,148.33c-0.03-2.84-0.12-5.68-0.28-8.52c-0.07-1.25,0.12-3.07-0.64-4.13s-2.19-1-3.34-1.07
					c-2.14-0.14-5.1-0.57-6.78,1.16c-0.86,0.88-1.08,2.08-1.13,3.29c-0.05,1.37-0.03,2.76-0.01,4.13c0.04,3.19,0.15,6.41,0.51,9.58
					c0.09,0.82,0.36,1.49,1.11,1.87c0.69,0.35,1.59,0.25,2.35,0.23c0.51,0.11,1.02,0.17,1.48,0.22c1.28,0.15,2.6,0.04,3.85-0.27
					c1.24-0.31,2.4-0.9,2.75-2.26C150.91,151.24,150.72,149.68,150.7,148.33z"/>
			</g>
			<g>
				<path class="st2" d="M164.59,148.29c-0.03-2.84-0.12-5.68-0.28-8.52c-0.07-1.25,0.12-3.07-0.64-4.13s-2.19-1-3.34-1.07
					c-2.14-0.14-5.1-0.57-6.78,1.16c-0.86,0.88-1.08,2.08-1.13,3.29c-0.05,1.37-0.03,2.76-0.01,4.13c0.04,3.19,0.15,6.41,0.51,9.58
					c0.09,0.82,0.36,1.49,1.11,1.87c0.69,0.35,1.59,0.25,2.35,0.23c0.51,0.11,1.02,0.17,1.48,0.22c1.28,0.15,2.6,0.04,3.85-0.27
					c1.24-0.31,2.4-0.9,2.75-2.26C164.8,151.2,164.61,149.65,164.59,148.29z"/>
			</g>
			<g>
				<path class="st2" d="M178.59,148.29c-0.03-2.84-0.12-5.68-0.28-8.52c-0.07-1.25,0.12-3.07-0.64-4.13s-2.19-1-3.34-1.07
					c-2.14-0.14-5.1-0.57-6.78,1.16c-0.86,0.88-1.08,2.08-1.13,3.29c-0.05,1.37-0.03,2.76-0.01,4.13c0.04,3.19,0.15,6.41,0.51,9.58
					c0.09,0.82,0.36,1.49,1.11,1.87c0.69,0.35,1.59,0.25,2.35,0.23c0.51,0.11,1.02,0.17,1.48,0.22c1.28,0.15,2.6,0.04,3.85-0.27
					c1.24-0.31,2.4-0.9,2.75-2.26C178.8,151.2,178.61,149.65,178.59,148.29z"/>
			</g>
			<g>
				<path class="st2" d="M136.81,148.36c-0.03-2.84-0.12-5.68-0.28-8.52c-0.07-1.25,0.12-3.07-0.64-4.13s-2.19-0.99-3.34-1.07
					c-2.14-0.14-5.1-0.57-6.78,1.16c-0.86,0.88-1.08,2.08-1.13,3.29c-0.05,1.37-0.03,2.76-0.01,4.13c0.04,3.19,0.15,6.41,0.51,9.58
					c0.09,0.82,0.36,1.49,1.11,1.87c0.69,0.35,1.59,0.25,2.35,0.23c0.51,0.11,1.02,0.17,1.48,0.22c1.28,0.15,2.6,0.04,3.85-0.27
					c1.24-0.31,2.4-0.9,2.75-2.26C137.02,151.27,136.82,149.72,136.81,148.36z"/>
			</g>
		</g>
		<path class="st7" d="M167.72,123.08c-0.15-1.4,0.02-3.73-1.79-4.31c-1.01-0.32-2.26-0.31-3.32-0.41c-1.14-0.11-2.28-0.2-3.42-0.27
			c-2.53-0.16-5.06-0.23-7.6-0.22c-2.53,0.01-5.07,0.12-7.6,0.31c-1.96,0.15-4.37,0.1-6.19,0.84c-1.79,0.74-2.21,2.35-2.5,3.95
			c-0.4,2.19-0.53,4.4-0.39,6.62c0.06,1.06,1.75,1.13,1.96,0.23c9.66,1.75,19.57-0.23,29.33,0.37c0.24,0.95,1.98,0.89,1.95-0.19
			C168.11,127.69,167.97,125.38,167.72,123.08z"/>
		<g>
			<path class="st2" d="M147.6,120.29c-0.57-0.15-1.03,0.2-1.22,0.71c-0.46,1.22-0.98,2.42-1.56,3.6c-0.29,0.59-0.6,1.18-0.92,1.76
				c-0.14,0.25-0.28,0.49-0.42,0.74c-0.12-0.22-0.24-0.45-0.36-0.67c-0.31-0.58-0.6-1.16-0.89-1.75c-0.57-1.16-1.09-2.34-1.57-3.55
				c-0.2-0.5-0.68-0.85-1.24-0.69c-0.48,0.14-0.89,0.73-0.69,1.24c0.92,2.3,1.98,4.55,3.18,6.73c0.34,0.61,0.74,1.29,1.52,1.32
				c0.81,0.03,1.17-0.6,1.53-1.21c0.6-1.02,1.16-2.06,1.68-3.12c0.62-1.27,1.17-2.57,1.67-3.89
				C148.5,121.01,148.08,120.42,147.6,120.29z"/>
			<path class="st2" d="M151.9,120.17c-1.29,0.01-1.27,2.01,0.02,2C153.21,122.16,153.19,120.16,151.9,120.17z"/>
			<path class="st2" d="M151.51,123.13c-0.54,0.03-1,0.45-0.99,1.01c0.02,1.62-0.03,3.24-0.15,4.86c-0.04,0.52,0.5,1.02,1.01,0.99
				c0.58-0.03,0.95-0.45,0.99-1.01c0.12-1.62,0.17-3.24,0.15-4.86C152.51,123.6,152.05,123.1,151.51,123.13z"/>
			<path class="st2" d="M163.3,127.11c-1.76,0.22-3.53,0.32-5.3,0.32c0.03-0.03,0.05-0.06,0.08-0.09c0.56-0.57,1.12-1.14,1.68-1.71
				c1.13-1.15,2.26-2.31,3.39-3.46c0.64-0.65,0.12-1.65-0.72-1.7c-2.17-0.14-4.34-0.26-6.51-0.35c-0.54-0.02-1,0.49-0.99,1.01
				c0.01,0.56,0.47,0.97,1.01,0.99c1.41,0.06,2.83,0.15,4.24,0.23c-0.65,0.66-1.3,1.32-1.94,1.98c-1.1,1.12-2.33,2.21-3.17,3.55
				c-0.43,0.68,0.16,1.46,0.88,1.5c2.47,0.13,4.94,0.04,7.39-0.27c0.54-0.07,1-0.42,0.99-1.01
				C164.3,127.61,163.84,127.04,163.3,127.11z"/>
		</g>
		<path class="st7" d="M133.8,137.87l-3.73,0.39c-0.45,0.05-0.82,0.44-0.87,0.88c0,0.01-0.01,0.02-0.01,0.04
			c-0.35,1.91-0.88,3.76-1.62,5.56c-0.46,1.11,0.9,1.8,1.69,1.04c0.5-0.49,1.43-0.37,1.98-0.05c0.76,0.44,1.1,1.36,1.18,2.19
			c0.04,0.43,0.04,0.91-0.09,1.32c-0.14,0.42-0.53,0.54-0.92,0.66c-1.17,0.35-2.43,0.33-3.62,0.09c-1.26-0.26-1.58,1.71-0.33,1.97
			c1.67,0.34,3.7,0.33,5.27-0.42c1.57-0.76,1.91-2.59,1.64-4.18c-0.26-1.51-1.11-2.99-2.59-3.58c-0.54-0.22-1.09-0.32-1.63-0.3
			c0.35-1.08,0.64-2.19,0.87-3.3l3-0.32c0.52-0.05,0.97-0.57,0.89-1.1C134.82,138.23,134.36,137.81,133.8,137.87z"/>
		<path class="st7" d="M147.5,137.5l-3.73,0.39c-0.45,0.05-0.82,0.44-0.87,0.88c0,0.01-0.01,0.02-0.01,0.04
			c-0.35,1.91-0.88,3.76-1.62,5.56c-0.46,1.11,0.9,1.8,1.69,1.04c0.5-0.49,1.43-0.37,1.98-0.05c0.76,0.44,1.1,1.36,1.18,2.19
			c0.04,0.43,0.04,0.91-0.09,1.32c-0.14,0.42-0.53,0.54-0.92,0.66c-1.17,0.35-2.43,0.33-3.62,0.09c-1.26-0.26-1.58,1.71-0.33,1.97
			c1.67,0.34,3.7,0.33,5.27-0.42c1.57-0.76,1.91-2.59,1.64-4.18c-0.26-1.51-1.11-2.99-2.59-3.58c-0.54-0.22-1.09-0.32-1.63-0.3
			c0.35-1.08,0.64-2.19,0.87-3.3l3-0.32c0.52-0.05,0.97-0.57,0.89-1.1C148.52,137.85,148.06,137.44,147.5,137.5z"/>
		<path class="st7" d="M160.91,138.76c-0.2-0.17-0.44-0.26-0.68-0.28c-0.1-0.07-0.2-0.13-0.34-0.16c-2.43-0.6-4.11,2.09-4.82,4.02
			c-0.38,1.05-0.57,2.16-0.67,3.27c-0.1,1.13-0.09,2.34,0.3,3.42c0.76,2.09,3.17,3.7,5.29,2.35c1.93-1.23,2.58-3.84,2.75-5.97
			C162.92,143.15,162.8,140.34,160.91,138.76z M159.74,148.81c-0.32,0.51-0.79,1.08-1.44,1.08c-0.63-0.01-1.19-0.48-1.49-1
			c-0.78-1.34-0.5-3.31-0.18-4.76c0.2-0.88,0.5-1.73,0.99-2.5c0.32-0.51,1.02-1.55,1.74-1.38c0.08,0.02,0.15,0.01,0.23,0.01
			c1.04,0.94,1.21,2.4,1.21,3.74C160.8,145.65,160.62,147.38,159.74,148.81z"/>
		<path class="st7" d="M174.89,138.11c-0.2-0.17-0.44-0.26-0.68-0.28c-0.1-0.07-0.2-0.13-0.34-0.16c-2.43-0.6-4.11,2.09-4.82,4.02
			c-0.38,1.05-0.57,2.16-0.67,3.27c-0.1,1.13-0.09,2.34,0.3,3.42c0.76,2.09,3.17,3.7,5.29,2.35c1.93-1.23,2.58-3.84,2.75-5.97
			C176.91,142.5,176.78,139.69,174.89,138.11z M173.72,148.15c-0.32,0.51-0.79,1.08-1.44,1.08c-0.63-0.01-1.19-0.48-1.49-1
			c-0.78-1.34-0.5-3.31-0.18-4.76c0.2-0.88,0.5-1.73,0.99-2.5c0.32-0.51,1.02-1.55,1.74-1.38c0.08,0.02,0.15,0.01,0.23,0.01
			c1.04,0.94,1.21,2.4,1.21,3.74C174.78,144.99,174.6,146.72,173.72,148.15z"/>
	</g>
	<g>
		<path class="st7" d="M189.29,281.74c-1.13-1.25-3.54-0.02-4.83,0.36c-2.04,0.59-4.08,1.2-6.11,1.84
			c-4.64,1.46-11.22,4.34-15.78,6.03c-1.2,0.45-0.55,2.34,0.66,1.89c4.27-1.59,10.56-4.38,14.91-5.76c2.17-0.69,4.35-1.35,6.54-1.99
			c0.44-0.13,0.88-0.25,1.31-0.38c0.44-0.13,1.13-0.45,1.62-0.48c0,0.02-0.01,0.03-0.01,0.05c-0.1,0.29-0.19,0.59-0.29,0.88
			c-0.17,0.52-0.34,1.03-0.51,1.54c-1.46,4.4-3.02,8.76-4.68,13.09c-0.39,1.01-0.77,2.03-1.18,3.03c-0.27,0.67-0.06,0.76-0.62,0.32
			c-0.47-0.37-1.13-0.62-1.65-0.9c-1.74-0.95-3.48-1.9-5.22-2.85c1.65-2.48,3.15-5.05,4.46-7.74c0.36-0.74-0.4-1.74-1.22-1.39
			c-3.4,1.43-6.44,3.51-8.99,6.16c-1.34-1.63-2.7-3.23-4.1-4.81c-0.86-0.96-2.17,0.55-1.32,1.5c1.56,1.75,3.08,3.55,4.55,5.38
			c0.4,0.49,1.12,0.62,1.58,0.1c1.82-2.07,3.94-3.8,6.32-5.15c-1.06,1.94-2.2,3.82-3.45,5.64c-0.37,0.54-0.31,1.22,0.3,1.56
			c1.93,1.05,3.86,2.1,5.79,3.16c1.23,0.67,3.3,2.45,4.64,1.21c0.58-0.54,0.79-1.45,1.06-2.16c0.42-1.08,0.84-2.17,1.25-3.25
			c0.77-2.03,1.51-4.06,2.24-6.11c0.7-1.98,1.39-3.97,2.05-5.96C189.04,285.3,190.39,282.96,189.29,281.74z"/>
		<path class="st2" d="M187.6,283.31c-0.1,0.29-0.19,0.59-0.29,0.88c-0.17,0.52-0.34,1.03-0.51,1.54c-1.46,4.4-3.02,8.76-4.68,13.09
			c-0.39,1.01-0.77,2.03-1.18,3.03c-0.27,0.67-0.06,0.76-0.62,0.32c-0.47-0.37-1.13-0.62-1.65-0.9c-1.74-0.95-3.48-1.9-5.22-2.85
			c1.65-2.48,3.15-5.05,4.46-7.74c0.36-0.74-0.4-1.74-1.22-1.39c-3.4,1.43-6.44,3.51-8.99,6.16c-1.12-1.36-2.26-2.69-3.42-4.01
			c4.21-1.62,9.84-4.08,13.84-5.35c2.17-0.69,4.35-1.35,6.54-1.99c0.44-0.13,0.88-0.25,1.31-0.38c0.44-0.13,1.13-0.45,1.62-0.48
			C187.61,283.27,187.61,283.28,187.6,283.31z"/>
	</g>
	<path class="st7" d="M140.82,284.39c-12.98,0.46-25.98,0.47-38.96,0.03c-1.29-0.04-1.35,1.96-0.06,2
		c12.98,0.44,25.98,0.43,38.96-0.03C142.04,286.35,142.11,284.35,140.82,284.39z"/>
	<path class="st7" d="M138.84,277.09c0.06,0.08,0.12,0.17,0.18,0.25c-0.12-0.17-0.22-0.33-0.3-0.51
		c-10.89-0.31-21.79-0.44-32.69-0.37c-1.28,0.01-1.35,2.01-0.06,2c11.3-0.07,22.59,0.06,33.89,0.4c0.09,0,0.15-0.02,0.23-0.04
		C139.67,278.24,139.26,277.66,138.84,277.09z"/>
	<path class="st7" d="M110.06,281.08c-0.02-0.12-0.08-0.25-0.12-0.35c-0.01-0.02-0.02-0.04-0.03-0.06
		c-0.06-0.09-0.11-0.17-0.18-0.25c-0.01-0.01-0.01-0.01-0.02-0.02c-0.03-0.03-0.08-0.07-0.11-0.09s-0.07-0.06-0.11-0.09
		c-0.02-0.01-0.04-0.02-0.05-0.03c-0.24-0.12-0.33-0.15-0.6-0.18c-0.02,0-0.04,0-0.06,0c-0.01,0-0.02,0-0.03,0
		c-0.1,0.01-0.2,0.02-0.29,0.03c-0.02,0-0.05,0.01-0.07,0.02c-0.09,0.03-0.18,0.07-0.27,0.1c-0.01,0-0.02,0.01-0.03,0.01
		c-0.02,0.01-0.04,0.02-0.06,0.04c-0.08,0.06-0.18,0.12-0.25,0.19c-0.08,0.07-0.14,0.16-0.2,0.24c-0.01,0.02-0.03,0.04-0.04,0.06
		s-0.02,0.06-0.04,0.08c-0.03,0.03-0.07,0.05-0.09,0.09c-0.04,0.08-0.07,0.16-0.11,0.24c-0.05,0.18-0.06,0.35-0.02,0.53
		c0,0.02,0.01,0.04,0.01,0.07c0,0.01,0.01,0.02,0.01,0.03c0.03,0.09,0.07,0.18,0.11,0.27c0.01,0.02,0.02,0.04,0.03,0.05
		c0.06,0.09,0.12,0.18,0.19,0.26c0.01,0.02,0.03,0.03,0.05,0.05c0.07,0.06,0.14,0.12,0.21,0.18c0.01,0.01,0.02,0.02,0.03,0.02
		c0.11,0.07,0.23,0.12,0.35,0.16c0.12,0.04,0.26,0.06,0.39,0.07c0.06,0,0.13-0.01,0.19-0.02c0.06-0.01,0.14-0.01,0.2-0.03
		c0.05-0.02,0.1-0.04,0.15-0.06c0.04-0.02,0.1-0.04,0.14-0.06c0.02-0.01,0.04-0.02,0.06-0.03c0.06-0.04,0.18-0.12,0.25-0.19
		c0.01-0.01,0.01-0.01,0.02-0.02c0.06-0.07,0.12-0.15,0.18-0.22c0.01-0.02,0.02-0.03,0.03-0.05c0-0.01,0.01-0.02,0.01-0.03
		c0.04-0.09,0.08-0.17,0.12-0.26c0.01-0.02,0.01-0.04,0.02-0.06c0-0.01,0-0.02,0.01-0.03c0.02-0.09,0.03-0.19,0.05-0.29
		C110.1,281.34,110.07,281.2,110.06,281.08z"/>
	<path class="st7" d="M115.11,281.03c-0.06-0.11-0.13-0.21-0.22-0.3c-0.07-0.07-0.16-0.14-0.24-0.19c-0.02-0.01-0.03-0.02-0.05-0.03
		c-0.24-0.12-0.45-0.2-0.73-0.2c-0.02,0-0.04,0-0.06,0c-0.11,0.01-0.22,0.01-0.32,0.04c-0.12,0.03-0.24,0.08-0.35,0.13
		c-0.12,0.06-0.24,0.15-0.34,0.26c-0.06,0.03-0.13,0.06-0.18,0.11c-0.05,0.07-0.11,0.13-0.16,0.2c-0.1,0.15-0.15,0.32-0.15,0.5
		c0.01,0.09,0.02,0.18,0.03,0.27c0.04,0.17,0.12,0.32,0.24,0.45c0.09,0.08,0.19,0.17,0.3,0.24c0.11,0.06,0.23,0.12,0.35,0.16
		c0.02,0.01,0.04,0.01,0.06,0.02c0.01,0,0.02,0,0.03,0.01c0.03,0.02,0.06,0.04,0.08,0.06c0.11,0.08,0.24,0.12,0.37,0.13
		c0.13,0.03,0.26,0.03,0.4-0.01c0.13-0.03,0.25-0.08,0.35-0.17c0.11-0.07,0.2-0.16,0.27-0.27c0.02-0.04,0.03-0.07,0.05-0.11
		c0.03-0.02,0.06-0.04,0.08-0.06c0.05-0.07,0.11-0.13,0.16-0.2c0.08-0.11,0.12-0.24,0.13-0.37c0.03-0.09,0.03-0.18,0.01-0.27
		C115.22,281.27,115.18,281.15,115.11,281.03z"/>
	<path class="st7" d="M120.33,281.48c0-0.05-0.01-0.12-0.02-0.17c0-0.01,0-0.01-0.01-0.02c-0.02-0.05-0.07-0.2-0.09-0.24
		c0,0,0-0.01-0.01-0.01c-0.01-0.01-0.01-0.02-0.02-0.03c-0.03-0.04-0.12-0.17-0.15-0.21c0,0,0,0,0-0.01s-0.01-0.01-0.01-0.02
		l-0.01-0.01c-0.03-0.03-0.09-0.07-0.1-0.09c-0.01-0.01-0.07-0.06-0.1-0.08c-0.01-0.01-0.02-0.01-0.03-0.02
		c-0.01,0-0.01-0.01-0.02-0.01c-0.08-0.04-0.17-0.08-0.25-0.11c-0.01,0-0.02-0.01-0.04-0.01c-0.11-0.03-0.22-0.05-0.33-0.05
		c-0.01,0-0.02,0-0.03,0c-0.05,0-0.1,0.01-0.15,0.02c-0.05,0.01-0.1,0.01-0.15,0.02c-0.02,0-0.05,0.01-0.07,0.02
		c-0.08,0.03-0.22,0.07-0.31,0.13c-0.07,0.05-0.15,0.11-0.22,0.16c-0.01,0-0.01,0.01-0.02,0.01c-0.01,0.01-0.02,0.02-0.03,0.03
		c-0.06,0.07-0.12,0.14-0.17,0.21c0,0.01-0.01,0.01-0.01,0.02c0,0.01-0.01,0.01-0.01,0.02c-0.02,0.04-0.09,0.19-0.11,0.24v0.01
		c-0.01,0.01-0.01,0.03-0.01,0.04c-0.01,0.05-0.04,0.22-0.04,0.27v0.01c0,0.01,0,0.02,0,0.02c-0.01,0.14,0.02,0.27,0.07,0.39
		c0,0.01,0.01,0.02,0.02,0.03c0,0.01,0,0.02,0,0.04c0.04,0.17,0.12,0.32,0.24,0.45c0.01,0.01,0.02,0.02,0.03,0.03
		c0.04,0.04,0.16,0.13,0.2,0.16c0,0,0.01,0,0.01,0.01c0.01,0,0.01,0.01,0.02,0.01c0,0,0,0,0.01,0c0.07,0.03,0.17,0.08,0.24,0.11
		c0.01,0,0.01,0.01,0.02,0.01c0.01,0,0.03,0.01,0.04,0.01c0.09,0.02,0.19,0.03,0.28,0.04c0.01,0,0.01,0,0.02,0c0.01,0,0.03,0,0.04,0
		c0.09-0.01,0.24-0.01,0.34-0.05c0.08-0.03,0.17-0.06,0.26-0.1c0.01,0,0.01-0.01,0.02-0.01c0.01-0.01,0.03-0.01,0.04-0.02
		c0.01,0,0.01-0.01,0.02-0.01c0.07-0.05,0.15-0.1,0.22-0.16c0.01-0.01,0.02-0.02,0.03-0.03l0.01-0.01c0.06-0.07,0.12-0.14,0.17-0.21
		c0.01-0.01,0.02-0.02,0.02-0.04c0-0.01,0.01-0.01,0.01-0.02c0.04-0.08,0.08-0.17,0.11-0.25c0.01-0.01,0.01-0.03,0.01-0.04
		c0.01-0.05,0.02-0.11,0.03-0.15s0.02-0.1,0.02-0.15C120.35,281.6,120.33,281.53,120.33,281.48z"/>
	<path class="st7" d="M136.01,295.53c-0.14-0.57-0.67-0.81-1.21-0.73c-4.27,0.57-8.59,0.69-12.88,0.42c-1.29-0.08-1.34,1.92-0.06,2
		c4.48,0.29,8.97,0.12,13.42-0.47C135.81,296.66,136.13,296.01,136.01,295.53z"/>
	<path class="st7" d="M130.24,299.72l-4.15,0.2l-2.04,0.1c-0.7,0.03-1.4,0.09-2.09,0.01c-0.54-0.06-1.01,0.46-1.03,0.97
		c-0.02,0.58,0.43,0.97,0.97,1.03c0.7,0.08,1.4,0.02,2.09-0.01l2.04-0.1l4.15-0.2c0.54-0.03,1.01-0.4,1.03-0.97
		C131.22,300.24,130.78,299.69,130.24,299.72z"/>
	<path class="st14" d="M117.65,301.01c-0.15-1.33-0.32-2.65-0.52-3.98c-0.16-1.14-0.24-2.38-0.77-3.42
		c-0.52-1.01-1.46-1.47-2.55-1.58c-1.31-0.13-2.64-0.12-3.96-0.18c-2.4-0.1-4.81-0.2-7.21-0.3c-0.35-0.41-0.99-0.37-1.39-0.04
		c-1.03,0.03-1.15,1.4-0.38,1.84c-0.62,2.91,1.65,5.45,3.37,7.51c1.39,1.66,2.83,3.29,4.53,4.61c2.4,2.15,5.2,3.87,8.27,4.99
		c0.6,0.22,1.29-0.35,1.27-0.96C118.19,306.65,117.97,303.82,117.65,301.01z"/>
	<g>
		<path class="st7" d="M139.3,276.29c-2.75-3.78-6.81-6.03-11.29-7.15c-4.97-1.23-10.21-0.7-14.91,1.79
			c-2.72,1.45-5.17,3.16-7.23,5.25c-1.13,1.15-3.17,4.14-3.17,4.31c-4.77,6.96-4.47,16.4,1.22,22.91c5.77,6.6,16,8.67,24.21,6.19
			c8.71-2.63,14.92-10.59,15.25-19.72C143.57,285.08,142.14,280.18,139.3,276.29z M130.53,306.54c-6.97,3.35-15.84,2.58-22.17-1.84
			c-7.98-5.57-9.33-17.1-3-24.44c0.23-0.27,1.95-2.65,2.88-3.41c1.32-1.08,2.68-2.12,4.27-3.02c3.15-1.79,7.74-3.51,12.01-2.94
			c4.03,0.54,7.61,1.2,10.75,3.91c3.31,2.85,5.29,7.1,5.93,11.38C142.43,294.47,138.09,302.9,130.53,306.54z"/>
	</g>
	<path class="st7" d="M118.09,300.04c0.04-1.41,0.12-2.81,0.24-4.22c0.09-1.08,0.49-2.55-0.27-3.48c-0.75-0.91-2.44-0.83-3.5-0.97
		c-1.41-0.19-2.83-0.35-4.25-0.49c-2.89-0.28-5.8-0.46-8.71-0.55c-1.29-0.04-1.35,1.96-0.06,2c2.58,0.07,5.15,0.22,7.72,0.45
		c1.26,0.11,2.51,0.25,3.77,0.4c0.65,0.08,1.31,0.16,1.96,0.25c0.33,0.04,0.65,0.09,0.98,0.14c0.16,0.02,0.31,0.05,0.47,0.07
		c0.03,0.01,0.05,0.02,0.07,0.02c0.1,0.38-0.09,1.11-0.12,1.45c-0.05,0.59-0.1,1.19-0.14,1.78c-0.09,1.24-0.14,2.49-0.17,3.73
		c-0.06,2.6,0.01,5.2,0.2,7.79c0.09,1.27,2.09,1.34,2,0.06C118.07,305.67,118,302.85,118.09,300.04z"/>
</g>
</svg>
