<?xml version="1.0" encoding="utf-8"?>
<!-- Generator: Adobe Illustrator 24.2.0, SVG Export Plug-In . SVG Version: 6.00 Build 0)  -->
<svg version="1.1" id="pic" xmlns="http://www.w3.org/2000/svg" xmlns:xlink="http://www.w3.org/1999/xlink" x="0px" y="0px"
	 viewBox="0 0 297.95 366.62" style="enable-background:new 0 0 297.95 366.62;" xml:space="preserve">
<style type="text/css">
	.st0{fill:#9EC55A;}
	.st1{fill:#C6D455;}
	.st2{fill:#FFFFFF;}
	.st3{fill:#FCDABE;}
	.st4{fill:#F4C998;}
	.st5{fill:#DB9E5C;}
	.st6{fill:#FABD49;}
	.st7{fill:#641811;}
	.st8{fill:none;stroke:#641811;stroke-width:2;stroke-linecap:round;stroke-linejoin:round;stroke-miterlimit:10;}
	.st9{fill:#EF847B;}
	.st10{fill:#9E5924;}
	.st11{fill:#A8D6CB;}
	.st12{fill:#CDE9FB;}
	.st13{fill:#F5B0AB;}
	.st14{fill:#FFE0A1;}
	.st15{fill:#C4D4DE;}
	.st16{fill:#90CFD3;}
	.st17{fill:#641811;stroke:#641811;stroke-width:0.75;stroke-linecap:round;stroke-linejoin:round;stroke-miterlimit:10;}
	.st18{fill:#FBC149;}
	.st19{fill:#641811;stroke:#641811;stroke-width:0.5;stroke-linecap:round;stroke-linejoin:round;stroke-miterlimit:10;}
	.st20{fill:#F6AD6D;}
	.st21{fill:#FFDB83;}
	.st22{fill:#B5C6D1;}
	.st23{fill:#ACCD67;}
	.st24{fill:#631711;}
	.st25{fill:#B8CFDD;}
	.st26{fill:#EF7E68;}
	.st27{fill:#FBC770;}
	.st28{fill:#FFE476;}
	.st29{fill:#9E82BA;}
	.st30{fill:#7369AD;}
	.st31{fill:#FFFFFF;stroke:#FFFFFF;stroke-width:0.4;stroke-miterlimit:10;}
	.st32{fill:#77BBE7;}
	.st33{fill:#98D2DC;}
	.st34{fill:#BBDFDF;}
	.st35{fill:#CCD85F;}
	.st36{fill:#F08573;}
	.st37{fill:#F5ACB4;}
	.st38{fill:#B1DDE9;}
	.st39{fill:#DBEFFC;}
	.st40{fill:#9BB6C5;}
	.st41{fill:#FDCA50;}
	.st42{fill:#FFE951;}
	.st43{fill:#82A4B4;}
	.st44{fill:#A2C2D9;}
	.st45{fill:#868D90;}
	.st46{fill:#FFDD8E;}
	.st47{fill:#C0BFBF;}
	.st48{fill:#ABCA58;}
	.st49{fill:#6EC5D8;}
	.st50{fill:#C43B6C;}
	.st51{fill:#EFBF6D;}
	.st52{fill:#8F3D8E;}
	.st53{fill:#514E9B;}
	.st54{fill:#F8BA7A;}
	.st55{fill:#F18E6C;}
	.st56{fill:#FFE485;}
	.st57{fill:#6FC4D2;}
	.st58{fill:#9AD3E3;}
	.st59{fill:#F5B8C2;}
	.st60{fill:#F39F8A;}
	.st61{fill:#BCE3F9;}
	.st62{fill:#AF7146;}
	.st63{fill:#D78858;}
	.st64{fill:#FFEB95;}
	.st65{fill:#D0E8E7;}
	.st66{clip-path:url(#SVGID_2_);}
	.st67{fill:#E8F5F9;}
	.st68{clip-path:url(#SVGID_2_);fill:#E8F5F9;}
	.st69{fill:#B1DBD9;}
	.st70{fill:#F4AAB7;}
	.st71{fill:#F5ACB8;}
	.st72{fill:#F4A09A;}
	.st73{fill:#C0E2E5;}
	.st74{fill:#641811;stroke:#641811;stroke-width:0.5;stroke-miterlimit:10;}
	.st75{fill:#FFD24D;}
	.st76{fill:#ADD3EA;}
	.st77{fill:#E1F2FD;}
	.st78{fill:#641811;stroke:#641811;stroke-width:0.25;stroke-miterlimit:10;}
	.st79{fill:#ED6A5C;}
	.st80{fill:#F4A7A8;}
	.st81{fill:#F8BD8C;}
	.st82{fill:#AF5E36;}
	.st83{fill:#C3D355;}
	.st84{fill:#D6ECF4;}
	.st85{fill:#D3752F;}
	.st86{fill:none;}
	.st87{fill:#F18881;}
	.st88{fill:#A6D9E9;}
</style>
<g>
	<path class="st33" d="M229.43,276.67c17.63-38.84,17.19-81.79,14.52-97.94c-6.98-42.22-47.29-74.39-98.21-74.74
		C97.17,103.65,18.63,206.4,68.7,285.62C105.93,344.52,198.32,345.2,229.43,276.67z"/>
	<path class="st34" d="M216.42,57.37c-20.11-20.67-54.44-23.41-80.37-15.98C110.19,48.8,85.38,67.77,77.46,95
		c-3.92,13.44-2.67,27.96,4.81,40.09c8.13,13.18,21.6,22.64,35.79,27.32c22.41,7.38,57.11,6.24,87.67-15.45
		c12.29-8.73,22.32-20.78,25.37-36.21C234.08,95.72,230.5,71.84,216.42,57.37z"/>
	<g>
		<path class="st2" d="M133.15,257.34c-6.97,3.35-15.84,2.58-22.17-1.84c-7.98-5.57-9.33-17.1-3-24.44
			c0.23-0.27,1.95-2.65,2.88-3.41c1.32-1.08,2.68-2.12,4.27-3.02c3.15-1.79,7.74-3.51,12.01-2.94c4.03,0.54,7.61,1.2,10.75,3.91
			c3.31,2.85,5.29,7.1,5.93,11.38C145.06,245.26,140.72,253.7,133.15,257.34z"/>
	</g>
	<g>
		<path class="st34" d="M132.6,307.39c-7.32,3.47-16.64,2.66-23.29-1.92c-8.38-5.77-9.82-17.71-3.17-25.3
			c0.24-0.28,2.04-2.74,3.03-3.53c1.39-1.12,2.81-2.19,4.48-3.13c3.31-1.85,8.13-3.63,12.62-3.03c4.24,0.56,7.99,1.25,11.3,4.05
			c3.48,2.96,5.56,7.35,6.24,11.78C145.11,294.89,140.55,303.63,132.6,307.39z"/>
	</g>
	<g>
		<path class="st34" d="M188.45,258.95c-6.97,3.35-15.84,2.58-22.17-1.84c-7.98-5.57-9.33-17.1-3-24.44
			c0.23-0.27,1.95-2.65,2.88-3.41c1.32-1.08,2.68-2.12,4.27-3.02c3.15-1.79,7.74-3.51,12.01-2.94c4.03,0.54,7.61,1.2,10.75,3.91
			c3.31,2.85,5.29,7.1,5.93,11.38C200.36,246.87,196.02,255.31,188.45,258.95z"/>
	</g>
	<g>
		<path class="st23" d="M136.51,255.03c0.03-0.98,0.06-1.95,0.08-2.93c0.02-0.55-0.43-0.93-0.96-0.99
			c-7.99-0.85-16.04-1.13-24.07-0.87c-0.32-0.75-1.77-0.64-1.91,0.4c-0.17,1.27-1,3.48,0.08,4.51c1.1,1.06,2.68,1.85,4.06,2.51
			c2.84,1.36,5.92,2.18,9.07,2.39c3.29,0.21,6.79-0.52,9.89-1.6c1.12-0.39,3.16-1.79,3.82-2.85
			C136.91,255.06,136.5,255.63,136.51,255.03z"/>
		<path class="st23" d="M126.13,231.47c-3.7-0.14-7.18,1.5-10.04,3.97c-2.76,2.38-5.88,5.87-6.43,9.78
			c-0.15,1.05,0.98,1.32,1.61,0.78c8.48,0.62,16.95,1.24,25.43,1.86c0.51,0.04,1.06-0.49,1.03-1.05
			C137.35,239.41,133.78,231.75,126.13,231.47z"/>
		<g>
			<path class="st24" d="M137.3,246.86c-9.3-0.1-18.59-0.58-27.85-1.43c-1.28-0.12-1.34,1.88-0.06,2
				c9.26,0.85,18.55,1.33,27.85,1.43C138.53,248.88,138.59,246.88,137.3,246.86z"/>
			<path class="st24" d="M133.86,235.23c-2.32-2.77-5.86-4.67-9.52-4.68c-3.84-0.02-7.22,2.15-9.88,4.76
				c-2.86,2.8-5.11,6.3-5.82,10.28c-0.22,1.25,1.69,1.85,1.91,0.59c0.6-3.38,2.34-6.36,4.7-8.82c2.28-2.39,5.21-4.64,8.64-4.79
				c7.3-0.31,11.46,7.01,12.02,13.38c0.11,1.27,2.11,1.34,2,0.06C137.57,242.11,136.4,238.27,133.86,235.23z"/>
			<path class="st24" d="M116.62,233.32c-0.82-1.38-1.63-2.76-2.45-4.13c-0.27-0.45-0.88-0.68-1.36-0.4
				c-0.45,0.27-0.68,0.88-0.4,1.36c0.82,1.38,1.63,2.76,2.45,4.13c0.27,0.45,0.88,0.68,1.36,0.4
				C116.67,234.4,116.91,233.8,116.62,233.32z"/>
			<path class="st24" d="M137.74,229.07c-0.5-0.28-1.05-0.14-1.38,0.32c-0.27,0.38-0.55,0.75-0.83,1.11
				c-0.15,0.19-0.29,0.38-0.44,0.56c-0.07,0.09-0.14,0.18-0.21,0.26c-0.04,0.04-0.07,0.09-0.11,0.13c-0.01,0.01-0.01,0.01-0.02,0.02
				c0,0,0,0-0.01,0.01c-0.6,0.72-1.22,1.43-1.86,2.11c-0.36,0.38-0.44,1.02-0.04,1.41c0.37,0.36,1.03,0.45,1.41,0.04
				c1.36-1.45,2.63-2.99,3.8-4.61C138.36,230.02,138.19,229.32,137.74,229.07z"/>
			<path class="st24" d="M120.05,238.09c-0.49-0.55-1.35-0.52-1.87-0.04c-0.23,0.21-0.37,0.47-0.48,0.74
				c-0.06,0.08-0.11,0.16-0.15,0.25c-0.17,0.42-0.26,0.84-0.33,1.28c-0.06,0.39-0.09,0.8-0.02,1.19c0.1,0.62,0.59,1.13,1.22,1.18
				c0.58,0.04,1.08-0.34,1.34-0.83c0.39-0.77,0.64-1.6,0.69-2.47C120.49,238.92,120.37,238.45,120.05,238.09z"/>
			<path class="st24" d="M130.28,238.29c-0.49-0.55-1.35-0.52-1.87-0.04c-0.23,0.21-0.37,0.47-0.48,0.74
				c-0.06,0.08-0.11,0.16-0.15,0.25c-0.17,0.42-0.26,0.84-0.33,1.28c-0.06,0.39-0.09,0.8-0.02,1.19c0.1,0.62,0.59,1.13,1.22,1.18
				c0.58,0.04,1.08-0.34,1.34-0.83c0.39-0.77,0.64-1.6,0.69-2.47C130.72,239.13,130.6,238.65,130.28,238.29z"/>
		</g>
		<g>
			<path class="st24" d="M110.44,249.87c-0.01-0.54-0.41-1.01-0.97-1.03c-0.52-0.02-1.04,0.43-1.03,0.97
				c0.05,2.66,0.08,2.32-0.08,4.98c-0.03,0.54,0.44,1.01,0.97,1.03c0.56,0.02,0.99-0.43,1.03-0.97
				C110.52,252.19,110.49,252.53,110.44,249.87z"/>
			<path class="st24" d="M136.58,250.14c-9.09,0.01-18.17-0.48-27.21-1.45c-1.28-0.14-1.29,1.86-0.02,2
				c9.04,0.98,18.12,1.46,27.21,1.45C137.84,252.14,137.87,250.14,136.58,250.14z"/>
			<path class="st24" d="M135.84,251.36l-0.13,4.6c-0.04,1.29,1.96,1.35,2,0.06l0.13-4.6C137.87,250.13,135.87,250.07,135.84,251.36
				z"/>
		</g>
	</g>
	<path class="st2" d="M211.25,189.93c-0.06-0.57-0.56-0.91-1.1-0.89c-2.28,0.08-6.37,0.52-8.65,0.6c-0.54,0.02-0.95,0.59-0.89,1.1
		c0.06,0.57,0.56,0.91,1.1,0.89c2.28-0.08,6.37-0.52,8.65-0.6C210.9,191.01,211.31,190.44,211.25,189.93z"/>
	<g>
		<path class="st26" d="M199.34,185.78c-1.75-7.01-5.83-10.45-12.8-11.94c-0.86-0.18-1.43-0.61-1.78-1.15
			c-3.39-0.02-6.73,0.72-10.12,0.73c-0.18,0.71-0.59,1.37-1.32,1.88c-2.39,1.67-4.69,3.68-6.64,5.95c-2.94,1.46-5.19,4.16-5.96,7.37
			c-0.84,3.51-0.81,7.91,0.94,11.16c0.48,1.72,1.23,3.34,2.31,4.7c4.48,6.78,12.53,9.45,20.26,8.4c6.85-1.84,12.36-7.07,16.59-12.69
			C201.61,195.46,200.43,190.15,199.34,185.78z"/>
		<path class="st27" d="M162.51,196.26c-0.15,0.24-0.29,0.5-0.42,0.75c0.04,1.55,0.4,3.11,1,4.61c2.31,3.19,5.41,6,9.02,7.52
			c5.25,2.21,11.24,2.39,16.86,2.18c-0.01-0.46-0.16-0.91-0.53-1.26c-0.77-0.73-1.73-1.22-2.49-1.94c-0.7-0.66-1.14-1.54-1.61-2.35
			c-0.92-1.58-2.01-3.21-3.71-4.06c-0.98-0.49-2.03-0.67-3.13-0.67c-0.68,0-1.8,0.27-2.39-0.1c-0.06-0.04-0.11-0.09-0.16-0.14
			c-0.78-4.11-3.17-8.19-7.79-8.75c-0.83-0.1-1.23-0.23-1.5-1.04c-0.27-0.79-0.4-1.62-0.8-2.37c-0.51-0.94-1.58-1.8-2.69-1.21
			c-0.98,0.52-1.01,1.68-0.93,2.64C161.4,192.19,161.84,194.25,162.51,196.26z"/>
		<path class="st28" d="M185.38,211.53c-1.32-2.79-7.01-3.42-9.47-4.49c-1.54-0.67-1.85-1.99-2.64-3.32
			c-0.67-1.12-1.64-1.83-2.88-2.23c-1.2-0.39-2.48-0.42-3.69-0.75c-1.48-0.41-2.06-1.32-2.14-2.84c-0.07-1.41,0.03-2.79-0.54-4.12
			c-0.56-1.31-1.59-2.37-2.86-3.02c-1.11-0.56-2.14,1.02-1.13,1.64c-0.01,0.09-0.04,0.18-0.02,0.28c0.32,2.91,0.67,5.84,1.8,8.57
			c1.07,2.6,2.89,4.68,5.15,6.32c2.19,1.59,4.68,2.71,7.15,3.79c2.67,1.17,8.1,2.91,10.88,1.51
			C185.48,212.64,185.6,212.01,185.38,211.53z"/>
		<path class="st29" d="M201.14,194.38c-0.02-0.17-0.12-0.32-0.25-0.45c-0.01-0.2-0.02-0.4-0.05-0.6c-0.06-0.49-0.66-0.82-1.13-0.74
			c0.07-1.97,0.13-3.94,0.17-5.91c0.07-3.4-0.91-6.42-4.41-7.58c-1.92-0.64-4.02-0.89-6.01-1.21c-2.09-0.34-4.2-0.59-6.31-0.77
			c-4.37-0.37-8.77-0.38-13.15-0.07c-0.66,0.05-1.27,0.36-1.6,0.88c-0.07-0.01-0.15-0.01-0.22-0.01c-0.04,0.05-0.09,0.09-0.14,0.13
			c-0.22,0.24-0.44,0.48-0.66,0.72c-0.12,0.13-0.23,0.27-0.35,0.4c-0.02,0.03-0.03,0.04-0.05,0.06c0,0.01,0,0.01-0.01,0.01
			c-0.38,0.49-0.77,0.98-1.13,1.49c-0.24,0.33-0.46,0.68-0.68,1.02c0.3,0.1,0.65,0.12,1.04,0c1.2-0.35,2.45-0.29,3.56,0.32
			c1.32,0.72,1.94,2.01,2.49,3.35c0.62,1.49,1.17,2.99,2.23,4.24c1.09,1.28,2.61,1.96,4.24,2.23c2.85,0.46,5.73-0.2,7.84,2.19
			c1.86,2.11,2.6,4.98,3.82,7.45c1.03,2.08,2.7,4.62,4.97,5.62c0.13-0.18,0.25-0.37,0.38-0.55c0.46-0.71,1.14-1.17,1.94-1.4
			c0.1-0.03,0.2-0.04,0.3-0.06c0.47-0.66,0.94-1.33,1.38-2.01l0.09-2.88c0.28-0.04,0.53-0.18,0.68-0.44
			C201.06,198.15,201.39,196.28,201.14,194.38z"/>
		<path class="st30" d="M202.26,191.07c-0.07-2.89-0.23-5.86-1.32-8.57c-1.11-2.74-3.21-4.73-5.71-6.22
			c-3.02-1.8-6.44-2.88-9.94-3.19c-2.97-0.26-6.51-0.15-8.81,2.01c-1.7-0.62-3.65-0.32-5.07,0.86c-1,0.82,0.38,2.27,1.37,1.45
			c0.92-0.76,2.24-0.84,3.3-0.34c1.42,0.67,1.5,2.17,2.22,3.39c1.42,2.41,4.01,1.83,6.35,2.15c2.5,0.35,3.05,3.05,4.46,4.75
			c0.71,0.86,1.64,1.44,2.74,1.64c1.4,0.26,3.12-0.26,4.05,1.11c1.17,1.71,0.68,4.96,3.28,5.49
			C201.82,196.14,202.3,192.93,202.26,191.07z"/>
		<g>
			<path class="st31" d="M194.4,191.64c0.01-2.55,0.34-5.81-1.07-8.09c-1.54-2.49-5.05-2.78-7.69-2.95
				c-1.87-0.12-3.75-0.06-5.63-0.01c-1.79,0.05-3.61-0.03-5.4,0.15c-2.85,0.28-5.73,1.76-6.19,4.85c-0.15,1,1.43,1.04,1.57,0.05
				c0.4-2.74,3.72-3.34,5.96-3.41c2.7-0.08,5.43-0.17,8.14-0.12c1.42,0.03,2.85,0.12,4.24,0.39c1.21,0.23,2.59,0.52,3.4,1.53
				c1.44,1.78,1.07,4.88,1.07,7c0,2.82-0.06,5.66-0.4,8.46c-0.15,1.21-0.28,2.59-0.95,3.64c-0.6,0.96-1.64,1.47-2.7,1.75
				c-2.46,0.65-5.18,0.46-7.69,0.33c-1.43-0.07-2.85-0.18-4.27-0.28c-1.53-0.1-3.16-0.07-4.62-0.57c-3.22-1.08-2.83-4.26-2.7-7.03
				c0.16-3.31,0.31-6.62,0.47-9.93c0.05-1.01-1.53-1.06-1.57-0.05c-0.17,3.51-0.33,7.01-0.5,10.52c-0.13,2.67-0.23,5.57,2.25,7.24
				c1.22,0.82,2.7,1.09,4.14,1.22c1.73,0.16,3.47,0.24,5.2,0.35c3.07,0.2,6.37,0.48,9.39-0.22c2.63-0.61,4.28-2.26,4.8-4.92
				C194.33,198.31,194.38,194.94,194.4,191.64z"/>
			<path class="st31" d="M189.69,186.28c-0.08-0.19-0.24-0.33-0.4-0.45c-0.09-0.06-0.19-0.1-0.29-0.14
				c-0.1-0.04-0.22-0.05-0.32-0.06c-0.11-0.01-0.22,0-0.32,0.03c-0.15,0.04-0.25,0.1-0.35,0.17c-0.18,0.01-0.36,0.07-0.49,0.2
				c-0.15,0.15-0.24,0.34-0.25,0.55c-0.01,0.24,0.05,0.44,0.14,0.66c0.02,0.04,0.04,0.08,0.06,0.12c0.06,0.08,0.12,0.18,0.2,0.26
				c0.16,0.15,0.35,0.28,0.56,0.34c0.21,0.06,0.45,0.07,0.66,0.01c0.21-0.06,0.4-0.16,0.56-0.32c0.15-0.15,0.28-0.34,0.33-0.55
				c0.02-0.1,0.05-0.21,0.04-0.32C189.8,186.56,189.78,186.47,189.69,186.28z"/>
			<path class="st31" d="M183.56,188.05c-0.97-0.28-1.44,1.22-0.46,1.5c1.54,0.44,2.68,1.88,2.83,3.47
				c0.15,1.58-0.79,3.11-2.12,3.92c-3.1,1.88-7.75-0.78-7.1-4.53c0.33-1.94,2.01-3.9,4.16-3.42c0.98,0.22,1.45-1.29,0.46-1.51
				c-2.58-0.57-4.9,1.04-5.83,3.41c-0.98,2.5-0.19,5.13,1.87,6.79c1.78,1.43,4.24,1.92,6.37,1.05c2.03-0.83,3.56-2.77,3.74-4.97
				C187.7,191.25,185.97,188.75,183.56,188.05z"/>
		</g>
	</g>
	<path class="st2" d="M122.9,144.23c-5.96,0.1-11.89,1.02-17.58,2.79c-2.5,0.78-5.23,1.61-7.47,2.99c-2.16,1.34-3.31,3.35-3.86,5.79
		c-1.34,5.95-1.97,12.15-2.67,18.2c-0.73,6.26-1.28,12.55-1.69,18.84c-1.65,25.12-1.29,50.39-0.72,75.54
		c0.08,3.51,0.21,7.02,0.49,10.52c0.23,2.83,0.47,5.72,1.58,8.37c1.79,4.28,7.26,7.59,11.42,4.2c1-0.82-0.38-2.27-1.37-1.45
		c-1.66,1.36-4.03,0.9-5.69-0.22c-2-1.36-2.88-3.8-3.34-6.07c-1.09-5.35-1-11.07-1.11-16.51c-0.23-11.65-0.39-23.31-0.38-34.96
		c0.01-23.27,0.84-46.61,4.36-69.64c0.25-1.67,0.51-3.34,0.81-5c0.25-1.39,0.52-2.85,1.28-4.06c1.51-2.4,5.01-3.31,7.53-4.16
		c5.92-2,12.12-3.06,18.37-3.17C124.12,146.21,124.19,144.21,122.9,144.23z"/>
	<path class="st2" d="M104.57,239.64c-3.41,0.68-11.09,0.52-14.53-0.05c-0.53-0.09-1.08,0.1-1.25,0.66
		c-0.14,0.46,0.13,1.16,0.66,1.25c3.81,0.64,11.8,0.84,15.59,0.09C106.31,241.33,105.84,239.39,104.57,239.64z"/>
	<path class="st2" d="M104.73,188.36c-4.13-0.24-8.26-0.47-12.38-0.71c-1.29-0.07-1.34,1.93-0.06,2c4.13,0.24,8.26,0.47,12.38,0.71
		C105.95,190.44,106.01,188.44,104.73,188.36z"/>
	<path class="st2" d="M214.08,236.01c0.13-24.98-1.33-49.96-4.36-74.76c-0.38-3.1-0.62-6.3-1.34-9.35c-0.57-2.39-1.6-4.76-3.64-6.25
		c-2.28-1.68-5.25-1.77-7.97-1.88c-3.6-0.14-7.2-0.29-10.8-0.43c-1.29-0.05-1.35,1.95-0.06,2c2.86,0.11,5.73,0.23,8.59,0.34
		c2.47,0.1,5.17-0.06,7.53,0.79c4.64,1.66,4.79,7.76,5.31,11.86c1.44,11.24,2.55,22.53,3.34,33.84c1.56,22.55,1.82,45.19,0.78,67.77
		c-0.29,6.36-0.69,12.71-1.19,19.06c-0.12,1.55-0.25,3.09-0.38,4.64c-0.06,0.73-0.13,1.46-0.2,2.19c-0.06,0.71,0.01,1.85-0.55,2.4
		c-0.47,0.47-1.4,0.63-2.01,0.83c-0.75,0.25-1.49,0.5-2.24,0.74c-1.33,0.44-2.65,0.88-3.98,1.32c-0.47-0.52-0.75-1.12-0.79-1.89
		c-0.06-1.28-2.06-1.35-2-0.06c0.05,1.07,0.33,2.05,0.98,2.92c0.92,1.23,1.52,1.23,2.91,0.76c1.42-0.47,2.83-0.94,4.25-1.42
		c1.23-0.41,2.67-0.7,3.77-1.4c0.87-0.55,1.3-1.4,1.46-2.39c0.26-1.54,0.31-3.14,0.45-4.69c0.26-3.09,0.51-6.18,0.72-9.27
		C213.54,261.14,214.01,248.57,214.08,236.01z"/>
	<path class="st2" d="M211.82,237.32c-3.82,0.33-7.6,0.91-11.34,1.74c0.22,0.51,0.36,1.07,0.43,1.63c0.01,0.1,0.01,0.21,0.02,0.32
		c3.57-0.8,7.19-1.37,10.84-1.69c0.54-0.05,1.01-0.39,1.03-0.97C212.8,237.86,212.36,237.27,211.82,237.32z"/>
	<path class="st2" d="M143.36,177.79c-2.75-3.78-6.81-6.03-11.29-7.15c-4.97-1.23-10.21-0.7-14.91,1.79
		c-2.72,1.45-5.17,3.16-7.23,5.25c-1.13,1.15-3.17,4.14-3.17,4.31c-4.77,6.96-4.47,16.4,1.22,22.91c5.77,6.6,16,8.67,24.21,6.19
		c8.71-2.63,14.92-10.59,15.25-19.72C147.63,186.58,146.19,181.68,143.36,177.79z M134.59,208.04c-6.97,3.35-15.84,2.58-22.17-1.84
		c-7.98-5.57-9.33-17.1-3-24.44c0.23-0.27,1.95-2.65,2.88-3.41c1.32-1.08,2.68-2.12,4.27-3.02c3.15-1.79,7.74-3.51,12.01-2.94
		c4.03,0.54,7.61,1.2,10.75,3.91c3.31,2.85,5.29,7.1,5.93,11.38C146.49,195.96,142.15,204.4,134.59,208.04z"/>
	<path class="st34" d="M134.59,208.04c-6.97,3.35-15.84,2.58-22.17-1.84c-7.98-5.57-9.33-17.1-3-24.44
		c0.23-0.27,1.95-2.65,2.88-3.41c1.32-1.08,2.68-2.12,4.27-3.02c3.15-1.79,7.74-3.51,12.01-2.94c4.03,0.54,7.61,1.2,10.75,3.91
		c3.31,2.85,5.29,7.1,5.93,11.38C146.49,195.96,142.15,204.4,134.59,208.04z"/>
	<g>
		<path class="st7" d="M198.66,179.4c-2.75-3.78-6.81-6.03-11.29-7.15c-4.97-1.23-10.21-0.7-14.91,1.79
			c-2.72,1.45-5.17,3.16-7.23,5.25c-1.13,1.15-3.17,4.14-3.17,4.31c-4.77,6.96-4.47,16.4,1.22,22.91c5.77,6.6,16,8.67,24.21,6.19
			c8.71-2.63,14.92-10.59,15.25-19.72C202.93,188.19,201.5,183.29,198.66,179.4z M189.89,209.65c-6.97,3.35-15.84,2.58-22.17-1.84
			c-7.98-5.57-9.33-17.1-3-24.44c0.23-0.27,1.95-2.65,2.88-3.41c1.32-1.08,2.68-2.12,4.27-3.02c3.15-1.79,7.74-3.51,12.01-2.94
			c4.03,0.54,7.61,1.2,10.75,3.91c3.31,2.85,5.29,7.1,5.93,11.38C201.79,197.57,197.45,206.01,189.89,209.65z"/>
	</g>
	<g>
		<path class="st7" d="M141.93,227.09c-2.75-3.78-6.81-6.03-11.29-7.15c-4.97-1.23-10.21-0.7-14.91,1.79
			c-2.72,1.45-5.17,3.16-7.23,5.25c-1.13,1.15-3.17,4.14-3.17,4.31c-4.77,6.96-4.47,16.4,1.22,22.91c5.77,6.6,16,8.67,24.21,6.19
			c8.71-2.63,14.92-10.59,15.25-19.72C146.19,235.88,144.76,230.98,141.93,227.09z M133.15,257.34c-6.97,3.35-15.84,2.58-22.17-1.84
			c-7.98-5.57-9.33-17.1-3-24.44c0.23-0.27,1.95-2.65,2.88-3.41c1.32-1.08,2.68-2.12,4.27-3.02c3.15-1.79,7.74-3.51,12.01-2.94
			c4.03,0.54,7.61,1.2,10.75,3.91c3.31,2.85,5.29,7.1,5.93,11.38C145.06,245.26,140.72,253.7,133.15,257.34z"/>
	</g>
	<g>
		<path class="st2" d="M197.23,228.7c-2.75-3.78-6.81-6.03-11.29-7.15c-4.97-1.23-10.21-0.7-14.91,1.79
			c-2.72,1.45-5.17,3.16-7.23,5.25c-1.13,1.15-3.17,4.14-3.17,4.31c-4.77,6.96-4.47,16.4,1.22,22.91c5.77,6.6,16,8.67,24.21,6.19
			c8.71-2.63,14.92-10.59,15.25-19.72C201.49,237.49,200.06,232.59,197.23,228.7z M188.45,258.95c-6.97,3.35-15.84,2.58-22.17-1.84
			c-7.98-5.57-9.33-17.1-3-24.44c0.23-0.27,1.95-2.65,2.88-3.41c1.32-1.08,2.68-2.12,4.27-3.02c3.15-1.79,7.74-3.51,12.01-2.94
			c4.03,0.54,7.61,1.2,10.75,3.91c3.31,2.85,5.29,7.1,5.93,11.38C200.36,246.87,196.02,255.31,188.45,258.95z"/>
	</g>
	<g>
		<path class="st7" d="M196.36,278.01c-2.75-3.78-6.81-6.03-11.29-7.15c-4.97-1.23-10.21-0.7-14.91,1.79
			c-2.72,1.45-5.17,3.16-7.23,5.25c-1.13,1.15-3.17,4.14-3.17,4.31c-4.77,6.96-4.47,16.4,1.22,22.91c5.77,6.6,16,8.67,24.21,6.19
			c8.71-2.63,14.92-10.59,15.25-19.72C200.62,286.8,199.19,281.9,196.36,278.01z M187.58,308.27c-6.97,3.35-15.84,2.58-22.17-1.84
			c-7.98-5.57-9.33-17.1-3-24.44c0.23-0.27,1.95-2.65,2.88-3.41c1.32-1.08,2.68-2.12,4.27-3.02c3.15-1.79,7.74-3.51,12.01-2.94
			c4.03,0.54,7.61,1.2,10.75,3.91c3.31,2.85,5.29,7.1,5.93,11.38C199.49,296.19,195.14,304.63,187.58,308.27z"/>
		<path class="st32" d="M187.58,308.27c-6.97,3.35-15.84,2.58-22.17-1.84c-7.98-5.57-9.33-17.1-3-24.44
			c0.23-0.27,1.95-2.65,2.88-3.41c1.32-1.08,2.68-2.12,4.27-3.02c3.15-1.79,7.74-3.51,12.01-2.94c4.03,0.54,7.61,1.2,10.75,3.91
			c3.31,2.85,5.29,7.1,5.93,11.38C199.49,296.19,195.14,304.63,187.58,308.27z"/>
	</g>
	<g>
		<circle class="st2" cx="153.6" cy="93.61" r="45.21"/>
		<g>
			<g>
				<path class="st23" d="M175.93,118.87c-3.25-2.62-7.04-3.82-11.14-4.33c-4.56-0.56-9.14-0.98-13.71-1.46
					c-0.6-0.06-1.07,0.11-1.43,0.41c-0.65-0.13-1.36,0.04-1.91,0.7c-1.02,1.24-1.29,2.75-1.43,4.3c-0.15,1.64-0.34,2.6-1.7,3.61
					c-1.09,0.81-2.58,1.43-3.18,2.72c-2.36,0.3-6.34,0.62-6.42-1.14c-0.03-0.75-0.83-1.25-1.5-0.86c-1.76,1.01-6.08,4.15-3.69,6.42
					c1.18,1.12,3.21,1.69,4.67,2.33c1.72,0.75,3.46,1.47,5.23,2.08c5.09,1.75,10.59,2.61,15.82,1.58c0.65,0.28,1.29,0.58,1.95,0.84
					c6.99-1.85,13.91-3.99,20.26-7.38c1.29-1.11,2.55-2.26,3.77-3.47C179.98,122.84,178.14,120.66,175.93,118.87z"/>
				<path class="st3" d="M177.48,86.91c-0.24-2.23-1.17-4.13-3.56-4.59c-0.92-0.18-1.84-0.09-2.75,0.06
					c-0.53,0.09-1.64,0.44-2.13,0.12c-0.23-0.15-0.49-1.24-0.76-1.69c-0.57-0.97-1.6-1.63-2.73-1.65c-2.41-0.05-4.31,2.13-5.98,3.58
					c-0.75,0.66-3.77,2.91-4.48,0.99c-0.89-2.4-4.71-1.21-3.81,1.22c0.07,0.19,0.15,0.36,0.24,0.54c-0.74,0.07-1.43,0.53-1.64,1.48
					c-1.73,7.76,1.58,16.06,7.97,20.65c-0.44,0.95-0.69,1.96-0.55,3.07c0.22,1.72,1.54,3.24,3.24,3.64c3.62,0.85,4.62-2.6,4.76-5.65
					c2.98,0.4,6.12-0.25,8.42-2.24c3.38-2.92,3.71-7.94,3.94-12.09C177.8,91.88,177.75,89.38,177.48,86.91z"/>
				<path class="st13" d="M158.83,98.17c-0.36-1.95-1.95-3.65-3.91-4.05c-1.17-0.24-2.46-0.06-3.46,0.63
					c-0.94,0.65-1.75,1.71-1.88,2.87c-0.06,0.55-0.05,1.04,0.26,1.53c0.2,0.32,0.55,0.61,0.93,0.77c0.2,0.77,0.58,1.49,1.12,2.07
					c0.78,0.83,2.02,1.17,3.13,1.04c1.08-0.12,2.34-0.38,3.13-1.18C159.11,100.87,159.06,99.42,158.83,98.17z"/>
				<path class="st13" d="M178.23,97.25c-0.08-0.3-0.22-0.58-0.41-0.82c0-0.71-0.34-1.41-1.03-1.76c-1.14-0.57-2.48-0.48-3.55,0.19
					c-0.78,0.49-1.39,1.28-1.76,2.11c-0.75,1.67-0.9,3.56-0.35,5.31c0.14,0.45,0.34,0.89,0.56,1.3c0.59,1.08,1.92,1.22,2.93,0.74
					c0.8-0.37,1.38-1.13,1.91-1.82c0.51-0.66,0.99-1.35,1.3-2.13C178.2,99.4,178.5,98.3,178.23,97.25z"/>
				<path class="st2" d="M164.51,99.24c-0.1-0.27-0.29-0.53-0.56-0.67c-0.37-0.19-0.8-0.18-1.17,0c-0.01-0.01-0.01-0.03-0.02-0.04
					c-0.07-0.11-0.16-0.2-0.27-0.27c-0.1-0.08-0.22-0.14-0.35-0.17c-0.24-0.06-0.56-0.01-0.77,0.13c-0.21,0.15-0.39,0.36-0.44,0.62
					l-0.03,0.27c0.01,0.18,0.06,0.35,0.16,0.5c0.15,0.31,0.3,0.63,0.44,0.94c0.09,0.2,0.21,0.38,0.38,0.52
					c0.27,0.22,0.62,0.37,0.98,0.34c0.51-0.05,0.96-0.34,1.26-0.74c0.08-0.11,0.17-0.22,0.24-0.34c0.02-0.03,0.03-0.06,0.04-0.09
					c0.05-0.11,0.1-0.22,0.12-0.34C164.59,99.69,164.59,99.46,164.51,99.24z"/>
				<path class="st14" d="M177.55,82.63c0,0.16,0.02,0.32,0.05,0.48c0.11,0.49,0.22,0.99,0.33,1.49c0.06-0.06,0.12-0.12,0.19-0.17
					c0.96-0.66,2.01-1.13,3.11-1.5c0.13-0.04,0.26-0.08,0.39-0.12c-0.07-0.31-0.14-0.62-0.21-0.92c-0.06-0.26-0.16-0.47-0.28-0.65
					c1.08-0.67,1.98-1.57,2.45-2.78c0.88-2.28-0.05-5.25-2.61-5.89c-1.25-0.32-2.55,0.27-3.75-0.09c-1.11-0.33-2.03-1.28-2.89-2.01
					c-2.13-1.79-4.55-3.07-7.33-3.52c-3.01-0.48-6.09-0.14-8.94,0.95c-1.43,0.55-2.82,1.26-4.11,2.09
					c-0.69,0.45-1.35,0.93-1.99,1.45c-0.24,0.19-0.47,0.39-0.71,0.59c-0.11,0.1-0.23,0.2-0.34,0.29c-1.22-0.81-2.93-0.68-4.19,0.16
					c-1.18,0.79-1.71,2.05-1.96,3.39c-0.67-0.4-1.43-0.68-2.11-0.83c-2.12-0.46-4.23,0.34-5.26,2.3c-0.98,1.88-0.85,4.13-0.78,6.18
					l0.23,6.68c-2.46-2.17-5.2-4.17-8.47-4.67c-1.87-0.29-3.89-0.04-5.36,1.25c-1.34,1.19-1.94,2.97-2.1,4.71
					c-0.22,2.33,0.26,4.66,1.02,6.86c0.37,1.07,0.86,2.09,1.26,3.14c0.17,0.46,0.39,0.9,0.03,1.28c-0.31,0.33-1,0.47-1.41,0.69
					c-3.34,1.77-4.48,5.68-1.84,8.6c0.56,0.62,1.22,1.13,1.91,1.59c0.79,0.53,1.8,0.88,2.48,1.54c1.37,1.33-0.52,3.52,1.08,4.96
					c1.52,1.38,4.09,0.67,5.87,0.33c1.09-0.21,2.23-0.43,3.34-0.2c1.18,0.24,1.82,1.03,2.46,1.98c1,1.49,2.1,2.82,4.01,3
					c1.73,0.17,3.38-0.72,4.19-2.25c0.98-1.85,0.25-3.66-0.46-5.46c-0.5-1.28-1.02-2.65-1.18-4.04c0.82-0.24,1.63-0.83,2.23-1.41
					c0.43-0.41,0.82-0.85,1.25-1.26c0.01-0.01,0.03-0.03,0.05-0.04l0,0c0.09,0.04,0.18,0.07,0.29,0.11c2.13,0.77,4.76,0.81,6.86-0.1
					c1.54-0.67,2.51-2.09,2.11-3.81c-0.31-1.33-1.35-2.24-2.54-2.8c-1.65-0.77-3.28-1.56-4.87-2.43c0.26-1.17,0.46-2.36,0.6-3.52
					c0.55-4.43,0.27-8.9-0.81-13.22c1.28-0.56,2.36-1.51,3.32-2.54c0.6-0.65,1.2-1.43,1.87-2.11c0.9,1.25,2.33,2.13,3.92,2.21
					c1.42,0.07,2.67-0.57,3.87-1.27c1.37-0.8,2.73-1.64,4.1-2.44c0.71-0.41,2.14-1.34,2.97-0.7c0.29,0.22,0.44,0.82,0.58,1.13
					c0.31,0.7,0.64,1.35,1.17,1.91C172.46,83.15,175.16,83.16,177.55,82.63z"/>
				<path class="st14" d="M154.76,55.86c-0.75-0.4-1.85-0.27-2.41,0.41c-0.75,0.92-1.33,1.92-1.77,2.97
					c-0.19-0.37-0.4-0.74-0.64-1.06c-1-1.3-2.61-1.86-4.1-0.98c-1.11,0.66-1.83,1.95-2.13,3.16c-0.01,0.04-0.01,0.09-0.02,0.13
					c-0.47-0.3-0.98-0.53-1.57-0.59c-1.51-0.17-2.82,0.8-3.23,2.24c-0.31,1.11-0.06,2.3,0.33,3.35c0.8,2.18,2.05,4.13,3.66,5.81
					c1.83,1.9,4.1,3.26,6.58,4.11c0.6,0.21,1.24-0.01,1.71-0.42c0.43,0.37,1.01,0.55,1.61,0.43c0.92-0.18,1.75-1.03,1.65-2.03
					c-0.05-0.51-0.12-1.02-0.18-1.52c0.14-0.2,0.24-0.43,0.26-0.68c0.41-4.37,0.82-8.74,1.24-13.11
					C155.86,57.18,155.62,56.32,154.76,55.86z M148.95,66.1c-0.22-0.3-0.44-0.59-0.67-0.88c-0.08-0.1-0.17-0.2-0.26-0.3
					c-0.21-0.67-0.38-1.35-0.45-1.92c-0.03-0.26-0.04-0.52-0.05-0.78c0,0.01,0.01,0.02,0.01,0.03c0.51,1.2,0.96,2.42,1.35,3.66
					C148.92,65.96,148.93,66.03,148.95,66.1z"/>
				<path class="st14" d="M185.57,114.99c-0.87-0.67-2.99-1.79-2.55-3.07c0.23-0.68,1.01-1.36,1.47-1.88
					c0.54-0.6,1.1-1.18,1.61-1.81c2.53-3.11,3.1-7.18,2.09-11c-1.03-3.93-3.46-7.22-5.89-10.4c-0.91-1.19-2.34-0.85-3.08,0.05
					c-0.7,0.17-1.27,0.7-1.32,1.65c-0.35,6.69-0.68,14.38-5.7,19.45c-0.93,0.94-2.02,1.74-3.21,2.31c-1.75,0.84-3.12,2.15-2.41,4.27
					c0.05,0.16,0.12,0.31,0.19,0.46c2.61,0.88,5.17,1.68,7.37,3.52c0.92,0.77,1.7,1.65,2.39,2.58c0.57,0.28,1.12,0.6,1.63,0.98
					c0.44,0.33,0.84,0.69,1.18,1.14c0.49,0.66,0.69,1.47,1.18,2.13c0.12,0.16,0.25,0.3,0.38,0.43c2.6-2.51,5.05-5.21,7.36-8.02
					C187.55,116.71,186.56,115.76,185.57,114.99z"/>
				<path class="st7" d="M179.5,86.53c0.31-1.25-1.68-1.46-1.99-0.23c-1.77,7.23,1.36,20.01-8.74,22.07
					c-7.64,1.56-15.94-3.59-18.84-10.6c-0.13-0.32-0.36-0.48-0.61-0.55c-0.06,0.67-0.18,1.32-0.42,2.02
					c-0.07,0.2-0.14,0.39-0.22,0.58c2.84,5.6,8.53,9.56,14.72,10.57c3.24,0.53,6.73,0.2,9.56-1.56c2.97-1.85,4.49-5.08,5.18-8.4
					C179.09,95.86,178.38,91.1,179.5,86.53z"/>
				<path class="st7" d="M149.7,87.25c-0.12-1.28-2.1-0.97-1.98,0.31c0.41,4.26,0.82,8.58,0.15,12.84
					c-0.29,1.86-0.71,3.99-1.94,5.49c-1.17,1.44-3.04,2.11-4.33,3.43c-2.22,2.27-1.68,4.8,0.13,7.09c0.73,0.93,1.86,2,1.8,3.28
					c-0.08,1.73-2.15,2.72-3.49,3.37c-1.15,0.56-0.35,2.4,0.81,1.83c2.69-1.31,5.75-3.62,4.32-7c-0.53-1.26-1.54-2.22-2.32-3.31
					c-1.19-1.66-0.8-3.14,0.81-4.42c1.53-1.21,3.27-2.01,4.34-3.72c1-1.6,1.46-3.5,1.79-5.34C150.59,96.53,150.14,91.84,149.7,87.25
					z"/>
				<path class="st7" d="M152.25,80.96c-0.51-0.18-1.1,0.03-1.3,0.55c-0.11,0.28-0.23,0.55-0.37,0.82c-0.03,0.06-0.07,0.13-0.1,0.19
					c0.1-0.2-0.03,0.05-0.04,0.07c-0.07,0.12-0.15,0.24-0.23,0.36c-0.16,0.25-0.34,0.49-0.53,0.72c-0.09,0.11-0.18,0.22-0.28,0.32
					c-0.05,0.05-0.1,0.1-0.14,0.16c-0.02,0.02-0.02,0.02-0.03,0.03c-0.01,0.01-0.01,0.01-0.03,0.03c-0.42,0.41-0.87,0.78-1.35,1.1
					c-0.06,0.04-0.12,0.08-0.18,0.12c-0.02,0.01-0.02,0.02-0.03,0.02c-0.01,0.01-0.02,0.01-0.04,0.02c-0.12,0.07-0.25,0.14-0.37,0.2
					c-0.28,0.14-0.56,0.27-0.86,0.38c-0.49,0.19-0.74,0.85-0.51,1.32c0.25,0.5,0.8,0.72,1.32,0.51c2.55-0.99,4.63-3.09,5.63-5.63
					C152.99,81.78,152.76,81.14,152.25,80.96z"/>
				<path class="st7" d="M177.68,82.08c-2.18,0.82-4.4-0.43-6.29-1.44c-1.82-0.98-3.71-1.95-5.83-1.88c-1.94,0.06-3.65,0.99-5.25,2
					c-0.88,0.55-1.8,1.26-2.85,1.44c-0.75,0.13-1.84-0.06-2.04-0.94c-0.29-1.24-2.27-0.95-1.98,0.31c0.42,1.8,2.15,2.84,3.96,2.66
					c2.45-0.25,4.27-2.3,6.52-3.12c2.8-1.02,5.22,0.64,7.62,1.88c2.17,1.12,4.56,1.82,6.93,0.93
					C179.69,83.46,178.88,81.63,177.68,82.08z"/>
				<path class="st7" d="M184.6,79.27c-0.47-0.16-1.15,0.02-1.3,0.55c-0.08,0.3-0.2,0.57-0.33,0.85c-0.01,0.03-0.01,0.03-0.02,0.04
					c0,0,0,0-0.01,0.01c-0.04,0.06-0.08,0.13-0.12,0.19c-0.08,0.13-0.17,0.25-0.27,0.37c-0.04,0.05-0.08,0.09-0.12,0.14
					c0,0-0.08,0.09-0.11,0.12c-0.04,0.03-0.09,0.08-0.1,0.09c-0.06,0.05-0.11,0.1-0.17,0.15c-0.12,0.1-0.24,0.18-0.37,0.27
					c-0.02,0.01-0.02,0.01-0.02,0.02c-0.01,0.01-0.01,0.01-0.03,0.02c-0.07,0.04-0.13,0.07-0.2,0.11c-1.06,0.52-2.17,0.5-3.23,0
					c-0.47-0.22-1.13,0.06-1.3,0.55c-0.19,0.54,0.05,1.06,0.55,1.3c1.48,0.7,3.32,0.7,4.79-0.03c1.38-0.69,2.49-1.95,2.91-3.45
					C185.29,80.07,185.15,79.46,184.6,79.27z"/>
				<path class="st7" d="M181.13,72.25c-2.43,1.3-4.99,0.01-6.95-1.54c-2.05-1.63-3.85-3.62-6.29-4.69c-4.57-2-10.16,0.45-13,4.24
					c-0.77,1.03,0.83,2.23,1.6,1.2c1.46-1.96,3.56-3.3,5.93-3.88c2.99-0.73,5.39,0.37,7.66,2.26c3.24,2.7,7.29,6.69,11.85,4.25
					C183.07,73.47,182.27,71.64,181.13,72.25z"/>
				<path class="st7" d="M146.13,71.46c-2.08-0.28-3.98,0.46-5.74,1.51c-1.68,0.99-3.5,2.08-4.7,3.64c-1.25,1.62-1.4,3.6-1.24,5.57
					c0.08,1.05,0.52,2.48,0.25,3.5c-0.19,0.7-0.67,0.37-1.19,0.19c-0.71-0.25-1.41-0.51-2.11-0.76c-3.08-1.12-8.07-3.81-10.8-0.61
					c-2.67,3.13-0.9,7.68,0.33,10.99c0.29,0.79,1.25,2.54,0.71,3.29c-0.43,0.59-1.33,0.88-1.9,1.31c-0.55,0.42-1.32,1.16-1.21,1.93
					c0.12,0.87,0.96,1.23,1.73,1.14c0.82-0.09,0.98-0.94,0.65-1.5c0.69-0.62,1.77-0.96,2.34-1.69c0.95-1.21,0.46-2.63,0.01-3.94
					c-0.61-1.79-1.42-3.55-1.81-5.41c-0.34-1.65-0.47-4.2,1.15-5.26c1.39-0.91,3.38-0.1,4.78,0.4c2.05,0.74,4.09,1.61,6.18,2.23
					c4.34,1.27,2.89-4.54,2.83-6.87c-0.07-2.56,1.29-3.99,3.3-5.35c1.84-1.24,3.9-2.65,6.23-2.34
					C147.17,73.62,147.4,71.63,146.13,71.46z"/>
				<path class="st7" d="M153.94,70.78c-1.4-1.24-2.99-2.49-4.96-2.46c-0.95,0.01-1.89,0.3-2.59,0.97
					c-0.74,0.71-1.12,1.62-1.05,2.65c0.04,0.54,0.64,0.91,1.14,0.83c0.57-0.09,0.87-0.6,0.83-1.14c0.01,0.14,0-0.02,0.01-0.08
					c0-0.01,0.01-0.07,0.01-0.11c0.01-0.04,0.05-0.16,0.05-0.16c0.02-0.06,0.05-0.11,0.07-0.16c0.01-0.02,0.02-0.04,0.03-0.05
					c0.05-0.07,0.1-0.14,0.15-0.2c0.02-0.02,0.02-0.03,0.02-0.03c0,0,0,0,0.01-0.01c0.06-0.06,0.13-0.11,0.19-0.17
					c0.17-0.13,0.35-0.23,0.58-0.28c0.36-0.08,0.52-0.08,0.89-0.04c0.55,0.07,1.16,0.32,1.65,0.65c0.63,0.41,1.19,0.91,1.76,1.4
					c0.41,0.36,1.09,0.21,1.4-0.2C154.49,71.72,154.35,71.14,153.94,70.78z"/>
				<path class="st7" d="M147.32,62.31c-1.38-2.92-4.81-7.31-8.46-5.17c-1.65,0.96-2.41,2.8-2.36,4.66
					c0.05,1.96,0.99,3.75,2.08,5.33c1.2,1.74,2.72,3.26,4.44,4.49c1.05,0.75,2.25-0.85,1.2-1.6c-1.56-1.12-2.91-2.47-4.01-4.04
					c-1.01-1.45-1.95-3.21-1.66-5.04c0.24-1.51,1.71-2.93,3.28-2.13c1.64,0.84,2.91,2.7,3.67,4.32
					C146.03,64.28,147.87,63.48,147.32,62.31z"/>
				<path class="st7" d="M151,56.98c-1.01-1.32-2.45-2.52-4.08-2.97c-1.55-0.43-3.44-0.26-4.4,1.2c-0.71,1.07,0.89,2.27,1.6,1.2
					c0.62-0.93,1.96-0.66,2.82-0.26c1.22,0.56,2.19,1.55,2.91,2.67c1.72,2.69,1.7,6.05,1.33,9.11c-0.16,1.28,1.83,1.51,1.99,0.23
					C153.64,64.31,153.43,60.17,151,56.98z"/>
				<path class="st7" d="M157.09,57.31c-0.08-0.68-0.28-1.36-0.76-1.86c-0.57-0.6-1.38-0.79-2.18-0.76
					c-1.41,0.04-2.78,0.62-3.86,1.53c-0.99,0.83,0.26,2.4,1.24,1.57c0.75-0.63,1.75-1.12,2.76-1.11c0.38,0,0.64,0.08,0.75,0.47
					c0.15,0.52,0.15,1.12,0.17,1.66c0.12,2.54-0.3,5.1-1.17,7.48c-0.44,1.21,1.41,1.96,1.86,0.75
					C157.02,63.94,157.49,60.57,157.09,57.31z"/>
				<path class="st7" d="M156.77,107.52c-0.58-0.04-0.99,0.33-1.11,0.88c-0.08,0.37-0.16,0.74-0.25,1.11c0,0.02-0.01,0.03-0.01,0.04
					c0,0.01-0.01,0.02-0.01,0.04c-0.02,0.08-0.04,0.17-0.07,0.25c-0.05,0.18-0.1,0.37-0.15,0.55c-0.21,0.72-0.44,1.43-0.7,2.13
					c-0.18,0.49,0.03,1.12,0.55,1.3c0.5,0.18,1.11-0.03,1.3-0.55c0.56-1.51,0.99-3.07,1.32-4.64
					C157.76,108.11,157.28,107.55,156.77,107.52z"/>
				<path class="st7" d="M164.64,114.86c0.08-0.01,0.15-0.01,0.23,0c0.21,0.01,0.43,0.04,0.64,0.09c0.08,0.02,0.15,0.04,0.23,0.07
					c0.15,0.06,0.29,0.12,0.43,0.18c-0.01-0.12-0.02-0.23-0.06-0.36c0.06,0.21-0.04-0.15-0.05-0.18c-0.02-0.09-0.05-0.17-0.07-0.26
					c-0.05-0.2-0.1-0.41-0.14-0.61c-0.08-0.38-0.15-0.76-0.2-1.15c-0.05-0.38-0.1-0.77-0.12-1.16c-0.01-0.21-0.02-0.42-0.03-0.63
					c0-0.03,0-0.04,0-0.05c0-0.01,0-0.02,0-0.04c0-0.12,0-0.24,0-0.36c0-0.52-0.3-1.07-0.88-1.11c-0.49-0.03-1.1,0.32-1.11,0.88
					c-0.01,1.62,0.19,3.19,0.59,4.75C164.27,114.9,164.46,114.87,164.64,114.86z"/>
				<path class="st7" d="M166.74,113.53c-4.49,0.91-9.11,0.32-13.23-1.68c-1.16-0.56-1.9,1.3-0.75,1.86
					c4.41,2.14,9.48,2.77,14.29,1.8C168.31,115.25,168.01,113.27,166.74,113.53z"/>
				<path class="st7" d="M131.64,118.62c-2.43,0.41-6.18,2.49-8.05-0.23c-0.93-1.35,0.04-3.02,0.42-4.4
					c0.29-1.09,0.43-2.3,0.01-3.37c-1.04-2.66-5.02-2.68-7.4-2.74c-1.28-0.03-1.52,1.95-0.23,1.99c1.44,0.04,2.91,0.16,4.31,0.51
					c1.26,0.31,1.71,1.03,1.55,2.3c-0.16,1.25-0.79,2.38-0.98,3.63c-0.18,1.19,0.05,2.35,0.76,3.33c1.37,1.9,3.87,2.34,6.05,1.98
					c1.27-0.21,2.45-0.73,3.71-0.98c0.89-0.17,2.77-0.12,2.7,1.23c-0.07,1.28,1.92,1.52,1.99,0.23
					C136.6,119.44,133.92,118.24,131.64,118.62z"/>
				<path class="st7" d="M187.33,106.46c-0.71,1.54-2.05,2.51-3.29,3.59c-0.98,0.85-2.29,1.94-2.2,3.37
					c0.08,1.35,1.39,2.39,2.36,3.17c0.64,0.52,1.32,0.96,2.03,1.36c0.1,0.06,0.78,0.42,1.26,0.78c0.44-0.53,0.88-1.05,1.31-1.59
					c-0.82-0.65-1.91-1.06-2.71-1.62c-0.69-0.48-2.49-1.59-2.07-2.65c0.27-0.69,1.34-1.33,1.88-1.79c1.33-1.13,2.54-2.27,3.28-3.88
					c3.25-7.12-2.93-13.76-5.67-19.82c-0.53-1.17-2.36-0.37-1.83,0.81C184.13,93.61,190.28,100.08,187.33,106.46z"/>
				<path class="st7" d="M152.83,112.59c-0.08-0.54-0.61-0.91-1.14-0.83c-2.86,0.4-5.59,1.59-7.82,3.42
					c-0.42,0.34-0.5,0.98-0.16,1.41c0.33,0.42,0.99,0.5,1.41,0.16c1.99-1.64,4.34-2.66,6.88-3.01
					C152.53,113.66,152.91,113.12,152.83,112.59z"/>
				<path class="st7" d="M167.9,115.62c-2.32,1.99-5.43,2.16-8.34,1.86c-2.61-0.27-6.56-0.44-7.76-3.26
					c-0.5-1.18-2.34-0.38-1.83,0.81c1.49,3.51,5.7,4.03,9.04,4.41c3.52,0.4,7.33,0.17,10.13-2.25
					C170.12,116.35,168.88,114.78,167.9,115.62z"/>
				<path class="st7" d="M170.04,116.81c4.24,2.24,7.62,5.84,9.74,10.07c0.51-0.47,1.01-0.95,1.51-1.44
					c-2.37-4.41-6.02-8.13-10.5-10.49C169.65,114.35,168.92,116.21,170.04,116.81z"/>
				<path class="st7" d="M166.14,93.97c-0.15-0.33-0.47-0.46-0.81-0.52c-0.18-0.03-0.23-0.08-0.32-0.26
					c-0.12-0.25-0.17-0.47-0.23-0.75c-0.06-0.29-0.09-0.55,0.05-0.82c0.13-0.24-0.05-0.56-0.28-0.65c-0.27-0.11-0.52,0.04-0.65,0.28
					c-0.29,0.55-0.17,1.2-0.01,1.77c0.15,0.52,0.36,1.05,0.87,1.3c0.12,0.06,0.25,0.09,0.39,0.12c0.02,0,0.04,0.01,0.06,0.01
					c-0.02,0.07-0.04,0.09-0.11,0.18c-0.26,0.3-0.7,0.5-1.08,0.51c-0.27,0-0.52,0.15-0.55,0.44c-0.03,0.24,0.17,0.56,0.44,0.55
					c0.62-0.01,1.22-0.19,1.7-0.61C166.03,95.15,166.4,94.55,166.14,93.97z"/>
				<path class="st7" d="M164.66,98.35c-1.39,0.1-2.78-0.16-4.06-0.73c-0.19-0.49-1.03-0.33-0.95,0.27c0.11,0.8,0.32,1.59,0.63,2.33
					c0.16,0.37,0.34,0.73,0.54,1.08c0.2,0.33,0.45,0.65,0.82,0.81c0.8,0.33,1.6-0.18,2.08-0.8c0.51-0.68,0.95-1.43,1.41-2.15
					C165.38,98.77,165.1,98.32,164.66,98.35z M163.12,100.4c-0.2,0.3-0.65,1.01-1.12,0.77c-0.22-0.11-0.35-0.41-0.46-0.62
					c-0.15-0.29-0.29-0.59-0.41-0.89c-0.11-0.29-0.2-0.58-0.28-0.87c0.95,0.34,1.94,0.54,2.95,0.56
					C163.58,99.7,163.35,100.05,163.12,100.4z"/>
				<path class="st7" d="M157.49,89.44c-0.13-0.62-0.61-1.23-1.28-1.26c-0.7-0.03-1.25,0.47-1.49,1.09
					c-0.23,0.61-0.27,1.3-0.21,1.94c0.04,0.39,0.13,0.9,0.4,1.2c0.24,0.43,0.67,0.72,1.2,0.49c0.28-0.12,0.47-0.38,0.63-0.63
					c0.18-0.29,0.34-0.6,0.47-0.92C157.43,90.77,157.62,90.07,157.49,89.44z"/>
				<path class="st7" d="M171.88,89.7c-0.13-0.62-0.61-1.23-1.28-1.26c-0.7-0.03-1.25,0.47-1.49,1.09c-0.23,0.61-0.27,1.3-0.21,1.94
					c0.04,0.39,0.13,0.9,0.4,1.2c0.24,0.43,0.67,0.72,1.2,0.49c0.28-0.12,0.47-0.38,0.63-0.63c0.18-0.29,0.34-0.6,0.47-0.92
					C171.82,91.03,172.01,90.33,171.88,89.7z"/>
				<path class="st7" d="M155.21,88.94c-0.19-0.22-0.47-0.24-0.7-0.08c-0.02,0.01-0.03,0.02-0.05,0.04
					c-0.04,0.02-0.07,0.04-0.11,0.06c-0.04,0.02-0.09,0.04-0.14,0.06c-0.02,0.01-0.04,0.01-0.06,0.02
					c-0.09,0.02-0.17,0.04-0.26,0.05c-0.05,0.01-0.09,0.01-0.14,0.01c-0.02,0-0.04,0-0.06,0c-0.09,0-0.19-0.01-0.28-0.03
					c-0.02,0-0.04-0.01-0.06-0.01c-0.04-0.01-0.08-0.02-0.11-0.04c-0.04-0.01-0.26-0.08-0.27-0.12c0,0.01,0.09,0.06,0.03,0.01
					c-0.02-0.01-0.04-0.02-0.06-0.04c-0.05-0.03-0.09-0.06-0.13-0.1c-0.2-0.16-0.55-0.12-0.7,0.1c-0.16,0.23-0.12,0.52,0.1,0.7
					c0.83,0.67,2.06,0.68,2.93,0.07C155.35,89.49,155.38,89.14,155.21,88.94z"/>
				<path class="st7" d="M155.59,90.08c-0.11-0.22-0.42-0.39-0.66-0.26c-0.18,0.1-0.36,0.19-0.55,0.25
					c-0.02,0.01-0.19,0.05-0.07,0.02c-0.05,0.01-0.11,0.03-0.16,0.04c-0.1,0.02-0.2,0.04-0.3,0.05c-0.1,0.01-0.2,0.03-0.3,0.02
					c-0.03,0-0.06,0-0.07,0c-0.05,0-0.09,0-0.14-0.01c-0.1-0.01-0.2-0.02-0.3-0.04c-0.05-0.01-0.11-0.02-0.16-0.03
					c-0.02-0.01-0.05-0.01-0.07-0.02c-0.25-0.07-0.56,0.01-0.65,0.28c-0.08,0.23,0.01,0.57,0.28,0.65c0.97,0.28,2.03,0.2,2.91-0.3
					C155.56,90.61,155.71,90.34,155.59,90.08z"/>
				<path class="st7" d="M173.62,91.08c-0.06-0.28-0.29-0.44-0.57-0.42c-0.02,0-0.04,0-0.06,0c-0.03,0-0.07,0-0.1,0
					c-0.09,0-0.17-0.02-0.26-0.03c-0.03,0-0.05-0.01-0.08-0.02c0,0,0,0-0.01,0c-0.01,0-0.01,0-0.01,0
					c-0.02-0.01-0.04-0.01-0.06-0.02c-0.09-0.03-0.17-0.06-0.26-0.1c-0.03-0.02-0.07-0.03-0.1-0.05c-0.01-0.01-0.03-0.02-0.04-0.03
					c-0.07-0.05-0.15-0.1-0.21-0.15c-0.03-0.03-0.06-0.05-0.09-0.08c-0.06-0.05-0.01-0.02,0.01,0.01c-0.01-0.02-0.03-0.03-0.04-0.04
					c-0.06-0.07-0.12-0.14-0.18-0.22c-0.15-0.21-0.5-0.25-0.7-0.08c-0.21,0.18-0.24,0.48-0.08,0.7c0.55,0.77,1.5,1.16,2.43,1.09
					C173.47,91.63,173.67,91.33,173.62,91.08z"/>
				<path class="st7" d="M174.01,89.59c-0.05-0.27-0.29-0.46-0.57-0.42c-0.11,0.02-0.21,0.03-0.32,0.04c-0.05,0-0.09,0.01-0.14,0.01
					c-0.02,0-0.02,0-0.03,0c-0.02,0-0.04,0-0.07,0c-0.2,0-0.4-0.02-0.6-0.05c-0.1-0.01-0.2-0.03-0.29-0.05
					c-0.02,0-0.18-0.04-0.07-0.02c-0.04-0.01-0.09-0.02-0.13-0.04c-0.21-0.06-0.41-0.14-0.6-0.23c-0.24-0.11-0.56,0.03-0.65,0.28
					c-0.09,0.27,0.02,0.53,0.28,0.65c0.86,0.4,1.84,0.53,2.78,0.4C173.85,90.13,174.06,89.85,174.01,89.59z"/>
				<path class="st7" d="M153.63,94.94c-0.64-0.07-0.75,0.92-0.11,0.99C154.15,96.01,154.27,95.02,153.63,94.94z"/>
				<path class="st7" d="M155.23,95.77c-0.64-0.07-0.75,0.92-0.11,0.99C155.76,96.83,155.87,95.84,155.23,95.77z"/>
				<path class="st7" d="M157.32,94.23c-0.64-0.07-0.75,0.92-0.11,0.99C157.85,95.3,157.96,94.31,157.32,94.23z"/>
				<path class="st7" d="M168.7,94.47c-0.64-0.07-0.75,0.92-0.11,0.99C169.23,95.54,169.34,94.54,168.7,94.47z"/>
				<path class="st7" d="M170.15,96.05c-0.64-0.07-0.75,0.92-0.11,0.99C170.68,97.12,170.79,96.12,170.15,96.05z"/>
				<path class="st7" d="M171.67,94.53c-0.64-0.07-0.75,0.92-0.11,0.99C172.2,95.59,172.31,94.6,171.67,94.53z"/>
				<path class="st7" d="M133.13,122.97c-0.42-0.39-0.99-0.37-1.41,0c-1.3,1.14-2.5,2.39-3.59,3.73c-0.17,0.21-0.29,0.42-0.29,0.71
					c0,0.25,0.11,0.54,0.29,0.71c0.36,0.33,1.06,0.43,1.41,0c1.09-1.34,2.29-2.59,3.59-3.73
					C133.53,124.04,133.51,123.32,133.13,122.97z"/>
			</g>
			<path class="st8" d="M195.24,83.2c2.12,9.46,1.1,19.68-3.63,29.01c-10.8,21.31-36.82,29.83-58.13,19.03s-29.83-36.82-19.03-58.13
				s36.82-29.83,58.13-19.03c11,5.57,18.79,15.67,22.08,26.62"/>
		</g>
	</g>
	<g>
		<g>
			<path class="st9" d="M183.04,136.34c-0.15-1.63-0.11-3.49-1.8-4.28c-3.31-1.54-7.66-1.04-11.18-0.83
				c-7.98,0.46-17.96,0.61-25.95,0.33c-3.84-0.13-7.69-0.58-11.53-0.57c-3.08,0.01-7.36,1.13-7.75,4.78c0,0.03,0.01,0.06,0,0.1
				c-0.79,4.47-1.12,9-0.98,13.54c0.06,2.02,0.02,4.24,0.67,6.17c0.68,2,2.38,2.87,4.27,3.51c6.45,2.2,13.37,1.18,20.09,1.65
				c0.06-0.1,0.13-0.18,0.2-0.27c0.41,0.18,0.88,0.23,1.35,0.13c1.07-0.24,2.17-0.17,3.25-0.16c1.26,0.02,2.51-0.03,3.76-0.15
				c2.55-0.23,5.09-0.68,7.61-1.13c0.34-0.06,0.62-0.24,0.85-0.47c2.11-0.11,4.99-0.23,6.58-0.42c2.02-0.24,4.04-0.6,5.99-1.2
				c1.59-0.48,3.47-0.96,4-2.73c0.59-1.95,0.6-4.21,0.72-6.24c0.11-1.8,0.16-3.6,0.15-5.4
				C183.34,140.59,183.24,138.46,183.04,136.34z"/>
			<path class="st7" d="M184.97,135.61c-0.16-1.64-0.31-3.37-1.62-4.55c-1.26-1.13-3.17-1.48-4.79-1.71
				c-2.04-0.3-4.09-0.32-6.14-0.24c-8.79,0.35-19.51,0.76-28.31,0.46c-2.47-0.09-4.94-0.21-7.41-0.37c-2.2-0.14-4.41-0.34-6.6-0.02
				c-3.6,0.53-7.08,2.96-7.28,6.86c0,0,0,0,0,0c-0.76,4.58-1.11,9.22-0.93,13.86c0.15,3.93,0.17,7.44,4.17,9.42
				c3.54,1.75,9.1,1.98,15,1.98c5.63,0,11.68-0.2,11.68-0.23c4.7-0.3,19.2-0.55,22.97-1.25c3.24-0.6,7.81-1.42,8.76-5.12
				c0.5-1.94,0.57-4.09,0.71-6.08c0.14-2.12,0.2-4.25,0.17-6.38C185.32,140.01,185.19,137.8,184.97,135.61z M183.21,148.12
				c-0.13,2.02-0.13,4.29-0.72,6.24c-0.53,1.77-2.41,2.25-4,2.73c-1.95,0.59-3.97,0.96-5.99,1.2c-1.98,0.24-5.97,0.37-7.96,0.5
				c-1.07,0.07-11.75,0.26-12.82,0.35c-0.37,0.03-0.77,0.05-1.16,0.09c0,0,0,0.01,0.01,0.01c-6.76-0.06-16.18,0.95-21.85-0.99
				c-1.89-0.65-3.49-0.65-4.17-2.66c-0.65-1.93-0.61-4.16-0.67-6.17c-0.14-4.54,0.2-9.07,0.98-13.54c0.01-0.04-0.01-0.06,0-0.1
				c0.39-3.65,4.67-4.77,7.75-4.78c3.84-0.01,7.69,0.44,11.53,0.57c7.99,0.27,17.97,0.13,25.95-0.33c3.52-0.21,7.87-0.71,11.18,0.83
				c1.69,0.79,1.65,2.65,1.8,4.28c0.19,2.12,0.29,4.25,0.31,6.37C183.37,144.52,183.32,146.32,183.21,148.12z"/>
			<g>
				<path class="st2" d="M152.45,148.44c-0.03-2.84-0.12-5.68-0.28-8.52c-0.07-1.25,0.12-3.07-0.64-4.13
					c-0.76-1.06-2.19-0.99-3.34-1.07c-2.14-0.14-5.1-0.57-6.78,1.16c-0.86,0.88-1.08,2.08-1.13,3.29c-0.05,1.37-0.03,2.76-0.01,4.13
					c0.04,3.19,0.15,6.41,0.51,9.58c0.09,0.82,0.36,1.49,1.11,1.87c0.69,0.35,1.59,0.25,2.35,0.23c0.51,0.11,1.02,0.17,1.48,0.22
					c1.28,0.15,2.6,0.04,3.85-0.27c1.24-0.31,2.4-0.9,2.75-2.26C152.66,151.35,152.47,149.8,152.45,148.44z"/>
			</g>
			<g>
				<path class="st2" d="M166.34,148.41c-0.03-2.84-0.12-5.68-0.28-8.52c-0.07-1.25,0.12-3.07-0.64-4.13
					c-0.76-1.06-2.19-0.99-3.34-1.07c-2.14-0.14-5.1-0.57-6.78,1.16c-0.86,0.88-1.08,2.08-1.13,3.29c-0.05,1.37-0.03,2.76-0.01,4.13
					c0.04,3.19,0.15,6.41,0.51,9.58c0.09,0.82,0.36,1.49,1.11,1.87c0.69,0.35,1.59,0.25,2.35,0.23c0.51,0.11,1.02,0.17,1.48,0.22
					c1.28,0.15,2.6,0.04,3.85-0.27c1.24-0.31,2.4-0.9,2.75-2.26C166.55,151.32,166.36,149.76,166.34,148.41z"/>
			</g>
			<g>
				<path class="st2" d="M180.34,148.41c-0.03-2.84-0.12-5.68-0.28-8.52c-0.07-1.25,0.12-3.07-0.64-4.13
					c-0.76-1.06-2.19-0.99-3.34-1.07c-2.14-0.14-5.1-0.57-6.78,1.16c-0.86,0.88-1.08,2.08-1.13,3.29c-0.05,1.37-0.03,2.76-0.01,4.13
					c0.04,3.19,0.15,6.41,0.51,9.58c0.09,0.82,0.36,1.49,1.11,1.87c0.69,0.35,1.59,0.25,2.35,0.23c0.51,0.11,1.02,0.17,1.48,0.22
					c1.28,0.15,2.6,0.04,3.85-0.27c1.24-0.31,2.4-0.9,2.75-2.26C180.55,151.32,180.36,149.76,180.34,148.41z"/>
			</g>
			<g>
				<path class="st2" d="M138.56,148.48c-0.03-2.84-0.12-5.68-0.28-8.52c-0.07-1.25,0.12-3.07-0.64-4.13
					c-0.76-1.06-2.19-0.99-3.34-1.07c-2.14-0.14-5.1-0.57-6.78,1.16c-0.86,0.88-1.08,2.08-1.13,3.29c-0.05,1.37-0.03,2.76-0.01,4.13
					c0.04,3.19,0.15,6.41,0.51,9.58c0.09,0.82,0.36,1.49,1.11,1.87c0.69,0.35,1.59,0.25,2.35,0.23c0.51,0.11,1.02,0.17,1.48,0.22
					c1.28,0.15,2.6,0.04,3.85-0.27c1.24-0.31,2.4-0.9,2.75-2.26C138.77,151.39,138.58,149.83,138.56,148.48z"/>
			</g>
		</g>
		<path class="st7" d="M169.47,123.19c-0.15-1.4,0.02-3.73-1.79-4.31c-1.01-0.32-2.26-0.31-3.32-0.41c-1.14-0.11-2.28-0.2-3.42-0.27
			c-2.53-0.16-5.06-0.23-7.6-0.22c-2.53,0.01-5.07,0.12-7.6,0.31c-1.96,0.15-4.37,0.1-6.19,0.84c-1.79,0.74-2.21,2.35-2.5,3.95
			c-0.4,2.19-0.53,4.4-0.39,6.62c0.06,1.06,1.75,1.13,1.96,0.23c9.66,1.75,19.57-0.23,29.33,0.37c0.24,0.95,1.98,0.89,1.95-0.19
			C169.86,127.81,169.72,125.5,169.47,123.19z"/>
		<g>
			<path class="st2" d="M149.35,120.4c-0.57-0.15-1.03,0.2-1.22,0.71c-0.46,1.22-0.98,2.42-1.56,3.6c-0.29,0.59-0.6,1.18-0.92,1.76
				c-0.14,0.25-0.28,0.49-0.42,0.74c-0.12-0.22-0.24-0.45-0.36-0.67c-0.31-0.58-0.6-1.16-0.89-1.75c-0.57-1.16-1.09-2.34-1.57-3.55
				c-0.2-0.5-0.68-0.85-1.24-0.69c-0.48,0.14-0.89,0.73-0.69,1.24c0.92,2.3,1.98,4.55,3.18,6.73c0.34,0.61,0.74,1.29,1.52,1.32
				c0.81,0.03,1.17-0.6,1.53-1.21c0.6-1.02,1.16-2.06,1.68-3.12c0.62-1.27,1.17-2.57,1.67-3.89
				C150.25,121.12,149.83,120.53,149.35,120.4z"/>
			<path class="st2" d="M153.65,120.28c-1.29,0.01-1.27,2.01,0.02,2C154.96,122.27,154.94,120.27,153.65,120.28z"/>
			<path class="st2" d="M153.26,123.24c-0.54,0.03-1,0.45-0.99,1.01c0.02,1.62-0.03,3.24-0.15,4.86c-0.04,0.52,0.5,1.02,1.01,0.99
				c0.58-0.03,0.95-0.45,0.99-1.01c0.12-1.62,0.17-3.24,0.15-4.86C154.26,123.71,153.8,123.21,153.26,123.24z"/>
			<path class="st2" d="M165.05,127.22c-1.76,0.22-3.53,0.32-5.3,0.32c0.03-0.03,0.05-0.06,0.08-0.09c0.56-0.57,1.12-1.14,1.68-1.71
				c1.13-1.15,2.26-2.31,3.39-3.46c0.64-0.65,0.12-1.65-0.72-1.7c-2.17-0.14-4.34-0.26-6.51-0.35c-0.54-0.02-1,0.49-0.99,1.01
				c0.01,0.56,0.47,0.97,1.01,0.99c1.41,0.06,2.83,0.15,4.24,0.23c-0.65,0.66-1.3,1.32-1.94,1.98c-1.1,1.12-2.33,2.21-3.17,3.55
				c-0.43,0.68,0.16,1.46,0.88,1.5c2.47,0.13,4.94,0.04,7.39-0.27c0.54-0.07,1-0.42,0.99-1.01
				C166.05,127.72,165.59,127.16,165.05,127.22z"/>
		</g>
		<path class="st7" d="M135.55,137.99l-3.73,0.39c-0.45,0.05-0.82,0.44-0.87,0.88c0,0.01-0.01,0.02-0.01,0.04
			c-0.35,1.91-0.88,3.76-1.62,5.56c-0.46,1.11,0.9,1.8,1.69,1.04c0.5-0.49,1.43-0.37,1.98-0.05c0.76,0.44,1.1,1.36,1.18,2.19
			c0.04,0.43,0.04,0.91-0.09,1.32c-0.14,0.42-0.53,0.54-0.92,0.66c-1.17,0.35-2.43,0.33-3.62,0.09c-1.26-0.26-1.58,1.71-0.33,1.97
			c1.67,0.34,3.7,0.33,5.27-0.42c1.57-0.76,1.91-2.59,1.64-4.18c-0.26-1.51-1.11-2.99-2.59-3.58c-0.54-0.22-1.09-0.32-1.63-0.3
			c0.35-1.08,0.64-2.19,0.87-3.3l3-0.32c0.52-0.06,0.97-0.57,0.89-1.1C136.57,138.34,136.11,137.93,135.55,137.99z"/>
		<path class="st7" d="M149.25,137.61l-3.73,0.39c-0.45,0.05-0.82,0.44-0.87,0.88c0,0.01-0.01,0.02-0.01,0.04
			c-0.35,1.91-0.88,3.76-1.62,5.56c-0.46,1.11,0.9,1.8,1.69,1.04c0.5-0.49,1.43-0.37,1.98-0.05c0.76,0.44,1.1,1.36,1.18,2.19
			c0.04,0.43,0.04,0.91-0.09,1.32c-0.14,0.42-0.53,0.54-0.92,0.66c-1.17,0.35-2.43,0.33-3.62,0.09c-1.26-0.26-1.58,1.71-0.33,1.97
			c1.67,0.34,3.7,0.33,5.27-0.42c1.57-0.76,1.91-2.59,1.64-4.18c-0.26-1.51-1.11-2.99-2.59-3.58c-0.54-0.22-1.09-0.32-1.63-0.3
			c0.35-1.08,0.64-2.19,0.87-3.3l3-0.32c0.52-0.06,0.97-0.57,0.89-1.1C150.27,137.96,149.81,137.55,149.25,137.61z"/>
		<path class="st7" d="M162.66,138.88c-0.2-0.17-0.44-0.26-0.68-0.28c-0.1-0.07-0.2-0.13-0.34-0.16c-2.43-0.6-4.11,2.09-4.82,4.02
			c-0.38,1.05-0.57,2.16-0.67,3.27c-0.1,1.13-0.09,2.34,0.3,3.42c0.76,2.09,3.17,3.7,5.29,2.35c1.93-1.23,2.58-3.84,2.75-5.97
			C164.67,143.27,164.55,140.46,162.66,138.88z M161.49,148.92c-0.32,0.51-0.79,1.08-1.44,1.08c-0.63-0.01-1.19-0.48-1.49-1
			c-0.78-1.34-0.5-3.31-0.18-4.76c0.2-0.88,0.5-1.73,0.99-2.5c0.32-0.51,1.02-1.55,1.74-1.38c0.08,0.02,0.15,0.01,0.23,0.01
			c1.04,0.94,1.21,2.4,1.21,3.74C162.55,145.76,162.37,147.49,161.49,148.92z"/>
		<path class="st7" d="M176.65,138.22c-0.2-0.17-0.44-0.26-0.68-0.28c-0.1-0.07-0.2-0.13-0.34-0.16c-2.43-0.6-4.11,2.09-4.82,4.02
			c-0.38,1.05-0.57,2.16-0.67,3.27c-0.1,1.13-0.09,2.34,0.3,3.42c0.76,2.09,3.17,3.7,5.29,2.35c1.93-1.23,2.58-3.84,2.75-5.97
			C178.66,142.61,178.54,139.8,176.65,138.22z M175.47,148.26c-0.32,0.51-0.79,1.08-1.44,1.08c-0.63-0.01-1.19-0.48-1.49-1
			c-0.78-1.34-0.5-3.31-0.18-4.76c0.2-0.88,0.5-1.73,0.99-2.5c0.32-0.51,1.02-1.55,1.74-1.38c0.08,0.02,0.15,0.01,0.23,0.01
			c1.04,0.94,1.21,2.4,1.21,3.74C176.53,145.1,176.35,146.84,175.47,148.26z"/>
	</g>
	<g>
		<path class="st7" d="M191.04,281.86c-1.13-1.25-3.54-0.02-4.83,0.36c-2.04,0.59-4.08,1.2-6.11,1.84
			c-4.64,1.46-11.22,4.34-15.78,6.03c-1.2,0.45-0.55,2.34,0.66,1.89c4.27-1.59,10.56-4.38,14.91-5.76c2.17-0.69,4.35-1.35,6.54-1.99
			c0.44-0.13,0.88-0.25,1.31-0.38c0.44-0.13,1.13-0.45,1.62-0.48c0,0.02-0.01,0.03-0.01,0.05c-0.1,0.29-0.19,0.59-0.29,0.88
			c-0.17,0.52-0.34,1.03-0.51,1.54c-1.46,4.4-3.02,8.76-4.68,13.09c-0.39,1.01-0.77,2.03-1.18,3.03c-0.27,0.67-0.06,0.76-0.62,0.32
			c-0.47-0.37-1.13-0.62-1.65-0.9c-1.74-0.95-3.48-1.9-5.22-2.85c1.65-2.48,3.15-5.05,4.46-7.74c0.36-0.74-0.4-1.74-1.22-1.39
			c-3.4,1.43-6.44,3.51-8.99,6.16c-1.34-1.63-2.7-3.23-4.1-4.81c-0.86-0.96-2.17,0.55-1.32,1.5c1.56,1.75,3.08,3.55,4.55,5.38
			c0.4,0.49,1.12,0.62,1.58,0.1c1.82-2.07,3.94-3.8,6.32-5.15c-1.06,1.94-2.2,3.82-3.45,5.64c-0.37,0.54-0.31,1.22,0.3,1.56
			c1.93,1.05,3.86,2.1,5.79,3.16c1.23,0.67,3.3,2.45,4.64,1.21c0.58-0.54,0.79-1.45,1.06-2.16c0.42-1.08,0.84-2.17,1.25-3.25
			c0.77-2.03,1.51-4.06,2.24-6.11c0.7-1.98,1.39-3.97,2.05-5.96C190.79,285.41,192.14,283.07,191.04,281.86z"/>
		<path class="st2" d="M189.35,283.42c-0.1,0.29-0.19,0.59-0.29,0.88c-0.17,0.52-0.34,1.03-0.51,1.54
			c-1.46,4.4-3.02,8.76-4.68,13.09c-0.39,1.01-0.77,2.03-1.18,3.03c-0.27,0.67-0.06,0.76-0.62,0.32c-0.47-0.37-1.13-0.62-1.65-0.9
			c-1.74-0.95-3.48-1.9-5.22-2.85c1.65-2.48,3.15-5.05,4.46-7.74c0.36-0.74-0.4-1.74-1.22-1.39c-3.4,1.43-6.44,3.51-8.99,6.16
			c-1.12-1.36-2.26-2.69-3.42-4.01c4.21-1.62,9.84-4.08,13.84-5.35c2.17-0.69,4.35-1.35,6.54-1.99c0.44-0.13,0.88-0.25,1.31-0.38
			c0.44-0.13,1.13-0.45,1.62-0.48C189.36,283.39,189.36,283.4,189.35,283.42z"/>
	</g>
	<g>
		<path class="st2" d="M141.05,276.4c-2.75-3.78-6.81-6.03-11.29-7.15c-4.97-1.23-10.21-0.7-14.91,1.79
			c-2.72,1.45-5.17,3.16-7.23,5.25c-1.13,1.15-3.17,4.14-3.17,4.31c-4.77,6.96-4.47,16.4,1.22,22.91c5.77,6.6,16,8.67,24.21,6.19
			c8.71-2.63,14.92-10.59,15.25-19.72C145.32,285.19,143.89,280.29,141.05,276.4z M132.28,306.66c-6.97,3.35-15.84,2.58-22.17-1.84
			c-7.98-5.57-9.33-17.1-3-24.44c0.23-0.27,1.95-2.65,2.88-3.41c1.32-1.08,2.68-2.12,4.27-3.02c3.15-1.79,7.74-3.51,12.01-2.94
			c4.03,0.54,7.61,1.2,10.75,3.91c3.31,2.85,5.29,7.1,5.93,11.38C144.18,294.58,139.84,303.02,132.28,306.66z"/>
	</g>
	<g>
		<path class="st2" d="M137.57,205.2c-7.99-9.18-15.66-18.63-22.99-28.35c-0.77-1.01-2.5-0.02-1.73,1.01
			c7.43,9.85,15.2,19.45,23.31,28.75C137,207.59,138.41,206.17,137.57,205.2z"/>
		<path class="st2" d="M140.62,176.14l-30.99,29.11c-0.94,0.88,0.48,2.3,1.41,1.41l30.99-29.11
			C142.97,176.67,141.56,175.26,140.62,176.14z"/>
	</g>
	<g>
		<path class="st2" d="M192.94,256.47c-7.99-9.18-16.98-19.22-24.31-28.94c-0.77-1.01-2.5-0.02-1.73,1.01
			c7.43,9.85,16.52,20.03,24.62,29.34C192.38,258.86,193.78,257.44,192.94,256.47z"/>
		<path class="st2" d="M196.04,228.22c-0.28-0.07-0.52-0.19-0.73-0.38c-0.23-0.15-0.42-0.35-0.55-0.6
			c-0.06-0.11-0.11-0.22-0.17-0.33l-30.9,29.03c-0.94,0.88,0.48,2.3,1.41,1.41l30.99-29.11c0,0,0,0,0-0.01
			C196.08,228.22,196.06,228.23,196.04,228.22z"/>
	</g>
	<g>
		<path class="st2" d="M136.44,303.59c-7.99-9.18-16.98-19.22-24.31-28.94c-0.77-1.01-2.5-0.02-1.73,1.01
			c7.43,9.85,16.52,20.03,24.62,29.34C135.88,305.98,137.29,304.56,136.44,303.59z"/>
		<path class="st2" d="M139.54,275.33c-0.28-0.07-0.52-0.19-0.73-0.38c-0.23-0.15-0.42-0.35-0.55-0.6
			c-0.06-0.11-0.11-0.22-0.17-0.33l-30.9,29.03c-0.94,0.88,0.48,2.3,1.41,1.41l30.99-29.11c0,0,0,0,0-0.01
			C139.58,275.34,139.56,275.34,139.54,275.33z"/>
	</g>
</g>
</svg>
