<?xml version="1.0" encoding="utf-8"?>
<!-- Generator: Adobe Illustrator 24.2.0, SVG Export Plug-In . SVG Version: 6.00 Build 0)  -->
<svg version="1.1" id="line" xmlns="http://www.w3.org/2000/svg" xmlns:xlink="http://www.w3.org/1999/xlink" x="0px" y="0px"
	 viewBox="0 0 300 200" style="enable-background:new 0 0 300 200;" xml:space="preserve">
<style type="text/css">
	.st0{fill:#BCDFDF;}
	.st1{fill:#99D3DD;}
	.st2{fill:#ABCB58;}
	.st3{fill:#C7D555;}
	.st4{fill:#FFFFFF;}
	.st5{fill:#AAB4B9;}
	.st6{fill:#FDDBBF;}
	.st7{fill:#F4CA99;}
	.st8{fill:#DC9F5C;}
	.st9{fill:#F6B1AC;}
	.st10{fill:#651811;}
	.st11{fill:#E9E56D;}
	.st12{fill:#9BC0D5;}
	.st13{fill:#DDE8F0;}
	.st14{fill:#EF7C68;}
	.st15{fill:#FFE1A2;}
	.st16{fill:#E9F4F4;}
	.st17{fill:#CDD95F;}
	.st18{fill:#B2DCDA;}
	.st19{fill:#9DAEB9;}
	.st20{fill:#F0EA7A;}
	.st21{fill:#CCDB81;}
	.st22{fill:#F4A5AD;}
	.st23{fill:#B2B2B2;}
	.st24{fill:#C0C4C6;}
	.st25{fill:#E3E8EA;}
	.st26{fill:#FFDB83;}
	.st27{fill:#C0C0C0;}
	.st28{fill:#6EC6D9;}
	.st29{fill:#878D91;}
	.st30{fill:#F0867B;}
	.st31{fill:#FFDE90;}
	.st32{fill:#C53C6C;}
	.st33{fill:#EEBF6D;}
	.st34{fill:#903D8F;}
	.st35{fill:#514E9C;}
	.st36{fill:#F9BB7A;}
	.st37{fill:#F28F6C;}
	.st38{fill:#FFE586;}
	.st39{fill:#6FC5D3;}
	.st40{fill:#9BD4E4;}
	.st41{fill:#F6B9C2;}
	.st42{fill:#F4A08B;}
	.st43{fill:#D1E8E8;}
	.st44{fill:#FCC249;}
	.st45{fill:#9F5A24;}
	.st46{fill:#BCE4FA;}
	.st47{fill:#B07147;}
	.st48{fill:#D88959;}
	.st49{fill:#FFEC96;}
	.st50{fill:#91D0D4;}
	.st51{fill:#651811;stroke:#651811;stroke-width:0.75;stroke-linecap:round;stroke-linejoin:round;stroke-miterlimit:10;}
	.st52{fill:#C1E3E6;}
	.st53{fill:#C4D4DE;}
	.st54{fill:#651811;stroke:#651811;stroke-width:0.5;stroke-miterlimit:10;}
	.st55{fill:#651811;stroke:#651811;stroke-width:0.5;stroke-linecap:round;stroke-linejoin:round;stroke-miterlimit:10;}
	.st56{fill:#D8E0E6;}
	.st57{fill:#FECB4A;}
	.st58{fill:#EEF8FE;}
	.st59{fill:#ADCE68;}
	.st60{fill:#FCD7BA;}
	.st61{fill:#651811;stroke:#651811;stroke-width:0.25;stroke-miterlimit:10;}
	.st62{fill:#F4A8B3;}
	.st63{fill:#F7AE6E;}
	.st64{fill:#FEDFB3;}
	.st65{fill:#F7B28C;}
	.st66{fill:#FFFBDC;}
	.st67{fill:#FCC24F;}
	.st68{fill:none;stroke:#651811;stroke-width:2;stroke-linecap:round;stroke-linejoin:round;stroke-miterlimit:10;}
	.st69{fill:#9EC65A;}
	.st70{fill:#A7D9DE;}
	.st71{fill:#CACCCE;}
	.st72{fill:#FBBE49;}
	.st73{fill:#9BC76B;}
	.st74{fill:#D9E181;}
	.st75{fill:#F6B9C5;}
	.st76{fill:#87CDD8;}
	.st77{fill:#651811;stroke:#651811;stroke-width:0.4;stroke-miterlimit:10;}
	.st78{fill:#A8D7CC;}
	.st79{fill:#CDEAFC;}
	.st80{fill:#D6D6D6;}
	.st81{fill:#F8C3C3;}
	.st82{fill:#D7BCA5;}
	.st83{fill:#FFD247;}
	.st84{fill:#F59B42;}
	.st85{fill:#FFF59B;}
	.st86{fill:#90D1DB;}
	.st87{fill:#EB935F;}
	.st88{fill:#DD7636;}
</style>
<g>
	<path class="st0" d="M191.48,74.09c-0.59-2.01-1.25-4.01-1.98-5.99c0.38-0.43,0.46-1.02-0.07-1.6c-0.3-0.32-0.61-0.64-0.91-0.96
		c-0.34-0.85-0.69-1.7-1.05-2.54c-0.4-0.91-1.43-1.07-2.21-0.76c-10.2-9.74-22.96-17.5-36.95-22.6
		c-15.78-5.76-33.08-8.13-49.74-6.36c-15.91,1.69-31.19,6.93-43.54,15.32c-12.86,8.73-21.96,20.73-26.04,34.49
		c-4.1,13.83-2.95,29.16,4.21,42.6c7.3,13.69,20.29,24.92,35.17,32.85c16.5,8.8,36.06,13.78,55.09,12.33
		c15.72-1.2,30.45-6.97,42.12-15.57c12.29-9.06,21.18-21.07,25.63-34.56C196.15,105.77,195.99,89.53,191.48,74.09z"/>
	<path class="st1" d="M247.51,93.98c-0.91-7.36-4.41-14.08-9.08-20.11c-4.52-5.83-9.83-11.33-15.89-15.91
		c-6.15-4.65-13.16-8.23-20.95-10.11c-7.92-1.91-16.29-2.22-24.4-1.23c-14.98,1.83-29.35,8.36-39.21,18.73
		C127.5,76.39,122,90.98,121.26,105.38c-0.73,14.31,3.66,28.7,13.66,39.99c8.83,9.97,21.64,16.79,35.85,18
		c10.74,0.91,21.74-1.29,31.13-6.03c13.12-4.1,23.98-12.68,31.78-22.89c4.25-5.56,7.64-11.66,10.17-18
		C246.7,109.32,248.44,101.58,247.51,93.98z"/>
	<path class="st2" d="M54.63,98.71c-13.21-0.59-14.11,19.25-12.66,28.12c0.33,2,1.88,2.71,3.42,2.48c1.09,0.83,2.71,0.74,3.95-0.03
		c0.44,0,0.89-0.08,1.31-0.24c1.47,2.13,5.3,1.9,6.3-1.05C59.28,121.12,69.59,99.37,54.63,98.71z M52.54,106.17
		c-0.92,1.18-1.7,2.39-2.36,3.65C50.78,108.33,51.58,106.88,52.54,106.17z"/>
	<path class="st3" d="M100.4,143.47c0.16-1.69-0.38-3.32-2.1-4.72c-2.77-2.26-5.31-1.97-7.64-0.69c-0.27-1.26-0.85-2.37-1.95-3.12
		c-0.14-0.1-0.28-0.17-0.42-0.25c0.56-3.08,1.11-6.15,1.67-9.23c0.43-2.37,1.76-5.83,0.36-8.13c-1.47-2.4-4.63-2.53-7.1-3.04
		c-1.03-0.21-2-0.46-2.93-0.55c-0.46-0.1-0.93-0.11-1.37,0.01c-0.84,0.12-1.65,0.46-2.45,1.2c-1.18,1.09-1.3,2.42-0.83,3.54
		c-2.29,4.62-4.9,10.2-2.17,14.47c-0.19,0.31-0.36,0.63-0.51,0.96c-1.09-0.25-2.27-0.22-3.55,0.2c-0.76,0.25-1.41,0.64-1.99,1.1
		c-0.33-0.23-0.67-0.44-1.03-0.61c-2.23-1.02-4.05-0.74-5.48,0.25c-0.78-1.19-1.69-2.3-2.75-3.3c-2.26-2.13-6.32-5.14-9.58-3.49
		c-3.12,1.58-3.41,4.93-2.45,8.53c-1.96,0.59-3.68,1.89-4.62,3.87c-2.54,5.29,0.12,10.15,4.33,13.36c-1.04,1.82-1.47,4.03-0.93,6.31
		c1.83,7.67,9.53,8.59,15.78,6.33c1.15,2.22,3.3,3.91,6.02,4.38c4.25,0.73,7.71-1.21,10.4-4.07c0.31,0.1,0.63,0.19,0.97,0.24
		c3.32,0.5,7.37-1.74,10.35-4.46c0.49,0.1,1.03,0.1,1.62-0.06c4.09-1.11,7.8-2.94,11.07-5.64c2.5-2.07,6.35-5.68,6.6-9.17
		C108.05,142.79,104.53,142.35,100.4,143.47z M54.06,138.13c-0.18-0.45-0.34-0.91-0.48-1.37c0.75,0.78,1.38,1.7,1.89,2.68
		C55.04,138.96,54.57,138.52,54.06,138.13z"/>
	<path class="st4" d="M222.9,121.79c-0.37-2.15-1.31-4.29-2-6.37c-1.48-4.51-2.96-9.02-4.45-13.53c-0.53-1.6-2.19-2.24-3.67-1.49
		c-5.07,2.56-10.13,5.11-15.2,7.67c-2.5,1.26-4.99,2.52-7.49,3.78c-1.14,0.57-2.27,1.26-3.46,1.72c-0.27,0.1-0.53,0.16-0.78,0.21
		c-0.21-0.24-0.49-0.44-0.83-0.59c0-0.04,0-0.08,0-0.08c-0.14,0.17,0.03-0.15,0.05-0.2c0.2-0.44,1.19-1.05,1.77-1.39
		c1.91-1.15,3.81-2.37,5.33-4.02c3.53-3.83,4.27-8.98,4.15-14.01c-0.06-2.66-0.4-5.33-0.98-7.92c-0.26-1.15-0.6-2.26-0.92-3.39
		c-0.35-1.2-0.02-1.47,0.64-2.49c2.58-4.01,1.98-9.58-1.62-12.78c-1.85-1.64-5.12-3.39-7.56-2.07c-0.68,0.37-1.19,0.92-1.56,1.58
		c-0.79-0.76-1.58-1.51-2.4-2.24c-1.19-1.07-3.07-0.94-3.93,0.51c-2.35,3.97-7.38,4.49-11.55,4.24c-2.38-0.15-5.04-0.92-7.2,0.47
		c-0.86,0.55-1.49,1.48-1.78,2.49c-1.47,0.24-2.92,0.6-4.33,1.14c-1.84,0.7-2.37,2.66-1.1,4.18c0.68,0.82,1.54,1.44,2.48,1.87
		c-1.25,2.24-2.1,4.68-1.99,7.29c0.11,2.59,1.11,5.22,2.92,7.07c-0.98,1.54-1.53,3.34-1.63,5.21c-0.1,1.85,1.51,2.63,2.93,2.35
		c0.77,2.32,2.14,4.37,4.07,6.02c1.27,1.08,2.66,2.02,4.17,2.72c0.8,0.37,1.62,0.72,2.46,1c0.28,0.09,0.7,0.19,1.09,0.29
		c0.02,0.33,0.05,0.65,0.07,0.98c0.01,0.13,0.02,0.27,0.03,0.4c-5.12,1.33-10,3.65-14.21,6.84c-1.57,1.18-3.01,2.47-4.39,3.83
		c0.21-0.63,0.4-1.27,0.54-1.91c1.37-6.29,1.23-12.93,0.26-19.28c3.19-5,3.4-11.69-0.21-16.61c-1.32-1.79-3.77-1.49-4.57,0.6
		c-0.03,0.08-0.21,0.24-0.34,0.32c-0.33,0.21-0.67,0.32-1.18,0.38c-0.64,0.07-1.6-0.11-2.41-0.51c-2.69-1.32-4.79-3.5-7.7-4.43
		c-3.13-1-6.48-0.6-9.35,0.8c-0.04-3.41-0.77-6.82-2.92-9.31c-1.55-1.8-4.04-2.62-6.31-1.81c-1.45,0.52-2.54,1.55-3.39,2.77
		c-1.96-1.2-4.23-1.79-6.3-0.3c-0.77,0.55-1.36,1.31-1.73,2.14c-0.97,0.18-1.91,0.63-2.68,1.38c-2.04,2.01-1.68,4.98-0.35,7.24
		c0.06,2.75,1.66,4.93,4,6.57c0.84,0.59,1.9,1.02,2.94,1.47c-1.29,0.79-2.44,1.84-3.34,3.06c-1.05,1.43-1.7,3.12-1.91,4.88
		c-0.22,1.87,0.3,3.46,0.82,5.22c0.08,0.27,0.18,0.64,0.2,0.93c-0.29-0.2-1.3-0.28-1.62-0.36c-2.02-0.5-4.14-1.05-6.24-0.9
		c-4.36,0.3-7.66,3.03-8.14,7.47c-0.46,4.26,1.04,8.31,2.52,12.2c0.11,0.29,0.19,0.57,0.24,0.87c0,0.02,0,0.02,0,0.03
		c-0.03,0.1-0.13,0.25-0.01,0.11c0.11-0.13-0.25,0.41-0.33,0.52c0.21-0.28-0.33,0.31-0.44,0.42c-0.88,0.83-1.9,1.49-2.76,2.34
		c-2.38,2.34-2.72,6.3,0.48,8.19c1.61,0.95,3.57,1.08,5.36,0.63c0.87-0.22,1.69-0.59,2.52-0.91c0.03-0.01,0.06-0.02,0.09-0.03
		c-0.16,1.73-0.3,3.49,0.33,5.14c0.75,1.98,2.27,3.44,4.31,4.04c1.35,0.4,2.76,0.36,4.16,0.26c-9.97,7.3-16.15,14.38-27.23,19.85
		c-1.21,0.6-2.15,5.28-1.5,6.38c0.72,1.23,1.04-0.34,2.25-0.94c2.27-1.12,6.97-2.37,9.2-3.57c-0.12,0.55-5.19-0.61-4.86-0.04
		c0.62,1.06,2.34,1.72,3.42,0.9c7.41-5.61,15.17-10.74,23.23-15.37c-0.17,0.99-0.34,1.97-0.49,2.96c-0.4,2.69,0.44,5.95,3.69,6.17
		c2.47,0.16,4.5-1.76,5.73-3.71c0.35-0.55,0.68-1.11,1.02-1.67c0.13,0.19,0.24,0.39,0.38,0.57c2.26,2.95,5.6,4.24,9.22,4.58
		c1.79,0.17,3.59,0.05,5.38-0.12c0.02,0,0.1-0.01,0.23-0.02c-0.03,1.22,0.99,2.29,2.17,2.43c0.3,0.04,0.57,0.02,0.83-0.03
		c0.21,0.58,0.42,1.17,0.62,1.75c0.86,3.21,2,6.35,3.39,9.4c1.17,2.56,5.52,0.74,4.57-1.93c-1.1-3.07-2.2-6.15-3.29-9.22
		c-1.07-4.18-1.61-8.48-1.65-12.8c0.07-0.12,0.13-0.25,0.21-0.37c0.78-1.08,2.05-1.79,3.16-2.48c4.09-2.54,8.45-4.57,13-6.09
		c-0.75,3.32-1.5,6.65-2.25,9.97c-0.55,2.42-0.14,4.9-0.69,7.32c-0.46,2.02,0.11,5.65,0.14,7.74c0.04,2.23,0.01,0.36,2.25,0.99
		c2.18,0.61,3.78,2.44,5.99,2.28c4.87-0.36,9.75-0.72,14.62-1.07l13.32-1.21c1.28-0.09,3.12,1.94,3.52,0.56
		c3.8-12.95,1.41-22.86,1.7-32.76c8.07-2.98,16.04-6.24,23.83-9.88C221.95,126.17,223.34,124.39,222.9,121.79z"/>
	<path class="st5" d="M103.05,102.77c-2.14-4.78-2.37-10.11-4.09-15.05c-0.27-1.18-0.54-2.36-0.86-3.54
		c-0.33-1.24-1.26-1.99-2.33-2.29c-3.05-14.04-4.54-28.39-5.67-42.76c-0.25-3.2-4.81-5.09-6.52-1.77
		c-6.73,13.04-4.95,29.2-7.92,43.3c-2.87,13.62-7.61,26.7-14.02,39.02c-0.02,0.02-0.03,0.03-0.05,0.05
		c-0.86,1.03-1.72,2.07-2.58,3.1c-0.69,0.83-0.92,1.75-0.84,2.61c-0.36,0.5-0.75,1-1.16,1.49c-2.88,3.42,1.57,8.01,4.95,4.95
		c0.84-0.76,1.65-1.54,2.46-2.32c1.51,1,3.7,0.92,4.88-1.07c1.99-3.37,3.78-6.8,5.39-10.37c0.47-1.04,0.36-2.18-0.1-3.15
		c0.24-0.27,0.48-0.54,0.74-0.79c1.09-1.06,2.24-1.7,3.43-2.07c3.69,0.84,7.41,0.94,11.42,0.26c2.62-0.44,3.01-2.9,2.04-4.75
		c1.69-0.12,3.54-0.31,4.98-0.96C99.24,110.15,104.82,106.72,103.05,102.77z M80.99,101.36c-1.52,0.17-2.88,0.47-4.15,0.95
		c1.9-5.34,3.51-10.78,4.81-16.31c1.7-7.23,2.87-14.58,3.54-21.97c0.06-0.68,0.12-1.36,0.17-2.03c1.56,12.38,3.83,24.65,7.57,36.57
		c0.04,0.72,0.05,1.42,0.04,2.12C89.32,101.66,84.53,100.97,80.99,101.36z"/>
	<g>
		<path class="st6" d="M193.37,85.64c-0.24-0.52-0.5-1.01-0.81-1.44c0.11-1.21,0.22-2.41,0.32-3.62c0.07-0.74-0.62-1.38-1.3-1.47
			c-0.58-0.08-1.27,0.23-1.54,0.77c-0.67,0.16-1.22,0.72-1.2,1.46c0,0.13,0.01,0.26,0.02,0.39c-1.68-0.42-3.53-0.3-5.23,0.03
			c-5.33,1.05-9.87,1.29-14.85-1.37c-2.53-1.35-5.06,1.09-4.74,3.17c-0.96,0.34-1.71,1.14-1.74,2.49c-0.05,2.16,0.07,4.23,0.37,6.28
			c-2.62,0.08-4.87,1.31-4.29,4.69c0.65,3.84,5.18,5.06,9.31,5.34c0.44,3.07,3.5,5.96,6.83,6.77c6.54,1.58,14.55,0.04,18.03-6.22
			c1.48-2.65,2.32-7.15,2.12-11.3C194.08,89.66,193.8,87.64,193.37,85.64z"/>
		<path class="st6" d="M182.73,113.68c-0.07-0.11-0.15-0.21-0.24-0.31c0.45-0.96,0.39-2.07-0.22-2.97
			c-0.51-0.75-1.38-1.27-2.29-1.33c-0.57-1.19-2-1.98-3.29-1.67c-1.48,0.36-2.42,1.59-2.4,3.06c-0.28,0.2-0.52,0.44-0.69,0.74
			c-0.04,0.05-0.07,0.1-0.1,0.16c-0.1,0.19-0.21,0.45-0.27,0.65c-0.09,0.3-0.13,0.62-0.12,0.94c0.01,0.6,0.19,1.26,0.51,1.78
			c0.59,0.93,1.51,1.5,2.56,1.78c1.23,0.33,2.49,0.57,3.73,0.86c0.65,0.15,1.34,0.09,1.93-0.25c0.52-0.3,1.01-0.9,1.15-1.49
			C183.13,114.97,183.1,114.25,182.73,113.68z"/>
		<path class="st7" d="M162.5,80.8c-0.12-0.49-0.22-0.98-0.36-1.46c-0.21-0.73-0.76-1.16-1.48-1.17c0-0.05,0-0.09-0.01-0.14
			c-0.15-0.78-0.97-1.36-1.76-1.18c-1.9,0.43-2.27,2.59-2.46,4.26c-0.48,0.22-0.86,0.66-0.86,1.22c-0.01,1.26,0.04,2.52,0.16,3.77
			c0.11,1.13,0.23,2.32,0.54,3.42c0.38,1.34,1.5,2.49,2.99,1.98c0.15-0.05,0.3-0.12,0.43-0.2c0.35,0.62,1.35,0.95,1.95,0.56
			c0.83-0.54,1.29-1.32,1.1-2.33c0-0.02-0.01-0.03-0.01-0.05c0.41-0.24,0.72-0.64,0.71-1.14c-0.03-2.25-0.27-4.47-0.72-6.67
			c-0.01-0.12-0.01-0.23-0.02-0.35C162.67,81.13,162.6,80.96,162.5,80.8z"/>
		<path class="st8" d="M195.56,69.1c-1.06-1.62-2.97-2.64-4.92-2.19c-0.5,0.12-0.97,0.32-1.39,0.59c-0.69-0.86-1.67-1.5-2.75-1.72
			c-1.65-0.34-3.16,0.22-4.35,1.22c-0.98-0.82-2.45-1.15-3.84-0.7c-1.62,0.52-2.67,1.79-3.98,2.79c-1.3,1-2.89,1.51-4.47,1.84
			c-1.63,0.34-3.28,0.51-4.93,0.75c-1.46,0.21-3.09,0.38-4.35,1.2c-1.1,0.72-1.77,1.94-1.49,3.26c0.25,1.19,1.27,2.26,2.54,2.2
			c0.56-0.03,1.06-0.27,1.35-0.69c5.55,3.39,12.15,4.86,18.64,4.29c3.75-0.33,7.87-1.33,11.03-3.45
			C195.66,76.49,197.77,72.47,195.56,69.1z"/>
		<path class="st7" d="M164.89,102.89c-0.37-0.52-0.78-1.01-1.22-1.48c-0.27-0.46-0.51-0.94-0.69-1.45
			c-0.11-0.33-0.54-0.64-0.85-0.75c-0.35-0.12-0.83-0.11-1.16,0.07c-0.33,0.19-0.63,0.47-0.75,0.85l-0.08,0.38
			c-0.02,0.27,0.03,0.54,0.15,0.78c0.04,0.11,0.1,0.22,0.14,0.34c0,0,0,0,0,0.01c-0.01,0.39,0.09,0.81,0.37,1.11
			c0.15,0.14,0.29,0.3,0.43,0.45c0.4,0.61,0.87,1.18,1.4,1.67c0.3,0.27,0.6,0.47,1.01,0.5c0.37,0.03,0.83-0.11,1.11-0.37
			c0.27-0.26,0.49-0.62,0.5-1.01c-0.01-0.13-0.02-0.27-0.02-0.4C165.18,103.33,165.06,103.1,164.89,102.89z"/>
		<path class="st9" d="M170.32,96.54c-0.86-0.48-1.77-0.76-2.75-0.64c-0.91,0.11-1.74,0.69-2.23,1.46
			c-0.97,1.04-1.41,2.43-1.27,3.85c0.17,1.59,1.26,2.82,2.66,3.48c1.44,0.68,3.11,0.45,4.39-0.45c1.23-0.86,1.88-2.41,1.79-3.88
			C172.81,98.76,171.71,97.32,170.32,96.54z"/>
		<path class="st9" d="M193.27,101.78c0.73-2.71,0.86-5.46,0.71-8.22c-0.11-0.07-0.23-0.14-0.35-0.19
			c-0.24-0.37-0.64-0.64-1.13-0.69c-1.54-0.16-3.11-0.14-4.4,0.83c-1.22,0.92-1.64,2.52-1.49,3.98c0.15,1.48,1.08,2.81,2.23,3.7
			c1.22,0.95,2.98,1.4,4.4,0.6C193.26,101.78,193.27,101.78,193.27,101.78z"/>
		<path class="st10" d="M174.22,108.8c-0.58,0.03-0.95,0.45-0.99,1.01c-0.03,0.38-0.07,0.76-0.11,1.14c0,0.02,0,0.03,0,0.04
			c0,0.01,0,0.02-0.01,0.04c-0.01,0.09-0.02,0.17-0.04,0.26c-0.03,0.19-0.05,0.38-0.08,0.56c-0.12,0.74-0.26,1.47-0.44,2.19
			c-0.12,0.51,0.17,1.11,0.71,1.22c0.52,0.11,1.1-0.16,1.22-0.71c0.37-1.57,0.62-3.16,0.75-4.77
			C175.28,109.27,174.73,108.77,174.22,108.8z"/>
		<path class="st10" d="M184.38,114.94c0.09,0.2-0.06-0.14-0.07-0.17c-0.03-0.08-0.07-0.17-0.1-0.25c-0.08-0.19-0.15-0.39-0.22-0.59
			c-0.13-0.37-0.24-0.74-0.34-1.11c-0.1-0.38-0.19-0.75-0.26-1.13c-0.04-0.21-0.07-0.41-0.11-0.62c0-0.02-0.01-0.04-0.01-0.05
			c0-0.01,0-0.02,0-0.04c-0.02-0.12-0.03-0.24-0.04-0.36c-0.06-0.52-0.43-1.02-1.01-0.99c-0.49,0.03-1.06,0.45-0.99,1.01
			c0.21,1.86,0.69,3.62,1.44,5.33c0.21,0.48,0.96,0.62,1.37,0.35C184.53,115.99,184.61,115.46,184.38,114.94z"/>
		<path class="st10" d="M182.13,95.02c-1.42-0.56-1.92-2.25-2.27-3.58c-0.16-0.62-1.13-0.35-0.96,0.27
			c0.39,1.47,0.96,2.99,2.21,3.86c-0.39,0.25-0.82,0.42-1.29,0.46c-0.27,0.03-0.5,0.22-0.5,0.5c0,0.25,0.23,0.52,0.5,0.5
			c0.96-0.09,1.84-0.49,2.52-1.18C182.65,95.57,182.47,95.16,182.13,95.02z"/>
		<path class="st10" d="M187.25,89.3c-0.1-0.71-0.36-1.56-0.96-1.86c-0.19-0.09-0.39-0.11-0.58-0.07c-0.01,0-0.02-0.01-0.02-0.01
			c-0.69,0.05-1.03,0.84-1.2,1.55c-0.17,0.74-0.17,1.55,0.02,2.29c0.17,0.65,0.54,1.35,1.16,1.45c0.63,0.1,1.13-0.46,1.37-1.1
			C187.29,90.84,187.35,90.06,187.25,89.3z"/>
		<path class="st10" d="M172.64,91.24c-0.1-0.71-0.36-1.56-0.96-1.86c-0.19-0.09-0.39-0.11-0.58-0.07c-0.01,0-0.02-0.01-0.03-0.01
			c-0.69,0.05-1.03,0.84-1.2,1.55c-0.17,0.74-0.17,1.55,0.02,2.29c0.17,0.65,0.54,1.35,1.16,1.45c0.63,0.1,1.13-0.46,1.37-1.1
			C172.68,92.79,172.74,92.01,172.64,91.24z"/>
		<path class="st10" d="M194.95,95.63c-0.29-4.32-2.13-8.59-1.32-12.95c0.23-1.26-1.7-1.78-1.93-0.52
			c-0.8,4.32,0.71,8.37,1.18,12.62c0.45,4.1-0.78,7.86-3.89,10.64c-6.89,6.15-17.03,3.01-23.21-2.44c-0.96-0.85-2.37,0.57-1.4,1.43
			c5.34,4.71,12.49,7.65,19.64,5.81C190.64,108.51,195.42,102.56,194.95,95.63z"/>
		<path class="st10" d="M170.53,84.75c-0.44-0.07-0.89-0.04-1.31,0.1c-0.77,0.26-1.38,0.84-1.7,1.58c-0.04,0.06-0.07,0.11-0.08,0.18
			c-0.01,0.02-0.02,0.04-0.03,0.06c-0.04,0.12-0.01,0.25,0.06,0.36c0.04,0.09,0.09,0.17,0.15,0.24c0.14,0.14,0.45,0.19,0.61,0.05
			c0.22-0.18,0.44-0.36,0.68-0.53c0.11-0.08,0.22-0.15,0.34-0.22c0.05-0.03,0.1-0.06,0.15-0.09c0.03-0.02,0.07-0.04,0.1-0.05
			c0.06-0.03,0.07-0.03,0.04-0.02c0.12-0.06,0.24-0.1,0.36-0.14c0.07-0.02,0.14-0.04,0.22-0.06c0.09-0.02-0.01,0,0.09-0.02
			c0.3-0.04,0.47-0.03,0.74,0.05c0.33,0.1,0.6-0.2,0.61-0.51C171.57,85.19,171.02,84.83,170.53,84.75z"/>
		<path class="st10" d="M188.2,83.94c-0.35-0.27-0.76-0.46-1.2-0.54c-0.8-0.14-1.61,0.08-2.25,0.57c-0.06,0.03-0.11,0.07-0.16,0.12
			c-0.02,0.01-0.04,0.02-0.05,0.04c-0.09,0.09-0.13,0.22-0.12,0.35c-0.01,0.1-0.01,0.19,0.02,0.29c0.06,0.19,0.3,0.38,0.51,0.34
			c0.28-0.05,0.56-0.11,0.85-0.14c0.13-0.02,0.27-0.03,0.4-0.03c0.06,0,0.11,0,0.17,0c0.04,0,0.08,0,0.11,0c0.06,0,0.08,0,0.04,0
			c0.13,0.01,0.26,0.03,0.39,0.05c0.07,0.01,0.14,0.03,0.22,0.05c0.09,0.02-0.01-0.01,0.08,0.03c0.29,0.11,0.42,0.19,0.63,0.4
			c0.25,0.24,0.62,0.11,0.78-0.15C188.9,84.83,188.59,84.25,188.2,83.94z"/>
		<path class="st10" d="M179.84,63.71c-0.53-0.19-1.06,0.28-1.2,0.75c-0.7,2.24-2.66,3.72-4.85,4.38c-2.59,0.79-5.24,0.41-7.89,0.46
			c-2.15,0.04-4.26,0.47-5.94,1.88c-1.42,1.19-2.34,2.93-2.05,4.82c0.19,1.26,2.19,1.19,2-0.08c-0.33-2.14,1.48-3.75,3.4-4.3
			c2.5-0.71,5.19-0.13,7.75-0.29c3.77-0.24,7.5-1.9,9.12-5.36c2.4,1.01,5.15,2.85,4.1,5.78c-0.43,1.21,1.52,1.65,1.95,0.46
			C187.79,67.8,183.32,64.96,179.84,63.71z"/>
		<path class="st10" d="M189.01,66.24c-1.4-1.38-3.31-2.14-5.27-2.21c-0.54-0.02-0.98,0.53-0.96,1.04c0.02,0.58,0.5,0.94,1.04,0.96
			c1.36,0.05,2.8,0.66,3.83,1.68c1.05,1.03,1.64,2.48,1.7,3.93c0.02,0.54,0.5,0.98,1.04,0.96c0.54-0.02,0.98-0.5,0.96-1.04
			C191.27,69.57,190.43,67.64,189.01,66.24z"/>
		<path class="st10" d="M189.98,65.7c-1.28,0.11-1.21,2.1,0.08,2c3.45-0.28,5.54,5.28,4.31,7.94c-1.3,2.83-5.01,4-7.77,4.75
			c-6.67,1.8-13.91,1.06-20.11-1.98c-1.16-0.57-2.1,1.2-0.94,1.76c7.63,3.73,16.88,4.29,24.79,1.07c3.35-1.36,6.63-3.86,6.42-7.87
			C196.58,69.99,193.85,65.38,189.98,65.7z"/>
		<path class="st10" d="M163.66,78.73c-0.42-0.12-0.83-0.26-1.24-0.4c-0.17-0.06-0.35-0.12-0.52-0.19
			c-0.04-0.02-0.11-0.04-0.13-0.05c-0.11-0.04-0.21-0.08-0.32-0.13c-0.78-0.31-1.54-0.66-2.28-1.04c-0.47-0.24-1.12-0.08-1.35,0.41
			c-0.23,0.48-0.09,1.1,0.41,1.35c1.59,0.81,3.26,1.48,4.98,1.99c0.5,0.15,1.11-0.24,1.2-0.75
			C164.51,79.37,164.19,78.89,163.66,78.73z"/>
		<g>
			<path class="st10" d="M164.22,98.62c-0.3-0.48-0.91-0.57-1.38-0.31c-1.02,0.58-1.36,0.51-2.15,0.07
				c-0.97-0.54-1.64-1.71-1.72-2.74c-0.09-1.04,0.31-2.04,1.04-2.6c0.78-0.6,1.92-0.71,2.68-0.14c0.43,0.32,1.02,0.37,1.41-0.06
				c0.34-0.37,0.38-1.09-0.06-1.41c-1.13-0.84-2.56-1.12-3.91-0.69c-1.23,0.4-2.26,1.39-2.76,2.58c-1.11,2.66,0.21,6.18,3.04,7.08
				c1.48,0.47,2.09,0.4,3.51-0.41C164.39,99.73,164.5,99.06,164.22,98.62z"/>
			<path class="st10" d="M162.1,93.64c-0.16-0.23-0.45-0.29-0.69-0.15c-0.74,0.42-1.29,1.2-1.43,2.05c-0.04,0.26,0.1,0.55,0.37,0.6
				c0.25,0.05,0.56-0.1,0.6-0.37c0.02-0.14,0.06-0.27,0.11-0.4c0.04-0.11,0.09-0.21,0.15-0.31c0.02-0.03,0.03-0.06,0.05-0.09
				c0.01-0.01,0.02-0.03,0.04-0.05c0.01-0.01,0.02-0.02,0.02-0.03c0.02-0.03,0.05-0.06,0.07-0.09c0.04-0.05,0.09-0.1,0.14-0.15
				c0.02-0.02,0.05-0.05,0.07-0.07c0,0,0.01-0.01,0.01-0.01c0.02-0.01,0.05-0.04,0.06-0.05c0.03-0.02,0.06-0.04,0.09-0.07
				c0.06-0.04,0.12-0.08,0.18-0.11C162.18,94.2,162.25,93.85,162.1,93.64z"/>
			<path class="st10" d="M162.14,95.17c-0.03-0.08-0.07-0.16-0.14-0.22c-0.15-0.14-0.29-0.27-0.44-0.41
				c-0.05-0.05-0.1-0.08-0.16-0.1c-0.06-0.03-0.13-0.04-0.19-0.04c-0.07,0-0.13,0.02-0.19,0.05c-0.06,0.02-0.11,0.06-0.16,0.11
				c-0.02,0.03-0.05,0.07-0.07,0.1c-0.04,0.08-0.06,0.16-0.06,0.25c0.01,0.04,0.02,0.09,0.02,0.13c0.03,0.08,0.07,0.16,0.14,0.22
				c0.15,0.14,0.29,0.27,0.44,0.41c0.05,0.05,0.1,0.08,0.16,0.1c0.06,0.03,0.13,0.04,0.19,0.04c0.07,0,0.13-0.02,0.19-0.05
				c0.06-0.02,0.11-0.06,0.16-0.11c0.02-0.03,0.05-0.07,0.07-0.1c0.04-0.08,0.06-0.16,0.06-0.25
				C162.16,95.26,162.15,95.21,162.14,95.17z"/>
		</g>
		<path class="st10" d="M157.28,93.28c0.01-0.05,0.02-0.1,0.03-0.16c0.06-0.22,0.14-0.44,0.24-0.65c0.09-0.2,0.24-0.38,0.37-0.56
			c0.08-0.1,0.18-0.19,0.28-0.27c-0.66-0.6-0.89-2.01-1.04-2.77c-0.24-1.18-0.29-2.42-0.15-3.62c0.07-0.61-0.41-1.12-0.92-1.22
			c-0.04-1.92,0.41-3.83,1.31-5.55c0.6-1.14-1.17-2.08-1.76-0.94c-1.48,2.84-1.88,6.05-1.21,9.18c0.07,0.31,0.29,0.52,0.56,0.61
			c0.04,0.8,0.15,1.6,0.33,2.4c0.32,1.38,0.78,2.83,1.96,3.69C157.27,93.38,157.27,93.33,157.28,93.28z"/>
		<path class="st10" d="M163.35,81.24c-0.58,0.02-0.94,0.5-0.96,1.04c-0.13,3.13-0.13,6.26-0.01,9.39c0.05,1.29,2.05,1.21,2-0.08
			c-0.12-3.13-0.12-6.26,0.01-9.39C164.41,81.66,163.86,81.22,163.35,81.24z"/>
		<path class="st10" d="M166.42,103.49c-0.35-0.29-0.68-0.6-0.99-0.93c-0.07-0.08-0.14-0.16-0.21-0.24
			c-0.04-0.05-0.08-0.1-0.11-0.14c-0.14-0.18-0.27-0.36-0.4-0.55c-0.25-0.37-0.46-0.75-0.66-1.15c0,0,0,0,0,0c0,0,0,0,0,0
			c-0.02-0.05-0.04-0.09-0.06-0.14c-0.05-0.1-0.09-0.21-0.13-0.32c-0.09-0.22-0.16-0.45-0.23-0.68c-0.15-0.5-0.75-0.83-1.26-0.65
			c-0.51,0.19-0.81,0.72-0.65,1.26c0.6,1.95,1.77,3.73,3.35,5.02c0.4,0.33,1.05,0.37,1.41-0.06
			C166.81,104.51,166.85,103.85,166.42,103.49z"/>
		<path class="st10" d="M166.77,105.48c0.13,0.03-0.17-0.05-0.16-0.05c-0.09-0.02-0.17-0.05-0.26-0.08
			c-0.19-0.06-0.37-0.12-0.56-0.2c-0.18-0.07-0.36-0.15-0.54-0.23c-0.08-0.04-0.16-0.08-0.24-0.12c0.01,0-0.13-0.07-0.17-0.09
			c-0.67-0.36-1.29-0.82-1.85-1.34c-0.41-0.38-0.99-1.08-1.38-1.65c-0.11-0.17-0.35-0.59-0.5-0.9c-0.17-0.35-0.32-0.72-0.44-1.09
			c-0.17-0.51-0.87-0.7-1.33-0.49c-0.53,0.24-0.67,0.81-0.49,1.33c1.17,3.46,4.18,6.04,7.7,6.89c0.53,0.13,1.05-0.4,1.1-0.89
			C167.72,105.99,167.29,105.61,166.77,105.48z"/>
		<path class="st10" d="M157.16,76.54c-0.12-0.24-0.3-0.4-0.55-0.52c-0.85-0.41-1.75-0.7-2.67-0.9c-0.24-0.05-0.57,0.07-0.74,0.22
			c-0.19,0.15-0.34,0.42-0.36,0.66c-0.02,0.26,0.04,0.54,0.22,0.74c0.06,0.06,0.12,0.12,0.19,0.17c0.14,0.1,0.3,0.16,0.48,0.18
			c0.01,0,0.02,0,0.02,0.01c0.74,0.19,1.46,0.44,2.14,0.77c0.22,0.11,0.56,0.08,0.78-0.02c0.22-0.1,0.44-0.32,0.52-0.55
			C157.27,77.07,157.29,76.78,157.16,76.54z"/>
		<path class="st10" d="M157.71,75.06c-0.16-0.12-0.32-0.26-0.47-0.39c-0.31-0.3-0.59-0.64-0.83-1c-0.13-0.2-0.44-0.33-0.66-0.36
			c-0.25-0.03-0.56,0.05-0.74,0.22c-0.19,0.17-0.34,0.4-0.36,0.66l0.01,0.27c0.03,0.18,0.1,0.34,0.22,0.48
			c0.45,0.67,1.03,1.26,1.68,1.74c0.2,0.15,0.49,0.22,0.74,0.18c0.24-0.04,0.51-0.19,0.65-0.4c0.14-0.22,0.23-0.48,0.18-0.74
			C158.05,75.45,157.92,75.22,157.71,75.06z"/>
		<path class="st10" d="M159.22,75.83c-0.06-0.18-0.12-0.37-0.18-0.55c-0.22-0.76-0.4-1.52-0.52-2.3c-0.08-0.52-0.62-0.94-1.15-0.83
			c-0.53,0.11-0.91,0.59-0.83,1.15c0.18,1.15,0.47,2.27,0.86,3.37c0.08,0.22,0.34,0.43,0.55,0.52c0.23,0.09,0.55,0.09,0.78-0.02
			c0.23-0.12,0.43-0.3,0.52-0.55C159.33,76.34,159.31,76.1,159.22,75.83z"/>
		<path class="st10" d="M181.84,98.64c-0.99,0.82-2.2,1.33-3.49,1.44c-0.59,0.05-1.2-0.03-1.72-0.32c-0.56-0.32-1.01-0.82-1.47-1.27
			c-0.19-0.19-0.48-0.25-0.7-0.07c-0.19,0.16-0.26,0.52-0.07,0.7c0.54,0.52,1.06,1.1,1.71,1.48c0.67,0.38,1.41,0.51,2.17,0.48
			c1.53-0.06,3.03-0.69,4.2-1.66C182.97,99,182.34,98.23,181.84,98.64z"/>
	</g>
	<path class="st3" d="M58.36,101.64c-5.03-1.56-10.27,1.58-12.4,6.15c-2.51,5.37-1.51,11.21-0.35,16.79
		c0.22,1.06,1.47,1.67,2.46,1.4c1.1-0.3,1.62-1.4,1.4-2.46c-0.9-4.32-1.89-8.99-0.24-13.27c1.24-3.2,4.52-5.85,8.07-4.75
		C59.76,106.27,60.81,102.41,58.36,101.64z"/>
	<path class="st11" d="M72.58,138.19c0.01-0.21,0-0.47,0-0.56c0.03-0.64,0.01-1.3-0.18-1.92c-0.47-1.5-1.95-2.42-3.5-2.2
		c-1.51,0.22-2.61,1.33-3.69,2.32c-0.42,0.38-0.83,0.76-1.25,1.14c-0.77-1.18-1.93-1.99-3.59-1.91c-1.64,0.08-2.81,0.9-3.7,2.03
		c-0.28-0.38-0.55-0.76-0.84-1.14c-0.91-1.18-1.76-2.56-3.21-3.12c-1.52-0.59-3.22,0.07-3.66,1.71c-0.41,1.52,0.22,3.56,0.58,5.06
		c0.53,2.19,3.54,1.65,3.89-0.19c0.59,0.81,1.17,1.62,1.73,2.46c1,1.51,3.04,1.13,3.66-0.48c0.27-0.7,0.8-2.41,1.8-2.37
		c-0.13-0.01,0.04-0.11,0.18,0.26c0.2,0.55,0.31,1.12,0.41,1.7c0.26,1.58,2.34,1.8,3.34,0.88c1.07-0.98,2.14-1.97,3.21-2.95
		c0.19-0.17,0.48-0.38,0.75-0.6c0.05,0.77,0.3,1.58,0.61,2.14c0.71,1.26,2,1.77,3.37,1.49C74.56,141.52,74.19,138.82,72.58,138.19z"
		/>
	<path class="st11" d="M82.08,151.51c-0.99-0.01-1.94,0.37-2.8,0.83c-0.15,0.08-0.3,0.18-0.46,0.27c-0.67-0.95-1.75-1.6-2.93-1.6
		c-1.38,0.01-2.62,0.7-3.56,1.68c-0.18,0.19-0.35,0.4-0.51,0.63c-0.68-0.68-1.56-1.15-2.61-1.21c-2.27-0.15-4.17,1.63-4.29,3.85
		c-0.06,1.08,0.96,2,2,2c1.06,0,1.83-0.81,1.97-1.8c0-0.01,0.01-0.02,0-0.02c0,0,0-0.01,0-0.01c0.02-0.01,0.05-0.03,0.07-0.04
		c0.08,0.05,0.18,0.15,0.2,0.18c0.13,0.18,0.15,0.33,0.15,0.56c0.03,1.4,1.72,2.64,3.01,1.73c1.17-0.83,1.8-1.92,2.75-2.95
		c0.05-0.05,0.1-0.1,0.16-0.14c0.02,0.18,0.07,0.36,0.15,0.54c0.33,0.74,1.01,1.2,1.83,1.23c1.38,0.04,2.55-0.56,3.72-1.23
		c0.25-0.15,0.51-0.32,0.78-0.42c0.03-0.01,0.07-0.02,0.11-0.03c0.2,0.87,1.06,1.54,1.95,1.54c1.13,0,1.94-0.92,2-2
		C85.87,153.1,84.01,151.54,82.08,151.51z"/>
	<g>
		<path class="st11" d="M71.71,164.01c-1.1-1.57-3.04-2.19-4.86-1.56c-0.87,0.3-1.58,0.83-2.16,1.48c-0.68-0.37-1.45-0.57-2.25-0.51
			c-1.92,0.15-3.77,1.6-4.07,3.57c-0.08,0.55-0.09,1.04,0.2,1.54c0.24,0.41,0.72,0.81,1.2,0.92c0.95,0.22,2.3-0.29,2.46-1.4
			c0.02-0.11,0.03-0.22,0.06-0.32c0-0.02,0.01-0.03,0.01-0.04c0.02-0.04,0.05-0.08,0.08-0.12c0.01-0.01,0.01-0.01,0.03-0.02
			c0.03-0.02,0.06-0.05,0.09-0.08c0.02-0.01,0.04-0.02,0.06-0.04c0.02-0.01,0.06-0.01,0.09-0.02c0.01,0,0.02,0,0.03,0
			c0,0-0.01,0-0.01,0c0,0,0.01,0,0.01,0c0,0,0.01,0,0.01,0c0.02,0,0.04,0,0.06,0c0,0,0.01,0.01,0.01,0.01c-0.02,0-0.04,0-0.06,0
			c0.05,0.02,0.12,0.05,0.16,0.06c0.02,0.01,0.04,0.02,0.05,0.03c0.02,0.02,0.04,0.04,0.06,0.06c0.03,0.05,0.06,0.09,0.08,0.12
			c0,0.01,0,0.02,0.01,0.04c0.23,0.77,0.87,1.33,1.66,1.43c0.73,0.1,1.66-0.24,1.99-0.95c0.22-0.47,0.46-0.91,0.73-1.35
			c0.02-0.03,0.03-0.05,0.04-0.07c0.01-0.01,0.01-0.01,0.01-0.02c0.07-0.08,0.13-0.15,0.2-0.22c0.02-0.02,0.08-0.08,0.13-0.14
			c0.06-0.04,0.12-0.08,0.18-0.11c-0.01,0-0.02,0-0.03-0.01c0,0,0.03-0.01,0.07-0.01c0,0,0.01,0,0.01-0.01
			c0.05-0.03,0.08-0.05,0.1-0.06c0.01,0,0.01,0,0.02,0c-0.01,0.01-0.03,0.03-0.06,0.04c0.05-0.02,0.1-0.03,0.13-0.04
			c0.05,0,0.11,0,0.16,0c0.03,0.03,0.03,0.03,0.01,0c0,0,0,0,0,0c0.63,0.73,1.7,1.1,2.58,0.53
			C71.84,166.19,72.35,164.92,71.71,164.01z"/>
		<path class="st11" d="M62.66,167.42c0.01,0,0.01,0,0.02,0C62.68,167.42,62.68,167.42,62.66,167.42
			C62.67,167.42,62.67,167.42,62.66,167.42z"/>
		<path class="st11" d="M67.99,166.29c0.03,0,0.08-0.02,0.12-0.04c-0.03,0.01-0.05,0.01-0.07,0.02
			C68.02,166.28,68.01,166.29,67.99,166.29z"/>
	</g>
	<path class="st3" d="M194.17,145.22c-0.03-2.32-0.05-4.64-0.06-6.96c0-1.75-0.07-3.53-0.02-5.29c1.73-0.06,3.47-0.08,5.2-0.19
		c0.35-0.48,0.87-0.86,1.61-1.04c6.07-1.5,12.32-2.72,18.02-5.31c0.08-0.23,0.15-0.47,0.19-0.74c0.38-2.48-0.91-5.17-1.64-7.49
		c-0.78-2.48-1.56-4.97-2.33-7.45c-0.62-1.97-1.04-4.76-3.44-5.27c-1.14-0.24-2.29,0.2-3.36,0.53c-1.11,0.34-2.21,0.72-3.3,1.12
		c-4.45,1.65-8.74,3.75-12.74,6.31c-0.96,0.61-1.88,1.28-2.8,1.95c-3.11,0.92-6.25,1.48-9.4,1.66c-0.39,0.02-0.78,0.15-1.11,0.37
		c-3.14-1.22-6.05-2.67-9.66-1.99c-2.4,0.45-4.63,1.66-6.76,2.79c-2.2,1.16-4.36,2.4-6.48,3.72c-2.31,1.43-4.76,2.88-6.83,4.64
		c-2.36,2.02-1.69,4.55-0.6,7.05c0.98,2.26,2.51,4.26,4.98,4.95c2.49,0.7,5.11-0.06,7.45-0.92c0.16-0.06,0.31-0.13,0.44-0.22
		c0,0,0.01,0.01,0.01,0.01c0.11,0.07,0.22,0.12,0.33,0.17c0.05,0.02,0.1,0.04,0.15,0.06c-2.34,7.06-4.52,14.18-6.5,21.35
		c-0.5,1.8-0.99,3.61-1.46,5.42c-0.47,1.8-1.38,3.94-0.47,5.74c1.53,3.04,12.01,6.13,20.01,5.57c6.05-0.42,13.32-1.52,17.03-2.39
		c2.97-0.7,0.53-2.07,2.25-4.67c1.96-2.97,1.81-6.69,1.67-10.09C194.37,154.16,194.24,149.69,194.17,145.22z"/>
	<path class="st6" d="M270.17,87.67c-0.08-0.15-0.18-0.25-0.3-0.33c-0.56-0.9-1.17-1.76-1.85-2.58c-0.64-0.76-1.99,0.05-1.67,0.97
		c0.33,0.97,0.71,1.92,1.14,2.85c-1.79-0.42-3.74-0.18-5.35,0.83c-0.58,0.36-1.21,0.8-1.35,1.51c-0.18,0.92,0.54,1.67,1.38,1.88
		c0.84,0.21,1.79,0.2,2.65,0.25c-1,0.59-1.96,1.23-2.61,2.31c-0.27,0.44-0.12,1.13,0.36,1.37c0.88,0.44,1.76,0.44,2.7,0.21
		c0.45-0.11,0.95-0.3,1.45-0.41c-0.01,0.49,0.08,0.97,0.26,1.43c-0.6,0.45-0.66,1.56,0.28,1.77c1.16,0.26,2.37-0.16,3.14-1.07
		c0.86-1.02,1.12-2.32,1.26-3.61C271.92,92.52,271.36,89.93,270.17,87.67z M263.59,90.98c-0.02,0-0.05-0.01-0.08-0.01
		c0.13-0.07,0.25-0.15,0.38-0.2c0.31-0.13,0.64-0.21,0.97-0.28l0,0.58C264.44,91.04,264.01,91.01,263.59,90.98z"/>
	<path class="st6" d="M268.9,101.09c-6.95,1.51-13.73,3.68-20.63,5.38c-3.35,0.82-6.79,1.63-10.23,1.98
		c-1.72,0.17-2.6-0.27-3.6-1.64c-1.13-1.54-2.18-3.14-3.27-4.71c-0.07-0.11-0.15-0.2-0.24-0.27c0.21-1.04-0.53-2.24-1.76-1.74
		c-2.68,1.08-5.37,2.15-8.05,3.23c-1.52,0.61-3.88,1.1-4.59,2.68c-0.22-0.02-0.44,0-0.66,0.07c-1.03,0.33-1.7,1.38-1.4,2.46
		c0.8,2.86,1.68,5.69,2.65,8.5c0.34,0.99,1.39,1.74,2.46,1.4c0.34-0.11,0.65-0.31,0.9-0.57c0.81,0.17,1.69,0.2,2.53,0.21
		c5.38,0.03,10.65-1.34,15.76-2.9c5.04-1.54,10.09-3.05,15.13-4.57c5.6-1.69,11.16-3.66,16.17-6.74
		C271.53,102.93,270.55,100.74,268.9,101.09z"/>
	<path class="st12" d="M262.94,98.35c-0.39-0.3-0.84-0.47-1.28-0.66c-0.19-0.08-0.45-0.16-0.71-0.25c0.03-0.05,0.06-0.09,0.09-0.14
		c0.27-0.44,0.56-0.88,0.84-1.31c0.43-0.66,0.16-1.69-0.54-2.05c-0.88-0.46-1.73-0.98-2.5-1.61c-0.25-0.2-0.75-0.51-0.86-0.79
		c-0.05-0.12-0.09-0.17-0.12-0.2c0.03-0.02,0.08-0.06,0.15-0.15c0.41-0.56,1.66-0.94,2.24-1.24c0.87-0.45,1.82-0.85,2.66-1.38
		c1.46-0.92,1.27-2.62-0.11-3.52c-1.46-0.96-3.3-1.42-4.98-1.81c-8.01-1.84-16.26-2.77-24.48-2.93c-0.34-0.01-0.61,0.08-0.83,0.23
		c-0.57,0.16-1.06,0.62-1.09,1.38c-0.18,4.57-0.09,9.15,0.33,13.71c0.2,2.15,0.41,4.32,0.79,6.44c0.27,1.53,0.79,3.14,1.96,4.23
		c2.94,2.75,7.74,0.78,11.09,0c4.47-1.04,8.95-2.07,13.42-3.11c1.62-0.38,4.52-0.53,4.88-2.62
		C264.05,99.68,263.65,98.89,262.94,98.35z"/>
	<path class="st13" d="M247.5,93.32c-0.07-0.32-0.38-0.76-0.69-0.9c-0.26-0.11-0.52-0.21-0.78-0.27c-0.04-0.02-0.08-0.04-0.12-0.07
		c0.17-0.64-0.03-1.37-0.65-1.7c-0.15-0.08-0.29-0.16-0.44-0.24c-0.48-0.26-1.04-0.28-1.51,0c-0.46,0.27-0.73,0.76-0.74,1.3
		c-0.01,0.55,0.13,1.06,0.35,1.54c-0.09,0.07-0.18,0.14-0.26,0.22c-0.31,0.3-0.59,0.66-0.78,1.05c-0.11,0.24-0.2,0.49-0.2,0.76
		c0,0.33,0.12,0.65,0.32,0.91c0.37,0.48,0.99,0.69,1.58,0.54c0.86-0.22,1.69-0.67,2.36-1.26c0.04,0.01,0.08,0.01,0.12,0.02
		c0.13-0.02,0.27-0.04,0.4-0.05c0.2-0.05,0.37-0.14,0.51-0.27c0.25-0.19,0.47-0.47,0.54-0.78C247.56,93.85,247.56,93.58,247.5,93.32
		z"/>
	<path class="st6" d="M91.19,171.06c-0.06,0.1-0.13,0.19-0.19,0.29c0.01-0.1,0.02-0.2,0.03-0.29c0.08-0.55,0.03-1.05-0.39-1.46
		c-0.23-0.23-0.53-0.37-0.85-0.41c0.02-0.05,0.05-0.09,0.07-0.13c0.28-0.62,0.27-1.31-0.23-1.82c-0.4-0.4-1.05-0.53-1.58-0.33
		c-0.07-0.06-0.16-0.12-0.25-0.16c-1.28-0.59-2.72-0.72-4.05-0.2c-1.36,0.53-2.87,1.74-2.86,3.34c0.01,1.02,0.76,1.91,1.72,2.19
		c0.41,0.13,0.82,0.14,1.23,0.08c-0.2,0.53-0.32,1.09-0.3,1.68c0.03,0.98,0.93,1.7,1.9,1.45c0.94-0.24,1.72-0.81,2.43-1.45
		c0,1.07,0.05,2.28,1.07,2.89c0.6,0.36,1.35,0.28,1.91-0.08c0.5-0.31,0.81-0.89,1.13-1.36c0.11-0.15,0.2-0.31,0.31-0.47
		c0.58-0.08,1.11-0.49,1.26-1.08c0.13-0.51,0.25-1.01,0.38-1.52C94.34,170.55,92.11,169.63,91.19,171.06z"/>
	<path class="st6" d="M153.01,137.98c-1.52-2.31-2.94-4.69-4.25-7.12c-0.37-0.69-1.39-0.97-2.05-0.54c-0.39,0.25-0.63,0.64-0.7,1.05
		c-0.66,0.24-1.17,0.86-1.14,1.71c0.03,0.89,0.7,1.71,1.17,2.43c0.41,0.62,0.84,1.23,1.3,1.83c1.02,1.33,2.11,2.6,3.3,3.77
		c0.56,0.55,1.57,0.6,2.12,0c0.43-0.47,0.55-1.16,0.28-1.72C153.26,138.95,153.29,138.41,153.01,137.98z"/>
	<path class="st10" d="M183.67,115.5c-0.88,0.44-1.83,0.37-2.79,0.28c-1-0.09-1.99-0.23-2.97-0.44c-1.98-0.42-3.89-1.16-5.52-2.38
		c-1.03-0.77-2.23,0.83-1.2,1.6c1.92,1.44,4.16,2.28,6.49,2.76c1.11,0.23,2.25,0.39,3.38,0.47c1.16,0.09,2.35,0.06,3.41-0.47
		C185.62,116.75,184.82,114.92,183.67,115.5z"/>
	<path class="st10" d="M186.88,116.75c-0.03-0.54-0.69-0.88-1.17-0.8c-0.59,0.1-0.83,0.63-0.8,1.17c0.04,0.78-0.11,1.55-0.41,2.27
		c-0.17,0.41-0.68,1.57-1.21,1.44c-0.54-0.13-1.22-0.97-1.57-1.38c-0.51-0.59-0.91-1.24-1.23-1.95c-0.44-0.96-1.74-0.58-1.9,0.35
		c-0.15,0.89-0.29,1.94-0.97,2.61c-0.76,0.74-1.63,0.28-2.32-0.32c-1.45-1.28-2.48-3.05-3.16-4.85c-0.45-1.2-2.25-0.34-1.8,0.86
		c0.48,1.28,1.13,2.47,1.94,3.57c0.81,1.11,1.82,2.26,3.09,2.83c1.24,0.56,2.64,0.3,3.61-0.65c0.44-0.43,0.75-0.93,0.97-1.47
		c0.22,0.28,0.46,0.56,0.72,0.81c0.79,0.78,1.89,1.82,3.11,1.6c1.19-0.22,1.96-1.44,2.44-2.44
		C186.78,119.26,186.95,118.02,186.88,116.75z"/>
	<path class="st10" d="M183.42,123.6c-0.16-1.27-2.16-1.17-2,0.11c0.2,1.57,0.32,3.15,0.37,4.74c0.02,0.75,0.02,1.51,0.01,2.26
		c-0.01,0.4-0.02,0.79-0.04,1.19c-0.01,0.2,0.02,0.53-0.02,0.8c-0.38,0.13-0.92,0.16-1.25,0.23c-0.21,0.04-0.43,0.09-0.64,0.13
		c-0.65-3.59-1.02-7.23-1.12-10.88c-0.03-1.29-2.03-1.17-2,0.11c0.11,4.13,0.58,8.22,1.37,12.27c0.11,0.57,0.8,0.73,1.27,0.63
		c0.59-0.12,1.17-0.25,1.76-0.37c0.53-0.11,1.12-0.17,1.62-0.37c1.23-0.5,1-2.18,1.04-3.26
		C183.86,128.66,183.73,126.12,183.42,123.6z"/>
	<path class="st9" d="M150.47,174.32c-0.46,0.05-0.93-0.02-1.33-0.29c-2.12-1.4-3.7-3.27-5.11-5.36c-1.23-1.83-2.28-3.82-3.75-5.48
		c-0.77-0.87-1.61-1.67-2.47-2.46c0.43,0.96,0.7,1.99,1.01,3c-0.95-1.07-1.9-2.13-2.86-3.2c-0.4-0.44-0.79-0.97-1.22-1.47
		c0.13-0.32,0.25-0.65,0.38-0.99c0.56-1.49,0.98-3.04,1.46-4.56c0.4-1.25,0.85-2.48,1.49-3.63c0.18-0.31,0.46-0.83,0.79-1.32
		c2.13,1.77,4.37,3.41,6.73,4.88c1.29,0.8,2.6,1.54,3.95,2.24c1.25,0.65,2.67,1.53,4.06,1.79c0.92,0.17,1.84-0.04,2.51-0.72
		c0.63-0.63,0.72-1.55,0.87-2.38c0.27-1.53,0.92-3.41,0.42-4.93c-0.48-1.47-2.08-2.35-3.21-3.27c-1.2-0.98-2.37-1.99-3.51-3.04
		c-0.31-0.28-0.62-0.58-0.92-0.86c-1.7-2.23-3.28-4.6-5.39-6.43c-0.15-0.13-0.31-0.23-0.47-0.31c-0.12-0.53-0.24-1.05-0.34-1.56
		c-0.05-0.26-0.06-0.53-0.03-0.78c-1.49-0.55-3.09-0.71-4.68-0.78c-4.04-0.18-8.02-0.58-11.98-1.33c-0.32-0.28-0.75-0.44-1.31-0.4
		c-0.19,0.01-0.37,0.05-0.56,0.08c-0.27-0.02-0.52,0.02-0.74,0.1c-8.39,1.43-12.06,10.32-16.18,16.84
		c-4.34,6.87-9.93,13.59-17.81,16.41c-1.73,0.62-1.85,2.6-0.48,3.66c3.36,2.58,7.53,5.2,11.75,5.05c0.03,0.14,0.04,0.28,0.08,0.42
		c0.58,1.84,2.73,3.07,4.32,3.94c3.81,2.09,8.17,3.39,12.35,4.48c4.28,1.11,8.64,1.89,13.03,2.48c4.12,0.55,8.28,0.94,12.43,0.76
		c4.67-0.21,9.21-1.15,13.44-3.17c0.43-0.2,0.68-0.52,0.83-0.89C155.18,179.09,152.71,176.8,150.47,174.32z M122.91,155.48
		c-0.81,1.19-2.13,1.99-3.38,2.66c-1.28,0.69-2.67,1.33-4.13,1.48c-0.6,0.06-1.18-0.43-1.39-0.94c-0.24-0.58-0.11-1.21,0.32-1.67
		c0.82-0.89,1.77-1.63,2.69-2.41c0.49-0.41,0.96-0.84,1.41-1.29c0.22-0.22,0.43-0.45,0.63-0.69c0.04-0.05,0.09-0.1,0.13-0.15
		c0.01-0.01,0.01-0.02,0.02-0.03c0.07-0.11,0.16-0.22,0.23-0.33c0.48-0.71,1.32-0.95,2.09-0.55c0.59,0.31,0.89,1.12,0.69,1.77
		c0.05,0.02,0.1,0.04,0.15,0.06C123.06,153.76,123.36,154.82,122.91,155.48z"/>
	<path class="st14" d="M149.8,163.42c-0.7-1.23-1.97-2.17-3.42-2.25c-2.93-0.15-4.47,2.8-5.46,5.18c-0.09-0.07-0.19-0.13-0.3-0.18
		c-2.31-0.98-4.72-1.32-7.19-0.68c-2.35,0.61-4.91,2.25-4.81,4.99c0.1,2.55,2.55,4.23,4.47,5.5c1.83,1.21,3.82,2.14,5.84,2.99
		c0.96,0.4,1.93,0.78,2.9,1.15c1.31,0.5,2.68,1.08,4.04,0.35c1.25-0.67,1.72-2.02,2.22-3.26c0.41-1.01,0.75-2.05,1.03-3.11
		c0.59-2.24,0.93-4.54,1.21-6.84C150.48,165.97,150.46,164.59,149.8,163.42z"/>
	<path class="st10" d="M146.24,142.26c-0.04-1.29-2.02-1.06-1.99,0.22c0.06,2.04-1.37,3.96-3.32,4.55c-1.14,0.34-1.82,0.62-2.44,1.7
		c-0.65,1.15-1.21,2.37-1.72,3.59c-0.49,1.18-0.93,2.38-1.31,3.6c-0.2,0.64-0.38,1.28-0.56,1.93c-0.03,0.15-0.07,0.3-0.12,0.44
		c0,0.01,0,0.01-0.01,0.02c-0.23,0.13-0.83-0.01-1.09-0.02c-2.84-0.1-5.67-0.44-8.46-0.99c-1.26-0.25-1.58,1.73-0.31,1.98
		c3.12,0.61,6.29,0.97,9.47,1.01c1.35,0.02,2.05-0.48,2.41-1.79c0.43-1.54,0.89-3.06,1.48-4.55c0.55-1.4,1.17-2.79,1.89-4.11
		c0.4-0.73,0.77-0.73,1.5-0.95c0.54-0.17,1.05-0.42,1.53-0.73C145.19,146.9,146.31,144.61,146.24,142.26z"/>
	<path class="st10" d="M141.06,166.16c0.1-0.52,0.28-1.02,0.5-1.51c-1.46-2.43-3.33-4.56-5.97-5.98c-1.14-0.61-1.95,1.21-0.83,1.82
		c2.58,1.39,4.31,3.57,5.64,6.06c0.21-0.14,0.42-0.27,0.64-0.38C141.04,166.16,141.05,166.16,141.06,166.16z"/>
	<path class="st10" d="M130.43,166.29c0.5-0.43,1.09-0.76,1.75-0.93c0.09-0.02,0.18-0.02,0.26-0.04
		c-9.93-7.39-11.69-20.96-9.64-32.48c0.22-1.26-1.7-1.8-1.93-0.53c-1.26,7.09-1.38,14.56,1.01,21.44
		C123.58,158.62,126.47,163.03,130.43,166.29z"/>
	<path class="st10" d="M142.99,161.76c0.14-0.14,0.3-0.26,0.44-0.4c0.27-0.26,0.58-0.46,0.91-0.6c-1.03-2.3-3.47-8.36-4.22-9.91
		c-0.23-0.47-0.94-0.64-1.37-0.36c-0.48,0.31-0.6,0.86-0.36,1.37c0.79,1.62,3.42,8.19,4.36,10.21
		C142.83,161.97,142.9,161.86,142.99,161.76z"/>
	<path class="st10" d="M116.52,133.34c-7.02,12.36-17.2,22.76-29.41,30.05c-1.1,0.66-0.1,2.39,1.01,1.73
		c12.5-7.45,22.94-18.11,30.13-30.76C118.89,133.23,117.16,132.22,116.52,133.34z"/>
	<path class="st10" d="M119.35,149.75c-6.06,7.92-13.18,15.05-21.09,21.13c-1.01,0.77-0.01,2.51,1.01,1.73
		c8.2-6.31,15.52-13.63,21.81-21.85C121.86,149.73,120.13,148.74,119.35,149.75z"/>
	<path class="st10" d="M95.44,170.39c-3.28-1.35-6.23-3.46-8.62-6.07c-0.87-0.95-2.28,0.47-1.41,1.41c2.64,2.88,5.9,5.1,9.51,6.59
		c0.5,0.21,1.1-0.22,1.23-0.7C96.29,171.05,95.94,170.6,95.44,170.39z"/>
	<path class="st10" d="M91.2,173.78c-0.23,0.69-0.48,1.38-0.75,2.06c0-0.68,0.04-1.35,0.16-2.02c0.13-0.74-0.7-1.72-1.47-1.13
		c-0.73,0.56-1.47,1.13-2.2,1.69c-0.35,0.27-0.7,0.54-1.05,0.81c-0.12,0.09-0.26,0.18-0.39,0.27c0.07-0.18,0.14-0.37,0.22-0.55
		c0.36-0.81,0.79-1.59,1.27-2.34c0.54-0.85-0.52-1.87-1.37-1.37c-0.69,0.41-1.39,0.82-2.11,1.19l0.27-0.28
		c0.64-0.67,0.13-1.62-0.71-1.71c-0.64-0.06-1.29-0.1-1.93-0.19c0.16-0.13,0.33-0.28,0.4-0.32c1.18-0.79,2.45-1.46,3.77-1.98
		c0.5-0.2,0.85-0.67,0.7-1.23c-0.13-0.48-0.72-0.9-1.23-0.7c-1.04,0.41-2.06,0.87-3.03,1.42c-0.9,0.52-2.06,1.11-2.71,1.95
		c-0.68,0.88-0.37,2.02,0.6,2.52c0.37,0.19,0.8,0.28,1.24,0.35c-0.24,0.26-0.49,0.51-0.71,0.78c-0.69,0.83-0.46,2.07,0.68,2.29
		c0.93,0.18,2.06-0.4,2.9-0.79c-0.05,0.12-0.11,0.23-0.16,0.36c-0.37,0.93-0.69,2.21,0.31,2.88c1.1,0.74,2.14-0.15,3-0.81
		c0.52-0.4,1.03-0.79,1.55-1.19c0,0.38,0,0.75,0.03,1.13c0.08,0.92,0.09,2.5,1.21,2.81c1.27,0.35,1.76-1.08,2.14-1.97
		c0.48-1.11,0.91-2.24,1.29-3.39C93.53,173.09,91.6,172.56,91.2,173.78z"/>
	<path class="st10" d="M121.69,157.61c-0.16-0.56-0.7-0.79-1.23-0.7c-2.79,0.47-5.48,1.64-7.72,3.37c-0.43,0.33-0.66,0.86-0.36,1.37
		c0.25,0.42,0.94,0.69,1.37,0.36c2.14-1.65,4.58-2.72,7.24-3.17C121.53,158.75,121.82,158.1,121.69,157.61z"/>
	<path class="st10" d="M161.22,181.87c-4.21-2.26-8.79-4.74-10.99-9.2c-0.57-1.15-2.3-0.14-1.73,1.01c2.35,4.77,7.2,7.51,11.71,9.92
		C161.34,184.21,162.36,182.48,161.22,181.87z"/>
	<path class="st10" d="M167.82,114.28c-6.6,2.25-12.58,6.09-17.34,11.2c-0.88,0.94,0.54,2.36,1.41,1.41
		c4.52-4.86,10.17-8.55,16.45-10.68C169.57,115.8,169.05,113.87,167.82,114.28z"/>
	<path class="st10" d="M162.29,134.97c-2.22,1.38-4.27,2.99-6.13,4.82c-0.92,0.9,0.49,2.32,1.41,1.41c0.96-0.94,1.97-1.81,3.03-2.62
		c-0.22,0.88-0.39,1.78-0.6,2.6c-0.58,2.23-1.16,4.46-1.74,6.69c-1.16,4.46-2.32,8.92-3.48,13.37c-0.32,1.25,1.6,1.78,1.93,0.53
		c1.12-4.3,2.24-8.6,3.36-12.9l1.62-6.21c0.29-1.11,0.58-2.23,0.87-3.34c0.27-1.04,0.47-2.1,1.11-2.99
		C164.26,135.51,163.1,134.46,162.29,134.97z"/>
	<path class="st10" d="M193.9,134.88c0.06-1.29-1.94-1.28-2,0c-0.26,5.74-0.39,11.49-0.38,17.24c0,2.79,0.04,5.58,0.11,8.37
		c0.01,0.36-0.03,2.83-0.03,3.07c0.05,2.82,0.09,5.63,0.14,8.45c0.02,1.29,2.02,1.29,2,0c-0.03-2.01-0.16-13.03-0.2-16.45
		C193.47,148.67,193.59,141.77,193.9,134.88z"/>
	<path class="st10" d="M211.17,102.8c-3.78,1.34-7.26,3.31-10.65,5.44c-1.69,1.06-3.36,2.15-5.06,3.2
		c-1.78,1.11-3.58,2.29-5.62,2.85c-1.24,0.34-0.71,2.27,0.53,1.93c1.92-0.52,3.62-1.54,5.31-2.56c1.76-1.07,3.48-2.2,5.22-3.29
		c3.44-2.17,6.96-4.27,10.81-5.63C212.91,104.3,212.39,102.36,211.17,102.8z"/>
	<path class="st10" d="M220.32,124.23c-9.99,3.34-17.04,5.53-27.32,7.77c-1.26,0.27-0.73,2.2,0.53,1.93
		c10.29-2.24,17.34-4.43,27.32-7.77C222.07,125.76,221.55,123.82,220.32,124.23z"/>
	<path class="st10" d="M220.98,123.84c-1.15-1.23-1.6-2.89-2.12-4.45c-0.57-1.73-1.15-3.46-1.72-5.18
		c-1.17-3.52-2.34-7.04-3.51-10.56c-0.4-1.22-2.34-0.69-1.93,0.53c1.25,3.77,2.51,7.55,3.76,11.33c0.61,1.83,1.21,3.67,1.83,5.5
		c0.53,1.55,1.14,3.03,2.27,4.25C220.45,126.2,221.86,124.78,220.98,123.84z"/>
	<path class="st10" d="M230.69,99.49c-0.42-0.42-0.6-0.97-0.57-1.51c-4.96,2.28-9.9,4.59-14.83,6.93c-1.16,0.55-0.27,2.34,0.89,1.79
		c4.94-2.35,9.89-4.66,14.85-6.94C230.91,99.69,230.79,99.6,230.69,99.49z"/>
	<path class="st10" d="M268.91,100.09c-0.36,0-0.73-0.12-1.06-0.33c-0.02,0.04-0.02,0.1-0.04,0.14c-0.33,0.61-1.21,0.75-1.8,0.94
		c-0.9,0.29-1.8,0.57-2.7,0.84c-6.38,1.93-12.85,3.54-19.39,4.83c-1.54,0.3-3.08,0.59-4.63,0.86c-1.48,0.26-3.61,1.03-4.74-0.33
		c-0.89-1.07-1.21-2.78-1.54-4.09c-0.44-1.7-0.79-3.42-1.06-5.15c-0.5-3.23-0.71-6.5-0.6-9.76c0.05-1.51,0.13-3.04,0.36-4.53
		c0.12-0.78,0.28-1.6,0.63-2.32c0.27-0.56,0.27-0.68,0.89-0.78c0.39-0.06,0.93,0.12,1.32,0.18c7.88,1.09,15.75,2.27,23.61,3.53
		c1.27,0.2,1.51-1.78,0.24-1.99c-4.09-0.65-8.19-1.29-12.29-1.9c-4.14-0.62-8.31-1.4-12.47-1.79c-3.55-0.33-3.92,4.24-4.13,6.84
		c-0.3,3.73-0.22,7.51,0.24,11.23c0.24,1.89,0.57,3.77,1.01,5.63c0.38,1.62,0.75,3.35,1.46,4.86c0.61,1.3,1.58,2.42,3.04,2.73
		c1.68,0.35,3.6-0.24,5.26-0.54c7.66-1.37,15.24-3.18,22.69-5.4c1.05-0.31,2.1-0.64,3.15-0.97c0.86-0.27,1.79-0.5,2.5-1.08
		c0.61-0.5,0.88-1.17,0.99-1.89C269.58,100,269.27,100.09,268.91,100.09z"/>
	<path class="st10" d="M272.31,90c-0.6-1.13-2.44-0.35-1.84,0.79c1.2,2.26,1.39,5.18-0.44,7.18c-0.75,0.81-1.77,1.4-2.87,1.53
		c-0.24,0.03-0.51,0.11-0.61-0.07c-0.1-0.18,0.16-0.62,0.23-0.76c0.28-0.62,0.56-1.18,0.57-1.88c0.01-0.68-0.65-1.44-1.39-1.04
		c-1.07,0.58-2.2,0.91-3.38,1c1.05-1.34,2.47-2.33,4.11-2.91c1.17-0.41,0.49-1.93-0.54-1.91c-1.66,0.03-3.35,0.04-4.98-0.26
		c2.01-1.47,4.54-2.2,7.04-2c0.8,0.06,1.53-0.93,0.91-1.61c-0.94-1.03-1.54-2.32-1.6-3.71c0.11,0.16,0.21,0.3,0.26,0.39
		c0.46,0.84,0.92,1.68,1.38,2.53c0.61,1.12,2.46,0.34,1.84-0.79c-0.75-1.38-1.4-2.97-2.34-4.24c-0.73-0.99-2.19-1.21-2.82,0.01
		c-0.54,1.02-0.37,2.55-0.1,3.62c0.16,0.64,0.39,1.26,0.7,1.83c-3.07,0.25-5.94,1.59-8.12,3.85c-0.44,0.46-0.14,1.33,0.41,1.53
		c1.29,0.45,2.61,0.67,3.95,0.77c-1.15,0.95-2.1,2.13-2.8,3.49c-0.3,0.59,0.2,1.3,0.8,1.37c1.38,0.17,2.76,0.06,4.08-0.31
		c-0.08,0.22-0.15,0.45-0.18,0.69c-0.09,0.83,0.19,1.69,0.93,2.13c1.48,0.89,3.76-0.09,5-1C273.72,97.86,274.1,93.37,272.31,90z"/>
	<path class="st10" d="M220.67,81.88c-2.19-0.26-4.38-0.51-6.57-0.77c-0.52-0.06-1.02,0.5-1,1c0.03,0.59,0.44,0.93,1,1
		c2.19,0.26,4.38,0.51,6.57,0.77c0.52,0.06,1.02-0.5,1-1C221.64,82.29,221.23,81.95,220.67,81.88z"/>
	<path class="st10" d="M222.01,86.53c-0.08-0.24-0.23-0.48-0.46-0.6c-0.25-0.13-0.49-0.15-0.77-0.1c-1.13,0.19-2.25,0.38-3.38,0.56
		c-0.23,0.04-0.48,0.26-0.6,0.46c-0.13,0.21-0.18,0.53-0.1,0.77c0.08,0.24,0.23,0.48,0.46,0.6c0.25,0.13,0.49,0.15,0.77,0.1
		c1.13-0.19,2.25-0.38,3.38-0.56c0.23-0.04,0.48-0.26,0.6-0.46C222.04,87.09,222.09,86.77,222.01,86.53z"/>
	<path class="st10" d="M224.08,90.27c-0.18-0.56-0.68-0.79-1.23-0.7c-2.09,0.35-4.12,1.17-5.87,2.37c-0.43,0.3-0.67,0.89-0.36,1.37
		c0.28,0.43,0.91,0.68,1.37,0.36c0.41-0.28,0.83-0.54,1.26-0.77c0.23-0.13,0.47-0.24,0.7-0.36c0.12-0.06,0.24-0.11,0.36-0.16
		c0.03-0.01,0.03-0.01,0.04-0.02c0.04-0.02,0.09-0.03,0.13-0.05c0.93-0.37,1.9-0.64,2.89-0.8
		C223.89,91.42,224.23,90.75,224.08,90.27z"/>
	<path class="st10" d="M154.36,138.46c-2.45-3.16-4.25-6.8-5.34-10.64c-0.35-1.24-2.28-0.71-1.93,0.53
		c1.19,4.2,3.19,8.08,5.86,11.53c0.33,0.43,1.07,0.35,1.41,0C154.79,139.46,154.7,138.89,154.36,138.46z"/>
	<path class="st10" d="M152.77,155.76c-3.22-1.08-6.19-2.84-8.7-5.13c-0.95-0.87-2.37,0.54-1.41,1.41c2.77,2.53,6.03,4.44,9.58,5.64
		c0.51,0.17,1.09-0.2,1.23-0.7C153.62,156.45,153.28,155.94,152.77,155.76z"/>
	<path class="st10" d="M58.08,136.29c-0.82-2.91-1.85-6.15-4.7-7.69c-2.46-1.33-5.33-0.82-6.94,1.52c-1.56,2.28-1.57,5.34-1.18,7.97
		c0.23,1.53,0.67,3.01,1.27,4.41c-0.49-0.36-0.99-0.72-1.48-1.08c-1.09-0.79-2.81-1.87-4.05-0.71c-1.37,1.28,0.01,3.26,0.78,4.46
		c1.03,1.62,2.27,3.1,3.66,4.42c0.94,0.88,2.35-0.53,1.41-1.41c-0.99-0.93-1.91-1.94-2.7-3.05c-0.36-0.5-0.69-1.01-1-1.54
		c-0.17-0.29-0.34-0.57-0.49-0.87c-0.12-0.23-0.32-0.45-0.2-0.49c0.34-0.1,1.03,0.52,1.26,0.69c0.62,0.45,1.24,0.9,1.86,1.35
		c1.24,0.9,2.48,1.81,3.72,2.71c1,0.73,1.85-0.76,1.21-1.57c-1.55-1.97-2.61-4.29-3.14-6.74c-0.46-2.13-0.62-4.6,0.26-6.64
		c0.91-2.09,3.01-2.77,4.97-1.56c2.18,1.34,2.88,4.04,3.52,6.35C56.5,138.06,58.43,137.54,58.08,136.29z"/>
	<path class="st10" d="M73.18,131.34c-0.74-1.49-2.57-1.98-4.08-1.43c-1.67,0.61-2.76,2.21-3.64,3.67c-0.23,0.39-0.45,0.79-0.66,1.2
		c-0.04-0.25-0.07-0.5-0.11-0.74c-0.26-1.32-0.63-2.74-1.75-3.6c-2.86-2.2-4.57,2.74-5.13,4.69c-0.35,1.24,1.58,1.77,1.93,0.53
		c0.31-1.07,0.71-2.11,1.26-3.09c0.11-0.19,0.33-0.69,0.61-0.64c0.19,0.03,0.4,0.4,0.49,0.54c0.52,0.85,0.64,1.92,0.8,2.88
		c0.21,1.22,0.31,2.46,0.35,3.69c0.03,1.11,1.67,1.38,1.96,0.27c0.35-1.31,0.81-2.58,1.44-3.78c0.6-1.15,1.31-2.42,2.32-3.27
		c0.62-0.52,1.93-0.98,2.41-0.03c0.28,0.55,0.22,1.31,0.18,1.91c-0.04,0.74-0.2,1.47-0.42,2.18c-0.39,1.23,1.54,1.76,1.93,0.53
		C73.6,135.2,73.97,132.95,73.18,131.34z"/>
	<path class="st10" d="M82.42,153.93c-0.41-1.82-2.2-3.06-4.04-2.99c-1.09,0.04-1.75,0.62-2.63,1.16c-0.31,0.19-0.34,0.29-0.56,0.09
		c-0.1-0.1-0.21-0.55-0.27-0.69c-0.18-0.43-0.43-0.82-0.77-1.15c-1.29-1.24-3.47-1.37-4.95-0.4c-0.85,0.56-1.41,1.36-1.74,2.26
		c-1.11-1.22-2.59-1.99-4.4-1.48c-2.45,0.69-3.18,3.92-1.09,5.45c1.04,0.76,2.04-0.97,1.01-1.73c-0.34-0.25-0.32-0.82-0.16-1.17
		c0.27-0.6,0.97-0.76,1.57-0.68c1.47,0.19,2.32,1.63,2.83,2.89c0.48,1.18,2.16,0.75,1.93-0.53c-0.25-1.36,0.23-3.23,1.75-3.6
		c0.56-0.14,1.23-0.06,1.71,0.28c0.58,0.42,0.62,1.18,0.98,1.75c1.05,1.63,2.69,0.71,3.9-0.09c1.13-0.75,2.69-0.22,3,1.15
		C80.77,155.72,82.7,155.19,82.42,153.93z"/>
	<path class="st10" d="M79.09,54.17c-3.46,18.66-6.96,37.63-14.64,55.11c-2.16,4.92-4.66,9.68-7.51,14.23
		c-0.69,1.09,1.04,2.1,1.73,1.01c10.26-16.33,15.44-35.12,19.29-53.85c1.09-5.31,2.08-10.64,3.07-15.97
		C81.25,53.44,79.33,52.9,79.09,54.17z"/>
	<path class="st10" d="M88.53,113c-4.46,0.09-8.9-0.3-13.27-1.17c-0.54-0.11-1.07,0.15-1.23,0.7c-1.13,3.9-2.64,7.65-4.54,11.24
		c-0.6,1.14,1.13,2.15,1.73,1.01c1.83-3.47,3.32-7.11,4.47-10.86c4.24,0.78,8.53,1.16,12.84,1.08
		C89.81,114.97,89.82,112.97,88.53,113z"/>
	<path class="st10" d="M100.46,89.18c-4.6-11.58-6.56-24.04-5.71-36.48c0.09-1.28-1.91-1.28-2,0c-0.86,12.59,1.12,25.29,5.78,37.01
		C99,90.9,100.94,90.38,100.46,89.18z"/>
	<path class="st10" d="M93.02,99.03c-4.59,0.58-9.21,0.92-13.83,1.02c1.8-3.84,3.46-7.74,4.98-11.7c0.46-1.2-1.47-1.72-1.93-0.53
		c-1.66,4.33-3.5,8.59-5.5,12.77c-0.32,0.66,0.06,1.51,0.86,1.5c5.16-0.06,10.3-0.41,15.42-1.06c0.54-0.07,0.99-0.41,1-1
		C94.03,99.54,93.56,98.96,93.02,99.03z"/>
	<path class="st10" d="M93.49,95.89c-1.81-2.66-3.04-5.63-3.63-8.79c-0.1-0.53-0.74-0.83-1.23-0.7c-0.56,0.15-0.8,0.7-0.7,1.23
		c0.62,3.31,1.93,6.49,3.83,9.27c0.3,0.45,0.88,0.64,1.37,0.36C93.57,96.99,93.8,96.33,93.49,95.89z"/>
	<path class="st10" d="M92.14,39.02c0.02-0.45-0.32-0.83-0.73-0.96c-1.79-0.57-3.62-0.98-5.48-1.23c-0.83-0.11-1.72-0.24-2.48,0.22
		c-0.67,0.41-1,1.16-1.13,1.91c-0.31,1.8-0.45,3.64-0.66,5.45l-0.69,5.81c-0.06,0.54,0.51,1,1,1c0.59,0,0.94-0.46,1-1
		c0.39-3.23,0.77-6.46,1.16-9.69c0.04-0.37,0-1.5,0.35-1.77c0.29-0.22,1.27,0.04,1.65,0.1c1.36,0.21,2.69,0.53,4.01,0.92
		c-0.06,2.85,0.09,5.7,0.47,8.53c0.07,0.54,0.41,1,1,1c0.48,0,1.07-0.46,1-1C92.19,45.23,92.03,42.13,92.14,39.02z"/>
	<path class="st10" d="M88.99,30.47c-0.52-0.9-1.44-1.91-2.6-1.47c-1.01,0.38-1.48,1.66-1.8,2.6c-0.35,1.02-0.5,2.13-0.46,3.21
		c0.02,0.52,0.44,1.02,1,1c0.52-0.02,1.02-0.44,1-1c-0.05-1.03,0.06-1.74,0.4-2.73c0.04-0.1,0.07-0.2,0.11-0.29
		c0.05-0.11,0.05-0.13,0.02-0.05c0.02-0.05,0.04-0.1,0.07-0.14c0.09-0.18,0.18-0.36,0.28-0.53c0,0,0.01,0.01,0.01,0.01
		c0,0.01,0.01,0.02,0.03,0.06c0.07,0.12,0.15,0.23,0.22,0.35c0.11,0.19,0.22,0.39,0.31,0.59c0.02,0.03,0.15,0.32,0.09,0.19
		c0.04,0.09,0.08,0.19,0.11,0.29c0.08,0.23,0.16,0.46,0.22,0.69c0.06,0.23,0.12,0.47,0.17,0.7c0.02,0.12,0.04,0.23,0.06,0.35
		c0.01,0.07,0.01,0.13,0.02,0.2c0.04,0.48,0.05,0.96,0.01,1.44c-0.04,0.52,0.49,1.02,1,1c0.57-0.03,0.96-0.44,1-1
		C90.39,34.04,89.94,32.11,88.99,30.47z"/>
	<path class="st10" d="M88.66,16.02c0.1-1.28-1.9-1.28-2,0c-0.35,4.25-0.42,8.51-0.23,12.77c0.06,1.28,2.06,1.29,2,0
		C88.24,24.54,88.32,20.27,88.66,16.02z"/>
	<path class="st10" d="M86.69,43.06c-0.03,13.81-0.78,27.6-2.26,41.33c-0.14,1.28,1.86,1.27,2,0c1.48-13.73,2.23-27.52,2.26-41.33
		C88.69,41.77,86.69,41.77,86.69,43.06z"/>
	<path class="st10" d="M72.31,112.89c-4.22,2.1-8.19,4.64-11.91,7.54c-0.43,0.33-0.35,1.07,0,1.41c0.42,0.42,0.99,0.33,1.41,0
		c3.57-2.79,7.44-5.2,11.5-7.23C74.47,114.04,73.46,112.31,72.31,112.89z"/>
	<path class="st10" d="M69.96,123.51c-1.03-3.22-1.78-6.52-2.21-9.87c-0.07-0.54-0.41-1-1-1c-0.49,0-1.07,0.46-1,1
		c0.45,3.53,1.2,7.01,2.28,10.4C68.43,125.26,70.36,124.74,69.96,123.51z"/>
	<path class="st10" d="M87.61,102.19c-4.33,2.41-8.38,5.3-12.08,8.6c-0.96,0.86,0.46,2.27,1.41,1.41c3.57-3.19,7.49-5.96,11.67-8.28
		C89.74,103.29,88.73,101.56,87.61,102.19z"/>
	<path class="st10" d="M94.16,113.26c-4.26-3.76-9.1-6.74-14.36-8.88c-0.5-0.21-1.09,0.22-1.23,0.7c-0.16,0.57,0.2,1.03,0.7,1.23
		c4.92,2,9.49,4.85,13.48,8.36C93.71,115.52,95.13,114.11,94.16,113.26z"/>
	<path class="st10" d="M76.75,100.74c-3.85,2.59-7.54,5.42-11.06,8.46c-0.97,0.84,0.45,2.25,1.41,1.41
		c3.38-2.93,6.94-5.65,10.65-8.15C78.82,101.76,77.82,100.02,76.75,100.74z"/>
	<path class="st10" d="M73.98,106.76c-0.87-1.88-1.75-3.76-2.62-5.63c-0.22-0.48-0.94-0.63-1.37-0.36c-0.49,0.32-0.6,0.86-0.36,1.37
		c0.87,1.88,1.75,3.76,2.62,5.63c0.22,0.48,0.94,0.63,1.37,0.36C74.11,107.82,74.21,107.27,73.98,106.76z"/>
	<path class="st10" d="M82.32,83.9c-0.52-0.3-1.04-0.07-1.37,0.36c-3.03,3.94-6.39,7.63-9.99,11.06c-0.93,0.89,0.48,2.3,1.41,1.41
		c3.73-3.55,7.16-7.39,10.3-11.47C83.01,84.84,82.74,84.15,82.32,83.9z"/>
	<path class="st10" d="M80.61,92.28c-0.88-0.92-1.53-1.75-2.21-2.79c-0.33-0.5-0.63-1.02-0.91-1.55c-0.15-0.27-0.28-0.55-0.42-0.83
		c-0.07-0.15-0.14-0.3-0.21-0.45c-0.03-0.07-0.06-0.13-0.09-0.2c-0.01-0.03-0.02-0.04-0.02-0.05c-0.01-0.02-0.02-0.04-0.03-0.07
		c-0.2-0.48-0.67-0.88-1.23-0.7c-0.46,0.15-0.91,0.71-0.7,1.23c1.05,2.53,2.51,4.83,4.4,6.82c0.36,0.38,1.06,0.39,1.41,0
		C80.98,93.29,80.99,92.68,80.61,92.28z"/>
	<path class="st10" d="M97.59,85.7c-0.49-0.26-1.07-0.12-1.37,0.36c-1.34,2.15-2.68,4.3-4.03,6.45c-0.28,0.44-0.11,1.12,0.36,1.37
		c0.49,0.26,1.07,0.12,1.37-0.36c1.34-2.15,2.68-4.3,4.03-6.45C98.23,86.62,98.06,85.94,97.59,85.7z"/>
	<path class="st10" d="M99.88,90.33c-2.24-1.16-4.47-2.31-6.71-3.47c-0.48-0.25-1.09-0.12-1.37,0.36c-0.26,0.45-0.12,1.12,0.36,1.37
		c2.24,1.16,4.47,2.31,6.71,3.47c0.48,0.25,1.09,0.12,1.37-0.36C100.5,91.25,100.36,90.58,99.88,90.33z"/>
	<path class="st10" d="M84.88,69.58c-0.51-0.3-1.05-0.08-1.37,0.36c-2.45,3.3-4.89,6.59-7.34,9.89c-0.32,0.43-0.07,1.12,0.36,1.37
		c0.51,0.3,1.05,0.08,1.37-0.36c2.45-3.3,4.89-6.59,7.34-9.89C85.56,70.52,85.31,69.84,84.88,69.58z"/>
	<path class="st10" d="M84.65,76.23c-1.01-0.84-1.97-1.74-2.89-2.68c-0.44-0.46-0.88-0.93-1.29-1.42c-0.21-0.25-0.43-0.5-0.63-0.75
		c-0.11-0.13-0.22-0.27-0.33-0.4c-0.12-0.15-0.17-0.22-0.23-0.29c-0.32-0.41-0.87-0.68-1.37-0.36c-0.41,0.26-0.7,0.92-0.36,1.37
		c1.68,2.18,3.56,4.19,5.68,5.95c0.4,0.33,1.03,0.42,1.41,0C84.99,77.28,85.08,76.59,84.65,76.23z"/>
	<path class="st10" d="M94.06,71.85c-1.68,2.99-3.62,5.83-5.84,8.44c-0.35,0.41-0.4,1.01,0,1.41c0.36,0.36,1.06,0.41,1.41,0
		c2.33-2.75,4.4-5.7,6.16-8.85C96.42,71.73,94.69,70.72,94.06,71.85z"/>
	<g>
		<path class="st10" d="M94.13,76.88c-0.71-0.58-1.38-1.22-2.01-1.9c-0.31-0.34-0.6-0.68-0.88-1.04c-0.03-0.04-0.07-0.11-0.11-0.14
			c0,0,0,0,0.01,0.01c-0.07-0.09-0.13-0.17-0.2-0.26c-0.14-0.19-0.28-0.39-0.41-0.59c-0.29-0.43-0.89-0.66-1.37-0.36
			c-0.43,0.28-0.67,0.91-0.36,1.37c1.1,1.62,2.4,3.08,3.92,4.32c0.21,0.17,0.42,0.29,0.71,0.29c0.25,0,0.54-0.11,0.71-0.29
			C94.47,77.92,94.56,77.23,94.13,76.88z"/>
		<path class="st10" d="M91.13,73.81c0.01,0.01,0.01,0.02,0.02,0.03C91.23,73.93,91.18,73.85,91.13,73.81z"/>
	</g>
	<path class="st10" d="M85.57,61.57c-0.37-0.34-1.06-0.43-1.41,0c-0.61,0.75-1.26,1.46-1.96,2.13c-0.34,0.33-0.7,0.65-1.06,0.96
		c-0.18,0.16-0.36,0.31-0.55,0.46c-0.1,0.08-0.19,0.16-0.29,0.23c-0.05,0.04-0.11,0.08-0.16,0.12c-0.22,0.16-0.38,0.33-0.46,0.6
		c-0.07,0.24-0.04,0.56,0.1,0.77c0.27,0.41,0.92,0.7,1.37,0.36c1.63-1.23,3.12-2.63,4.42-4.22c0.17-0.21,0.29-0.42,0.29-0.71
		C85.86,62.03,85.75,61.74,85.57,61.57z"/>
	<path class="st10" d="M86.03,63.6c-0.37-0.22-0.74-0.46-1.1-0.7c-0.18-0.12-0.35-0.25-0.53-0.38c0,0-0.07-0.06-0.1-0.08
		c-0.02-0.02-0.04-0.03-0.04-0.03c-0.09-0.07-0.17-0.14-0.25-0.2c-0.68-0.56-1.32-1.17-1.91-1.82c-0.35-0.39-1.06-0.38-1.41,0
		c-0.38,0.42-0.38,1,0,1.41c1.25,1.39,2.73,2.58,4.33,3.54c0.45,0.27,1.12,0.12,1.37-0.36C86.64,64.48,86.51,63.88,86.03,63.6z"/>
	<path class="st10" d="M63.24,161.23c-2.19,0.23-4.33,1.72-5.13,3.72c-1.35-1.53-3.05-2.65-5.28-2.28c-1.25,0.2-2.41,0.93-2.94,2.11
		c-0.76,1.69,0.02,3.5,1.02,4.9c0.74,1.04,2.48,0.04,1.73-1.01c-0.6-0.84-1.48-2.15-0.86-3.2c0.4-0.68,1.28-0.91,2.02-0.88
		c2.09,0.08,3.38,2.25,4.38,3.82c0.58,0.91,2.24,0.34,1.83-0.77c-0.75-2.03,0.93-3.92,2.87-4.34c1.22-0.26,2.5-0.05,3.67,0.31
		c0.43,0.13,2.76,0.91,2.39,1.7c-0.54,1.16,1.19,2.18,1.73,1.01C72.43,162.5,65.78,160.96,63.24,161.23z"/>
	<path class="st10" d="M61.53,101.55c-1.62-2.79-5.03-3.9-8.09-3.18c-3.53,0.83-6.27,3.75-8.04,6.77
		c-4.36,7.45-3.6,16.38-2.25,24.54c0.21,1.27,2.14,0.73,1.93-0.53c-1.15-6.96-1.91-14.5,1.08-21.13c1.26-2.79,3.19-5.53,5.93-7.01
		c2.56-1.38,6.13-1.18,7.72,1.54C60.45,103.67,62.18,102.67,61.53,101.55z"/>
	<path class="st10" d="M54.14,108.76c-0.03-1.28-2.03-1.29-2,0c0.14,5.88,0.28,11.76,0.42,17.64c0.03,1.28,2.03,1.29,2,0
		C54.42,120.52,54.28,114.64,54.14,108.76z"/>
	<path class="st10" d="M57.09,110.51c-0.46-0.24-1.11-0.14-1.37,0.36c-0.74,1.43-1.48,2.86-2.21,4.29c-0.7-0.77-1.49-1.46-2.38-2.02
		c-0.44-0.28-1.12-0.11-1.37,0.36c-0.26,0.49-0.11,1.07,0.36,1.37c0.14,0.09,0.28,0.18,0.42,0.28c0.08,0.06,0.16,0.12,0.24,0.18
		c0.01,0.01,0.03,0.02,0.04,0.03c0.27,0.21,0.53,0.44,0.78,0.69c0.53,0.51,0.86,0.92,1.22,1.45c0.39,0.59,1.36,0.71,1.73,0
		c0.96-1.87,1.93-3.74,2.89-5.6C57.69,111.41,57.58,110.77,57.09,110.51z"/>
	<path class="st10" d="M270.28,101.67c-16.03,8.04-33.28,13.47-51.02,16.09c-1.27,0.19-0.79,2.13,0.47,1.94
		c17.91-2.64,35.33-8.16,51.51-16.28C272.39,102.85,271.43,101.09,270.28,101.67z"/>
	<path class="st10" d="M148.17,129.63c-0.42-0.39-0.99-0.37-1.41,0c-0.14,0.12-0.28,0.24-0.43,0.35c-0.77,0.58-1.6,1.07-2.49,1.45
		c0.04-0.02,0.08-0.04,0.13-0.05c-0.25,0.1-0.45,0.21-0.59,0.46c-0.13,0.21-0.18,0.53-0.1,0.77c0.08,0.24,0.23,0.48,0.46,0.6
		c0.22,0.12,0.53,0.2,0.77,0.1c1.35-0.55,2.57-1.29,3.67-2.26C148.57,130.7,148.55,129.98,148.17,129.63z"/>
	<path class="st10" d="M154.16,140.52c-0.04-0.12-0.11-0.23-0.21-0.32c-0.07-0.05-0.13-0.1-0.2-0.16c-0.16-0.09-0.32-0.14-0.5-0.14
		c-0.09,0.01-0.18,0.02-0.27,0.04c-0.17,0.05-0.32,0.13-0.44,0.26c-0.02,0.02-0.04,0.04-0.06,0.06c-0.04,0.03-0.09,0.05-0.13,0.08
		c-0.02,0.01-0.05,0.02-0.07,0.02c-0.13,0.03-0.24,0.09-0.34,0.18c-0.11,0.07-0.19,0.16-0.26,0.28c-0.07,0.11-0.11,0.24-0.12,0.37
		c-0.03,0.13-0.02,0.27,0.02,0.4c0.03,0.08,0.07,0.16,0.1,0.24c0.09,0.15,0.21,0.27,0.36,0.36c0.08,0.03,0.16,0.07,0.24,0.1
		c0.18,0.05,0.35,0.05,0.53,0c0.07-0.02,0.14-0.04,0.2-0.07c0.14-0.06,0.29-0.11,0.42-0.19c0.13-0.08,0.25-0.18,0.36-0.27
		c0.06-0.05,0.11-0.1,0.16-0.15c0.1-0.09,0.17-0.2,0.21-0.32c0.06-0.12,0.09-0.25,0.09-0.39
		C154.25,140.77,154.22,140.64,154.16,140.52z"/>
	<g>
		<path class="st6" d="M148.16,108.79c-0.31-2.46-0.81-4.91-1.51-7.29c-0.64-2.15-1.89-3.86-4.32-3.88
			c-0.93-0.01-1.83,0.24-2.7,0.55c-0.5,0.18-1.54,0.72-2.07,0.5c-0.25-0.1-0.7-1.13-1.04-1.53c-0.74-0.85-1.86-1.32-2.99-1.14
			c-2.38,0.38-3.86,2.87-5.24,4.59c-0.62,0.78-3.19,3.54-4.23,1.78c-1.3-2.21-4.85-0.35-3.53,1.88c0.1,0.17,0.22,0.33,0.33,0.49
			c-0.72,0.2-1.31,0.78-1.35,1.75c-0.32,7.95,4.42,15.52,11.53,18.89c-0.18,0.69-0.25,1.39-0.18,2.1c-0.32,0.09-0.58,0.32-0.69,0.67
			c-0.53,1.81,1.79,2.93,3.18,3.32c0.72,0.2,1.47,0.3,2.21,0.37c0.82,0.08,1.63,0.19,2.41-0.14c0.48-0.21,0.63-0.95,0.36-1.37
			c-0.09-0.14-0.19-0.24-0.31-0.31c0.75-1.28,0.78-3.19,0.55-4.92c3-0.14,5.97-1.34,7.88-3.7
			C149.25,117.92,148.68,112.92,148.16,108.79z"/>
		<path class="st9" d="M129.84,115.63c-0.71-1.85-2.57-3.24-4.57-3.29c-1.2-0.03-2.43,0.38-3.29,1.24
			c-0.81,0.81-1.42,1.99-1.34,3.16c0.04,0.56,0.14,1.04,0.53,1.46c0.26,0.28,0.65,0.51,1.05,0.59c0.33,0.72,0.84,1.37,1.47,1.84
			c0.91,0.68,2.2,0.79,3.27,0.47c1.04-0.31,2.23-0.79,2.86-1.72C130.6,118.23,130.3,116.82,129.84,115.63z"/>
		<path class="st9" d="M149.23,111.26c-0.13-0.28-0.32-0.53-0.55-0.73c-0.13-0.7-0.59-1.33-1.33-1.55
			c-1.22-0.36-2.52-0.03-3.46,0.82c-0.68,0.62-1.14,1.51-1.36,2.4c-0.44,1.78-0.25,3.66,0.6,5.29c0.22,0.41,0.49,0.82,0.78,1.18
			c0.78,0.96,2.11,0.86,3.02,0.21c0.72-0.51,1.16-1.36,1.55-2.13c0.38-0.74,0.73-1.51,0.9-2.33
			C149.59,113.37,149.69,112.25,149.23,111.26z"/>
		<path class="st15" d="M147.53,86.77c-1.29-0.09-2.46,0.72-3.71,0.59c-1.15-0.13-2.22-0.9-3.2-1.46c-2.42-1.38-5.03-2.21-7.84-2.15
			c-3.04,0.06-6.02,0.95-8.62,2.53c-1.31,0.8-2.55,1.74-3.67,2.79c-0.6,0.56-1.17,1.16-1.7,1.78c-0.2,0.23-0.4,0.47-0.59,0.71
			c-0.1,0.11-0.19,0.23-0.28,0.35c-1.34-0.58-3.01-0.15-4.1,0.91c-1.02,0.99-1.32,2.32-1.32,3.69c-0.73-0.28-1.53-0.41-2.22-0.44
			c-2.17-0.07-4.1,1.09-4.76,3.21c-0.63,2.02-0.1,4.22,0.33,6.22l0.67,3.05c-0.02,0.01-0.04,0.03-0.06,0.04
			c-0.21,0.13-0.43,0.24-0.65,0.36c-0.09,0.05-0.13,0.08-0.16,0.1c-0.02,0.01-0.07,0.02-0.15,0.05c-0.47,0.17-0.94,0.31-1.43,0.41
			c-0.03,0.01-0.46,0.06-0.47,0.07c-0.2,0.02-0.39,0.03-0.59,0.04c-0.25,0.01-0.5,0-0.74-0.01c-0.01,0-0.04,0-0.08-0.01
			c-0.63-0.2-1.26-0.37-1.91-0.47c-0.92-0.34-2.03-0.85-3.12-1.03c-1.32-0.22-2.94-0.52-4.26-0.16c-1.46,0.4-2.54,1.63-2.89,3.08
			c-0.54,2.24,0.78,4.35,2,6.25c0.34,1.93,1.12,3.76,2.08,5.46c0.56,0.99,1.22,1.9,1.8,2.87c0.25,0.42,0.54,0.81,0.26,1.25
			c-0.25,0.38-0.9,0.64-1.26,0.93c-2.97,2.34-3.39,6.39-0.27,8.79c0.66,0.51,1.4,0.9,2.16,1.22c0.87,0.38,1.92,0.54,2.72,1.08
			c1.58,1.06,0.12,3.55,1.95,4.69c1.74,1.08,4.15-0.07,5.83-0.72c1.03-0.4,2.12-0.82,3.25-0.79c1.2,0.03,1.97,0.69,2.77,1.51
			c1.25,1.28,2.57,2.4,4.48,2.24c1.73-0.14,3.2-1.31,3.72-2.97c0.63-2-0.41-3.65-1.43-5.29c-0.73-1.17-1.48-2.43-1.88-3.77
			c0.77-0.38,1.45-1.11,1.94-1.78c0.35-0.48,0.66-0.98,1.01-1.46c0.01-0.01,0.03-0.03,0.04-0.05l0,0c0.1,0.02,0.19,0.04,0.3,0.05
			c2.23,0.37,4.83-0.05,6.73-1.33c1.4-0.94,2.09-2.51,1.39-4.13c-0.54-1.25-1.73-1.96-3-2.3c-1.76-0.47-3.5-0.95-5.22-1.53
			c0.05-1.2,0.03-2.4-0.04-3.58c-0.25-4.46-1.33-8.81-3.15-12.86c1.16-0.78,2.06-1.91,2.81-3.09c0.48-0.75,0.92-1.63,1.46-2.41
			c1.11,1.07,2.67,1.68,4.25,1.47c1.41-0.19,2.52-1.03,3.58-1.94c1.21-1.04,2.39-2.11,3.6-3.13c0.62-0.53,1.86-1.7,2.8-1.22
			c0.33,0.17,0.58,0.73,0.77,1.01c0.43,0.63,0.87,1.22,1.49,1.67c2.11,1.55,4.77,1.08,7.03,0.12c0.03,0.15,0.07,0.31,0.14,0.47
			c0.2,0.46,0.4,0.93,0.59,1.4c0.05-0.07,0.09-0.14,0.15-0.2c0.83-0.82,1.77-1.47,2.79-2.03c0.12-0.06,0.24-0.12,0.36-0.18
			c-0.12-0.29-0.25-0.58-0.37-0.87c-0.1-0.24-0.24-0.43-0.39-0.59c0.94-0.85,1.67-1.9,1.91-3.17
			C151.6,89.7,150.16,86.95,147.53,86.77z"/>
		<path class="st15" d="M118.75,75.01c-0.81-0.26-1.87,0.06-2.3,0.83c-0.58,1.04-0.96,2.13-1.21,3.24
			c-0.26-0.33-0.52-0.65-0.82-0.92c-1.21-1.1-2.9-1.36-4.2-0.23c-0.97,0.84-1.45,2.24-1.53,3.49c0,0.04,0,0.09,0,0.13
			c-0.52-0.22-1.06-0.34-1.65-0.3c-1.51,0.1-2.64,1.29-2.77,2.78c-0.11,1.15,0.36,2.27,0.93,3.24c1.17,2,2.76,3.7,4.63,5.06
			c2.14,1.55,4.61,2.47,7.21,2.87c0.63,0.1,1.22-0.23,1.61-0.72c0.49,0.28,1.09,0.36,1.66,0.14c0.88-0.34,1.54-1.32,1.26-2.29
			c-0.14-0.49-0.3-0.98-0.45-1.47c0.1-0.22,0.16-0.46,0.14-0.72c-0.38-4.37-0.75-8.75-1.13-13.12
			C120.06,76.11,119.68,75.31,118.75,75.01z M114.87,86.13c-0.27-0.25-0.54-0.51-0.82-0.75c-0.1-0.09-0.21-0.17-0.31-0.25
			c-0.33-0.62-0.62-1.26-0.79-1.81c-0.08-0.25-0.13-0.51-0.19-0.76c0.01,0.01,0.01,0.02,0.02,0.02c0.72,1.08,1.38,2.2,1.99,3.35
			C114.8,85.99,114.83,86.06,114.87,86.13z"/>
		<path class="st10" d="M148.57,100.77c0.08-1.28-1.92-1.14-2,0.13c-0.45,7.43,4.92,19.44-4.66,23.28
			c-7.23,2.9-16.33-0.68-20.43-7.06c-0.19-0.29-0.44-0.41-0.7-0.43c0.06,0.67,0.05,1.33-0.05,2.07c-0.03,0.2-0.07,0.41-0.12,0.61
			c3.8,5,10.1,7.88,16.37,7.77c3.28-0.06,6.66-1.01,9.13-3.25c2.59-2.35,3.51-5.8,3.6-9.19
			C149.83,110.01,148.29,105.46,148.57,100.77z"/>
		<path class="st10" d="M119.38,106.8c-0.35-1.24-2.24-0.58-1.89,0.66c1.16,4.12,2.34,8.3,2.44,12.61c0.05,1.89,0.01,4.05-0.92,5.75
			c-0.9,1.63-2.61,2.62-3.65,4.15c-1.78,2.63-0.79,5.03,1.39,6.95c0.89,0.79,2.19,1.63,2.36,2.9c0.23,1.72-1.63,3.06-2.83,3.94
			c-1.03,0.76,0.08,2.42,1.12,1.66c2.41-1.77,5.01-4.59,3-7.66c-0.75-1.14-1.91-1.91-2.88-2.84c-1.47-1.42-1.35-2.95,0.01-4.49
			c1.29-1.47,2.86-2.56,3.61-4.44c0.7-1.75,0.81-3.7,0.8-5.57C121.91,115.77,120.63,111.23,119.38,106.8z"/>
		<path class="st10" d="M120.76,100.15c-0.53-0.08-1.07,0.23-1.18,0.78c-0.06,0.29-0.13,0.58-0.22,0.87
			c-0.02,0.07-0.04,0.14-0.06,0.2c0.07-0.22-0.02,0.05-0.03,0.08c-0.05,0.13-0.1,0.26-0.16,0.4c-0.12,0.27-0.25,0.54-0.39,0.8
			c-0.07,0.12-0.14,0.25-0.21,0.37c-0.04,0.06-0.08,0.12-0.11,0.18c-0.02,0.03-0.01,0.02-0.02,0.03c-0.01,0.01-0.01,0.01-0.03,0.04
			c-0.34,0.47-0.71,0.92-1.14,1.33c-0.05,0.05-0.1,0.1-0.16,0.15c-0.01,0.01-0.02,0.02-0.03,0.03c-0.01,0.01-0.02,0.01-0.03,0.03
			c-0.11,0.09-0.22,0.18-0.33,0.27c-0.25,0.19-0.51,0.37-0.77,0.53c-0.45,0.27-0.58,0.97-0.27,1.39c0.33,0.45,0.91,0.56,1.39,0.27
			c2.33-1.43,4-3.86,4.54-6.54C121.64,100.82,121.29,100.24,120.76,100.15z"/>
		<path class="st10" d="M145.98,96.71c-1.99,1.19-4.41,0.37-6.44-0.29c-1.96-0.64-3.99-1.25-6.07-0.81
			c-1.89,0.41-3.41,1.63-4.81,2.9c-0.77,0.7-1.55,1.56-2.55,1.92c-0.72,0.26-1.82,0.27-2.18-0.56c-0.51-1.17-2.4-0.53-1.89,0.66
			c0.74,1.7,2.62,2.41,4.37,1.91c2.37-0.68,3.79-3.02,5.86-4.23c2.57-1.5,5.25-0.3,7.84,0.49c2.34,0.71,4.81,0.97,6.98-0.33
			C148.21,97.71,147.09,96.05,145.98,96.71z"/>
		<path class="st10" d="M152.29,92.71c-0.49-0.08-1.13,0.22-1.18,0.78c-0.03,0.31-0.09,0.6-0.17,0.89
			c-0.01,0.03-0.01,0.04-0.01,0.05c0,0,0,0-0.01,0.01c-0.03,0.07-0.05,0.14-0.09,0.21c-0.06,0.14-0.13,0.28-0.2,0.41
			c-0.03,0.05-0.06,0.11-0.09,0.16c0,0-0.07,0.1-0.09,0.13c-0.03,0.04-0.07,0.1-0.08,0.11c-0.05,0.06-0.09,0.12-0.14,0.18
			c-0.1,0.12-0.2,0.22-0.31,0.33c-0.02,0.02-0.01,0.02-0.02,0.02c-0.01,0.01-0.01,0.01-0.03,0.02c-0.06,0.05-0.12,0.1-0.18,0.14
			c-0.95,0.7-2.04,0.88-3.18,0.58c-0.51-0.13-1.1,0.27-1.18,0.78c-0.09,0.56,0.24,1.04,0.78,1.18c1.58,0.42,3.39,0.1,4.71-0.88
			c1.24-0.92,2.11-2.37,2.25-3.91C153.12,93.37,152.86,92.8,152.29,92.71z"/>
		<path class="st10" d="M147.63,86.42c-2.16,1.71-4.91,0.9-7.11-0.28c-2.31-1.24-4.43-2.87-7.03-3.49
			c-4.85-1.15-9.92,2.25-12.03,6.49c-0.57,1.15,1.22,2.05,1.79,0.89c1.09-2.19,2.92-3.89,5.14-4.88c2.81-1.25,5.37-0.6,7.94,0.85
			c3.67,2.07,8.37,5.28,12.42,2.07C149.75,87.28,148.64,85.62,147.63,86.42z"/>
		<path class="st10" d="M113.04,91.9c-2.1,0.1-3.83,1.17-5.38,2.51c-1.47,1.28-3.07,2.67-3.98,4.42c-0.94,1.82-0.74,3.79-0.23,5.71
			c0.27,1.02,0.96,2.35,0.87,3.4c-0.06,0.73-0.59,0.49-1.14,0.4c-0.74-0.12-1.47-0.25-2.21-0.37c-3.23-0.55-8.62-2.31-10.74,1.33
			c-2.07,3.55,0.49,7.71,2.29,10.76c0.43,0.72,1.68,2.27,1.28,3.11c-0.31,0.66-1.16,1.1-1.64,1.63c-0.46,0.51-1.09,1.38-0.85,2.11
			c0.28,0.83,1.16,1.04,1.91,0.82c0.8-0.24,0.8-1.1,0.37-1.59c0.57-0.73,1.57-1.26,2-2.08c0.72-1.36-0.01-2.67-0.69-3.88
			c-0.93-1.66-2.03-3.24-2.74-5c-0.63-1.56-1.21-4.04,0.2-5.38c1.21-1.15,3.3-0.7,4.77-0.46c2.15,0.36,4.31,0.86,6.48,1.09
			c4.5,0.48,2.04-4.99,1.56-7.26c-0.52-2.51,0.55-4.16,2.29-5.85c1.59-1.55,3.37-3.3,5.71-3.41
			C114.46,93.84,114.33,91.84,113.04,91.9z"/>
		<path class="st10" d="M120.61,89.83c-1.6-0.97-3.39-1.91-5.32-1.54c-0.93,0.18-1.81,0.63-2.37,1.42c-0.6,0.84-0.81,1.79-0.56,2.79
			c0.13,0.52,0.8,0.78,1.27,0.62c0.55-0.19,0.75-0.75,0.62-1.27c0.03,0.14,0-0.02-0.01-0.08c0-0.01,0-0.07-0.01-0.11
			c0.01-0.04,0.02-0.16,0.02-0.17c0.01-0.06,0.03-0.12,0.04-0.17c0.01-0.02,0.01-0.04,0.02-0.06c0.04-0.08,0.07-0.15,0.11-0.23
			c0.01-0.03,0.01-0.03,0.02-0.03c0-0.01,0,0,0.01-0.01c0.05-0.07,0.1-0.14,0.16-0.2c0.14-0.16,0.31-0.29,0.52-0.38
			c0.34-0.14,0.49-0.18,0.86-0.2c0.55-0.03,1.2,0.11,1.74,0.34c0.69,0.29,1.34,0.68,1.98,1.07c0.46,0.28,1.11,0.01,1.34-0.45
			C121.31,90.66,121.07,90.11,120.61,89.83z"/>
		<path class="st10" d="M112.58,82.69c-1.88-2.63-6.04-6.33-9.25-3.58c-1.45,1.24-1.87,3.19-1.49,5c0.4,1.92,1.64,3.51,3,4.87
			c1.49,1.5,3.26,2.72,5.17,3.62c1.16,0.55,2.06-1.24,0.89-1.79c-1.74-0.82-3.31-1.91-4.67-3.26c-1.26-1.25-2.5-2.81-2.54-4.66
			c-0.04-1.53,1.16-3.19,2.85-2.68c1.76,0.54,3.34,2.14,4.39,3.59C111.67,84.85,113.33,83.74,112.58,82.69z"/>
		<path class="st10" d="M115.25,76.78c-1.23-1.12-2.86-2.04-4.54-2.19c-1.6-0.14-3.43,0.36-4.12,1.97
			c-0.51,1.18,1.28,2.08,1.79,0.89c0.44-1.03,1.81-1,2.73-0.76c1.3,0.33,2.44,1.14,3.34,2.11c2.17,2.34,2.76,5.65,2.93,8.72
			c0.07,1.29,2.07,1.15,2-0.13C119.16,83.53,118.21,79.49,115.25,76.78z"/>
		<path class="st10" d="M121.3,76.02c-0.2-0.65-0.52-1.28-1.08-1.7c-0.67-0.49-1.5-0.53-2.28-0.36c-1.38,0.3-2.63,1.11-3.53,2.19
			c-0.82,0.99,0.68,2.31,1.5,1.32c0.63-0.76,1.52-1.41,2.51-1.59c0.38-0.07,0.64-0.04,0.82,0.32c0.24,0.49,0.35,1.07,0.47,1.6
			c0.58,2.47,0.61,5.07,0.18,7.57c-0.22,1.27,1.74,1.67,1.96,0.4C122.41,82.56,122.28,79.16,121.3,76.02z"/>
		<path class="st10" d="M129.47,129.48c0.05,0.02,0.1,0.05,0.15,0.07c0.25,0.14,0.49,0.34,0.7,0.51c0.08,0.07,0.16,0.14,0.24,0.22
			c0.04,0.04,0.07,0.09,0.1,0.13c0.2-1.33,0.33-2.67,0.36-4.01c0.01-0.52-0.56-0.99-1.06-0.93c-0.58,0.06-0.92,0.5-0.93,1.06
			c-0.01,0.38-0.03,0.76-0.05,1.14c0,0.02,0,0.03,0,0.04c0,0.01,0,0.02,0,0.04c-0.01,0.09-0.01,0.18-0.02,0.26
			c-0.02,0.19-0.03,0.38-0.05,0.57c-0.02,0.21-0.06,0.41-0.09,0.62C129.04,129.29,129.26,129.39,129.47,129.48z"/>
		<path class="st10" d="M140.46,131.01c0.1,0.19-0.07-0.14-0.08-0.17c-0.04-0.08-0.08-0.16-0.11-0.24
			c-0.09-0.19-0.17-0.38-0.25-0.58c-0.15-0.36-0.28-0.72-0.41-1.09c-0.12-0.37-0.23-0.74-0.33-1.12c-0.05-0.2-0.1-0.41-0.14-0.61
			c-0.01-0.02-0.01-0.04-0.01-0.05c0-0.01,0-0.02-0.01-0.04c-0.02-0.12-0.04-0.23-0.06-0.35c-0.09-0.51-0.49-1-1.06-0.93
			c-0.49,0.05-1.03,0.51-0.93,1.06c0.32,1.84,0.9,3.57,1.74,5.24c0.24,0.47,0.99,0.56,1.39,0.27
			C140.67,132.05,140.71,131.52,140.46,131.01z"/>
		<path class="st10" d="M138.07,109.63c-0.21-0.3-0.55-0.37-0.89-0.37c-0.18,0-0.24-0.04-0.36-0.2c-0.16-0.22-0.26-0.44-0.36-0.7
			c-0.11-0.27-0.18-0.53-0.09-0.82c0.08-0.26-0.14-0.54-0.39-0.59c-0.29-0.06-0.51,0.13-0.59,0.39c-0.19,0.6,0.05,1.21,0.31,1.74
			c0.24,0.48,0.54,0.97,1.09,1.12c0.13,0.04,0.27,0.04,0.4,0.04c0.02,0,0.04,0,0.06,0c-0.01,0.07-0.02,0.1-0.08,0.2
			c-0.2,0.34-0.6,0.62-0.97,0.69c-0.26,0.05-0.49,0.24-0.47,0.53c0.02,0.24,0.27,0.52,0.53,0.47c0.61-0.12,1.17-0.41,1.56-0.9
			C138.17,110.81,138.43,110.15,138.07,109.63z"/>
		<path class="st10" d="M128.75,106.72c-0.23-0.59-0.82-1.1-1.49-1.01c-0.69,0.09-1.15,0.68-1.27,1.34
			c-0.12,0.64-0.04,1.33,0.14,1.95c0.11,0.38,0.29,0.86,0.61,1.11c0.32,0.38,0.79,0.59,1.27,0.27c0.25-0.17,0.39-0.46,0.5-0.74
			c0.13-0.32,0.23-0.65,0.3-0.98C128.93,108.04,128.98,107.31,128.75,106.72z"/>
		<path class="st10" d="M142.95,104.4c-0.23-0.59-0.82-1.1-1.49-1.01c-0.69,0.09-1.15,0.68-1.27,1.34
			c-0.12,0.64-0.04,1.33,0.14,1.95c0.11,0.38,0.29,0.86,0.61,1.11c0.32,0.38,0.79,0.59,1.27,0.27c0.25-0.17,0.39-0.46,0.5-0.74
			c0.13-0.32,0.23-0.65,0.3-0.98C143.13,105.72,143.19,105,142.95,104.4z"/>
		<path class="st10" d="M126.42,106.63c-0.22-0.18-0.51-0.15-0.71,0.05c-0.01,0.01-0.03,0.03-0.04,0.04
			c-0.03,0.03-0.06,0.05-0.1,0.08c-0.04,0.03-0.08,0.06-0.12,0.08c-0.02,0.01-0.04,0.02-0.05,0.03c-0.08,0.04-0.16,0.07-0.25,0.1
			c-0.04,0.01-0.09,0.02-0.13,0.04c-0.02,0-0.04,0.01-0.06,0.01c-0.09,0.01-0.19,0.02-0.28,0.02c-0.02,0-0.04,0-0.06,0
			c-0.04,0-0.08-0.01-0.12-0.01c-0.04-0.01-0.27-0.03-0.29-0.07c0,0.01,0.1,0.04,0.03,0.01c-0.02-0.01-0.04-0.02-0.06-0.03
			c-0.05-0.02-0.1-0.05-0.15-0.07c-0.23-0.13-0.56-0.02-0.67,0.22c-0.11,0.25-0.02,0.54,0.22,0.67c0.94,0.51,2.15,0.3,2.89-0.45
			C126.65,107.15,126.62,106.79,126.42,106.63z"/>
		<path class="st10" d="M126.99,107.69c-0.15-0.2-0.48-0.31-0.69-0.13c-0.16,0.13-0.32,0.25-0.5,0.35
			c-0.02,0.01-0.18,0.09-0.06,0.04c-0.05,0.02-0.1,0.05-0.15,0.07c-0.09,0.04-0.19,0.07-0.29,0.1c-0.1,0.03-0.2,0.06-0.29,0.08
			c-0.03,0-0.06,0.01-0.07,0.01c-0.05,0.01-0.09,0.01-0.14,0.02c-0.1,0.01-0.2,0.02-0.3,0.02c-0.05,0-0.11,0-0.16,0
			c-0.02,0-0.05,0-0.07-0.01c-0.26-0.03-0.55,0.1-0.59,0.39c-0.04,0.25,0.11,0.56,0.39,0.59c1,0.11,2.03-0.17,2.81-0.82
			C127.05,108.21,127.16,107.92,126.99,107.69z"/>
		<path class="st10" d="M144.91,105.44c-0.11-0.27-0.37-0.38-0.64-0.31c-0.02,0.01-0.04,0.01-0.06,0.01
			c-0.03,0.01-0.07,0.01-0.1,0.02c-0.09,0.01-0.17,0.02-0.26,0.02c-0.03,0-0.05,0-0.08,0c0,0,0,0-0.01,0c-0.01,0-0.01,0-0.01,0
			c-0.02,0-0.04,0-0.06-0.01c-0.09-0.01-0.18-0.03-0.27-0.05c-0.04-0.01-0.07-0.02-0.11-0.03c-0.02-0.01-0.03-0.01-0.05-0.02
			c-0.08-0.03-0.16-0.07-0.24-0.11c-0.04-0.02-0.07-0.04-0.11-0.06c-0.07-0.04-0.02-0.02,0.02,0.01c-0.01-0.01-0.03-0.02-0.05-0.04
			c-0.07-0.06-0.14-0.12-0.21-0.18c-0.19-0.18-0.54-0.16-0.71,0.05c-0.18,0.22-0.15,0.51,0.05,0.71c0.68,0.65,1.68,0.88,2.58,0.64
			C144.86,106.01,145.01,105.68,144.91,105.44z"/>
		<path class="st10" d="M145.03,103.91c-0.1-0.25-0.37-0.4-0.64-0.31c-0.1,0.03-0.2,0.07-0.31,0.09c-0.04,0.01-0.09,0.02-0.13,0.03
			c-0.02,0-0.02,0-0.03,0.01c-0.02,0-0.04,0.01-0.07,0.01c-0.2,0.03-0.4,0.05-0.6,0.06c-0.1,0-0.2,0-0.3,0c-0.02,0-0.18-0.01-0.07,0
			c-0.05,0-0.09-0.01-0.14-0.01c-0.21-0.02-0.42-0.06-0.63-0.12c-0.25-0.07-0.55,0.13-0.59,0.39c-0.04,0.28,0.12,0.52,0.39,0.59
			c0.92,0.24,1.91,0.2,2.81-0.11C144.97,104.47,145.13,104.16,145.03,103.91z"/>
		<path class="st10" d="M125.84,112.07c-0.64,0.04-0.58,1.04,0.07,1C126.54,113.03,126.48,112.03,125.84,112.07z"/>
		<path class="st10" d="M127.66,113.34c-0.64,0.04-0.58,1.04,0.07,1C128.37,114.3,128.3,113.3,127.66,113.34z"/>
		<path class="st10" d="M129.1,111.79c-0.64,0.04-0.58,1.04,0.07,1C129.8,112.74,129.74,111.75,129.1,111.79z"/>
		<path class="st10" d="M140.68,109.66c-0.64,0.04-0.58,1.04,0.07,1C141.39,110.62,141.32,109.62,140.68,109.66z"/>
		<path class="st10" d="M142.39,110.96c-0.64,0.04-0.58,1.04,0.07,1C143.09,111.91,143.03,110.92,142.39,110.96z"/>
		<path class="st10" d="M143.61,109.19c-0.64,0.04-0.58,1.04,0.07,1C144.32,110.14,144.25,109.14,143.61,109.19z"/>
		<g>
			<path class="st4" d="M137.07,118.56c-0.79,0.16-1.3-1.2-1.53-1.74c-0.35-0.78-0.58-1.6-0.75-2.43c1.56,0.1,3.13,0.09,4.69-0.03
				c-0.21,0.81-0.46,1.61-0.81,2.38C138.36,117.4,137.87,118.39,137.07,118.56z"/>
			<path class="st9" d="M138.45,117.7c-0.25-0.5-0.77-0.7-1.3-0.68c-0.45,0.02-0.86,0.27-1.18,0.59c-0.17,0.17-0.33,0.36-0.42,0.58
				c-0.13,0.33-0.07,0.68,0.2,0.91c0.2,0.17,0.55,0.11,0.7-0.1c0.02-0.03,0.03-0.07,0.05-0.1c0.02,0.01,0.04,0.02,0.07,0.03
				c0.19,0.04,0.38,0.07,0.58,0.08c0.18,0.1,0.38,0.09,0.54-0.03c0.07-0.01,0.15-0.02,0.22-0.05
				C138.42,118.77,138.69,118.19,138.45,117.7z"/>
			<path class="st10" d="M140.05,113.31c-1.86,0.18-3.73,0.2-5.6,0.06c-0.24-0.02-0.41,0.11-0.49,0.28c-0.17,0.08-0.3,0.25-0.26,0.5
				c0.16,0.92,0.41,1.83,0.76,2.69c0.32,0.8,0.7,1.69,1.36,2.28c0.7,0.62,1.6,0.53,2.32,0c0.69-0.51,1.12-1.28,1.46-2.05
				c0.46-1.03,0.79-2.11,1.02-3.21C140.69,113.52,140.35,113.28,140.05,113.31z M137.07,118.56c-0.79,0.16-1.3-1.2-1.53-1.74
				c-0.35-0.78-0.58-1.6-0.75-2.43c1.56,0.1,3.13,0.09,4.69-0.03c-0.21,0.81-0.46,1.61-0.81,2.38
				C138.36,117.4,137.87,118.39,137.07,118.56z"/>
		</g>
	</g>
	<path class="st10" d="M150.71,161.79c-1.18-2.37-4.21-2.97-6.49-1.95c-2.17,0.97-3.44,2.9-4.37,4.98
		c-0.07-0.09-0.15-0.18-0.27-0.26c-2.61-1.63-6.33-1.48-9.06-0.18c-2.93,1.4-3.88,4.63-2.54,7.53c1.37,2.97,4.68,4.88,7.46,6.34
		c3.15,1.66,6.54,2.84,10.04,3.5c0.39,0.07,0.95-0.04,1.13-0.46c1.37-3.23,2.5-6.56,3.32-9.98c0.4-1.66,0.72-3.35,0.97-5.04
		C151.11,164.8,151.41,163.19,150.71,161.79z M149.08,164.84c-0.56,5.05-2.01,10.09-3.94,14.79c-2.48-0.53-4.9-1.3-7.2-2.37
		c-2.4-1.12-4.97-2.49-6.85-4.39c-1.78-1.8-2.69-4.93-0.1-6.48c2.14-1.28,5.46-1.43,7.58-0.1c0.22,0.14,0.43,0.16,0.62,0.13
		c-0.09,0.24-0.19,0.49-0.28,0.73c-0.45,1.21,1.49,1.73,1.93,0.53c0.82-2.23,1.79-4.89,4.09-5.98c0.98-0.46,2.1-0.52,3.06,0.03
		C149.16,162.41,149.22,163.62,149.08,164.84z"/>
	<path class="st10" d="M144.68,134.2c-0.22-1.26-2.21-1.05-1.99,0.22c0.18,1.03,0.05,2.52-1.37,2.25c-1.24-0.24-1.92-1.59-2.45-2.6
		c-0.49-0.93-2.09-0.74-1.93,0.48c0.11,0.86-0.71,1.5-1.51,1.58c-1.15,0.12-2.23-0.67-3.06-1.36c-1.78-1.49-3.24-3.38-4.29-5.45
		c-0.58-1.13-2.45-0.42-1.86,0.73c1.46,2.86,3.65,5.84,6.53,7.4c1.3,0.71,2.89,0.95,4.25,0.26c0.47-0.24,0.89-0.57,1.22-0.97
		c0.86,1.13,1.97,1.99,3.53,1.95C144.14,138.64,145.04,136.27,144.68,134.2z"/>
	<path class="st10" d="M126.84,128.91c-1.08-0.17-2.22-0.04-3.23,0.39c-0.24,0.1-0.44,0.28-0.55,0.52c-0.1,0.23-0.12,0.55-0.02,0.78
		c0.21,0.48,0.78,0.79,1.3,0.57c0.21-0.09,0.42-0.15,0.63-0.21c0.35-0.07,0.7-0.11,1.05-0.12c0.17,0.01,0.34,0.02,0.51,0.05
		c0.52,0.08,1.08-0.29,1.14-0.83C127.73,129.52,127.39,129,126.84,128.91z"/>
	<path class="st10" d="M140.55,131.4c-0.9,0.41-1.85,0.29-2.8,0.16c-0.99-0.14-1.98-0.32-2.95-0.56c-1.96-0.5-3.84-1.33-5.42-2.61
		c-1-0.82-2.26,0.73-1.27,1.55c1.86,1.52,4.06,2.45,6.37,3.04c1.1,0.28,2.23,0.48,3.36,0.62c1.16,0.14,2.35,0.16,3.43-0.33
		C142.44,132.73,141.72,130.87,140.55,131.4z"/>
	<path class="st10" d="M158.12,146.91c-2.35-1.9-4.6-3.92-6.73-6.06c-1.05-1.06-2.08-2.14-3.07-3.25c-0.91-1.02-1.86-2.08-2.34-3.39
		c-0.44-1.2-2.38-0.68-1.93,0.53c0.53,1.43,1.4,2.62,2.4,3.76c1.02,1.17,2.09,2.31,3.18,3.42c2.23,2.27,4.6,4.4,7.07,6.41
		c0.42,0.34,1,0.41,1.41,0C158.47,147.98,158.54,147.25,158.12,146.91z"/>
	<path class="st10" d="M116.94,144.1c-1.09-2.36-3.13-4.33-5.81-4.62c-1.3-0.14-2.52,0.19-3.65,0.82c-1.34,0.74-2.51,1.78-4.15,1.64
		c-1.54-0.14-2.84-1.21-3.26-2.7c-0.38-1.33-0.17-2.71-1.21-3.79c-0.84-0.87-2.05-1.25-3.24-1.28c-0.69-0.02-1.6,0.27-2.24-0.09
		c-0.63-0.36-0.87-1.09-0.69-1.76c0.33-1.25-1.6-1.78-1.93-0.53c-0.3,1.15-0.06,2.36,0.72,3.27c0.87,1,1.99,1.21,3.26,1.16
		c0.81-0.03,1.67-0.13,2.38,0.37c0.8,0.56,0.74,1.54,0.87,2.41c0.21,1.34,0.83,2.59,1.85,3.5c2.31,2.06,5.23,1.63,7.67,0.11
		c1.43-0.89,2.81-1.53,4.5-0.89c1.54,0.58,2.53,1.94,3.2,3.38C115.75,146.27,117.48,145.26,116.94,144.1z"/>
	<path class="st16" d="M140.6,48.53c-0.42-0.24-0.88-0.41-1.37-0.51c1.17-1.83,1.63-3.92-0.96-4.83c-1.96-0.69-3.89,0.14-5.3,1.54
		c-0.41-0.31-0.91-0.54-1.49-0.62c-1.3-0.19-2.38,0.27-3.26,1.04c-1.36-1.03-3.4-1.87-4.88-1.01c-0.82,0.47-1.08,1.26-1.01,2.09
		c-2.56-0.03-5.1,0.97-6.92,2.84c-0.6,0.62-0.61,1.97,0.3,2.36c1.48,0.63,2.98,0.99,4.54,1.02c0.22,1.04,0.89,1.96,2.04,2.32
		c0.86,0.27,1.66,0.15,2.33-0.21c0.51,0.91,1.16,1.72,2.07,2.39c0.68,0.5,1.64,0.08,2.05-0.54c0.23-0.35,0.41-0.72,0.56-1.1
		c1.22,0.57,2.61,0.76,3.91,0.44c0.49-0.12,0.95-0.35,1.31-0.67c2.33,0.4,4.83-0.75,6.51-2.55
		C142.22,51.28,142.16,49.43,140.6,48.53z"/>
	<path class="st0" d="M229.16,58.6c-0.48-0.4-1.01-0.78-1.57-1.05c-0.52-0.25-1.07-0.41-1.61-0.45c0.72-1.42,0.69-2.86-1.27-3.75
		c-1.9-0.86-3.89-0.19-5.41,1.08c-0.38-0.35-0.86-0.61-1.43-0.75c-1.28-0.3-2.4,0.07-3.34,0.76c-1.26-1.14-3.22-2.15-4.78-1.42
		c-0.86,0.4-1.18,1.16-1.18,2c-2.55-0.25-5.16,0.53-7.14,2.23c-0.65,0.56-0.78,1.91,0.1,2.37c1.42,0.75,2.88,1.25,4.44,1.4
		c0.13,1.06,0.72,2.03,1.83,2.49c0.83,0.34,1.64,0.29,2.34,0c0.43,0.95,1.01,1.81,1.86,2.56c0.63,0.55,1.63,0.22,2.09-0.36
		c0.26-0.33,0.47-0.68,0.65-1.04c1.16,0.67,2.53,0.99,3.86,0.77c0.4-0.06,0.77-0.21,1.11-0.41c0.41,0.35,0.87,0.63,1.43,0.82
		c0.79,0.27,1.77,0.28,2.56,0c1-0.37,1.84-1.11,2.35-2.04c0.39,0.04,0.79,0.02,1.18-0.08c1.27-0.35,2.33-1.51,2.66-2.78
		C230.1,60.07,229.85,59.17,229.16,58.6z"/>
	<path class="st16" d="M58.4,67.18c1.03-2.12,1.85-4.84-0.68-5.77c-1.95-0.72-3.93,0.19-5.61,1.39c-0.61-1.07-1.64-1.9-2.92-2.21
		c-1.8-0.43-3.46,0.22-4.82,1.31c-1.03-1.71-3.53-2.17-5.1-0.76c-1.08,0.97-1.28,2.28-0.94,3.51c-0.6,0.07-1.19,0.17-1.77,0.33
		c-1.19,0.32-2.68,0.82-3.54,1.75c-0.87,0.93-0.77,2.38,0.06,3.31c0.95,1.08,2.59,1.21,3.93,1.17c0.51-0.01,1.41-0.01,1.96-0.21
		c0,0.14,0.01,0.28,0.02,0.38c0.06,1.27,0.72,2.46,1.77,3.17c1.47,0.99,3.28,0.78,4.56-0.19c1.16,1.4,2.8,2.3,4.81,1.97
		c1.61-0.27,2.79-1.42,3.2-2.82c2.23,0.63,4.63,0.61,6.06-1.62C60.39,70.27,59.78,68.17,58.4,67.18z"/>
	<path class="st16" d="M73.21,50.49c0.91-0.94,1.89-2.53,1.1-3.81c-0.78-1.28-2.55-1.02-3.77-0.71c-0.9,0.23-1.73,0.63-2.49,1.13
		c-0.94-1.19-2.67-2.58-4.16-1.72c-0.93,0.53-1.12,1.68-0.83,2.65c0.04,0.12,0.09,0.23,0.13,0.35c-1.92,0.18-4.1,0.69-3.63,2.61
		c0.31,1.27,1.8,1.67,2.95,1.62c0.55-0.03,1.11-0.13,1.64-0.29c0.02-0.01,0.05-0.02,0.07-0.02c0.02,0.36,0.05,0.72,0.14,1.06
		c0.28,1.09,1.29,1.86,2.43,1.62c0.91-0.19,1.42-0.81,1.74-1.59c0.1,0.07,0.2,0.16,0.31,0.22c1.05,0.63,2.63,1.04,3.75,0.36
		c1.18-0.72,1.09-2.25,0.41-3.29C73.07,50.61,73.14,50.56,73.21,50.49z"/>
	<path class="st0" d="M172.54,59.72c0.91-0.94,1.89-2.53,1.1-3.81c-0.78-1.28-2.55-1.02-3.77-0.71c-0.9,0.23-1.73,0.63-2.49,1.13
		c-0.94-1.19-2.67-2.58-4.16-1.72c-0.93,0.53-1.12,1.68-0.83,2.65c0.04,0.12,0.09,0.23,0.13,0.35c-1.92,0.18-4.1,0.69-3.63,2.61
		c0.31,1.27,1.8,1.67,2.95,1.62c0.55-0.03,1.11-0.13,1.64-0.29c0.02-0.01,0.05-0.02,0.07-0.02c0.02,0.36,0.05,0.72,0.14,1.06
		c0.28,1.09,1.29,1.86,2.43,1.62c0.91-0.19,1.42-0.81,1.74-1.59c0.1,0.07,0.2,0.16,0.31,0.22c1.05,0.63,2.63,1.04,3.75,0.36
		c1.18-0.72,1.09-2.25,0.41-3.29C172.4,59.84,172.48,59.79,172.54,59.72z"/>
</g>
</svg>
