<?xml version="1.0" encoding="utf-8"?>
<!-- Generator: Adobe Illustrator 24.2.0, SVG Export Plug-In . SVG Version: 6.00 Build 0)  -->
<svg version="1.1" id="line" xmlns="http://www.w3.org/2000/svg" xmlns:xlink="http://www.w3.org/1999/xlink" x="0px" y="0px"
	 viewBox="0 0 250 330" style="enable-background:new 0 0 250 330;" xml:space="preserve">
<style type="text/css">
	.st0{fill:#BCDFDF;}
	.st1{fill:#99D3DD;}
	.st2{fill:#ABCB58;}
	.st3{fill:#C7D555;}
	.st4{fill:#FFFFFF;}
	.st5{fill:#AAB4B9;}
	.st6{fill:#FDDBBF;}
	.st7{fill:#F4CA99;}
	.st8{fill:#DC9F5C;}
	.st9{fill:#F6B1AC;}
	.st10{fill:#651811;}
	.st11{fill:#E9E56D;}
	.st12{fill:#9BC0D5;}
	.st13{fill:#DDE8F0;}
	.st14{fill:#EF7C68;}
	.st15{fill:#FFE1A2;}
	.st16{fill:#E9F4F4;}
	.st17{fill:#CDD95F;}
	.st18{fill:#B2DCDA;}
	.st19{fill:#9DAEB9;}
	.st20{fill:#F0EA7A;}
	.st21{fill:#CCDB81;}
	.st22{fill:#F4A5AD;}
	.st23{fill:#B2B2B2;}
	.st24{fill:#C0C4C6;}
	.st25{fill:#E3E8EA;}
	.st26{fill:#FFDB83;}
	.st27{fill:#C0C0C0;}
	.st28{fill:#6EC6D9;}
	.st29{fill:#878D91;}
	.st30{fill:#F0867B;}
	.st31{fill:#FFDE90;}
	.st32{fill:#C53C6C;}
	.st33{fill:#EEBF6D;}
	.st34{fill:#903D8F;}
	.st35{fill:#514E9C;}
	.st36{fill:#F9BB7A;}
	.st37{fill:#F28F6C;}
	.st38{fill:#FFE586;}
	.st39{fill:#6FC5D3;}
	.st40{fill:#9BD4E4;}
	.st41{fill:#F6B9C2;}
	.st42{fill:#F4A08B;}
	.st43{fill:#D1E8E8;}
	.st44{fill:#FCC249;}
	.st45{fill:#9F5A24;}
	.st46{fill:#BCE4FA;}
	.st47{fill:#B07147;}
	.st48{fill:#D88959;}
	.st49{fill:#FFEC96;}
	.st50{fill:#91D0D4;}
	.st51{fill:#651811;stroke:#651811;stroke-width:0.75;stroke-linecap:round;stroke-linejoin:round;stroke-miterlimit:10;}
	.st52{fill:#C1E3E6;}
	.st53{fill:#C4D4DE;}
	.st54{fill:#651811;stroke:#651811;stroke-width:0.5;stroke-miterlimit:10;}
	.st55{fill:#651811;stroke:#651811;stroke-width:0.5;stroke-linecap:round;stroke-linejoin:round;stroke-miterlimit:10;}
	.st56{fill:#D8E0E6;}
	.st57{fill:#FECB4A;}
	.st58{fill:#EEF8FE;}
	.st59{fill:#ADCE68;}
	.st60{fill:#FCD7BA;}
	.st61{fill:#651811;stroke:#651811;stroke-width:0.25;stroke-miterlimit:10;}
	.st62{fill:#F4A8B3;}
	.st63{fill:#F7AE6E;}
	.st64{fill:#FEDFB3;}
	.st65{fill:#F7B28C;}
	.st66{fill:#FFFBDC;}
	.st67{fill:#FCC24F;}
	.st68{fill:none;stroke:#651811;stroke-width:2;stroke-linecap:round;stroke-linejoin:round;stroke-miterlimit:10;}
	.st69{fill:#9EC65A;}
	.st70{fill:#A7D9DE;}
	.st71{fill:#CACCCE;}
	.st72{fill:#FBBE49;}
	.st73{fill:#9BC76B;}
	.st74{fill:#D9E181;}
	.st75{fill:#F6B9C5;}
	.st76{fill:#87CDD8;}
	.st77{fill:#651811;stroke:#651811;stroke-width:0.4;stroke-miterlimit:10;}
	.st78{fill:#A8D7CC;}
	.st79{fill:#CDEAFC;}
	.st80{fill:#D6D6D6;}
	.st81{fill:#F8C3C3;}
	.st82{fill:#D7BCA5;}
	.st83{fill:#FFD247;}
	.st84{fill:#F59B42;}
	.st85{fill:#FFF59B;}
	.st86{fill:#90D1DB;}
	.st87{fill:#EB935F;}
	.st88{fill:#DD7636;}
</style>
<g>
	<path class="st17" d="M228.42,225.53c-19.76-45.37-68.41-59.7-119.65-60.73c-36.75-0.74-74.28,10.91-90.66,39.46
		c-8.09,14.1-4.09,43.22,0.56,54.32c6.11,14.57,32.1,55.35,111.39,52.51c69.74-2.5,90.4-30,97.57-46.49
		C232.98,252.29,233.84,237.98,228.42,225.53z"/>
	<path class="st2" d="M92.31,57.39c-19.86,3.09-64.63,18.12-74.06,77.51c-9.43,59.4,74.09,92.65,146.81,61.28
		C237.8,164.82,204.76,94.24,163.4,71C131.13,52.87,106.38,55.2,92.31,57.39z"/>
	<path class="st4" d="M165.04,210.26c-0.95-8.63-2.86-17.11-4.62-25.6c-3.37-16.22-4.7-32.76-7.93-49
		c-1.59-7.97-3.6-16.11-6.98-23.53c-0.78-1.7-1.9-3.27-3.52-4.25c-1.65-1-3.67-1.24-5.57-1.15c-4.25,0.21-8.53,0.93-12.73,1.55
		c-8.48,1.25-16.91,2.93-25.23,5.02c-4.2,1.05-8.37,2.21-12.51,3.48c-3.53,1.08-7.22,2.46-9.38,5.6c-0.83,0.42-1.47,1.26-1.4,2.22
		c0.02,0.25,0.05,0.5,0.06,0.75c-0.24,1.08-0.26,2.19-0.09,3.35c0.05,0.37,0.22,0.68,0.46,0.95c0.68,7.52,1.62,15.02,2.77,22.48
		c0.53,16.8,3.08,33.51,6.59,49.94c1.97,9.21,3.9,18.61,7.23,27.44c1.47,3.89,3.09,8.21,6.16,11.15c3.49,3.34,7.89,3.4,12.39,2.71
		c0.51-0.08,1.02-0.16,1.52-0.24c0.43,0.81,1.22,1.45,2.18,1.48c10.89,0.34,21.69-2.02,31.5-6.74c0.4-0.19,0.69-0.51,0.89-0.88
		c1.18-0.22,2.36-0.45,3.54-0.71c3.47-0.75,7.41-1.46,10.41-3.48c3.42-2.31,4.56-5.85,4.75-9.81
		C165.75,218.75,165.5,214.48,165.04,210.26z"/>
	<path class="st52" d="M165.04,210.26c-0.95-8.63-2.86-17.11-4.62-25.6c-2.45-11.79-3.82-23.75-5.63-35.64
		c-4.75-0.83-8.83,0.25-13.4,3.47c-1.18,0.83-2.77,0.15-3.49-0.91c-4.25-6.33-7.26,2.56-8.83,5.63c-0.64,1.26-2.33,1.54-3.49,0.91
		c-1.98-1.08-3.27-2.81-5.3-3.76c-2.58-1.2-5.02-0.33-7.77-0.12c-1.12,0.09-1.89-0.6-2.25-1.49c-0.9-0.1-1.8-0.3-2.65-0.57
		c-0.47-0.15-0.86-0.41-1.16-0.74c-0.62,0.33-1.24,0.68-1.84,1.02c-1.96,1.12-3.8,2.57-5.81,3.58c-2.32,1.16-4.71,0.74-7.1,1.4
		c-2.6,0.72-3.89,3.6-5.34,5.71c-1.77,2.58-3.49,5.19-5.16,7.84c-0.35,0.56-0.81,0.9-1.31,1.06c1.19,10.08,2.95,20.09,5.06,30.01
		c1.97,9.21,3.9,18.61,7.23,27.44c1.47,3.89,3.09,8.21,6.16,11.15c3.49,3.34,7.89,3.4,12.39,2.71c0.51-0.08,1.02-0.16,1.52-0.24
		c0.43,0.81,1.22,1.45,2.18,1.48c10.89,0.34,21.69-2.02,31.5-6.74c0.4-0.19,0.69-0.51,0.89-0.88c1.18-0.22,2.36-0.45,3.54-0.71
		c3.47-0.75,7.41-1.46,10.41-3.48c3.42-2.31,4.56-5.85,4.75-9.81C165.75,218.75,165.5,214.48,165.04,210.26z"/>
	<path class="st53" d="M164.62,217.38c-1.81-6.6-2.22-13.31-2.8-20.09c-1.22-14.24-3.36-28.39-5.84-42.46
		c-1.39-7.9-2.89-15.78-4.38-23.66c-0.15-0.8-0.79-1.38-1.54-1.65c-1.01-6.96-2.22-13.91-4.85-20.47c-0.5-1.25-1.67-2.13-3.08-1.75
		c-0.63,0.17-1.21,0.67-1.56,1.28c-3.17-0.63-6.35-0.29-9.54,0.2c-3.64,0.55-7.27,1.19-10.89,1.85c-0.67,0.12-1.33,0.24-2,0.37
		c-6.64,0.99-13.27,1.98-19.91,2.98c-1.67-0.48-3.61-0.21-5.37,0.17c-3.08,0.67-6.13,1.49-9.13,2.46c-2.74,0.89-5.52,2-7.4,4.23
		c-0.52,0.27-0.96,0.73-1.19,1.43c-0.14,0.42-0.25,0.86-0.36,1.29c-0.6,1.64-0.77,3.42-0.78,5.18c0,0.01,0,0.02,0,0.03
		c0,0.73,0.02,1.46,0.05,2.17c0.05,0.68,0.33,1.31,0.77,1.77c1.52,20.32,4.85,40.47,8.64,60.48c1.14,6.04,2.32,12.07,3.51,18.1
		c0.08,0.43,0.31,0.79,0.61,1.08c1.71,7,3.58,13.96,5.63,20.87c1.04,3.51,1.9,7.4,5.77,8.75c1.6,0.56,3.35,0.56,5.03,0.59
		c1.85,0.03,3.71,0.04,5.56,0.03c14.03-0.12,28.28-1.81,41.2-7.57c1.67-0.75,3.31-1.56,4.91-2.45c0.65-0.36,1.32-0.72,1.98-1.12
		c2.9,0.2,5.49-1.37,6.88-4.01C166.24,224.27,165.53,220.68,164.62,217.38z M157.34,222.5c-0.02,0.46-0.04,0.96-0.08,1.45
		c-0.45,0.96-0.94,1.9-1.41,2.85c-0.78,0.56-1.8,0.98-2.49,1.37c-1.41,0.79-2.86,1.53-4.33,2.21c-5.68,2.62-11.79,4.32-17.93,5.44
		c-6.25,1.14-12.6,1.62-18.94,1.76c-3.12,0.07-6.26,0.1-9.38-0.01c-1-0.04-2.33-0.02-3.03-0.85c-0.89-1.05-1.11-2.82-1.49-4.09
		c-2.4-8.01-4.56-16.09-6.49-24.22c-0.1-0.4-0.26-0.72-0.46-0.98c-3.95-20.15-7.86-40.33-10.17-60.74
		c-0.68-6.02-1.22-12.05-1.6-18.1c-0.03-0.47-0.17-0.86-0.37-1.19c0.1-0.81,0.23-1.61,0.44-2.41c0.14-0.31,0.31-0.61,0.52-0.89
		c1.38-1.78,4.05-2.38,6.09-3.02c2.93-0.91,5.91-1.71,8.92-2.3c0.42-0.08,1.37-0.28,1.65-0.07c0.44,0.33,0.44,2.22,0.56,2.86
		c0.49,2.52,2.31,4.48,4.87,4.94c2.67,0.48,5.37-0.27,7.98-0.78c3.11-0.61,6.22-1.21,9.33-1.82c2.7-0.53,5.52-0.96,7.38-3.21
		c0.89-1.08,1.46-2.31,2.2-3.48c0.68-1.08,1.65-1.83,2.78-2.39c2.76-1.37,6.08-1.17,9.07-1.09c0.22,0.01,0.43-0.02,0.62-0.07
		c2.15,6.52,4.39,11.53,5.34,18.32c0.12,0.86-0.39,3.3,0.44,3.54c2.28,12.02,4.53,24.04,6.37,36.14c0.97,6.41,1.82,12.84,2.5,19.28
		c0.65,6.19,0.95,12.42,1.76,18.59C159.78,213.38,159.44,218.71,157.34,222.5z"/>
	<path class="st4" d="M152.34,184.28c-0.01-0.2-0.07-0.39-0.18-0.56c-0.09-0.17-0.22-0.32-0.39-0.42c-0.14-0.13-0.32-0.22-0.51-0.27
		c-0.13-0.02-0.27-0.04-0.4-0.05c-0.27,0-0.52,0.07-0.76,0.2l-0.3,0.23c-0.19,0.19-0.31,0.41-0.39,0.66
		c-0.09,0.38-0.18,0.75-0.27,1.13c-0.06,0.2-0.07,0.4-0.03,0.6c0.01,0.2,0.07,0.39,0.18,0.56c0.09,0.17,0.22,0.32,0.39,0.42
		c0.15,0.13,0.31,0.22,0.51,0.27c0.13,0.02,0.27,0.04,0.4,0.05c0.27,0,0.52-0.07,0.76-0.2l0.3-0.23c0.19-0.19,0.31-0.41,0.39-0.66
		c0.09-0.38,0.18-0.75,0.28-1.13C152.37,184.68,152.38,184.48,152.34,184.28z"/>
	<path class="st4" d="M130.56,177.2c-0.05-0.2-0.14-0.37-0.27-0.51c-0.11-0.16-0.25-0.29-0.42-0.39l-0.36-0.15
		c-0.27-0.07-0.53-0.07-0.8,0l-0.36,0.15c-0.23,0.13-0.4,0.31-0.54,0.54c-0.09,0.19-0.19,0.38-0.28,0.56
		c-0.11,0.17-0.17,0.36-0.18,0.56c-0.04,0.2-0.04,0.4,0.03,0.6c0.05,0.2,0.14,0.37,0.27,0.51c0.11,0.16,0.25,0.29,0.42,0.39
		l0.36,0.15c0.27,0.07,0.53,0.07,0.8,0l0.36-0.15c0.23-0.13,0.4-0.31,0.54-0.54c0.09-0.19,0.19-0.38,0.28-0.56
		c0.11-0.17,0.17-0.36,0.18-0.56C130.63,177.6,130.62,177.4,130.56,177.2z"/>
	<path class="st4" d="M93.32,168.01c-0.06-0.19-0.16-0.35-0.31-0.48l-0.3-0.23c-0.23-0.14-0.49-0.2-0.76-0.2
		c-0.13,0.02-0.27,0.04-0.4,0.05c-0.25,0.07-0.47,0.2-0.66,0.39c-0.28,0.28-0.56,0.56-0.84,0.84c-0.15,0.14-0.25,0.3-0.31,0.48
		c-0.09,0.18-0.14,0.37-0.13,0.58c-0.01,0.21,0.04,0.4,0.13,0.58c0.06,0.19,0.16,0.35,0.31,0.48l0.3,0.23
		c0.23,0.14,0.49,0.2,0.76,0.2c0.13-0.02,0.27-0.04,0.4-0.05c0.25-0.07,0.47-0.2,0.66-0.39l0.84-0.84c0.15-0.14,0.25-0.3,0.31-0.48
		c0.09-0.18,0.14-0.37,0.13-0.58C93.46,168.38,93.41,168.19,93.32,168.01z"/>
	<path class="st4" d="M95.66,187.03c-0.12-0.37-0.34-0.7-0.69-0.9c-0.66-0.37-1.32-0.75-1.97-1.12c-0.34-0.19-0.78-0.26-1.16-0.15
		c-0.2,0.05-0.37,0.14-0.51,0.27c-0.16,0.11-0.29,0.25-0.39,0.42c-0.18,0.35-0.28,0.77-0.15,1.16c0.12,0.37,0.34,0.7,0.69,0.9
		c0.66,0.37,1.31,0.75,1.97,1.12c0.34,0.19,0.78,0.26,1.16,0.15c0.2-0.05,0.37-0.14,0.51-0.27c0.16-0.11,0.29-0.25,0.39-0.42
		C95.69,187.84,95.79,187.42,95.66,187.03z"/>
	<path class="st4" d="M108.58,198.15c-0.01-0.2-0.07-0.39-0.18-0.56c-0.21-0.32-0.51-0.6-0.9-0.69c-0.4-0.09-0.8-0.05-1.16,0.15
		c-0.55,0.31-1.09,0.62-1.64,0.93c-0.17,0.09-0.32,0.22-0.42,0.39c-0.13,0.14-0.22,0.32-0.27,0.51c-0.06,0.2-0.07,0.4-0.03,0.6
		c0.01,0.2,0.07,0.39,0.18,0.56c0.21,0.32,0.51,0.6,0.9,0.69c0.4,0.09,0.8,0.05,1.16-0.15c0.55-0.31,1.09-0.62,1.64-0.93
		c0.17-0.09,0.32-0.22,0.42-0.39c0.13-0.14,0.22-0.31,0.27-0.51C108.61,198.55,108.62,198.35,108.58,198.15z"/>
	<path class="st4" d="M120.44,231.87c-0.01-0.2-0.07-0.39-0.18-0.56c-0.09-0.17-0.22-0.32-0.39-0.42c-0.14-0.13-0.31-0.22-0.51-0.27
		c-0.13-0.02-0.27-0.04-0.4-0.05c-0.27,0-0.52,0.07-0.76,0.2l-0.3,0.23c-0.18,0.18-0.3,0.39-0.37,0.63c-0.1,0.21-0.22,0.41-0.35,0.6
		c-0.13,0.15-0.26,0.31-0.42,0.44c-0.15,0.14-0.25,0.3-0.31,0.48c-0.09,0.18-0.14,0.37-0.13,0.58c-0.01,0.21,0.04,0.4,0.13,0.58
		c0.06,0.19,0.16,0.35,0.31,0.48c0.29,0.26,0.66,0.46,1.06,0.44c0.13-0.02,0.27-0.04,0.4-0.05c0.25-0.07,0.47-0.2,0.66-0.39
		c0.36-0.3,0.66-0.68,0.92-1.06c0.1-0.14,0.19-0.29,0.26-0.45c0.13-0.27,0.25-0.54,0.34-0.83
		C120.47,232.27,120.48,232.07,120.44,231.87z"/>
	<path class="st4" d="M119.64,212.78c-0.06-0.19-0.16-0.35-0.31-0.48c-0.1-0.08-0.2-0.16-0.3-0.23c-0.23-0.14-0.49-0.2-0.76-0.2
		c-0.13,0.02-0.27,0.04-0.4,0.05c-0.25,0.07-0.47,0.2-0.66,0.39c-0.09,0.09-0.19,0.19-0.28,0.28c-0.15,0.14-0.25,0.3-0.31,0.48
		c-0.09,0.18-0.14,0.37-0.13,0.58c-0.01,0.21,0.04,0.4,0.13,0.58c0.06,0.19,0.16,0.35,0.31,0.48l0.3,0.23
		c0.23,0.14,0.49,0.2,0.76,0.2c0.13-0.02,0.27-0.04,0.4-0.05c0.25-0.07,0.47-0.2,0.66-0.39l0.28-0.28c0.15-0.14,0.25-0.3,0.31-0.48
		c0.09-0.18,0.14-0.37,0.13-0.58C119.78,213.15,119.74,212.96,119.64,212.78z"/>
	<path class="st4" d="M139.21,160.13c-0.06-0.19-0.16-0.35-0.31-0.48c-0.14-0.15-0.3-0.25-0.48-0.31c-0.18-0.09-0.37-0.14-0.58-0.13
		c-0.13,0.02-0.27,0.04-0.4,0.05c-0.25,0.07-0.47,0.2-0.66,0.39l-0.23,0.3c-0.14,0.23-0.2,0.49-0.2,0.76v0.56
		c-0.01,0.21,0.04,0.4,0.13,0.58c0.06,0.19,0.16,0.35,0.31,0.48c0.14,0.15,0.3,0.25,0.48,0.31c0.18,0.09,0.37,0.14,0.58,0.13
		c0.13-0.02,0.27-0.04,0.4-0.05c0.25-0.07,0.47-0.2,0.66-0.39l0.23-0.3c0.14-0.23,0.2-0.49,0.2-0.76v-0.56
		C139.35,160.5,139.31,160.31,139.21,160.13z"/>
	<path class="st4" d="M102.14,154.09c-0.05-0.12-0.1-0.24-0.15-0.36c-0.13-0.23-0.31-0.4-0.54-0.54c-0.37-0.28-0.75-0.57-1.12-0.85
		c-0.17-0.11-0.36-0.17-0.56-0.18c-0.2-0.04-0.4-0.04-0.6,0.03c-0.2,0.05-0.37,0.14-0.51,0.27c-0.16,0.11-0.29,0.25-0.39,0.42
		l-0.15,0.36c-0.07,0.27-0.07,0.53,0,0.8l0.15,0.36c0.13,0.23,0.31,0.4,0.54,0.54c0.37,0.28,0.75,0.57,1.12,0.85
		c0.17,0.11,0.36,0.17,0.56,0.18c0.2,0.04,0.4,0.04,0.6-0.03c0.2-0.05,0.37-0.14,0.51-0.27c0.16-0.11,0.29-0.25,0.39-0.42
		c0.05-0.12,0.1-0.24,0.15-0.36C102.21,154.63,102.21,154.36,102.14,154.09z"/>
	<path class="st4" d="M136.13,188.86c-0.06-0.19-0.16-0.35-0.31-0.48c-0.1-0.08-0.2-0.16-0.3-0.23c-0.23-0.14-0.49-0.2-0.76-0.2
		c-0.13,0.02-0.27,0.04-0.4,0.05c-0.25,0.07-0.47,0.2-0.66,0.39c-0.19,0.19-0.38,0.37-0.56,0.56c-0.15,0.14-0.25,0.3-0.31,0.48
		c-0.09,0.18-0.14,0.37-0.13,0.58c-0.01,0.21,0.04,0.4,0.13,0.58c0.06,0.19,0.16,0.35,0.31,0.48l0.3,0.23
		c0.23,0.14,0.49,0.2,0.76,0.2c0.13-0.02,0.27-0.04,0.4-0.05c0.25-0.07,0.47-0.2,0.66-0.39c0.19-0.19,0.38-0.37,0.56-0.56
		c0.15-0.14,0.25-0.3,0.31-0.48c0.09-0.18,0.14-0.37,0.13-0.58C136.27,189.23,136.23,189.04,136.13,188.86z"/>
	<path class="st6" d="M170.67,144.96c-1.01-2.26-3.79-2.71-5.58-1.04c-0.85,0.79-1.55,1.85-2.15,2.94
		c-1.02-0.25-2.26,0.21-2.76,1.16c-0.17,0.32-0.32,0.65-0.47,0.98c-0.21-0.06-0.43-0.11-0.65-0.11c-1.42,0-2.41,1.15-2.5,2.5
		c-0.33,5.21,0.08,10.4,0.66,15.58c0.57,5.14,1.2,10.27,1.81,15.4c0.16,1.34,1.04,2.5,2.5,2.5c1.42,0,2.42-1.15,2.5-2.5
		c0.5-8.57,1.98-17.04,4.42-25.28c0.59-2.01,1.29-3.97,1.92-5.97C170.96,149.23,171.52,146.86,170.67,144.96z"/>
	<path class="st6" d="M86.3,197.94c-0.29-0.81-0.99-1.41-1.78-1.67c-1.03-6.57-2.64-13.03-4.83-19.31c0.01-0.58,0.03-1.17,0.02-1.75
		c-0.01-1.18-0.81-1.99-1.78-2.31c-0.43-0.43-0.97-0.66-1.53-0.72c0-0.02,0.01-0.04,0.01-0.06c2.39,0.15,4.05-3.33,1.51-4.59
		c-2.68-1.33-5.35,0.22-6.25,2.93c-0.77,2.33-0.86,5.11-0.87,7.55c-0.03,5.24,1.11,10.33,3.15,15.14c0.16,0.37,0.41,0.65,0.73,0.84
		c0.23,1.63,0.51,3.26,0.81,4.89c0.67,3.63,1.34,7.31,2.32,10.88c0.92,3.36,2.35,6.6,4.85,9.09c1.35,1.36,3.64,0.69,4.18-1.1
		C88.77,211.28,88.61,204.27,86.3,197.94z"/>
	<path class="st6" d="M235.48,236.79c-1.04-1.94-2.96-3.42-4.61-4.83c-1.8-1.54-3.66-3-5.56-4.4c-3.63-2.68-7.45-5.11-11.34-7.39
		c-7.91-4.64-16.14-8.7-24.13-13.2c-4.43-2.5-8.81-5.11-12.94-8.08c-4-2.88-7.7-6.28-10.16-10.6c-1.4-2.46-5.33-0.82-4.57,1.93
		c0.2,0.73,0.39,1.47,0.59,2.2c-0.74,0.53-1.19,1.42-0.88,2.56c3.22,11.85,6.88,25.45,0.83,37.03c-0.61-0.35-1.21-0.71-1.83-1.06
		c-2.8-1.59-5.33,2.73-2.52,4.32c18.01,10.19,34.51,22.91,48.94,37.74c4.09,4.2,8.01,8.58,11.75,13.09c0.85,1.02,2.67,0.91,3.54,0
		c5.98-6.28,9.81-14.23,11.84-22.61c1.03-4.23,1.63-8.58,1.92-12.93c0.14-2.16,0.21-4.33,0.19-6.5
		C236.52,241.64,236.65,238.99,235.48,236.79z"/>
	<g>
		<path class="st30" d="M107.24,111.43c4.09-0.86,8.2-1.6,12.35-2.06c0.09-0.18,0.2-0.35,0.28-0.53c0.75-1.74,1.04-4.1-0.59-5.46
			c-1.9-1.6-4.36-0.62-5.96,0.87c-0.68,0.63-1.26,1.36-1.74,2.15c-0.32-0.67-0.67-1.33-1.11-1.94c-1.25-1.74-3.76-3.64-5.7-1.63
			c-1.56,1.62-0.92,4.26,0.1,5.96C105.51,109.83,106.37,110.64,107.24,111.43z"/>
		<path class="st10" d="M105.93,111.71c0.71-0.15,1.42-0.3,2.14-0.45c-1.61-2.01-2.73-4.65-2.4-7.13c0.21-1.57,1.64-2,2.92-1.22
			c1.43,0.88,1.71,2.87,1.88,4.39c0.1,0.94,1.47,1.31,1.89,0.37c0.87-1.94,2.57-3.35,4.62-3.9c0.74-0.2,2.6-0.56,3.17,0.14
			c0.48,0.59-0.03,1.73-0.31,2.29c-0.61,1.25-1.4,2.39-2.31,3.42c0.92-0.12,1.85-0.23,2.78-0.33c0.19-0.28,0.39-0.55,0.57-0.84
			c0.96-1.55,2.15-3.89,0.95-5.64c-1.26-1.82-4.35-1.39-6.15-0.73c-1.42,0.52-2.7,1.39-3.69,2.51c-0.4-1.35-1.09-2.59-2.33-3.37
			c-1.73-1.09-4.2-0.96-5.36,0.87c-1.22,1.92-0.59,4.76,0.15,6.75C104.82,109.87,105.33,110.82,105.93,111.71z"/>
	</g>
	<path class="st10" d="M85.04,197.49c-4.22-19.88-7.3-40.01-9.16-60.25c-0.29-3.12-0.55-6.25-0.78-9.38c-0.09-1.28-2.1-1.29-2,0
		c1.74,23.48,5.05,46.83,9.93,69.87C83.61,197.4,84.35,197.32,85.04,197.49z"/>
	<path class="st10" d="M166.14,221.36c-0.22-3.26-0.64-6.53-1-9.78c-0.75-6.7-1.58-13.39-2.51-20.07
		c-1.87-13.5-4.11-26.95-6.72-40.34c-2.6-13.32-5.35-26.7-8.89-39.8c-0.68-2.53-2-4.4-4.76-4.68c-3.08-0.31-6.4,0.19-9.48,0.43
		c-6.56,0.51-13.1,1.3-19.59,2.38c-6.56,1.09-13.07,2.48-19.51,4.15c-3.22,0.84-6.42,1.75-9.59,2.73c-2.54,0.78-5.23,1.48-7.39,3.08
		c-1.78,1.32-2.85,3.07-2.52,5.32c0.19,1.27,2.11,0.73,1.93-0.53c-0.35-2.39,2.58-3.88,4.4-4.6c2.8-1.11,5.78-1.87,8.67-2.7
		c6.01-1.72,12.1-3.18,18.24-4.39c6.21-1.22,12.46-2.17,18.75-2.85c3.15-0.34,6.31-0.61,9.47-0.81c1.42-0.09,2.85-0.17,4.27-0.23
		c1.38-0.06,3.13-0.28,4.16,0.86c0.87,0.96,1.07,2.45,1.37,3.67c0.39,1.57,0.78,3.15,1.17,4.73c0.77,3.15,1.51,6.31,2.24,9.48
		c1.45,6.33,2.82,12.67,4.11,19.04c2.54,12.57,4.76,25.2,6.65,37.88c0.94,6.33,1.81,12.68,2.59,19.03c0.39,3.22,0.77,6.45,1.12,9.67
		c0.33,3.02,0.77,6.07,0.89,9.11c0.11,2.85-0.37,5.57-2.85,7.31c-2.29,1.6-5.01,2.76-7.55,3.92c-5.42,2.48-11.06,4.46-16.83,5.98
		c-5.76,1.51-11.65,2.54-17.59,3.05c-2.9,0.25-5.81,0.38-8.72,0.38c-2.94,0-6.04,0.08-8.88-0.78c-5.1-1.55-7.21-6.8-8.6-11.47
		c-1.74-5.85-3.22-11.79-4.66-17.72c-0.17-0.68-0.32-1.37-0.48-2.05c-0.01,0.06-0.01,0.11-0.01,0.17c-0.02,0.2-0.06,0.39-0.1,0.6
		c0.04,0.86,0.08,1.73,0.1,2.59c0.01,0.68-0.2,1.22-0.55,1.62c-0.05,0.13-0.12,0.26-0.19,0.37c0.94,3.76,1.91,7.51,2.93,11.25
		c1.32,4.82,2.59,10.29,6.36,13.87c4.29,4.07,10.83,3.66,16.32,3.53c6.21-0.14,12.4-0.84,18.49-2.06c6.15-1.23,12.19-3,18.02-5.3
		c2.86-1.12,5.67-2.37,8.42-3.73c2.46-1.22,5.3-2.43,6.89-4.78C166.19,226.68,166.31,223.9,166.14,221.36z"/>
	<path class="st10" d="M147.27,128.1c-1.07-3.97-2.13-7.93-3.2-11.9c-0.36-1.33-0.72-2.74-1.62-3.83c-1.03-1.24-2.48-1.56-4.03-1.54
		c-1.74,0.02-3.51,0.3-5.18,0.79c-1.41,0.41-3.14,0.92-4.16,2.03c-1.04,1.13-0.85,2.56-0.75,3.96c0.12,1.64-0.48,2.74-1.9,3.58
		c-1.16,0.69-2.49,1.06-3.8,1.35c-2.01,0.44-4.03,0.82-6.05,1.21c-3.83,0.75-7.66,1.48-11.5,2.17c-1.61,0.29-3.81,0.95-5.13-0.4
		c-1.01-1.04-1.2-2.72-1.55-4.06c-0.3-1.12-0.64-2.64-1.79-3.21c-1.35-0.67-3.15,0.32-4.42,0.74c-5.46,1.76-14.98,3.41-15.71,10.53
		c-0.13,1.28,1.87,1.27,2,0c0.28-2.72,2.76-4.35,5.02-5.42c2.78-1.32,5.85-2.09,8.77-3.03c0.85-0.27,1.85-0.79,2.74-0.88
		c0.9-0.1,1.04,0.34,1.29,1.16c0.39,1.27,0.6,2.58,1.12,3.81c1.09,2.56,3.35,3.41,6.01,3.07c3.62-0.46,7.23-1.29,10.82-1.98
		c3.28-0.63,6.65-1.14,9.88-2c2.2-0.59,4.7-1.63,5.76-3.8c0.53-1.09,0.49-2.23,0.39-3.41c-0.08-0.87-0.18-1.7,0.59-2.3
		c0.68-0.52,1.67-0.8,2.48-1.05c1.84-0.58,3.93-1.01,5.86-0.84c1.86,0.16,2.37,1.85,2.8,3.41c1.14,4.12,2.22,8.25,3.33,12.38
		C145.68,129.88,147.61,129.35,147.27,128.1z"/>
	<path class="st10" d="M123.14,237.32c-4.26,0.76-8.6,0.94-12.9,0.52c-3.78-0.37-7.73-1.04-9.96-4.45
		c-2.19-3.37-3.56-7.33-4.73-11.16c-1.21-3.97-2.2-8.01-3.23-12.03c-4.21-16.47-8.08-33.07-10.33-49.93
		c-1.27-9.54-2.01-19.15-2.02-28.77c0-1.29-2-1.29-2,0c0.02,17.85,2.58,35.58,6.23,53.02c1.83,8.71,3.93,17.36,6.13,25.98
		c1.08,4.25,2.12,8.52,3.42,12.71c1.19,3.83,2.59,7.82,4.79,11.2c2.37,3.64,6.14,4.76,10.25,5.28c4.96,0.63,9.96,0.45,14.87-0.43
		C124.94,239.02,124.4,237.09,123.14,237.32z"/>
	<path class="st10" d="M160.42,213.6c-0.35-4.24-1.17-8.47-1.81-12.67c-0.67-4.43-1.35-8.85-2.02-13.28l-4-26.32
		c-1.51-9.92-3.02-19.84-4.52-29.76c-0.19-1.27-2.12-0.73-1.93,0.53c2.55,16.81,5.11,33.61,7.66,50.42
		c1.28,8.44,2.57,16.89,3.85,25.33c0.59,3.91,1.41,8.06,0.42,11.97c-0.83,3.3-3.07,5.94-5.85,7.81c-6.98,4.7-15.81,4.58-23.43,7.71
		c-1.17,0.48-0.66,2.42,0.53,1.93c7.06-2.9,15-3.06,21.8-6.66c2.86-1.51,5.5-3.61,7.23-6.39
		C160.35,221.05,160.72,217.27,160.42,213.6z"/>
	<g>
		<g>
			<path class="st6" d="M86.61,82.39c-0.05-0.34-0.12-0.67-0.25-0.98c-0.78-1.82-3.22-2.68-4.65-1c-0.55,0.64-0.68,1.46-0.77,2.27
				c-0.1,0.82-0.16,1.64-0.15,2.46c0,0.24,0.02,0.49,0.04,0.73c-0.03,0.15-0.05,0.31-0.03,0.48c0.24,2.7,0.79,5.38,1.68,7.95
				c0.56,1.61,2.85,1.87,3.67,0.32c0.16-0.31,0.29-0.62,0.39-0.94c0.57-0.41,0.96-1.04,1.12-1.75c0.37-1.62,0.4-3.41,0.38-5.06
				C88.02,85.2,87.74,83.66,86.61,82.39z"/>
			<path class="st44" d="M80.24,87.19c-0.11-1-0.79-1.8-1.81-1.89c-0.8-0.07-1.61,0.36-1.97,1.08c-0.52,0.37-0.85,0.98-0.84,1.69
				c0.05,2.35,0.41,4.7,1.02,6.97c0.26,0.96,1.32,1.5,2.25,1.34c1.01-0.18,1.63-1.03,1.65-2.03C80.59,91.95,80.49,89.57,80.24,87.19
				z"/>
		</g>
		<g>
			<path class="st10" d="M82.25,93.26c-0.2-2.11-0.45-4.22-0.74-6.32c-0.16-1.12-0.14-2.68-1.62-2.75
				c-1.16-0.05-2.37,0.11-3.53,0.17c-1.28,0.06-1.27,2.06,0.02,2c0.6-0.03,1.2-0.06,1.8-0.09c0.28-0.01,0.56-0.03,0.84-0.04
				c0.14-0.01,0.28-0.01,0.42-0.02c0.12,0.59,0.15,1.24,0.22,1.81c0.11,0.82,0.21,1.64,0.31,2.46c0.09,0.82,0.18,1.64,0.26,2.47
				c0.04,0.43,0.08,0.86,0.12,1.29c0.02,0.18,0.03,0.36,0.05,0.54c0,0.06,0.01,0.12,0.01,0.18c-0.38,0.05-0.79,0.03-1.14,0.06
				c-0.37,0.03-0.9,0.15-1.33,0.13c-0.05-0.16-0.09-0.32-0.14-0.49c-0.09-0.33-0.18-0.67-0.26-1c-0.17-0.7-0.33-1.41-0.47-2.13
				c-0.27-1.37-0.45-2.76-0.57-4.15c-0.05-0.54-0.44-1-1.01-0.99c-0.51,0-1.04,0.47-0.99,1.01c0.18,2.09,0.5,4.16,0.97,6.2
				c0.11,0.47,0.23,0.94,0.35,1.41c0.13,0.49,0.23,1.03,0.52,1.46c0.62,0.94,1.89,0.63,2.84,0.56c0.93-0.07,2.25,0.08,2.91-0.71
				C82.72,95.54,82.34,94.16,82.25,93.26z"/>
			<path class="st10" d="M89.32,91.66c0.21-0.18,0.43-0.36,0.63-0.54c0.52-0.48,0.91-1.14,0.66-1.87c-0.27-0.78-1.05-1.15-1.9-1.32
				c0.63-1,0.91-2.15,0.2-3.31c-0.58-0.95-1.43-1.19-2.31-1.06c0.23-0.78,0.49-2.45,0.42-3.27c-0.1-1.34-0.94-2.9-2.48-2.82
				c-1.47,0.08-2.22,1.74-2.69,2.91c-0.43,1.08-0.86,3.33-1.92,3.97c-1.1,0.66-0.08,2.39,1.02,1.72c1.77-1.07,2.17-3.89,3.03-5.6
				c0.08-0.16,0.45-1,0.68-1.02c0.26-0.01,0.37,0.86,0.38,0.99c0.1,1.31-0.62,3.49-1.17,4.64c-0.48,1.03,0.71,1.97,1.58,1.2
				c0.39-0.34,1.67-1.35,1.86-0.33c0.16,0.85-0.78,1.6-1.32,2.1c-0.65,0.61-0.12,1.69,0.72,1.7c0.41,0,0.82,0.02,1.23,0.09
				c0.05,0.01,0.15,0.04,0.25,0.07c-0.23,0.21-0.46,0.47-0.59,0.58c-0.39,0.33-0.77,0.65-1.16,0.98c-0.49,0.41-0.32,1.29,0.22,1.57
				c0.34,0.18,0.96,0.42,1.46,0.45c-0.21,0.08-0.44,0.14-0.65,0.2c-1.53,0.44-3.09,0.64-4.68,0.64c-1.29,0-1.27,2,0.02,2
				c1.3,0,2.6-0.13,3.88-0.39c1.05-0.21,2.28-0.44,3.14-1.11c0.76-0.59,1.07-1.62,0.48-2.45C90.06,92.04,89.7,91.81,89.32,91.66z"/>
		</g>
	</g>
	<g>
		<g>
			<path class="st6" d="M124.4,67.37c-0.08-0.33-0.18-0.66-0.35-0.95c-0.95-1.74-3.47-2.35-4.72-0.54
				c-0.48,0.69-0.53,1.52-0.55,2.33c-0.01,0.82,0,1.64,0.1,2.46c0.03,0.24,0.07,0.48,0.11,0.72c-0.01,0.16-0.01,0.32,0.02,0.48
				c0.5,2.67,1.32,5.28,2.45,7.74c0.71,1.55,3.02,1.58,3.69-0.04c0.13-0.32,0.22-0.65,0.3-0.97c0.53-0.46,0.85-1.13,0.95-1.85
				c0.21-1.65,0.07-3.43-0.12-5.08C126.07,70.03,125.64,68.53,124.4,67.37z"/>
			<path class="st44" d="M118.52,72.78c-0.2-0.98-0.96-1.71-1.99-1.7c-0.81,0.01-1.56,0.52-1.85,1.26
				c-0.48,0.42-0.75,1.06-0.67,1.76c0.28,2.33,0.87,4.64,1.7,6.83c0.35,0.93,1.46,1.37,2.37,1.11c0.99-0.28,1.52-1.18,1.44-2.19
				C119.34,77.48,119.01,75.12,118.52,72.78z"/>
		</g>
		<g>
			<path class="st10" d="M121.13,78.62c-0.41-2.08-0.86-4.15-1.36-6.21c-0.27-1.1-0.4-2.65-1.89-2.57
				c-1.16,0.06-2.34,0.34-3.49,0.51c-1.27,0.19-1.06,2.18,0.21,1.99c0.59-0.09,1.19-0.18,1.78-0.26c0.28-0.04,0.56-0.08,0.84-0.12
				c0.14-0.02,0.28-0.04,0.41-0.06c0.18,0.58,0.27,1.22,0.4,1.78c0.19,0.8,0.37,1.61,0.54,2.42s0.34,1.62,0.5,2.43
				c0.08,0.42,0.17,0.85,0.24,1.27c0.03,0.18,0.07,0.35,0.1,0.53c0.01,0.06,0.02,0.12,0.03,0.18c-0.37,0.08-0.78,0.11-1.13,0.17
				c-0.36,0.06-0.88,0.24-1.31,0.26c-0.06-0.16-0.12-0.31-0.18-0.47c-0.12-0.32-0.24-0.65-0.36-0.97c-0.24-0.68-0.47-1.37-0.68-2.07
				c-0.4-1.34-0.72-2.7-0.97-4.07c-0.1-0.53-0.53-0.95-1.1-0.89c-0.51,0.05-0.99,0.57-0.89,1.1c0.38,2.06,0.9,4.09,1.57,6.08
				c0.16,0.46,0.32,0.91,0.49,1.37c0.18,0.47,0.33,1,0.66,1.4c0.71,0.87,1.95,0.44,2.88,0.28c0.92-0.16,2.25-0.14,2.82-0.99
				C121.82,80.84,121.3,79.51,121.13,78.62z"/>
			<path class="st10" d="M128,76.34c0.19-0.2,0.39-0.4,0.57-0.6c0.47-0.53,0.79-1.22,0.47-1.92c-0.34-0.75-1.16-1.04-2.02-1.13
				c0.53-1.06,0.69-2.23-0.12-3.31c-0.67-0.89-1.54-1.05-2.4-0.82c0.15-0.8,0.24-2.49,0.1-3.3c-0.23-1.32-1.22-2.8-2.75-2.56
				c-1.45,0.22-2.04,1.95-2.4,3.16c-0.32,1.11-0.52,3.4-1.52,4.14c-1.03,0.77,0.15,2.38,1.19,1.61c1.66-1.24,1.78-4.08,2.46-5.87
				c0.06-0.17,0.35-1.04,0.57-1.08c0.26-0.04,0.45,0.82,0.47,0.95c0.23,1.29-0.28,3.53-0.71,4.73c-0.38,1.07,0.9,1.89,1.69,1.04
				c0.35-0.38,1.53-1.51,1.82-0.52c0.24,0.83-0.62,1.67-1.1,2.22c-0.58,0.67,0.05,1.7,0.88,1.62c0.41-0.04,0.82-0.06,1.23-0.03
				c0.05,0,0.15,0.03,0.25,0.05c-0.21,0.23-0.42,0.51-0.53,0.63c-0.35,0.36-0.7,0.72-1.05,1.09c-0.44,0.46-0.19,1.31,0.37,1.54
				c0.36,0.15,1,0.33,1.49,0.3c-0.21,0.1-0.42,0.18-0.63,0.26c-1.48,0.58-3.01,0.94-4.59,1.1c-1.28,0.13-1.07,2.12,0.21,1.99
				c1.3-0.13,2.58-0.39,3.82-0.77c1.02-0.32,2.23-0.66,3.02-1.42c0.7-0.67,0.9-1.72,0.23-2.49C128.78,76.64,128.4,76.45,128,76.34z"
				/>
		</g>
	</g>
	<g>
		<g>
			<path class="st6" d="M101.84,23.48c-0.08-0.33-0.18-0.66-0.35-0.95c-0.95-1.74-3.47-2.35-4.72-0.54
				c-0.48,0.69-0.53,1.52-0.55,2.33c-0.02,0.82,0,1.64,0.1,2.46c0.03,0.24,0.07,0.48,0.11,0.72c-0.01,0.16-0.01,0.32,0.02,0.48
				c0.5,2.67,1.32,5.28,2.45,7.74c0.71,1.55,3.02,1.58,3.69-0.04c0.13-0.32,0.22-0.65,0.3-0.97c0.53-0.46,0.85-1.13,0.95-1.85
				c0.21-1.64,0.07-3.43-0.12-5.08C103.51,26.14,103.08,24.64,101.84,23.48z"/>
			<path class="st44" d="M95.96,28.89c-0.2-0.98-0.96-1.71-1.99-1.7c-0.81,0.01-1.56,0.52-1.85,1.26c-0.48,0.42-0.75,1.06-0.67,1.76
				c0.28,2.33,0.87,4.64,1.7,6.83c0.35,0.93,1.46,1.37,2.37,1.11c0.99-0.28,1.52-1.18,1.44-2.19
				C96.78,33.59,96.45,31.23,95.96,28.89z"/>
		</g>
		<g>
			<path class="st10" d="M98.57,34.73c-0.41-2.08-0.86-4.15-1.36-6.21c-0.27-1.1-0.4-2.65-1.89-2.57c-1.16,0.06-2.34,0.34-3.49,0.51
				c-1.27,0.19-1.06,2.18,0.21,1.99c0.59-0.09,1.19-0.18,1.78-0.26c0.28-0.04,0.56-0.08,0.84-0.12c0.14-0.02,0.28-0.04,0.41-0.06
				c0.18,0.58,0.27,1.22,0.4,1.78c0.19,0.8,0.37,1.61,0.55,2.42c0.17,0.81,0.34,1.62,0.5,2.43c0.08,0.42,0.16,0.85,0.24,1.27
				c0.03,0.18,0.07,0.35,0.1,0.53c0.01,0.06,0.02,0.12,0.03,0.18c-0.37,0.08-0.78,0.11-1.13,0.17c-0.36,0.06-0.88,0.24-1.31,0.26
				c-0.06-0.16-0.12-0.31-0.18-0.47c-0.12-0.32-0.24-0.65-0.36-0.97c-0.24-0.68-0.47-1.37-0.68-2.07c-0.4-1.34-0.72-2.7-0.97-4.07
				c-0.1-0.53-0.53-0.95-1.1-0.89c-0.51,0.05-0.99,0.57-0.89,1.1c0.38,2.06,0.9,4.09,1.57,6.08c0.16,0.46,0.32,0.91,0.49,1.37
				c0.18,0.47,0.33,1,0.66,1.4c0.71,0.87,1.95,0.44,2.88,0.28c0.92-0.16,2.25-0.14,2.82-0.99C99.26,36.95,98.74,35.62,98.57,34.73z"
				/>
			<path class="st10" d="M105.44,32.45c0.19-0.2,0.39-0.4,0.57-0.6c0.47-0.53,0.79-1.22,0.47-1.92c-0.34-0.75-1.15-1.04-2.02-1.13
				c0.53-1.06,0.69-2.23-0.12-3.31c-0.67-0.89-1.54-1.05-2.4-0.82c0.15-0.8,0.24-2.49,0.1-3.3c-0.23-1.32-1.22-2.8-2.75-2.56
				c-1.45,0.22-2.04,1.95-2.4,3.16c-0.32,1.11-0.52,3.4-1.52,4.14c-1.03,0.77,0.15,2.38,1.19,1.61c1.66-1.24,1.78-4.08,2.46-5.87
				c0.06-0.17,0.35-1.04,0.57-1.08c0.26-0.04,0.45,0.82,0.47,0.95c0.23,1.29-0.28,3.53-0.71,4.73c-0.38,1.07,0.9,1.89,1.69,1.04
				c0.35-0.38,1.53-1.51,1.82-0.52c0.24,0.83-0.62,1.67-1.1,2.22c-0.58,0.67,0.05,1.7,0.89,1.62c0.41-0.04,0.82-0.06,1.23-0.03
				c0.05,0,0.15,0.03,0.25,0.05c-0.21,0.23-0.42,0.51-0.53,0.63c-0.35,0.36-0.7,0.72-1.05,1.09c-0.44,0.46-0.19,1.31,0.37,1.54
				c0.36,0.15,1,0.33,1.49,0.3c-0.21,0.1-0.42,0.18-0.63,0.26c-1.48,0.58-3.01,0.94-4.59,1.1c-1.28,0.13-1.07,2.12,0.21,1.99
				c1.3-0.13,2.58-0.39,3.82-0.77c1.02-0.32,2.23-0.66,3.02-1.42c0.7-0.67,0.9-1.72,0.23-2.49
				C106.22,32.75,105.84,32.56,105.44,32.45z"/>
		</g>
	</g>
	<g>
		<g>
			<path class="st6" d="M146.26,168.71c-0.08-0.33-0.18-0.66-0.35-0.95c-0.95-1.74-3.47-2.35-4.72-0.54
				c-0.48,0.69-0.53,1.52-0.55,2.33c-0.02,0.82,0,1.64,0.1,2.46c0.03,0.24,0.07,0.48,0.11,0.72c-0.01,0.16-0.01,0.32,0.02,0.48
				c0.5,2.67,1.32,5.28,2.45,7.74c0.71,1.55,3.02,1.58,3.69-0.04c0.13-0.32,0.22-0.65,0.3-0.97c0.53-0.46,0.85-1.13,0.95-1.85
				c0.21-1.65,0.07-3.43-0.12-5.08C147.94,171.37,147.51,169.87,146.26,168.71z"/>
			<path class="st44" d="M140.39,174.12c-0.2-0.98-0.96-1.71-1.99-1.7c-0.81,0.01-1.56,0.52-1.85,1.26
				c-0.48,0.42-0.75,1.06-0.67,1.76c0.28,2.33,0.87,4.64,1.7,6.83c0.35,0.93,1.46,1.37,2.37,1.11c0.99-0.28,1.52-1.18,1.44-2.19
				C141.2,178.82,140.87,176.46,140.39,174.12z"/>
		</g>
		<g>
			<path class="st10" d="M142.99,179.96c-0.41-2.08-0.86-4.15-1.36-6.21c-0.27-1.1-0.4-2.65-1.89-2.57
				c-1.16,0.06-2.34,0.34-3.49,0.51c-1.27,0.19-1.06,2.18,0.21,1.99c0.59-0.09,1.19-0.18,1.78-0.26c0.28-0.04,0.56-0.08,0.84-0.12
				c0.14-0.02,0.28-0.04,0.41-0.06c0.18,0.58,0.27,1.22,0.4,1.78c0.19,0.8,0.37,1.61,0.54,2.42c0.17,0.81,0.34,1.62,0.5,2.43
				c0.08,0.42,0.16,0.85,0.24,1.27c0.03,0.18,0.07,0.35,0.1,0.53c0.01,0.06,0.02,0.12,0.03,0.18c-0.37,0.08-0.78,0.11-1.13,0.17
				c-0.36,0.06-0.88,0.24-1.31,0.26c-0.06-0.16-0.12-0.31-0.18-0.47c-0.12-0.32-0.24-0.65-0.36-0.97c-0.24-0.68-0.47-1.37-0.68-2.07
				c-0.4-1.34-0.72-2.7-0.97-4.07c-0.1-0.53-0.53-0.95-1.1-0.89c-0.51,0.05-0.99,0.57-0.89,1.1c0.38,2.06,0.9,4.09,1.57,6.08
				c0.16,0.46,0.32,0.91,0.49,1.37c0.18,0.47,0.33,1,0.66,1.4c0.71,0.87,1.95,0.44,2.88,0.28c0.92-0.16,2.25-0.14,2.82-0.99
				C143.68,182.18,143.16,180.85,142.99,179.96z"/>
			<path class="st10" d="M149.87,177.68c0.19-0.2,0.39-0.4,0.57-0.6c0.47-0.53,0.79-1.22,0.47-1.92c-0.34-0.75-1.15-1.04-2.02-1.13
				c0.53-1.06,0.69-2.23-0.12-3.31c-0.67-0.89-1.54-1.05-2.4-0.82c0.15-0.8,0.24-2.49,0.1-3.3c-0.23-1.32-1.22-2.8-2.75-2.56
				c-1.45,0.22-2.04,1.95-2.4,3.16c-0.32,1.11-0.52,3.4-1.52,4.14c-1.03,0.77,0.15,2.38,1.19,1.61c1.66-1.24,1.78-4.08,2.46-5.87
				c0.06-0.17,0.35-1.04,0.57-1.08c0.26-0.04,0.45,0.82,0.47,0.95c0.23,1.29-0.28,3.53-0.71,4.73c-0.38,1.07,0.9,1.89,1.69,1.04
				c0.35-0.38,1.53-1.51,1.82-0.52c0.24,0.83-0.62,1.67-1.1,2.22c-0.58,0.67,0.05,1.7,0.88,1.62c0.41-0.04,0.82-0.06,1.23-0.03
				c0.05,0,0.15,0.03,0.25,0.05c-0.21,0.23-0.42,0.51-0.53,0.63c-0.35,0.36-0.7,0.72-1.05,1.09c-0.44,0.46-0.19,1.31,0.37,1.54
				c0.36,0.15,1,0.33,1.49,0.3c-0.21,0.1-0.42,0.18-0.63,0.26c-1.48,0.58-3.01,0.94-4.59,1.1c-1.28,0.13-1.07,2.12,0.21,1.99
				c1.3-0.13,2.58-0.39,3.82-0.77c1.02-0.32,2.23-0.66,3.02-1.42c0.7-0.67,0.9-1.72,0.23-2.49
				C150.64,177.98,150.26,177.79,149.87,177.68z"/>
		</g>
	</g>
	<g>
		<g>
			<path class="st6" d="M108.41,209.32c0.09-0.33,0.16-0.66,0.16-1c0.02-1.98-1.88-3.74-3.86-2.78c-0.76,0.37-1.21,1.07-1.62,1.77
				c-0.41,0.71-0.8,1.44-1.12,2.19c-0.09,0.22-0.18,0.46-0.26,0.68c-0.09,0.13-0.17,0.27-0.22,0.43c-0.86,2.57-1.43,5.25-1.64,7.96
				c-0.13,1.7,1.87,2.85,3.24,1.77c0.27-0.21,0.51-0.45,0.74-0.7c0.69-0.14,1.29-0.57,1.73-1.15c0.99-1.33,1.73-2.96,2.37-4.49
				C108.58,212.46,108.94,210.94,108.41,209.32z"/>
			<path class="st44" d="M100.65,211.17c0.3-0.96,0-1.96-0.91-2.46c-0.71-0.39-1.62-0.31-2.24,0.2c-0.63,0.13-1.17,0.56-1.44,1.21
				c-0.89,2.17-1.51,4.47-1.85,6.79c-0.15,0.98,0.61,1.91,1.53,2.13c1,0.24,1.9-0.29,2.33-1.2
				C99.06,215.67,99.93,213.45,100.65,211.17z"/>
		</g>
		<g>
			<path class="st10" d="M100.07,217.53c0.66-2.01,1.28-4.04,1.85-6.09c0.3-1.09,0.94-2.51-0.39-3.17c-1.04-0.51-2.21-0.85-3.3-1.26
				c-1.2-0.46-1.99,1.38-0.79,1.84c0.56,0.21,1.12,0.42,1.68,0.64c0.26,0.1,0.53,0.2,0.79,0.3c0.13,0.05,0.26,0.1,0.39,0.15
				c-0.13,0.59-0.36,1.19-0.52,1.75c-0.23,0.79-0.46,1.59-0.71,2.38c-0.24,0.79-0.49,1.58-0.75,2.36c-0.13,0.41-0.27,0.82-0.41,1.23
				c-0.06,0.17-0.12,0.34-0.17,0.51c-0.02,0.06-0.04,0.11-0.06,0.17c-0.36-0.11-0.74-0.29-1.06-0.4c-0.35-0.12-0.88-0.22-1.27-0.41
				c0.02-0.17,0.05-0.33,0.07-0.5c0.05-0.34,0.1-0.68,0.16-1.02c0.12-0.72,0.26-1.43,0.42-2.14c0.31-1.36,0.69-2.71,1.14-4.03
				c0.17-0.51,0-1.09-0.53-1.31c-0.47-0.2-1.14,0.01-1.31,0.53c-0.67,1.98-1.21,4.01-1.6,6.07c-0.09,0.48-0.17,0.95-0.24,1.43
				c-0.07,0.5-0.2,1.04-0.11,1.54c0.2,1.11,1.48,1.33,2.38,1.65c0.88,0.31,2.03,0.98,2.95,0.51
				C99.59,219.81,99.78,218.4,100.07,217.53z"/>
			<path class="st10" d="M107.18,218.9c0.27-0.08,0.53-0.16,0.79-0.25c0.67-0.23,1.29-0.68,1.35-1.45c0.07-0.82-0.5-1.47-1.21-1.97
				c0.98-0.67,1.69-1.61,1.51-2.95c-0.15-1.11-0.84-1.67-1.69-1.89c0.52-0.63,1.43-2.05,1.7-2.83c0.44-1.27,0.3-3.04-1.14-3.58
				c-1.38-0.51-2.73,0.7-3.64,1.59c-0.83,0.81-2.12,2.71-3.35,2.87c-1.28,0.17-1.03,2.15,0.25,1.98c2.05-0.27,3.54-2.7,5.01-3.92
				c0.14-0.11,0.81-0.74,1.03-0.66c0.24,0.09,0,0.93-0.05,1.06c-0.43,1.24-1.97,2.95-2.93,3.79c-0.86,0.75-0.14,2.09,0.97,1.73
				c0.49-0.16,2.07-0.57,1.84,0.44c-0.19,0.84-1.36,1.15-2.05,1.4c-0.84,0.3-0.78,1.5-0.02,1.85c0.38,0.17,0.74,0.35,1.09,0.58
				c0.05,0.03,0.12,0.1,0.2,0.16c-0.29,0.1-0.61,0.24-0.78,0.29c-0.48,0.14-0.97,0.29-1.45,0.43c-0.61,0.18-0.8,1.05-0.43,1.52
				c0.24,0.3,0.71,0.77,1.15,0.99c-0.23-0.02-0.46-0.05-0.68-0.08c-1.58-0.21-3.08-0.65-4.54-1.28c-1.18-0.51-1.97,1.33-0.79,1.84
				c1.2,0.52,2.44,0.92,3.72,1.19c1.04,0.22,2.27,0.51,3.32,0.24c0.93-0.24,1.63-1.06,1.42-2.06
				C107.71,219.54,107.48,219.19,107.18,218.9z"/>
		</g>
	</g>
	<g>
		<path class="st30" d="M136.46,37.34c-1.89-1.62-4.35-0.66-5.96,0.81c-0.68,0.62-1.27,1.35-1.76,2.14
			c-0.31-0.68-0.66-1.34-1.09-1.95c-1.23-1.76-3.73-3.68-5.69-1.68c-1.57,1.6-0.96,4.25,0.04,5.96c1.1,1.87,2.95,3.02,4.32,4.64
			c0.22,0.26,0.5,0.46,0.81,0.57c0.29,0.31,0.71,0.52,1.17,0.52c3.62,0.05,7.22-2.24,8.69-5.55
			C137.76,41.07,138.07,38.72,136.46,37.34z"/>
		<path class="st10" d="M138.99,36.81c-1.25-1.84-4.34-1.43-6.14-0.79c-1.42,0.51-2.71,1.36-3.71,2.48
			c-0.39-1.36-1.06-2.6-2.29-3.39c-1.72-1.1-4.19-1-5.37,0.82c-1.24,1.91-0.64,4.75,0.08,6.75c0.79,2.19,2.15,4.15,3.92,5.66
			c0.98,0.84,2.32-0.65,1.34-1.49c-2.4-2.05-4.45-5.61-3.98-8.88c0.22-1.57,1.66-1.99,2.93-1.19c1.42,0.89,1.69,2.88,1.83,4.4
			c0.09,0.94,1.46,1.32,1.89,0.39c0.89-1.93,2.6-3.33,4.66-3.86c0.74-0.19,2.61-0.53,3.17,0.17c0.48,0.59-0.05,1.73-0.33,2.28
			c-2,4-5.71,6.97-9.98,8.22c-1.24,0.36-0.6,2.26,0.64,1.9c4.27-1.24,7.98-4.07,10.35-7.84C138.96,40.9,140.18,38.57,138.99,36.81z"
			/>
	</g>
	<g>
		<path class="st30" d="M109.05,49.24c-1.45-0.85-2.97,0.09-3.86,1.25c-0.38,0.49-0.68,1.05-0.91,1.63
			c-0.29-0.41-0.6-0.81-0.96-1.16c-1.03-1.02-2.92-2-3.98-0.43c-0.85,1.25-0.13,2.94,0.74,3.95c0.95,1.11,2.32,1.65,3.43,2.56
			c0.18,0.15,0.39,0.25,0.6,0.29c0.23,0.17,0.53,0.26,0.84,0.21c2.41-0.4,4.53-2.35,5.1-4.73
			C110.36,51.57,110.28,49.97,109.05,49.24z"/>
		<path class="st54" d="M110.67,48.59c-1.05-1.07-3.06-0.43-4.17,0.21c-0.89,0.51-1.64,1.23-2.17,2.09
			c-0.42-0.85-1.02-1.6-1.93-1.98c-1.27-0.53-2.9-0.16-3.47,1.19c-0.59,1.42,0.15,3.23,0.86,4.47c0.79,1.36,1.92,2.5,3.28,3.29
			c0.75,0.44,1.46-0.71,0.71-1.15c-1.84-1.07-3.63-3.19-3.71-5.42c-0.04-1.07,0.86-1.52,1.8-1.14c1.05,0.42,1.47,1.71,1.75,2.71
			c0.17,0.61,1.13,0.7,1.3,0.03c0.36-1.39,1.33-2.52,2.63-3.12c0.47-0.22,1.67-0.67,2.13-0.27c0.39,0.34,0.17,1.15,0.06,1.56
			c-0.85,2.9-2.95,5.32-5.64,6.66c-0.78,0.39-0.13,1.57,0.65,1.18c2.69-1.34,4.81-3.67,5.93-6.45
			C111.14,51.31,111.67,49.61,110.67,48.59z"/>
	</g>
	<g>
		<path class="st30" d="M152.99,58.93c-1.03-1.33-2.79-1.02-4.05-0.27c-0.54,0.32-1.02,0.72-1.45,1.18
			c-0.12-0.49-0.25-0.97-0.45-1.44c-0.58-1.33-1.97-2.94-3.53-1.88c-1.26,0.85-1.21,2.68-0.78,3.95c0.47,1.38,1.54,2.4,2.23,3.65
			c0.11,0.21,0.27,0.38,0.45,0.49c0.15,0.24,0.4,0.44,0.71,0.51c2.38,0.52,5.08-0.5,6.5-2.49
			C153.35,61.57,153.87,60.06,152.99,58.93z"/>
		<path class="st54" d="M154.74,58.92c-0.58-1.38-2.68-1.53-3.95-1.36c-1.01,0.14-1.98,0.53-2.79,1.13
			c-0.07-0.95-0.35-1.87-1.06-2.55c-0.99-0.96-2.63-1.23-3.66-0.19c-1.08,1.1-1.07,3.05-0.86,4.47c0.23,1.56,0.86,3.03,1.83,4.27
			c0.54,0.69,1.62-0.12,1.09-0.8c-1.31-1.68-2.18-4.31-1.43-6.41c0.36-1.01,1.36-1.09,2.1-0.39c0.82,0.78,0.73,2.14,0.62,3.16
			c-0.07,0.63,0.79,1.07,1.2,0.52c0.85-1.16,2.17-1.85,3.6-1.92c0.51-0.03,1.8,0,2.07,0.54c0.23,0.46-0.27,1.13-0.53,1.47
			c-1.86,2.37-4.72,3.84-7.71,4.08c-0.87,0.07-0.7,1.41,0.16,1.34c3-0.24,5.83-1.61,7.91-3.78
			C154.17,61.62,155.29,60.24,154.74,58.92z"/>
	</g>
	<g>
		<path class="st30" d="M68.05,30.11c-1.65-0.33-2.78,1.04-3.25,2.44c-0.2,0.59-0.31,1.21-0.33,1.84c-0.41-0.3-0.83-0.57-1.28-0.79
			c-1.3-0.63-3.41-0.94-3.91,0.88c-0.4,1.46,0.83,2.82,1.98,3.5c1.26,0.74,2.73,0.81,4.07,1.32c0.22,0.08,0.45,0.11,0.66,0.07
			c0.28,0.09,0.59,0.07,0.86-0.08c2.15-1.16,3.52-3.69,3.3-6.13C70.04,31.88,69.45,30.39,68.05,30.11z"/>
		<path class="st54" d="M69.37,28.97c-1.34-0.67-3.03,0.58-3.88,1.55c-0.67,0.77-1.15,1.69-1.38,2.68
			c-0.67-0.67-1.48-1.18-2.47-1.25c-1.38-0.09-2.8,0.78-2.9,2.25c-0.1,1.53,1.18,3.01,2.27,3.95c1.19,1.03,2.63,1.74,4.17,2.05
			c0.85,0.17,1.15-1.15,0.3-1.32c-2.09-0.42-4.47-1.84-5.27-3.93c-0.38-1,0.32-1.72,1.34-1.66c1.13,0.06,1.94,1.15,2.53,1.99
			c0.36,0.52,1.3,0.3,1.24-0.39c-0.11-1.43,0.44-2.82,1.48-3.8c0.37-0.36,1.36-1.17,1.92-0.94c0.48,0.19,0.54,1.03,0.56,1.45
			c0.14,3.01-1.07,5.99-3.18,8.12c-0.61,0.62,0.39,1.53,1,0.91c2.11-2.14,3.37-5.03,3.53-8.02C70.69,31.38,70.65,29.61,69.37,28.97z
			"/>
	</g>
	<g>
		<path class="st30" d="M136.48,187.4c-1.88-1.63-4.35-0.68-5.97,0.78c-0.69,0.62-1.28,1.34-1.77,2.13
			c-0.31-0.68-0.65-1.34-1.08-1.96c-1.22-1.76-3.71-3.7-5.68-1.71c-1.58,1.59-0.99,4.24,0.01,5.96c1.09,1.87,2.93,3.03,4.3,4.67
			c0.22,0.27,0.5,0.47,0.8,0.58c0.29,0.31,0.71,0.52,1.17,0.53c3.62,0.07,7.23-2.2,8.72-5.5
			C137.76,191.14,138.08,188.79,136.48,187.4z"/>
		<path class="st10" d="M139.02,186.88c-1.24-1.84-4.33-1.45-6.14-0.83c-1.43,0.5-2.72,1.35-3.73,2.46
			c-0.38-1.36-1.05-2.61-2.28-3.41c-1.71-1.11-4.18-1.03-5.37,0.79c-1.25,1.9-0.67,4.75,0.04,6.75c0.78,2.2,2.12,4.16,3.89,5.68
			c0.98,0.84,2.32-0.64,1.35-1.48c-2.39-2.06-4.42-5.63-3.93-8.9c0.23-1.57,1.67-1.98,2.93-1.17c1.42,0.9,1.67,2.89,1.81,4.41
			c0.08,0.94,1.45,1.33,1.89,0.4c0.9-1.92,2.62-3.31,4.68-3.83c0.74-0.19,2.61-0.52,3.17,0.19c0.47,0.6-0.06,1.73-0.34,2.28
			c-2.02,3.99-5.74,6.94-10.02,8.16c-1.24,0.35-0.61,2.25,0.63,1.9c4.28-1.22,8.01-4.03,10.39-7.78
			C138.96,190.97,140.2,188.65,139.02,186.88z"/>
	</g>
	<g>
		<path class="st30" d="M139.28,158.26c-1.91-1.59-4.36-0.59-5.95,0.9c-0.67,0.63-1.25,1.37-1.72,2.16
			c-0.32-0.67-0.68-1.33-1.12-1.93c-1.26-1.74-3.78-3.62-5.71-1.59c-1.55,1.62-0.9,4.26,0.13,5.96c1.13,1.85,3,2.97,4.39,4.57
			c0.23,0.26,0.51,0.46,0.81,0.56c0.3,0.3,0.72,0.51,1.18,0.51c3.62,0,7.18-2.35,8.6-5.68
			C140.64,161.97,140.91,159.61,139.28,158.26z"/>
		<path class="st10" d="M141.8,157.69c-1.27-1.82-4.36-1.36-6.15-0.7c-1.42,0.53-2.69,1.41-3.68,2.53c-0.41-1.35-1.1-2.59-2.35-3.36
			c-1.73-1.08-4.2-0.94-5.36,0.9c-1.21,1.93-0.57,4.76,0.19,6.75c0.82,2.18,2.21,4.12,4.01,5.6c0.99,0.82,2.31-0.68,1.32-1.51
			c-2.43-2.01-4.53-5.54-4.12-8.82c0.2-1.57,1.62-2.01,2.91-1.23c1.43,0.87,1.73,2.86,1.9,4.38c0.1,0.94,1.48,1.3,1.89,0.36
			c0.86-1.94,2.55-3.37,4.6-3.93c0.74-0.2,2.6-0.57,3.17,0.12c0.48,0.58-0.02,1.73-0.29,2.29c-1.93,4.03-5.6,7.06-9.85,8.37
			c-1.23,0.38-0.56,2.26,0.67,1.89c4.26-1.31,7.92-4.2,10.23-8C141.84,161.78,143.02,159.43,141.8,157.69z"/>
	</g>
	<g>
		<path class="st6" d="M85.59,53.32c-0.46,0.19-0.92,0.38-1.37,0.57c-0.11-0.09-0.23-0.16-0.36-0.21c0.1-0.15,0.19-0.3,0.29-0.45
			c0.77-1.12-0.74-2.34-1.76-1.71c-0.1-0.24-0.27-0.45-0.51-0.59c-0.52-0.31-1.08-0.16-1.53,0.19c-1.34,1.02-2.14,2.53-2.74,4.07
			c-0.08-0.38-0.5-0.79-0.88-0.85c-1.78-0.26-2.21,1.41-2.47,2.81c-0.28,1.48-0.39,2.98-0.3,4.48c0.07,1.13,1.33,1.47,2.05,1.01
			c0.23,0.41,0.68,0.66,1.12,0.69c0.01,0.49,0.3,0.95,0.77,1.14c0.25,0.1,0.54,0.12,0.82,0.05c0.09,0.4,0.39,0.76,0.76,0.9
			c0.6,0.24,1.22,0.03,1.58-0.51c1.09-1.67,2.18-3.34,3.27-5.01c1.04-1.6,2.29-3.18,2.83-5.04C87.39,54.04,86.5,52.95,85.59,53.32z"
			/>
		<path class="st6" d="M80.64,47.95c-0.5,0.15-1,0.31-1.5,0.46c0.45-0.42,0.46-1.18,0.09-1.64c-0.41-0.52-1.05-0.62-1.63-0.34
			c-0.23,0.11-0.46,0.22-0.69,0.33c0.12-0.17,0.24-0.33,0.37-0.5c0.88-1.13-1.01-2.58-1.98-1.54c-0.56,0.6-1.12,1.21-1.68,1.81
			c-0.32,0.35-0.39,0.74-0.32,1.1c-0.13,0.23-0.24,0.47-0.33,0.73c0.2-1.22-1.18-1.9-2.12-1.14c-1.7,1.39-2.77,3.33-3.77,5.24
			c-0.61,1.16,0.7,2.23,1.62,1.83c-0.05,0.16-0.1,0.32-0.16,0.48c-0.2,0.59,0.19,1.27,0.74,1.48c0.25,0.1,0.5,0.12,0.73,0.07
			c-0.16,0.9-0.01,1.76,0.91,2.43c0.37,0.27,0.9,0.2,1.27,0.01c1.42-0.74,1.96-2.52,2.64-3.86c0.04-0.08,0.08-0.15,0.12-0.23
			c0.41,0.37,1.05,0.53,1.53,0.22c2.16-1.37,4-3.08,5.57-5.09C82.76,48.92,81.62,47.65,80.64,47.95z"/>
		<path class="st50" d="M70.48,58.2c-0.17-0.67-0.54-1.29-0.94-1.85c-0.41-0.57-0.85-1.16-1.38-1.63c-0.39-0.35-0.86-0.62-1.4-0.61
			c-0.34,0.01-0.66,0.13-0.92,0.34c-0.57,0.13-1.02,0.61-1.02,1.24c0.02,1.3,0.37,2.59,1.02,3.71c0.37,0.64,0.83,1.25,1.44,1.68
			c0.82,0.58,2.03,0.45,2.68-0.33C70.56,60.02,70.72,59.11,70.48,58.2z"/>
		<path class="st50" d="M79.85,67.77c0.15-0.96-0.26-1.71-0.85-2.44c-0.5-0.61-1.07-1.22-1.79-1.57c-0.4-0.19-0.8-0.31-1.21-0.34
			c-0.82-0.62-1.79-0.94-2.79-0.36c-0.83,0.48-1.26,1.47-0.92,2.39c0.28,0.76,0.9,1.31,1.5,1.81c0.58,0.48,1.18,0.92,1.83,1.28
			c0.68,0.38,1.43,0.8,2.22,0.86C78.81,69.48,79.7,68.72,79.85,67.77z"/>
		<path class="st55" d="M73.89,58.05c0.01-0.47,0.06-0.95,0.15-1.41c-0.72,0.6-1.38,1.29-2.12,1.87c0,0,0,0-0.01-0.01
			c-0.1-0.12-0.19-0.24-0.29-0.35c-0.19-0.24-0.38-0.47-0.57-0.71c-0.32-0.39-0.64-0.79-0.96-1.18c-0.77-0.95-1.53-1.89-2.3-2.84
			c-0.51-0.63-1.41,0.26-0.9,0.89c1.02,1.26,2.04,2.52,3.06,3.78c0.55,0.68,1.37,2.32,2.47,1.63c0.55-0.35,1.02-0.92,1.51-1.36
			C73.91,58.26,73.89,58.16,73.89,58.05z"/>
		<path class="st55" d="M67.4,52.73c1.19-1.94,2.42-3.86,3.67-5.76c0.28,0.61,0.41,1.27,0.38,1.98c-0.03,0.65,0.86,0.82,1.18,0.32
			c0.88-1.39,1.95-2.62,3.23-3.66c0.05-0.04,0.66-0.49,0.75-0.69c-0.03,0.25-0.25,1-0.28,1.09c-0.27,0.88-0.72,1.69-1.29,2.41
			c-0.5,0.63,0.37,1.53,0.89,0.9c0.84-1.01,1.84-1.84,3.02-2.41c0.08-0.04,0.16-0.07,0.24-0.11c0,0,0,0,0,0.01
			c-0.17,0.25-0.26,0.61-0.39,0.88c-0.34,0.68-0.73,1.32-1.17,1.93c-0.45,0.63,0.47,1.19,0.99,0.77c0.77-0.62,1.68-1.06,2.65-1.24
			c0.72-0.14,0.63,0.21,0.37,0.71c-0.21,0.4-0.47,0.78-0.74,1.14c0.03,0.02,0.07,0.03,0.1,0.06c0.1,0.07,0.18,0.16,0.24,0.26
			c0.21-0.05,0.43-0.02,0.65,0.11c0.06,0.04,0.12,0.08,0.17,0.14c0.57-0.74,1.15-1.63,1.08-2.53c-0.11-1.6-1.69-1.39-3.15-0.8
			c0.63-1.22,1.02-2.55-0.11-2.83c-0.7-0.18-1.61,0.36-2.26,0.78c0.44-1.25,0.49-2.41-0.72-2.52c-0.53-0.05-0.99,0.33-1.39,0.63
			c-0.54,0.41-1.06,0.84-1.54,1.31c-0.52,0.51-1,1.06-1.45,1.63c-0.18-0.64-0.47-1.24-0.87-1.78c-0.29-0.38-0.81-0.43-1.09-0.01
			c-1.46,2.19-2.87,4.4-4.25,6.64C65.88,52.78,66.97,53.42,67.4,52.73z"/>
		<path class="st55" d="M71.13,58.78c-0.49,0.48-0.97,0.96-1.46,1.44c-0.22,0.22-0.45,0.44-0.67,0.66
			c-0.11,0.11-0.22,0.22-0.34,0.33c-0.03,0.03-0.06,0.06-0.1,0.1c-0.74-0.76-1.4-1.64-2.04-2.48c-0.36-0.48-0.71-0.97-1.06-1.46
			c-0.27-0.39-0.59-0.8-0.83-1.23c0.04-0.05,0.09-0.09,0.13-0.14c0.11-0.11,0.21-0.22,0.32-0.32c0.2-0.19,0.4-0.39,0.61-0.57
			c0.43-0.39,0.87-0.77,1.33-1.14c0.27-0.22,0.23-0.67,0.01-0.89c-0.26-0.27-0.63-0.22-0.89-0.01c-0.59,0.48-1.16,0.98-1.71,1.5
			c-0.44,0.42-1.18,0.94-1.11,1.61c0.04,0.38,0.3,0.7,0.51,1.01c0.19,0.29,0.39,0.59,0.59,0.88c0.42,0.6,0.85,1.19,1.3,1.77
			c0.44,0.58,0.9,1.14,1.38,1.7c0.4,0.46,0.94,1.37,1.66,1.19c0.34-0.08,0.57-0.38,0.8-0.61c0.26-0.26,0.52-0.52,0.79-0.77
			c0.56-0.55,1.12-1.1,1.69-1.66C72.6,59.11,71.71,58.21,71.13,58.78z"/>
		<path class="st55" d="M87.93,52.68c-0.61-1.49-2.04-0.8-3.24,0.22c0.22-1.35,0.18-2.74-0.99-2.65c-0.72,0.05-1.42,0.85-1.91,1.45
			c0.03-1.33-0.28-2.44-1.47-2.17c-0.52,0.12-0.84,0.62-1.12,1.03c-0.39,0.55-0.74,1.13-1.06,1.73c-0.34,0.65-0.62,1.32-0.87,2
			c-0.36-0.55-0.83-1.03-1.38-1.42c-0.39-0.27-0.9-0.16-1.04,0.34c-0.7,2.53-1.36,5.08-1.97,7.63c-0.19,0.79,1.05,1.06,1.24,0.27
			c0.53-2.21,1.1-4.42,1.69-6.61c0.45,0.5,0.79,1.07,0.98,1.77c0.17,0.63,1.07,0.51,1.22-0.07c0.4-1.59,1.04-3.1,1.93-4.48
			c0.04-0.06,0.47-0.67,0.5-0.89c0.05,0.25,0.08,1.02,0.08,1.12c0.01,0.92-0.16,1.83-0.48,2.69c-0.28,0.75,0.83,1.34,1.12,0.58
			c0.48-1.22,1.17-2.32,2.12-3.24c0.06-0.06,0.13-0.12,0.2-0.18c0,0,0,0,0,0.01c-0.08,0.29-0.06,0.66-0.1,0.96
			c-0.11,0.75-0.29,1.48-0.51,2.2c-0.23,0.73,0.82,0.98,1.18,0.42c0.54-0.83,1.26-1.53,2.13-2.01c0.64-0.35,0.66,0,0.57,0.56
			c-0.08,0.47-0.21,0.93-0.37,1.37c-0.67,1.84-1.88,3.44-3.03,5c-0.56,0.76-1.11,1.53-1.63,2.32c-0.54,0.82-0.96,1.75-1.51,2.56
			c0,0,0,0-0.01,0c-0.13-0.08-0.26-0.17-0.38-0.25c-0.26-0.17-0.51-0.33-0.77-0.49c-0.43-0.27-0.85-0.55-1.28-0.82
			c-1.02-0.66-2.04-1.32-3.07-1.98c-0.68-0.44-1.26,0.69-0.58,1.12c1.36,0.88,2.72,1.76,4.09,2.64c0.73,0.47,2.03,1.78,2.85,0.78
			c0.42-0.51,0.68-1.2,1.02-1.77c0.41-0.69,0.84-1.36,1.3-2.01c0.72-1.03,1.49-2.02,2.2-3.05c0.72-1.04,1.39-2.12,1.85-3.31
			C87.84,55.07,88.35,53.71,87.93,52.68z"/>
		<path class="st55" d="M79.55,65.69c-0.31,0.61-0.63,1.21-0.94,1.82c-0.14,0.28-0.29,0.56-0.43,0.84
			c-0.07,0.14-0.14,0.28-0.22,0.42c-0.02,0.04-0.04,0.08-0.06,0.12c-0.94-0.5-1.84-1.12-2.71-1.72c-0.49-0.34-0.98-0.7-1.46-1.06
			c-0.38-0.29-0.81-0.58-1.17-0.91c0.03-0.06,0.06-0.11,0.08-0.17c0.07-0.14,0.14-0.27,0.21-0.41c0.13-0.25,0.26-0.49,0.4-0.73
			c0.29-0.51,0.59-1,0.91-1.49c0.19-0.29,0.01-0.7-0.27-0.85c-0.33-0.17-0.67-0.01-0.85,0.27c-0.41,0.64-0.8,1.29-1.16,1.96
			c-0.28,0.53-0.83,1.26-0.55,1.88c0.15,0.35,0.51,0.57,0.79,0.8c0.27,0.22,0.55,0.44,0.83,0.65c0.58,0.44,1.18,0.87,1.78,1.28
			c0.6,0.41,1.21,0.8,1.84,1.18c0.52,0.32,1.32,1.01,1.94,0.62c0.29-0.19,0.42-0.53,0.57-0.83c0.17-0.33,0.34-0.65,0.51-0.98
			c0.36-0.7,0.72-1.4,1.09-2.1C81.05,65.54,79.93,64.96,79.55,65.69z"/>
		<path class="st55" d="M82.63,43.16c0.44-1.22,0.88-2.43,1.32-3.65c0.11-0.31-0.16-0.7-0.47-0.76c-0.37-0.07-0.64,0.13-0.76,0.47
			c-0.44,1.22-0.88,2.43-1.32,3.65c-0.11,0.31,0.16,0.7,0.47,0.76C82.24,43.7,82.51,43.49,82.63,43.16z"/>
		<path class="st55" d="M87.55,39.65c-0.33-0.18-0.66-0.03-0.86,0.25l-2.7,3.8c-0.2,0.28-0.03,0.71,0.25,0.86
			c0.33,0.18,0.66,0.03,0.86-0.25l2.7-3.8C88,40.23,87.82,39.8,87.55,39.65z"/>
		<path class="st55" d="M90.07,43.47c-0.21-0.31-0.54-0.36-0.87-0.22c-1.07,0.48-2.08,1.08-3.02,1.79c-0.26,0.2-0.42,0.56-0.22,0.87
			c0.17,0.26,0.59,0.43,0.87,0.22c0.94-0.71,1.95-1.31,3.02-1.79C90.15,44.2,90.24,43.73,90.07,43.47z"/>
	</g>
	<g>
		<path class="st6" d="M134.37,215.92c0.48,0.12,0.96,0.25,1.44,0.37c0.1-0.1,0.21-0.19,0.33-0.26c-0.12-0.13-0.23-0.27-0.35-0.4
			c-0.92-1,0.4-2.42,1.5-1.94c0.07-0.25,0.21-0.49,0.42-0.66c0.47-0.38,1.04-0.31,1.54-0.03c1.47,0.82,2.48,2.2,3.29,3.64
			c0.03-0.39,0.38-0.86,0.75-0.97c1.73-0.52,2.38,1.07,2.85,2.42c0.49,1.42,0.81,2.89,0.94,4.39c0.1,1.13-1.1,1.64-1.88,1.29
			c-0.17,0.44-0.58,0.75-1.01,0.85c0.06,0.49-0.16,0.98-0.6,1.24c-0.23,0.13-0.52,0.19-0.8,0.17c-0.04,0.41-0.28,0.81-0.62,1
			c-0.56,0.32-1.21,0.2-1.63-0.28c-1.32-1.5-2.64-3-3.95-4.49c-1.26-1.43-2.72-2.82-3.52-4.58
			C132.69,216.88,133.42,215.68,134.37,215.92z"/>
		<path class="st6" d="M138.5,209.89c0.52,0.08,1.04,0.16,1.56,0.24c-0.5-0.35-0.62-1.1-0.33-1.61c0.33-0.57,0.95-0.76,1.56-0.57
			c0.24,0.08,0.48,0.15,0.73,0.23c-0.15-0.15-0.29-0.29-0.44-0.44c-1.03-0.99,0.63-2.7,1.74-1.81c0.64,0.52,1.28,1.04,1.92,1.55
			c0.37,0.3,0.5,0.68,0.47,1.05c0.16,0.21,0.31,0.44,0.43,0.67c-0.37-1.18,0.9-2.05,1.93-1.43c1.88,1.13,3.22,2.9,4.48,4.65
			c0.77,1.06-0.37,2.3-1.34,2.04c0.08,0.15,0.15,0.3,0.23,0.45c0.28,0.55-0.01,1.28-0.52,1.57c-0.24,0.14-0.48,0.19-0.71,0.17
			c0.28,0.86,0.26,1.74-0.56,2.53c-0.32,0.32-0.86,0.33-1.26,0.19c-1.51-0.52-2.3-2.22-3.16-3.45c-0.05-0.07-0.1-0.14-0.15-0.21
			c-0.35,0.43-0.96,0.68-1.48,0.44c-2.33-1.04-4.4-2.47-6.24-4.24C136.55,211.16,137.49,209.74,138.5,209.89z"/>
		<path class="st50" d="M150.02,218.58c0.07-0.69,0.35-1.35,0.66-1.97c0.32-0.62,0.68-1.27,1.13-1.81c0.34-0.4,0.76-0.73,1.3-0.8
			c0.34-0.04,0.67,0.04,0.96,0.2c0.59,0.05,1.1,0.46,1.18,1.08c0.17,1.28,0.01,2.62-0.48,3.82c-0.28,0.68-0.64,1.36-1.18,1.87
			c-0.73,0.69-1.94,0.73-2.7,0.05C150.2,220.39,149.92,219.52,150.02,218.58z"/>
		<path class="st50" d="M142.12,229.4c-0.29-0.93,0.01-1.73,0.49-2.53c0.41-0.67,0.88-1.36,1.54-1.81c0.36-0.25,0.75-0.42,1.15-0.51
			c0.72-0.73,1.63-1.18,2.71-0.76c0.89,0.35,1.46,1.28,1.26,2.23c-0.17,0.79-0.7,1.43-1.23,2.01c-0.5,0.55-1.04,1.08-1.63,1.53
			c-0.62,0.48-1.3,1-2.07,1.17C143.39,230.94,142.41,230.31,142.12,229.4z"/>
		<path class="st55" d="M146.63,218.93c-0.08-0.46-0.2-0.93-0.35-1.38c0.8,0.49,1.56,1.08,2.37,1.54c0,0,0,0,0.01-0.01
			c0.08-0.13,0.16-0.26,0.23-0.39c0.16-0.26,0.31-0.52,0.47-0.78c0.26-0.44,0.52-0.87,0.78-1.31c0.62-1.05,1.24-2.09,1.87-3.14
			c0.42-0.7,1.43,0.06,1.02,0.75c-0.83,1.39-1.66,2.79-2.49,4.18c-0.45,0.75-1.02,2.49-2.21,1.97c-0.6-0.27-1.14-0.77-1.69-1.12
			C146.64,219.14,146.64,219.03,146.63,218.93z"/>
		<path class="st55" d="M152.29,212.72c-1.46-1.75-2.95-3.47-4.46-5.17c-0.19,0.65-0.23,1.31-0.09,2.02
			c0.13,0.64-0.73,0.93-1.12,0.48c-1.07-1.25-2.31-2.32-3.72-3.16c-0.06-0.03-0.72-0.39-0.84-0.57c0.06,0.24,0.39,0.95,0.43,1.04
			c0.4,0.83,0.95,1.57,1.62,2.2c0.58,0.55-0.14,1.57-0.75,1.02c-0.97-0.88-2.08-1.56-3.34-1.96c-0.08-0.03-0.17-0.05-0.26-0.07
			c0,0,0,0,0,0.01c0.2,0.22,0.34,0.57,0.51,0.81c0.43,0.62,0.91,1.2,1.44,1.75c0.53,0.55-0.3,1.24-0.87,0.9
			c-0.85-0.5-1.81-0.81-2.8-0.85c-0.73-0.03-0.59,0.3-0.26,0.75c0.26,0.37,0.57,0.71,0.9,1.02c-0.03,0.02-0.07,0.04-0.1,0.07
			c-0.09,0.09-0.15,0.19-0.19,0.29c-0.21-0.01-0.43,0.04-0.63,0.2c-0.06,0.04-0.1,0.1-0.15,0.16c-0.67-0.65-1.37-1.45-1.44-2.35
			c-0.12-1.6,1.48-1.62,3-1.25c-0.8-1.11-1.37-2.37-0.3-2.82c0.67-0.27,1.65,0.13,2.35,0.45c-0.62-1.17-0.83-2.31,0.35-2.6
			c0.52-0.12,1.03,0.18,1.46,0.42c0.59,0.32,1.17,0.68,1.72,1.08c0.59,0.43,1.14,0.9,1.67,1.41c0.08-0.65,0.28-1.29,0.61-1.89
			c0.23-0.42,0.74-0.54,1.08-0.16c1.75,1.96,3.47,3.95,5.15,5.97C153.8,212.56,152.81,213.35,152.29,212.72z"/>
		<path class="st55" d="M149.46,219.25c0.55,0.4,1.1,0.81,1.65,1.21c0.25,0.19,0.51,0.37,0.76,0.56c0.13,0.09,0.25,0.19,0.38,0.28
			c0.04,0.03,0.07,0.05,0.11,0.08c0.62-0.86,1.15-1.82,1.66-2.74c0.29-0.53,0.57-1.06,0.84-1.6c0.21-0.43,0.47-0.88,0.64-1.34
			c-0.05-0.04-0.1-0.08-0.15-0.12c-0.12-0.09-0.24-0.18-0.37-0.27c-0.23-0.16-0.45-0.32-0.68-0.48c-0.48-0.33-0.97-0.64-1.48-0.94
			c-0.3-0.18-0.32-0.63-0.13-0.88c0.22-0.3,0.59-0.31,0.88-0.13c0.65,0.39,1.29,0.8,1.91,1.24c0.49,0.35,1.3,0.76,1.33,1.44
			c0.02,0.38-0.2,0.73-0.36,1.07c-0.15,0.32-0.3,0.64-0.46,0.95c-0.33,0.66-0.67,1.3-1.03,1.94c-0.36,0.64-0.73,1.26-1.12,1.88
			c-0.33,0.52-0.74,1.49-1.47,1.42c-0.35-0.04-0.61-0.29-0.88-0.49c-0.3-0.22-0.59-0.44-0.89-0.65c-0.64-0.47-1.27-0.93-1.91-1.4
			C148.05,219.78,148.8,218.77,149.46,219.25z"/>
		<path class="st55" d="M131.96,215.62c0.39-1.56,1.91-1.08,3.24-0.25c-0.41-1.31-0.57-2.68,0.6-2.77c0.72-0.05,1.52,0.63,2.09,1.16
			c-0.22-1.31-0.07-2.46,1.14-2.36c0.53,0.04,0.92,0.49,1.26,0.85c0.46,0.49,0.9,1.01,1.29,1.56c0.43,0.59,0.81,1.21,1.15,1.86
			c0.28-0.6,0.67-1.14,1.17-1.6c0.35-0.33,0.87-0.29,1.08,0.18c1.06,2.41,2.07,4.83,3.04,7.27c0.3,0.76-0.88,1.2-1.18,0.44
			c-0.84-2.12-1.72-4.22-2.62-6.3c-0.38,0.56-0.63,1.18-0.71,1.89c-0.08,0.65-0.99,0.66-1.21,0.11c-0.62-1.52-1.47-2.92-2.55-4.16
			c-0.04-0.05-0.56-0.6-0.62-0.81c-0.02,0.25,0.07,1.02,0.08,1.12c0.12,0.91,0.42,1.79,0.86,2.59c0.38,0.7-0.62,1.45-1.03,0.73
			c-0.65-1.14-1.49-2.13-2.56-2.9c-0.07-0.05-0.15-0.1-0.22-0.15c0,0,0,0,0,0.01c0.12,0.27,0.15,0.64,0.23,0.93
			c0.21,0.73,0.49,1.42,0.82,2.11c0.33,0.69-0.67,1.09-1.11,0.59c-0.65-0.74-1.47-1.33-2.4-1.68c-0.68-0.26-0.66,0.1-0.49,0.63
			c0.14,0.45,0.34,0.89,0.56,1.3c0.92,1.73,2.35,3.13,3.71,4.52c0.66,0.67,1.32,1.35,1.95,2.06c0.65,0.74,1.2,1.59,1.86,2.32
			c0,0,0,0,0.01-0.01c0.11-0.1,0.23-0.2,0.34-0.3c0.23-0.2,0.46-0.4,0.69-0.6c0.38-0.33,0.76-0.67,1.15-1
			c0.92-0.8,1.83-1.6,2.75-2.4c0.61-0.54,1.34,0.5,0.73,1.03c-1.22,1.07-2.44,2.13-3.67,3.2c-0.66,0.57-1.75,2.05-2.71,1.18
			c-0.49-0.44-0.85-1.09-1.26-1.6c-0.5-0.62-1.03-1.22-1.58-1.81c-0.86-0.91-1.76-1.78-2.61-2.7c-0.86-0.93-1.68-1.9-2.31-3.01
			C132.4,217.97,131.69,216.71,131.96,215.62z"/>
		<path class="st55" d="M142.12,227.29c0.4,0.56,0.79,1.11,1.19,1.67c0.18,0.26,0.37,0.51,0.55,0.77c0.09,0.13,0.18,0.26,0.28,0.38
			c0.03,0.04,0.05,0.07,0.08,0.11c0.86-0.63,1.66-1.37,2.44-2.09c0.44-0.41,0.87-0.83,1.29-1.26c0.33-0.34,0.72-0.69,1.03-1.07
			c-0.04-0.05-0.07-0.11-0.11-0.16c-0.09-0.12-0.17-0.25-0.26-0.37c-0.16-0.23-0.33-0.45-0.5-0.67c-0.36-0.46-0.73-0.91-1.11-1.35
			c-0.23-0.26-0.11-0.7,0.15-0.88c0.3-0.22,0.66-0.11,0.88,0.15c0.5,0.57,0.98,1.16,1.43,1.77c0.36,0.49,1,1.13,0.82,1.78
			c-0.1,0.37-0.42,0.64-0.67,0.9c-0.24,0.26-0.48,0.51-0.73,0.76c-0.51,0.52-1.04,1.03-1.58,1.52c-0.54,0.49-1.09,0.97-1.65,1.43
			c-0.47,0.39-1.16,1.19-1.84,0.89c-0.32-0.14-0.49-0.47-0.69-0.74c-0.21-0.3-0.43-0.6-0.64-0.9c-0.46-0.64-0.92-1.28-1.38-1.92
			C140.61,227.36,141.64,226.63,142.12,227.29z"/>
		<path class="st55" d="M135.84,205.44c-0.61-1.14-1.22-2.28-1.83-3.42c-0.16-0.29,0.06-0.72,0.35-0.82
			c0.35-0.12,0.65,0.04,0.82,0.35c0.61,1.14,1.22,2.28,1.83,3.42c0.16,0.29-0.06,0.72-0.35,0.82
			C136.31,205.92,136.01,205.75,135.84,205.44z"/>
		<path class="st55" d="M130.47,202.67c0.3-0.23,0.65-0.12,0.89,0.12l3.22,3.37c0.24,0.25,0.13,0.7-0.12,0.89
			c-0.3,0.23-0.65,0.12-0.89-0.12l-3.22-3.37C130.11,203.3,130.22,202.86,130.47,202.67z"/>
		<path class="st55" d="M128.53,206.81c0.16-0.34,0.49-0.44,0.83-0.34c1.13,0.32,2.22,0.77,3.24,1.34c0.29,0.16,0.5,0.49,0.34,0.83
			c-0.13,0.28-0.52,0.51-0.83,0.34c-1.03-0.57-2.12-1.01-3.24-1.34C128.55,207.55,128.39,207.1,128.53,206.81z"/>
	</g>
	<g>
		<path class="st4" d="M76.02,225.43c-0.17-0.17-0.46-0.3-0.71-0.29c-0.26,0.01-0.53,0.1-0.71,0.29c-0.05,0.07-0.1,0.13-0.16,0.2
			c-0.09,0.16-0.14,0.32-0.14,0.5c-0.07,0.69-0.14,1.38-0.21,2.06c-0.02,0.24,0.13,0.54,0.29,0.71c0.17,0.17,0.46,0.3,0.71,0.29
			c0.26-0.01,0.53-0.1,0.71-0.29c0.05-0.07,0.1-0.13,0.16-0.2c0.09-0.16,0.14-0.32,0.14-0.5c0.07-0.69,0.14-1.38,0.21-2.06
			C76.34,225.9,76.18,225.6,76.02,225.43z"/>
		<path class="st4" d="M73.76,229.07c-0.07-0.05-0.13-0.1-0.2-0.16c-0.16-0.09-0.32-0.14-0.5-0.14c-0.5,0.06-1,0.13-1.5,0.19
			c-0.14-0.01-0.27,0.02-0.39,0.09c-0.12,0.04-0.23,0.11-0.32,0.21c-0.17,0.17-0.3,0.46-0.29,0.71c0.01,0.26,0.1,0.53,0.29,0.71
			c0.07,0.05,0.13,0.1,0.2,0.16c0.16,0.09,0.32,0.14,0.5,0.14c0.5-0.06,1-0.13,1.5-0.19c0.14,0.01,0.27-0.02,0.39-0.09
			c0.12-0.04,0.23-0.11,0.32-0.21c0.17-0.17,0.3-0.46,0.29-0.71C74.04,229.52,73.96,229.25,73.76,229.07z"/>
		<path class="st4" d="M76.34,233.11c-0.11-0.26-0.17-0.52-0.22-0.8c-0.02-0.24-0.02-0.49,0.01-0.73c0.03-0.24-0.13-0.55-0.29-0.71
			c-0.17-0.17-0.46-0.3-0.71-0.29c-0.26,0.01-0.53,0.1-0.71,0.29c-0.05,0.07-0.1,0.13-0.16,0.2c-0.09,0.16-0.14,0.32-0.14,0.5
			c-0.04,0.35-0.02,0.7,0.02,1.05c0.05,0.35,0.12,0.69,0.26,1.01c0.03,0.13,0.09,0.24,0.18,0.34c0.07,0.11,0.16,0.19,0.28,0.26
			c0.21,0.13,0.53,0.18,0.77,0.1c0.24-0.08,0.48-0.23,0.6-0.46c0.03-0.08,0.07-0.16,0.1-0.24
			C76.39,233.47,76.39,233.29,76.34,233.11z"/>
		<path class="st4" d="M79.47,229.77c-0.08-0.24-0.23-0.48-0.46-0.6c-0.08-0.03-0.16-0.07-0.24-0.1c-0.15-0.04-0.3-0.04-0.46-0.01
			c-0.38,0.05-0.75,0.05-1.13,0.01c-0.14-0.01-0.27,0.02-0.39,0.09c-0.12,0.04-0.23,0.11-0.32,0.21c-0.1,0.09-0.17,0.2-0.21,0.32
			c-0.06,0.12-0.09,0.25-0.09,0.39c0.01,0.26,0.1,0.53,0.29,0.71c0.07,0.05,0.13,0.1,0.2,0.16c0.16,0.09,0.32,0.14,0.5,0.14
			c0.53,0.05,1.06,0.01,1.59-0.08c0.13-0.03,0.24-0.09,0.34-0.18c0.11-0.07,0.19-0.16,0.26-0.28c0.07-0.11,0.11-0.24,0.12-0.37
			C79.52,230.03,79.51,229.9,79.47,229.77z"/>
	</g>
	<g>
		<path class="st4" d="M53.96,210.03c-0.17-0.17-0.46-0.3-0.71-0.29c-0.26,0.01-0.53,0.1-0.71,0.29c-0.05,0.07-0.1,0.13-0.16,0.2
			c-0.09,0.16-0.14,0.32-0.14,0.5c-0.07,0.69-0.14,1.38-0.21,2.06c-0.02,0.24,0.13,0.54,0.29,0.71c0.17,0.17,0.46,0.3,0.71,0.29
			c0.26-0.01,0.53-0.1,0.71-0.29c0.05-0.07,0.1-0.13,0.16-0.2c0.09-0.16,0.14-0.32,0.14-0.5c0.07-0.69,0.14-1.38,0.21-2.06
			C54.27,210.5,54.12,210.2,53.96,210.03z"/>
		<path class="st4" d="M51.7,213.67c-0.07-0.05-0.13-0.1-0.2-0.16c-0.16-0.09-0.32-0.14-0.5-0.14c-0.5,0.06-1,0.13-1.5,0.19
			c-0.14-0.01-0.27,0.02-0.39,0.09c-0.12,0.04-0.23,0.11-0.32,0.21c-0.17,0.17-0.3,0.46-0.29,0.71c0.01,0.26,0.1,0.53,0.29,0.71
			c0.07,0.05,0.13,0.1,0.2,0.16c0.16,0.09,0.32,0.14,0.5,0.14c0.5-0.06,1-0.13,1.5-0.19c0.14,0.01,0.27-0.02,0.39-0.09
			c0.12-0.04,0.23-0.11,0.32-0.21c0.17-0.17,0.3-0.46,0.29-0.71C51.98,214.12,51.9,213.85,51.7,213.67z"/>
		<path class="st4" d="M54.28,217.71c-0.11-0.26-0.17-0.52-0.22-0.8c-0.02-0.24-0.02-0.49,0.01-0.73c0.03-0.24-0.13-0.55-0.29-0.71
			c-0.17-0.17-0.46-0.3-0.71-0.29c-0.26,0.01-0.53,0.1-0.71,0.29c-0.05,0.07-0.1,0.13-0.16,0.2c-0.09,0.16-0.14,0.32-0.14,0.5
			c-0.04,0.35-0.02,0.7,0.02,1.05c0.05,0.35,0.12,0.69,0.26,1.01c0.03,0.13,0.09,0.24,0.18,0.34c0.07,0.11,0.16,0.19,0.28,0.26
			c0.21,0.13,0.53,0.18,0.77,0.1c0.24-0.08,0.48-0.23,0.6-0.46c0.03-0.08,0.07-0.16,0.1-0.24
			C54.33,218.06,54.33,217.89,54.28,217.71z"/>
		<path class="st4" d="M57.41,214.36c-0.08-0.24-0.23-0.48-0.46-0.6c-0.08-0.03-0.16-0.07-0.24-0.1c-0.15-0.04-0.3-0.04-0.46-0.01
			c-0.38,0.05-0.75,0.05-1.13,0.01c-0.14-0.01-0.27,0.02-0.39,0.09c-0.12,0.04-0.23,0.11-0.32,0.21c-0.1,0.09-0.17,0.2-0.21,0.32
			c-0.06,0.12-0.09,0.25-0.09,0.39c0.01,0.26,0.1,0.53,0.29,0.71c0.07,0.05,0.13,0.1,0.2,0.16c0.16,0.09,0.32,0.14,0.5,0.14
			c0.53,0.05,1.06,0.01,1.59-0.08c0.13-0.03,0.24-0.09,0.34-0.18c0.11-0.07,0.19-0.16,0.26-0.28c0.07-0.11,0.11-0.24,0.12-0.37
			C57.46,214.63,57.45,214.5,57.41,214.36z"/>
	</g>
	<g>
		<g>
			<path class="st10" d="M71.35,271.75c-0.18-0.47-0.81-0.81-1.3-0.57c-0.03,0.01-0.16,0.05-0.06,0.04c0.02,0,0.12,0.01-0.01,0
				c-0.01,0-0.1-0.02-0.14-0.02c-0.03-0.01-0.1-0.03-0.09-0.03c-0.32-0.12-0.63-0.28-0.94-0.42c-0.56-0.27-1.12-0.55-1.61-0.94
				c-0.22-0.17-0.43-0.35-0.6-0.57c-0.16-0.2-0.3-0.42-0.35-0.53c-0.24-0.5-0.3-0.79-0.33-1.35c-0.01-0.22-0.01-0.27,0.03-0.57
				c0.02-0.12,0.04-0.24,0.06-0.36c0.01-0.03,0.02-0.07,0.02-0.1c0-0.01,0.03-0.12,0.04-0.14c0.08-0.23,0.17-0.45,0.29-0.66
				c0.01-0.01,0.04-0.07,0.06-0.11c0.02-0.02,0.04-0.06,0.04-0.06c0.08-0.11,0.16-0.22,0.25-0.33c0.03-0.04,0.26-0.27,0.18-0.19
				c0.08-0.07,0.16-0.13,0.24-0.2c0.26-0.19,0.31-0.21,0.59-0.33c0.11-0.05,0.22-0.08,0.34-0.12c0.04-0.01,0.07-0.02,0.11-0.03
				c0.02,0,0.08-0.02,0.09-0.02c0.25-0.04,0.51-0.08,0.77-0.08c0.01,0,0,0,0.01,0c0.01,0,0.01,0,0.04,0
				c0.09,0.01,0.17,0.01,0.26,0.02c0.14,0.02,0.27,0.04,0.41,0.07c0.05,0.01,0.1,0.02,0.15,0.03c0.03,0.01,0.05,0.01,0.05,0.01
				c0.01,0,0.03,0.01,0.04,0.01c0.13,0.05,0.26,0.09,0.39,0.15c0.13,0.06,0.25,0.12,0.37,0.18c0.19,0.1,0.07,0.05,0.04,0.02
				c0.06,0.04,0.11,0.08,0.17,0.12c0.27,0.2,0.42,0.36,0.56,0.53c0.34,0.42,0.95,0.55,1.4,0.22c0.42-0.31,0.56-0.97,0.22-1.4
				c-1.76-2.2-5.35-2.7-7.5-0.75c-2.25,2.04-2.26,5.68-0.06,7.75c0.7,0.66,1.57,1.12,2.43,1.53c0.84,0.4,1.84,0.92,2.77,0.46
				C71.26,272.81,71.55,272.28,71.35,271.75z"/>
			<path class="st10" d="M82.08,271.69c0.47-2.03-0.54-4.22-2.16-5.45c-0.32-0.25-0.76-0.28-1.11-0.1c-0.01,0-0.02-0.01-0.04-0.01
				c-1.71-0.19-3.39,0.6-4.45,1.94c-1.1,1.4-1.51,3.44-0.69,5.08c0.84,1.69,2.85,2.68,4.71,2.32
				C80.24,275.09,81.65,273.54,82.08,271.69z M79.79,272.15c-0.02,0.03-0.03,0.05-0.02,0.04c-0.03,0.04-0.05,0.08-0.08,0.12
				c-0.08,0.11-0.16,0.22-0.25,0.33c-0.07,0.08-0.13,0.15-0.21,0.22c-0.01,0.01-0.02,0.02-0.04,0.04c-0.13,0.11-0.27,0.2-0.41,0.3
				c-0.01,0.01-0.05,0.03-0.07,0.05c-0.08,0.04-0.16,0.08-0.24,0.11c-0.08,0.03-0.16,0.06-0.24,0.09c-0.02,0.01-0.1,0.03-0.13,0.03
				c-0.14,0.03-0.28,0.05-0.42,0.05c-0.03,0-0.12,0-0.14,0c-0.05,0-0.1-0.01-0.15-0.01c-0.08-0.01-0.17-0.02-0.25-0.03
				c-0.03,0-0.15-0.03-0.2-0.04c-0.05-0.02-0.18-0.06-0.17-0.05c-0.06-0.02-0.13-0.05-0.19-0.08c-0.08-0.03-0.15-0.07-0.23-0.11
				c-0.02-0.01-0.08-0.05-0.11-0.06c-0.11-0.08-0.22-0.16-0.32-0.25c-0.05-0.04-0.1-0.09-0.15-0.14c-0.01-0.02-0.11-0.14-0.11-0.14
				c-0.04-0.05-0.08-0.11-0.11-0.16c-0.03-0.04-0.04-0.05-0.05-0.06c0-0.01-0.01-0.02-0.03-0.07c-0.06-0.14-0.12-0.28-0.16-0.42
				c-0.06-0.21-0.1-0.68-0.08-0.9c0.01-0.14,0.03-0.28,0.06-0.42c0,0.01,0.02-0.09,0.03-0.14c0.02-0.05,0.04-0.14,0.04-0.14
				c0.05-0.13,0.1-0.26,0.16-0.38c0.03-0.07,0.07-0.14,0.1-0.21c0.02-0.03,0.02-0.04,0.02-0.05c0.01-0.01,0.01-0.01,0.03-0.04
				c0.09-0.13,0.18-0.25,0.28-0.37c0.06-0.07,0.12-0.14,0.18-0.21c0.02-0.02,0.09-0.09,0.11-0.11c0.1-0.09,0.21-0.18,0.32-0.26
				c0.06-0.05,0.13-0.09,0.19-0.13c0.02-0.01,0.15-0.09,0.18-0.11c0.12-0.06,0.25-0.12,0.37-0.17c0.07-0.03,0.14-0.05,0.21-0.08
				c0.03-0.01,0.07-0.02,0.1-0.03c0.16-0.03,0.33-0.06,0.49-0.07c0.06,0,0.12-0.01,0.18-0.01c-0.21,0,0.16,0.02,0.2,0.02
				c0.16,0.02,0.32-0.01,0.47-0.07c0.03,0.03,0.07,0.05,0.1,0.08c0.04,0.04,0.08,0.07,0.11,0.11c0.01,0.02,0.14,0.16,0.14,0.15
				c0.09,0.11,0.17,0.22,0.25,0.33c0.06,0.09,0.11,0.17,0.17,0.26c0.03,0.04,0.04,0.06,0.04,0.06c0,0.01,0.01,0.03,0.03,0.08
				c0.07,0.14,0.13,0.28,0.18,0.43c0.03,0.08,0.05,0.16,0.08,0.24c0,0.01,0.02,0.05,0.02,0.08c0.04,0.15,0.06,0.32,0.08,0.47
				c0.01,0.07,0.01,0.14,0.02,0.2c0,0.01,0,0.15,0.01,0.18c-0.01,0.16-0.02,0.32-0.05,0.48c-0.01,0.07-0.03,0.13-0.04,0.2
				c0,0.02-0.01,0.04-0.01,0.05c0,0.01-0.01,0.02-0.01,0.04c-0.05,0.15-0.11,0.29-0.17,0.43C79.87,272,79.83,272.08,79.79,272.15z"
				/>
			<path class="st10" d="M88.96,276.53c-0.99-0.05-1.98-0.22-2.93-0.5c-0.6-0.18-1.29-0.4-1.39-1.08c-0.11-0.85,0.32-1.8,0.59-2.58
				c0.34-0.97,0.74-1.91,1.18-2.83c0.56-1.16-1.22-2.09-1.77-0.92c-0.55,1.15-1.03,2.34-1.44,3.55c-0.38,1.13-0.77,2.35-0.43,3.54
				c0.33,1.19,1.39,1.81,2.49,2.18c1.23,0.41,2.52,0.59,3.81,0.65c0.54,0.02,0.97-0.54,0.95-1.05
				C89.98,276.9,89.51,276.55,88.96,276.53z"/>
			<path class="st10" d="M92.28,271.83c-0.38-0.34-1.08-0.36-1.41,0.07c-1.39,1.8-2.4,3.83-2.96,6.03
				c-0.14,0.55,0.25,1.04,0.76,1.19c0.36,0.11,0.73,0.08,1.09,0.02c0.01,0,0.02,0,0.03,0c-0.01,0.01-0.01,0.03-0.01,0.03
				c-0.04,0.08-0.09,0.16-0.13,0.23c-0.22,0.39-0.43,0.76-0.53,1.2c-0.29,1.26,1.66,1.69,1.95,0.44c0.11-0.46,0.47-0.84,0.63-1.29
				c0.19-0.5,0.23-1.07,0.03-1.58c-0.22-0.56-0.71-0.95-1.3-1.05c-0.06-0.01-0.12-0.01-0.18-0.01c0.49-1.39,1.2-2.71,2.11-3.88
				C92.68,272.81,92.7,272.21,92.28,271.83z"/>
			<path class="st10" d="M105.04,273.14c-1.62,0.93-3.24,1.86-4.85,2.78c-0.79,0.46-1.59,0.91-2.38,1.37
				c-0.31,0.18-0.62,0.35-0.93,0.53c0.3-1.6,0.74-3.17,1.32-4.68c0.19-0.5,0.09-1.08-0.43-1.35c-0.44-0.23-1.15-0.08-1.35,0.43
				c-0.62,1.61-1.12,3.26-1.46,4.96c-0.07,0.37-0.14,0.74-0.2,1.12c-0.07,0.43-0.24,1.04-0.11,1.47c0.33,1.01,1.41,0.83,2.12,0.43
				c2.57-1.43,5.12-2.92,7.67-4.39l-0.42,5.34c-0.04,0.54,0.56,0.97,1.05,0.95c0.6-0.03,0.91-0.51,0.95-1.05
				c0.19-2.37,0.38-4.73,0.56-7.1C106.65,273.11,105.62,272.81,105.04,273.14z"/>
			<path class="st10" d="M119.3,281.53c-0.88-3.07-1.79-6.12-2.73-9.17c-0.23-0.75-1.17-0.87-1.69-0.36
				c-2.53,2.52-4.73,5.35-6.57,8.41c-0.28,0.46-0.03,1.11,0.42,1.35c0.5,0.26,1.07,0.04,1.35-0.43c1.45-2.42,3.16-4.66,5.07-6.72
				c0.76,2.51,1.51,5.02,2.24,7.54C117.76,283.39,119.66,282.76,119.3,281.53z"/>
			<path class="st10" d="M116.22,277.56c-1.6-0.07-3.2-0.14-4.8-0.21c-0.52-0.02-1,0.54-0.95,1.05c0.05,0.58,0.49,0.93,1.05,0.95
				c1.6,0.07,3.2,0.14,4.8,0.21c0.52,0.02,1-0.54,0.95-1.05C117.22,277.93,116.78,277.59,116.22,277.56z"/>
			<path class="st10" d="M129.86,281.29c-0.59-1.44-1.18-2.88-1.78-4.31c-0.54-1.31-1.01-2.7-2.05-3.7c-0.3-0.29-0.87-0.35-1.22-0.1
				c-1.18,0.86-1.79,2.36-2.47,3.61c-0.74,1.37-1.47,2.76-2.18,4.16c-0.58,1.15,1.19,2.07,1.77,0.92c0.66-1.3,1.34-2.6,2.03-3.89
				c0.33-0.62,0.67-1.24,1.02-1.86c0.1-0.18,0.2-0.37,0.31-0.55c0.42,0.72,0.69,1.56,0.99,2.3c0.55,1.34,1.11,2.69,1.66,4.03
				c0.21,0.5,0.72,0.81,1.26,0.64C129.71,282.39,130.07,281.79,129.86,281.29z"/>
			<path class="st10" d="M132.4,272.26c0.05,2.96,0.09,5.92,0.14,8.87c0.02,1.29,2.02,1.19,2-0.1c-0.05-2.96-0.09-5.91-0.14-8.87
				C134.38,270.88,132.38,270.97,132.4,272.26z"/>
			<g>
				<path class="st10" d="M138.64,277.22c-0.38-0.96-1.21-1.67-2.24-1.84c-1.09-0.19-2.18,0.11-3.2,0.48
					c-0.49,0.18-0.83,0.75-0.64,1.26c0.19,0.49,0.74,0.83,1.26,0.64c0.35-0.13,0.7-0.25,1.06-0.34c0.08-0.02,0.16-0.04,0.24-0.05
					c0.03-0.01,0.07-0.01,0.1-0.02c0.18-0.02,0.36-0.04,0.54-0.04c0.03,0,0.06,0,0.09,0c0.06,0.01,0.13,0.02,0.2,0.03
					c0.06,0.01,0.13,0.04,0.2,0.05c0.04,0.02,0.08,0.04,0.12,0.06c0.03,0.01,0.06,0.03,0.08,0.05c0.05,0.04,0.1,0.08,0.14,0.12
					c0.01,0.01,0.02,0.02,0.03,0.03c0.04,0.05,0.07,0.11,0.1,0.16c-0.01-0.02-0.01-0.03-0.02-0.06c0.01,0.03,0.02,0.06,0.04,0.08
					c0,0,0.01,0.01,0.01,0.01c0.02,0.04,0.03,0.07,0.01,0.05c0.02,0.05,0.04,0.1,0.05,0.16c0,0.01,0.01,0.03,0.01,0.04
					c0.01,0.08,0.02,0.15,0.02,0.23c0,0.06,0,0.11,0,0.17c0,0.01,0,0.03-0.01,0.04c-0.01,0.08-0.03,0.16-0.05,0.23
					c-0.01,0.03-0.02,0.07-0.03,0.1c-0.01,0.02-0.06,0.14-0.07,0.17c-0.02,0.05-0.05,0.1-0.08,0.14c0,0.01-0.01,0.02-0.02,0.03
					c0,0,0,0,0,0.01c-0.02,0.03-0.04,0.06-0.06,0.09c0.01-0.03,0.02-0.04,0.03-0.05c-0.06,0.06-0.11,0.13-0.17,0.19
					c-0.01,0.01-0.03,0.03-0.05,0.05c0,0,0,0,0,0c-0.06,0.04-0.13,0.09-0.19,0.14c-0.07,0.04-0.13,0.08-0.2,0.12
					c-0.04,0.02-0.08,0.03-0.12,0.05c-0.09,0.04-0.19,0.07-0.28,0.09c-0.04,0.01-0.08,0.02-0.12,0.03c-0.02,0-0.07,0.02-0.11,0.02
					c-0.05,0.01-0.1,0.01-0.16,0.02c-0.1,0.01-0.2,0.02-0.3,0.02c-0.1,0-0.2,0-0.3,0c-0.04,0-0.08-0.01-0.1-0.01
					c-0.21-0.03-0.42-0.07-0.62-0.13c-0.5-0.14-1.1,0.25-1.19,0.76c-0.1,0.56,0.22,1.04,0.76,1.19c1.83,0.52,4.2-0.02,5.08-1.87
					C138.87,279.1,138.98,278.08,138.64,277.22z"/>
				<path class="st10" d="M136.58,279.22c0.01-0.01,0.01-0.02,0.02-0.03c0.01-0.02-0.01,0-0.05,0.08c0,0,0.01-0.01,0.01-0.01
					C136.57,279.24,136.58,279.23,136.58,279.22z"/>
				<path class="st10" d="M136.73,277.84c0-0.01-0.01-0.02-0.01-0.02c0.02,0.05,0.03,0.08,0.04,0.09
					C136.75,277.88,136.75,277.86,136.73,277.84C136.74,277.84,136.74,277.84,136.73,277.84z"/>
			</g>
			<path class="st10" d="M144.19,271.4c-0.01-1.29-2.01-1.19-2,0.1c0.02,3.15,0.21,6.29,0.57,9.42c0.06,0.54,0.48,0.98,1.05,0.95
				c0.51-0.03,1.01-0.51,0.95-1.05C144.4,277.69,144.21,274.55,144.19,271.4z"/>
			<path class="st10" d="M148.64,274.6c-1.59,0.26-3.17,0.52-4.76,0.78c-0.51,0.08-1,0.47-0.95,1.05c0.05,0.49,0.49,1.04,1.05,0.95
				c1.59-0.26,3.17-0.52,4.76-0.78c0.51-0.08,1-0.47,0.95-1.05C149.64,275.06,149.2,274.51,148.64,274.6z"/>
			<path class="st10" d="M150.99,278.26c-0.69-2.56-1.12-5.18-1.3-7.83c-0.09-1.28-2.09-1.19-2,0.1c0.19,2.82,0.67,5.62,1.4,8.36
				c0.14,0.52,0.77,0.8,1.26,0.64C150.89,279.35,151.13,278.78,150.99,278.26z"/>
			<path class="st10" d="M156.59,278.02c-0.63-2.87-1.06-5.78-1.3-8.71c-0.11-1.28-2.1-1.19-2,0.1c0.26,3.11,0.73,6.19,1.4,9.23
				c0.12,0.53,0.79,0.79,1.26,0.64C156.51,279.1,156.7,278.55,156.59,278.02z"/>
			<g>
				<path class="st10" d="M159.02,275.35c0,0,0.01-0.01,0.02-0.02c-0.04,0.02-0.06,0.04-0.06,0.05c0,0,0.01,0,0.01,0
					C158.99,275.37,159.01,275.36,159.02,275.35z"/>
				<path class="st10" d="M159.85,272.97c-0.71-0.54-1.51-0.81-2.39-0.87c-0.87-0.06-1.8,0.2-2.51,0.71
					c-0.42,0.3-0.62,0.93-0.29,1.38c0.3,0.42,0.93,0.62,1.38,0.29c0.11-0.08,0.22-0.14,0.33-0.21c0.07-0.03,0.14-0.06,0.22-0.08
					c0.07-0.02,0.13-0.04,0.2-0.06c0.03-0.01,0.07-0.01,0.1-0.02c-0.02,0-0.05,0-0.1,0.01c0.04,0,0.09-0.01,0.13-0.01
					c0.01,0,0.01,0,0.01,0c0.09-0.01,0.18-0.02,0.27-0.03c0.07,0,0.14,0,0.21,0c0.02,0,0.04,0,0.06,0.01
					c-0.02,0-0.03-0.01-0.06-0.01c0.14,0.03,0.27,0.04,0.41,0.07c0.07,0.02,0.13,0.03,0.2,0.05c0.01,0,0.03,0.01,0.04,0.02
					c-0.01-0.01-0.02-0.01-0.03-0.02c0.12,0.07,0.25,0.11,0.37,0.18c0.04,0.02,0.08,0.05,0.12,0.07c0.03,0.02,0.06,0.04,0.06,0.05
					c0.09,0.08,0.18,0.19,0.28,0.26c0.02,0.02,0.03,0.04,0.05,0.06c0.03,0.04,0.07,0.14,0.11,0.18c0,0.01,0.01,0.02,0.01,0.02
					c0.02,0.06,0.04,0.12,0.05,0.18c0,0.02,0,0.03,0,0.05c0,0.01,0,0.02,0,0.03c-0.01,0.01-0.02,0.02-0.03,0.04
					c0,0,0.01,0,0.01-0.01c0,0,0,0.01,0,0.01c-0.01,0.01-0.02,0.01-0.03,0.02c0,0,0,0,0,0c-0.03,0.03-0.04,0.04-0.04,0.03
					c-0.06,0.04-0.13,0.08-0.19,0.12c-0.02,0.01-0.03,0.02-0.05,0.03c-0.08,0.03-0.17,0.08-0.24,0.11c-0.4,0.17-0.8,0.32-1.22,0.44
					c-0.19,0.06-0.39,0.11-0.59,0.16c-0.1,0.03-0.21,0.05-0.32,0.07c-0.04,0.01-0.08,0.02-0.12,0.02c-0.01,0-0.01,0-0.01,0
					c-0.01,0-0.02,0-0.04,0.01c-0.27,0.05-0.5,0.11-0.69,0.33c-0.16,0.18-0.28,0.47-0.26,0.72c0.05,0.49,0.5,1.04,1.05,0.95
					c0.96-0.16,1.89-0.4,2.78-0.78c0.49-0.21,0.96-0.43,1.35-0.79c0.42-0.38,0.61-0.91,0.64-1.47
					C161.11,274.4,160.54,273.5,159.85,272.97z"/>
				<path class="st10" d="M158.06,274.23C158.19,274.3,158.13,274.26,158.06,274.23L158.06,274.23z"/>
				<path class="st10" d="M156.89,274.13c0.03,0,0.05-0.01,0.04,0c0,0-0.01,0-0.01,0C156.91,274.13,156.9,274.13,156.89,274.13z"/>
				<path class="st10" d="M157.47,274.1C157.59,274.13,157.54,274.11,157.47,274.1L157.47,274.1z"/>
			</g>
			<path class="st10" d="M163.96,275.66c-0.72-2.75-1.21-5.55-1.46-8.39c-0.05-0.54-0.49-0.98-1.05-0.95
				c-0.52,0.03-1,0.51-0.95,1.05c0.27,3.01,0.8,5.99,1.56,8.91c0.14,0.52,0.77,0.8,1.26,0.64
				C163.86,276.74,164.09,276.18,163.96,275.66z"/>
			<path class="st10" d="M178.43,270.85c-0.79-2.21-1.59-4.42-2.38-6.63c-0.27-0.75-1.49-0.98-1.84-0.15
				c-1.25,3-2.91,5.79-4.93,8.32c-0.49-2.16-0.9-4.34-1.29-6.52c-0.1-0.53-0.46-0.98-1.05-0.95c-0.49,0.02-1.05,0.51-0.95,1.05
				c0.54,2.99,1.08,5.98,1.84,8.93c0.19,0.74,1.21,0.89,1.69,0.36c2.17-2.44,4.01-5.16,5.46-8.08c0.51,1.43,1.03,2.87,1.54,4.3
				C176.96,272.68,178.86,272.06,178.43,270.85z"/>
			<path class="st10" d="M173.65,261.48c-0.19-0.16-0.46-0.3-0.72-0.26c-0.98,0.16-1.95,0.32-2.93,0.48
				c-0.27,0.04-0.5,0.12-0.69,0.33c-0.16,0.18-0.28,0.47-0.26,0.72c0.02,0.26,0.12,0.52,0.33,0.69c0.19,0.16,0.46,0.3,0.72,0.26
				c0.98-0.16,1.95-0.32,2.93-0.48c0.27-0.04,0.5-0.12,0.69-0.33c0.16-0.18,0.28-0.47,0.26-0.72
				C173.95,261.91,173.85,261.65,173.65,261.48z"/>
		</g>
		<g>
			<path class="st10" d="M81.65,283.09c-1.26,3.4-2.42,6.84-3.49,10.31c-0.38,1.23,1.5,1.91,1.88,0.68
				c1.06-3.47,2.22-6.91,3.49-10.31C83.98,282.56,82.1,281.88,81.65,283.09z"/>
			<path class="st10" d="M87.74,295.02c-1.38-2.24-3.01-4.3-4.86-6.15c1.5-0.7,3.05-1.28,4.65-1.72c0.52-0.14,0.9-0.61,0.79-1.17
				c-0.1-0.5-0.65-0.93-1.17-0.79c-2.22,0.6-4.37,1.43-6.4,2.5c-0.51,0.27-0.82,1.09-0.32,1.55c2.13,1.96,4.01,4.19,5.52,6.65
				c0.28,0.46,0.82,0.72,1.34,0.46C87.72,296.14,88.02,295.49,87.74,295.02z"/>
			<path class="st10" d="M100.18,298.31c-0.57-3.74-0.97-7.5-1.21-11.28c-0.04-0.72-1.15-1.09-1.63-0.57
				c-2.65,2.81-5.01,5.86-7.05,9.15c-0.68,1.09,0.96,2.24,1.64,1.14c1.55-2.51,3.3-4.89,5.23-7.12c0.24,3.03,0.58,6.05,1.04,9.06
				C98.41,299.96,100.38,299.58,100.18,298.31z"/>
			<path class="st10" d="M98.31,293.18c-1.49-0.24-2.99-0.38-4.49-0.42c-0.52-0.01-1.06,0.36-1.07,0.92
				c-0.02,0.52,0.36,1.06,0.92,1.07c1.51,0.04,3.01,0.18,4.49,0.42c0.52,0.08,1.06-0.41,1.07-0.92
				C99.25,293.68,98.87,293.27,98.31,293.18z"/>
			<path class="st10" d="M113.05,293.61c0.06-0.99,0.11-1.99,0.17-2.98c0.03-0.46,0.12-0.96-0.06-1.4
				c-0.21-0.52-0.62-0.76-1.15-0.85c-1.86-0.34-3.8-0.36-5.68-0.23c-1.02,0.07-1.67,0.54-1.79,1.6c-0.11,0.96-0.15,1.93-0.23,2.89
				c-0.17,2.2-0.34,4.4-0.52,6.6c-0.1,1.28,1.89,1.44,1.99,0.16c0.21-2.65,0.41-5.3,0.62-7.95c0.02-0.31,0.05-0.62,0.07-0.93
				c0.01-0.12,0.02-0.23,0.03-0.35c0.19-0.02,0.42-0.07,0.53-0.07c0.34-0.02,0.67-0.02,1.01-0.02c0.64,0,1.28,0.02,1.92,0.07
				c0.34,0.03,0.67,0.06,1.01,0.1c0.09,0.01,0.18,0.02,0.27,0.03c-0.03,1.37-0.17,2.74-0.24,4.1c-0.09,1.61-0.18,3.22-0.27,4.83
				c-0.07,1.28,1.92,1.44,1.99,0.16C112.84,297.45,112.94,295.53,113.05,293.61z"/>
			<path class="st10" d="M127.56,290.49c0.05-0.7-0.77-1.39-1.43-0.98c-1.83,1.13-2.97,2.94-4.33,4.56
				c-0.89,1.06-1.85,2.06-2.85,3.02c0.16-2.21,0.44-4.4,0.86-6.58c0.1-0.53-0.42-1.04-0.92-1.08c-0.59-0.05-0.97,0.39-1.08,0.92
				c-0.57,2.98-0.9,6.01-0.99,9.04c-0.02,0.85,0.97,1.42,1.65,0.84c1.65-1.43,3.19-2.97,4.62-4.62c0.67-0.77,1.29-1.58,1.93-2.38
				c0.11-0.14,0.23-0.29,0.35-0.43c-0.19,2.44-0.37,4.89-0.56,7.33c-0.1,1.28,1.9,1.44,1.99,0.16
				C127.06,297.02,127.31,293.75,127.56,290.49z"/>
			<path class="st10" d="M139.32,288.74c-2.69-0.13-5.39,0.08-8.02,0.64c-1.26,0.27-0.88,2.23,0.38,1.96
				c2.46-0.52,4.97-0.73,7.48-0.61c0.54,0.03,1.03-0.37,1.07-0.92C140.28,289.28,139.86,288.76,139.32,288.74z"/>
			<path class="st10" d="M136.37,290.3c0.05-1.28-1.94-1.45-1.99-0.16c-0.12,2.89-0.13,5.77-0.04,8.66
				c0.02,0.54,0.34,1.03,0.92,1.08c0.49,0.04,1.09-0.38,1.07-0.92C136.24,296.08,136.25,293.19,136.37,290.3z"/>
			<path class="st10" d="M152.82,296.99c-1.27-3.52-2.71-6.98-4.32-10.36c-0.18-0.37-0.67-0.66-1.09-0.55
				c-1.1,0.3-1.4,1.29-1.81,2.24c-0.46,1.1-0.92,2.2-1.36,3.3c-0.87,2.17-1.69,4.37-2.47,6.57c-0.43,1.21,1.45,1.89,1.88,0.68
				c0.68-1.92,1.39-3.82,2.13-5.72c0.36-0.93,0.74-1.85,1.12-2.78c0.18-0.43,0.35-0.85,0.53-1.27c1.31,2.87,2.51,5.78,3.58,8.75
				c0.18,0.51,0.89,0.68,1.34,0.46C152.89,298.07,153.01,297.5,152.82,296.99z"/>
			<path class="st10" d="M164.2,293.72c-1.84-3.04-3.57-6.15-5.18-9.31c-0.35-0.69-1.64-0.79-1.84,0.1
				c-0.84,3.76-1.67,7.52-2.51,11.28c-0.12,0.53,0.05,1.08,0.6,1.28c0.46,0.17,1.16-0.07,1.28-0.6c0.65-2.93,1.3-5.85,1.95-8.78
				c1.25,2.33,2.53,4.64,3.9,6.9c0.28,0.46,0.82,0.72,1.34,0.46C164.19,294.84,164.48,294.19,164.2,293.72z"/>
			<path class="st10" d="M150.1,291.96c-1.76,0.02-3.52,0.21-5.24,0.62c-0.51,0.12-0.92,0.63-0.79,1.17
				c0.12,0.51,0.63,0.92,1.17,0.79c0.8-0.19,1.61-0.34,2.42-0.44c0.4-0.05,0.8-0.09,1.2-0.12c0.04,0,0.37-0.02,0.15-0.01
				c0.09,0,0.19-0.01,0.28-0.01c0.22-0.01,0.43-0.01,0.65-0.01c0.52,0,1.06-0.35,1.08-0.92
				C151.03,292.53,150.66,291.96,150.1,291.96z"/>
		</g>
		<g>
			<path class="st10" d="M103.42,255.55c0,3.71-0.1,7.42-0.29,11.13c-0.07,1.29,1.93,1.28,2,0c0.2-3.71,0.3-7.42,0.29-11.13
				C105.42,254.26,103.42,254.26,103.42,255.55z"/>
			<path class="st10" d="M109.82,261.32c-0.22-0.07-0.45-0.12-0.67-0.17c0.88-0.76,1.49-1.74,1.41-2.95
				c-0.2-2.91-3.68-2.84-5.82-2.56c-0.54,0.07-1,0.41-1,1c0,0.49,0.46,1.07,1,1c0.89-0.12,1.86-0.21,2.75-0.09
				c0.5,0.07,1.06,0.23,1.07,0.81c0.01,0.65-0.54,1.17-1.03,1.52c-0.71,0.5-1.49,0.89-2.31,1.17c-1.23,0.43-0.73,2.15,0.53,1.93
				c1-0.17,2.03-0.13,3.01,0.12c0.55,0.14,2.04,0.45,1.99,1.22c-0.05,0.86-1.2,1.22-1.88,1.41c-0.85,0.25-1.72,0.39-2.59,0.43
				c-0.42-0.45-1.2-0.55-1.55,0.15l-0.18,0.36c-0.34,0.68,0.08,1.49,0.86,1.5c2.48,0.06,7.47-0.57,7.34-4.01
				C112.69,262.52,111.19,261.76,109.82,261.32z"/>
			<path class="st10" d="M123.49,266c-0.39-2.09-0.77-4.18-1.16-6.27c-0.19-1.03-0.38-2.05-0.57-3.08
				c-0.18-0.96-0.25-1.99-1.33-2.35c-0.4-0.13-0.93,0.08-1.13,0.46c-1.98,3.77-3.72,7.66-5.21,11.65c-0.19,0.51,0.21,1.1,0.7,1.23
				c0.56,0.15,1.04-0.19,1.23-0.7c1.15-3.09,2.47-6.11,3.94-9.06c0.02,0.13,0.05,0.26,0.07,0.4c0.17,0.92,0.34,1.83,0.51,2.75
				c0.34,1.83,0.68,3.67,1.01,5.5c0.1,0.53,0.74,0.83,1.23,0.7C123.35,267.08,123.59,266.53,123.49,266z"/>
			<path class="st10" d="M122.18,262.55c-0.18-0.57-0.67-0.78-1.23-0.7c-0.08,0.01-0.17,0.02-0.25,0.04c-0.03,0-0.03,0-0.04,0.01
				c-0.03,0-0.05,0.01-0.08,0.01c-0.17,0.02-0.34,0.04-0.51,0.06c-0.36,0.04-0.71,0.07-1.07,0.09c-0.71,0.04-1.43,0.05-2.14,0.04
				c-0.52-0.01-1.02,0.47-1,1c0.02,0.55,0.44,0.99,1,1c1.55,0.04,3.09-0.08,4.62-0.31c0.23-0.03,0.49-0.27,0.6-0.46
				C122.2,263.1,122.25,262.79,122.18,262.55z"/>
			<path class="st10" d="M138.25,264.38c-1.73,0.17-3.46,0.3-5.19,0.37c-0.83,0.04-1.66,0.06-2.49,0.07
				c-0.45,0.01-0.91,0.01-1.36,0.01c-0.19,0-0.38,0-0.57,0c0-0.23,0.01-0.47,0.01-0.7l0.03-1.36c0.02-0.94,0.04-1.89,0.05-2.83
				c0.04-1.89,0.07-3.77,0.11-5.66c0.03-1.29-1.97-1.29-2,0c-0.04,2.04-0.08,4.08-0.12,6.11c-0.02,0.98-0.04,1.96-0.06,2.94
				l-0.03,1.36c-0.01,0.46-0.08,1,0.15,1.43c0.48,0.88,1.57,0.71,2.42,0.71c0.98,0,1.96-0.02,2.94-0.05c2.04-0.07,4.07-0.2,6.1-0.4
				c0.54-0.05,1-0.42,1-1C139.25,264.88,138.79,264.33,138.25,264.38z"/>
			<path class="st10" d="M137.3,254.28c-0.13,3.57-0.27,7.14-0.4,10.71c-0.05,1.29,1.95,1.29,2,0c0.13-3.57,0.27-7.14,0.4-10.71
				C139.35,252.99,137.35,252.99,137.3,254.28z"/>
			<path class="st10" d="M132.05,257.1v7.74c0,1.29,2,1.29,2,0v-7.74C134.05,255.81,132.05,255.81,132.05,257.1z"/>
		</g>
	</g>
	<path class="st4" d="M60.88,194.4c-1.93,0-1.93,3,0,3C62.81,197.4,62.82,194.4,60.88,194.4z"/>
	<path class="st4" d="M90.56,246.23c-1.93,0-1.93,3,0,3C92.49,249.23,92.49,246.23,90.56,246.23z"/>
	<path class="st4" d="M45.49,204.54c-1.93,0-1.93,3,0,3C47.42,207.54,47.42,204.54,45.49,204.54z"/>
	<path class="st4" d="M55.64,239.47c-1.93,0-1.93,3,0,3C57.57,242.47,57.58,239.47,55.64,239.47z"/>
	<path class="st4" d="M157.74,249.59c-1.93,0-1.93,3,0,3C159.67,252.59,159.67,249.59,157.74,249.59z"/>
	<path class="st4" d="M53.01,272.51c-1.93,0-1.93,3,0,3C54.95,275.51,54.95,272.51,53.01,272.51z"/>
	<path class="st4" d="M191.9,287.88c-1.93,0-1.93,3,0,3C193.83,290.88,193.84,287.88,191.9,287.88z"/>
	<path class="st10" d="M116.29,153.06c-1.86-0.01-3.66,0.55-5.2,1.54c-0.56-2.18-2.62-3.93-4.92-4.11
		c-3.43-0.26-6.33,2.32-7.53,5.34c-0.32,0.79-0.53,1.62-0.68,2.46c-0.09,0.48-0.14,0.97-0.18,1.46c-0.03,0.4,0.09,1.11-0.06,1.47
		c0.02,0.36,0,0.4-0.06,0.12c-0.1-0.07-0.2-0.15-0.3-0.22c-0.33-0.31-0.81-0.54-1.21-0.73c-0.72-0.34-1.5-0.55-2.29-0.62
		c-3.31-0.31-6.34,1.9-7.19,5.08c-0.33,1.23,1.54,1.94,1.87,0.7c0.77-2.85,3.71-4.64,6.56-3.44c1.11,0.47,2.08,1.75,3.41,1.32
		c1.2-0.39,1.19-1.61,1.22-2.66c0.09-2.94,0.96-6.22,3.76-7.7c2.55-1.35,6.36,0.14,5.68,3.46c-0.17,0.84,1.05,1.43,1.64,0.85
		c1.14-1.12,2.51-1.91,4.09-2.21c1.47-0.28,4.49-0.19,4.03,2.06c-0.26,1.26,1.74,1.42,1.99,0.18
		C121.48,154.63,118.69,153.07,116.29,153.06z"/>
	<path class="st10" d="M147.62,150.56c-1.48-1.57-3.85-2.28-5.93-1.59c-1.35,0.44-2.47,1.39-3.18,2.59
		c-1.08-1.43-2.43-2.64-4.29-2.91c-2.24-0.32-4.53,1.21-4.54,3.6c0,1.29,2,1.29,2,0c0.01-1.54,1.81-1.89,2.97-1.43
		c1.51,0.6,2.43,2.08,3.24,3.4c0.42,0.67,1.67,0.65,1.83-0.24c0.55-3.12,4.27-4.34,6.48-2C147.09,152.92,148.51,151.5,147.62,150.56
		z"/>
	<g>
		<path class="st30" d="M100.02,149.59c-2.49-0.01-3.74,2.32-4.02,4.48c-0.12,0.92-0.1,1.85,0.04,2.77
			c-0.68-0.31-1.37-0.59-2.09-0.78c-2.08-0.54-5.22-0.39-5.42,2.4c-0.16,2.24,2.02,3.86,3.89,4.51c2.04,0.71,4.2,0.39,6.3,0.74
			c0.34,0.06,0.68,0.03,0.99-0.08c0.42,0.05,0.88-0.07,1.23-0.36c2.79-2.3,4.05-6.38,3.03-9.85
			C103.43,151.59,102.14,149.6,100.02,149.59z"/>
		<path class="st10" d="M101.6,147.55c-2.14-0.59-4.23,1.72-5.19,3.37c-0.76,1.31-1.18,2.79-1.23,4.29c-1.17-0.78-2.5-1.29-3.95-1.1
			c-2.02,0.27-3.84,1.95-3.56,4.1c0.3,2.26,2.59,4.03,4.43,5.09c2.02,1.16,4.32,1.77,6.65,1.78c1.29,0,1.35-2,0.06-2
			c-3.15-0.01-7.02-1.39-8.79-4.19c-0.85-1.34-0.03-2.59,1.46-2.8c1.66-0.24,3.15,1.11,4.25,2.17c0.68,0.66,1.97,0.07,1.69-0.92
			c-0.57-2.05-0.17-4.22,1.05-5.95c0.44-0.62,1.64-2.09,2.52-1.92c0.75,0.14,1.08,1.35,1.23,1.95c1.07,4.34,0.17,9.01-2.28,12.72
			c-0.71,1.07,1,2.11,1.71,1.03c2.45-3.72,3.45-8.27,2.81-12.68C104.23,150.68,103.65,148.11,101.6,147.55z"/>
	</g>
	<g>
		<path class="st30" d="M124.12,211.25c-2.47,0.26-3.46,2.72-3.5,4.9c-0.02,0.92,0.11,1.85,0.35,2.74
			c-0.71-0.24-1.42-0.44-2.16-0.54c-2.12-0.31-5.23,0.19-5.12,2.99c0.09,2.24,2.43,3.61,4.37,4.05c2.11,0.48,4.22-0.08,6.34,0.03
			c0.35,0.02,0.68-0.05,0.97-0.19c0.43,0,0.86-0.16,1.19-0.5c2.51-2.6,3.32-6.79,1.91-10.13
			C127.73,212.86,126.23,211.02,124.12,211.25z"/>
		<path class="st10" d="M125.47,209.04c-2.19-0.35-4.02,2.18-4.78,3.93c-0.61,1.38-0.86,2.91-0.74,4.4
			c-1.25-0.65-2.62-1.01-4.04-0.65c-1.98,0.5-3.6,2.36-3.08,4.47c0.54,2.21,3.02,3.72,4.97,4.57c2.14,0.93,4.49,1.28,6.81,1.02
			c1.28-0.14,1.12-2.14-0.16-1.99c-3.13,0.35-7.13-0.6-9.2-3.18c-0.99-1.24-0.31-2.57,1.14-2.95c1.62-0.42,3.26,0.75,4.46,1.68
			c0.75,0.58,1.96-0.15,1.58-1.11c-0.8-1.97-0.64-4.17,0.38-6.04c0.37-0.67,1.4-2.26,2.29-2.19c0.76,0.06,1.22,1.22,1.44,1.8
			c1.54,4.19,1.17,8.94-0.85,12.9c-0.59,1.15,1.23,1.98,1.82,0.84c2.02-3.97,2.5-8.61,1.38-12.91
			C128.42,211.86,127.56,209.38,125.47,209.04z"/>
	</g>
	<path class="st10" d="M95.6,174.39c-0.82-1.23-2.3-1.82-3.76-1.68c-1.62,0.16-2.97,1.05-4.25,1.99c-0.44,0.32-0.65,0.87-0.36,1.37
		c0.25,0.43,0.93,0.68,1.37,0.36c0.52-0.38,1.05-0.77,1.61-1.09c0.55-0.31,0.97-0.5,1.62-0.62c0.01,0,0.01,0,0.02,0
		c0.06,0,0.11-0.01,0.17-0.01c0.12-0.01,0.25-0.01,0.37,0c0.08,0,0.15,0.01,0.22,0.02c0.01,0,0,0,0.02,0.01
		c0.12,0.03,0.24,0.05,0.36,0.09c0.07,0.02,0.13,0.04,0.2,0.07c0.01,0.01,0.01,0.01,0.03,0.01c0.11,0.06,0.21,0.12,0.31,0.18
		c0.02,0.01,0.03,0.02,0.04,0.02c0.05,0.04,0.1,0.08,0.14,0.13c0.04,0.04,0.08,0.09,0.12,0.13c0,0,0,0,0,0
		c0.01,0.01,0.01,0.02,0.03,0.05c0.3,0.45,0.88,0.64,1.37,0.36C95.69,175.5,95.91,174.84,95.6,174.39z"/>
	<path class="st10" d="M129.33,179.94c-0.55-0.28-1.15-0.44-1.77-0.44c-0.62-0.01-1.22,0.15-1.77,0.42c-0.22,0.1-0.4,0.38-0.46,0.6
		c-0.07,0.24-0.04,0.56,0.1,0.77c0.14,0.21,0.34,0.4,0.6,0.46c0.26,0.06,0.49,0.02,0.73-0.09c-0.03,0.01-0.06,0.02-0.09,0.04
		c0.19-0.08,0.4-0.13,0.6-0.16c0.16-0.01,0.33-0.01,0.49,0c0.19,0.03,0.37,0.08,0.55,0.15c0,0,0,0,0,0c0.24,0.12,0.5,0.17,0.77,0.1
		c0.23-0.06,0.48-0.24,0.6-0.46C129.93,180.86,129.83,180.19,129.33,179.94z"/>
	<path class="st10" d="M109.67,228.16c-2.14-0.66-4.56-0.34-6.46,0.86c-0.44,0.28-0.66,0.9-0.36,1.37c0.29,0.44,0.89,0.66,1.37,0.36
		c0.21-0.13,0.42-0.25,0.64-0.36c0.03-0.02,0.37-0.17,0.18-0.09c0.09-0.03,0.17-0.07,0.26-0.1c0.23-0.08,0.47-0.15,0.71-0.21
		c0.12-0.03,0.24-0.06,0.36-0.08c0.02,0,0.19-0.03,0.24-0.04c0.06-0.01,0.21-0.02,0.23-0.02c0.12-0.01,0.25-0.02,0.37-0.02
		c0.23-0.01,0.46,0,0.69,0.02c0.09,0.01,0.17,0.02,0.25,0.02c0.02,0.01,0.23,0.04,0.26,0.04c0.24,0.05,0.48,0.11,0.72,0.18
		c0.5,0.15,1.11-0.18,1.23-0.7C110.49,228.85,110.21,228.33,109.67,228.16z"/>
	<path class="st10" d="M114.9,130.24c-0.53-1.17-2.25-0.16-1.73,1.01c2.44,5.4,3.19,11.35,3.91,17.17c0.16,1.26,2.16,1.28,2,0
		C118.32,142.22,117.5,135.99,114.9,130.24z"/>
	<path class="st10" d="M120.27,126.08c-0.83,2.87-0.96,5.87-0.45,8.81c0.09,0.53,0.75,0.83,1.23,0.7c0.56-0.15,0.79-0.7,0.7-1.23
		c-0.45-2.58-0.28-5.24,0.45-7.75C122.56,125.38,120.63,124.85,120.27,126.08z"/>
	<path class="st10" d="M113.4,139.34c-0.81-2.66-1.95-5.22-3.38-7.6c-0.28-0.46-0.9-0.63-1.37-0.36c-0.46,0.27-0.64,0.9-0.36,1.37
		c1.35,2.24,2.41,4.62,3.18,7.12c0.16,0.52,0.7,0.84,1.23,0.7C113.22,140.43,113.56,139.86,113.4,139.34z"/>
	<path class="st4" d="M102.03,154.85c-0.28-0.56-0.57-1.12-0.85-1.69c-0.09-0.17-0.22-0.32-0.39-0.42
		c-0.14-0.13-0.31-0.22-0.51-0.27c-0.2-0.06-0.4-0.07-0.6-0.03c-0.2,0.01-0.39,0.07-0.56,0.18c-0.32,0.21-0.6,0.51-0.69,0.9
		c-0.02,0.13-0.04,0.27-0.05,0.4c0,0.27,0.07,0.52,0.2,0.76c0.28,0.56,0.57,1.12,0.85,1.69c0.09,0.17,0.22,0.32,0.39,0.42
		c0.14,0.13,0.31,0.22,0.51,0.27c0.2,0.06,0.4,0.07,0.6,0.03c0.2-0.01,0.39-0.07,0.56-0.18c0.32-0.21,0.6-0.51,0.69-0.9
		c0.02-0.13,0.04-0.27,0.05-0.4C102.23,155.34,102.17,155.08,102.03,154.85z"/>
	<path class="st4" d="M137.81,160.97c-0.06-0.19-0.16-0.35-0.31-0.48c-0.14-0.15-0.3-0.25-0.48-0.31c-0.18-0.09-0.37-0.14-0.58-0.13
		c-0.13,0.02-0.27,0.04-0.4,0.05c-0.25,0.07-0.47,0.2-0.66,0.39l-0.23,0.3c-0.14,0.23-0.2,0.49-0.2,0.76v0.84
		c-0.01,0.21,0.04,0.4,0.13,0.58c0.06,0.19,0.16,0.35,0.31,0.48c0.14,0.15,0.3,0.25,0.48,0.31c0.18,0.09,0.37,0.14,0.58,0.13
		c0.13-0.02,0.27-0.04,0.4-0.05c0.25-0.07,0.47-0.2,0.66-0.39l0.23-0.3c0.14-0.23,0.2-0.49,0.2-0.76v-0.84
		C137.94,161.34,137.9,161.15,137.81,160.97z"/>
	<path class="st4" d="M134.99,189.69c-0.06-0.19-0.16-0.35-0.31-0.48l-0.3-0.23c-0.23-0.14-0.49-0.2-0.76-0.2
		c-0.13,0.02-0.27,0.04-0.4,0.05c-0.25,0.07-0.47,0.2-0.66,0.39c-0.19,0.19-0.38,0.38-0.56,0.56c-0.15,0.14-0.25,0.3-0.31,0.48
		c-0.09,0.18-0.14,0.37-0.13,0.58c-0.01,0.21,0.04,0.4,0.13,0.58c0.06,0.19,0.16,0.35,0.31,0.48l0.3,0.23
		c0.23,0.14,0.49,0.2,0.76,0.2c0.13-0.02,0.27-0.04,0.4-0.05c0.25-0.07,0.47-0.2,0.66-0.39c0.19-0.19,0.38-0.38,0.56-0.56
		c0.15-0.14,0.25-0.3,0.31-0.48c0.09-0.18,0.14-0.37,0.13-0.58C135.13,190.06,135.08,189.87,134.99,189.69z"/>
	<path class="st4" d="M127.46,216.62c-0.19-0.66-0.38-1.31-0.56-1.97c-0.1-0.36-0.36-0.7-0.69-0.9c-0.17-0.11-0.36-0.17-0.56-0.18
		c-0.2-0.04-0.4-0.04-0.6,0.03c-0.36,0.12-0.71,0.34-0.9,0.69c-0.19,0.36-0.26,0.76-0.15,1.16c0.19,0.66,0.38,1.31,0.56,1.97
		c0.1,0.36,0.36,0.7,0.69,0.9c0.17,0.11,0.36,0.17,0.56,0.18c0.2,0.04,0.4,0.04,0.6-0.03c0.36-0.12,0.71-0.34,0.9-0.69
		C127.5,217.42,127.58,217.01,127.46,216.62z"/>
	<path class="st10" d="M171.52,147.18c-0.87-3.42-4.07-5.12-7.42-4.04c-4.28,1.38-7.28,5.69-8.98,9.64
		c-0.51,1.18,1.38,1.84,1.89,0.66c1.4-3.25,3.81-6.82,7.21-8.22c1.56-0.64,3.41-0.66,4.56,0.75c0.93,1.13,1.06,2.75,0.99,4.16
		c-0.17,3.75-1.55,7.53-2.63,11.1c-1.17,3.85-2.42,7.67-3.38,11.58c-1.08,4.39-1.78,8.87-1.61,13.4c0.05,1.27,2.04,1.42,2,0.13
		c-0.36-9.56,3.23-18.53,5.8-27.58C170.97,155.18,172.48,150.94,171.52,147.18z"/>
	<path class="st10" d="M88.79,208.16c-0.08-2.22-0.19-4.44-0.33-6.66c-0.09-1.48-0.21-3.09-1.03-4.38c-0.79-1.24-2.19-1.9-3.65-1.63
		c-1.67,0.31-2.88,1.6-3.61,3.07c-1.52,3.1-2.04,6.8-1.77,10.22c0.31,3.96,1.67,7.79,4.01,11.01c0.75,1.03,2.49,0.03,1.73-1.01
		c-3.88-5.34-5.28-13.32-2.15-19.38c0.69-1.33,2.62-3.03,3.79-1.16c0.83,1.33,0.7,3.31,0.78,4.8c0.12,2.07,0.21,4.15,0.28,6.22
		c0.04,1.04,0.06,2.08,0.09,3.11c0.01,0.52,0.02,1.04,0.03,1.56c0,0.2-0.06,0.92,0.04,1.19c-0.74,0.19-1.15,1.33-0.3,1.83
		c1.52,0.9,2.26-0.94,2.27-2.14C89,212.61,88.88,210.37,88.79,208.16z"/>
	<path class="st10" d="M82.65,185.49c-0.47-1.86-2.53-2.67-4.3-2.24c-2.13,0.52-3.2,2.72-3.73,4.65
		c-1.46,5.25-1.26,10.96,0.33,16.16c0.37,1.23,2.3,0.7,1.93-0.53c-1.22-4.02-1.58-8.3-0.89-12.46c0.27-1.67,0.57-3.77,1.71-5.1
		c0.69-0.81,2.66-1.41,3.03,0.05C81.04,187.27,82.97,186.74,82.65,185.49z"/>
	<path class="st10" d="M78.53,168.43c-1.79-0.7-3.79-0.16-5.25,1.01c-1.67,1.34-2.49,3.45-2.96,5.47c-1.1,4.78-0.95,9.81,0.3,14.55
		c0.33,1.24,2.26,0.72,1.93-0.53c-1.04-3.94-1.28-8.09-0.57-12.11c0.49-2.8,2.12-7.99,6.03-6.47
		C79.2,170.83,79.72,168.89,78.53,168.43z"/>
	<path class="st10" d="M232.07,231.07c-18.27-9.62-35.74-20.76-52.13-33.33c-4.64-3.56-9.19-7.23-13.66-11.01
		c-0.98-0.83-2.39,0.6-1.4,1.43c15.85,13.39,32.8,25.46,50.68,35.99c5.1,3.01,10.28,5.89,15.52,8.65
		C232.21,233.4,233.21,231.67,232.07,231.07z"/>
	<path class="st10" d="M217.69,280.79c-7.09-7.96-15.02-15.09-23.27-21.83c-4.08-3.33-8.23-6.58-12.41-9.79
		c-4.01-3.09-7.98-6.27-12.18-9.09c-4.61-3.09-9.61-5.68-15.11-6.71c-1.26-0.24-1.8,1.69-0.53,1.93c9.8,1.83,17.69,8.58,25.36,14.48
		c8.32,6.4,16.6,12.89,24.35,19.97c4.32,3.95,8.47,8.08,12.36,12.45C217.13,283.17,218.54,281.75,217.69,280.79z"/>
	<path class="st4" d="M151.99,190.21c-0.35-0.93-0.86-1.8-1.84-2.13c-1.93-0.66-3.58,1.04-3.97,2.79c-0.2,0.92-0.2,1.87-0.04,2.79
		c-0.45-0.23-0.91-0.45-1.4-0.6c-1.48-0.47-3.78-0.54-4.47,1.19c-0.64,1.61,0.81,3.09,1.91,4.06c1.2,1.06,2.57,1.95,4.05,2.58
		c1.74,0.75,3.57,1.18,5.46,1.26c0.69,0.03,0.99-0.52,0.95-1.05c0.17-0.16,0.3-0.38,0.31-0.68c0.09-2.27,0.16-4.54-0.14-6.79
		C152.66,192.46,152.41,191.31,151.99,190.21z"/>
	<path class="st4" d="M122.66,201.19c0.09-0.67,0.07-1.35-0.41-1.88c-0.94-1.02-2.48-0.54-3.28,0.39c-0.42,0.48-0.72,1.05-0.93,1.66
		c-0.19-0.29-0.4-0.56-0.64-0.81c-0.73-0.76-2.09-1.55-3.06-0.74c-0.91,0.76-0.51,2.11-0.17,3.05c0.37,1.03,0.91,2,1.59,2.86
		c0.8,1.01,1.75,1.86,2.86,2.53c0.4,0.24,0.76,0.01,0.91-0.32c0.16-0.04,0.3-0.13,0.41-0.31c0.79-1.33,1.57-2.66,2.12-4.11
		C122.33,202.75,122.56,201.98,122.66,201.19z"/>
	<path class="st4" d="M116.47,161.91c0.09-0.67,0.07-1.35-0.41-1.88c-0.94-1.02-2.48-0.54-3.28,0.39c-0.42,0.48-0.72,1.05-0.93,1.66
		c-0.19-0.29-0.4-0.56-0.64-0.81c-0.73-0.76-2.09-1.55-3.06-0.74c-0.91,0.76-0.51,2.11-0.17,3.05c0.37,1.03,0.91,2,1.59,2.86
		c0.8,1.01,1.75,1.86,2.86,2.53c0.4,0.24,0.76,0.01,0.91-0.33c0.16-0.04,0.3-0.13,0.41-0.31c0.79-1.33,1.57-2.66,2.12-4.11
		C116.13,163.48,116.36,162.7,116.47,161.91z"/>
	<path class="st4" d="M101.03,196.72c0.29-0.61,0.48-1.27,0.18-1.91c-0.59-1.26-2.2-1.28-3.24-0.64c-0.55,0.33-1.01,0.78-1.39,1.29
		c-0.1-0.33-0.21-0.66-0.36-0.97c-0.47-0.95-1.51-2.11-2.69-1.64c-1.09,0.44-1.14,1.86-1.1,2.86c0.04,1.09,0.25,2.18,0.64,3.21
		c0.45,1.21,1.1,2.31,1.95,3.28c0.31,0.35,0.72,0.24,0.96-0.03c0.16,0.01,0.33-0.03,0.48-0.17c1.16-1.02,2.31-2.06,3.27-3.27
		C100.23,198.1,100.69,197.44,101.03,196.72z"/>
	<path class="st4" d="M123.5,85.35c-0.48-0.13-1.14,0.16-1.23,0.7l-1.69,10.42c-0.09,0.53,0.14,1.08,0.7,1.23
		c0.48,0.13,1.14-0.16,1.23-0.7c0.56-3.47,1.13-6.94,1.69-10.42C124.28,86.04,124.06,85.5,123.5,85.35z"/>
	<path class="st4" d="M98.22,107.17c-0.55-1.13-1.11-2.26-1.66-3.39c-0.23-0.47-0.94-0.64-1.37-0.36c-0.48,0.31-0.61,0.86-0.36,1.37
		c0.55,1.13,1.11,2.26,1.66,3.39c0.23,0.47,0.94,0.64,1.37,0.36C98.34,108.23,98.46,107.67,98.22,107.17z"/>
	<path class="st4" d="M109.04,75.07c-0.13-1.27-2.13-1.28-2,0c0.69,6.97,1.61,13.91,2.76,20.82c0.21,1.27,2.14,0.73,1.93-0.53
		C110.6,88.62,109.7,81.86,109.04,75.07z"/>
	<g>
		<path class="st6" d="M118.16,177.37c-0.43,0.24-0.87,0.48-1.3,0.73c-0.12-0.07-0.25-0.13-0.38-0.17c0.08-0.16,0.15-0.32,0.24-0.48
			c0.63-1.2-1.01-2.24-1.95-1.49c-0.13-0.23-0.32-0.42-0.57-0.53c-0.56-0.25-1.09-0.03-1.5,0.37c-1.21,1.17-1.83,2.76-2.24,4.37
			c-0.13-0.37-0.59-0.73-0.97-0.74c-1.8-0.05-2.03,1.65-2.13,3.08c-0.11,1.5-0.04,3,0.22,4.48c0.2,1.12,1.49,1.3,2.15,0.76
			c0.28,0.38,0.75,0.57,1.2,0.56c0.07,0.48,0.41,0.91,0.9,1.04c0.26,0.07,0.55,0.05,0.82-0.04c0.14,0.38,0.48,0.71,0.86,0.81
			c0.62,0.17,1.22-0.12,1.5-0.69c0.89-1.79,1.78-3.57,2.66-5.36c0.85-1.71,1.9-3.43,2.22-5.33
			C120.03,177.86,119.02,176.89,118.16,177.37z"/>
		<path class="st6" d="M112.62,172.6c-0.48,0.21-0.96,0.42-1.44,0.63c0.4-0.47,0.32-1.22-0.1-1.64c-0.46-0.47-1.11-0.49-1.66-0.14
			c-0.21,0.14-0.43,0.27-0.64,0.41c0.1-0.18,0.2-0.36,0.31-0.54c0.74-1.23-1.31-2.45-2.14-1.3c-0.49,0.67-0.97,1.33-1.46,2
			c-0.28,0.38-0.31,0.78-0.19,1.13c-0.1,0.24-0.19,0.5-0.24,0.76c0.05-1.24-1.4-1.75-2.23-0.88c-1.53,1.57-2.36,3.63-3.13,5.65
			c-0.47,1.23,0.95,2.13,1.82,1.63c-0.03,0.17-0.06,0.33-0.1,0.5c-0.13,0.61,0.34,1.23,0.9,1.39c0.26,0.07,0.51,0.06,0.74-0.02
			c-0.05,0.91,0.2,1.74,1.19,2.3c0.4,0.22,0.91,0.09,1.26-0.14c1.33-0.9,1.65-2.73,2.17-4.15c0.03-0.08,0.06-0.16,0.09-0.24
			c0.45,0.32,1.1,0.4,1.55,0.05c1.99-1.61,3.61-3.52,4.94-5.7C114.84,173.32,113.56,172.19,112.62,172.6z"/>
		<path class="st50" d="M103.72,183.96c-0.25-0.65-0.68-1.22-1.15-1.73c-0.47-0.52-0.98-1.05-1.56-1.46
			c-0.43-0.3-0.92-0.51-1.46-0.44c-0.34,0.05-0.64,0.21-0.87,0.44c-0.55,0.2-0.95,0.73-0.87,1.35c0.17,1.28,0.67,2.53,1.44,3.57
			c0.44,0.59,0.97,1.15,1.62,1.5c0.88,0.48,2.07,0.21,2.62-0.64C104.02,185.76,104.06,184.84,103.72,183.96z"/>
		<path class="st50" d="M114.14,192.38c0.04-0.97-0.46-1.67-1.13-2.32c-0.57-0.55-1.2-1.09-1.96-1.35c-0.42-0.14-0.83-0.21-1.24-0.2
			c-0.89-0.52-1.88-0.72-2.81-0.04c-0.77,0.57-1.08,1.61-0.64,2.48c0.36,0.72,1.04,1.2,1.7,1.63c0.63,0.4,1.28,0.77,1.97,1.06
			c0.72,0.3,1.52,0.63,2.31,0.6C113.31,194.2,114.1,193.34,114.14,192.38z"/>
		<path class="st55" d="M107.1,183.42c-0.04-0.47-0.05-0.95-0.01-1.42c-0.65,0.68-1.22,1.45-1.89,2.1c0,0,0,0-0.01-0.01
			c-0.11-0.11-0.22-0.21-0.33-0.32c-0.22-0.21-0.44-0.42-0.65-0.64c-0.36-0.35-0.73-0.71-1.09-1.06c-0.87-0.85-1.74-1.7-2.61-2.55
			c-0.58-0.57-1.37,0.42-0.79,0.99c1.16,1.13,2.32,2.27,3.48,3.4c0.62,0.61,1.63,2.15,2.64,1.33c0.51-0.41,0.9-1.04,1.35-1.52
			C107.14,183.63,107.11,183.53,107.1,183.42z"/>
		<path class="st55" d="M100.03,178.89c0.96-2.07,1.95-4.11,2.97-6.15c0.35,0.58,0.56,1.21,0.61,1.93c0.04,0.65,0.95,0.71,1.21,0.18
			c0.71-1.48,1.64-2.83,2.78-4.01c0.05-0.05,0.59-0.57,0.67-0.77c0,0.25-0.13,1.02-0.15,1.11c-0.17,0.9-0.52,1.76-1,2.54
			c-0.42,0.68,0.54,1.48,0.99,0.79c0.71-1.1,1.61-2.04,2.72-2.75c0.07-0.05,0.15-0.09,0.23-0.13c0,0,0,0,0,0.01
			c-0.14,0.27-0.19,0.63-0.29,0.92c-0.25,0.71-0.57,1.39-0.94,2.06c-0.37,0.67,0.61,1.12,1.07,0.65c0.69-0.71,1.54-1.24,2.49-1.54
			c0.7-0.22,0.65,0.13,0.45,0.66c-0.16,0.42-0.37,0.83-0.61,1.22c0.04,0.02,0.08,0.02,0.11,0.04c0.11,0.06,0.19,0.14,0.26,0.23
			c0.2-0.07,0.42-0.07,0.66,0.03c0.07,0.03,0.13,0.07,0.19,0.12c0.48-0.8,0.95-1.76,0.78-2.64c-0.3-1.58-1.84-1.19-3.22-0.43
			c0.49-1.28,0.72-2.65-0.44-2.8c-0.71-0.09-1.56,0.55-2.16,1.04c0.29-1.29,0.21-2.45-1.01-2.42c-0.53,0.01-0.95,0.44-1.31,0.78
			c-0.49,0.47-0.95,0.96-1.38,1.48c-0.46,0.57-0.87,1.17-1.25,1.79c-0.25-0.61-0.61-1.17-1.07-1.67c-0.33-0.35-0.85-0.34-1.09,0.12
			c-1.19,2.34-2.34,4.71-3.44,7.09C98.53,179.12,99.68,179.63,100.03,178.89z"/>
		<path class="st55" d="M104.44,184.46c-0.43,0.53-0.86,1.06-1.28,1.6c-0.2,0.25-0.4,0.49-0.59,0.74c-0.1,0.12-0.2,0.25-0.3,0.37
			c-0.03,0.04-0.06,0.07-0.09,0.11c-0.82-0.67-1.58-1.46-2.31-2.22c-0.42-0.43-0.82-0.88-1.22-1.33c-0.31-0.36-0.68-0.73-0.97-1.13
			c0.04-0.05,0.08-0.1,0.12-0.15c0.09-0.12,0.19-0.24,0.28-0.36c0.18-0.22,0.35-0.43,0.54-0.64c0.38-0.44,0.78-0.87,1.18-1.28
			c0.24-0.25,0.15-0.69-0.1-0.89c-0.29-0.23-0.65-0.14-0.89,0.1c-0.53,0.54-1.04,1.1-1.53,1.69c-0.39,0.46-1.06,1.07-0.91,1.73
			c0.08,0.37,0.38,0.66,0.62,0.94c0.23,0.27,0.45,0.54,0.69,0.8c0.48,0.55,0.98,1.08,1.49,1.61c0.51,0.52,1.03,1.03,1.57,1.52
			c0.45,0.41,1.09,1.25,1.78,0.99c0.32-0.12,0.52-0.44,0.73-0.7c0.23-0.29,0.46-0.57,0.69-0.86c0.49-0.61,0.99-1.23,1.48-1.84
			C105.94,184.62,104.95,183.83,104.44,184.46z"/>
		<path class="st55" d="M120.41,176.45c-0.77-1.41-2.12-0.55-3.19,0.59c0.06-1.37-0.14-2.74-1.29-2.52
			c-0.71,0.13-1.31,1.01-1.72,1.66c-0.12-1.32-0.56-2.39-1.71-1.99c-0.5,0.18-0.76,0.71-1,1.15c-0.32,0.6-0.61,1.21-0.85,1.84
			c-0.26,0.68-0.47,1.38-0.63,2.09c-0.43-0.5-0.94-0.93-1.54-1.25c-0.42-0.23-0.92-0.05-0.99,0.45c-0.4,2.6-0.76,5.2-1.07,7.81
			c-0.1,0.81,1.16,0.93,1.26,0.12c0.27-2.26,0.58-4.52,0.91-6.77c0.51,0.44,0.91,0.98,1.18,1.64c0.24,0.6,1.12,0.38,1.2-0.21
			c0.21-1.63,0.67-3.2,1.39-4.68c0.03-0.06,0.39-0.72,0.4-0.94c0.08,0.24,0.19,1.01,0.21,1.1c0.12,0.91,0.06,1.84-0.16,2.73
			c-0.19,0.78,0.98,1.24,1.18,0.44c0.33-1.27,0.9-2.44,1.73-3.46c0.06-0.07,0.12-0.13,0.18-0.2c0,0,0,0,0,0.01
			c-0.05,0.3,0.02,0.66,0.01,0.96c-0.02,0.76-0.11,1.5-0.25,2.25c-0.14,0.76,0.93,0.88,1.22,0.28c0.44-0.89,1.08-1.66,1.88-2.24
			c0.59-0.43,0.66-0.07,0.63,0.49c-0.02,0.47-0.1,0.95-0.21,1.4c-0.45,1.91-1.46,3.63-2.42,5.32c-0.47,0.82-0.93,1.65-1.35,2.49
			c-0.44,0.88-0.75,1.85-1.2,2.72c0,0,0,0-0.01,0c-0.14-0.07-0.27-0.13-0.41-0.2c-0.27-0.13-0.55-0.27-0.82-0.4
			c-0.45-0.22-0.91-0.45-1.36-0.67c-1.09-0.54-2.18-1.07-3.28-1.61c-0.73-0.36-1.17,0.83-0.44,1.18c1.46,0.72,2.91,1.43,4.37,2.15
			c0.78,0.39,2.22,1.53,2.92,0.44c0.36-0.55,0.54-1.27,0.81-1.87c0.33-0.73,0.68-1.45,1.06-2.15c0.59-1.1,1.24-2.18,1.83-3.28
			c0.59-1.12,1.13-2.27,1.46-3.5C120.6,178.83,120.95,177.43,120.41,176.45z"/>
		<path class="st55" d="M113.61,190.34c-0.24,0.64-0.48,1.28-0.72,1.92c-0.11,0.29-0.22,0.59-0.33,0.88
			c-0.06,0.15-0.11,0.29-0.17,0.44c-0.02,0.04-0.03,0.08-0.05,0.13c-0.99-0.38-1.96-0.9-2.89-1.39c-0.53-0.28-1.05-0.58-1.57-0.88
			c-0.41-0.24-0.88-0.48-1.27-0.77c0.02-0.06,0.04-0.12,0.06-0.18c0.05-0.14,0.1-0.29,0.16-0.43c0.1-0.26,0.2-0.52,0.31-0.78
			c0.22-0.54,0.47-1.07,0.73-1.59c0.15-0.31-0.07-0.7-0.37-0.81c-0.35-0.13-0.66,0.07-0.81,0.37c-0.34,0.68-0.65,1.37-0.93,2.08
			c-0.22,0.56-0.67,1.35-0.33,1.93c0.19,0.33,0.57,0.51,0.88,0.7c0.3,0.19,0.6,0.37,0.9,0.55c0.63,0.37,1.27,0.72,1.92,1.06
			c0.65,0.34,1.3,0.66,1.96,0.96c0.56,0.25,1.43,0.85,2,0.39c0.27-0.22,0.36-0.58,0.47-0.89c0.13-0.34,0.26-0.69,0.39-1.03
			c0.28-0.74,0.56-1.47,0.83-2.21C115.08,190.03,113.89,189.58,113.61,190.34z"/>
		<path class="st55" d="M114.04,167.61c0.29-1.26,0.59-2.52,0.88-3.78c0.08-0.32-0.24-0.68-0.55-0.7c-0.37-0.03-0.62,0.21-0.7,0.55
			c-0.29,1.26-0.59,2.52-0.88,3.78c-0.08,0.32,0.24,0.68,0.55,0.7C113.72,168.19,113.96,167.96,114.04,167.61z"/>
		<path class="st55" d="M118.52,163.55c-0.35-0.14-0.66,0.05-0.82,0.35l-2.24,4.08c-0.16,0.3,0.06,0.71,0.35,0.82
			c0.35,0.14,0.66-0.05,0.82-0.35l2.24-4.08C119.03,164.08,118.81,163.67,118.52,163.55z"/>
		<path class="st55" d="M121.47,167.06c-0.24-0.29-0.58-0.3-0.89-0.12c-1.01,0.6-1.94,1.32-2.79,2.13
			c-0.24,0.23-0.35,0.61-0.12,0.89c0.2,0.24,0.63,0.36,0.89,0.12c0.85-0.81,1.78-1.53,2.79-2.13
			C121.63,167.77,121.67,167.3,121.47,167.06z"/>
	</g>
	<path class="st4" d="M72.25,77.59c-1.93,0-1.93,3,0,3C74.18,80.59,74.18,77.59,72.25,77.59z"/>
	<path class="st4" d="M57.8,98.24c-1.93,0-1.93,3,0,3C59.73,101.24,59.73,98.24,57.8,98.24z"/>
	<path class="st4" d="M64.29,108.69c-1.93,0-1.93,3,0,3C66.22,111.69,66.22,108.69,64.29,108.69z"/>
	<path class="st4" d="M43.72,94.3c-1.93,0-1.93,3,0,3C45.65,97.3,45.65,94.3,43.72,94.3z"/>
	<path class="st4" d="M150.73,84.76c-1.93,0-1.93,3,0,3C152.66,87.76,152.66,84.76,150.73,84.76z"/>
	<path class="st4" d="M160.96,80.82c-1.93,0-1.93,3,0,3C162.89,83.82,162.89,80.82,160.96,80.82z"/>
	<path class="st4" d="M131.75,67.65c-1.93,0-1.93,3,0,3C133.68,70.65,133.69,67.65,131.75,67.65z"/>
	<path class="st4" d="M144.14,98.99c-1.93,0-1.93,3,0,3C146.07,101.99,146.07,98.99,144.14,98.99z"/>
	<path class="st4" d="M88.2,108.57c-1.93,0-1.93,3,0,3C90.13,111.57,90.14,108.57,88.2,108.57z"/>
	<g>
		<path class="st30" d="M55.33,65.86c-2.48-0.2-3.91,2.02-4.35,4.16c-0.19,0.9-0.24,1.84-0.17,2.76c-0.65-0.36-1.32-0.7-2.02-0.94
			c-2.03-0.7-5.18-0.79-5.59,1.98c-0.33,2.22,1.71,4.01,3.53,4.8c1.98,0.87,4.16,0.71,6.22,1.22c0.34,0.08,0.68,0.08,0.99-0.01
			c0.42,0.08,0.88,0,1.26-0.26c2.96-2.08,4.53-6.05,3.78-9.59C58.57,68.12,57.44,66.03,55.33,65.86z"/>
		<path class="st10" d="M57.07,63.95c-2.09-0.76-4.35,1.39-5.44,2.96c-0.86,1.24-1.39,2.69-1.55,4.18c-1.11-0.87-2.39-1.48-3.85-1.4
			c-2.04,0.11-3.98,1.65-3.87,3.81c0.12,2.27,2.27,4.22,4.03,5.42c1.93,1.31,4.17,2.1,6.49,2.28c1.28,0.1,1.5-1.89,0.21-1.99
			c-3.14-0.25-6.89-1.93-8.44-4.85c-0.74-1.4,0.17-2.58,1.67-2.68c1.67-0.11,3.06,1.35,4.07,2.49c0.62,0.71,1.96,0.22,1.76-0.79
			c-0.41-2.08,0.16-4.22,1.51-5.86c0.49-0.59,1.8-1.96,2.66-1.72c0.73,0.2,0.97,1.43,1.07,2.04c0.73,4.41-0.53,9-3.26,12.51
			c-0.79,1.02,0.84,2.18,1.63,1.16c2.73-3.51,4.07-7.98,3.78-12.42C59.44,67.27,59.06,64.67,57.07,63.95z"/>
	</g>
	<g>
		<path class="st4" d="M142.3,93.89c-0.17-0.39-0.5-0.57-0.91-0.61c-2.05-0.21-3.96,0.57-5.64,1.69c-0.43-1.71-1.36-3.26-2.76-4.38
			l-0.01,0.01c-0.07-0.05-0.12-0.12-0.19-0.17c-0.02-0.02-0.04-0.02-0.06-0.03c-0.23-0.19-0.53-0.3-0.86-0.2
			c-0.48,0.13-0.9,0.73-0.7,1.23c1.06,2.66,1.69,5.45,1.84,8.31c0.05,1.04,1.29,1.3,1.86,0.5c0.84-1.16,2.07-1.98,3.28-2.71
			c1.35-0.82,2.71-1.58,3.96-2.54C142.4,94.75,142.44,94.22,142.3,93.89z"/>
		<path class="st4" d="M149.32,70.99c-2.65,0.55-5.02,1.8-6.97,3.59c-0.23-2.37-1.13-4.61-2.61-6.55c-0.57-0.75-1.73-0.13-1.73,0.65
			c0.04,8.96-0.62,17.03-3.43,26.88c-0.25,0.86-0.08,1.88,0.56,1.7c0.43,0.32,0.73-0.25,1.04-0.86c4.25-8.38,8.82-16.52,14.22-23.91
			C150.93,71.77,150.16,70.81,149.32,70.99z"/>
	</g>
	<g>
		<path class="st4" d="M103.9,84.29c-0.35-0.25-0.72-0.23-1.1-0.06c-1.87,0.88-3.1,2.52-3.97,4.35c-1.25-1.24-2.84-2.1-4.62-2.34
			l0,0.02c-0.08-0.01-0.17-0.04-0.25-0.05c-0.03,0-0.04,0.01-0.07,0.01c-0.3-0.05-0.6,0.02-0.84,0.27c-0.34,0.36-0.4,1.08,0.03,1.41
			c2.27,1.73,4.25,3.81,5.85,6.18c0.58,0.86,1.77,0.45,1.86-0.53c0.12-1.43,0.76-2.76,1.41-4.01c0.73-1.39,1.51-2.75,2.08-4.22
			C104.43,84.97,104.19,84.49,103.9,84.29z"/>
		<path class="st4" d="M98.14,61.03c-1.99,1.84-3.38,4.13-4.13,6.66c-1.42-1.91-3.34-3.37-5.61-4.28c-0.87-0.35-1.55,0.78-1.15,1.45
			c4.65,7.66,8.24,14.92,10.89,24.82c0.23,0.87,0.9,1.65,1.35,1.17c0.53,0.05,0.5-0.59,0.45-1.27c-0.67-9.37-0.94-18.7-0.11-27.82
			C99.92,60.88,98.77,60.45,98.14,61.03z"/>
	</g>
	<g>
		<path class="st4" d="M78.65,100.58c-0.42-0.07-0.75,0.11-1.01,0.44c-1.29,1.61-1.66,3.64-1.63,5.66
			c-1.67-0.56-3.47-0.62-5.18-0.05l0.01,0.02c-0.08,0.03-0.17,0.04-0.25,0.07c-0.02,0.01-0.04,0.03-0.06,0.04
			c-0.29,0.09-0.53,0.28-0.64,0.62c-0.15,0.47,0.12,1.15,0.66,1.25c2.81,0.55,5.5,1.53,7.98,2.95c0.9,0.52,1.79-0.38,1.43-1.3
			c-0.52-1.34-0.54-2.81-0.51-4.22c0.04-1.57,0.14-3.13,0-4.7C79.42,100.96,78.99,100.64,78.65,100.58z"/>
		<path class="st4" d="M63.17,82.3c-0.97,2.53-1.2,5.2-0.75,7.8c-2.12-1.08-4.49-1.54-6.92-1.35c-0.93,0.07-1.05,1.39-0.39,1.81
			c7.56,4.81,14,9.72,20.77,17.42c0.59,0.67,1.54,1.08,1.73,0.45c0.5-0.19,0.19-0.75-0.16-1.34c-4.76-8.1-9.13-16.35-12.43-24.88
			C64.69,81.37,63.47,81.49,63.17,82.3z"/>
	</g>
</g>
</svg>
