<?xml version="1.0" encoding="utf-8"?>
<!-- Generator: Adobe Illustrator 24.2.0, SVG Export Plug-In . SVG Version: 6.00 Build 0)  -->
<svg version="1.1" id="line" xmlns="http://www.w3.org/2000/svg" xmlns:xlink="http://www.w3.org/1999/xlink" x="0px" y="0px"
	 viewBox="0 0 340 250" style="enable-background:new 0 0 340 250;" xml:space="preserve">
<style type="text/css">
	.st0{fill:#BCDFDF;}
	.st1{fill:#99D3DD;}
	.st2{fill:#ABCB58;}
	.st3{fill:#C7D555;}
	.st4{fill:#FFFFFF;}
	.st5{fill:#AAB4B9;}
	.st6{fill:#FDDBBF;}
	.st7{fill:#F4CA99;}
	.st8{fill:#DC9F5C;}
	.st9{fill:#F6B1AC;}
	.st10{fill:#651811;}
	.st11{fill:#E9E56D;}
	.st12{fill:#9BC0D5;}
	.st13{fill:#DDE8F0;}
	.st14{fill:#EF7C68;}
	.st15{fill:#FFE1A2;}
	.st16{fill:#E9F4F4;}
	.st17{fill:#CDD95F;}
	.st18{fill:#B2DCDA;}
	.st19{fill:#9DAEB9;}
	.st20{fill:#F0EA7A;}
	.st21{fill:#CCDB81;}
	.st22{fill:#F4A5AD;}
	.st23{fill:#B2B2B2;}
	.st24{fill:#C0C4C6;}
	.st25{fill:#E3E8EA;}
	.st26{fill:#FFDB83;}
	.st27{fill:#C0C0C0;}
	.st28{fill:#6EC6D9;}
	.st29{fill:#878D91;}
	.st30{fill:#F0867B;}
	.st31{fill:#FFDE90;}
	.st32{fill:#C53C6C;}
	.st33{fill:#EEBF6D;}
	.st34{fill:#903D8F;}
	.st35{fill:#514E9C;}
	.st36{fill:#F9BB7A;}
	.st37{fill:#F28F6C;}
	.st38{fill:#FFE586;}
	.st39{fill:#6FC5D3;}
	.st40{fill:#9BD4E4;}
	.st41{fill:#F6B9C2;}
	.st42{fill:#F4A08B;}
	.st43{fill:#D1E8E8;}
	.st44{fill:#FCC249;}
	.st45{fill:#9F5A24;}
	.st46{fill:#BCE4FA;}
	.st47{fill:#B07147;}
	.st48{fill:#D88959;}
	.st49{fill:#FFEC96;}
	.st50{fill:#91D0D4;}
	.st51{fill:#651811;stroke:#651811;stroke-width:0.75;stroke-linecap:round;stroke-linejoin:round;stroke-miterlimit:10;}
	.st52{fill:#C1E3E6;}
	.st53{fill:#C4D4DE;}
	.st54{fill:#651811;stroke:#651811;stroke-width:0.5;stroke-miterlimit:10;}
	.st55{fill:#651811;stroke:#651811;stroke-width:0.5;stroke-linecap:round;stroke-linejoin:round;stroke-miterlimit:10;}
	.st56{fill:#D8E0E6;}
	.st57{fill:#FECB4A;}
	.st58{fill:#EEF8FE;}
	.st59{fill:#ADCE68;}
	.st60{fill:#FCD7BA;}
	.st61{fill:#651811;stroke:#651811;stroke-width:0.25;stroke-miterlimit:10;}
	.st62{fill:#F4A8B3;}
	.st63{fill:#F7AE6E;}
	.st64{fill:#FEDFB3;}
	.st65{fill:#F7B28C;}
	.st66{fill:#FFFBDC;}
	.st67{fill:#FCC24F;}
	.st68{fill:none;stroke:#651811;stroke-width:2;stroke-linecap:round;stroke-linejoin:round;stroke-miterlimit:10;}
	.st69{fill:#9EC65A;}
	.st70{fill:#A7D9DE;}
	.st71{fill:#CACCCE;}
	.st72{fill:#FBBE49;}
	.st73{fill:#9BC76B;}
	.st74{fill:#D9E181;}
	.st75{fill:#F6B9C5;}
	.st76{fill:#87CDD8;}
	.st77{fill:#651811;stroke:#651811;stroke-width:0.4;stroke-miterlimit:10;}
	.st78{fill:#A8D7CC;}
	.st79{fill:#CDEAFC;}
	.st80{fill:#D6D6D6;}
	.st81{fill:#F8C3C3;}
	.st82{fill:#D7BCA5;}
	.st83{fill:#FFD247;}
	.st84{fill:#F59B42;}
	.st85{fill:#FFF59B;}
	.st86{fill:#90D1DB;}
	.st87{fill:#EB935F;}
	.st88{fill:#DD7636;}
</style>
<g>
	<path class="st0" d="M222.28,111.66c-27.48-27.91-60.49-24.97-90.26-11.51c-21.35,9.65-51.59,57.78-18.36,94
		c8.48,9.24,38.1,31.83,82.6,7.75c39.14-21.18,41.21-47.14,39.46-61.27C234.41,130.09,229.82,119.32,222.28,111.66z"/>
	<path class="st4" d="M210.17,148.82c-0.94-1.73-3.12-2.3-4.85-2.9c-1.03-0.36-2.07-0.68-3.11-0.97c-0.51-0.14-1.15-0.22-1.72-0.38
		c0.08-0.24,0.15-0.48,0.23-0.7c0.21-0.57,0.43-1.14,0.63-1.71c0.47-1.34,0.87-2.76,0.87-4.2c0-2.43-1.19-4.57-2.9-6.23
		c-0.83-0.81-1.76-1.47-2.67-2.18c-0.28-0.22-0.67-0.45-0.82-0.79c0.08-0.15,0.21-0.3,0.3-0.41c1.36-1.61,2.97-2.63,3.37-4.88
		c0.21-1.2,0.13-2.38-0.09-3.57c-0.2-1.13-0.46-2.61-1.24-3.5c-0.73-0.83-1.65-1-2.71-1.07c-1.08-0.07-2.1-0.35-3.09-0.78
		c-2.19-0.96-4.14-2.4-6.33-3.38c-1.99-0.89-4.08-1.4-6.27-1.49c-2.71-0.11-5.43,0.46-7.9,1.57c0.65-2.02,1.07-4.13,1.39-6.15
		c0.33-2.08-0.12-4.45-2.35-5.25c-2.11-0.76-3.81,0.61-4.43,2.58c-1.4,4.44-2.01,9.31-2.37,13.98c-0.67,0.75-1.28,1.54-1.69,2.53
		c-1.38-1.87-3.68-2.81-6.13-2.38c-2.92,0.52-5.06,3.16-5.62,5.96c-0.13,0.63-0.17,2.62-0.76,2.86c-0.99,0.39-2.79-0.91-3.54-1.4
		c-2.34-1.49-4.71-3.21-7.64-3c-2.84,0.2-5.53,1.97-6.8,4.53c-1.49,3.01-0.28,5.83-0.09,8.94c0.17,2.68-1.98,3.63-3.85,5.05
		c-1.99,1.52-3.55,3.66-2.87,6.3c0.6,2.32,2.65,3.63,4.26,5.21c0.68,0.66,1.17,1.28,1.18,2.25c0.02,1.62-0.62,3.15-0.36,4.8
		c0.53,3.27,3.73,4.71,6.76,4.65c1.61-0.03,3.2-0.54,4.81-0.45c1.42,0.08,2.41,0.9,3.49,1.74c1.06,0.82,2.14,1.63,3.46,1.98
		c1.34,0.35,2.65,0.1,4,0.09c0.18,0,0.3,0,0.38,0.01c-0.06,0.61-0.37,1.34-0.57,1.89c-0.59,1.63-1.45,3.16-2.27,4.68
		c-7.6,14.21-13.17,29.46-16.45,45.24c-0.47,2.28,2.65,3.37,3.63,1.66c1.02,0.57,2.19,0.98,3.15,1.35
		c3.94,1.52,8.12,2.57,12.18,3.72c4.31,1.22,8.65,2.36,13.04,3.23c1.61,0.32,3.38,0.67,4.87-0.23c1.28-0.77,1.9-2.21,2.33-3.58
		c1.04-3.36,1.74-6.85,2.21-10.36c4.92,2.89,9.99,1.01,15.71-2.65c0.98-0.63,0.92-2.3,0.94-3.38c0.09-4.32-0.02-8.15-1-12.28
		c5.18-5.83,9.12-12.64,11.56-20.06c0.14-0.41,0.09-0.85-0.07-1.25c2.4-4.3,4.38-8.84,5.88-13.54c0.62-1.93,1.15-3.88,1.6-5.85
		C210.26,152.88,211.1,150.54,210.17,148.82z"/>
	<path class="st26" d="M310.65,103.29c-1.15-9.98-8.72-19.49-18.3-19.83c-0.36-0.31-0.77-0.59-1.27-0.79
		c-12.6-4.97-28.04,6.5-28.91,19.4c-0.97,14.3,8.69,27,23.71,26.52C299.66,128.15,312.33,117.82,310.65,103.29z"/>
	<path class="st26" d="M305.2,202.96c-1.15-9.98-8.72-19.49-18.3-19.83c-0.36-0.31-0.77-0.59-1.27-0.79
		c-12.6-4.97-28.04,6.5-28.91,19.4c-0.97,14.3,8.69,27,23.71,26.52C294.22,227.82,306.88,217.49,305.2,202.96z"/>
	<path class="st4" d="M293.79,111.59c-0.97-1.06-1.95-2.12-2.92-3.17c-0.49-0.53-0.96-1.11-1.48-1.61
		c-0.09-0.08-0.18-0.15-0.28-0.23c0.79-0.35,1.48-0.91,1.86-1.62c0.12-0.23,0.21-0.46,0.29-0.69c0.8-0.69,1.43-1.54,1.7-2.6
		c0.49-1.94-0.4-3.98-2.11-4.97c-0.06-0.03-0.12-0.06-0.18-0.09c-1.53-2.68-5.23-3.26-7.75-1.31c-2.45,1.89-2.88,5.41-2.22,8.24
		c0.4,1.72,2.01,2.73,3.66,2.91c-1.69,1.2-3.11,2.59-4.34,4.26c-0.52,0.7-0.97,1.45-1.36,2.24c-0.33,0.67-0.69,1.35-0.71,2.11
		c-0.01,0.38,0.07,0.74,0.2,1.09c0,0,0,0,0,0c3.27,0.06,6.5,0.71,9.77,0.58c1.59-0.31,3.18-0.63,4.76-0.95
		C294.62,115.38,294.97,112.89,293.79,111.59z"/>
	<path class="st4" d="M287.85,207.49c2.27-3.22,2.82-7.83-0.41-10.67c-1.54-1.35-3.62-2.07-5.66-1.64
		c-1.12,0.24-2.03,0.83-2.81,1.58c-1.05-1.33-2.35-2.47-4.15-2.5c-1.33-0.02-2.41,0.65-3.07,1.65c-0.55-0.03-1.11,0.19-1.37,0.72
		c-1.07,2.13-1.59,4.52-1.39,6.9c-1.04,0.85-1.89,1.76-1.93,3.34c-0.03,1.05,0.98,1.62,1.9,1.45c1.65-0.3,3.25-0.9,4.68-1.79
		c1.08-0.68,2.55-2.46,3.92-2.39c1.13,0.06,1.3,1.64,1.14,2.48c-0.32,1.59-1.34,3.02-2.01,4.48c-0.67,1.46-1.47,3.24-0.14,4.6
		c1.15,1.19,3.42,1.29,4.96,1.45c1.83,0.18,3.66,0.09,5.48-0.21c1.44-0.23,3.06-0.57,4.06-1.72
		C293.28,212.62,290.31,209.38,287.85,207.49z"/>
	<g>
		<path class="st1" d="M236.84,129c0.24-0.47,0.15-0.93-0.13-1.36c-1.42-2.12-3.66-3.33-6.05-4.06c1.29-1.76,2.04-3.86,2.01-6.08
			l-0.02,0c0-0.11,0.02-0.21,0.01-0.32c0-0.03-0.02-0.05-0.02-0.08c0-0.37-0.13-0.73-0.49-0.98c-0.5-0.35-1.4-0.29-1.72,0.3
			c-1.7,3.1-3.88,5.91-6.49,8.29c-0.95,0.87-0.23,2.25,0.99,2.18c1.77-0.11,3.51,0.42,5.17,0.99c1.84,0.64,3.64,1.34,5.54,1.77
			C236.11,129.76,236.65,129.39,236.84,129z"/>
		<path class="st1" d="M264.99,119.68c-2.61-2.09-6.43-5.4-9.67-5.85c2.08-2.08,2.95-6.23,3.64-9.17c0.27-1.13-1.24-1.76-1.98-1.14
			c-8.52,7.09-13.73,13.35-27.33,18.6c-1.04,0.4-2.33,2.22-1.66,2.69c0.03,0.66,1.66,0.8,2.49,0.61c11.34-2.54,22.7-5.04,33.92-3.53
			C265.5,122.04,265.83,120.34,264.99,119.68z"/>
	</g>
	<g>
		<path class="st1" d="M222.82,185.67c0.51-0.15,0.78-0.52,0.9-1.02c0.59-2.48-0.06-4.95-1.16-7.19c2.17-0.26,4.22-1.14,5.82-2.67
			l-0.02-0.02c0.08-0.07,0.16-0.13,0.24-0.21c0.02-0.02,0.03-0.05,0.05-0.07c0.28-0.25,0.45-0.6,0.39-1.02
			c-0.08-0.61-0.74-1.22-1.4-1.06c-3.43,0.86-6.96,1.19-10.49,0.91c-1.28-0.1-1.8,1.37-0.92,2.2c1.29,1.22,2.09,2.86,2.79,4.46
			c0.78,1.78,1.5,3.58,2.48,5.27C221.76,185.65,222.4,185.79,222.82,185.67z"/>
		<path class="st1" d="M254.71,202.93c-0.25-3.34-0.44-8.39-2.31-11.06c2.94,0.1,6.57-2.09,9.19-3.58c1.01-0.57,0.44-2.1-0.52-2.23
			c-11-1.4-25.01-3.96-38.12-10.34c-1-0.49-3.22-0.19-3.1,0.62c-0.46,0.47,0.55,1.76,1.25,2.24c9.59,6.57,25.05,16.19,31.59,25.43
			C253.33,204.91,254.79,204,254.71,202.93z"/>
	</g>
	<g>
		<path class="st1" d="M104.72,184.51c-0.16,0.5,0,0.94,0.35,1.32c1.74,1.87,4.15,2.69,6.63,3.02c-0.98,1.95-1.39,4.14-0.99,6.33
			l0.02,0c0.02,0.1,0.02,0.21,0.04,0.31c0.01,0.03,0.03,0.05,0.04,0.08c0.06,0.37,0.25,0.7,0.64,0.89c0.55,0.27,1.43,0.06,1.65-0.58
			c1.18-3.33,2.86-6.46,5.05-9.24c0.79-1.01-0.14-2.26-1.33-1.99c-1.73,0.4-3.53,0.16-5.26-0.14c-1.92-0.33-3.81-0.73-5.76-0.85
			C105.32,183.63,104.85,184.09,104.72,184.51z"/>
		<path class="st1" d="M78.46,198.28c2.92,1.64,7.23,4.28,10.5,4.19c-1.71,2.39-1.9,6.63-2.1,9.64c-0.08,1.16,1.51,1.53,2.14,0.8
			c7.25-8.38,11.37-15.41,23.94-22.79c0.96-0.56,1.94-2.57,1.2-2.92c-0.14-0.65-1.77-0.52-2.56-0.2c-10.78,4.36-21.58,8.66-32.89,9
			C77.58,196.03,77.53,197.76,78.46,198.28z"/>
	</g>
	<g>
		<path class="st1" d="M111.16,139.77c-0.45,0.27-0.63,0.7-0.62,1.21c0.05,2.55,1.29,4.78,2.91,6.68c-2.03,0.79-3.8,2.15-4.97,4.04
			l0.02,0.01c-0.06,0.09-0.13,0.17-0.18,0.26c-0.02,0.03-0.01,0.05-0.03,0.08c-0.2,0.31-0.28,0.69-0.12,1.09
			c0.23,0.57,1.02,1,1.61,0.68c3.11-1.69,6.45-2.88,9.94-3.49c1.27-0.22,1.4-1.77,0.34-2.36c-1.55-0.86-2.73-2.25-3.81-3.62
			c-1.2-1.53-2.34-3.09-3.71-4.48C112.2,139.52,111.54,139.55,111.16,139.77z"/>
		<path class="st1" d="M82.43,132.44c1.07,3.17,2.51,8.01,5,10.14c-2.87,0.64-5.84,3.66-8.01,5.76c-0.83,0.81,0.1,2.15,1.05,2.03
			c11-1.38,18.76-3.84,33.04-0.93c1.09,0.22,3.16-0.62,2.84-1.37c0.33-0.57-0.97-1.57-1.77-1.86c-10.93-3.97-21.83-7.99-30.47-15.32
			C83.28,130.18,82.09,131.43,82.43,132.44z"/>
	</g>
	<g>
		<path class="st1" d="M137.25,94.16c-0.51-0.13-0.94,0.05-1.3,0.42c-1.77,1.84-2.46,4.29-2.65,6.79c-2-0.88-4.21-1.16-6.37-0.64
			l0.01,0.02c-0.1,0.02-0.21,0.03-0.31,0.06c-0.03,0.01-0.05,0.03-0.08,0.04c-0.37,0.08-0.69,0.29-0.85,0.69
			c-0.24,0.57,0.02,1.43,0.67,1.62c3.39,0.99,6.61,2.5,9.5,4.53c1.05,0.74,2.25-0.27,1.91-1.43c-0.49-1.71-0.35-3.52-0.15-5.26
			c0.23-1.93,0.52-3.84,0.53-5.8C138.16,94.71,137.67,94.27,137.25,94.16z"/>
		<path class="st1" d="M122.05,68.7c-1.48,3.01-3.87,7.45-3.61,10.71c-2.49-1.58-6.72-1.53-9.74-1.57
			c-1.16-0.02-1.45,1.59-0.68,2.18c8.77,6.78,16.01,10.5,24.08,22.64c0.62,0.93,2.68,1.79,2.98,1.03c0.64-0.17,0.42-1.8,0.06-2.56
			c-4.94-10.52-9.84-21.07-10.8-32.35C124.24,67.69,122.52,67.74,122.05,68.7z"/>
	</g>
	<path class="st6" d="M190.15,129.13c-1.48-0.74-3.37-0.31-4.7-1.32c-1.76-1.33-3.05-2.99-5.43-3.13c-2.88-0.18-4.89,1.76-7.51,2.48
		c-0.89,0.25-1.58,0.25-2.26-0.4c-0.99-0.94-1.68-1.66-3.08-1.97c-1.04-0.23-2.07,0.71-2.22,1.7c-0.43,0.17-0.81,0.5-1.05,1.04
		c-3.36,7.48-1.03,15.98,4.98,20.98c-1.9,2.46-2.74,6.51-0.72,8.68c1.72,1.84,4.99,2.28,6.56-0.02c0.84-1.23,0.97-2.82,1.04-4.27
		c0.01-0.18,0.01-0.36,0.01-0.54c2.69,1.38,5.72,1.73,8.59-0.07c3.76-2.36,5.86-6.69,6.91-10.86c0.53-2.09,0.82-4.23,0.97-6.38
		C192.4,132.78,192.51,130.3,190.15,129.13z"/>
	<g>
		<path class="st15" d="M161.17,149.95L161.17,149.95c0.01,0,0.02,0.01,0.03,0.01c0,0,0,0,0,0
			C161.19,149.95,161.18,149.95,161.17,149.95z"/>
		<path class="st15" d="M200.08,120.37c-2.65-0.11-5.14-0.96-7.23-2.63c-2.24-1.79-3.61-4.35-6.26-5.65
			c-2.65-1.29-5.97-1.22-8.81-0.75c-2.13,0.36-4.16,1.06-6.07,2.02c0.3-2.2,0.54-4.41,0.7-6.63c0.19-2.65,0.72-6.33-2.32-7.58
			c-0.87-0.36-1.77-0.01-2.35,0.66c-0.14,0.16-0.26,0.34-0.38,0.51c-0.04-0.12-0.07-0.24-0.11-0.35c-0.48-1.39-1.11-3.14-2.38-3.99
			c-1.79-1.2-3.78,0.26-4.05,2.17c-0.04,0.3-0.05,0.61-0.07,0.93c-0.18-0.13-0.37-0.24-0.58-0.34c-1.53-0.71-3.26-0.15-4.13,1.27
			c-1.76,2.87,0.07,6.75,1.47,9.38c1.2,2.25,2.66,4.29,4.35,6.15c-0.12,0.1-0.24,0.19-0.35,0.29c-1.19-0.85-2.73-1.17-4.34-0.75
			c-2.57,0.66-4.49,2.7-5.6,5.04c-1.05,2.22-1.2,4.58-1.1,6.98c-0.19-0.1-0.37-0.19-0.5-0.26c-1.25-0.73-2.55-1.37-3.93-1.84
			c-2.73-0.94-5.99-1.67-8.56,0.06c-2.12,1.42-2.9,4.07-2.81,6.51c0.05,1.4,0.43,2.75,0.79,4.09c0.23,0.86,1.07,2.66,0.29,3.37
			c-0.79,0.71-2.54,0.67-3.51,0.96c-1.44,0.43-2.67,1.23-3.39,2.59c-0.63,1.19-0.67,2.54-0.02,3.72c0.69,1.25,2.06,1.97,3.24,2.69
			c1.08,0.65,2.55,1.15,3.48,1.99c0.54,0.49-0.28,1.72-0.45,2.49c-0.58,2.54,1.1,4.84,3.51,5.59c1.43,0.45,2.88,0.34,4.35,0.18
			c0.96-0.1,2.34-0.4,3.24,0.17c0.89,0.57,0.72,2.22,1.04,3.13c0.44,1.26,1.44,2.33,2.72,2.72c2.98,0.9,4.76-2.42,4.85-4.92
			c0.05-1.33-0.24-2.56-0.61-3.78c0.72,0.35,1.58,0.45,2.42,0.31c2.72-0.44,5.44-1.43,7.95-2.55c1.15-0.51,2.3-1.26,2.78-2.49
			c0.3-0.77,0.24-1.65-0.11-2.4c-0.16-0.34-0.38-0.64-0.63-0.91c-0.19-0.2-0.39-0.38-0.58-0.56c0.18,0.18-0.1-0.1-0.15-0.15
			c-0.96-0.96-1.83-2-2.61-3.11c-0.2-0.28-0.39-0.57-0.58-0.86c-0.06-0.09-0.12-0.19-0.18-0.29c-0.01-0.02-0.2-0.35-0.2-0.34
			c-0.34-0.6-0.65-1.22-0.94-1.85c-0.07-0.16-0.18-0.31-0.3-0.45c0.57-2.52,0.6-5.25,0.63-7.81c0.01-1.49,0.07-2.99,0.35-4.46
			c0.13-0.68,0.33-1.34,0.6-1.99c0.04-0.08,0.11-0.29,0.19-0.45c0.07,0,0.14-0.01,0.24-0.02c0.25,0,0.5,0,0.75-0.01
			c1.98-0.06,3.95-0.44,5.82-1.09c0.35,0.76,1.05,1.32,2.02,1.11c3.61-0.76,7.28-1.21,10.96-1.29c1.01-0.02,3.18-0.37,3.99,0.41
			c0.38,0.36,0.53,1.14,0.72,1.61c0.26,0.64,0.56,1.29,0.99,1.84c1.13,1.47,2.63,2.03,4.22,1.96c-0.44,0.64-0.54,1.5,0.05,2.3
			c0.04,0.06,0.09,0.12,0.13,0.17c-0.21,0.25-0.36,0.57-0.4,0.95c-0.97,7.84-3.5,18.35-12.48,20.5c-1.52,0.36-2.51,2.58-0.9,3.58
			c2.14,1.34,4.29,2.68,6.43,4.02c1.06,0.66,2.56,0.42,3.05-0.86c1.03-2.68,2.22-5.37,3.77-7.79c0.72-1.13,1.57-2.26,2.62-3.07
			c0.39-1.32,1.5-2.34,2.94-2.49c0.47-0.05,0.93,0,1.37,0.1c0.25-0.79,0.03-1.77-0.61-2.38c-0.91-0.86,0.24-1.95,0.75-2.59
			c0.98-1.23,1.47-2.66,1.31-4.24c-0.08-0.73-0.29-1.44-0.57-2.12c0.04-0.25,0.08-0.51,0.11-0.76c0.17-1.29-0.8-2.1-1.83-2.18
			c-0.84-1.17-1.78-2.27-2.56-3.32c-0.14-0.19-0.3-0.33-0.46-0.45c3.23-1.37,6.19-4.63,6.53-7.49
			C201.94,121.59,201.17,120.42,200.08,120.37z M153.45,150.78c-0.14,0.31-0.29,0.63-0.41,0.95c-0.03-0.55,0-1.1,0.26-1.58
			c0.22-0.42,0.58-0.75,1-1.04C153.99,149.66,153.71,150.21,153.45,150.78z M161.76,108.8c-0.85-1.42-1.73-3.01-2.15-4.66
			c0.38,0.74,0.72,1.5,1.09,2.23c0.5,1.01,0.98,2.03,1.46,3.05C162.03,109.22,161.89,109.01,161.76,108.8z M185.65,157.7
			c-0.36-0.23-0.73-0.45-1.09-0.68c0.68-0.37,1.33-0.77,1.95-1.22C186.21,156.43,185.92,157.06,185.65,157.7z"/>
	</g>
	<path class="st4" d="M176.16,143.35c-0.06-0.12-0.14-0.21-0.25-0.29c-0.07-0.04-0.15-0.08-0.22-0.13
		c-0.17-0.07-0.34-0.09-0.52-0.06l-0.01,0c-0.02-0.01-0.03-0.03-0.05-0.03c-0.12-0.06-0.25-0.08-0.39-0.06
		c-0.14-0.01-0.27,0.02-0.39,0.08c-0.07,0.04-0.15,0.09-0.22,0.13c-0.14,0.11-0.24,0.25-0.3,0.41c-0.02,0.08-0.04,0.17-0.06,0.25
		c-0.02,0.18,0,0.36,0.08,0.53c0.08,0.2,0.25,0.41,0.43,0.53c0.2,0.14,0.39,0.21,0.63,0.25c0.12,0.02,0.24,0.01,0.36,0
		c0.11-0.01,0.26-0.06,0.34-0.09c0.11-0.03,0.21-0.11,0.3-0.17c0.01-0.01,0.02-0.02,0.03-0.03c0.07-0.07,0.14-0.14,0.21-0.22
		c0.08-0.1,0.14-0.22,0.16-0.35c0.04-0.13,0.05-0.26,0.03-0.39C176.29,143.58,176.24,143.46,176.16,143.35z"/>
	<path class="st4" d="M176.21,143.03c-0.01-0.03-0.07-0.23-0.07-0.26c0,0,0,0,0,0c0,0,0-0.01,0-0.01c0-0.01,0-0.01-0.01-0.02
		c0,0,0-0.01,0-0.01c-0.01-0.01-0.13-0.21-0.14-0.22c0,0,0,0,0,0c0,0-0.01-0.01-0.01-0.01c-0.05-0.06-0.12-0.13-0.2-0.19
		c0,0,0,0,0,0c-0.04-0.02-0.07-0.04-0.11-0.06c0.12,0.07-0.08-0.05-0.11-0.06c0,0,0,0-0.01,0c0,0,0,0,0,0
		c-0.01,0-0.25-0.06-0.25-0.07c0,0-0.01,0-0.01,0c0,0,0,0,0,0c-0.01,0-0.26,0-0.27,0c0,0-0.01,0-0.01,0c-0.01,0-0.03,0.01-0.05,0.01
		c-0.06-0.01-0.12-0.04-0.18-0.03c-0.14-0.01-0.27,0.02-0.39,0.08c-0.07,0.04-0.15,0.09-0.22,0.13c-0.14,0.11-0.24,0.25-0.3,0.41
		c-0.02,0.08-0.04,0.17-0.06,0.25c-0.02,0.18,0,0.36,0.08,0.53c0.06,0.11,0.13,0.22,0.2,0.33c0.01,0.02,0.03,0.04,0.04,0.05
		c0.01,0.01,0.01,0.02,0.02,0.02c0,0,0.01,0.01,0.01,0.01c0.06,0.06,0.13,0.13,0.19,0.19c0.01,0.01,0.03,0.03,0.05,0.04
		c0,0,0.01,0.01,0.01,0.01l0.01,0c0.06,0.03,0.17,0.1,0.22,0.13c0.01,0,0.02,0.01,0.03,0.01c0.01,0,0.02,0.01,0.03,0.01
		c0.07,0.02,0.18,0.05,0.26,0.07c0,0,0,0,0.01,0c0.01,0,0.01,0,0.02,0c0.01,0,0.02,0,0.03,0c0.05,0,0.22,0,0.27,0c0,0,0.01,0,0.01,0
		c0.01,0,0.01,0,0.02,0c0.1-0.01,0.2-0.04,0.29-0.08c0.04-0.02,0.11-0.06,0.12-0.07c0.01,0,0.08-0.05,0.12-0.07
		c0.04-0.03,0.09-0.09,0.1-0.1c0.01-0.01,0.07-0.07,0.1-0.1c0,0,0-0.01,0.01-0.01c0,0,0,0,0,0c0.02-0.03,0.11-0.2,0.13-0.23
		c0.01-0.01,0.01-0.02,0.01-0.04c0.01-0.04,0.06-0.21,0.07-0.25c0,0,0,0,0,0c0,0,0-0.01,0-0.01c0-0.01,0-0.01,0-0.02
		c0-0.01,0-0.01,0-0.02c0-0.05,0-0.11,0-0.14c0-0.03,0-0.09,0-0.14c0,0,0-0.01,0-0.01C176.22,143.05,176.21,143.04,176.21,143.03z"
		/>
	<path class="st41" d="M157.28,139.43c-1.65-0.76-3.55-0.5-5.12,0.35c-0.75,0.4-1.43,0.92-2.1,1.44c-0.1,0.08-0.2,0.16-0.31,0.25
		c0.02-0.03,0.03-0.07,0.05-0.1c0.46-0.88,1.01-1.7,1.49-2.57c0.97-1.75,1.99-4.08,1.19-6.08c-0.93-2.31-3.48-2.48-5.39-1.31
		c-1,0.61-1.89,1.4-2.81,2.12c-0.45,0.36-0.91,0.76-1.38,1.16c0.11-0.79,0.37-1.62,0.52-2.08c0.51-1.61,1.35-3.28,1.48-4.98
		c0.14-1.79-0.9-3.33-2.64-3.79c-0.73-0.19-1.5-0.2-2.24-0.07c-0.44,0.08-0.85,0.2-1.26,0.28c-0.35-0.09-0.71-0.09-1.05,0.01
		c-0.04-0.01-0.08,0-0.12-0.01c-1.05-0.27-2.11,0.77-2.23,1.74c-0.09,0.75,0.21,1.34,0.71,1.73c-0.04,0.69-0.02,1.38,0.06,2.09
		c0.17,1.44,0.65,3.01,0.27,4.46c-0.6,2.3-3.07,3.8-4.95,4.96c-1.14,0.7-2.31,1.39-2.9,2.65c-0.65,1.39-0.39,2.98,0.57,4.16
		c0.94,1.16,2.27,1.71,3.65,2.16c1.36,0.45,2.09,0.76,1.98,2.36c-0.1,1.54-0.61,2.99-0.52,4.56c0.09,1.52,0.83,3.06,2.07,3.98
		c1.24,0.91,2.77,0.96,4.18,0.41c1.26-0.49,2.14-1.12,3.53-0.81c0.99,0.22,1.96,0.81,2.53,1.66c0.72,1.08,0.8,2.51,2.18,3.07
		c3.52,1.42,4.73-3.83,4.54-6.18c-0.14-1.68-0.85-3.25-1.01-4.92c-0.14-1.38,0.32-2.4,1.15-3.47c1.72-2.22,3.97-3.9,4.99-6.61
		C158.79,140.99,158.28,139.89,157.28,139.43z M140.13,129.86c-0.1-0.67-0.16-1.34-0.11-1.99c0.26-0.05,0.51-0.1,0.76-0.17
		c-0.19,0.59-0.49,1.69-0.54,1.84C140.2,129.65,140.16,129.75,140.13,129.86z"/>
	<path class="st41" d="M196.92,142.62c-1.12-0.18-2.28,0.27-3.29,0.7c-3.5,1.5-6.27,4.3-7.91,7.71c-0.21,0.43-0.19,0.92-0.04,1.36
		c-0.09,0.03-0.18,0.04-0.27,0.08c-0.71,0.35-1.23,0.82-1.66,1.36c-0.43-0.48-1.1-0.71-1.81-0.69c-1.78,0.05-3.27,1.64-3.4,3.37
		c-0.14,1.92,1.47,3.71,3.38,3.82c0.78,0.04,1.48-0.16,2.1-0.52c0.07,1.24,0.27,2.62,1.25,3.35c2.72,2.02,4.99-2.08,5.7-4.15
		c0.56-1.64,0.84-3.35,1.13-5.05c0.58-0.73,1.04-1.57,1.55-2.36c0.5-0.78,1.02-1.55,1.55-2.31c0.27-0.38,0.54-0.75,0.81-1.13
		c0.03-0.04,0.07-0.09,0.11-0.13c0.01,0,0.01,0,0.01,0.01c0.61,0.21,1.27,0.16,1.86-0.1c1.1-0.5,1.71-1.7,1.53-2.87
		C199.32,143.78,198.17,142.82,196.92,142.62z"/>
	<path class="st59" d="M199.41,173.49c-0.8-0.82-2.21-0.73-3.5-0.44c-0.31-0.17-0.65-0.32-1.07-0.39c-0.98-0.17-1.98,0.11-2.83,0.6
		c-0.65,0.38-1.22,1.11-1.93,0.66c-0.69-0.43-0.98-1.42-1.25-2.14c-0.41-1.1-0.77-2.21-1.2-3.3c-0.76-1.97-1.73-3.94-3.13-5.54
		c-1.53-1.74-3.52-3.09-5.83-3.5c-2.26-0.4-4.79,0.54-5.59,2.83c-0.77,2.22-0.09,4.88,0.34,7.11c0.24,1.23,0.49,2.46,0.56,3.71
		c0.03,0.52,0.05,1.21-0.06,1.83c-1.27-0.79-2.38-2.08-3.23-3.15c-1.33-1.69-2.4-3.55-3.44-5.42c-1.07-1.94-2.12-3.89-3.32-5.76
		c-1.19-1.86-2.97-4.14-5.5-3.49c-1.05,0.27-1.86,1.12-1.69,2.27c0,0.03,0.02,0.05,0.02,0.08c-0.41,0.08-0.8,0.29-1.14,0.66
		c-5.85,6.6-3.78,16.34,1.44,22.58c2.86,3.43,6.54,6.04,10.39,8.24c3.67,2.1,7.81,4.79,12.18,4.78c0.27,0,0.54-0.01,0.8-0.03
		c1.12,0.35,2.32,0.42,3.58,0.07c3.64-1.02,6.35-4.9,8.61-7.69c2.62-3.23,4.99-6.67,6.65-10.5
		C199.8,176.35,200.52,174.63,199.41,173.49z"/>
	<path class="st59" d="M190.34,205.77c-1.21-3.61-1.96-7.35-2.3-11.14c-0.2-2.23-3.82-2.21-3.96,0.05
		c-0.02,0.25-0.04,0.49-0.06,0.73c-0.28,0.25-0.51,0.53-0.73,0.83c-0.28-0.21-0.6-0.36-0.93-0.4c-1.15-0.14-2,0.68-2.23,1.74
		c-0.54,2.54-1.08,5.08-1.62,7.62c-0.27,1.25-0.53,2.49-0.8,3.74c-0.32,1.48-0.26,3.11,1.41,3.74c1.17,0.44,2.76-0.1,3.93-0.36
		c1.29-0.28,2.6-0.61,3.85-1.05c1.23-0.43,2.23-1.34,2.58-2.61c0.04-0.13,0.04-0.26,0.06-0.39
		C190.42,207.75,190.66,206.71,190.34,205.77z"/>
	<path class="st6" d="M206.12,167.75c-0.22-1.34-1.46-2.23-2.81-2.03c-0.33,0.05-0.63,0.17-0.91,0.32
		c-0.26-0.38-0.63-0.68-1.11-0.86c-1.26-0.46-2.15,0.21-2.93,1.04c-0.88-0.9-2.35-0.94-3.4-0.12c-1.45,1.14-2.51,3.04-3.06,4.77
		c-0.13,0.43-0.14,0.89-0.02,1.32c1.21-0.49,2.57-0.48,3.83-0.09c0.02-0.06,0.05-0.12,0.07-0.18c0.27,0.26,0.6,0.45,0.92,0.53
		c0.75,0.19,1.41-0.07,1.94-0.58c0.07,0.07,0.15,0.14,0.25,0.2c0.72,0.49,1.75,0.54,2.44-0.04c0.58-0.49,1.16-0.98,1.74-1.47
		c0.09-0.07,0.17-0.15,0.26-0.22c0.28,0.1,0.58,0.13,0.89,0.05C205.46,170.09,206.34,169.1,206.12,167.75z"/>
	<path class="st41" d="M169.31,137.34c-0.7-1-1.53-1.88-2.63-2.44c-0.58-0.3-1.25-0.42-1.9-0.42c-0.85,0.01-1.55,0.26-2.26,0.73
		c-0.78,0.52-0.94,1.75-0.49,2.55c-0.13,0.35-0.23,0.71-0.27,1.08c-0.26,2.18,0.41,4.66,2.33,5.92c0.96,0.63,2.07,0.96,3.22,0.81
		c1.11-0.15,2.16-0.76,2.84-1.65C171.72,141.87,170.62,139.21,169.31,137.34z"/>
	<path class="st41" d="M190.13,141.75c0.13-0.72-0.13-1.45-0.75-1.96c-0.92-0.74-2.19-1.02-3.34-0.83
		c-1.21,0.19-2.27,0.83-3.05,1.77c-0.71,0.85-1.11,2.01-1.21,3.1c-0.1,1.13,0,2.48,0.56,3.49c0.65,1.16,1.78,2,3.06,2.38
		c0.87,0.26,1.79,0.28,2.62-0.16c0.62-0.33,1.12-0.75,1.56-1.29c0.68-0.84,1.04-1.93,1.2-2.98
		C190.95,144.06,190.93,142.69,190.13,141.75z"/>
	<path class="st41" d="M204.21,155.26c-0.07-0.11-0.13-0.22-0.2-0.33c-0.16-0.2-0.37-0.35-0.61-0.45c-0.07-0.04-0.14-0.07-0.21-0.09
		c-0.16-0.05-0.38-0.12-0.56-0.13c-0.44-0.03-0.76,0.02-1.18,0.17c-0.09,0.03-0.16,0.08-0.23,0.13c-0.01,0-0.02-0.01-0.03-0.01
		c-0.41-0.03-0.8,0.06-1.12,0.32c-0.13,0.11-0.26,0.23-0.36,0.37c-0.09,0.11-0.15,0.25-0.22,0.38c-0.01,0.03-0.02,0.05-0.03,0.08
		c-0.05,0.13-0.09,0.29-0.11,0.43c0,0.02-0.01,0.04-0.01,0.07c-0.01,0.14-0.01,0.31,0,0.45c0,0.03,0,0.05,0.01,0.08
		c0.11,0.6,0.43,1.09,0.89,1.47c0.18,0.15,0.39,0.27,0.61,0.34c0.36,0.11,0.67,0.17,1.06,0.11c0.26-0.04,0.53-0.12,0.76-0.25
		c0.16-0.09,0.34-0.19,0.48-0.31c0.15-0.13,0.29-0.28,0.42-0.43c0.19-0.22,0.33-0.49,0.46-0.74c0.08-0.16,0.15-0.32,0.2-0.49
		c0.08-0.19,0.11-0.38,0.09-0.58C204.34,155.64,204.3,155.45,204.21,155.26z"/>
	<path class="st60" d="M151.06,177.48c-1.11-0.45-2.08,0.16-2.6,1.11c-6.48,11.67-10.88,24.42-13.04,37.59
		c-0.42,2.55,3.55,3.02,3.97,0.49c2.11-12.84,6.47-25.22,12.78-36.59C152.7,179.14,151.98,177.85,151.06,177.48z"/>
	<path class="st10" d="M189.49,173.22c-1.36,2.48-2.81,4.9-4.36,7.26c-0.38,0.58-0.77,1.15-1.16,1.72
		c-0.31,0.46-0.72,1.28-1.24,1.53c-1.05,0.51-2.52-1.38-3.17-2.03c-4.09-4.02-4.36-4.09-8.03-8.51c-0.81-0.98-2.48,0.13-1.66,1.12
		c2.17,2.61,0.79,1,3.1,3.48c1.13,1.21,2.27,2.4,3.43,3.58c1.14,1.16,2.27,2.45,3.56,3.45c0.91,0.7,2.07,1.29,3.24,0.92
		c1.36-0.43,2.12-2.01,2.86-3.11c1.87-2.76,3.61-5.61,5.21-8.53C191.9,172.98,190.11,172.09,189.49,173.22z"/>
	<path class="st10" d="M198.94,174.66c-1.69,4.07-3.46,8.14-5.78,11.9c-2.14,3.47-5.25,7.93-9.35,9.19
		c-2.34,0.72-4.74-0.04-6.9-0.99c-2.14-0.94-4.21-2.04-6.23-3.21c-3.95-2.3-7.64-5.02-11.05-8.06c-0.96-0.86-2.28,0.65-1.32,1.5
		c2.89,2.57,5.98,4.91,9.24,6.98c3.25,2.06,6.74,4.08,10.39,5.33c3.61,1.23,7.07,0.75,10.09-1.62c2.88-2.26,5.13-5.31,7.03-8.41
		c2.27-3.71,4.01-7.71,5.67-11.72C201.22,174.37,199.43,173.47,198.94,174.66z"/>
	<path class="st10" d="M202.45,173.52c-0.77-1.72-2.58-2.07-4.28-2.16c-2.22-0.12-4.44-0.08-6.65,0.08c-1.28,0.09-1.16,2.09,0.13,2
		c1.89-0.14,3.79-0.18,5.69-0.12c0.88,0.03,2.82-0.05,3.23,0.86c0.22,0.49,0.73,0.8,1.27,0.62
		C202.3,174.63,202.67,174.02,202.45,173.52z"/>
	<path class="st10" d="M205.48,164.02c-0.3,0.14-0.59,0.3-0.88,0.48c0.14-0.51,0.28-1.03,0.28-1.53c0.02-1.27-1.15-1.87-2.27-1.45
		c-0.73,0.28-1.41,0.86-1.99,1.48c-0.05-0.5-0.16-1-0.34-1.5c-0.23-0.61-0.96-0.86-1.5-0.5c-1.92,1.26-3.12,3.14-4.06,5.17
		c-0.07-0.16-0.13-0.32-0.21-0.46c-0.46-0.77-1.43-0.88-2.08-0.28c-0.66,0.61-1.11,1.66-1.47,2.48c-0.43,0.96-0.75,1.96-0.99,2.99
		c-0.29,1.26,1.67,1.66,1.96,0.41c0.27-1.17,0.67-2.28,1.23-3.33c0.15,0.5,0.3,1,0.45,1.5c0.24,0.78,1.53,0.93,1.84,0.12
		c0.8-2.07,1.66-4.28,3.22-5.88c0.02,1.25-0.38,2.52-0.76,3.71c-0.34,1.07,1.49,1.72,1.87,0.65c0.57-1.57,1.47-2.99,2.74-4.09
		c0.03-0.02,0.08-0.06,0.14-0.1c-0.01,0.04-0.01,0.08-0.02,0.11l-0.71,3.05c-0.23,0.98,1.08,1.6,1.73,0.86
		c0.58-0.66,1.23-1.23,1.98-1.7c0.01-0.01,0.03-0.02,0.05-0.03c-0.03,0.06-0.06,0.12-0.09,0.18c-0.84,1.6-1.89,3.05-3.12,4.37
		c-0.88,0.94,0.63,2.26,1.5,1.32c0.96-1.03,1.81-2.14,2.56-3.33c0.62-0.98,1.78-2.53,1.57-3.76
		C207.89,163.65,206.47,163.56,205.48,164.02z"/>
	<path class="st10" d="M208.81,148.08c-1.95-0.56-3.94-0.97-5.95-1.21c-1.76-0.21-4.01-0.65-5.71-0.02
		c-1.66,0.61-2.58,2.52-3.44,3.93c-2.06,3.34-3.76,6.89-5.01,10.61c-1.06,3.16-3.3,9.12,0.8,11.06c1.16,0.55,2.06-1.24,0.9-1.79
		c-2.02-0.96-1.13-3.8-0.73-5.46c0.47-1.95,1.09-3.85,1.84-5.71c0.73-1.81,1.57-3.58,2.51-5.29c0.9-1.65,1.83-3.64,3.14-5
		c0.78-0.81,1.93-0.63,2.96-0.58c1.07,0.06,2.13,0.16,3.19,0.32c2,0.29,3.99,0.73,5.92,1.35c0.65,0.21,0.71,0.2,0.69,0.79
		c-0.03,0.54-0.33,1.18-0.48,1.7c-0.31,1.05-0.65,2.08-1.03,3.11c-0.7,1.94-1.52,3.83-2.41,5.69c-0.56,1.16,1.23,2.06,1.79,0.9
		c0.92-1.93,1.76-3.89,2.48-5.9c0.64-1.77,1.52-3.77,1.71-5.65C212.17,148.98,210.32,148.52,208.81,148.08z"/>
	<path class="st10" d="M193.53,132.18c0.45-1.2-1.5-1.65-1.95-0.46c-2.63,6.97-1.06,20.03-11.34,20.86
		c-7.77,0.63-15.39-5.48-17.43-12.79c-0.09-0.33-0.3-0.52-0.54-0.62c-0.14,0.65-0.34,1.29-0.66,1.96c-0.09,0.19-0.19,0.37-0.29,0.55
		c2.15,5.9,7.32,10.52,13.34,12.27c3.15,0.91,6.66,1,9.68-0.4c3.17-1.48,5.07-4.5,6.16-7.71C192,141.39,191.87,136.58,193.53,132.18
		z"/>
	<path class="st10" d="M163.86,129.31c0.03-1.29-1.97-1.22-2,0.07c-0.11,4.28-0.22,8.62-1.4,12.76c-0.51,1.81-1.19,3.87-2.58,5.22
		c-1.34,1.29-3.27,1.73-4.71,2.89c-2.48,1.99-2.24,4.57-0.73,7.05c0.62,1.01,1.61,2.2,1.4,3.47c-0.28,1.71-2.46,2.44-3.87,2.93
		c-1.21,0.42-0.64,2.34,0.58,1.91c2.83-0.98,6.15-2.9,5.13-6.43c-0.38-1.31-1.26-2.39-1.91-3.57c-0.99-1.79-0.42-3.22,1.33-4.29
		c1.67-1.02,3.49-1.6,4.76-3.17c1.19-1.47,1.87-3.3,2.42-5.08C163.63,138.62,163.75,133.91,163.86,129.31z"/>
	<path class="st10" d="M167.15,123.37c-0.48-0.24-1.09-0.1-1.36,0.39c-0.14,0.26-0.3,0.52-0.46,0.77c-0.04,0.06-0.08,0.12-0.12,0.17
		c0.13-0.19-0.03,0.04-0.05,0.06c-0.09,0.11-0.18,0.22-0.27,0.33c-0.19,0.23-0.4,0.44-0.61,0.65c-0.1,0.1-0.21,0.19-0.31,0.29
		c-0.05,0.05-0.11,0.09-0.16,0.14c-0.02,0.02-0.02,0.02-0.03,0.03c-0.01,0.01-0.01,0.01-0.04,0.03c-0.47,0.35-0.95,0.67-1.48,0.93
		c-0.06,0.03-0.13,0.06-0.19,0.09c-0.02,0.01-0.03,0.01-0.04,0.02c-0.01,0-0.02,0.01-0.04,0.02c-0.13,0.05-0.26,0.11-0.4,0.16
		c-0.29,0.11-0.59,0.2-0.9,0.28c-0.51,0.13-0.84,0.75-0.67,1.25c0.19,0.53,0.7,0.81,1.25,0.67c2.65-0.68,4.97-2.51,6.27-4.91
		C167.79,124.27,167.63,123.61,167.15,123.37z"/>
	<path class="st10" d="M192.26,127.54c-2.26,0.55-4.32-0.95-6.07-2.18c-1.69-1.19-3.44-2.38-5.56-2.57
		c-1.93-0.17-3.74,0.55-5.45,1.35c-0.94,0.44-1.94,1.03-3,1.08c-0.76,0.04-1.82-0.28-1.91-1.18c-0.14-1.27-2.14-1.21-2,0.07
		c0.2,1.84,1.79,3.08,3.61,3.11c2.47,0.05,4.52-1.77,6.85-2.31c2.9-0.67,5.1,1.26,7.34,2.78c2.02,1.37,4.31,2.35,6.77,1.75
		C194.09,129.16,193.51,127.24,192.26,127.54z"/>
	<path class="st10" d="M199.47,125.59c-0.44-0.22-1.14-0.12-1.36,0.39c-0.12,0.28-0.26,0.54-0.43,0.8
		c-0.02,0.03-0.02,0.03-0.02,0.04c0,0,0,0-0.01,0.01c-0.05,0.06-0.09,0.12-0.14,0.18c-0.1,0.12-0.2,0.23-0.31,0.33
		c-0.04,0.04-0.09,0.08-0.13,0.12c0,0-0.09,0.08-0.12,0.1c-0.04,0.03-0.1,0.07-0.11,0.08c-0.06,0.04-0.13,0.09-0.19,0.13
		c-0.13,0.08-0.26,0.15-0.4,0.22c-0.02,0.01-0.02,0.01-0.02,0.01c-0.01,0.01-0.01,0-0.04,0.01c-0.07,0.03-0.14,0.06-0.21,0.08
		c-1.11,0.39-2.21,0.24-3.21-0.39c-0.44-0.28-1.13-0.07-1.36,0.39c-0.25,0.51-0.08,1.06,0.39,1.36c1.39,0.87,3.21,1.1,4.76,0.55
		c1.46-0.51,2.71-1.64,3.31-3.07C200.06,126.46,199.99,125.84,199.47,125.59z"/>
	<path class="st10" d="M196.87,118.2c-2.57,1-4.95-0.59-6.71-2.37c-1.84-1.86-3.39-4.06-5.68-5.41c-4.29-2.54-10.14-0.78-13.41,2.64
		c-0.89,0.93,0.56,2.31,1.45,1.38c1.69-1.77,3.94-2.85,6.36-3.14c3.06-0.37,5.31,1.01,7.34,3.16c2.89,3.07,6.44,7.52,11.25,5.65
		C198.65,119.65,198.08,117.73,196.87,118.2z"/>
	<path class="st10" d="M162.21,113.2c-2.03-0.53-4-0.02-5.88,0.81c-1.78,0.78-3.72,1.64-5.11,3.05c-1.44,1.46-1.82,3.4-1.91,5.38
		c-0.04,1.05,0.22,2.52-0.17,3.5c-0.27,0.68-0.71,0.29-1.2,0.04c-0.67-0.33-1.34-0.67-2-1.01c-2.92-1.48-7.55-4.75-10.65-1.91
		c-3.03,2.78-1.82,7.51-1,10.95c0.19,0.82,0.94,2.67,0.3,3.35c-0.49,0.54-1.43,0.71-2.05,1.07c-0.59,0.35-1.45,0.99-1.44,1.77
		c0.02,0.87,0.81,1.34,1.58,1.34c0.83,0.01,1.09-0.82,0.83-1.41c0.76-0.53,1.87-0.74,2.52-1.39c1.09-1.09,0.78-2.55,0.49-3.91
		c-0.39-1.86-0.98-3.69-1.14-5.59c-0.14-1.67,0.04-4.22,1.78-5.08c1.49-0.74,3.36,0.3,4.7,0.97c1.94,0.98,3.87,2.09,5.86,2.95
		c4.16,1.79,3.42-4.16,3.64-6.48c0.24-2.55,1.76-3.81,3.92-4.91c1.98-1.01,4.19-2.16,6.46-1.57
		C163,115.47,163.46,113.52,162.21,113.2z"/>
	<path class="st10" d="M170.06,113.47c-1.24-1.4-2.67-2.83-4.63-3.04c-0.94-0.1-1.91,0.07-2.68,0.65c-0.82,0.62-1.31,1.47-1.36,2.5
		c-0.03,0.54,0.53,0.98,1.03,0.97c0.58-0.02,0.93-0.49,0.96-1.03c-0.01,0.14,0-0.02,0.02-0.08c0-0.01,0.02-0.07,0.03-0.11
		c0.02-0.04,0.07-0.15,0.07-0.15c0.03-0.05,0.06-0.1,0.09-0.15c0.01-0.02,0.03-0.03,0.04-0.05c0.06-0.06,0.12-0.12,0.18-0.18
		c0.02-0.02,0.02-0.02,0.03-0.03c0.01,0,0,0,0.01-0.01c0.07-0.05,0.14-0.1,0.21-0.14c0.18-0.11,0.38-0.19,0.61-0.21
		c0.36-0.03,0.52-0.02,0.88,0.07c0.54,0.13,1.11,0.46,1.56,0.84c0.58,0.48,1.08,1.05,1.58,1.61c0.36,0.4,1.06,0.34,1.41-0.03
		C170.49,114.46,170.42,113.87,170.06,113.47z"/>
	<path class="st10" d="M164.5,104.26c-1.02-3.07-3.9-7.83-7.78-6.15c-1.75,0.76-2.73,2.49-2.91,4.34c-0.18,1.95,0.53,3.84,1.42,5.54
		c0.98,1.87,2.31,3.56,3.87,4.99c0.95,0.87,2.33-0.57,1.38-1.45c-1.42-1.3-2.59-2.8-3.5-4.5c-0.83-1.56-1.55-3.42-1.05-5.2
		c0.42-1.47,2.05-2.71,3.51-1.72c1.52,1.03,2.56,3.03,3.13,4.73C162.99,106.06,164.91,105.49,164.5,104.26z"/>
	<path class="st10" d="M168.8,99.41c-0.84-1.43-2.13-2.79-3.69-3.44c-1.49-0.61-3.38-0.67-4.51,0.66c-0.83,0.98,0.61,2.36,1.45,1.38
		c0.72-0.85,2.02-0.42,2.84,0.08c1.14,0.7,1.99,1.81,2.56,3c1.38,2.87,0.96,6.22,0.22,9.2c-0.31,1.25,1.63,1.71,1.95,0.46
		C170.54,107.01,170.83,102.87,168.8,99.41z"/>
	<path class="st10" d="M174.81,100.48c0-0.68-0.12-1.38-0.53-1.94c-0.49-0.66-1.27-0.95-2.07-1.02c-1.41-0.13-2.84,0.28-4.02,1.05
		c-1.08,0.7-0.03,2.41,1.05,1.7c0.83-0.54,1.87-0.9,2.87-0.77c0.38,0.05,0.62,0.16,0.68,0.55c0.08,0.54,0.01,1.13-0.03,1.67
		c-0.18,2.53-0.91,5.02-2.06,7.28c-0.58,1.15,1.17,2.11,1.75,0.97C173.93,107.05,174.81,103.76,174.81,100.48z"/>
	<path class="st10" d="M168.45,150.28c-0.57-0.11-1.03,0.21-1.2,0.74c-0.12,0.36-0.25,0.72-0.38,1.07
		c-0.01,0.02-0.01,0.03-0.01,0.04c0,0.01-0.01,0.02-0.01,0.04c-0.03,0.08-0.06,0.16-0.1,0.24c-0.07,0.18-0.14,0.35-0.22,0.53
		c-0.29,0.69-0.61,1.36-0.95,2.03c-0.24,0.46-0.1,1.12,0.39,1.36c0.47,0.23,1.1,0.1,1.36-0.39c0.74-1.43,1.36-2.92,1.87-4.45
		C169.35,150.99,168.94,150.37,168.45,150.28z"/>
	<path class="st10" d="M176.83,158.68c0.04,0.21-0.02-0.15-0.03-0.19c-0.01-0.09-0.03-0.18-0.04-0.27
		c-0.03-0.21-0.05-0.42-0.07-0.62c-0.04-0.39-0.06-0.77-0.06-1.16c-0.01-0.39,0-0.78,0.02-1.16c0.01-0.21,0.03-0.42,0.04-0.63
		c0-0.02,0-0.04,0-0.05c0-0.01,0-0.02,0-0.04c0.01-0.12,0.03-0.24,0.04-0.36c0.07-0.52-0.17-1.1-0.74-1.2
		c-0.49-0.09-1.13,0.18-1.2,0.74c-0.24,1.85-0.2,3.68,0.12,5.52c0.09,0.52,0.78,0.83,1.25,0.67
		C176.73,159.72,176.93,159.23,176.83,158.68z"/>
	<path class="st10" d="M177.57,157.63c-4.56,0.36-9.08-0.78-12.93-3.26c-0.63-0.41-1.22,0.02-1.39,0.59
		c0.38,0.42,0.75,0.85,1.11,1.29c0.57-0.1,1.18,0.13,1.51,0.63c0.15,0.23,0.31,0.46,0.46,0.69c3.52,1.63,7.43,2.37,11.31,2.06
		C178.92,159.53,178.86,157.53,177.57,157.63z"/>
	<path class="st10" d="M142.15,158.27c-2.46,0.11-6.43,1.73-7.96-1.2c-0.76-1.45,0.41-2.99,0.94-4.32c0.42-1.04,0.71-2.23,0.42-3.35
		c-0.71-2.77-4.66-3.27-7.02-3.61c-1.26-0.19-1.74,1.76-0.46,1.95c1.42,0.21,2.87,0.51,4.22,1.02c1.21,0.46,1.57,1.22,1.26,2.47
		c-0.31,1.22-1.07,2.27-1.41,3.49c-0.32,1.16-0.24,2.34,0.35,3.4c1.13,2.05,3.56,2.79,5.77,2.69c1.28-0.05,2.52-0.43,3.8-0.53
		c0.9-0.07,2.77,0.21,2.53,1.54c-0.22,1.26,1.72,1.74,1.95,0.46C146.99,159.69,144.47,158.17,142.15,158.27z"/>
	<path class="st10" d="M179.37,137.96c-0.11-0.35-0.42-0.51-0.74-0.62c-0.17-0.05-0.22-0.11-0.28-0.3
		c-0.09-0.26-0.12-0.49-0.14-0.77c-0.02-0.29-0.02-0.56,0.15-0.81c0.15-0.22,0.02-0.56-0.2-0.68c-0.26-0.14-0.52-0.03-0.68,0.2
		c-0.36,0.51-0.31,1.17-0.22,1.76c0.08,0.53,0.23,1.08,0.7,1.39c0.11,0.07,0.24,0.12,0.37,0.16c0.02,0.01,0.03,0.01,0.05,0.02
		c-0.03,0.07-0.05,0.09-0.13,0.17c-0.29,0.27-0.75,0.42-1.13,0.38c-0.27-0.03-0.53,0.08-0.6,0.37c-0.06,0.24,0.1,0.57,0.37,0.6
		c0.62,0.06,1.23-0.04,1.76-0.4C179.12,139.12,179.57,138.56,179.37,137.96z"/>
	<path class="st10" d="M177.37,142.13c-1.39-0.07-2.74-0.5-3.94-1.21c-0.13-0.51-0.98-0.45-0.97,0.15c0.01,0.81,0.13,1.61,0.35,2.39
		c0.11,0.39,0.25,0.77,0.41,1.13c0.16,0.36,0.37,0.7,0.72,0.9c0.76,0.43,1.61,0.02,2.16-0.55c0.59-0.62,1.11-1.31,1.66-1.96
		C178.04,142.63,177.82,142.15,177.37,142.13z M175.61,143.98c-0.23,0.28-0.77,0.92-1.2,0.63c-0.2-0.14-0.3-0.45-0.38-0.67
		c-0.12-0.31-0.22-0.62-0.3-0.93c-0.08-0.3-0.13-0.6-0.18-0.9c0.9,0.45,1.87,0.77,2.86,0.92
		C176.14,143.34,175.88,143.66,175.61,143.98z"/>
	<path class="st10" d="M166.83,137.42c-0.63-0.15-0.86,0.82-0.23,0.97C167.23,138.54,167.46,137.57,166.83,137.42z"/>
	<path class="st10" d="M168.33,138.43c-0.63-0.15-0.86,0.82-0.23,0.97C168.72,139.55,168.96,138.58,168.33,138.43z"/>
	<path class="st10" d="M170.59,137.16c-0.63-0.15-0.86,0.82-0.23,0.97C170.98,138.28,171.21,137.31,170.59,137.16z"/>
	<path class="st10" d="M181.86,138.76c-0.63-0.15-0.86,0.82-0.23,0.97C182.25,139.88,182.48,138.91,181.86,138.76z"/>
	<path class="st10" d="M183.1,140.51c-0.63-0.15-0.86,0.82-0.23,0.97C183.5,141.63,183.73,140.66,183.1,140.51z"/>
	<path class="st10" d="M184.8,139.17c-0.63-0.15-0.86,0.82-0.23,0.97C185.19,140.3,185.42,139.32,184.8,139.17z"/>
	<path class="st10" d="M185.32,164.13c-1.51-1.5-3.01-3-4.52-4.51c-0.37-0.37-1.09-0.31-1.41,0.09c-0.36,0.44-0.31,1.02,0.09,1.41
		c1.51,1.5,3.01,3,4.52,4.51c0.37,0.37,1.09,0.31,1.41-0.09C185.77,165.1,185.71,164.53,185.32,164.13z"/>
	<path class="st10" d="M176.55,161.23c-2.61,0.28-5.24,0.03-7.74-0.78c-0.23-0.07-0.46-0.16-0.7-0.25c0.57,0.85,1.14,1.71,1.68,2.58
		c2.25,0.54,4.58,0.69,6.89,0.44C177.95,163.08,177.83,161.09,176.55,161.23z"/>
	<path class="st10" d="M157.22,180.74c-3.43-3.51-5.37-8.28-5.45-13.18c-0.02-1.29-2.02-1.16-2,0.13
		c0.09,5.44,2.33,10.67,6.12,14.55C156.8,183.16,158.12,181.65,157.22,180.74z"/>
	<path class="st10" d="M171.46,131.09c-0.99-0.63-2.32-0.31-3.18,0.4c-0.55,0.45-0.97,1.01-1.38,1.59
		c-0.15,0.22-0.17,0.51,0.05,0.71c0.19,0.16,0.55,0.18,0.71-0.05c0.65-0.94,1.45-2.01,2.65-1.99c0.19,0,0.42,0.06,0.61,0.17
		c0.15,0.08,0.33,0.27,0.41,0.45c0.21,0.47,0.13,1.06-0.07,1.54c-0.1,0.25-0.03,0.54,0.22,0.67c0.23,0.11,0.57,0.03,0.67-0.22
		C172.6,133.25,172.58,131.81,171.46,131.09z"/>
	<path class="st10" d="M186.17,134.35c-0.63-0.83-1.82-1.28-2.81-0.84c-0.61,0.27-1.05,0.76-1.46,1.27
		c-0.17,0.21-0.16,0.52,0.05,0.71c0.2,0.17,0.54,0.17,0.71-0.05c0.34-0.43,0.69-0.88,1.19-1.04c0.05-0.02,0.1-0.03,0.14-0.04
		c-0.09,0.02,0.1-0.01,0.11-0.01c0.06,0,0.12,0,0.17,0c0.02,0,0.09,0.01,0.09,0.01c0.07,0.01,0.13,0.02,0.2,0.04
		c0.03,0.01,0.06,0.02,0.09,0.03c0.01,0,0.01,0,0.02,0.01c0.11,0.05,0.21,0.1,0.32,0.16c0.01,0.01,0.02,0.01,0.02,0.02
		c0.03,0.02,0.05,0.04,0.08,0.06c0.04,0.03,0.08,0.06,0.12,0.1c0.01,0.01,0.14,0.14,0.09,0.09c0.04,0.05,0.08,0.11,0.12,0.16
		c0.08,0.11,0.09,0.15,0.14,0.27c0.03,0.07,0.05,0.14,0.07,0.21c0,0.01,0.02,0.08,0.02,0.1c0.1,0.53,0,1-0.26,1.46
		c-0.13,0.24-0.01,0.55,0.22,0.67c0.25,0.13,0.54,0.01,0.67-0.22C186.82,136.55,186.86,135.24,186.17,134.35z"/>
	<path class="st10" d="M167.79,132.59c-0.05-0.13-0.13-0.21-0.25-0.28c-0.03-0.02-0.06-0.04-0.1-0.06c-0.33-0.23-0.63-0.49-0.9-0.79
		c-0.04-0.04-0.07-0.08-0.11-0.13c-0.08-0.1-0.18-0.18-0.31-0.21c-0.12-0.03-0.28,0-0.38,0.08c-0.1,0.08-0.19,0.18-0.21,0.31
		c-0.02,0.13-0.01,0.28,0.08,0.38c0.42,0.53,0.91,0.96,1.48,1.31c0.1,0.06,0.28,0.06,0.39,0.03c0.11-0.04,0.23-0.14,0.28-0.25
		C167.81,132.86,167.84,132.72,167.79,132.59z"/>
	<path class="st10" d="M168.71,131.36c-0.14-0.12-0.27-0.25-0.39-0.39c-0.21-0.25-0.4-0.53-0.55-0.82
		c-0.02-0.04-0.03-0.07-0.05-0.11c-0.05-0.12-0.13-0.22-0.25-0.28c-0.11-0.06-0.27-0.07-0.39-0.03c-0.23,0.09-0.42,0.38-0.31,0.64
		c0.3,0.67,0.72,1.26,1.28,1.74c0.2,0.17,0.53,0.17,0.71-0.05C168.93,131.86,168.92,131.55,168.71,131.36z"/>
	<path class="st10" d="M188.42,136.48c-0.1-0.08-0.23-0.15-0.36-0.12c-0.16,0.03-0.32,0.03-0.48,0.03c-0.15-0.02-0.3-0.05-0.44-0.09
		c-0.15-0.06-0.3-0.13-0.43-0.21l0.08,0.06c-0.11-0.08-0.22-0.13-0.36-0.12c-0.12,0.01-0.26,0.07-0.34,0.17
		c-0.08,0.1-0.14,0.23-0.12,0.36c0.01,0.12,0.06,0.27,0.17,0.34c0.31,0.21,0.63,0.36,1,0.44c0.32,0.07,0.67,0.08,1,0.02
		c0.14-0.02,0.25-0.06,0.34-0.17c0.08-0.09,0.14-0.24,0.12-0.36C188.57,136.69,188.52,136.56,188.42,136.48z"/>
	<path class="st10" d="M188.66,134.69c-0.17-0.23-0.45-0.27-0.69-0.13c-0.01,0.01-0.02,0.01-0.04,0.02
		c-0.03,0.01-0.06,0.03-0.08,0.04c-0.07,0.03-0.14,0.05-0.22,0.08c-0.03,0.01-0.06,0.02-0.09,0.02c-0.01,0-0.02,0-0.03,0.01
		c-0.07,0.01-0.13,0.02-0.2,0.03c-0.07,0.01-0.14,0.01-0.21,0.01c-0.02,0-0.03,0-0.05,0c-0.02,0-0.04,0-0.06-0.01
		c-0.15-0.02-0.3-0.05-0.44-0.1c-0.11-0.04-0.29,0.01-0.38,0.08c-0.1,0.07-0.19,0.19-0.21,0.31c-0.02,0.13-0.01,0.27,0.08,0.38
		c0.08,0.11,0.18,0.17,0.31,0.21c0.72,0.25,1.52,0.13,2.18-0.23C188.76,135.26,188.81,134.9,188.66,134.69z"/>
	<path class="st10" d="M201.57,139.81c0.52-1.23,0.98-2.42,0.68-3.77c-0.57-2.53-3.01-3.77-5.19-4.68c-1.18-0.49-2.08,1.29-0.9,1.79
		c1.99,0.83,4.95,2.17,4,4.85c-0.45,1.26-1.24,2.48-1.51,3.8c-0.28,1.37,0.53,2.63,1.95,2.71c0.54,0.03,0.97-0.57,0.93-1.06
		c-0.04-0.59-0.52-0.9-1.06-0.93c0.27,0.01,0.11,0.11,0.11-0.21c0-0.21,0.13-0.46,0.2-0.64
		C201.05,141.03,201.32,140.42,201.57,139.81z"/>
	<path class="st10" d="M171.37,172.3c-2.13-6.13-5.82-11.64-10.67-15.95c-0.96-0.86-2.28,0.65-1.32,1.5
		c4.6,4.09,8.08,9.3,10.1,15.11C169.9,174.17,171.79,173.52,171.37,172.3z"/>
	<path class="st10" d="M170.55,161.65c-1.82-3.41-4.3-8.21-8.99-6.98c-1.24,0.33-0.59,2.22,0.66,1.89c1.89-0.5,3.53,0.97,4.52,2.41
		c1.1,1.6,1.97,3.4,2.87,5.13c1.92,3.69,3.6,7.53,4.45,11.62c0.26,1.26,2.15,0.59,1.89-0.66
		C174.95,170.3,172.84,165.91,170.55,161.65z"/>
	<path class="st10" d="M177.36,199.2c-1.79,7.17-3.57,14.33-5.36,21.5c-0.2,0.8-0.4,1.59-0.6,2.39c-0.21,0.84-0.3,1.95-0.72,2.72
		c-0.75,1.37-3.29,0.87-4.65,0.81c-3.48-0.16-6.93-0.72-10.32-1.51c-6.69-1.56-13.25-3.94-19.59-6.55
		c-0.69-0.28-1.28-0.46-1.17-1.31c0.1-0.87,0.43-1.76,0.66-2.61c0.43-1.64,0.88-3.27,1.35-4.9c1-3.47,2.1-6.9,3.31-10.31
		c2.57-7.26,5.58-14.35,8.99-21.25c0.57-1.16-1.22-2.05-1.79-0.9c-3.41,6.9-6.43,13.99-8.99,21.25c-1.26,3.56-2.42,7.16-3.48,10.8
		c-0.51,1.77-1,3.56-1.46,5.34c-0.38,1.46-1.13,3.23-0.05,4.55c0.89,1.09,2.63,1.46,3.89,1.94c1.86,0.72,3.73,1.43,5.61,2.11
		c3.4,1.23,6.83,2.37,10.33,3.29c3.68,0.96,7.42,1.66,11.22,1.95c2.83,0.21,7.04,1.03,8.15-2.39c0.68-2.09,1.09-4.31,1.63-6.44
		c0.56-2.23,1.11-4.46,1.67-6.69c1.11-4.46,2.22-8.92,3.33-13.38C179.63,198.35,177.67,197.95,177.36,199.2z"/>
	<path class="st10" d="M153.77,195.26c-1.19,2.28-2.38,4.55-3.57,6.83l-1.71,3.28c-0.2,0.39-0.41,0.78-0.61,1.17
		c-0.32-4.08-0.37-8.18-0.08-12.26c0.04-0.54-0.2-1.06-0.78-1.18c-0.47-0.1-1.14,0.24-1.18,0.78c-0.37,5.25-0.28,10.51,0.31,15.74
		c0.06,0.49,0.51,1.04,1.06,0.93c1.29-0.24,1.66-1.59,2.21-2.63c0.69-1.32,1.38-2.64,2.07-3.96c1.36-2.59,2.71-5.19,4.07-7.78
		C156.15,195.01,154.36,194.12,153.77,195.26z"/>
	<path class="st10" d="M159.37,197.26c-0.44-0.22-1.16-0.06-1.34,0.45c-1.49,4.15-2.69,8.39-3.54,12.72
		c-0.25,1.26,1.71,1.67,1.96,0.41c0.82-4.15,1.94-8.24,3.37-12.23C160,198.1,159.89,197.53,159.37,197.26z"/>
	<path class="st10" d="M169.45,199.82c-1.99-0.49-4.06-0.78-6.08-1.17c-1.26-0.24-1.67,1.72-0.41,1.96c1.06,0.2,2.11,0.41,3.17,0.61
		c0.53,0.1,1.06,0.2,1.59,0.3c0.17,0.03,0.33,0.06,0.5,0.1c-0.18,0.17-0.37,0.33-0.49,0.43c-0.37,0.34-0.77,0.65-1.17,0.95
		c-0.82,0.62-1.65,1.24-2.47,1.88c-1.78,1.39-3.53,2.82-5.24,4.3c-0.74,0.64-1.23,1.66-0.33,2.44c0.72,0.63,1.92,0.91,2.8,1.22
		c2.05,0.72,4.16,1.22,6.31,1.51c1.27,0.17,1.68-1.79,0.41-1.96c-1.43-0.19-2.85-0.47-4.24-0.86c-0.65-0.18-1.3-0.38-1.94-0.61
		c-0.36-0.13-0.72-0.27-1.07-0.41c-0.1-0.04-0.19-0.08-0.29-0.12c0.13-0.11,0.26-0.22,0.39-0.33c0.37-0.32,0.74-0.63,1.12-0.94
		c0.78-0.65,1.58-1.29,2.37-1.92c1.49-1.18,3.08-2.25,4.5-3.5c0.63-0.55,1.36-1.18,1.69-1.97
		C170.95,200.8,170.33,200.04,169.45,199.82z"/>
	<path class="st10" d="M192.99,212.5c-1.6-5.09-2.64-10.34-3.07-15.67c-0.1-1.27-2.1-1.29-2,0c0.44,5.5,1.49,10.93,3.14,16.2
		C191.45,214.25,193.38,213.73,192.99,212.5z"/>
	<g>
		<g>
			<path class="st6" d="M120.68,84.81c-0.08-0.33-0.18-0.66-0.35-0.95c-0.95-1.74-3.47-2.35-4.72-0.54
				c-0.48,0.69-0.53,1.52-0.55,2.33c-0.02,0.82,0,1.64,0.1,2.46c0.03,0.24,0.07,0.48,0.11,0.72c-0.01,0.16-0.01,0.32,0.02,0.48
				c0.5,2.67,1.32,5.28,2.45,7.74c0.71,1.55,3.02,1.58,3.69-0.04c0.13-0.32,0.22-0.65,0.3-0.97c0.53-0.46,0.85-1.13,0.95-1.85
				c0.21-1.65,0.07-3.43-0.12-5.08C122.35,87.47,121.92,85.97,120.68,84.81z"/>
			<path class="st44" d="M114.8,90.22c-0.2-0.98-0.96-1.71-1.99-1.7c-0.81,0.01-1.56,0.52-1.85,1.26c-0.48,0.42-0.75,1.06-0.67,1.76
				c0.28,2.33,0.87,4.64,1.7,6.83c0.35,0.93,1.46,1.37,2.37,1.11c0.99-0.28,1.52-1.18,1.44-2.19
				C115.62,94.92,115.28,92.55,114.8,90.22z"/>
		</g>
		<g>
			<path class="st10" d="M117.4,96.05c-0.41-2.08-0.86-4.15-1.36-6.21c-0.27-1.1-0.4-2.65-1.89-2.57c-1.16,0.06-2.34,0.34-3.49,0.51
				c-1.27,0.19-1.06,2.18,0.21,1.99c0.59-0.09,1.19-0.18,1.78-0.26c0.28-0.04,0.56-0.08,0.84-0.12c0.14-0.02,0.28-0.04,0.41-0.06
				c0.18,0.58,0.27,1.22,0.4,1.78c0.19,0.8,0.37,1.61,0.54,2.42c0.17,0.81,0.34,1.62,0.5,2.43c0.08,0.42,0.16,0.85,0.24,1.27
				c0.03,0.18,0.07,0.35,0.1,0.53c0.01,0.06,0.02,0.12,0.03,0.18c-0.37,0.08-0.78,0.11-1.13,0.17c-0.36,0.06-0.88,0.24-1.31,0.26
				c-0.06-0.16-0.12-0.31-0.18-0.47c-0.12-0.32-0.24-0.65-0.36-0.97c-0.24-0.68-0.47-1.37-0.68-2.07c-0.4-1.34-0.72-2.7-0.97-4.07
				c-0.1-0.53-0.53-0.95-1.1-0.89c-0.51,0.05-0.99,0.57-0.89,1.1c0.38,2.06,0.9,4.09,1.57,6.08c0.16,0.46,0.32,0.91,0.49,1.37
				c0.18,0.47,0.33,1,0.66,1.4c0.71,0.87,1.95,0.44,2.88,0.28c0.92-0.16,2.25-0.14,2.82-0.99C118.1,98.28,117.58,96.95,117.4,96.05z
				"/>
			<path class="st10" d="M124.28,93.78c0.19-0.2,0.39-0.4,0.57-0.6c0.47-0.53,0.79-1.22,0.47-1.92c-0.34-0.75-1.15-1.04-2.02-1.13
				c0.53-1.06,0.69-2.23-0.12-3.31c-0.67-0.89-1.54-1.05-2.4-0.82c0.15-0.8,0.24-2.49,0.1-3.3c-0.23-1.32-1.22-2.8-2.75-2.56
				c-1.45,0.22-2.04,1.95-2.4,3.16c-0.32,1.11-0.52,3.4-1.52,4.14c-1.03,0.77,0.15,2.38,1.19,1.61c1.66-1.24,1.78-4.08,2.46-5.87
				c0.06-0.17,0.35-1.04,0.57-1.08c0.26-0.04,0.45,0.82,0.47,0.95c0.23,1.29-0.28,3.53-0.71,4.73c-0.38,1.07,0.9,1.89,1.69,1.04
				c0.35-0.38,1.53-1.51,1.82-0.52c0.24,0.83-0.62,1.67-1.1,2.22c-0.58,0.67,0.05,1.7,0.89,1.62c0.41-0.04,0.82-0.06,1.23-0.03
				c0.05,0,0.15,0.03,0.25,0.05c-0.21,0.23-0.42,0.51-0.53,0.63c-0.35,0.36-0.7,0.72-1.05,1.09c-0.44,0.46-0.19,1.31,0.37,1.54
				c0.36,0.15,1,0.33,1.49,0.3c-0.21,0.1-0.42,0.18-0.63,0.26c-1.48,0.58-3.01,0.94-4.59,1.1c-1.28,0.13-1.07,2.12,0.21,1.99
				c1.3-0.13,2.58-0.39,3.82-0.77c1.02-0.32,2.23-0.66,3.02-1.42c0.7-0.67,0.9-1.72,0.23-2.49
				C125.06,94.08,124.68,93.88,124.28,93.78z"/>
		</g>
	</g>
	<g>
		<path class="st30" d="M250.03,100.8c-2.18-1.2-4.39,0.24-5.67,2.01c-0.54,0.75-0.97,1.58-1.29,2.45c-0.44-0.6-0.92-1.18-1.46-1.69
			c-1.56-1.47-4.4-2.84-5.91-0.49c-1.21,1.89-0.08,4.36,1.25,5.83c1.45,1.6,3.5,2.35,5.18,3.67c0.27,0.21,0.59,0.35,0.91,0.4
			c0.35,0.24,0.8,0.36,1.26,0.27c3.55-0.69,6.61-3.66,7.38-7.2C252.07,104.19,251.89,101.82,250.03,100.8z"/>
		<path class="st10" d="M252.4,99.76c-1.59-1.54-4.54-0.52-6.17,0.47c-1.29,0.78-2.37,1.89-3.13,3.18
			c-0.66-1.25-1.57-2.33-2.94-2.86c-1.91-0.73-4.31-0.13-5.09,1.89c-0.82,2.12,0.34,4.78,1.45,6.59c1.22,1.98,2.95,3.62,4.99,4.74
			c1.13,0.62,2.14-1.11,1.01-1.73c-2.77-1.51-5.5-4.59-5.71-7.89c-0.1-1.58,1.22-2.28,2.62-1.76c1.57,0.59,2.24,2.48,2.69,3.94
			c0.28,0.9,1.7,1,1.93,0c0.48-2.07,1.87-3.79,3.78-4.72c0.69-0.34,2.44-1.05,3.14-0.48c0.59,0.48,0.3,1.7,0.14,2.3
			c-1.14,4.32-4.17,7.99-8.1,10.07c-1.14,0.6-0.13,2.33,1.01,1.73c3.93-2.09,6.99-5.61,8.54-9.78
			C253.21,103.77,253.93,101.24,252.4,99.76z"/>
	</g>
	<g>
		<path class="st30" d="M95.43,183.33c-2.18-1.2-4.39,0.24-5.67,2.01c-0.54,0.75-0.97,1.58-1.29,2.45c-0.44-0.6-0.92-1.18-1.46-1.69
			c-1.56-1.47-4.4-2.84-5.91-0.49c-1.21,1.89-0.08,4.36,1.25,5.83c1.45,1.6,3.5,2.35,5.18,3.67c0.27,0.21,0.59,0.35,0.91,0.4
			c0.35,0.24,0.8,0.36,1.25,0.27c3.55-0.69,6.61-3.66,7.38-7.2C97.46,186.72,97.29,184.35,95.43,183.33z"/>
		<path class="st10" d="M97.8,182.3c-1.59-1.54-4.54-0.52-6.17,0.47c-1.29,0.78-2.37,1.89-3.13,3.18c-0.66-1.25-1.57-2.33-2.94-2.86
			c-1.91-0.73-4.31-0.13-5.09,1.89c-0.82,2.12,0.34,4.78,1.45,6.59c1.22,1.98,2.95,3.62,4.99,4.74c1.13,0.62,2.14-1.11,1.01-1.73
			c-2.77-1.51-5.5-4.59-5.71-7.89c-0.1-1.58,1.22-2.28,2.62-1.76c1.57,0.59,2.24,2.48,2.69,3.94c0.28,0.9,1.7,1,1.93,0
			c0.48-2.07,1.87-3.79,3.78-4.72c0.69-0.34,2.44-1.05,3.14-0.48c0.59,0.48,0.3,1.7,0.14,2.3c-1.14,4.32-4.17,7.99-8.1,10.07
			c-1.14,0.6-0.13,2.33,1.01,1.73c3.93-2.09,6.99-5.61,8.54-9.78C98.6,186.3,99.32,183.77,97.8,182.3z"/>
	</g>
	<g>
		<path class="st10" d="M306.27,201.67c-0.84-9.76-13.12-20.07-23-18.96c-1.28,0.14-0.94,2.12,0.33,1.97
			c7.91-0.89,18.52,7.3,20.31,14.88c1.9,8.05-1.94,17.33-8.63,21.78c-7.57,5.03-17.75,4.73-25.79,1.02
			c-4.15-1.92-7.7-4.79-9.54-9.05c-1.57-3.62-1.85-7.77-1-11.6c2.09-9.45,11.14-15.56,20.29-16.89c1.27-0.19,0.94-2.16-0.33-1.97
			c-8.98,1.31-17.84,6.9-21.09,15.68c-3.23,8.73-0.46,18.83,7.53,23.86c8.39,5.29,19.79,6.51,28.76,1.94
			C302.05,220.28,307.04,210.69,306.27,201.67z"/>
		<path class="st10" d="M290.08,197.08c-0.84-0.98-2.34,0.34-1.51,1.32c1.22,1.43,0.9,4.64-0.17,6.12
			c-1.21,1.68-3.48,2.29-5.46,2.07c-2.09-0.23-3.97-1.48-4.44-3.6c-0.4-1.79,0.14-3.73,1.47-5c1.61-1.53,4.05-2.11,6.21-1.66
			c0.53,0.11,1.08-0.06,1.27-0.61c0.16-0.46-0.08-1.16-0.61-1.27c-2.68-0.56-5.54-0.09-7.72,1.64c-2.05,1.62-3.03,4.25-2.67,6.82
			c0.84,6.04,9.28,7.54,13.1,3.35C291.57,204.02,292.07,199.41,290.08,197.08z"/>
		<path class="st10" d="M292.19,211.26c-0.84-1.89-2.41-3.37-4.32-4.15c-1.19-0.49-1.85,1.41-0.66,1.89
			c1.48,0.6,2.61,1.79,3.24,3.25c0.29,0.67,0.45,1.42,0.44,2.15c0,0.57-0.06,0.55-0.61,0.63c-0.57,0.09-1.13,0.17-1.7,0.23
			c-3.98,0.48-8.01,0.42-11.99-0.07c0.11-1.37,0.44-2.7,1.04-3.96c0.6-1.26,1.53-2.86,3.01-3.14c1.26-0.24,0.87-2.2-0.4-1.96
			c-1.95,0.37-3.25,2.04-4.13,3.7c-1.01,1.91-1.55,4.02-1.56,6.18c0,0.57,0.37,0.99,0.93,1.06c2.68,0.38,5.39,0.55,8.1,0.51
			c1.34-0.02,2.68-0.1,4.01-0.22c1.26-0.12,2.86-0.11,4.04-0.6C293.66,215.94,292.88,212.8,292.19,211.26z"/>
		<g>
			<path class="st10" d="M279.76,195.83c-0.42-0.65-1.01-1.16-1.77-1.39c-0.75-0.22-1.56-0.19-2.27,0.16
				c-0.7,0.35-1.24,0.96-1.54,1.69c-0.31,0.74-0.25,1.56,0.04,2.29c0.31,0.8,1,1.43,1.79,1.73c0.49,0.19,1.12-0.11,1.27-0.61
				c0.16-0.54-0.09-1.07-0.61-1.27c-0.02-0.01-0.04-0.02-0.06-0.02c-0.05-0.04-0.12-0.07-0.17-0.1c-0.02-0.01-0.04-0.03-0.06-0.04
				c-0.04-0.05-0.1-0.1-0.13-0.14c-0.03-0.04-0.07-0.08-0.1-0.13c-0.02-0.03-0.03-0.06-0.05-0.09c-0.03-0.05-0.05-0.1-0.07-0.16
				c0-0.01-0.01-0.01-0.01-0.02c0,0,0,0,0-0.01c-0.02-0.08-0.04-0.15-0.05-0.23c0-0.01,0-0.03-0.01-0.04c0-0.07,0-0.14,0.01-0.21
				c0-0.01,0-0.02,0-0.03c0.03-0.1,0.09-0.21,0.12-0.32c0.01-0.02,0.03-0.05,0.04-0.07c0.04-0.06,0.08-0.11,0.12-0.16
				c0.01-0.01,0.03-0.03,0.04-0.04c0.06-0.05,0.12-0.1,0.18-0.15c0,0,0,0,0,0c0,0,0,0,0,0c0.06-0.03,0.12-0.07,0.18-0.09
				c0.02-0.01,0.04-0.02,0.06-0.02c0.06-0.02,0.12-0.03,0.19-0.04c0.02,0,0.04-0.01,0.06-0.01c0.06,0,0.13,0,0.18,0.01
				c0.07,0.01,0.15,0.03,0.22,0.03c-0.03,0-0.04,0-0.07,0c0.01,0,0.01,0,0.02,0c0.07,0.02,0.14,0.05,0.21,0.08
				c0.01,0.01,0.03,0.01,0.04,0.02c0.06,0.04,0.12,0.07,0.18,0.11c0.02,0.01,0.04,0.03,0.06,0.04c0.04,0.04,0.09,0.09,0.13,0.13
				c0.05,0.05,0.2,0.28,0.03,0.01c0.15,0.23,0.3,0.41,0.57,0.5c0.23,0.08,0.55,0.07,0.78-0.05
				C279.74,196.93,280.07,196.3,279.76,195.83z"/>
			<path class="st10" d="M277.32,196.33C277.24,196.31,277.18,196.32,277.32,196.33L277.32,196.33z"/>
		</g>
		<path class="st10" d="M277.38,201.81c-0.14-1.28-2.1-0.87-1.96,0.4c0.19,1.78-1.2,3.36-2.73,4.05c-1.34,0.6-2.84,0.62-4.3,0.4
			c1.7-2.05,1.68-5.22,2.03-7.82c0.21-1.53,0.71-3.2,2.11-4.04c1.24-0.75,2.72-0.78,4.01-0.16c0.49,0.24,1.11-0.15,1.27-0.61
			c0.2-0.56-0.13-1.04-0.61-1.27c-3.18-1.55-6.91,0.2-8.17,3.38c-0.75,1.9-0.68,3.97-0.95,5.96c-0.22,1.64-0.81,3.44-2.43,4.18
			c-0.76,0.35-0.71,1.6,0.12,1.84c2.63,0.76,5.66,1.11,8.17-0.24C276.17,206.67,277.65,204.36,277.38,201.81z"/>
	</g>
	<g>
		<path class="st26" d="M252.63,32c-1.15-9.98-8.72-19.49-18.3-19.83c-0.36-0.31-0.77-0.59-1.27-0.79
			c-12.6-4.97-28.04,6.5-28.91,19.4c-0.97,14.3,8.69,27,23.71,26.52C241.64,56.86,254.31,46.54,252.63,32z"/>
		<path class="st4" d="M234.76,36.91c2.27-3.22,2.82-7.83-0.41-10.67c-1.54-1.35-3.62-2.07-5.66-1.64
			c-1.12,0.24-2.03,0.83-2.81,1.58c-1.05-1.33-2.35-2.47-4.15-2.5c-1.33-0.02-2.41,0.65-3.07,1.66c-0.55-0.03-1.11,0.19-1.37,0.72
			c-1.07,2.13-1.59,4.52-1.39,6.9c-1.04,0.85-1.89,1.75-1.93,3.33c-0.03,1.05,0.98,1.62,1.9,1.45c1.65-0.3,3.25-0.9,4.68-1.79
			c1.08-0.68,2.55-2.46,3.92-2.39c1.13,0.06,1.3,1.64,1.14,2.48c-0.32,1.59-1.34,3.02-2.01,4.48c-0.67,1.46-1.47,3.24-0.14,4.6
			c1.15,1.19,3.42,1.29,4.96,1.45c1.83,0.18,3.66,0.09,5.48-0.21c1.44-0.23,3.06-0.57,4.06-1.72
			C240.19,42.04,237.22,38.81,234.76,36.91z"/>
		<g>
			<path class="st10" d="M252.51,30.89c-0.84-9.76-13.12-20.07-23-18.96c-1.28,0.14-0.94,2.12,0.33,1.97
				c7.91-0.89,18.52,7.3,20.31,14.88c1.9,8.05-1.94,17.33-8.63,21.78c-7.57,5.03-17.75,4.73-25.79,1.02
				c-4.15-1.92-7.7-4.79-9.54-9.05c-1.57-3.62-1.85-7.77-1-11.6c2.09-9.45,11.14-15.56,20.29-16.89c1.27-0.19,0.94-2.16-0.33-1.97
				c-8.99,1.31-17.84,6.9-21.09,15.68c-3.23,8.72-0.46,18.83,7.53,23.86c8.39,5.29,19.79,6.51,28.76,1.94
				C248.3,49.5,253.28,39.91,252.51,30.89z"/>
			<path class="st10" d="M236.32,26.29c-0.84-0.98-2.34,0.34-1.51,1.32c1.22,1.43,0.9,4.64-0.17,6.12
				c-1.21,1.68-3.48,2.29-5.46,2.07c-2.09-0.23-3.97-1.48-4.44-3.6c-0.4-1.79,0.14-3.73,1.47-5c1.61-1.53,4.05-2.11,6.21-1.66
				c0.53,0.11,1.08-0.06,1.27-0.61c0.16-0.46-0.08-1.16-0.61-1.27c-2.68-0.56-5.54-0.09-7.72,1.64c-2.05,1.62-3.03,4.25-2.67,6.82
				c0.84,6.04,9.28,7.54,13.1,3.35C237.82,33.23,238.32,28.63,236.32,26.29z"/>
			<path class="st10" d="M238.44,40.48c-0.84-1.89-2.41-3.37-4.32-4.15c-1.2-0.49-1.85,1.41-0.66,1.89c1.48,0.6,2.61,1.79,3.24,3.25
				c0.29,0.67,0.45,1.42,0.44,2.15c0,0.57-0.06,0.55-0.61,0.63c-0.57,0.09-1.13,0.17-1.7,0.23c-3.98,0.48-8.01,0.42-11.99-0.07
				c0.11-1.37,0.44-2.7,1.04-3.96c0.6-1.26,1.53-2.86,3.01-3.14c1.26-0.24,0.87-2.2-0.4-1.96c-1.95,0.37-3.25,2.04-4.13,3.7
				c-1.01,1.91-1.55,4.02-1.56,6.18c0,0.57,0.37,0.99,0.93,1.06c2.68,0.38,5.39,0.56,8.1,0.51c1.34-0.02,2.68-0.1,4.01-0.22
				c1.26-0.12,2.86-0.11,4.04-0.6C239.9,45.16,239.12,42.01,238.44,40.48z"/>
			<g>
				<path class="st10" d="M226.01,25.05c-0.42-0.65-1.01-1.16-1.77-1.39c-0.75-0.22-1.56-0.19-2.27,0.16
					c-0.7,0.35-1.24,0.96-1.54,1.69c-0.31,0.74-0.25,1.56,0.04,2.29c0.31,0.8,1,1.43,1.79,1.73c0.49,0.19,1.12-0.11,1.27-0.61
					c0.16-0.54-0.09-1.07-0.61-1.27c-0.02-0.01-0.04-0.02-0.06-0.02c-0.05-0.04-0.12-0.07-0.17-0.1c-0.02-0.01-0.04-0.03-0.06-0.04
					c-0.04-0.05-0.1-0.1-0.13-0.14c-0.03-0.04-0.07-0.08-0.1-0.13c-0.02-0.03-0.03-0.06-0.05-0.09c-0.03-0.05-0.05-0.1-0.07-0.16
					c0-0.01-0.01-0.01-0.01-0.02c0,0,0,0,0-0.01c-0.02-0.08-0.04-0.15-0.05-0.23c0-0.01,0-0.03,0-0.04c0-0.07,0-0.14,0.01-0.21
					c0-0.01,0-0.02,0-0.03c0.03-0.1,0.09-0.21,0.12-0.32c0.01-0.02,0.03-0.05,0.04-0.07c0.04-0.06,0.08-0.11,0.12-0.16
					c0.01-0.01,0.03-0.03,0.04-0.04c0.06-0.05,0.12-0.1,0.18-0.15c0,0,0,0,0,0c0,0,0,0,0,0c0.06-0.03,0.12-0.07,0.18-0.09
					c0.02-0.01,0.04-0.02,0.06-0.02c0.06-0.02,0.12-0.03,0.19-0.04c0.02,0,0.04-0.01,0.06-0.01c0.06,0,0.13,0,0.18,0.01
					c0.07,0.01,0.15,0.03,0.22,0.03c-0.03,0-0.04,0-0.07,0c0.01,0,0.01,0,0.02,0c0.07,0.02,0.14,0.05,0.21,0.08
					c0.01,0.01,0.03,0.01,0.04,0.02c0.06,0.04,0.12,0.07,0.18,0.11c0.02,0.01,0.04,0.03,0.06,0.04c0.04,0.04,0.09,0.09,0.13,0.13
					c0.05,0.05,0.2,0.28,0.03,0.01c0.15,0.23,0.3,0.41,0.57,0.5c0.23,0.08,0.55,0.07,0.78-0.05
					C225.99,26.15,226.31,25.52,226.01,25.05z"/>
				<path class="st10" d="M223.56,25.54C223.48,25.53,223.43,25.53,223.56,25.54L223.56,25.54z"/>
			</g>
			<path class="st10" d="M223.62,31.03c-0.14-1.28-2.1-0.87-1.96,0.4c0.19,1.78-1.2,3.36-2.73,4.05c-1.34,0.6-2.84,0.62-4.3,0.4
				c1.7-2.05,1.68-5.22,2.03-7.82c0.21-1.53,0.71-3.2,2.11-4.04c1.24-0.75,2.72-0.78,4.01-0.16c0.49,0.24,1.11-0.15,1.27-0.61
				c0.2-0.56-0.13-1.04-0.61-1.27c-3.18-1.55-6.91,0.2-8.17,3.38c-0.75,1.9-0.68,3.97-0.95,5.96c-0.22,1.64-0.81,3.44-2.43,4.18
				c-0.76,0.35-0.71,1.6,0.12,1.84c2.63,0.76,5.66,1.11,8.17-0.24C222.42,35.88,223.89,33.58,223.62,31.03z"/>
		</g>
		<path class="st10" d="M236.7,30.86c-2.31-1.04-4.02-3.03-4.63-5.5c-0.25-0.99-1.64-0.91-1.93,0c-0.87,2.76-2.11,6.08-5.18,6.98
			c-1.23,0.36-0.71,2.29,0.53,1.93c2.9-0.85,4.56-3.24,5.67-5.87c1.03,1.82,2.61,3.32,4.53,4.18c0.49,0.22,1.08,0.14,1.37-0.36
			C237.31,31.8,237.19,31.08,236.7,30.86z"/>
	</g>
	<g>
		<path class="st10" d="M311.79,101.34c-0.84-9.76-13.12-20.07-23-18.96c-1.28,0.14-0.94,2.12,0.33,1.97
			c7.91-0.89,18.52,7.3,20.31,14.88c1.9,8.05-1.94,17.33-8.63,21.78c-7.57,5.03-17.75,4.73-25.79,1.02
			c-4.15-1.92-7.7-4.79-9.54-9.05c-1.57-3.62-1.85-7.77-1-11.6c2.09-9.45,11.14-15.56,20.29-16.89c1.27-0.19,0.94-2.16-0.33-1.97
			c-8.99,1.31-17.84,6.9-21.09,15.68c-3.23,8.72-0.46,18.83,7.53,23.86c8.39,5.29,19.79,6.51,28.76,1.94
			C307.58,119.95,312.56,110.36,311.79,101.34z"/>
		<path class="st10" d="M293.16,96.27c-0.84-0.98-2.34,0.34-1.51,1.32c1.22,1.43,0.9,4.64-0.17,6.12c-1.21,1.68-3.48,2.29-5.46,2.07
			c-2.09-0.23-3.97-1.48-4.44-3.6c-0.4-1.79,0.14-3.73,1.47-5c1.61-1.53,4.05-2.11,6.21-1.66c0.53,0.11,1.08-0.06,1.27-0.61
			c0.16-0.46-0.08-1.16-0.61-1.27c-2.68-0.56-5.54-0.09-7.72,1.64c-2.05,1.62-3.03,4.25-2.67,6.82c0.84,6.04,9.28,7.54,13.1,3.35
			C294.66,103.21,295.16,98.61,293.16,96.27z"/>
		<path class="st10" d="M295.28,110.46c-0.84-1.89-2.41-3.37-4.32-4.15c-1.19-0.49-1.85,1.41-0.66,1.89
			c1.48,0.6,2.61,1.79,3.24,3.25c0.29,0.67,0.45,1.42,0.44,2.15c0,0.57-0.06,0.55-0.61,0.63c-0.57,0.09-1.13,0.17-1.7,0.23
			c-3.98,0.48-8.01,0.42-11.99-0.07c0.11-1.37,0.44-2.7,1.04-3.96c0.6-1.26,1.53-2.86,3.01-3.14c1.26-0.24,0.87-2.2-0.4-1.96
			c-1.95,0.37-3.25,2.04-4.13,3.7c-1.01,1.91-1.55,4.02-1.56,6.18c0,0.57,0.37,0.99,0.93,1.06c2.68,0.38,5.39,0.56,8.1,0.51
			c1.34-0.02,2.68-0.1,4.01-0.22c1.26-0.12,2.86-0.11,4.04-0.6C296.75,115.14,295.96,111.99,295.28,110.46z"/>
		<g>
			<path class="st10" d="M282.84,95.99C282.76,95.98,282.71,95.98,282.84,95.99L282.84,95.99z"/>
		</g>
		<path class="st10" d="M292.5,103.9c-0.94-1.86-1.13-4.01-0.58-6.01c0.16-0.58-0.31-1.33-0.96-1.27c-2.72,0.25-5.47,0.18-8.17-0.25
			c-0.53-0.09-1.08,0.14-1.23,0.7c-0.13,0.48,0.16,1.14,0.7,1.23c2.48,0.4,4.97,0.53,7.47,0.39c-0.29,2.12,0.07,4.29,1.04,6.22
			c0.24,0.48,0.92,0.62,1.37,0.36C292.63,104.99,292.75,104.39,292.5,103.9z"/>
		<path class="st10" d="M291.03,107c-0.57-0.16-1.03,0.19-1.23,0.7c-0.16,0.4-0.38,0.8-0.62,1.17c-0.11,0.17-0.21,0.32-0.32,0.45
			c0,0-0.04,0.04-0.07,0.07c-0.11-0.16-0.22-0.33-0.32-0.5c-0.22-0.37-0.43-0.76-0.44-1.13c-0.05-1.11-1.64-1.37-1.96-0.27
			c-0.13,0.46-0.28,0.84-0.51,1.26c-0.07,0.13-0.15,0.24-0.23,0.37c-0.03-0.04-0.06-0.09-0.11-0.16c-0.05-0.09-0.1-0.19-0.15-0.29
			c-0.02-0.05-0.05-0.1-0.07-0.15c0.03,0.06,0.02,0.06-0.01-0.02c-0.22-0.53-0.41-1.07-0.59-1.62c-0.17-0.51-0.69-0.85-1.23-0.7
			c-0.5,0.14-0.87,0.71-0.7,1.23c0.24,0.75,0.51,1.5,0.85,2.22c0.32,0.69,0.84,1.32,1.58,1.58c0.89,0.32,1.58-0.18,2.09-0.92
			c0.39,0.59,0.85,1.12,1.62,1.19c0.88,0.08,1.52-0.53,2.01-1.18c0.47-0.64,0.82-1.34,1.12-2.07
			C291.93,107.73,291.51,107.13,291.03,107z"/>
	</g>
	<g>
		<path class="st26" d="M119.51,47.15c-1.15-9.98-8.72-19.49-18.3-19.83c-0.36-0.31-0.77-0.59-1.27-0.79
			c-12.6-4.97-28.04,6.5-28.91,19.4c-0.97,14.3,8.69,27,23.71,26.52C108.53,72.01,121.19,61.68,119.51,47.15z"/>
		<path class="st4" d="M103.3,56.53c-0.65-2.48-2.18-4.83-4.17-6.5c1.79-1.08,2.88-3.41,3.1-5.37c0.27-2.34-0.94-4.85-3.13-5.86
			c-1.21-0.56-2.51-0.59-3.67-0.19c-0.59-0.13-1.2-0.15-1.82,0c-1.26,0.31-2.28,1.25-3,2.3c-1.39,2.03-1.39,4.88,0.02,6.9
			c0.44,0.63,0.96,1.13,1.56,1.54c-0.49,0.39-0.93,0.86-1.3,1.28c-1.1,1.22-2.17,2.58-2.93,4.04c-0.8,1.53-1.23,3.97,0.87,4.68
			c0.76,0.26,1.66,0.25,2.46,0.31c0.93,0.07,1.86,0.11,2.79,0.12c1.78,0.02,3.55-0.06,5.32-0.25c0.85-0.09,1.81-0.12,2.64-0.37
			C103.27,58.8,103.6,57.67,103.3,56.53z M94.88,56.77c0.23-0.19,0.45-0.38,0.66-0.59c0.25,0.22,0.53,0.42,0.84,0.57
			c-0.09,0-0.18,0.01-0.27,0.02C95.7,56.78,95.29,56.77,94.88,56.77z"/>
		<g>
			<path class="st10" d="M120.31,45.45c-0.84-9.76-13.12-20.07-23-18.96c-1.28,0.14-0.94,2.12,0.33,1.97
				c7.91-0.89,18.52,7.3,20.31,14.88c1.9,8.05-1.94,17.33-8.63,21.78c-7.57,5.03-17.75,4.73-25.79,1.02
				c-4.15-1.92-7.7-4.79-9.54-9.05c-1.57-3.62-1.85-7.77-1-11.6c2.09-9.45,11.14-15.56,20.29-16.89c1.27-0.19,0.94-2.16-0.33-1.97
				c-8.99,1.31-17.84,6.9-21.09,15.68c-3.23,8.73-0.46,18.83,7.53,23.86c8.39,5.29,19.79,6.51,28.76,1.94
				C116.1,64.05,121.09,54.46,120.31,45.45z"/>
			<path class="st10" d="M101.68,40.38c-0.84-0.98-2.34,0.34-1.51,1.32c1.22,1.43,0.9,4.64-0.17,6.12
				c-1.21,1.68-3.48,2.29-5.46,2.07c-2.09-0.23-3.97-1.48-4.44-3.6c-0.4-1.79,0.14-3.73,1.47-5c1.61-1.53,4.05-2.11,6.21-1.66
				c0.53,0.11,1.08-0.06,1.27-0.61c0.16-0.46-0.08-1.16-0.61-1.27c-2.68-0.56-5.54-0.09-7.72,1.64c-2.05,1.62-3.03,4.25-2.67,6.82
				c0.84,6.04,9.28,7.54,13.1,3.35C103.18,47.32,103.68,42.72,101.68,40.38z"/>
			<path class="st10" d="M103.8,54.57c-0.84-1.89-2.41-3.37-4.32-4.15c-1.19-0.49-1.85,1.41-0.66,1.89c1.48,0.6,2.61,1.79,3.24,3.25
				c0.29,0.67,0.45,1.42,0.44,2.15c0,0.57-0.06,0.55-0.61,0.63c-0.57,0.09-1.13,0.17-1.7,0.23c-3.98,0.48-8.01,0.42-11.99-0.07
				c0.11-1.37,0.44-2.7,1.04-3.96c0.6-1.26,1.53-2.86,3.01-3.14c1.26-0.24,0.87-2.2-0.4-1.96c-1.95,0.37-3.25,2.04-4.13,3.7
				c-1.01,1.91-1.55,4.02-1.56,6.18c0,0.57,0.37,0.99,0.93,1.06c2.68,0.38,5.39,0.56,8.1,0.51c1.34-0.02,2.68-0.1,4.01-0.22
				c1.26-0.12,2.86-0.11,4.04-0.6C105.27,59.25,104.48,56.1,103.8,54.57z"/>
			<g>
				<path class="st10" d="M91.36,40.1C91.29,40.08,91.23,40.09,91.36,40.1L91.36,40.1z"/>
			</g>
			<path class="st10" d="M101.03,48.01c-0.94-1.86-1.13-4.01-0.58-6.01c0.16-0.58-0.31-1.33-0.96-1.27
				c-2.72,0.25-5.47,0.18-8.17-0.25c-0.53-0.09-1.08,0.14-1.23,0.7c-0.13,0.48,0.16,1.14,0.7,1.23c2.48,0.4,4.97,0.53,7.47,0.39
				c-0.29,2.12,0.07,4.29,1.04,6.22c0.24,0.48,0.92,0.62,1.37,0.36C101.16,49.09,101.27,48.49,101.03,48.01z"/>
			<path class="st10" d="M99.55,51.11c-0.57-0.16-1.03,0.19-1.23,0.7c-0.16,0.4-0.38,0.8-0.62,1.17c-0.11,0.17-0.21,0.32-0.32,0.45
				c0,0-0.04,0.04-0.07,0.07c-0.11-0.16-0.22-0.33-0.32-0.5c-0.22-0.37-0.43-0.76-0.44-1.13c-0.05-1.11-1.64-1.37-1.96-0.27
				c-0.13,0.46-0.28,0.84-0.51,1.26c-0.07,0.13-0.15,0.24-0.23,0.37c-0.03-0.04-0.06-0.09-0.11-0.16c-0.05-0.09-0.1-0.19-0.15-0.29
				c-0.02-0.05-0.05-0.1-0.07-0.15c0.03,0.06,0.02,0.06-0.01-0.02c-0.22-0.53-0.41-1.07-0.59-1.62c-0.17-0.51-0.69-0.85-1.23-0.7
				c-0.5,0.14-0.87,0.71-0.7,1.23c0.24,0.75,0.51,1.5,0.85,2.22c0.32,0.69,0.84,1.32,1.58,1.58c0.89,0.32,1.58-0.18,2.09-0.92
				c0.39,0.59,0.85,1.12,1.62,1.19c0.88,0.08,1.52-0.53,2.01-1.18c0.47-0.64,0.82-1.34,1.12-2.07
				C100.45,51.83,100.03,51.24,99.55,51.11z"/>
		</g>
	</g>
	<g>
		<path class="st26" d="M77.28,133.58c-1.15-9.98-8.72-19.49-18.3-19.83c-0.36-0.31-0.77-0.59-1.27-0.79
			c-12.6-4.97-28.04,6.5-28.91,19.4c-0.97,14.3,8.69,27,23.71,26.52C66.29,158.44,78.96,148.12,77.28,133.58z"/>
		<path class="st4" d="M59.65,137.38c2.27-3.22,2.82-7.83-0.41-10.67c-1.54-1.35-3.62-2.07-5.66-1.64
			c-1.12,0.24-2.03,0.83-2.81,1.58c-1.05-1.33-2.35-2.47-4.15-2.5c-1.33-0.02-2.41,0.65-3.07,1.65c-0.55-0.03-1.11,0.19-1.37,0.72
			c-1.07,2.13-1.59,4.52-1.39,6.9c-1.04,0.85-1.89,1.75-1.93,3.34c-0.03,1.05,0.98,1.62,1.9,1.45c1.65-0.3,3.25-0.9,4.68-1.79
			c1.08-0.68,2.55-2.46,3.92-2.39c1.13,0.06,1.3,1.64,1.14,2.48c-0.32,1.59-1.34,3.02-2.01,4.48c-0.67,1.46-1.47,3.24-0.14,4.6
			c1.15,1.19,3.42,1.29,4.96,1.45c1.83,0.18,3.66,0.09,5.48-0.21c1.44-0.23,3.06-0.57,4.06-1.72
			C65.08,142.51,62.11,139.28,59.65,137.38z"/>
		<g>
			<path class="st10" d="M77.91,132.1c-0.84-9.76-13.12-20.07-23-18.96c-1.28,0.14-0.94,2.12,0.33,1.97
				c7.91-0.89,18.52,7.3,20.31,14.88c1.9,8.05-1.94,17.33-8.63,21.78c-7.57,5.03-17.75,4.73-25.79,1.02
				c-4.15-1.92-7.7-4.79-9.54-9.05c-1.57-3.62-1.85-7.77-1-11.6c2.09-9.45,11.14-15.56,20.29-16.89c1.27-0.19,0.94-2.16-0.33-1.97
				c-8.99,1.31-17.84,6.9-21.09,15.68c-3.23,8.72-0.46,18.83,7.53,23.86c8.39,5.29,19.79,6.51,28.76,1.94
				C73.7,150.7,78.68,141.11,77.91,132.1z"/>
			<path class="st10" d="M61.72,127.5c-0.84-0.98-2.34,0.34-1.51,1.32c1.22,1.43,0.9,4.64-0.17,6.12c-1.21,1.68-3.48,2.29-5.46,2.07
				c-2.09-0.23-3.97-1.48-4.44-3.6c-0.4-1.79,0.14-3.73,1.47-5c1.61-1.53,4.05-2.11,6.21-1.66c0.53,0.11,1.08-0.06,1.27-0.61
				c0.16-0.46-0.08-1.16-0.61-1.27c-2.68-0.56-5.54-0.09-7.72,1.64c-2.05,1.62-3.03,4.25-2.67,6.82c0.84,6.04,9.28,7.54,13.1,3.35
				C63.22,134.44,63.72,129.84,61.72,127.5z"/>
			<path class="st10" d="M63.84,141.68c-0.84-1.89-2.41-3.37-4.32-4.15c-1.19-0.49-1.85,1.41-0.66,1.89
				c1.48,0.6,2.61,1.79,3.24,3.25c0.29,0.67,0.45,1.42,0.44,2.15c0,0.57-0.06,0.55-0.61,0.63c-0.57,0.09-1.13,0.17-1.7,0.23
				c-3.98,0.48-8.01,0.42-11.99-0.07c0.11-1.37,0.44-2.7,1.04-3.96c0.6-1.26,1.53-2.86,3.01-3.14c1.26-0.24,0.87-2.2-0.4-1.96
				c-1.95,0.37-3.25,2.04-4.13,3.7c-1.01,1.91-1.55,4.02-1.56,6.18c0,0.57,0.37,0.99,0.93,1.06c2.68,0.38,5.39,0.55,8.1,0.51
				c1.34-0.02,2.68-0.1,4.01-0.22c1.26-0.12,2.86-0.11,4.04-0.6C65.3,146.36,64.52,143.22,63.84,141.68z"/>
			<g>
				<path class="st10" d="M51.41,126.25c-0.42-0.65-1.01-1.16-1.77-1.39c-0.75-0.22-1.56-0.19-2.27,0.16
					c-0.7,0.35-1.24,0.96-1.54,1.69c-0.31,0.74-0.25,1.56,0.04,2.29c0.31,0.8,1,1.43,1.79,1.73c0.49,0.19,1.12-0.11,1.27-0.61
					c0.16-0.54-0.09-1.07-0.61-1.27c-0.02-0.01-0.04-0.02-0.06-0.02c-0.05-0.04-0.12-0.07-0.17-0.1c-0.02-0.01-0.04-0.03-0.06-0.04
					c-0.04-0.05-0.1-0.1-0.13-0.14c-0.03-0.04-0.07-0.08-0.1-0.13c-0.02-0.03-0.03-0.06-0.05-0.09c-0.03-0.05-0.05-0.1-0.07-0.16
					c0-0.01-0.01-0.01-0.01-0.02c0-0.01,0,0,0-0.01c-0.02-0.08-0.04-0.15-0.05-0.23c0-0.01,0-0.03,0-0.04c0-0.07,0-0.14,0.01-0.21
					c0-0.01,0-0.02,0-0.03c0.03-0.1,0.09-0.21,0.12-0.32c0.01-0.02,0.03-0.05,0.04-0.07c0.04-0.06,0.08-0.11,0.12-0.16
					c0.01-0.01,0.03-0.03,0.04-0.04c0.06-0.05,0.12-0.1,0.18-0.15c0,0,0,0,0,0c0,0,0,0,0,0c0.06-0.03,0.12-0.07,0.18-0.09
					c0.02-0.01,0.04-0.02,0.06-0.02c0.06-0.02,0.12-0.03,0.19-0.04c0.02,0,0.04-0.01,0.06-0.01c0.06,0,0.13,0,0.18,0.01
					c0.07,0.01,0.15,0.03,0.22,0.03c-0.03,0-0.04,0-0.07,0c0.01,0,0.01,0,0.02,0c0.07,0.02,0.14,0.05,0.21,0.08
					c0.01,0.01,0.03,0.01,0.04,0.02c0.06,0.04,0.12,0.07,0.18,0.11c0.02,0.01,0.04,0.03,0.06,0.04c0.04,0.04,0.09,0.09,0.13,0.13
					c0.05,0.05,0.2,0.28,0.03,0.01c0.15,0.23,0.3,0.41,0.57,0.5c0.23,0.08,0.55,0.07,0.78-0.05
					C51.39,127.35,51.71,126.72,51.41,126.25z"/>
				<path class="st10" d="M48.96,126.75C48.88,126.73,48.83,126.74,48.96,126.75L48.96,126.75z"/>
			</g>
			<path class="st10" d="M49.02,132.23c-0.14-1.28-2.1-0.87-1.96,0.4c0.19,1.78-1.2,3.36-2.73,4.05c-1.34,0.6-2.84,0.62-4.3,0.4
				c1.7-2.05,1.68-5.22,2.03-7.82c0.21-1.53,0.71-3.2,2.11-4.04c1.24-0.75,2.72-0.78,4.01-0.16c0.49,0.24,1.11-0.15,1.27-0.61
				c0.2-0.56-0.13-1.04-0.61-1.27c-3.18-1.55-6.91,0.2-8.17,3.38c-0.75,1.9-0.68,3.97-0.95,5.96c-0.22,1.64-0.81,3.44-2.43,4.18
				c-0.76,0.35-0.71,1.6,0.12,1.84c2.63,0.76,5.66,1.11,8.17-0.24C47.82,137.09,49.29,134.78,49.02,132.23z"/>
		</g>
		<path class="st10" d="M57.74,125.9c-0.57-0.16-1.02,0.2-1.23,0.7c-0.24,0.58-0.7,1.4-1.13,2.02c-0.4,0.56-0.97,1.2-1.55,1.73
			c-1.13,1.03-2.55,1.83-4.01,2.27c-0.52,0.16-0.84,0.7-0.7,1.23c0.14,0.51,0.71,0.85,1.23,0.7c3.68-1.11,6.64-3.87,8.09-7.41
			C58.64,126.63,58.22,126.04,57.74,125.9z"/>
	</g>
	<g>
		<path class="st30" d="M243.44,197c-0.47-0.44-1.25-0.61-1.82-0.23c-1.16,0.76-2.1,1.72-2.86,2.81c-0.07-0.08-0.14-0.15-0.21-0.22
			c-0.13-0.14-0.25-0.29-0.37-0.44c-0.06-0.07-0.12-0.15-0.18-0.22c-0.01-0.01-0.01-0.01-0.01-0.02c0,0,0,0,0,0
			c-0.15-0.13-0.26-0.35-0.37-0.51c-0.12-0.17-0.24-0.35-0.36-0.52c-0.43-0.65-1.34-0.99-2.05-0.54c-0.65,0.42-1,1.35-0.54,2.05
			c0.58,0.87,1.22,1.71,1.92,2.49c0.28,0.32,0.59,0.68,0.92,1c0.04,0.13,0.08,0.26,0.14,0.36c0.18,0.31,0.54,0.61,0.9,0.69
			c0.33,0.08,0.63,0.05,0.9-0.05c0,0,0,0,0,0c1.37,0.06,2.11-1.29,2.77-2.29c0.54-0.82,1.02-1.67,1.46-2.54
			C243.96,198.24,243.95,197.47,243.44,197z"/>
		<path class="st10" d="M243.8,194.99c-1.14-0.87-2.81-0.08-3.79,0.68c-0.47,0.36-0.85,0.8-1.18,1.28
			c-0.46-0.71-1.06-1.31-1.89-1.64c-1.51-0.59-3.32-0.04-3.86,1.59c-0.56,1.68,0.35,3.34,1.29,4.69c0.91,1.3,2.09,2.43,3.43,3.28
			c0.37,0.24,0.83,0.24,1.17,0c0.32,0.21,0.74,0.26,1.13-0.03c1.06-0.8,2.03-1.74,2.83-2.8c0.76-1,1.46-2.12,1.78-3.34
			C245.05,197.43,244.93,195.87,243.8,194.99z M241.52,200.61c-0.73,1.01-1.61,1.88-2.6,2.63c-0.96-0.63-1.82-1.38-2.54-2.27
			c-0.62-0.77-1.47-1.88-1.49-2.92c-0.02-0.96,0.72-1.14,1.42-0.82c0.92,0.42,1.32,1.64,1.66,2.53c0.38,0.97,1.75,0.64,1.91-0.29
			c0.17-1,0.79-1.89,1.65-2.42c0.19-0.12,0.41-0.22,0.62-0.3c0.09-0.03,0.18-0.06,0.27-0.09c0.06-0.02,0.17-0.02,0.18-0.05
			c0.27,0.2,0.31,0.74,0.29,1.01C242.81,198.72,242.16,199.73,241.52,200.61z"/>
	</g>
	<g>
		<path class="st30" d="M220.12,116.29c-0.47-0.44-1.25-0.61-1.82-0.23c-1.16,0.76-2.1,1.72-2.86,2.81
			c-0.07-0.08-0.14-0.15-0.21-0.22c-0.13-0.14-0.25-0.29-0.37-0.44c-0.06-0.07-0.12-0.15-0.18-0.22c-0.01-0.01-0.01-0.01-0.01-0.02
			c0,0,0,0,0,0c-0.15-0.13-0.26-0.35-0.37-0.51c-0.12-0.17-0.24-0.35-0.36-0.52c-0.43-0.65-1.34-0.99-2.05-0.54
			c-0.65,0.42-1,1.35-0.54,2.05c0.58,0.87,1.22,1.71,1.92,2.49c0.28,0.32,0.59,0.68,0.92,1c0.04,0.13,0.08,0.26,0.14,0.36
			c0.18,0.31,0.54,0.61,0.9,0.69c0.33,0.08,0.63,0.05,0.9-0.05c0,0,0,0,0,0c1.37,0.06,2.11-1.29,2.77-2.29
			c0.54-0.82,1.02-1.67,1.46-2.54C220.64,117.52,220.63,116.76,220.12,116.29z"/>
		<path class="st10" d="M220.48,114.28c-1.14-0.87-2.81-0.08-3.79,0.68c-0.47,0.36-0.85,0.8-1.18,1.28
			c-0.46-0.71-1.06-1.31-1.89-1.64c-1.51-0.59-3.32-0.04-3.86,1.59c-0.56,1.68,0.35,3.34,1.29,4.69c0.91,1.3,2.09,2.43,3.43,3.28
			c0.37,0.24,0.83,0.24,1.18,0c0.32,0.21,0.74,0.26,1.13-0.03c1.06-0.79,2.03-1.74,2.83-2.8c0.76-1,1.46-2.12,1.78-3.34
			C221.73,116.72,221.62,115.15,220.48,114.28z M218.2,119.89c-0.73,1.01-1.61,1.88-2.6,2.63c-0.96-0.63-1.82-1.38-2.54-2.27
			c-0.62-0.77-1.47-1.88-1.49-2.92c-0.02-0.96,0.72-1.14,1.42-0.82c0.92,0.42,1.32,1.64,1.66,2.53c0.38,0.97,1.75,0.64,1.91-0.29
			c0.17-1,0.79-1.89,1.65-2.42c0.19-0.12,0.41-0.22,0.62-0.3c0.09-0.03,0.18-0.06,0.27-0.09c0.06-0.02,0.17-0.02,0.18-0.05
			c0.27,0.2,0.31,0.74,0.29,1.01C219.49,118.01,218.84,119.02,218.2,119.89z"/>
	</g>
	<g>
		<path class="st30" d="M118.66,62.62c-0.47-0.44-1.25-0.61-1.82-0.23c-1.16,0.76-2.1,1.72-2.86,2.81
			c-0.07-0.08-0.14-0.15-0.21-0.22c-0.13-0.14-0.25-0.29-0.37-0.44c-0.06-0.07-0.12-0.15-0.18-0.22c-0.01-0.01-0.01-0.01-0.01-0.02
			c0,0,0,0,0,0c-0.15-0.13-0.26-0.35-0.37-0.51c-0.12-0.17-0.24-0.35-0.36-0.52c-0.43-0.65-1.34-0.99-2.05-0.54
			c-0.65,0.42-1,1.35-0.54,2.05c0.58,0.87,1.22,1.71,1.92,2.49c0.28,0.32,0.59,0.68,0.92,1c0.04,0.13,0.08,0.26,0.14,0.36
			c0.18,0.31,0.54,0.61,0.9,0.69c0.33,0.08,0.63,0.05,0.9-0.05c0,0,0,0,0,0c1.37,0.06,2.11-1.29,2.77-2.29
			c0.54-0.82,1.02-1.67,1.46-2.54C119.18,63.86,119.17,63.09,118.66,62.62z"/>
		<path class="st10" d="M119.02,60.61c-1.14-0.87-2.81-0.08-3.79,0.68c-0.47,0.36-0.85,0.8-1.18,1.28
			c-0.46-0.71-1.06-1.31-1.89-1.64c-1.51-0.59-3.32-0.04-3.86,1.59c-0.56,1.68,0.35,3.34,1.29,4.69c0.91,1.3,2.09,2.43,3.43,3.28
			c0.37,0.24,0.83,0.24,1.18,0c0.32,0.21,0.74,0.26,1.13-0.03c1.06-0.8,2.03-1.74,2.83-2.8c0.76-1,1.46-2.12,1.78-3.34
			C120.27,63.05,120.15,61.49,119.02,60.61z M116.74,66.23c-0.73,1.01-1.61,1.88-2.6,2.63c-0.96-0.63-1.82-1.38-2.54-2.27
			c-0.62-0.77-1.47-1.88-1.49-2.92c-0.02-0.96,0.72-1.14,1.42-0.82c0.92,0.42,1.32,1.64,1.66,2.53c0.38,0.97,1.75,0.64,1.91-0.29
			c0.17-1,0.79-1.89,1.65-2.42c0.19-0.12,0.41-0.22,0.62-0.3c0.09-0.03,0.18-0.06,0.27-0.09c0.06-0.02,0.17-0.02,0.18-0.05
			c0.27,0.2,0.31,0.74,0.29,1.01C118.03,64.34,117.38,65.35,116.74,66.23z"/>
	</g>
	<g>
		<path class="st30" d="M129.74,176.73c-0.47-0.44-1.25-0.61-1.82-0.23c-1.16,0.76-2.1,1.72-2.86,2.81
			c-0.07-0.08-0.14-0.15-0.21-0.22c-0.13-0.14-0.25-0.29-0.37-0.44c-0.06-0.07-0.12-0.15-0.18-0.22c-0.01-0.01-0.01-0.01-0.01-0.02
			c0,0,0,0,0,0c-0.15-0.13-0.26-0.35-0.37-0.51c-0.12-0.17-0.24-0.35-0.36-0.52c-0.43-0.65-1.34-0.99-2.05-0.54
			c-0.65,0.42-1,1.35-0.54,2.05c0.58,0.87,1.22,1.71,1.92,2.49c0.28,0.32,0.59,0.68,0.92,1c0.04,0.13,0.08,0.26,0.14,0.36
			c0.18,0.31,0.54,0.61,0.9,0.69c0.33,0.08,0.63,0.05,0.9-0.05c0,0,0,0,0,0c1.37,0.06,2.11-1.29,2.77-2.29
			c0.54-0.82,1.02-1.67,1.46-2.54C130.26,177.97,130.25,177.2,129.74,176.73z"/>
		<path class="st10" d="M130.1,174.72c-1.14-0.87-2.81-0.08-3.79,0.68c-0.47,0.36-0.85,0.8-1.18,1.28
			c-0.46-0.71-1.06-1.31-1.89-1.64c-1.51-0.59-3.32-0.04-3.86,1.59c-0.56,1.68,0.35,3.34,1.29,4.69c0.91,1.3,2.09,2.43,3.43,3.28
			c0.37,0.24,0.83,0.24,1.18,0c0.32,0.21,0.74,0.26,1.13-0.03c1.06-0.8,2.03-1.74,2.83-2.8c0.76-1,1.46-2.12,1.78-3.34
			C131.35,177.16,131.23,175.59,130.1,174.72z M127.82,180.33c-0.73,1.01-1.61,1.88-2.6,2.63c-0.96-0.63-1.82-1.38-2.54-2.27
			c-0.62-0.77-1.47-1.88-1.49-2.92c-0.02-0.96,0.72-1.14,1.42-0.82c0.92,0.42,1.32,1.64,1.66,2.53c0.38,0.97,1.75,0.64,1.91-0.29
			c0.17-1,0.79-1.89,1.65-2.42c0.19-0.12,0.41-0.22,0.62-0.3c0.09-0.03,0.18-0.06,0.27-0.09c0.06-0.02,0.16-0.02,0.18-0.05
			c0.27,0.2,0.31,0.74,0.29,1.01C129.11,178.45,128.46,179.46,127.82,180.33z"/>
	</g>
	<g>
		<path class="st30" d="M257.96,119.27c-0.47-0.44-1.25-0.61-1.82-0.23c-1.16,0.76-2.1,1.72-2.86,2.81
			c-0.07-0.08-0.14-0.15-0.21-0.22c-0.13-0.14-0.25-0.29-0.37-0.44c-0.06-0.07-0.12-0.15-0.18-0.22c-0.01-0.01-0.01-0.01-0.01-0.02
			c0,0,0,0,0,0c-0.15-0.13-0.26-0.35-0.37-0.51c-0.12-0.17-0.24-0.35-0.36-0.52c-0.43-0.65-1.34-0.99-2.05-0.54
			c-0.65,0.42-1,1.35-0.54,2.05c0.58,0.87,1.22,1.71,1.92,2.49c0.28,0.32,0.59,0.68,0.92,1c0.04,0.13,0.08,0.26,0.14,0.36
			c0.18,0.31,0.54,0.61,0.9,0.69c0.33,0.08,0.63,0.05,0.9-0.05c0,0,0,0,0,0c1.37,0.06,2.11-1.29,2.77-2.29
			c0.54-0.82,1.02-1.67,1.46-2.54C258.49,120.51,258.47,119.74,257.96,119.27z"/>
		<path class="st10" d="M258.32,117.26c-1.14-0.87-2.81-0.08-3.79,0.68c-0.47,0.36-0.85,0.8-1.18,1.28
			c-0.46-0.71-1.06-1.31-1.89-1.64c-1.51-0.59-3.32-0.04-3.86,1.59c-0.56,1.68,0.35,3.34,1.29,4.69c0.91,1.3,2.09,2.43,3.43,3.28
			c0.37,0.24,0.83,0.24,1.18,0c0.32,0.21,0.74,0.26,1.13-0.03c1.06-0.8,2.03-1.74,2.83-2.8c0.76-1,1.46-2.12,1.78-3.34
			C259.57,119.7,259.46,118.14,258.32,117.26z M256.05,122.88c-0.73,1.01-1.61,1.88-2.6,2.63c-0.96-0.63-1.82-1.38-2.54-2.27
			c-0.62-0.77-1.47-1.88-1.49-2.92c-0.02-0.96,0.72-1.14,1.42-0.82c0.92,0.42,1.32,1.64,1.66,2.53c0.38,0.97,1.75,0.64,1.91-0.29
			c0.17-1,0.79-1.89,1.65-2.42c0.19-0.12,0.41-0.22,0.62-0.3c0.09-0.03,0.18-0.06,0.27-0.09c0.06-0.02,0.17-0.02,0.18-0.05
			c0.27,0.2,0.31,0.74,0.29,1.01C257.33,120.99,256.68,122,256.05,122.88z"/>
	</g>
	<g>
		<path class="st26" d="M83.57,214.48c-1.15-9.98-8.72-19.49-18.3-19.83c-0.36-0.31-0.77-0.59-1.27-0.79
			c-12.6-4.97-28.04,6.5-28.91,19.4c-0.97,14.3,8.69,27,23.71,26.52C72.59,239.34,85.25,229.02,83.57,214.48z"/>
		<path class="st4" d="M66.71,222.79c-0.97-1.06-1.95-2.12-2.92-3.17c-0.49-0.53-0.96-1.11-1.48-1.61
			c-0.09-0.08-0.18-0.15-0.28-0.23c0.79-0.35,1.48-0.91,1.86-1.62c0.12-0.23,0.21-0.46,0.29-0.69c0.8-0.69,1.43-1.54,1.7-2.6
			c0.49-1.94-0.4-3.98-2.11-4.97c-0.06-0.03-0.12-0.06-0.18-0.09c-1.53-2.68-5.23-3.26-7.75-1.31c-2.45,1.89-2.88,5.41-2.22,8.24
			c0.4,1.72,2.01,2.73,3.66,2.91c-1.7,1.2-3.11,2.59-4.34,4.26c-0.52,0.7-0.97,1.45-1.36,2.24c-0.33,0.67-0.69,1.35-0.71,2.11
			c-0.01,0.38,0.07,0.74,0.2,1.09c0,0,0,0,0,0c3.27,0.06,6.5,0.71,9.77,0.58c1.59-0.31,3.18-0.63,4.76-0.95
			C67.54,226.58,67.9,224.09,66.71,222.79z"/>
		<g>
			<path class="st10" d="M84.25,213.13c-0.84-9.76-13.12-20.07-23-18.96c-1.28,0.14-0.94,2.12,0.33,1.97
				c7.91-0.89,18.52,7.3,20.31,14.88c1.9,8.05-1.94,17.33-8.63,21.78c-7.57,5.03-17.75,4.73-25.79,1.02
				c-4.15-1.92-7.7-4.79-9.54-9.05c-1.57-3.62-1.85-7.77-1-11.6c2.09-9.45,11.14-15.56,20.29-16.89c1.27-0.19,0.94-2.16-0.33-1.97
				c-8.99,1.31-17.84,6.9-21.09,15.68c-3.23,8.73-0.46,18.83,7.53,23.86c8.39,5.29,19.79,6.51,28.76,1.94
				C80.04,231.73,85.02,222.15,84.25,213.13z"/>
			<path class="st10" d="M65.62,208.06c-0.84-0.98-2.34,0.34-1.51,1.32c1.22,1.43,0.9,4.64-0.17,6.12
				c-1.21,1.68-3.48,2.29-5.46,2.07c-2.09-0.23-3.97-1.48-4.44-3.6c-0.4-1.79,0.14-3.73,1.47-5c1.61-1.53,4.05-2.11,6.21-1.66
				c0.53,0.11,1.08-0.06,1.27-0.61c0.16-0.46-0.08-1.16-0.61-1.27c-2.68-0.56-5.54-0.09-7.72,1.64c-2.05,1.62-3.03,4.25-2.67,6.82
				c0.84,6.04,9.28,7.54,13.1,3.35C67.12,215,67.62,210.4,65.62,208.06z"/>
			<path class="st10" d="M67.74,222.25c-0.84-1.89-2.41-3.37-4.32-4.15c-1.19-0.49-1.85,1.41-0.66,1.89
				c1.48,0.6,2.61,1.79,3.24,3.25c0.29,0.67,0.45,1.42,0.44,2.15c0,0.57-0.06,0.55-0.61,0.63c-0.57,0.09-1.13,0.17-1.7,0.23
				c-3.98,0.48-8.01,0.42-11.99-0.07c0.11-1.37,0.44-2.7,1.04-3.96c0.6-1.26,1.53-2.86,3.01-3.14c1.26-0.24,0.87-2.2-0.4-1.96
				c-1.95,0.37-3.25,2.04-4.13,3.7c-1.01,1.91-1.55,4.02-1.56,6.18c0,0.57,0.37,0.99,0.93,1.06c2.68,0.38,5.39,0.55,8.1,0.51
				c1.34-0.02,2.68-0.1,4.01-0.22c1.26-0.12,2.86-0.11,4.04-0.6C69.21,226.93,68.42,223.78,67.74,222.25z"/>
			<g>
				<path class="st10" d="M55.3,207.78C55.22,207.76,55.17,207.77,55.3,207.78L55.3,207.78z"/>
			</g>
		</g>
		<path class="st10" d="M65.33,208.94c-0.15-0.55-0.7-0.81-1.23-0.7c-2.49,0.5-5.04,0.59-7.57,0.3c-0.54-0.06-0.99,0.51-1,1
			c-0.04,2.49-0.55,4.93-1.46,7.25c-0.2,0.5,0.22,1.1,0.7,1.23c0.57,0.16,1.03-0.19,1.23-0.7c0.85-2.14,1.32-4.41,1.47-6.71
			c2.4,0.18,4.8,0.03,7.16-0.44C65.16,210.07,65.47,209.44,65.33,208.94z"/>
	</g>
	<path class="st4" d="M105.41,176.54c-1.29,0-1.29,2,0,2C106.7,178.54,106.7,176.54,105.41,176.54z"/>
	<path class="st4" d="M126.25,168.09c-1.29,0-1.29,2,0,2C127.53,170.09,127.54,168.09,126.25,168.09z"/>
	<path class="st4" d="M138.38,171.12c-1.29,0-1.29,2,0,2C139.67,173.12,139.67,171.12,138.38,171.12z"/>
	<path class="st4" d="M137.79,164.71c-1.29,0-1.29,2,0,2C139.08,166.71,139.08,164.71,137.79,164.71z"/>
	<path class="st4" d="M125.99,189.39c-1.29,0-1.29,2,0,2C127.28,191.39,127.28,189.39,125.99,189.39z"/>
	<path class="st4" d="M124.12,150.91c-1.29,0-1.29,2,0,2C125.4,152.91,125.41,150.91,124.12,150.91z"/>
	<path class="st4" d="M133.5,109.93c-1.29,0-1.29,2,0,2C134.79,111.93,134.79,109.93,133.5,109.93z"/>
	<path class="st4" d="M141.01,112.93c-1.29,0-1.29,2,0,2C142.3,114.93,142.3,112.93,141.01,112.93z"/>
	<path class="st4" d="M193.19,104.36c-1.29,0-1.29,2,0,2C194.48,106.36,194.48,104.36,193.19,104.36z"/>
	<path class="st4" d="M199.67,98.48c-1.29,0-1.29,2,0,2C200.96,100.48,200.96,98.48,199.67,98.48z"/>
	<path class="st4" d="M188.75,100.52c-1.29,0-1.29,2,0,2C190.04,102.52,190.04,100.52,188.75,100.52z"/>
	<path class="st4" d="M215.44,131.39c-1.29,0-1.29,2,0,2C216.72,133.39,216.72,131.39,215.44,131.39z"/>
	<path class="st4" d="M206.99,132.8c-1.29,0-1.29,2,0,2C208.28,134.8,208.28,132.8,206.99,132.8z"/>
	<path class="st4" d="M215.22,127.26c-1.29,0-1.29,2,0,2C216.51,129.26,216.51,127.26,215.22,127.26z"/>
	<path class="st4" d="M224.91,131.66c-0.05-0.17-0.13-0.32-0.26-0.44c-0.07-0.05-0.13-0.1-0.2-0.16c-0.16-0.09-0.32-0.14-0.5-0.14
		h-0.28c-0.14-0.01-0.27,0.02-0.39,0.09c-0.12,0.04-0.23,0.11-0.32,0.21c-0.1,0.09-0.17,0.2-0.21,0.32
		c-0.06,0.12-0.09,0.25-0.09,0.39c0.01,0.09,0.02,0.18,0.04,0.27c0.05,0.17,0.13,0.32,0.26,0.44c0.07,0.05,0.13,0.1,0.2,0.16
		c0.16,0.09,0.32,0.14,0.5,0.14h0.28c0.14,0.01,0.27-0.02,0.39-0.09c0.12-0.04,0.23-0.11,0.32-0.21c0.1-0.09,0.17-0.2,0.21-0.32
		c0.06-0.12,0.09-0.25,0.09-0.39C224.94,131.84,224.93,131.75,224.91,131.66z"/>
	<path class="st4" d="M218.06,168.3c-1.29,0-1.29,2,0,2C219.35,170.3,219.35,168.3,218.06,168.3z"/>
	<path class="st4" d="M212.24,170.43c-1.29,0-1.29,2,0,2C213.53,172.43,213.53,170.43,212.24,170.43z"/>
	<path class="st4" d="M214.4,181.07c-1.29,0-1.29,2,0,2C215.69,183.07,215.69,181.07,214.4,181.07z"/>
	<path class="st10" d="M289.75,199.75c-1.96,0.68-3.6-0.95-4.84-2.25c-0.55-0.59-1.42-0.23-1.67,0.44
		c-0.93,2.51-2.89,4.51-5.31,5.62c-0.49,0.23-0.61,0.93-0.36,1.37c0.29,0.5,0.88,0.59,1.37,0.36c2.42-1.11,4.35-3.04,5.57-5.38
		c1.6,1.43,3.58,2.53,5.76,1.77C291.5,201.26,290.98,199.33,289.75,199.75z"/>
	<g>
		<path class="st26" d="M261.58,175.08c-0.2-2.33-1.56-4.25-3.48-5.5c-3.46-2.26-9.3-2.98-12.21,0.54
			c-0.07,0.09-0.13,0.18-0.19,0.27c-0.14-0.19-0.31-0.35-0.51-0.47c-0.89-0.52-1.87-0.15-2.43,0.64c-1.83,2.57-2.27,6.08-0.02,8.54
			c1.76,1.93,4.3,2.36,6.79,2.36c-0.17,0.7-0.45,1.38-0.84,2.03c-0.64,1.06,0.16,2.82,1.53,2.67c1.13-0.12,2.02-0.52,2.87-1.28
			c0.65-0.58,1.15-1.32,1.76-1.94c1.09-1.1,2.78-1.63,4.08-2.58C260.66,179.11,261.76,177.27,261.58,175.08z"/>
		<path class="st61" d="M261.98,171.07c-1.23-2.27-3.8-3.51-6.25-3.93c-3.58-0.61-7.31,0.16-10.53,1.76
			c-1.02,0.51-0.13,2.04,0.89,1.53c3.04-1.51,6.76-2.24,10.09-1.38c2.87,0.74,5.34,2.91,4.65,6.14c-0.71,3.3-3.59,5.26-6.7,5.93
			c-1.54,0.33-1.48,1.66-2.34,2.73c-0.62,0.78-1.45,1.33-2.37,1.62c0.27-0.5,0.53-1.01,0.77-1.54c0.38-0.83,1.02-1.89,0.9-2.84
			c-0.11-0.88-0.82-1.21-1.63-1.27c-1.01-0.07-2.01-0.1-3.01-0.29c-1.87-0.36-3.75-1.24-4.33-3.21c-0.59-2,0.19-4.14,1.32-5.79
			c0.65-0.94-0.89-1.83-1.53-0.89c-2.16,3.17-2.68,7.89,0.81,10.33c1.54,1.08,3.49,1.4,5.33,1.55c0.25,0.02,0.82,0.15,1.18,0.13
			c-0.02,0.05-0.03,0.09-0.05,0.14c-0.12,0.32-0.25,0.63-0.38,0.93c-0.53,1.19-1.15,2.33-1.84,3.44c-0.37,0.58,0.11,1.32,0.77,1.33
			c2.71,0.06,5.32-1.57,6.36-4.1c0.14-0.35,0.17-0.44,0.51-0.56c0.31-0.12,0.69-0.13,1.01-0.22c0.69-0.19,1.37-0.46,2-0.79
			c1.3-0.67,2.44-1.64,3.32-2.79C262.66,176.79,263.37,173.65,261.98,171.07z"/>
	</g>
	<g>
		<path class="st59" d="M108.31,132.85c-0.2-2.33-1.56-4.25-3.48-5.5c-3.46-2.26-9.3-2.98-12.21,0.54
			c-0.07,0.09-0.13,0.18-0.19,0.27c-0.14-0.19-0.31-0.35-0.51-0.47c-0.89-0.52-1.87-0.15-2.43,0.64c-1.83,2.57-2.27,6.08-0.02,8.54
			c1.76,1.93,4.3,2.36,6.79,2.36c-0.17,0.7-0.45,1.38-0.84,2.03c-0.64,1.06,0.16,2.82,1.53,2.67c1.13-0.12,2.02-0.52,2.87-1.28
			c0.65-0.58,1.15-1.32,1.76-1.94c1.09-1.1,2.78-1.63,4.08-2.58C107.4,136.88,108.5,135.04,108.31,132.85z"/>
		<path class="st61" d="M108.72,128.84c-1.23-2.27-3.8-3.51-6.25-3.93c-3.58-0.61-7.31,0.16-10.53,1.76
			c-1.02,0.51-0.13,2.04,0.89,1.53c3.04-1.51,6.76-2.24,10.09-1.38c2.87,0.74,5.34,2.91,4.65,6.14c-0.71,3.3-3.59,5.26-6.7,5.93
			c-1.54,0.33-1.48,1.66-2.34,2.73c-0.62,0.78-1.45,1.33-2.37,1.62c0.27-0.5,0.53-1.01,0.77-1.54c0.38-0.83,1.02-1.89,0.9-2.84
			c-0.11-0.88-0.82-1.21-1.63-1.27c-1.01-0.07-2.01-0.1-3.01-0.29c-1.87-0.36-3.75-1.24-4.33-3.21c-0.59-2,0.19-4.14,1.32-5.79
			c0.65-0.94-0.89-1.83-1.53-0.89c-2.16,3.17-2.68,7.89,0.81,10.33c1.54,1.08,3.49,1.4,5.33,1.55c0.25,0.02,0.82,0.15,1.18,0.13
			c-0.02,0.05-0.03,0.09-0.05,0.14c-0.12,0.32-0.25,0.63-0.38,0.93c-0.53,1.19-1.15,2.33-1.84,3.44c-0.37,0.59,0.11,1.32,0.77,1.33
			c2.71,0.06,5.32-1.57,6.36-4.1c0.14-0.35,0.17-0.44,0.51-0.56c0.31-0.12,0.69-0.13,1.01-0.22c0.69-0.19,1.37-0.46,2-0.79
			c1.3-0.67,2.44-1.64,3.32-2.79C109.4,134.56,110.11,131.42,108.72,128.84z"/>
	</g>
	<g>
		<path class="st1" d="M212.84,85.25c-0.17-0.5-0.56-0.75-1.07-0.84c-2.51-0.45-4.93,0.33-7.12,1.55c-0.37-2.15-1.36-4.15-2.99-5.67
			l-0.02,0.02c-0.08-0.07-0.14-0.16-0.22-0.23c-0.02-0.02-0.05-0.02-0.07-0.04c-0.27-0.26-0.62-0.41-1.04-0.33
			c-0.6,0.12-1.18,0.81-0.98,1.45c1.05,3.38,1.57,6.89,1.48,10.43c-0.03,1.28,1.46,1.72,2.25,0.8c1.15-1.35,2.74-2.24,4.3-3.03
			c1.74-0.88,3.49-1.69,5.12-2.77C212.89,86.32,212.99,85.66,212.84,85.25z"/>
		<path class="st1" d="M225.65,58.51c-3.32,0.43-8.35,0.89-10.92,2.92c-0.06-2.94-2.45-6.45-4.08-8.98
			c-0.63-0.97-2.13-0.33-2.2,0.64c-0.79,11.06,0.1,19.15-5.55,32.59c-0.43,1.02-0.01,3.22,0.79,3.06c0.5,0.44,1.73-0.65,2.17-1.37
			c6.03-9.94,12.11-19.85,20.98-26.89C227.7,59.78,226.71,58.37,225.65,58.51z"/>
	</g>
	<g>
		<path class="st30" d="M235.33,52.37c-2.18-1.2-4.39,0.24-5.67,2.01c-0.54,0.75-0.97,1.58-1.29,2.45c-0.44-0.6-0.92-1.18-1.46-1.69
			c-1.56-1.47-4.4-2.84-5.91-0.49c-1.21,1.89-0.08,4.36,1.25,5.83c1.45,1.6,3.5,2.35,5.18,3.66c0.27,0.21,0.59,0.35,0.91,0.4
			c0.35,0.24,0.8,0.36,1.26,0.27c3.55-0.69,6.61-3.66,7.38-7.2C237.37,55.76,237.19,53.39,235.33,52.37z"/>
		<path class="st10" d="M237.71,51.34c-1.59-1.54-4.54-0.52-6.17,0.47c-1.29,0.78-2.37,1.89-3.13,3.18
			c-0.66-1.25-1.57-2.33-2.94-2.86c-1.91-0.73-4.31-0.13-5.09,1.89c-0.82,2.12,0.34,4.78,1.45,6.59c1.22,1.98,2.95,3.63,4.99,4.74
			c1.13,0.62,2.14-1.11,1.01-1.73c-2.77-1.51-5.5-4.59-5.71-7.89c-0.1-1.58,1.22-2.28,2.62-1.76c1.57,0.59,2.24,2.48,2.69,3.94
			c0.28,0.9,1.7,1,1.93,0c0.48-2.07,1.87-3.79,3.78-4.72c0.69-0.34,2.44-1.05,3.14-0.48c0.59,0.48,0.3,1.7,0.14,2.3
			c-1.14,4.32-4.17,7.99-8.1,10.07c-1.14,0.6-0.13,2.33,1.01,1.73c3.93-2.09,6.99-5.61,8.54-9.78
			C238.51,55.34,239.23,52.81,237.71,51.34z"/>
	</g>
	<path class="st4" d="M120.55,140.65c-1.29,0-1.29,2,0,2C121.84,142.65,121.84,140.65,120.55,140.65z"/>
	<path class="st4" d="M141.57,105.74c-1.29,0-1.29,2,0,2C142.86,107.74,142.86,105.74,141.57,105.74z"/>
	<g>
		<path class="st62" d="M210,64.08c-0.2-2.33-1.56-4.25-3.48-5.5c-3.46-2.26-9.3-2.98-12.21,0.54c-0.07,0.09-0.13,0.18-0.19,0.27
			c-0.14-0.19-0.31-0.35-0.51-0.47c-0.89-0.52-1.87-0.15-2.43,0.64c-1.83,2.57-2.27,6.08-0.02,8.54c1.76,1.93,4.3,2.36,6.79,2.36
			c-0.17,0.7-0.45,1.38-0.84,2.03c-0.64,1.06,0.16,2.82,1.53,2.67c1.13-0.12,2.02-0.52,2.87-1.28c0.65-0.58,1.15-1.32,1.76-1.94
			c1.09-1.1,2.78-1.63,4.08-2.58C209.09,68.11,210.19,66.26,210,64.08z"/>
		<path class="st61" d="M210.4,60.07c-1.23-2.27-3.8-3.51-6.25-3.93c-3.58-0.61-7.31,0.16-10.53,1.76
			c-1.02,0.51-0.13,2.04,0.89,1.53c3.04-1.51,6.76-2.24,10.09-1.38c2.87,0.74,5.34,2.91,4.65,6.14c-0.71,3.3-3.59,5.26-6.7,5.93
			c-1.54,0.33-1.48,1.66-2.34,2.73c-0.62,0.78-1.45,1.33-2.37,1.62c0.27-0.5,0.53-1.01,0.77-1.54c0.38-0.83,1.02-1.89,0.9-2.84
			c-0.11-0.88-0.82-1.21-1.63-1.27c-1.01-0.07-2.01-0.1-3.01-0.29c-1.87-0.36-3.75-1.24-4.33-3.21c-0.59-2,0.19-4.14,1.32-5.79
			c0.65-0.94-0.89-1.83-1.53-0.89c-2.16,3.17-2.68,7.89,0.81,10.33c1.54,1.08,3.49,1.4,5.33,1.55c0.25,0.02,0.82,0.15,1.18,0.13
			c-0.02,0.05-0.03,0.09-0.05,0.14c-0.12,0.32-0.25,0.63-0.38,0.93c-0.53,1.19-1.15,2.33-1.84,3.44c-0.37,0.59,0.11,1.32,0.77,1.33
			c2.71,0.06,5.32-1.57,6.36-4.1c0.14-0.35,0.17-0.44,0.51-0.56c0.31-0.12,0.69-0.13,1.01-0.22c0.69-0.19,1.37-0.46,2-0.79
			c1.3-0.67,2.44-1.64,3.32-2.79C211.09,65.79,211.8,62.64,210.4,60.07z"/>
	</g>
</g>
</svg>
