<?xml version="1.0" encoding="utf-8"?>
<!-- Generator: Adobe Illustrator 24.2.0, SVG Export Plug-In . SVG Version: 6.00 Build 0)  -->
<svg version="1.1" id="line" xmlns="http://www.w3.org/2000/svg" xmlns:xlink="http://www.w3.org/1999/xlink" x="0px" y="0px"
	 viewBox="0 0 220 300" style="enable-background:new 0 0 220 300;" xml:space="preserve">
<style type="text/css">
	.st0{fill:#BCDFDF;}
	.st1{fill:#99D3DD;}
	.st2{fill:#ABCB58;}
	.st3{fill:#C7D555;}
	.st4{fill:#FFFFFF;}
	.st5{fill:#AAB4B9;}
	.st6{fill:#FDDBBF;}
	.st7{fill:#F4CA99;}
	.st8{fill:#DC9F5C;}
	.st9{fill:#F6B1AC;}
	.st10{fill:#651811;}
	.st11{fill:#E9E56D;}
	.st12{fill:#9BC0D5;}
	.st13{fill:#DDE8F0;}
	.st14{fill:#EF7C68;}
	.st15{fill:#FFE1A2;}
	.st16{fill:#E9F4F4;}
	.st17{fill:#CDD95F;}
	.st18{fill:#B2DCDA;}
	.st19{fill:#9DAEB9;}
	.st20{fill:#F0EA7A;}
	.st21{fill:#CCDB81;}
	.st22{fill:#F4A5AD;}
	.st23{fill:#B2B2B2;}
	.st24{fill:#C0C4C6;}
	.st25{fill:#E3E8EA;}
	.st26{fill:#FFDB83;}
	.st27{fill:#C0C0C0;}
	.st28{fill:#6EC6D9;}
	.st29{fill:#878D91;}
	.st30{fill:#F0867B;}
	.st31{fill:#FFDE90;}
	.st32{fill:#C53C6C;}
	.st33{fill:#EEBF6D;}
	.st34{fill:#903D8F;}
	.st35{fill:#514E9C;}
	.st36{fill:#F9BB7A;}
	.st37{fill:#F28F6C;}
	.st38{fill:#FFE586;}
	.st39{fill:#6FC5D3;}
	.st40{fill:#9BD4E4;}
	.st41{fill:#F6B9C2;}
	.st42{fill:#F4A08B;}
	.st43{fill:#D1E8E8;}
	.st44{fill:#FCC249;}
	.st45{fill:#9F5A24;}
	.st46{fill:#BCE4FA;}
	.st47{fill:#B07147;}
	.st48{fill:#D88959;}
	.st49{fill:#FFEC96;}
	.st50{fill:#91D0D4;}
	.st51{fill:#651811;stroke:#651811;stroke-width:0.75;stroke-linecap:round;stroke-linejoin:round;stroke-miterlimit:10;}
	.st52{fill:#C1E3E6;}
	.st53{fill:#C4D4DE;}
	.st54{fill:#651811;stroke:#651811;stroke-width:0.5;stroke-miterlimit:10;}
	.st55{fill:#651811;stroke:#651811;stroke-width:0.5;stroke-linecap:round;stroke-linejoin:round;stroke-miterlimit:10;}
	.st56{fill:#D8E0E6;}
	.st57{fill:#FECB4A;}
	.st58{fill:#EEF8FE;}
	.st59{fill:#ADCE68;}
	.st60{fill:#FCD7BA;}
	.st61{fill:#651811;stroke:#651811;stroke-width:0.25;stroke-miterlimit:10;}
	.st62{fill:#F4A8B3;}
	.st63{fill:#F7AE6E;}
	.st64{fill:#FEDFB3;}
	.st65{fill:#F7B28C;}
	.st66{fill:#FFFBDC;}
	.st67{fill:#FCC24F;}
	.st68{fill:none;stroke:#651811;stroke-width:2;stroke-linecap:round;stroke-linejoin:round;stroke-miterlimit:10;}
	.st69{fill:#9EC65A;}
	.st70{fill:#A7D9DE;}
	.st71{fill:#CACCCE;}
	.st72{fill:#FBBE49;}
	.st73{fill:#9BC76B;}
	.st74{fill:#D9E181;}
	.st75{fill:#F6B9C5;}
	.st76{fill:#87CDD8;}
	.st77{fill:#651811;stroke:#651811;stroke-width:0.4;stroke-miterlimit:10;}
	.st78{fill:#A8D7CC;}
	.st79{fill:#CDEAFC;}
	.st80{fill:#D6D6D6;}
	.st81{fill:#F8C3C3;}
	.st82{fill:#D7BCA5;}
	.st83{fill:#FFD247;}
	.st84{fill:#F59B42;}
	.st85{fill:#FFF59B;}
	.st86{fill:#90D1DB;}
	.st87{fill:#EB935F;}
	.st88{fill:#DD7636;}
</style>
<g>
	<path class="st26" d="M202.72,195.78c-17.02-43.74-58.71-55.04-105.18-56.9c-33.33-1.33-54.81,11.91-72.09,36.23
		c-8.98,12.64-13.42,40.47-10.01,51.34c4.4,14.05,24.33,50.85,96.33,49.49c63.33-1.2,82.62-27.15,89.45-42.81
		C206.32,221.46,207.4,207.79,202.72,195.78z"/>
	<path class="st63" d="M150.58,64.15c-27.49-14.77-48.09-12.23-59.77-10.04C74.33,57.2,37.39,71.06,31.3,122.05
		c-6.09,50.99,64.65,77.55,124.44,49.09C215.52,142.68,185.82,83.08,150.58,64.15z"/>
	<g>
		<path class="st4" d="M56.31,219.41c-0.18-0.17-0.46-0.3-0.71-0.28c-0.26,0.02-0.53,0.1-0.7,0.3c-0.05,0.07-0.1,0.14-0.15,0.2
			c-0.09,0.16-0.13,0.33-0.13,0.51c-0.06,0.69-0.12,1.38-0.18,2.07c-0.02,0.24,0.14,0.54,0.3,0.7c0.18,0.17,0.46,0.3,0.71,0.28
			c0.26-0.02,0.53-0.1,0.7-0.3c0.05-0.07,0.1-0.14,0.15-0.2c0.09-0.16,0.13-0.33,0.13-0.51c0.06-0.69,0.12-1.38,0.18-2.07
			C56.64,219.87,56.48,219.57,56.31,219.41z"/>
		<path class="st4" d="M54.11,223.08c-0.07-0.05-0.14-0.1-0.2-0.15c-0.16-0.09-0.33-0.13-0.51-0.13c-0.5,0.07-1,0.14-1.5,0.21
			c-0.14,0-0.27,0.03-0.38,0.09c-0.12,0.04-0.23,0.11-0.32,0.21c-0.17,0.18-0.3,0.46-0.28,0.71c0.02,0.26,0.1,0.53,0.3,0.7
			c0.07,0.05,0.14,0.1,0.2,0.15c0.16,0.09,0.33,0.13,0.51,0.13c0.5-0.07,1-0.14,1.5-0.21c0.14,0,0.27-0.03,0.38-0.09
			c0.12-0.04,0.23-0.11,0.32-0.21c0.17-0.18,0.3-0.46,0.28-0.71C54.4,223.52,54.31,223.26,54.11,223.08z"/>
		<path class="st4" d="M56.75,227.08c-0.11-0.25-0.18-0.52-0.23-0.79c-0.02-0.24-0.03-0.49,0-0.73c0.02-0.24-0.14-0.54-0.3-0.7
			c-0.18-0.17-0.46-0.3-0.71-0.28c-0.26,0.02-0.53,0.1-0.7,0.3c-0.05,0.07-0.1,0.14-0.15,0.2c-0.09,0.16-0.13,0.33-0.13,0.51
			c-0.04,0.35-0.01,0.7,0.04,1.04c0.05,0.35,0.13,0.68,0.27,1.01c0.03,0.13,0.09,0.24,0.18,0.34c0.07,0.11,0.17,0.19,0.28,0.25
			c0.22,0.12,0.53,0.17,0.77,0.09c0.24-0.08,0.47-0.24,0.59-0.47c0.03-0.08,0.06-0.16,0.1-0.24
			C56.8,227.43,56.8,227.26,56.75,227.08z"/>
		<path class="st4" d="M59.83,223.69c-0.08-0.24-0.24-0.47-0.47-0.59c-0.08-0.03-0.16-0.06-0.24-0.1c-0.15-0.04-0.3-0.04-0.46,0
			c-0.37,0.05-0.75,0.06-1.13,0.03c-0.14,0-0.27,0.03-0.38,0.09c-0.12,0.04-0.23,0.11-0.32,0.21c-0.1,0.09-0.16,0.2-0.2,0.32
			c-0.06,0.12-0.09,0.25-0.08,0.39c0.02,0.26,0.1,0.53,0.3,0.7c0.07,0.05,0.14,0.1,0.2,0.15c0.16,0.09,0.33,0.13,0.51,0.13
			c0.53,0.05,1.06,0,1.58-0.1c0.13-0.03,0.24-0.09,0.34-0.18c0.11-0.07,0.19-0.17,0.25-0.28c0.07-0.12,0.11-0.24,0.11-0.37
			C59.88,223.96,59.87,223.82,59.83,223.69z"/>
	</g>
	<g>
		<path class="st4" d="M99.6,260.87c-0.18-0.17-0.46-0.3-0.71-0.28c-0.26,0.02-0.53,0.1-0.7,0.3c-0.05,0.07-0.1,0.14-0.15,0.2
			c-0.09,0.16-0.13,0.33-0.13,0.51c-0.06,0.69-0.12,1.38-0.18,2.07c-0.02,0.24,0.14,0.54,0.3,0.7c0.18,0.17,0.46,0.3,0.71,0.28
			c0.26-0.02,0.53-0.1,0.7-0.3c0.05-0.07,0.1-0.14,0.15-0.2c0.09-0.16,0.13-0.33,0.13-0.51c0.06-0.69,0.12-1.38,0.18-2.07
			C99.92,261.33,99.77,261.03,99.6,260.87z"/>
		<path class="st4" d="M97.4,264.54c-0.07-0.05-0.14-0.1-0.2-0.15c-0.16-0.09-0.33-0.13-0.51-0.13c-0.5,0.07-1,0.14-1.5,0.21
			c-0.14,0-0.27,0.03-0.38,0.09c-0.12,0.04-0.23,0.11-0.32,0.21c-0.17,0.18-0.3,0.46-0.28,0.71c0.02,0.26,0.1,0.53,0.3,0.7
			c0.07,0.05,0.14,0.1,0.2,0.15c0.16,0.09,0.33,0.13,0.51,0.13c0.5-0.07,1-0.14,1.5-0.21c0.14,0,0.27-0.03,0.38-0.09
			c0.12-0.04,0.23-0.11,0.32-0.21c0.17-0.18,0.3-0.46,0.28-0.71C97.68,264.98,97.59,264.72,97.4,264.54z"/>
		<path class="st4" d="M100.03,268.54c-0.11-0.25-0.18-0.52-0.23-0.79c-0.02-0.24-0.03-0.49,0-0.73c0.02-0.24-0.14-0.54-0.3-0.7
			c-0.18-0.17-0.46-0.3-0.71-0.28c-0.26,0.02-0.53,0.1-0.7,0.3c-0.05,0.07-0.1,0.14-0.15,0.2c-0.09,0.16-0.13,0.33-0.13,0.51
			c-0.04,0.35-0.01,0.7,0.04,1.04c0.05,0.35,0.13,0.68,0.27,1.01c0.03,0.13,0.09,0.24,0.18,0.34c0.07,0.11,0.17,0.19,0.28,0.25
			c0.22,0.12,0.53,0.17,0.77,0.09c0.24-0.08,0.47-0.23,0.59-0.47c0.03-0.08,0.06-0.16,0.1-0.24
			C100.09,268.9,100.08,268.72,100.03,268.54z"/>
		<path class="st4" d="M103.12,265.15c-0.08-0.24-0.24-0.47-0.47-0.59c-0.08-0.03-0.16-0.07-0.24-0.1c-0.15-0.04-0.3-0.04-0.46,0
			c-0.37,0.05-0.75,0.06-1.13,0.03c-0.14,0-0.27,0.03-0.38,0.09c-0.12,0.04-0.23,0.11-0.32,0.21c-0.1,0.09-0.16,0.2-0.2,0.32
			c-0.06,0.12-0.09,0.25-0.08,0.39c0.02,0.26,0.1,0.53,0.3,0.7c0.07,0.05,0.14,0.1,0.2,0.15c0.16,0.09,0.33,0.13,0.51,0.13
			c0.53,0.05,1.06,0,1.58-0.1c0.13-0.03,0.24-0.09,0.34-0.18c0.11-0.07,0.19-0.17,0.25-0.28c0.07-0.12,0.11-0.24,0.11-0.37
			C103.17,265.42,103.16,265.28,103.12,265.15z"/>
	</g>
	<g>
		<path class="st4" d="M159.71,201.3c-0.18-0.17-0.46-0.3-0.71-0.28c-0.26,0.02-0.53,0.1-0.7,0.3c-0.05,0.07-0.1,0.14-0.15,0.2
			c-0.09,0.16-0.13,0.33-0.13,0.51c-0.06,0.69-0.12,1.38-0.18,2.07c-0.02,0.24,0.14,0.54,0.3,0.7c0.18,0.17,0.46,0.3,0.71,0.28
			c0.26-0.02,0.53-0.1,0.7-0.3c0.05-0.07,0.1-0.14,0.15-0.2c0.09-0.16,0.13-0.33,0.13-0.51c0.06-0.69,0.12-1.38,0.18-2.07
			C160.04,201.76,159.88,201.46,159.71,201.3z"/>
		<path class="st4" d="M157.51,204.97c-0.07-0.05-0.14-0.1-0.2-0.15c-0.16-0.09-0.33-0.13-0.51-0.13c-0.5,0.07-1,0.14-1.5,0.21
			c-0.14,0-0.27,0.03-0.38,0.09c-0.12,0.04-0.23,0.11-0.32,0.21c-0.17,0.18-0.3,0.46-0.28,0.71c0.02,0.26,0.1,0.53,0.3,0.7
			c0.07,0.05,0.14,0.1,0.2,0.15c0.16,0.09,0.33,0.13,0.51,0.13c0.5-0.07,1-0.14,1.5-0.21c0.14,0,0.27-0.03,0.38-0.09
			c0.12-0.04,0.23-0.11,0.32-0.21c0.17-0.18,0.3-0.46,0.28-0.71C157.8,205.42,157.71,205.15,157.51,204.97z"/>
		<path class="st4" d="M160.15,208.97c-0.11-0.25-0.18-0.52-0.23-0.79c-0.02-0.24-0.03-0.49,0-0.73c0.02-0.24-0.14-0.54-0.3-0.7
			c-0.18-0.17-0.46-0.3-0.71-0.28c-0.26,0.02-0.53,0.1-0.7,0.3c-0.05,0.07-0.1,0.14-0.15,0.2c-0.09,0.16-0.13,0.33-0.13,0.51
			c-0.04,0.35-0.01,0.7,0.04,1.04c0.05,0.35,0.13,0.68,0.27,1.01c0.03,0.13,0.09,0.24,0.18,0.34c0.07,0.11,0.17,0.19,0.28,0.25
			c0.22,0.12,0.53,0.17,0.77,0.09c0.24-0.08,0.47-0.24,0.59-0.47c0.03-0.08,0.06-0.16,0.1-0.24
			C160.2,209.33,160.2,209.15,160.15,208.97z"/>
		<path class="st4" d="M163.23,205.59c-0.08-0.24-0.24-0.47-0.47-0.59c-0.08-0.03-0.16-0.06-0.24-0.1c-0.15-0.04-0.3-0.04-0.46,0
			c-0.37,0.05-0.75,0.06-1.13,0.03c-0.14,0-0.27,0.03-0.38,0.09c-0.12,0.04-0.23,0.11-0.32,0.21c-0.1,0.09-0.16,0.2-0.2,0.32
			c-0.06,0.12-0.09,0.25-0.08,0.39c0.02,0.26,0.1,0.53,0.3,0.7c0.07,0.05,0.14,0.1,0.2,0.15c0.16,0.09,0.33,0.13,0.51,0.13
			c0.53,0.05,1.06,0,1.58-0.1c0.13-0.03,0.24-0.09,0.34-0.18c0.11-0.07,0.19-0.17,0.25-0.28c0.07-0.12,0.11-0.24,0.11-0.37
			C163.28,205.85,163.27,205.72,163.23,205.59z"/>
	</g>
	<g>
		<path class="st4" d="M161.05,244.18c-0.18-0.17-0.46-0.3-0.71-0.28c-0.26,0.02-0.53,0.1-0.7,0.3c-0.05,0.07-0.1,0.14-0.15,0.2
			c-0.09,0.16-0.13,0.33-0.13,0.51c-0.06,0.69-0.12,1.38-0.18,2.07c-0.02,0.24,0.14,0.54,0.3,0.7c0.18,0.17,0.46,0.3,0.71,0.28
			c0.26-0.02,0.53-0.1,0.7-0.3c0.05-0.07,0.1-0.14,0.15-0.2c0.09-0.16,0.13-0.33,0.13-0.51c0.06-0.69,0.12-1.38,0.18-2.07
			C161.38,244.65,161.22,244.35,161.05,244.18z"/>
		<path class="st4" d="M158.85,247.85c-0.07-0.05-0.14-0.1-0.2-0.15c-0.16-0.09-0.33-0.13-0.51-0.13c-0.5,0.07-1,0.14-1.5,0.21
			c-0.14,0-0.27,0.03-0.38,0.09c-0.12,0.04-0.23,0.11-0.32,0.21c-0.17,0.18-0.3,0.46-0.28,0.71c0.02,0.26,0.1,0.53,0.3,0.7
			c0.07,0.05,0.14,0.1,0.2,0.15c0.16,0.09,0.33,0.13,0.51,0.13c0.5-0.07,1-0.14,1.5-0.21c0.14,0,0.27-0.03,0.38-0.09
			c0.12-0.04,0.23-0.11,0.32-0.21c0.17-0.18,0.3-0.46,0.28-0.71C159.14,248.3,159.05,248.03,158.85,247.85z"/>
		<path class="st4" d="M161.49,251.86c-0.11-0.25-0.18-0.52-0.23-0.79c-0.02-0.24-0.03-0.49,0-0.73c0.02-0.24-0.14-0.54-0.3-0.7
			c-0.18-0.17-0.46-0.3-0.71-0.28c-0.26,0.02-0.53,0.1-0.7,0.3c-0.05,0.07-0.1,0.14-0.15,0.2c-0.09,0.16-0.13,0.33-0.13,0.51
			c-0.04,0.35-0.01,0.7,0.04,1.04c0.05,0.35,0.13,0.68,0.27,1.01c0.03,0.13,0.09,0.24,0.18,0.34c0.07,0.11,0.17,0.19,0.28,0.25
			c0.22,0.12,0.53,0.17,0.77,0.09c0.24-0.08,0.47-0.24,0.59-0.47c0.03-0.08,0.06-0.16,0.1-0.24
			C161.54,252.21,161.54,252.03,161.49,251.86z"/>
		<path class="st4" d="M164.57,248.47c-0.08-0.24-0.24-0.47-0.47-0.59c-0.08-0.03-0.16-0.06-0.24-0.1c-0.15-0.04-0.3-0.04-0.46,0
			c-0.37,0.05-0.75,0.06-1.13,0.03c-0.14,0-0.27,0.03-0.38,0.09c-0.12,0.04-0.23,0.11-0.32,0.21c-0.1,0.09-0.16,0.2-0.2,0.32
			c-0.06,0.12-0.09,0.25-0.08,0.39c0.02,0.26,0.1,0.53,0.3,0.7c0.07,0.05,0.14,0.1,0.2,0.15c0.16,0.09,0.33,0.13,0.51,0.13
			c0.53,0.05,1.06,0,1.58-0.1c0.13-0.03,0.24-0.09,0.34-0.18c0.11-0.07,0.19-0.17,0.25-0.28c0.07-0.12,0.11-0.24,0.11-0.37
			C164.62,248.73,164.61,248.6,164.57,248.47z"/>
	</g>
	<path class="st4" d="M156.02,233.06c-1.89-0.37-2.47,2.57-0.58,2.94C157.33,236.38,157.91,233.43,156.02,233.06z"/>
	<path class="st4" d="M172.11,223.1c-1.89-0.37-2.47,2.57-0.58,2.94C173.42,226.41,174,223.47,172.11,223.1z"/>
	<path class="st4" d="M63.23,197.72c-1.89-0.37-2.47,2.57-0.58,2.94C64.55,201.03,65.13,198.09,63.23,197.72z"/>
	<path class="st4" d="M71.63,249.81c-1.89-0.37-2.47,2.57-0.58,2.94C72.95,253.13,73.53,250.19,71.63,249.81z"/>
	<path class="st4" d="M50.47,240.89c-1.89-0.37-2.47,2.57-0.58,2.94C51.79,244.2,52.37,241.26,50.47,240.89z"/>
	<path class="st4" d="M130.42,258.27c-1.89-0.37-2.47,2.57-0.58,2.94C131.74,261.59,132.32,258.64,130.42,258.27z"/>
	<g>
		<g>
			<path class="st30" d="M108.28,116.61c4.18-0.14,8.36-0.15,12.53,0.13c0.12-0.16,0.26-0.31,0.37-0.47
				c1.04-1.58,1.74-3.85,0.38-5.48c-1.59-1.91-4.18-1.37-6.02-0.19c-0.78,0.5-1.48,1.12-2.09,1.82c-0.2-0.72-0.43-1.43-0.75-2.1
				c-0.92-1.94-3.07-4.24-5.33-2.6c-1.82,1.32-1.65,4.03-0.94,5.89C106.85,114.73,107.55,115.67,108.28,116.61z"/>
			<path class="st10" d="M106.94,116.66c0.73-0.03,1.46-0.05,2.18-0.07c-1.24-2.26-1.88-5.05-1.12-7.44
				c0.48-1.51,1.96-1.69,3.08-0.69c1.25,1.12,1.19,3.12,1.08,4.65c-0.07,0.94,1.22,1.55,1.8,0.7c1.2-1.76,3.12-2.85,5.23-3.03
				c0.76-0.07,2.66-0.1,3.1,0.69c0.37,0.66-0.33,1.69-0.7,2.2c-0.82,1.13-1.8,2.11-2.88,2.97c0.93,0.04,1.86,0.1,2.79,0.17
				c0.24-0.24,0.48-0.47,0.71-0.72c1.21-1.36,2.8-3.46,1.92-5.38c-0.93-2.02-4.04-2.13-5.92-1.8c-1.49,0.26-2.9,0.9-4.07,1.83
				c-0.16-1.4-0.62-2.74-1.7-3.73c-1.51-1.37-3.97-1.68-5.43-0.08c-1.54,1.68-1.42,4.58-1.04,6.67
				C106.16,114.65,106.5,115.68,106.94,116.66z"/>
		</g>
		<g>
			<g>
				<path class="st6" d="M93.04,84.41c0.01-0.34,0-0.68-0.07-1.01c-0.45-1.93-2.7-3.2-4.4-1.8c-0.65,0.53-0.92,1.32-1.16,2.1
					c-0.24,0.79-0.44,1.58-0.57,2.39c-0.04,0.24-0.06,0.48-0.09,0.73c-0.06,0.15-0.1,0.3-0.11,0.47c-0.24,2.7-0.16,5.44,0.26,8.12
					c0.27,1.69,2.48,2.34,3.56,0.96c0.21-0.27,0.39-0.56,0.55-0.86c0.64-0.3,1.13-0.85,1.41-1.52c0.65-1.53,0.99-3.29,1.26-4.92
					C93.94,87.42,93.93,85.86,93.04,84.41z"/>
				<path class="st44" d="M85.93,88.02c0.07-1-0.46-1.91-1.46-2.18c-0.78-0.21-1.65,0.07-2.13,0.72c-0.58,0.28-1.01,0.81-1.12,1.51
					c-0.36,2.32-0.42,4.7-0.21,7.04c0.09,0.99,1.04,1.71,1.98,1.71c1.03,0,1.78-0.73,1.98-1.72C85.44,92.77,85.76,90.4,85.93,88.02z
					"/>
			</g>
			<g>
				<path class="st10" d="M86.85,94.35c0.17-2.11,0.3-4.23,0.37-6.35c0.04-1.13,0.33-2.66-1.12-2.99c-1.13-0.25-2.35-0.3-3.5-0.45
					c-1.27-0.16-1.61,1.81-0.33,1.97c0.59,0.08,1.19,0.15,1.78,0.23c0.28,0.04,0.56,0.07,0.84,0.11c0.14,0.02,0.28,0.04,0.41,0.05
					c0.01,0.6-0.07,1.24-0.1,1.82c-0.04,0.83-0.08,1.65-0.13,2.48c-0.05,0.82-0.11,1.65-0.17,2.47c-0.03,0.43-0.07,0.86-0.11,1.29
					c-0.02,0.18-0.03,0.36-0.05,0.54c-0.01,0.06-0.01,0.12-0.02,0.18c-0.38-0.02-0.78-0.11-1.13-0.14c-0.37-0.04-0.91-0.01-1.33-0.1
					c-0.02-0.17-0.03-0.34-0.05-0.5c-0.03-0.34-0.06-0.69-0.08-1.03c-0.05-0.72-0.08-1.45-0.09-2.18c-0.02-1.4,0.04-2.79,0.16-4.19
					c0.05-0.54-0.26-1.06-0.82-1.15c-0.5-0.08-1.1,0.28-1.15,0.82c-0.19,2.09-0.24,4.19-0.13,6.28c0.03,0.48,0.06,0.97,0.1,1.45
					c0.04,0.5,0.05,1.06,0.25,1.52c0.45,1.03,1.76,0.95,2.7,1.05c0.93,0.1,2.2,0.48,2.99-0.19C86.92,96.68,86.78,95.25,86.85,94.35z
					"/>
				<path class="st10" d="M94.09,94.01c0.24-0.14,0.48-0.28,0.71-0.42c0.59-0.38,1.09-0.97,0.98-1.72
					c-0.13-0.82-0.83-1.31-1.64-1.64c0.79-0.88,1.27-1.96,0.78-3.22c-0.4-1.04-1.2-1.42-2.09-1.44c0.36-0.73,0.91-2.33,0.99-3.15
					c0.13-1.34-0.42-3.02-1.95-3.21c-1.46-0.18-2.49,1.32-3.16,2.4c-0.61,0.99-1.42,3.13-2.58,3.57c-1.2,0.46-0.5,2.33,0.71,1.87
					c1.93-0.74,2.82-3.45,3.96-4.98c0.11-0.14,0.62-0.91,0.84-0.88c0.26,0.03,0.21,0.91,0.2,1.04c-0.13,1.31-1.23,3.33-1.96,4.37
					c-0.66,0.93,0.36,2.06,1.35,1.46c0.44-0.27,1.88-1.04,1.89,0c0.01,0.86-1.05,1.44-1.66,1.84c-0.74,0.49-0.41,1.65,0.41,1.8
					c0.41,0.08,0.8,0.17,1.19,0.31c0.05,0.02,0.14,0.07,0.23,0.11c-0.26,0.16-0.54,0.38-0.69,0.47c-0.44,0.25-0.87,0.51-1.31,0.76
					c-0.55,0.32-0.54,1.21-0.06,1.58c0.3,0.24,0.87,0.58,1.35,0.7c-0.23,0.04-0.46,0.06-0.68,0.08c-1.58,0.16-3.15,0.09-4.72-0.18
					c-1.27-0.22-1.6,1.75-0.33,1.97c1.28,0.22,2.59,0.32,3.89,0.29c1.07-0.03,2.32-0.04,3.29-0.55c0.85-0.45,1.33-1.41,0.9-2.33
					C94.75,94.51,94.44,94.22,94.09,94.01z"/>
			</g>
		</g>
		<g>
			<g>
				<path class="st6" d="M132.87,76.23c-0.02-0.34-0.07-0.68-0.17-1c-0.63-1.87-3-2.92-4.56-1.36c-0.59,0.6-0.79,1.41-0.95,2.2
					c-0.16,0.81-0.28,1.62-0.34,2.44c-0.02,0.24-0.02,0.49-0.02,0.73c-0.04,0.15-0.07,0.31-0.07,0.48c0.03,2.71,0.37,5.43,1.06,8.05
					c0.43,1.65,2.7,2.08,3.64,0.61c0.19-0.29,0.33-0.6,0.46-0.91c0.6-0.36,1.04-0.96,1.25-1.65c0.49-1.58,0.66-3.37,0.77-5.02
					C134.05,79.14,133.9,77.58,132.87,76.23z"/>
				<path class="st44" d="M126.14,80.52c-0.03-1-0.65-1.85-1.66-2.03c-0.79-0.14-1.63,0.23-2.05,0.92
					c-0.55,0.33-0.93,0.91-0.96,1.62c-0.13,2.35,0.04,4.72,0.48,7.02c0.18,0.98,1.2,1.6,2.14,1.51c1.02-0.1,1.7-0.9,1.8-1.9
					C126.12,85.3,126.21,82.91,126.14,80.52z"/>
			</g>
			<g>
				<path class="st10" d="M127.68,86.73c-0.04-2.12-0.12-4.24-0.25-6.35c-0.07-1.13,0.07-2.68-1.41-2.86
					c-1.15-0.14-2.37-0.07-3.53-0.1c-1.28-0.04-1.43,1.96-0.14,2c0.6,0.02,1.2,0.03,1.8,0.05c0.28,0.01,0.56,0.02,0.85,0.02
					c0.14,0,0.28,0.01,0.42,0.01c0.07,0.6,0.05,1.25,0.08,1.82c0.05,0.83,0.08,1.65,0.11,2.48c0.03,0.83,0.05,1.65,0.07,2.48
					c0.01,0.43,0.01,0.86,0.02,1.29c0,0.18,0,0.36,0,0.54c0,0.06,0,0.12,0,0.18c-0.38,0.02-0.79-0.03-1.14-0.03
					c-0.37,0-0.91,0.08-1.33,0.03c-0.03-0.17-0.07-0.33-0.1-0.5c-0.07-0.34-0.13-0.68-0.18-1.02c-0.12-0.72-0.22-1.44-0.3-2.16
					c-0.16-1.39-0.24-2.78-0.25-4.18c0-0.54-0.36-1.03-0.93-1.07c-0.51-0.04-1.07,0.39-1.07,0.93c0.02,2.09,0.17,4.19,0.49,6.26
					c0.07,0.48,0.15,0.96,0.24,1.43c0.09,0.49,0.15,1.05,0.4,1.49c0.55,0.98,1.84,0.77,2.79,0.78c0.93,0,2.24,0.26,2.95-0.48
					C127.98,89.04,127.7,87.64,127.68,86.73z"/>
				<path class="st10" d="M134.85,85.68c0.22-0.16,0.45-0.32,0.67-0.49c0.55-0.44,0.99-1.07,0.8-1.81c-0.21-0.8-0.96-1.22-1.79-1.47
					c0.7-0.95,1.07-2.08,0.46-3.28c-0.5-0.99-1.34-1.3-2.22-1.23c0.29-0.76,0.68-2.41,0.68-3.23c0-1.34-0.71-2.97-2.26-3
					c-1.47-0.03-2.35,1.56-2.91,2.7c-0.51,1.04-1.11,3.25-2.22,3.81c-1.15,0.58-0.27,2.37,0.89,1.79c1.85-0.93,2.46-3.71,3.45-5.35
					c0.09-0.15,0.53-0.97,0.75-0.96c0.26,0.01,0.3,0.88,0.3,1.01c0,1.31-0.89,3.43-1.52,4.54c-0.56,0.99,0.56,2.02,1.48,1.32
					c0.41-0.31,1.77-1.22,1.88-0.19c0.09,0.86-0.9,1.53-1.47,1.99c-0.69,0.56-0.25,1.68,0.59,1.75c0.41,0.04,0.82,0.09,1.22,0.19
					c0.05,0.01,0.14,0.05,0.24,0.09c-0.24,0.19-0.5,0.43-0.64,0.53c-0.41,0.3-0.82,0.59-1.23,0.89c-0.52,0.37-0.41,1.26,0.09,1.58
					c0.32,0.21,0.93,0.5,1.42,0.56c-0.22,0.06-0.45,0.1-0.67,0.15c-1.56,0.32-3.13,0.4-4.71,0.28c-1.28-0.09-1.42,1.9-0.14,2
					c1.3,0.1,2.61,0.07,3.9-0.09c1.06-0.13,2.31-0.26,3.22-0.87c0.8-0.53,1.19-1.54,0.67-2.41
					C135.56,86.12,135.22,85.86,134.85,85.68z"/>
			</g>
		</g>
		<g>
			<g>
				<path class="st6" d="M118.33,29.07c-0.02-0.34-0.07-0.68-0.17-1c-0.63-1.87-3-2.92-4.56-1.36c-0.59,0.6-0.79,1.41-0.95,2.2
					c-0.16,0.81-0.28,1.62-0.34,2.44c-0.02,0.24-0.02,0.49-0.02,0.73c-0.04,0.15-0.07,0.31-0.07,0.48c0.03,2.71,0.37,5.43,1.06,8.05
					c0.43,1.65,2.7,2.08,3.64,0.61c0.19-0.29,0.33-0.6,0.46-0.91c0.6-0.36,1.04-0.96,1.25-1.65c0.49-1.58,0.66-3.37,0.77-5.02
					C119.51,31.98,119.36,30.42,118.33,29.07z"/>
				<path class="st44" d="M111.6,33.37c-0.03-1-0.65-1.85-1.66-2.02c-0.79-0.14-1.63,0.23-2.05,0.92c-0.55,0.33-0.93,0.91-0.96,1.62
					c-0.13,2.35,0.04,4.72,0.48,7.02c0.18,0.98,1.2,1.6,2.14,1.51c1.02-0.1,1.7-0.9,1.8-1.9C111.58,38.14,111.67,35.75,111.6,33.37z
					"/>
			</g>
			<g>
				<path class="st10" d="M113.14,39.57c-0.04-2.12-0.12-4.24-0.25-6.35c-0.07-1.13,0.07-2.68-1.41-2.86
					c-1.15-0.14-2.37-0.07-3.53-0.1c-1.28-0.04-1.43,1.96-0.14,2c0.6,0.02,1.2,0.03,1.8,0.05c0.28,0.01,0.56,0.02,0.85,0.02
					c0.14,0,0.28,0.01,0.42,0.01c0.07,0.6,0.05,1.25,0.08,1.82c0.05,0.83,0.08,1.65,0.11,2.48c0.03,0.83,0.05,1.65,0.07,2.48
					c0.01,0.43,0.01,0.86,0.02,1.29c0,0.18,0,0.36,0,0.54c0,0.06,0,0.12,0,0.18c-0.38,0.02-0.79-0.03-1.14-0.03
					c-0.37,0-0.91,0.08-1.33,0.03c-0.04-0.17-0.07-0.33-0.1-0.5c-0.07-0.34-0.13-0.68-0.18-1.02c-0.12-0.72-0.22-1.44-0.3-2.16
					c-0.16-1.39-0.24-2.78-0.25-4.18c0-0.54-0.36-1.03-0.93-1.07c-0.51-0.04-1.07,0.39-1.07,0.93c0.02,2.09,0.17,4.19,0.49,6.26
					c0.07,0.48,0.15,0.96,0.24,1.43c0.09,0.49,0.15,1.05,0.4,1.49c0.55,0.98,1.84,0.77,2.79,0.78c0.93,0,2.24,0.26,2.95-0.48
					C113.44,41.88,113.16,40.48,113.14,39.57z"/>
				<path class="st10" d="M120.31,38.53c0.22-0.16,0.45-0.32,0.67-0.49c0.55-0.44,0.99-1.07,0.8-1.81c-0.21-0.8-0.96-1.22-1.79-1.47
					c0.7-0.95,1.07-2.08,0.46-3.28c-0.5-0.99-1.34-1.3-2.22-1.23c0.29-0.76,0.67-2.41,0.68-3.23c0-1.34-0.71-2.97-2.26-3
					c-1.47-0.03-2.35,1.56-2.91,2.7c-0.51,1.04-1.11,3.25-2.22,3.81c-1.15,0.58-0.27,2.37,0.89,1.79c1.85-0.93,2.46-3.71,3.45-5.35
					c0.09-0.15,0.53-0.97,0.75-0.96c0.26,0.01,0.3,0.88,0.3,1.01c0,1.31-0.89,3.43-1.52,4.54c-0.56,0.99,0.56,2.02,1.48,1.32
					c0.41-0.31,1.77-1.22,1.88-0.19c0.09,0.86-0.9,1.53-1.47,1.99c-0.69,0.56-0.25,1.68,0.59,1.75c0.41,0.04,0.82,0.09,1.22,0.19
					c0.05,0.01,0.14,0.05,0.24,0.09c-0.24,0.19-0.5,0.43-0.64,0.53c-0.41,0.3-0.82,0.59-1.23,0.89c-0.52,0.37-0.41,1.26,0.09,1.58
					c0.33,0.21,0.93,0.5,1.42,0.56c-0.22,0.06-0.45,0.1-0.67,0.15c-1.56,0.32-3.13,0.4-4.71,0.28c-1.28-0.09-1.42,1.9-0.14,2
					c1.3,0.1,2.61,0.07,3.9-0.09c1.06-0.13,2.31-0.26,3.22-0.87c0.8-0.53,1.19-1.54,0.67-2.41
					C121.02,38.96,120.68,38.7,120.31,38.53z"/>
			</g>
		</g>
		<g>
			<path class="st30" d="M150,48.76c-1.57-1.92-4.17-1.41-6.01-0.25c-0.78,0.49-1.49,1.1-2.1,1.8c-0.19-0.72-0.41-1.43-0.73-2.11
				c-0.91-1.94-3.03-4.27-5.31-2.65c-1.83,1.3-1.69,4.02-1,5.88c0.75,2.03,2.38,3.49,3.44,5.33c0.17,0.3,0.41,0.54,0.69,0.71
				c0.24,0.36,0.61,0.63,1.06,0.72c3.55,0.68,7.5-0.94,9.52-3.95C150.62,52.67,151.34,50.41,150,48.76z"/>
			<path class="st10" d="M152.58,48.69c-0.91-2.03-4.02-2.17-5.91-1.85c-1.49,0.25-2.91,0.87-4.09,1.79
				c-0.14-1.4-0.59-2.75-1.67-3.74c-1.5-1.39-3.95-1.72-5.43-0.13c-1.55,1.67-1.46,4.56-1.1,6.66c0.4,2.3,1.39,4.46,2.87,6.26
				c0.82,0.99,2.4-0.23,1.58-1.23c-2.01-2.43-3.4-6.3-2.37-9.44c0.49-1.5,1.98-1.67,3.09-0.66c1.24,1.13,1.16,3.13,1.03,4.66
				c-0.08,0.94,1.2,1.56,1.79,0.72c1.21-1.74,3.14-2.82,5.26-2.98c0.76-0.06,2.66-0.07,3.09,0.72c0.36,0.67-0.35,1.69-0.72,2.19
				c-2.66,3.59-6.84,5.87-11.26,6.35c-1.28,0.14-0.98,2.12,0.3,1.98c4.43-0.48,8.57-2.62,11.56-5.91
				C151.84,52.7,153.45,50.62,152.58,48.69z"/>
		</g>
		<g>
			<path class="st30" d="M120.93,55.69c-1.28-1.09-2.94-0.43-4.02,0.56c-0.46,0.42-0.85,0.91-1.18,1.45
				c-0.21-0.46-0.45-0.9-0.74-1.31c-0.83-1.18-2.52-2.48-3.84-1.12c-1.06,1.08-0.64,2.87,0.04,4.02c0.75,1.26,2,2.03,2.93,3.12
				c0.15,0.18,0.34,0.31,0.54,0.39c0.2,0.21,0.48,0.35,0.79,0.35c2.44,0.03,4.87-1.53,5.85-3.77
				C121.82,58.21,122.02,56.62,120.93,55.69z"/>
			<path class="st54" d="M122.64,55.33c-0.85-1.24-2.93-0.96-4.15-0.52c-0.96,0.34-1.83,0.93-2.5,1.68
				c-0.26-0.91-0.72-1.75-1.56-2.29c-1.16-0.74-2.83-0.67-3.62,0.56c-0.83,1.29-0.42,3.21,0.07,4.56c0.54,1.48,1.46,2.8,2.66,3.81
				c0.66,0.56,1.57-0.44,0.9-1.01c-1.62-1.38-3.02-3.78-2.71-5.99c0.15-1.06,1.11-1.35,1.97-0.81c0.96,0.6,1.15,1.94,1.25,2.97
				c0.06,0.63,0.99,0.89,1.28,0.26c0.6-1.3,1.75-2.25,3.14-2.61c0.5-0.13,1.76-0.37,2.14,0.11c0.32,0.4-0.03,1.17-0.22,1.54
				c-1.34,2.7-3.84,4.72-6.72,5.57c-0.83,0.25-0.4,1.52,0.43,1.28c2.88-0.85,5.38-2.77,6.97-5.31
				C122.63,58.09,123.44,56.52,122.64,55.33z"/>
		</g>
		<g>
			<path class="st30" d="M162.5,72.91c-0.78-1.49-2.57-1.5-3.94-0.98c-0.58,0.22-1.13,0.53-1.64,0.9c-0.03-0.5-0.08-1-0.2-1.49
				c-0.34-1.41-1.42-3.24-3.15-2.47c-1.38,0.61-1.66,2.43-1.46,3.75c0.22,1.44,1.1,2.63,1.56,3.99c0.07,0.22,0.2,0.42,0.36,0.56
				c0.11,0.27,0.32,0.5,0.61,0.62c2.26,0.93,5.09,0.39,6.83-1.32C162.39,75.58,163.17,74.18,162.5,72.91z"/>
			<path class="st54" d="M164.22,73.21c-0.32-1.46-2.37-1.98-3.66-2.03c-1.02-0.04-2.04,0.18-2.95,0.63c0.09-0.95-0.02-1.9-0.6-2.7
				c-0.8-1.12-2.38-1.67-3.57-0.82c-1.25,0.89-1.58,2.82-1.63,4.26c-0.05,1.57,0.31,3.14,1.05,4.53c0.41,0.77,1.62,0.17,1.21-0.6
				c-1-1.88-1.4-4.63-0.29-6.56c0.53-0.93,1.53-0.84,2.13-0.02c0.67,0.91,0.34,2.23,0.05,3.22c-0.18,0.61,0.59,1.19,1.09,0.72
				c1.04-0.99,2.46-1.44,3.88-1.26c0.51,0.06,1.77,0.31,1.95,0.89c0.15,0.49-0.46,1.07-0.77,1.35c-2.25,2.01-5.32,2.96-8.31,2.67
				c-0.87-0.08-0.94,1.27-0.07,1.35c2.99,0.28,6.02-0.57,8.45-2.34C163.19,75.76,164.53,74.61,164.22,73.21z"/>
		</g>
		<g>
			<path class="st30" d="M83.9,29.68c-1.56-0.62-2.92,0.54-3.63,1.83c-0.3,0.55-0.51,1.14-0.65,1.75c-0.35-0.36-0.71-0.71-1.12-1
				c-1.17-0.85-3.19-1.53-4,0.18c-0.65,1.37,0.32,2.92,1.34,3.79c1.11,0.95,2.55,1.27,3.78,2.01c0.2,0.12,0.42,0.19,0.64,0.19
				c0.26,0.13,0.57,0.17,0.86,0.08c2.32-0.76,4.11-3.02,4.32-5.46C85.56,31.78,85.23,30.21,83.9,29.68z"/>
			<path class="st54" d="M85.4,28.79c-1.2-0.9-3.08,0.05-4.09,0.85c-0.8,0.64-1.43,1.47-1.82,2.4c-0.55-0.78-1.25-1.43-2.21-1.66
				c-1.34-0.32-2.89,0.28-3.24,1.71c-0.37,1.49,0.64,3.17,1.54,4.29c0.99,1.22,2.29,2.17,3.75,2.75c0.81,0.32,1.34-0.93,0.53-1.24
				c-1.98-0.78-4.08-2.6-4.5-4.79c-0.2-1.05,0.62-1.63,1.61-1.4c1.1,0.26,1.71,1.47,2.14,2.41c0.26,0.58,1.22,0.52,1.29-0.17
				c0.14-1.43,0.93-2.7,2.12-3.49c0.43-0.28,1.54-0.92,2.06-0.59c0.43,0.27,0.35,1.11,0.29,1.53c-0.39,2.99-2.1,5.71-4.55,7.44
				c-0.71,0.5,0.12,1.57,0.82,1.07c2.45-1.74,4.2-4.36,4.88-7.28C86.28,31.4,86.55,29.65,85.4,28.79z"/>
		</g>
		<g>
			<path class="st6" d="M97.12,55.61c-0.48,0.11-0.97,0.21-1.45,0.32c-0.09-0.1-0.2-0.2-0.32-0.27c0.12-0.13,0.24-0.26,0.36-0.39
				c0.95-0.97-0.32-2.43-1.44-1.99c-0.06-0.25-0.19-0.49-0.4-0.67c-0.46-0.39-1.03-0.34-1.54-0.08c-1.49,0.77-2.55,2.12-3.41,3.53
				c-0.02-0.39-0.35-0.87-0.71-0.99c-1.71-0.57-2.42,1-2.93,2.33c-0.54,1.4-0.9,2.86-1.08,4.35c-0.13,1.13,1.05,1.68,1.84,1.35
				c0.16,0.44,0.55,0.77,0.99,0.88c-0.07,0.48,0.13,0.99,0.56,1.26c0.22,0.14,0.51,0.21,0.79,0.2c0.02,0.41,0.26,0.82,0.59,1.02
				c0.55,0.34,1.2,0.24,1.64-0.23c1.36-1.45,2.73-2.91,4.09-4.36c1.3-1.39,2.81-2.73,3.67-4.46C98.77,56.63,98.08,55.4,97.12,55.61z
				"/>
			<path class="st6" d="M93.18,49.45c-0.52,0.06-1.04,0.13-1.56,0.19c0.52-0.33,0.66-1.08,0.38-1.6c-0.31-0.58-0.92-0.79-1.54-0.62
				c-0.24,0.07-0.49,0.14-0.73,0.2c0.15-0.14,0.3-0.28,0.45-0.42c1.07-0.96-0.55-2.72-1.68-1.86c-0.66,0.5-1.31,0.99-1.97,1.49
				c-0.38,0.29-0.52,0.66-0.5,1.03c-0.16,0.2-0.32,0.42-0.45,0.66c0.41-1.17-0.83-2.08-1.88-1.49c-1.91,1.07-3.31,2.8-4.63,4.5
				c-0.8,1.04,0.3,2.31,1.27,2.08c-0.08,0.15-0.16,0.3-0.24,0.45c-0.3,0.54-0.03,1.28,0.46,1.59c0.23,0.14,0.47,0.2,0.71,0.2
				c-0.31,0.85-0.31,1.73,0.48,2.55c0.31,0.33,0.85,0.35,1.25,0.23c1.53-0.48,2.37-2.14,3.27-3.34c0.05-0.07,0.1-0.14,0.15-0.2
				c0.34,0.44,0.94,0.71,1.47,0.49c2.37-0.97,4.48-2.33,6.37-4.04C95.1,50.78,94.2,49.33,93.18,49.45z"/>
			<path class="st50" d="M81.39,57.77c-0.05-0.69-0.3-1.37-0.6-1.99c-0.3-0.63-0.64-1.29-1.08-1.84c-0.33-0.41-0.74-0.76-1.28-0.84
				c-0.34-0.05-0.67,0.02-0.96,0.17c-0.59,0.03-1.12,0.43-1.22,1.04c-0.21,1.28-0.09,2.62,0.36,3.83c0.25,0.69,0.6,1.38,1.12,1.91
				c0.71,0.71,1.92,0.79,2.69,0.14C81.15,59.57,81.46,58.71,81.39,57.77z"/>
			<path class="st50" d="M88.94,68.83c0.32-0.92,0.04-1.73-0.41-2.55c-0.38-0.69-0.84-1.39-1.48-1.86
				c-0.36-0.26-0.74-0.44-1.13-0.55c-0.7-0.76-1.6-1.23-2.69-0.84c-0.9,0.32-1.5,1.23-1.33,2.19c0.14,0.79,0.65,1.45,1.16,2.05
				c0.48,0.57,1,1.11,1.58,1.58c0.6,0.5,1.27,1.04,2.04,1.24C87.62,70.33,88.63,69.74,88.94,68.83z"/>
			<path class="st55" d="M84.78,58.22c0.09-0.46,0.23-0.92,0.4-1.37c-0.82,0.46-1.59,1.03-2.41,1.47c0,0,0,0-0.01-0.01
				c-0.07-0.13-0.15-0.27-0.22-0.4c-0.15-0.27-0.29-0.53-0.44-0.8c-0.25-0.44-0.49-0.89-0.74-1.33c-0.59-1.06-1.18-2.13-1.77-3.19
				c-0.39-0.71-1.43,0.01-1.04,0.72c0.78,1.42,1.57,2.84,2.35,4.26c0.42,0.76,0.94,2.53,2.14,2.04c0.61-0.25,1.17-0.73,1.73-1.07
				C84.76,58.43,84.75,58.33,84.78,58.22z"/>
			<path class="st55" d="M79.31,51.84c1.51-1.7,3.05-3.37,4.62-5.03c0.17,0.65,0.19,1.32,0.03,2.02c-0.15,0.63,0.7,0.96,1.1,0.52
				c1.1-1.21,2.38-2.24,3.82-3.04c0.06-0.03,0.73-0.37,0.86-0.55c-0.07,0.24-0.42,0.94-0.46,1.02c-0.42,0.81-1,1.54-1.69,2.14
				c-0.6,0.53,0.09,1.57,0.72,1.04c1-0.85,2.13-1.49,3.4-1.85c0.09-0.02,0.17-0.04,0.26-0.06c0,0,0,0,0,0.01
				c-0.21,0.21-0.36,0.55-0.54,0.8c-0.45,0.61-0.95,1.17-1.49,1.7c-0.55,0.54,0.26,1.25,0.84,0.93c0.87-0.48,1.83-0.75,2.82-0.76
				c0.73-0.01,0.58,0.32,0.24,0.76c-0.28,0.36-0.6,0.69-0.93,0.99c0.03,0.03,0.07,0.04,0.09,0.07c0.08,0.09,0.14,0.19,0.19,0.3
				c0.21-0.01,0.43,0.05,0.62,0.22c0.05,0.05,0.1,0.1,0.14,0.17c0.69-0.63,1.42-1.41,1.51-2.3c0.17-1.6-1.42-1.67-2.96-1.34
				c0.83-1.09,1.45-2.33,0.39-2.81c-0.66-0.29-1.65,0.08-2.36,0.38c0.65-1.15,0.91-2.28-0.27-2.61c-0.51-0.14-1.03,0.15-1.48,0.37
				c-0.6,0.31-1.19,0.64-1.75,1.02c-0.6,0.41-1.17,0.86-1.71,1.35c-0.06-0.66-0.24-1.3-0.55-1.9c-0.22-0.43-0.72-0.57-1.08-0.2
				c-1.82,1.9-3.6,3.83-5.34,5.8C77.81,51.63,78.77,52.45,79.31,51.84z"/>
			<path class="st55" d="M81.93,58.45c-0.56,0.39-1.13,0.77-1.69,1.16c-0.26,0.18-0.52,0.36-0.78,0.53
				c-0.13,0.09-0.26,0.18-0.39,0.27c-0.04,0.03-0.07,0.05-0.11,0.08c-0.59-0.88-1.1-1.86-1.58-2.79c-0.27-0.53-0.53-1.08-0.78-1.62
				c-0.2-0.43-0.44-0.89-0.6-1.36c0.05-0.04,0.1-0.07,0.16-0.11c0.12-0.09,0.25-0.17,0.37-0.26c0.23-0.16,0.46-0.31,0.7-0.46
				c0.49-0.31,0.99-0.61,1.5-0.89c0.3-0.17,0.34-0.62,0.16-0.88c-0.21-0.31-0.58-0.33-0.88-0.16c-0.67,0.37-1.32,0.76-1.95,1.18
				c-0.5,0.33-1.32,0.72-1.37,1.39c-0.03,0.38,0.18,0.74,0.32,1.08c0.14,0.32,0.28,0.64,0.43,0.96c0.31,0.67,0.63,1.32,0.97,1.97
				c0.34,0.65,0.69,1.28,1.06,1.91c0.31,0.53,0.69,1.51,1.42,1.46c0.35-0.02,0.62-0.27,0.9-0.46c0.3-0.21,0.61-0.42,0.91-0.62
				c0.65-0.45,1.3-0.89,1.95-1.34C83.32,59.03,82.6,57.99,81.93,58.45z"/>
			<path class="st55" d="M99.53,55.39c-0.34-1.57-1.87-1.14-3.23-0.35c0.45-1.29,0.65-2.66-0.51-2.79
				c-0.72-0.08-1.54,0.59-2.13,1.09c0.26-1.3,0.15-2.45-1.07-2.39c-0.53,0.03-0.94,0.46-1.29,0.81c-0.48,0.48-0.93,0.98-1.34,1.52
				c-0.45,0.58-0.84,1.19-1.2,1.82c-0.26-0.6-0.63-1.16-1.12-1.64c-0.34-0.34-0.86-0.32-1.08,0.15c-1.13,2.37-2.22,4.76-3.27,7.17
				c-0.32,0.75,0.85,1.23,1.17,0.48c0.91-2.09,1.85-4.16,2.82-6.22c0.36,0.57,0.59,1.2,0.65,1.91c0.06,0.65,0.97,0.69,1.21,0.15
				c0.67-1.5,1.57-2.87,2.68-4.08c0.05-0.05,0.58-0.58,0.65-0.79c0.01,0.25-0.1,1.02-0.12,1.11c-0.15,0.9-0.47,1.78-0.94,2.56
				c-0.41,0.69,0.58,1.46,1.01,0.77c0.69-1.12,1.56-2.08,2.65-2.82c0.07-0.05,0.15-0.09,0.23-0.14c0,0,0,0,0,0.01
				c-0.13,0.27-0.17,0.64-0.26,0.93c-0.24,0.72-0.54,1.41-0.89,2.08c-0.36,0.68,0.64,1.11,1.09,0.62c0.67-0.72,1.51-1.28,2.45-1.6
				c0.69-0.24,0.65,0.12,0.47,0.65c-0.16,0.45-0.37,0.88-0.6,1.29c-0.98,1.7-2.45,3.06-3.85,4.4c-0.68,0.65-1.36,1.31-2.01,2
				c-0.67,0.72-1.25,1.55-1.93,2.26c0,0,0,0-0.01-0.01c-0.11-0.1-0.22-0.21-0.33-0.31c-0.22-0.21-0.45-0.41-0.67-0.62
				c-0.37-0.35-0.74-0.69-1.11-1.04c-0.89-0.83-1.78-1.66-2.67-2.48c-0.6-0.55-1.36,0.46-0.77,1.01c1.19,1.1,2.38,2.21,3.56,3.31
				c0.64,0.59,1.68,2.11,2.67,1.27c0.5-0.43,0.88-1.06,1.31-1.56c0.52-0.6,1.07-1.19,1.63-1.76c0.89-0.89,1.82-1.73,2.7-2.62
				c0.89-0.9,1.74-1.85,2.4-2.93C99.02,57.72,99.77,56.48,99.53,55.39z"/>
			<path class="st55" d="M89.01,66.73c-0.42,0.54-0.83,1.09-1.24,1.63c-0.19,0.25-0.38,0.5-0.57,0.75c-0.1,0.13-0.19,0.25-0.29,0.38
				c-0.03,0.04-0.06,0.07-0.08,0.11c-0.84-0.65-1.62-1.42-2.37-2.16c-0.43-0.42-0.84-0.86-1.25-1.3c-0.32-0.35-0.7-0.71-0.99-1.1
				c0.04-0.05,0.08-0.1,0.11-0.15c0.09-0.12,0.18-0.24,0.28-0.36c0.17-0.22,0.34-0.44,0.52-0.65c0.37-0.45,0.76-0.89,1.15-1.31
				c0.23-0.25,0.13-0.69-0.12-0.89c-0.29-0.23-0.65-0.13-0.89,0.12c-0.52,0.56-1.02,1.13-1.49,1.73c-0.37,0.47-1.03,1.1-0.87,1.75
				c0.09,0.37,0.4,0.65,0.64,0.93c0.23,0.26,0.47,0.53,0.71,0.78c0.5,0.54,1.01,1.06,1.53,1.57c0.52,0.51,1.05,1,1.6,1.49
				c0.46,0.4,1.12,1.22,1.81,0.95c0.32-0.13,0.51-0.45,0.71-0.72c0.22-0.29,0.45-0.58,0.67-0.88c0.48-0.63,0.96-1.25,1.44-1.88
				C90.52,66.85,89.51,66.08,89.01,66.73z"/>
			<path class="st55" d="M95.98,45.09c0.64-1.12,1.29-2.24,1.93-3.36c0.17-0.29-0.03-0.72-0.33-0.83c-0.35-0.13-0.65,0.02-0.83,0.33
				c-0.64,1.12-1.29,2.24-1.93,3.36c-0.17,0.29,0.03,0.72,0.33,0.83C95.5,45.55,95.81,45.39,95.98,45.09z"/>
			<path class="st55" d="M101.44,42.49c-0.29-0.24-0.64-0.15-0.89,0.1l-3.32,3.27c-0.24,0.24-0.15,0.69,0.1,0.89
				c0.29,0.24,0.64,0.15,0.89-0.1l3.32-3.27C101.78,43.14,101.68,42.68,101.44,42.49z"/>
			<path class="st55" d="M103.25,46.69c-0.15-0.35-0.47-0.45-0.82-0.37c-1.14,0.29-2.24,0.7-3.29,1.23
				c-0.29,0.15-0.51,0.48-0.37,0.82c0.12,0.29,0.5,0.53,0.82,0.37c1.05-0.53,2.15-0.95,3.29-1.23
				C103.21,47.43,103.37,46.98,103.25,46.69z"/>
		</g>
		<path class="st4" d="M128.85,93.77c-0.45-0.21-1.15-0.04-1.33,0.47l-3.49,9.96c-0.18,0.51-0.05,1.08,0.47,1.33
			c0.45,0.21,1.15,0.04,1.33-0.47c1.16-3.32,2.32-6.64,3.49-9.96C129.5,94.59,129.37,94.02,128.85,93.77z"/>
		<path class="st4" d="M100.14,110.84c-0.35-1.21-0.69-2.42-1.04-3.63c-0.14-0.5-0.81-0.79-1.28-0.59
			c-0.53,0.22-0.75,0.75-0.59,1.28c0.35,1.21,0.69,2.42,1.04,3.63c0.14,0.5,0.81,0.79,1.28,0.59
			C100.07,111.9,100.29,111.38,100.14,110.84z"/>
		<path class="st4" d="M116.4,81.12c0.1-1.27-1.87-1.63-1.97-0.35c-0.54,6.98-0.85,13.98-0.92,20.98c-0.01,1.28,1.98,1.09,1.99-0.19
			C115.57,94.73,115.87,87.92,116.4,81.12z"/>
		<path class="st4" d="M79.74,77.18c-1.9-0.34-2.43,2.62-0.52,2.95C81.12,80.47,81.64,77.51,79.74,77.18z"/>
		<path class="st4" d="M61.9,94.98c-1.9-0.34-2.43,2.62-0.52,2.95C63.27,98.27,63.8,95.32,61.9,94.98z"/>
		<path class="st4" d="M66.46,106.4c-1.9-0.34-2.43,2.62-0.52,2.95C67.84,109.7,68.37,106.74,66.46,106.4z"/>
		<path class="st4" d="M48.73,88.64c-1.9-0.34-2.43,2.62-0.52,2.95C50.1,91.93,50.63,88.97,48.73,88.64z"/>
		<path class="st4" d="M155.76,97.95c-1.9-0.34-2.43,2.62-0.52,2.95C157.13,101.24,157.66,98.29,155.76,97.95z"/>
		<path class="st4" d="M166.52,95.86c-1.9-0.34-2.43,2.62-0.52,2.95C167.89,99.15,168.42,96.2,166.52,95.86z"/>
		<path class="st4" d="M140.06,77.78c-1.9-0.34-2.43,2.62-0.52,2.95C141.44,81.07,141.97,78.12,140.06,77.78z"/>
		<path class="st4" d="M146.78,110.81c-1.9-0.34-2.43,2.62-0.52,2.95C148.16,114.1,148.69,111.15,146.78,110.81z"/>
		<path class="st4" d="M90.03,110.46c-1.9-0.34-2.43,2.62-0.52,2.95C91.41,113.75,91.94,110.8,90.03,110.46z"/>
		<g>
			<path class="st30" d="M65.13,62.66c-2.4-0.63-4.2,1.31-5.01,3.33c-0.34,0.86-0.56,1.77-0.65,2.69c-0.58-0.47-1.18-0.92-1.83-1.28
				c-1.87-1.04-4.96-1.69-5.85,0.97c-0.72,2.13,0.99,4.24,2.64,5.35c1.8,1.2,3.97,1.43,5.91,2.29c0.32,0.14,0.66,0.2,0.98,0.17
				c0.4,0.15,0.87,0.15,1.28-0.04c3.28-1.53,5.52-5.16,5.4-8.78C67.93,65.46,67.18,63.2,65.13,62.66z"/>
			<path class="st10" d="M67.18,61.08c-1.92-1.11-4.53,0.61-5.87,1.97c-1.06,1.08-1.84,2.41-2.26,3.85
				c-0.94-1.05-2.09-1.88-3.55-2.05c-2.03-0.24-4.21,0.92-4.47,3.08c-0.28,2.26,1.5,4.55,3.02,6.04c1.67,1.63,3.74,2.8,6,3.38
				c1.25,0.32,1.81-1.6,0.56-1.92c-3.05-0.79-6.45-3.11-7.46-6.25c-0.48-1.51,0.62-2.51,2.12-2.35c1.67,0.18,2.78,1.86,3.57,3.16
				c0.49,0.81,1.89,0.56,1.87-0.47c-0.04-2.12,0.89-4.13,2.51-5.5c0.58-0.49,2.11-1.62,2.93-1.23c0.69,0.33,0.71,1.58,0.7,2.2
				c-0.05,4.47-2.09,8.77-5.39,11.75c-0.96,0.86,0.44,2.29,1.4,1.43c3.3-2.98,5.41-7.15,5.9-11.57
				C68.94,64.77,69.02,62.14,67.18,61.08z"/>
		</g>
		<g>
			<path class="st4" d="M145.86,105.47c-0.1-0.41-0.39-0.65-0.79-0.77c-1.98-0.57-3.99-0.13-5.85,0.67
				c-0.13-1.76-0.76-3.45-1.95-4.8l-0.01,0.01c-0.06-0.07-0.1-0.14-0.16-0.2c-0.02-0.02-0.04-0.02-0.06-0.04
				c-0.19-0.23-0.47-0.38-0.81-0.35c-0.49,0.05-1.01,0.56-0.9,1.09c0.57,2.8,0.71,5.67,0.35,8.5c-0.13,1.03,1.04,1.5,1.75,0.82
				c1.03-1,2.38-1.58,3.7-2.1c1.47-0.57,2.94-1.08,4.34-1.81C145.81,106.33,145.95,105.81,145.86,105.47z"/>
			<path class="st4" d="M156.78,84.14c-2.7,0.08-5.26,0.89-7.49,2.31c0.19-2.37-0.31-4.74-1.42-6.91c-0.43-0.83-1.68-0.43-1.82,0.34
				c-1.53,8.83-3.58,16.66-8.08,25.87c-0.39,0.81-0.41,1.84,0.25,1.77c0.37,0.39,0.76-0.11,1.17-0.66
				c5.65-7.51,11.57-14.72,18.18-21.05C158.22,85.2,157.64,84.12,156.78,84.14z"/>
		</g>
		<g>
			<path class="st4" d="M109.74,89.3c-0.3-0.3-0.67-0.36-1.07-0.25c-1.99,0.54-3.49,1.94-4.67,3.59c-1.02-1.44-2.43-2.56-4.14-3.11
				l-0.01,0.02c-0.08-0.03-0.16-0.07-0.24-0.09c-0.02-0.01-0.05,0-0.07,0c-0.29-0.1-0.6-0.09-0.88,0.12c-0.4,0.29-0.58,1-0.21,1.4
				c1.93,2.11,3.52,4.49,4.68,7.11c0.42,0.95,1.67,0.75,1.92-0.19c0.37-1.39,1.23-2.58,2.09-3.7c0.96-1.24,1.97-2.44,2.79-3.79
				C110.13,90.06,109.98,89.55,109.74,89.3z"/>
			<path class="st4" d="M108.12,65.4c-2.28,1.46-4.05,3.47-5.23,5.84c-1.06-2.13-2.7-3.9-4.77-5.19c-0.8-0.5-1.67,0.5-1.38,1.22
				c3.23,8.35,5.5,16.13,6.39,26.34c0.08,0.9,0.6,1.79,1.13,1.39c0.51,0.15,0.59-0.49,0.66-1.17c0.98-9.35,2.35-18.58,4.76-27.41
				C109.9,65.56,108.85,64.93,108.12,65.4z"/>
		</g>
		<g>
			<path class="st4" d="M82.02,100.93c-0.4-0.14-0.76-0.02-1.07,0.25c-1.55,1.36-2.27,3.29-2.59,5.29
				c-1.55-0.84-3.31-1.22-5.09-0.95l0,0.02c-0.09,0.01-0.17,0.01-0.26,0.02c-0.03,0-0.04,0.02-0.06,0.03
				c-0.3,0.04-0.57,0.19-0.73,0.5c-0.23,0.44-0.08,1.15,0.43,1.35c2.67,1.03,5.15,2.47,7.35,4.3c0.8,0.67,1.83-0.06,1.64-1.03
				c-0.28-1.41-0.05-2.86,0.24-4.24c0.31-1.54,0.68-3.06,0.82-4.63C82.72,101.43,82.35,101.04,82.02,100.93z"/>
			<path class="st4" d="M69.97,80.22c-1.39,2.32-2.09,4.91-2.1,7.55c-1.89-1.44-4.15-2.3-6.58-2.54c-0.93-0.09-1.27,1.18-0.7,1.71
				C67.2,93,72.68,98.96,78,107.72c0.47,0.77,1.33,1.34,1.63,0.74c0.53-0.1,0.31-0.7,0.08-1.34c-3.27-8.81-6.13-17.69-7.89-26.67
				C71.64,79.57,70.42,79.48,69.97,80.22z"/>
		</g>
	</g>
	<path class="st4" d="M88.79,244.55c11.34,5.37,25.82,2.35,37.4-0.65c6.05-1.57,14.04-3.21,18.69-7.72
		c0.45-0.44,0.85-0.91,1.21-1.42c0.7-3.54,1.12-7.15,1.36-10.75c0.58-8.67,0.18-17.35-0.07-26.02c-0.48-16.56,1.11-33.08,0.76-49.64
		c-0.17-8.12-0.72-16.5-2.76-24.39c-0.47-1.81-1.3-3.56-2.72-4.8c-1.45-1.27-3.4-1.86-5.28-2.1c-4.22-0.54-8.56-0.57-12.81-0.7
		c-8.57-0.25-17.16-0.07-25.71,0.53c-4.32,0.3-8.63,0.71-12.93,1.24c-3.67,0.44-7.54,1.16-10.21,3.88
		c-0.89,0.27-1.67,0.98-1.77,1.94c-0.03,0.25-0.04,0.5-0.07,0.75c-0.42,1.02-0.64,2.11-0.68,3.29c-0.01,0.37,0.1,0.71,0.29,1.01
		c-0.64,7.53-1.03,15.07-1.21,22.62c-2.42,16.64-2.83,33.53-2.25,50.32c0.33,9.41,0.58,19,2.32,28.28
		c0.76,4.08,1.61,8.62,4.12,12.05c1.58,2.16,3.61,3.38,5.89,4.05C83.68,244.47,86.16,243.31,88.79,244.55z"/>
	<path class="st64" d="M142.83,237.37c4.43-6.99,4.65-14.76,4.47-22.77c-0.01-0.61,0.13-1.12,0.37-1.55
		c-0.08-3.35-0.19-6.7-0.29-10.04c-0.21-7.27-0.02-14.54,0.23-21.8c-0.01,0-0.02-0.01-0.03-0.01c-6.28-3.34-13.63-3.78-20.61-3.92
		c-6.77-0.14-13.61-0.09-20.38,0.21c-12.35,0.55-24.63,2.34-36.6,5.37c-0.29,8.03-0.24,16.08,0.03,24.1
		c0.32,9.19,0.58,18.54,2.2,27.61c0.29,0.31,0.52,0.7,0.68,1.18c4.54,13.55,22.51,13.34,34.23,13.44
		c11.48,0.11,24.21-1.66,33.35-8.69C141.33,239.5,142.12,238.48,142.83,237.37z"/>
	<path class="st65" d="M138.13,185c-1.19-1.36-3.15-1.79-4.87-1.34c-0.9,0.23-1.67,0.69-2.37,1.25c-1.02-1.25-2.49-2.14-4.1-2.35
		c-2.01-0.26-4.07,0.52-5.46,1.97c-1.73-1-3.64-1.67-5.67-1.41c-1.15,0.15-2.24,0.55-3.17,1.25c-0.54,0.4-0.91,0.91-1.24,1.42
		c-0.17-0.07-0.35-0.15-0.5-0.18c-0.49-0.12-1.01-0.21-1.52-0.22c-0.49-0.01-1.02,0.04-1.48,0.19c-0.22,0.07-0.44,0.19-0.65,0.3
		c-0.25-0.18-0.49-0.4-0.72-0.53c-0.49-0.29-1.01-0.53-1.55-0.73c-0.98-0.38-2.06-0.56-3.12-0.45c-1.25,0.13-2.32,0.61-3.17,1.37
		c-2.17-1.24-4.82-1.63-7.23-0.77c-2.15,0.77-3.94,2.37-4.97,4.38c-3.32-1.37-7.28-0.79-9.98,1.85c-1.84,1.8,0.98,4.63,2.83,2.83
		c1.79-1.75,4.91-1.97,6.85-0.31c1.02,0.88,3.07,0.72,3.34-0.88c0.66-3.88,5.13-5.78,8.14-2.93c1.17,1.11,2.8,0.5,3.34-0.88
		c0.65-1.64,3.35-0.13,4.16,0.42c1.04,0.7,2.08,1.06,3.29,0.49c0.43-0.21,0.62-0.37,1.11-0.34c0.53,0.03,1.07,0.36,1.57,0.49
		c1.15,0.31,2.4,0.01,3.05-1.06c0.41-0.67,0.52-1.22,1.31-1.56c1.93-0.82,4.01,0.65,5.51,1.73c0.81,0.58,2.33,0.21,2.74-0.72
		c1.13-2.56,4.33-2.15,4.77,0.62c0.23,1.44,2.43,1.98,3.34,0.88c0.63-0.76,2.44-3.25,3.58-1.95C137,189.76,139.82,186.92,138.13,185
		z"/>
	<path class="st66" d="M83.19,228.23c-2.3-12.01-4.3-24.08-6-36.19c-0.27-1.9-3.16-1.09-2.89,0.8c1.69,12.11,3.7,24.18,6,36.19
		C80.66,230.92,83.55,230.12,83.19,228.23z"/>
	<path class="st66" d="M141.76,185.9c-0.7-0.2-1.73,0.25-1.85,1.05c-1.89,13.43-3.79,26.85-5.68,40.28c-0.11,0.81,0.2,1.6,1.05,1.85
		c0.7,0.2,1.73-0.25,1.85-1.05c1.89-13.43,3.79-26.85,5.68-40.28C142.92,186.94,142.6,186.15,141.76,185.9z"/>
	<path class="st66" d="M136.8,236.83c-1.18-2.02-2-4.15-2.48-6.44c-0.13-0.63-0.82-1.11-1.45-1.1c-15.92,0.31-31.83,0.88-47.72,1.72
		c-1.92,0.1-1.93,3.1,0,3c15.51-0.82,31.04-1.38,46.56-1.69c0.56,2.11,1.39,4.14,2.49,6.03C135.18,240.01,137.77,238.5,136.8,236.83
		z"/>
	<path class="st65" d="M135.18,238.25c-17.21,1.38-34.54,0.93-51.66-1.34c-1.07-0.14-2,1.02-2,2c0,1.2,0.92,1.86,2,2
		c17.12,2.27,34.45,2.72,51.66,1.34C137.73,242.05,137.75,238.05,135.18,238.25z"/>
	<path class="st53" d="M148.23,167.85c0.01-8.02-0.08-16.04-0.18-24.06c-0.01-0.81-0.54-1.5-1.23-1.9c0.23-7.03,0.25-14.09-1.2-21
		c-0.28-1.32-1.27-2.39-2.72-2.26c-0.63,0.06-1.28,0.44-1.73,0.96c-2.36-0.8-4.67-1.76-7.12-2.25c-3.38-0.68-6.86-0.61-10.29-0.65
		c-6.85-0.07-13.7,0-20.5,0.94c-0.03,0-0.06,0.02-0.09,0.03c-1.56-0.04-3.11-0.09-4.67-0.13c-1.56-0.76-3.52-0.83-5.32-0.77
		c-3.15,0.12-6.29,0.39-9.42,0.83c-2.86,0.4-5.79,1-8.02,2.87c-0.56,0.18-1.07,0.55-1.42,1.2c-0.21,0.39-0.39,0.8-0.58,1.21
		c-0.87,1.51-1.36,3.23-1.67,4.96c0,0.01,0,0.02-0.01,0.03c-0.13,0.72-0.24,1.44-0.33,2.15c-0.07,0.68,0.09,1.35,0.45,1.87
		c-2.06,20.28-2.3,40.69-2.08,61.06c0.07,6.14,0.18,12.29,0.29,18.43c0.01,0.43,0.17,0.83,0.42,1.17c0.46,7.19,1.08,14.37,1.9,21.53
		c0.41,3.64,0.57,7.62,4.15,9.63c0.4,0.23,0.83,0.41,1.26,0.57c0.1,0.11,0.22,0.2,0.38,0.29c7.05,3.71,14.96,3.47,22.72,3.34
		c4.15,0.3,8.32,0.39,12.47,0.2c2.09,0.06,4.18,0.08,6.27-0.02c4.82-0.23,9.73-0.96,14.34-2.39c1.48-0.46,2.98-1.09,4.35-1.9
		c2.05-0.14,3.96-1.19,5.32-2.93c2.22-2.84,2.14-6.5,1.82-9.91c-0.63-6.81,0.14-13.49,0.76-20.27
		C147.84,196.44,148.2,182.14,148.23,167.85z M143.3,143.77c-0.03,0.86-0.96,3.18-0.19,3.56c0.14,12.23,0.25,24.46-0.05,36.69
		c-0.16,6.48-0.45,12.96-0.91,19.42c-0.45,6.21-1.23,12.39-1.52,18.61c1.1,4.11-0.16,9.31-2.89,12.67c-0.1,0.45-0.2,0.93-0.34,1.41
		c-0.61,0.86-1.25,1.71-1.89,2.56c-0.87,0.41-1.94,0.65-2.69,0.91c-1.53,0.53-3.08,1-4.65,1.42c-6.05,1.59-12.36,2.19-18.61,2.22
		c-6.35,0.03-12.84,0.41-19.1-0.56c-3.09-0.48-6.03-2.02-9.08-2.67c-0.97-0.21-2.29-0.43-2.83-1.37c-0.69-1.19-0.6-2.97-0.75-4.29
		c-0.96-8.3-1.67-16.63-2.16-24.98c-0.02-0.41-0.13-0.76-0.29-1.05c-0.36-20.53-2.41-38.95-1.12-59.45
		c0.38-6.04,2.64-14.22,3.32-20.24c0.05-0.46-0.02-0.87-0.16-1.23c0.24-0.78,0.51-1.55,0.85-2.3c0.2-0.28,0.41-0.55,0.67-0.78
		c1.67-1.52,4.41-1.64,6.52-1.9c2.58-0.33,5.18-0.56,7.78-0.66c-0.22,2.49,0.13,4.96,1.16,7.29c0.49,1.12,1.14,2.21,2.37,2.62
		c1.46,0.48,3.26,0.14,4.77,0.05c2.22-0.13,4.44-0.32,6.66-0.53c0.02,0,0.04,0,0.06,0c3.17-0.05,6.34-0.11,9.5-0.16
		c0.98-0.02,1.98-0.02,2.95-0.11c0.11-0.05,0.21-0.1,0.33-0.14c1.25-0.39,2.48-0.93,3.49-1.79c0.23-0.2,0.45-0.41,0.66-0.63
		c0.02-0.02,0.06-0.08,0.1-0.14c0.15-0.86,0.2-1.72,0.7-2.55c0.62-1.88,1.63-3.38,3.96-3.64c0.81-0.09,1.56,0.28,2.12,0.85
		c3.03-0.61,5.76-0.85,8.84,0.61c2.02,0.96,1.93,3.04,0.84,4.42C142.59,133.3,143.51,137.99,143.3,143.77z"/>
	<path class="st10" d="M146.59,235.13c0.35-3.25,0.51-6.54,0.72-9.8c0.44-6.73,0.78-13.46,1.04-20.2
		c0.52-13.62,0.67-27.26,0.44-40.89c-0.23-13.57-0.6-27.22-1.79-40.74c-0.23-2.61-1.2-4.68-3.87-5.44
		c-2.98-0.84-6.33-0.93-9.41-1.24c-6.55-0.65-13.13-1.01-19.71-1.08c-6.65-0.07-13.3,0.15-19.93,0.68c-3.31,0.26-6.62,0.6-9.92,1.01
		c-2.64,0.33-5.4,0.54-7.82,1.74c-1.98,0.98-3.35,2.53-3.41,4.8c-0.04,1.28,1.95,1.09,1.99-0.19c0.07-2.41,3.22-3.36,5.14-3.76
		c2.95-0.61,6.02-0.83,9.01-1.14c6.22-0.64,12.47-1.02,18.72-1.13c6.32-0.11,12.65,0.04,18.96,0.48c3.16,0.22,6.31,0.5,9.46,0.86
		c1.42,0.16,2.83,0.33,4.24,0.52c1.37,0.18,3.13,0.27,3.95,1.57c0.69,1.1,0.62,2.6,0.71,3.85c0.11,1.62,0.22,3.24,0.32,4.86
		c0.2,3.24,0.39,6.48,0.55,9.72c0.32,6.48,0.56,12.97,0.72,19.46c0.31,12.82,0.28,25.64-0.08,38.46c-0.18,6.4-0.44,12.8-0.78,19.19
		c-0.17,3.24-0.37,6.48-0.59,9.72c-0.2,3.03-0.3,6.11-0.72,9.12c-0.39,2.83-1.34,5.42-4.08,6.7c-2.54,1.18-5.42,1.84-8.12,2.54
		c-5.77,1.49-11.67,2.46-17.61,2.94c-5.94,0.48-11.91,0.46-17.85-0.08c-2.9-0.26-5.79-0.65-8.65-1.15c-2.89-0.51-5.96-0.97-8.6-2.32
		c-4.75-2.42-5.91-7.96-6.46-12.8c-0.69-6.06-1.11-12.17-1.49-18.26c-1.62-25.51-1.37-51.14,0.78-76.61
		c0.26-3.12,0.56-6.25,0.87-9.37c0.13-1.27-1.84-1.63-1.97-0.35c-2.74,26.81-3.42,53.82-2.01,80.73c0.35,6.75,0.84,13.48,1.45,20.21
		c0.46,4.98,0.75,10.59,3.83,14.77c3.51,4.76,10.03,5.5,15.45,6.33c6.14,0.94,12.36,1.34,18.57,1.21
		c6.27-0.14,12.53-0.83,18.67-2.07c3.01-0.61,6-1.34,8.95-2.2c2.64-0.77,5.64-1.46,7.62-3.51
		C145.71,240.39,146.31,237.67,146.59,235.13z"/>
	<path class="st52" d="M137.33,186.34c-0.13-0.07-0.26-0.13-0.42-0.18c-1.3-0.43-2.69-0.55-4.04-0.42c-0.05,0.13-0.09,0.27-0.17,0.4
		c-0.16,0.21-0.33,0.42-0.49,0.63c-0.39,0.39-0.85,0.66-1.38,0.8c-0.28,0.04-0.55,0.07-0.83,0.11c-0.43,0.02-0.83-0.07-1.2-0.27
		c-0.39-0.13-0.72-0.34-1.01-0.65c-0.02-0.02-0.03-0.04-0.05-0.06c-0.01-0.01-0.03-0.02-0.04-0.03c-0.06-0.07-0.11-0.14-0.16-0.21
		c-0.05-0.06-0.11-0.12-0.15-0.19c-0.21-0.3-0.39-0.61-0.49-0.97c-0.03-0.25-0.07-0.5-0.1-0.75c-0.52-0.04-1.05-0.03-1.59,0.04
		c-0.48-0.08-0.97-0.09-1.47-0.05c-0.37,1.12-1.31,2.02-2.84,2.02c-0.45,0-0.85-0.09-1.2-0.23c-0.13,0.11-0.27,0.21-0.4,0.33
		c-1.05-0.51-2.3-0.55-3.42-0.09c-0.85,0.35-1.71,0.97-2.32,1.75c-0.31,0.06-0.62,0.12-0.9,0.22c-0.51,0.17-0.98,0.38-1.45,0.61
		c-0.19-0.33-0.48-0.61-0.8-0.8c-0.43-0.25-0.92-0.36-1.41-0.43c-0.5-0.08-0.96-0.11-1.46-0.01c-0.53,0.1-0.99,0.43-1.27,0.89
		c-0.27,0.01-0.54,0.02-0.81,0.06c-0.03-0.02-0.06-0.04-0.08-0.05c-0.09-0.06-0.21-0.12-0.28-0.15c-0.18-0.07-0.37-0.13-0.56-0.18
		c-0.1-0.03-0.2-0.05-0.3-0.07c-0.23-0.3-0.49-0.58-0.79-0.81c-0.27-0.21-0.57-0.38-0.88-0.53c-0.04,0.08-0.09,0.15-0.13,0.22
		c-0.21-0.12-0.45-0.21-0.67-0.3c-0.09-0.03-0.18-0.06-0.27-0.08c-0.25-0.06-0.51-0.09-0.77-0.11c-0.09-0.01-0.19,0-0.28,0.01
		c-0.25,0.03-0.51,0.05-0.75,0.12c-0.24,0.07-0.46,0.18-0.69,0.28c-0.08,0.04-0.15,0.08-0.22,0.13c-0.2,0.14-0.4,0.29-0.58,0.45
		c-0.17,0.17-0.32,0.38-0.46,0.57c-0.05,0.07-0.09,0.14-0.13,0.22c-0.01,0.01-0.01,0.03-0.02,0.04c-2.22-1.02-3.91,1.15-5.12,2.64
		c-0.82,1.02-1.8,1.57-3.09,1.8c-1.23,0.23-2.5-0.36-3.67-0.06c-1.62,0.41-2.88-0.28-3.6-1.36c-0.66,0.22-1.3,0.51-1.9,0.88
		c-1.2,0.74-2.3,1.66-3.35,2.67c0,0.06,0.01,0.12,0.01,0.18c1.03,0.42,1.89,1.32,2.04,2.7c1.09,10.51,3.27,20.84,5.15,31.22h50
		c1.65-7.55,2.85-15.21,3.61-22.89c0.65-6.55,1.13-13.11,2.42-19.55C139.25,186.37,138.29,186.2,137.33,186.34z"/>
	<path class="st4" d="M121.08,211.92c0.34-0.58,0.59-1.22,0.35-1.89c-0.47-1.31-2.08-1.46-3.17-0.92c-0.57,0.28-1.08,0.69-1.5,1.17
		c-0.07-0.34-0.15-0.67-0.28-1c-0.38-0.98-1.32-2.24-2.53-1.87c-1.13,0.34-1.3,1.75-1.35,2.75c-0.06,1.09,0.06,2.2,0.35,3.25
		c0.34,1.24,0.89,2.4,1.65,3.44c0.28,0.38,0.7,0.31,0.96,0.05c0.16,0.02,0.33,0,0.5-0.13c1.24-0.92,2.48-1.84,3.55-2.97
		C120.16,213.23,120.67,212.61,121.08,211.92z"/>
	<path class="st4" d="M128.43,229.21c0.21,0.47,0.46,0.92,0.73,1.35c1.82,0.15,3.85,0.2,4.8-0.64c1.04-0.92,0.76-4.25,0.7-5.75
		c-0.01-0.17,0.01-0.33,0.03-0.49c-0.58-0.02-1.18,0.17-1.65,0.5c-0.52,0.37-0.96,0.84-1.31,1.37c-0.12-0.32-0.25-0.64-0.42-0.95
		c-0.52-0.92-1.64-2.02-2.78-1.48c-1.07,0.51-1.02,1.92-0.93,2.92C127.72,227.13,127.99,228.21,128.43,229.21z"/>
	<path class="st4" d="M114.46,204.01c-0.02-0.2-0.08-0.38-0.2-0.54c-0.08-0.18-0.2-0.32-0.36-0.44l-0.33-0.2
		c-0.25-0.11-0.52-0.14-0.79-0.11l-0.38,0.1c-0.24,0.1-0.44,0.25-0.61,0.46c-0.12,0.17-0.24,0.35-0.36,0.52
		c-0.13,0.16-0.22,0.33-0.25,0.53c-0.07,0.19-0.09,0.39-0.06,0.6c0.02,0.2,0.08,0.38,0.2,0.54c0.08,0.18,0.2,0.32,0.36,0.44
		l0.33,0.2c0.25,0.11,0.52,0.14,0.79,0.11l0.38-0.1c0.24-0.1,0.44-0.25,0.61-0.46c0.12-0.17,0.24-0.35,0.36-0.52
		c0.13-0.16,0.22-0.33,0.25-0.53C114.47,204.42,114.49,204.22,114.46,204.01z"/>
	<path class="st4" d="M83.2,197.1c-0.03-0.19-0.11-0.37-0.24-0.52l-0.27-0.27c-0.21-0.17-0.45-0.27-0.72-0.31c-0.13,0-0.27,0-0.4,0
		c-0.26,0.04-0.5,0.13-0.71,0.29c-0.32,0.24-0.64,0.48-0.95,0.72c-0.16,0.11-0.29,0.26-0.37,0.44c-0.12,0.16-0.19,0.35-0.21,0.55
		c-0.04,0.2-0.02,0.4,0.05,0.59c0.03,0.19,0.11,0.37,0.24,0.52l0.27,0.27c0.21,0.17,0.45,0.27,0.72,0.31c0.13,0,0.27,0,0.4,0
		c0.26-0.04,0.5-0.13,0.71-0.29l0.95-0.72c0.16-0.11,0.29-0.26,0.37-0.44c0.12-0.16,0.19-0.35,0.21-0.55
		C83.29,197.49,83.27,197.29,83.2,197.1z"/>
	<path class="st4" d="M90.79,227.97h2.35c0.33-0.13,0.67-0.26,1-0.4c0.19-0.07,0.34-0.18,0.47-0.32c0.15-0.13,0.26-0.28,0.34-0.47
		c0.09-0.19,0.13-0.39,0.11-0.59c0.02-0.2-0.01-0.39-0.1-0.58c-0.16-0.35-0.43-0.67-0.79-0.81c-0.38-0.14-0.78-0.16-1.17-0.01
		c-0.58,0.23-1.17,0.46-1.75,0.7c-0.19,0.07-0.34,0.18-0.47,0.32c-0.15,0.13-0.26,0.28-0.34,0.47c-0.09,0.19-0.13,0.39-0.11,0.59
		c-0.02,0.2,0.01,0.39,0.1,0.58C90.51,227.64,90.64,227.82,90.79,227.97z"/>
	<path class="st4" d="M129.74,195.61c-0.03-0.19-0.11-0.37-0.24-0.52c-0.11-0.16-0.26-0.29-0.44-0.37
		c-0.16-0.12-0.35-0.19-0.55-0.21c-0.13,0-0.27,0-0.4,0c-0.26,0.04-0.5,0.13-0.71,0.29l-0.27,0.27c-0.17,0.21-0.27,0.45-0.31,0.72
		l-0.08,0.56c-0.04,0.2-0.02,0.4,0.05,0.59c0.03,0.19,0.11,0.37,0.24,0.52c0.11,0.16,0.26,0.29,0.44,0.37
		c0.16,0.12,0.35,0.19,0.55,0.21c0.13,0,0.27,0,0.4,0c0.26-0.04,0.5-0.13,0.71-0.29l0.27-0.27c0.17-0.21,0.27-0.45,0.31-0.72
		l0.08-0.56C129.83,196,129.81,195.8,129.74,195.61z"/>
	<path class="st4" d="M112.15,196.64c-0.03-0.13-0.07-0.25-0.1-0.38c-0.1-0.24-0.25-0.44-0.46-0.61c-0.33-0.33-0.66-0.67-0.99-1
		c-0.16-0.13-0.33-0.22-0.53-0.25c-0.19-0.07-0.39-0.09-0.6-0.06c-0.2,0.02-0.38,0.08-0.54,0.2c-0.18,0.08-0.32,0.2-0.44,0.36
		l-0.2,0.33c-0.11,0.25-0.14,0.52-0.11,0.79l0.1,0.38c0.1,0.24,0.25,0.44,0.46,0.61c0.33,0.33,0.66,0.66,0.99,1
		c0.16,0.13,0.33,0.22,0.53,0.25c0.19,0.07,0.39,0.09,0.6,0.06c0.2-0.02,0.38-0.08,0.54-0.2c0.18-0.08,0.32-0.2,0.44-0.36
		c0.07-0.11,0.13-0.22,0.2-0.33C112.15,197.17,112.19,196.91,112.15,196.64z"/>
	<path class="st4" d="M122.73,223.65c-0.03-0.19-0.11-0.37-0.24-0.52c-0.09-0.09-0.18-0.18-0.27-0.27
		c-0.21-0.17-0.45-0.27-0.72-0.31c-0.13,0-0.27,0-0.4,0c-0.26,0.04-0.5,0.13-0.71,0.29c-0.21,0.16-0.42,0.32-0.64,0.48
		c-0.16,0.11-0.29,0.26-0.37,0.44c-0.12,0.16-0.19,0.35-0.21,0.55c-0.04,0.2-0.02,0.4,0.05,0.59c0.03,0.19,0.11,0.37,0.24,0.52
		l0.27,0.27c0.21,0.17,0.45,0.27,0.72,0.31c0.13,0,0.27,0,0.4,0c0.26-0.04,0.5-0.13,0.71-0.29c0.21-0.16,0.42-0.32,0.64-0.48
		c0.16-0.11,0.29-0.26,0.37-0.44c0.12-0.16,0.19-0.35,0.21-0.55C122.82,224.04,122.8,223.84,122.73,223.65z"/>
	<g>
		<g>
			<path class="st6" d="M133.41,205.28c-0.1-0.33-0.21-0.65-0.38-0.94c-1.02-1.7-3.56-2.2-4.74-0.35c-0.45,0.71-0.47,1.54-0.45,2.35
				c0.02,0.82,0.07,1.64,0.19,2.45c0.04,0.24,0.09,0.48,0.14,0.72c-0.01,0.16,0,0.32,0.04,0.48c0.61,2.64,1.53,5.22,2.76,7.64
				c0.78,1.52,3.08,1.46,3.68-0.19c0.12-0.32,0.2-0.65,0.26-0.98c0.51-0.48,0.81-1.16,0.87-1.89c0.14-1.65-0.07-3.43-0.33-5.07
				C135.19,207.88,134.7,206.39,133.41,205.28z"/>
			<path class="st44" d="M127.76,210.93c-0.24-0.97-1.03-1.67-2.06-1.62c-0.81,0.04-1.54,0.58-1.8,1.34
				c-0.46,0.44-0.71,1.09-0.6,1.79c0.38,2.32,1.05,4.6,1.97,6.76c0.39,0.92,1.52,1.31,2.42,1.02c0.98-0.32,1.47-1.24,1.35-2.24
				C128.76,215.59,128.33,213.24,127.76,210.93z"/>
		</g>
		<g>
			<path class="st10" d="M130.59,216.65c-0.49-2.06-1.03-4.11-1.61-6.15c-0.31-1.09-0.51-2.63-1.99-2.49
				c-1.15,0.11-2.33,0.44-3.47,0.66c-1.26,0.24-0.97,2.22,0.29,1.98c0.59-0.11,1.18-0.22,1.77-0.34c0.28-0.05,0.55-0.11,0.83-0.16
				c0.14-0.03,0.27-0.05,0.41-0.08c0.2,0.57,0.32,1.21,0.47,1.76c0.22,0.8,0.44,1.59,0.64,2.39c0.21,0.8,0.41,1.6,0.6,2.41
				c0.1,0.42,0.2,0.84,0.3,1.26c0.04,0.18,0.08,0.35,0.12,0.53c0.01,0.06,0.03,0.12,0.04,0.18c-0.37,0.1-0.78,0.14-1.12,0.21
				c-0.36,0.08-0.87,0.27-1.3,0.31c-0.07-0.15-0.14-0.31-0.2-0.46c-0.14-0.32-0.27-0.64-0.4-0.96c-0.27-0.67-0.52-1.35-0.76-2.04
				c-0.45-1.32-0.83-2.67-1.14-4.03c-0.12-0.53-0.57-0.93-1.14-0.84c-0.5,0.07-0.96,0.61-0.84,1.14c0.47,2.04,1.07,4.05,1.82,6.01
				c0.17,0.45,0.36,0.9,0.54,1.35c0.2,0.46,0.37,0.99,0.71,1.37c0.75,0.84,1.96,0.36,2.89,0.16c0.91-0.2,2.24-0.23,2.78-1.1
				C131.37,218.85,130.8,217.54,130.59,216.65z"/>
			<path class="st10" d="M130.54,203.76c0.06-0.17,0.31-1.06,0.53-1.1c0.26-0.05,0.48,0.8,0.51,0.93c0.28,1.28-0.14,3.54-0.51,4.76
				c-0.34,1.09,0.98,1.85,1.73,0.97c0.34-0.39,1.47-1.57,1.8-0.59c0.27,0.82-0.55,1.69-1.01,2.26c-0.56,0.7,0.12,1.69,0.95,1.58
				c0.41-0.05,0.82-0.09,1.23-0.08c0.05,0,0.15,0.02,0.25,0.04c-0.2,0.24-0.39,0.53-0.51,0.66c-0.34,0.38-0.67,0.75-1.01,1.13
				c-0.43,0.48-0.13,1.32,0.43,1.52c0.33,0.12,0.91,0.25,1.38,0.24c-0.1-3.04-0.27-6.07-0.5-9.1c-0.67-0.67-1.47-0.76-2.25-0.53
				c0.11-0.81,0.14-2.5-0.03-3.3c-0.29-1.31-1.33-2.75-2.85-2.45c-1.44,0.28-1.96,2.03-2.27,3.26c-0.28,1.13-0.39,3.42-1.35,4.2
				c-1,0.81,0.25,2.37,1.25,1.56C129.92,208.42,129.92,205.57,130.54,203.76z"/>
			<path class="st10" d="M136.36,218.32c-0.02-0.73-0.03-1.46-0.05-2.19c-0.17,0.08-0.34,0.16-0.5,0.23
				c-1.45,0.64-2.97,1.06-4.54,1.28c-1.27,0.18-0.98,2.16,0.29,1.98c1.29-0.19,2.56-0.49,3.79-0.93
				C135.67,218.58,136.02,218.46,136.36,218.32z"/>
		</g>
	</g>
	<g>
		<path class="st30" d="M110.88,229.28h10.87c0.48-0.47,0.92-0.98,1.28-1.55c1.01-1.6,1.65-3.89,0.26-5.49
			c-1.64-1.87-4.21-1.27-6.02-0.05c-0.76,0.52-1.45,1.15-2.05,1.86c-0.21-0.71-0.46-1.42-0.8-2.09c-0.97-1.91-3.16-4.18-5.39-2.48
			c-1.79,1.36-1.56,4.07-0.81,5.91C108.83,226.89,109.9,228.05,110.88,229.28z"/>
		<path class="st10" d="M109.27,229.28h2.33c-1.66-2.36-2.7-5.61-1.89-8.37c0.45-1.52,1.92-1.73,3.07-0.76
			c1.28,1.09,1.26,3.1,1.18,4.62c-0.05,0.94,1.25,1.52,1.81,0.66c1.16-1.78,3.05-2.92,5.16-3.15c0.76-0.08,2.66-0.16,3.11,0.62
			c0.39,0.65-0.3,1.7-0.65,2.21c-1.16,1.67-2.64,3.07-4.33,4.16h3.28c0.61-0.55,1.19-1.14,1.73-1.77c1.18-1.39,2.72-3.52,1.8-5.43
			c-0.97-2-4.09-2.04-5.96-1.66c-1.48,0.3-2.88,0.96-4.03,1.92c-0.19-1.4-0.68-2.73-1.78-3.69c-1.54-1.34-4-1.59-5.43,0.04
			c-1.5,1.71-1.31,4.61-0.89,6.69C108.05,226.76,108.57,228.07,109.27,229.28z"/>
	</g>
	<path class="st10" d="M85.17,190.93c-3.15-0.61-6.31,1.14-7.56,4.09c-0.11,0.26-0.1,0.5-0.03,0.72c0.28,0.19,0.52,0.43,0.73,0.71
		c0.4,0.13,0.84,0.03,1.06-0.48c0.98-2.32,3.41-3.64,5.76-3.01C85.05,192.26,85.07,191.59,85.17,190.93z"/>
	<path class="st10" d="M139.39,187.3c-1.25-1.76-3.5-2.79-5.66-2.4c-1.39,0.25-2.64,1.04-3.51,2.13c-0.88-1.56-2.04-2.95-3.85-3.47
		c-2.17-0.63-4.65,0.58-4.99,2.94c-0.18,1.27,1.8,1.55,1.98,0.28c0.22-1.53,2.05-1.63,3.14-1.01c1.41,0.8,2.12,2.4,2.74,3.81
		c0.32,0.72,1.56,0.88,1.84,0.02c0.98-3.02,4.82-3.71,6.69-1.08C138.54,189.56,140.14,188.35,139.39,187.3z"/>
	<g>
		<path class="st30" d="M95.51,187.86c-2.44-0.5-4.12,1.54-4.82,3.61c-0.29,0.87-0.46,1.79-0.5,2.72c-0.6-0.44-1.23-0.85-1.9-1.18
			c-1.93-0.94-5.05-1.4-5.79,1.3c-0.6,2.16,1.22,4.18,2.94,5.19c1.87,1.1,4.05,1.2,6.03,1.95c0.32,0.12,0.67,0.16,0.98,0.11
			c0.41,0.13,0.87,0.11,1.28-0.11c3.18-1.71,5.22-5.46,4.89-9.07C98.47,190.5,97.59,188.29,95.51,187.86z"/>
		<path class="st10" d="M97.47,186.17c-1.98-1-4.49,0.86-5.75,2.29c-1,1.13-1.7,2.51-2.04,3.97c-1-1-2.19-1.76-3.66-1.85
			c-2.04-0.13-4.15,1.16-4.29,3.33c-0.15,2.27,1.75,4.46,3.35,5.86c1.76,1.53,3.89,2.58,6.18,3.04c1.26,0.25,1.71-1.7,0.45-1.95
			c-3.09-0.62-6.61-2.74-7.8-5.82c-0.57-1.48,0.48-2.54,1.98-2.46c1.68,0.09,2.88,1.7,3.74,2.96c0.54,0.78,1.92,0.45,1.84-0.58
			c-0.16-2.12,0.66-4.17,2.2-5.63c0.55-0.53,2.02-1.73,2.85-1.39c0.7,0.29,0.8,1.53,0.82,2.15c0.2,4.46-1.59,8.87-4.72,12.03
			c-0.91,0.92,0.57,2.26,1.48,1.35c3.13-3.17,4.99-7.44,5.23-11.88C99.43,189.75,99.36,187.13,97.47,186.17z"/>
	</g>
	<path class="st10" d="M79.63,203.74c0.37-0.12,0.72-0.19,1.18-0.21c0.01,0,0.01,0,0.02,0c0.06,0,0.11,0.01,0.17,0.01
		c0.12,0.01,0.25,0.03,0.37,0.05c0.07,0.01,0.15,0.03,0.22,0.05c0.01,0,0,0,0.02,0.01c0.12,0.04,0.23,0.08,0.34,0.13
		c0.06,0.03,0.12,0.06,0.19,0.09c0.01,0.01,0.01,0.01,0.03,0.02c0.1,0.07,0.19,0.14,0.28,0.22c0.02,0.01,0.02,0.02,0.03,0.03
		c0.04,0.05,0.08,0.1,0.12,0.15c0.04,0.05,0.07,0.1,0.1,0.15c0,0,0,0,0,0c0.01,0.02,0.01,0.02,0.02,0.05
		c0.24,0.49,0.79,0.76,1.31,0.54c0.48-0.2,0.78-0.82,0.54-1.31c-0.64-1.33-2.03-2.12-3.49-2.18c-0.59-0.02-1.16,0.07-1.71,0.21
		C79.46,202.42,79.54,203.08,79.63,203.74z"/>
	<path class="st4" d="M96.22,190.8c-0.2-0.6-0.41-1.19-0.61-1.79c-0.07-0.19-0.18-0.34-0.32-0.47c-0.13-0.15-0.28-0.26-0.47-0.34
		c-0.19-0.09-0.39-0.13-0.59-0.11c-0.2-0.02-0.39,0.01-0.58,0.1c-0.35,0.16-0.67,0.43-0.81,0.79c-0.04,0.13-0.07,0.26-0.11,0.39
		c-0.04,0.27,0,0.53,0.1,0.78c0.2,0.6,0.41,1.19,0.61,1.79c0.07,0.19,0.18,0.34,0.32,0.47c0.13,0.15,0.28,0.26,0.47,0.34
		c0.19,0.09,0.39,0.13,0.59,0.11c0.2,0.02,0.39-0.01,0.58-0.1c0.35-0.16,0.67-0.43,0.81-0.79c0.04-0.13,0.07-0.26,0.11-0.39
		C96.36,191.31,96.33,191.05,96.22,190.8z"/>
	<g>
		<g>
			<path class="st30" d="M130,195.6c-1.67-1.84-4.24-1.19-6.02,0.07c-0.75,0.53-1.43,1.18-2.01,1.91c-0.23-0.71-0.49-1.41-0.84-2.07
				c-1.01-1.89-3.25-4.11-5.44-2.37c-1.76,1.4-1.48,4.1-0.69,5.92c0.86,1.99,2.56,3.36,3.72,5.14c0.19,0.29,0.44,0.52,0.73,0.67
				c0.25,0.34,0.64,0.6,1.1,0.66c3.58,0.49,7.44-1.34,9.3-4.44C130.84,199.46,131.43,197.16,130,195.6z"/>
			<path class="st10" d="M132.58,195.38c-1.01-1.98-4.13-1.95-6-1.54c-1.48,0.33-2.86,1.02-3.99,2c-0.22-1.39-0.74-2.71-1.86-3.65
				c-1.57-1.31-4.03-1.51-5.43,0.16c-1.46,1.75-1.22,4.64-0.75,6.71c0.52,2.27,1.62,4.38,3.2,6.1c0.87,0.95,2.38-0.36,1.51-1.31
				c-2.13-2.32-3.73-6.11-2.86-9.3c0.41-1.53,1.89-1.77,3.05-0.82c1.3,1.06,1.32,3.07,1.28,4.6c-0.03,0.94,1.29,1.49,1.83,0.62
				c1.12-1.81,2.99-2.98,5.1-3.26c0.76-0.1,2.65-0.21,3.12,0.55c0.4,0.65-0.26,1.71-0.6,2.22c-2.47,3.72-6.52,6.22-10.91,6.93
				c-1.27,0.21-0.87,2.17,0.4,1.96c4.39-0.71,8.42-3.07,11.23-6.51C132.05,199.43,133.55,197.27,132.58,195.38z"/>
		</g>
		<path class="st4" d="M128.17,198.08c-0.03-0.19-0.11-0.37-0.24-0.52c-0.11-0.16-0.26-0.29-0.44-0.37
			c-0.16-0.12-0.35-0.19-0.55-0.21c-0.13,0-0.27,0-0.4,0c-0.26,0.04-0.5,0.13-0.71,0.29l-0.27,0.27c-0.17,0.21-0.27,0.45-0.31,0.72
			l-0.12,0.84c-0.04,0.2-0.02,0.4,0.05,0.59c0.03,0.19,0.11,0.37,0.24,0.52c0.11,0.16,0.26,0.29,0.44,0.37
			c0.16,0.12,0.35,0.19,0.55,0.21c0.13,0,0.27,0,0.4,0c0.26-0.04,0.5-0.13,0.71-0.29l0.27-0.27c0.17-0.21,0.27-0.45,0.31-0.72
			l0.12-0.84C128.25,198.47,128.24,198.27,128.17,198.08z"/>
	</g>
	<path class="st4" d="M121.49,224.31c-0.03-0.19-0.11-0.37-0.24-0.52l-0.27-0.27c-0.21-0.17-0.45-0.27-0.72-0.31
		c-0.13,0-0.27,0-0.4,0c-0.26,0.04-0.5,0.13-0.71,0.29c-0.21,0.16-0.42,0.32-0.64,0.48c-0.16,0.11-0.29,0.26-0.37,0.44
		c-0.12,0.16-0.19,0.35-0.21,0.55c-0.04,0.2-0.02,0.4,0.05,0.59c0.03,0.19,0.11,0.37,0.24,0.52l0.27,0.27
		c0.21,0.17,0.45,0.27,0.72,0.31c0.13,0,0.27,0,0.4,0c0.26-0.04,0.5-0.13,0.71-0.29c0.21-0.16,0.42-0.32,0.64-0.48
		c0.16-0.11,0.29-0.26,0.37-0.44c0.12-0.16,0.19-0.35,0.21-0.55C121.57,224.7,121.55,224.5,121.49,224.31z"/>
	<path class="st4" d="M106.31,194.25c0.18-0.65,0.26-1.33-0.15-1.92c-0.79-1.14-2.38-0.88-3.3-0.07c-0.48,0.42-0.86,0.94-1.15,1.51
		c-0.15-0.31-0.32-0.61-0.52-0.89c-0.62-0.85-1.86-1.82-2.93-1.15c-1,0.62-0.8,2.02-0.59,3c0.23,1.07,0.62,2.11,1.18,3.05
		c0.65,1.11,1.48,2.08,2.49,2.9c0.36,0.3,0.76,0.12,0.94-0.2c0.16-0.02,0.32-0.09,0.45-0.25c0.96-1.21,1.92-2.42,2.66-3.78
		C105.77,195.75,106.1,195.02,106.31,194.25z"/>
	<path class="st4" d="M84.29,229.28c0.35-0.28,0.7-0.56,1.03-0.88c0.58-0.55,1.12-1.14,1.56-1.81c0.37-0.56,0.65-1.19,0.44-1.87
		c-0.41-1.33-2-1.57-3.12-1.08c-0.38,0.16-0.72,0.39-1.04,0.65c0.31,1.66,0.62,3.33,0.92,4.99H84.29z"/>
	<g>
		<path class="st6" d="M106.24,213.59c-0.46,0.18-0.92,0.36-1.39,0.54c-0.11-0.09-0.23-0.16-0.36-0.22c0.1-0.15,0.2-0.3,0.3-0.44
			c0.79-1.1-0.69-2.36-1.72-1.75c-0.1-0.24-0.26-0.46-0.49-0.6c-0.52-0.32-1.07-0.18-1.53,0.16c-1.36,0.99-2.19,2.48-2.82,4.01
			c-0.08-0.38-0.48-0.8-0.86-0.87c-1.78-0.3-2.24,1.36-2.53,2.75c-0.31,1.47-0.45,2.97-0.4,4.47c0.04,1.14,1.3,1.5,2.02,1.05
			c0.22,0.41,0.66,0.67,1.11,0.72c0,0.49,0.28,0.96,0.74,1.16c0.24,0.1,0.54,0.13,0.82,0.07c0.09,0.4,0.38,0.77,0.74,0.92
			c0.59,0.25,1.22,0.05,1.59-0.48c1.13-1.65,2.25-3.29,3.38-4.94c1.08-1.57,2.35-3.13,2.94-4.97
			C108.02,214.34,107.15,213.23,106.24,213.59z"/>
		<path class="st6" d="M101.41,208.11c-0.5,0.14-1.01,0.29-1.51,0.43c0.46-0.41,0.48-1.17,0.13-1.64c-0.4-0.53-1.03-0.64-1.62-0.37
			c-0.23,0.1-0.46,0.21-0.69,0.31c0.13-0.16,0.25-0.33,0.38-0.49c0.91-1.11-0.96-2.6-1.94-1.58c-0.57,0.59-1.15,1.18-1.72,1.78
			c-0.33,0.34-0.41,0.74-0.34,1.1c-0.13,0.23-0.25,0.47-0.35,0.72c0.22-1.22-1.14-1.92-2.09-1.18c-1.73,1.35-2.84,3.27-3.88,5.16
			c-0.63,1.15,0.65,2.24,1.58,1.86c-0.06,0.16-0.11,0.32-0.17,0.48c-0.21,0.58,0.16,1.27,0.7,1.5c0.25,0.11,0.5,0.13,0.73,0.08
			c-0.18,0.89-0.05,1.75,0.86,2.45c0.36,0.27,0.89,0.22,1.27,0.03c1.44-0.7,2.01-2.48,2.72-3.81c0.04-0.07,0.08-0.15,0.12-0.22
			c0.4,0.38,1.04,0.55,1.53,0.26c2.19-1.32,4.06-2.99,5.68-4.97C103.5,209.12,102.39,207.83,101.41,208.11z"/>
		<path class="st50" d="M91.03,218.13c-0.16-0.68-0.51-1.3-0.9-1.87c-0.4-0.58-0.83-1.18-1.35-1.66c-0.39-0.36-0.84-0.63-1.39-0.64
			c-0.34,0-0.66,0.12-0.92,0.32c-0.58,0.12-1.04,0.59-1.04,1.22c-0.01,1.3,0.31,2.6,0.94,3.73c0.36,0.64,0.8,1.27,1.4,1.71
			c0.81,0.6,2.02,0.49,2.68-0.27C91.07,219.95,91.24,219.05,91.03,218.13z"/>
		<path class="st50" d="M100.19,227.91c0.17-0.96-0.22-1.72-0.8-2.45c-0.49-0.62-1.04-1.25-1.75-1.61c-0.39-0.2-0.8-0.32-1.21-0.37
			c-0.81-0.64-1.77-0.97-2.78-0.42c-0.84,0.46-1.29,1.44-0.98,2.37c0.26,0.76,0.87,1.33,1.46,1.85c0.57,0.49,1.16,0.94,1.81,1.32
			c0.67,0.4,1.42,0.83,2.2,0.91C99.11,229.59,100.02,228.85,100.19,227.91z"/>
		<path class="st55" d="M94.44,218.06c0.02-0.47,0.08-0.94,0.18-1.41c-0.74,0.58-1.41,1.26-2.16,1.82c0,0,0,0-0.01-0.01
			c-0.09-0.12-0.19-0.24-0.28-0.36c-0.19-0.24-0.37-0.48-0.56-0.72c-0.31-0.4-0.62-0.8-0.93-1.2c-0.74-0.96-1.49-1.92-2.23-2.88
			c-0.5-0.64-1.41,0.23-0.92,0.87c0.99,1.28,1.99,2.56,2.98,3.85c0.54,0.69,1.32,2.35,2.43,1.68c0.56-0.34,1.04-0.9,1.54-1.32
			C94.45,218.27,94.44,218.17,94.44,218.06z"/>
		<path class="st55" d="M88.06,212.6c1.23-1.91,2.5-3.8,3.79-5.68c0.26,0.62,0.39,1.28,0.34,1.99c-0.05,0.65,0.84,0.84,1.17,0.34
			c0.91-1.37,2.01-2.58,3.31-3.59c0.05-0.04,0.67-0.48,0.77-0.67c-0.03,0.25-0.27,0.99-0.3,1.08c-0.29,0.87-0.76,1.67-1.34,2.38
			c-0.51,0.62,0.33,1.54,0.87,0.92c0.86-0.99,1.88-1.8,3.08-2.35c0.08-0.04,0.16-0.07,0.25-0.1c0,0,0,0,0,0.01
			c-0.18,0.24-0.27,0.6-0.41,0.87c-0.35,0.67-0.76,1.3-1.21,1.91c-0.46,0.62,0.45,1.2,0.97,0.79c0.78-0.6,1.7-1.02,2.67-1.19
			c0.72-0.12,0.63,0.22,0.35,0.72c-0.22,0.4-0.48,0.77-0.77,1.12c0.03,0.02,0.07,0.03,0.1,0.06c0.1,0.08,0.17,0.17,0.23,0.27
			c0.21-0.04,0.43-0.01,0.65,0.12c0.06,0.04,0.12,0.09,0.17,0.14c0.59-0.72,1.18-1.61,1.14-2.5c-0.08-1.6-1.66-1.43-3.13-0.87
			c0.66-1.2,1.07-2.52-0.05-2.83c-0.69-0.19-1.62,0.33-2.28,0.74c0.47-1.24,0.55-2.4-0.67-2.54c-0.53-0.06-1,0.31-1.4,0.59
			c-0.55,0.39-1.08,0.82-1.57,1.28c-0.53,0.5-1.02,1.03-1.48,1.6c-0.16-0.64-0.44-1.25-0.83-1.8c-0.28-0.39-0.8-0.45-1.09-0.03
			c-1.5,2.16-2.97,4.34-4.39,6.55C86.55,212.62,87.62,213.28,88.06,212.6z"/>
		<path class="st55" d="M91.67,218.73c-0.5,0.47-0.99,0.94-1.49,1.4c-0.23,0.22-0.46,0.43-0.69,0.65c-0.11,0.11-0.23,0.22-0.34,0.32
			c-0.03,0.03-0.07,0.06-0.1,0.09c-0.72-0.78-1.37-1.67-1.99-2.52c-0.35-0.49-0.69-0.98-1.02-1.48c-0.26-0.4-0.58-0.81-0.8-1.25
			c0.05-0.04,0.09-0.09,0.14-0.13c0.11-0.11,0.22-0.21,0.33-0.31c0.2-0.19,0.41-0.38,0.62-0.56c0.44-0.38,0.89-0.75,1.35-1.11
			c0.27-0.21,0.24-0.66,0.03-0.89c-0.25-0.27-0.62-0.23-0.89-0.03c-0.6,0.46-1.19,0.95-1.75,1.46c-0.45,0.41-1.2,0.91-1.14,1.59
			c0.03,0.38,0.29,0.7,0.48,1.02c0.19,0.3,0.38,0.59,0.57,0.89c0.4,0.61,0.82,1.21,1.26,1.8c0.43,0.59,0.88,1.16,1.34,1.73
			c0.39,0.47,0.91,1.39,1.63,1.23c0.34-0.08,0.57-0.36,0.82-0.59c0.27-0.25,0.54-0.5,0.8-0.76c0.57-0.54,1.15-1.08,1.72-1.62
			C93.13,219.09,92.26,218.17,91.67,218.73z"/>
		<path class="st55" d="M108.59,213c-0.57-1.5-2.02-0.84-3.24,0.14c0.25-1.35,0.23-2.73-0.93-2.68c-0.72,0.03-1.44,0.82-1.94,1.41
			c0.06-1.32-0.23-2.45-1.42-2.2c-0.52,0.11-0.85,0.6-1.15,1c-0.4,0.55-0.77,1.11-1.09,1.71c-0.35,0.64-0.65,1.3-0.91,1.98
			c-0.35-0.56-0.8-1.05-1.35-1.45c-0.39-0.28-0.9-0.18-1.05,0.31c-0.76,2.52-1.47,5.05-2.13,7.59c-0.21,0.79,1.02,1.08,1.23,0.3
			c0.58-2.2,1.19-4.39,1.84-6.58c0.44,0.51,0.76,1.09,0.94,1.79c0.16,0.63,1.06,0.53,1.22-0.04c0.43-1.58,1.11-3.08,2.03-4.44
			c0.04-0.06,0.49-0.66,0.52-0.88c0.05,0.25,0.05,1.03,0.05,1.12c-0.01,0.92-0.2,1.83-0.54,2.68c-0.3,0.74,0.8,1.36,1.11,0.6
			c0.51-1.21,1.22-2.3,2.19-3.19c0.06-0.06,0.13-0.12,0.2-0.17c0,0,0,0,0,0.01c-0.09,0.29-0.07,0.66-0.12,0.95
			c-0.12,0.75-0.32,1.47-0.56,2.19c-0.25,0.73,0.8,1,1.17,0.45c0.56-0.82,1.3-1.5,2.17-1.96c0.65-0.34,0.66,0.02,0.56,0.57
			c-0.09,0.46-0.23,0.92-0.4,1.36c-0.71,1.83-1.95,3.4-3.13,4.93c-0.58,0.75-1.15,1.5-1.68,2.28c-0.56,0.81-1,1.73-1.57,2.53
			c0,0,0,0-0.01,0c-0.13-0.09-0.25-0.17-0.38-0.26c-0.25-0.17-0.5-0.34-0.76-0.51c-0.42-0.28-0.84-0.57-1.26-0.85
			c-1.01-0.68-2.01-1.36-3.02-2.05c-0.67-0.46-1.27,0.66-0.6,1.11c1.34,0.91,2.69,1.82,4.03,2.73c0.72,0.49,1.99,1.82,2.83,0.84
			c0.43-0.5,0.71-1.19,1.06-1.75c0.43-0.68,0.87-1.34,1.35-1.99c0.74-1.01,1.53-1.98,2.27-3c0.74-1.03,1.44-2.09,1.92-3.26
			C108.44,215.38,108.99,214.04,108.59,213z"/>
		<path class="st55" d="M99.94,225.81c-0.33,0.6-0.65,1.2-0.98,1.8c-0.15,0.28-0.3,0.55-0.45,0.83c-0.08,0.14-0.15,0.28-0.23,0.42
			c-0.02,0.04-0.04,0.08-0.07,0.12c-0.93-0.52-1.82-1.16-2.67-1.78c-0.49-0.35-0.97-0.72-1.44-1.09c-0.37-0.3-0.8-0.59-1.15-0.94
			c0.03-0.06,0.06-0.11,0.09-0.17c0.07-0.13,0.14-0.27,0.22-0.4c0.13-0.24,0.27-0.49,0.41-0.73c0.3-0.5,0.61-0.99,0.94-1.47
			c0.19-0.28,0.02-0.7-0.25-0.86c-0.32-0.18-0.67-0.03-0.86,0.25c-0.43,0.63-0.83,1.27-1.2,1.93c-0.3,0.53-0.85,1.24-0.59,1.87
			c0.15,0.35,0.49,0.58,0.78,0.82c0.27,0.23,0.54,0.45,0.82,0.67c0.57,0.45,1.16,0.89,1.76,1.32c0.59,0.42,1.2,0.83,1.81,1.22
			c0.52,0.33,1.3,1.04,1.93,0.66c0.3-0.18,0.43-0.52,0.59-0.82c0.18-0.32,0.35-0.65,0.53-0.97c0.38-0.69,0.75-1.38,1.13-2.08
			C101.44,225.7,100.33,225.1,99.94,225.81z"/>
		<path class="st55" d="M103.5,203.36c0.46-1.21,0.93-2.41,1.39-3.62c0.12-0.31-0.14-0.71-0.45-0.77c-0.37-0.08-0.64,0.12-0.77,0.45
			c-0.46,1.21-0.93,2.41-1.39,3.62c-0.12,0.31,0.14,0.71,0.45,0.77C103.1,203.89,103.37,203.69,103.5,203.36z"/>
		<path class="st55" d="M108.49,199.95c-0.32-0.19-0.66-0.04-0.86,0.23l-2.78,3.74c-0.2,0.27-0.04,0.71,0.23,0.86
			c0.32,0.19,0.66,0.04,0.86-0.23l2.78-3.74C108.93,200.54,108.76,200.11,108.49,199.95z"/>
		<path class="st55" d="M110.93,203.83c-0.2-0.32-0.54-0.38-0.86-0.24c-1.08,0.46-2.11,1.03-3.06,1.72
			c-0.27,0.19-0.43,0.55-0.24,0.86c0.17,0.26,0.58,0.44,0.86,0.24c0.95-0.69,1.98-1.26,3.06-1.72
			C111,204.57,111.1,204.1,110.93,203.83z"/>
	</g>
	<g>
		<path class="st10" d="M104.58,242.32c-4.32,0-13.2-0.09-17.37-1.26c-3.66-1.02-6.05-1.02-7.65-4.78
			c-1.57-3.7-2.14-8.68-2.62-12.65c-0.5-4.12-0.76-8.27-1.07-12.41c-1.26-16.95-2.17-33.97-1.44-50.96
			c0.41-9.61,1.37-19.2,3.04-28.68c0.22-1.27-1.75-1.62-1.97-0.35c-3.1,17.58-3.69,35.48-3.14,53.29
			c0.28,8.89,0.83,17.77,1.49,26.65c0.33,4.37,0.6,8.76,1.15,13.11c0.5,3.97,1.11,8.99,2.68,12.7c1.7,4,3.83,4.41,7.79,5.64
			c4.77,1.49,14.3,1.7,19.29,1.69C106.05,244.31,105.86,242.32,104.58,242.32z"/>
		<path class="st10" d="M142.52,142.81c-0.11,4.57-0.24,10.08-0.35,14.65c-0.31,12.43-0.62,24.85-0.93,37.28
			c-0.21,8.54-0.43,17.08-0.64,25.62c-0.1,3.95-0.02,8.18-1.68,11.86c-1.4,3.1-4.06,5.31-7.13,6.67c-5.61,2.48-15.9,2.54-24.19,3.07
			c0,0.01,0.01,0.03,0.01,0.04c-1.17,0.11-1.15,1.98,0.1,1.98c0.1,0,0.19-0.03,0.28-0.06c7.68-0.5,17.02-0.63,22.2-2.29
			c3.08-0.99,6.05-2.6,8.23-5.02c2.51-2.79,3.54-6.45,3.88-10.11c0.4-4.24,0.33-8.54,0.44-12.79c0.11-4.48,0.22-8.95,0.34-13.43
			l0.66-26.61c0.25-10.03,0.51-21.01,0.76-31.04C144.54,141.34,142.55,141.54,142.52,142.81z"/>
	</g>
	<path class="st10" d="M83.4,229.57c0.02,0.15,0.05,0.29,0.04,0.44c0,0.13-0.02,0.26-0.04,0.39c0.01,0.1,0.04,0.2,0.04,0.31
		c-0.04,0.28-0.07,0.55-0.11,0.83c0,0.01-0.01,0.01-0.01,0.02c17.16-0.34,34.33-0.67,51.49-1.01c-0.21-0.31-0.37-0.64-0.48-0.98
		c-0.11-0.33-0.12-0.67-0.09-1.01C117.29,228.91,100.34,229.24,83.4,229.57z"/>
	<path class="st10" d="M84.69,229.49c-2.89-12.23-5.12-24.61-6.64-37.08c-0.15-1.26-2.16-1.28-2,0c1.54,12.65,3.78,25.21,6.71,37.61
		C83.06,231.28,84.99,230.75,84.69,229.49z"/>
	<path class="st10" d="M138.41,185.93c-1.57,14.3-3.32,28.58-5.26,42.83c-0.17,1.26,1.76,1.8,1.93,0.53
		c1.96-14.43,3.75-28.89,5.33-43.37C140.55,184.66,138.55,184.67,138.41,185.93z"/>
	<path class="st10" d="M77.81,190.07l-2.98-7.71c-0.19-0.5-0.67-0.85-1.23-0.7c-0.48,0.13-0.89,0.72-0.7,1.23l2.98,7.71
		c0.19,0.5,0.67,0.85,1.23,0.7C77.59,191.16,78,190.57,77.81,190.07z"/>
	<path class="st10" d="M93.21,177.63c-6.34,0.35-12.64,1.21-18.84,2.57c-1.26,0.28-0.72,2.2,0.53,1.93
		c6.03-1.32,12.14-2.16,18.31-2.5C94.49,179.56,94.5,177.56,93.21,177.63z"/>
	<path class="st10" d="M141.58,178.05c-8.65-1.51-17.43-2.19-26.21-2c-1.29,0.03-1.29,2.03,0,2c8.6-0.19,17.2,0.45,25.68,1.93
		C142.3,180.19,142.84,178.27,141.58,178.05z"/>
	<path class="st10" d="M136.41,237.19c-8.03,0.21-24.04,0.6-31.18,0.42c-3.79-0.1-7.59-0.23-11.38-0.41
		c-3.56-0.17-7.23-0.2-10.73-0.82l1.64-6.17c0.26-1.08-1.67-1.54-1.93-0.46c-0.6,2.5-1.2,5-1.79,7.5c-0.11,0.44,0.14,0.94,0.7,1.05
		c3.64,0.76,7.46,0.81,11.19,0.99c3.95,0.19,7.91,0.34,11.87,0.45c6.11,0.16,19.26-0.26,27.18-0.53
		C133.43,238.62,134.97,237.81,136.41,237.19z"/>
	<path class="st10" d="M137.37,235.51c-0.7-1.87-1.4-3.74-2.11-5.62c-0.18-0.49-0.68-0.88-1.23-0.7c-0.48,0.15-0.9,0.71-0.7,1.23
		c0.7,1.87,1.4,3.74,2.11,5.62c0.18,0.49,0.68,0.88,1.23,0.7C137.15,236.59,137.57,236.04,137.37,235.51z"/>
	<path class="st10" d="M83.89,230.34c-0.28-0.44-0.9-0.66-1.37-0.36c-1.69,1.07-3.37,2.14-5.06,3.2c-0.44,0.28-0.66,0.9-0.36,1.37
		c0.28,0.44,0.9,0.66,1.37,0.36c1.69-1.07,3.37-2.14,5.06-3.2C83.97,231.43,84.19,230.81,83.89,230.34z"/>
	<path class="st10" d="M139.31,229.47l-4.73-1.97c-0.48-0.2-1.12,0.22-1.23,0.7c-0.13,0.58,0.18,1.01,0.7,1.23
		c1.58,0.66,3.15,1.32,4.73,1.97c0.48,0.2,1.12-0.22,1.23-0.7C140.14,230.11,139.82,229.68,139.31,229.47z"/>
	<path class="st10" d="M111.93,187.71c-1.98-1.77-4.96-1.72-6.93-0.15c-0.42-0.64-1-1.16-1.72-1.46c-1.31-0.55-2.82-0.31-3.95,0.53
		c-1.03,0.77,0.19,2.35,1.22,1.58c1.22-0.91,2.92-0.18,3.13,1.32c0.11,0.81,1.3,1.25,1.79,0.49c1.2-1.86,3.6-2.21,5.26-0.73
		c0.4,0.36,1.09,0.22,1.4-0.19C112.46,188.66,112.33,188.07,111.93,187.71z"/>
	<path class="st10" d="M125.1,187.43c-1.47-1.3-3.48-2.01-5.44-1.94c-1.97,0.07-4.01,0.84-4.87,2.74c-0.22,0.49,0.1,1.11,0.59,1.29
		c0.54,0.2,1.06-0.09,1.29-0.59c0.5-1.1,2.08-1.48,3.23-1.46c1.52,0.03,2.91,0.59,4.05,1.59c0.41,0.36,1.1,0.17,1.39-0.23
		C125.68,188.35,125.51,187.79,125.1,187.43z"/>
	<g>
		<path class="st30" d="M129.73,137.78c-1.2-1.17-2.9-0.64-4.05,0.28c-0.49,0.39-0.92,0.85-1.28,1.36
			c-0.18-0.47-0.38-0.93-0.65-1.36c-0.75-1.24-2.35-2.64-3.76-1.38c-1.13,1.01-0.84,2.82-0.23,4.02c0.66,1.31,1.85,2.16,2.71,3.32
			c0.14,0.19,0.32,0.33,0.52,0.42c0.18,0.22,0.46,0.38,0.77,0.4c2.43,0.19,4.96-1.19,6.1-3.35
			C130.44,140.35,130.75,138.78,129.73,137.78z"/>
		<path class="st54" d="M131.46,137.53c-0.76-1.29-2.86-1.16-4.1-0.8c-0.98,0.28-1.88,0.8-2.61,1.5c-0.2-0.93-0.6-1.8-1.4-2.39
			c-1.11-0.82-2.78-0.86-3.65,0.31c-0.92,1.23-0.64,3.17-0.24,4.55c0.44,1.51,1.26,2.89,2.39,3.99c0.62,0.61,1.59-0.33,0.97-0.94
			c-1.53-1.48-2.75-3.97-2.29-6.16c0.22-1.05,1.2-1.27,2.02-0.67c0.92,0.66,1.01,2.02,1.04,3.05c0.02,0.64,0.92,0.96,1.25,0.35
			c0.68-1.26,1.9-2.13,3.31-2.39c0.51-0.1,1.78-0.24,2.13,0.25c0.29,0.42-0.11,1.16-0.32,1.52c-1.52,2.6-4.15,4.45-7.08,5.09
			c-0.85,0.19-0.5,1.49,0.35,1.31c2.93-0.65,5.56-2.39,7.32-4.82C131.26,140.28,132.18,138.77,131.46,137.53z"/>
	</g>
	<g>
		<path class="st30" d="M89.45,131.85c-1.66-0.26-2.73,1.17-3.13,2.59c-0.17,0.6-0.25,1.22-0.25,1.85
			c-0.42-0.28-0.85-0.53-1.32-0.73c-1.33-0.57-3.45-0.78-3.86,1.06c-0.33,1.48,0.96,2.78,2.15,3.4c1.29,0.68,2.77,0.68,4.13,1.12
			c0.22,0.07,0.45,0.09,0.67,0.04c0.28,0.07,0.59,0.04,0.86-0.12c2.09-1.26,3.34-3.85,3-6.28
			C91.53,133.53,90.87,132.07,89.45,131.85z"/>
		<path class="st54" d="M90.72,130.65c-1.37-0.61-3,0.73-3.8,1.73c-0.64,0.8-1.07,1.75-1.25,2.74c-0.71-0.64-1.54-1.11-2.52-1.13
			c-1.38-0.02-2.76,0.92-2.79,2.38c-0.03,1.54,1.33,2.95,2.45,3.84c1.23,0.97,2.71,1.61,4.26,1.85c0.86,0.13,1.1-1.2,0.24-1.33
			c-2.11-0.32-4.55-1.63-5.45-3.67c-0.43-0.98,0.24-1.73,1.25-1.72c1.13,0.01,2,1.05,2.62,1.87c0.39,0.51,1.31,0.24,1.22-0.45
			c-0.18-1.42,0.31-2.83,1.3-3.87c0.36-0.37,1.3-1.23,1.88-1.03c0.48,0.17,0.59,1.01,0.63,1.43c0.28,3-0.79,6.03-2.79,8.27
			c-0.58,0.65,0.46,1.51,1.04,0.86c2.01-2.24,3.13-5.18,3.14-8.18C92.16,133,92.03,131.23,90.72,130.65z"/>
	</g>
	<g>
		<path class="st30" d="M115.08,181.07c-1.54-0.66-2.93,0.46-3.67,1.73c-0.31,0.54-0.54,1.13-0.7,1.73c-0.34-0.37-0.7-0.73-1.1-1.03
			c-1.15-0.88-3.15-1.61-4,0.08c-0.69,1.35,0.24,2.93,1.24,3.83c1.09,0.98,2.51,1.34,3.73,2.11c0.2,0.12,0.42,0.2,0.64,0.21
			c0.25,0.14,0.56,0.19,0.86,0.1c2.34-0.7,4.19-2.91,4.46-5.34C116.68,183.2,116.4,181.63,115.08,181.07z"/>
		<path class="st54" d="M116.6,180.21c-1.18-0.93-3.08-0.04-4.11,0.74c-0.81,0.61-1.47,1.43-1.89,2.35
			c-0.53-0.79-1.21-1.46-2.17-1.72c-1.33-0.36-2.9,0.21-3.29,1.62c-0.41,1.48,0.55,3.19,1.43,4.33c0.95,1.25,2.23,2.23,3.67,2.85
			c0.8,0.34,1.36-0.89,0.56-1.23c-1.96-0.83-4-2.71-4.37-4.91c-0.18-1.05,0.66-1.62,1.64-1.36c1.1,0.29,1.67,1.51,2.08,2.46
			c0.25,0.59,1.21,0.56,1.3-0.13c0.18-1.42,1-2.67,2.21-3.43c0.44-0.27,1.57-0.87,2.07-0.54c0.43,0.28,0.32,1.12,0.25,1.54
			c-0.47,2.98-2.25,5.65-4.75,7.32c-0.72,0.48,0.07,1.57,0.8,1.09c2.5-1.67,4.31-4.25,5.07-7.15
			C117.42,182.85,117.73,181.1,116.6,180.21z"/>
	</g>
	<g>
		<path class="st30" d="M103.6,130.94c0.24,0.81,0.81,1.57,1.41,2.08c1.11,0.95,2.54,1.29,3.77,2.03c0.2,0.12,0.42,0.19,0.64,0.19
			c0.26,0.13,0.57,0.18,0.86,0.08c2.32-0.75,4.12-3,4.34-5.44c0.01-0.07,0-0.14,0-0.21C110.93,129.92,107.26,130.39,103.6,130.94z"
			/>
		<path class="st54" d="M109,134.68c-1.7-0.68-3.48-2.13-4.21-3.92c-0.46,0.07-0.91,0.13-1.37,0.2c0.31,0.82,0.82,1.59,1.3,2.19
			c0.98,1.23,2.28,2.18,3.74,2.76C109.28,136.24,109.81,135,109,134.68z"/>
		<path class="st54" d="M113.69,129.74c-0.7,2.37-2.21,4.46-4.23,5.88c-0.71,0.5,0.11,1.57,0.82,1.07c2.4-1.68,4.12-4.22,4.85-7.05
			C114.65,129.67,114.17,129.7,113.69,129.74z"/>
	</g>
	<g>
		<g>
			<path class="st30" d="M138.09,158.38c-0.14-1.64-0.1-3.49-1.79-4.28c-3.3-1.55-7.65-1.06-11.18-0.86
				c-7.98,0.44-17.96,0.56-25.95,0.27c-3.84-0.14-7.69-0.6-11.52-0.6c-3.08,0-7.37,1.11-7.76,4.76c0,0.03,0.01,0.06,0,0.1
				c-0.8,4.47-1.14,9-1.02,13.54c0.06,2.02,0.01,4.24,0.66,6.18c0.67,2.01,2.37,2.87,4.26,3.52c6.44,2.22,13.37,1.21,20.09,1.71
				c0.06-0.1,0.13-0.18,0.2-0.27c0.41,0.18,0.88,0.23,1.35,0.13c1.07-0.23,2.17-0.17,3.25-0.15c1.26,0.02,2.51-0.03,3.76-0.14
				c2.56-0.23,5.09-0.67,7.61-1.11c0.34-0.06,0.62-0.24,0.85-0.47c2.11-0.1,4.99-0.22,6.58-0.4c2.02-0.23,4.04-0.59,5.99-1.18
				c1.59-0.48,3.47-0.95,4.01-2.72c0.59-1.95,0.61-4.21,0.74-6.24c0.12-1.8,0.17-3.6,0.16-5.4
				C138.38,162.63,138.28,160.5,138.09,158.38z"/>
			<path class="st10" d="M140.03,157.65c-0.16-1.64-0.3-3.37-1.61-4.55c-1.26-1.14-3.17-1.49-4.79-1.73
				c-2.04-0.3-4.09-0.33-6.14-0.25c-8.79,0.33-19.51,0.71-28.31,0.38c-2.47-0.09-4.94-0.22-7.41-0.38c-2.2-0.15-4.41-0.35-6.6-0.04
				c-3.6,0.52-7.09,2.94-7.3,6.84c0,0,0,0,0,0c-0.77,4.58-1.13,9.21-0.97,13.85c0.14,3.93,0.15,7.44,4.15,9.43
				c3.53,1.76,9.1,2,15,2.01c5.63,0.01,11.68-0.17,11.68-0.2c4.7-0.29,19.2-0.5,22.97-1.19c3.25-0.59,7.81-1.4,8.78-5.1
				c0.51-1.94,0.58-4.08,0.73-6.08c0.15-2.12,0.21-4.25,0.19-6.38C140.36,162.05,140.24,159.85,140.03,157.65z M138.23,170.15
				c-0.13,2.02-0.15,4.29-0.74,6.24c-0.54,1.77-2.42,2.24-4.01,2.72c-1.95,0.59-3.97,0.95-5.99,1.18c-1.98,0.23-5.97,0.35-7.96,0.48
				c-1.07,0.07-11.75,0.23-12.82,0.32c-0.37,0.03-0.77,0.05-1.16,0.09c0,0,0,0.01,0.01,0.01c-6.76-0.07-16.18,0.9-21.85-1.05
				c-1.89-0.65-3.49-0.66-4.16-2.67c-0.65-1.93-0.6-4.16-0.66-6.18c-0.12-4.54,0.22-9.07,1.02-13.54c0.01-0.04,0-0.06,0-0.1
				c0.4-3.65,4.68-4.76,7.76-4.76c3.84,0,7.69,0.45,11.52,0.6c7.98,0.29,17.97,0.18,25.95-0.27c3.53-0.2,7.88-0.69,11.18,0.86
				c1.69,0.79,1.65,2.65,1.79,4.28c0.19,2.12,0.28,4.25,0.29,6.38C138.4,166.55,138.34,168.36,138.23,170.15z"/>
			<g>
				<path class="st4" d="M107.47,170.4c-0.02-2.84-0.11-5.68-0.26-8.52c-0.07-1.25,0.13-3.07-0.63-4.13c-0.76-1.06-2.19-1-3.34-1.08
					c-2.14-0.15-5.1-0.58-6.78,1.14c-0.86,0.88-1.09,2.08-1.14,3.28c-0.05,1.37-0.04,2.76-0.03,4.13c0.04,3.19,0.14,6.41,0.49,9.58
					c0.09,0.82,0.35,1.49,1.1,1.88c0.69,0.35,1.59,0.25,2.35,0.23c0.51,0.11,1.02,0.17,1.48,0.22c1.28,0.15,2.6,0.05,3.85-0.26
					c1.24-0.3,2.4-0.89,2.76-2.26C107.67,173.31,107.48,171.75,107.47,170.4z"/>
			</g>
			<g>
				<path class="st4" d="M121.36,170.4c-0.02-2.84-0.11-5.68-0.26-8.52c-0.07-1.25,0.13-3.07-0.63-4.13c-0.76-1.06-2.19-1-3.34-1.08
					c-2.14-0.15-5.1-0.58-6.78,1.14c-0.86,0.88-1.09,2.08-1.14,3.28c-0.05,1.37-0.04,2.76-0.03,4.13c0.04,3.19,0.14,6.41,0.49,9.58
					c0.09,0.82,0.35,1.49,1.1,1.88c0.69,0.35,1.59,0.25,2.35,0.23c0.51,0.11,1.02,0.17,1.48,0.22c1.28,0.15,2.6,0.05,3.85-0.26
					c1.24-0.3,2.4-0.89,2.76-2.26C121.56,173.31,121.37,171.75,121.36,170.4z"/>
			</g>
			<g>
				<path class="st4" d="M93.58,170.4c-0.02-2.84-0.11-5.68-0.26-8.52c-0.07-1.25,0.13-3.07-0.63-4.13c-0.76-1.06-2.19-1-3.34-1.08
					c-2.14-0.15-5.1-0.58-6.78,1.14c-0.86,0.88-1.09,2.08-1.14,3.28c-0.05,1.37-0.04,2.76-0.03,4.13c0.04,3.19,0.14,6.41,0.49,9.58
					c0.09,0.82,0.35,1.49,1.1,1.88c0.69,0.35,1.59,0.25,2.35,0.23c0.51,0.11,1.02,0.17,1.48,0.22c1.28,0.15,2.6,0.05,3.85-0.26
					c1.24-0.3,2.4-0.89,2.76-2.26C93.78,173.31,93.59,171.75,93.58,170.4z"/>
			</g>
			<g>
				<path class="st4" d="M123.08,165.64h12.06c-0.04-1.25-0.09-2.5-0.16-3.75c-0.07-1.25,0.13-3.07-0.63-4.13
					c-0.76-1.06-2.19-1-3.34-1.08c-2.14-0.15-5.1-0.58-6.78,1.14c-0.86,0.88-1.09,2.08-1.14,3.28c-0.05,1.37-0.04,2.76-0.03,4.13
					C123.08,165.36,123.08,165.5,123.08,165.64z"/>
				<path class="st4" d="M135.19,167.45h-12.08c0.06,2.46,0.18,4.93,0.45,7.36c0.09,0.82,0.35,1.49,1.1,1.88
					c0.69,0.35,1.59,0.25,2.35,0.23c0.51,0.11,1.02,0.17,1.48,0.22c1.28,0.15,2.6,0.05,3.85-0.26c1.24-0.3,2.4-0.89,2.76-2.26
					c0.34-1.32,0.15-2.87,0.14-4.22C135.24,169.42,135.22,168.43,135.19,167.45z"/>
			</g>
			<path class="st10" d="M88.1,162.2c-1.03,1.67-2.39,3.12-4,4.25c-0.44,0.31-0.65,0.87-0.36,1.37c0.26,0.44,0.92,0.67,1.37,0.36
				c0.82-0.57,1.56-1.22,2.26-1.91c-0.34,2.55-0.52,5.12-0.5,7.69c0.01,1.29,2.01,1.29,2,0c-0.02-3.69,0.32-7.37,1.05-10.99
				C90.15,161.88,88.72,161.2,88.1,162.2z"/>
			<path class="st10" d="M105.62,169.08c-0.15-1.17-1.04-2.05-2.09-2.48c-1.03-0.42-2.14-0.34-3.21-0.15
				c0.02-0.08,0.03-0.16,0.05-0.24c0.19-0.86,0.5-1.69,1.01-2.42c0.39-0.55,1.12-1.35,1.88-1.23c0.53,0.08,1.08-0.13,1.23-0.7
				c0.13-0.47-0.16-1.15-0.7-1.23c-2.29-0.35-3.99,1.47-4.82,3.42c-0.78,1.83-1.04,4-0.61,5.96c0.4,1.84,1.82,3.89,3.91,3.88
				c1.1,0,1.96-0.74,2.48-1.65C105.27,171.31,105.76,170.16,105.62,169.08z M103.43,170.32c-0.18,0.48-0.5,1.44-1.09,1.56
				c-0.67,0.14-1.32-0.63-1.61-1.14c-0.38-0.67-0.56-1.44-0.6-2.24c0.89-0.18,1.94-0.42,2.79,0.01
				C103.72,168.91,103.73,169.55,103.43,170.32z"/>
			<path class="st10" d="M117.84,161.42c-0.11-0.2-0.29-0.37-0.56-0.46c-1.85-0.58-3.83,0.12-5.01,1.62
				c-1.08,1.38-1.61,3.53-0.5,5.05c1.1,1.51,2.98,1.47,4.3,0.35c-0.06,0.4-0.13,0.8-0.2,1.2c-0.11,0.57-0.23,1.15-0.37,1.71
				c-0.09,0.37-0.18,0.78-0.45,1.07c-0.53,0.58-1.53,0.52-2.25,0.49c-1.29-0.06-1.28,1.94,0,2c1.07,0.05,2.24-0.04,3.15-0.66
				c1.1-0.75,1.4-1.98,1.66-3.21c0.58-2.7,0.9-5.46,0.96-8.22C118.58,161.91,118.25,161.54,117.84,161.42z M113.4,166.49
				c-0.58-0.78-0.09-2.03,0.45-2.7c0.66-0.81,1.64-1.17,2.64-0.96c-0.19,1.07-0.59,2.12-1.18,3.02
				C114.9,166.45,114.02,167.33,113.4,166.49z"/>
			<path class="st10" d="M129.81,177.22c0.37,0,0.73,0,1.1-0.02c0.11-0.01,0.27-0.05,0.38-0.04l0.02,0
				c0.08-0.01,0.16-0.03,0.23-0.04c0.09-0.02,0.17-0.05,0.25-0.08c-0.01-0.16-0.02-0.33-0.04-0.49c-0.15-1.04-0.76-2.13-1.65-2.68
				c0.61-0.96,1.04-2.04,1.19-3.17c0.11-0.85-0.09-1.77-0.88-2.23c-0.81-0.47-1.74-0.18-2.51,0.21c-1.15,0.58-0.14,2.31,1.01,1.73
				c0.08-0.04,0.29-0.09,0.43-0.14c-0.04,0.4-0.13,0.79-0.26,1.18c-0.31,0.94-0.86,1.78-1.56,2.48c-0.66,0.66,0,2.05,0.97,1.67
				C129.46,175.21,129.78,176.47,129.81,177.22z"/>
			<path class="st10" d="M132.39,162.43c-1.13-0.12-2.27-0.19-3.41-0.23c0.97-0.99,1.69-2.17,1.8-3.66
				c0.05-0.63-0.08-1.25-0.32-1.81c-0.84-0.07-1.68-0.08-2.52-0.04c0.04,0.03,0.09,0.05,0.13,0.08c0.02,0.02,0.1,0.08,0.12,0.1
				c0.07,0.06,0.13,0.13,0.19,0.2c0.17,0.19,0.29,0.43,0.36,0.74c0.07,0.28,0.06,0.69,0,0.98c-0.34,1.65-1.78,2.69-3.14,3.53
				c-0.82,0.51-0.52,1.89,0.5,1.86c2.1-0.05,4.2,0.04,6.28,0.25c0.54,0.06,1-0.5,1-1C133.39,162.84,132.93,162.48,132.39,162.43z"/>
		</g>
		<path class="st10" d="M124.55,145.19c-0.15-1.4,0.03-3.73-1.78-4.31c-1.01-0.32-2.26-0.32-3.32-0.42
			c-1.14-0.11-2.28-0.2-3.42-0.28c-2.53-0.17-5.06-0.25-7.6-0.24c-2.53,0.01-5.07,0.1-7.6,0.29c-1.96,0.14-4.37,0.08-6.19,0.83
			c-1.8,0.73-2.22,2.35-2.51,3.95c-0.4,2.19-0.54,4.4-0.41,6.62c0.06,1.06,1.75,1.14,1.96,0.24c9.65,1.78,19.57-0.18,29.33,0.45
			c0.24,0.95,1.97,0.9,1.95-0.19C124.93,149.81,124.79,147.5,124.55,145.19z"/>
		<g>
			<path class="st4" d="M104.44,142.35c-0.57-0.15-1.03,0.2-1.23,0.71c-0.47,1.22-0.99,2.42-1.57,3.59
				c-0.29,0.59-0.6,1.18-0.92,1.76c-0.14,0.25-0.28,0.49-0.42,0.74c-0.12-0.22-0.24-0.45-0.36-0.67c-0.3-0.58-0.6-1.16-0.88-1.75
				c-0.56-1.16-1.08-2.35-1.56-3.55c-0.2-0.5-0.68-0.85-1.23-0.69c-0.48,0.14-0.89,0.73-0.69,1.23c0.92,2.31,1.97,4.56,3.16,6.73
				c0.34,0.61,0.74,1.29,1.52,1.32c0.81,0.04,1.17-0.6,1.53-1.21c0.61-1.01,1.17-2.05,1.69-3.12c0.62-1.27,1.17-2.56,1.68-3.88
				C105.34,143.07,104.92,142.48,104.44,142.35z"/>
			<path class="st4" d="M108.74,142.24c-1.29,0.01-1.28,2.01,0.01,2C110.04,144.23,110.03,142.23,108.74,142.24z"/>
			<path class="st4" d="M108.34,145.2c-0.54,0.03-1,0.45-0.99,1.01c0.02,1.62-0.04,3.24-0.17,4.86c-0.04,0.52,0.5,1.02,1.01,0.99
				c0.58-0.03,0.95-0.45,0.99-1.01c0.13-1.62,0.18-3.24,0.17-4.86C109.34,145.67,108.88,145.17,108.34,145.2z"/>
			<path class="st4" d="M120.12,149.21c-1.76,0.21-3.53,0.31-5.3,0.3c0.03-0.03,0.05-0.06,0.08-0.09c0.56-0.57,1.12-1.14,1.68-1.71
				c1.13-1.15,2.27-2.3,3.4-3.45c0.64-0.65,0.12-1.65-0.72-1.7c-2.17-0.15-4.34-0.27-6.51-0.36c-0.54-0.02-1,0.49-0.99,1.01
				c0,0.56,0.46,0.97,1.01,0.99c1.41,0.06,2.82,0.15,4.24,0.24c-0.65,0.66-1.3,1.32-1.95,1.98c-1.1,1.12-2.33,2.2-3.18,3.54
				c-0.43,0.68,0.16,1.46,0.87,1.5c2.47,0.13,4.94,0.05,7.39-0.25c0.54-0.07,1-0.42,0.99-1.01
				C121.12,149.71,120.66,149.15,120.12,149.21z"/>
		</g>
	</g>
	<path class="st10" d="M144.32,140.02c-0.36-4.09-0.71-8.18-1.07-12.28c-0.12-1.37-0.23-2.83-0.93-4.05
		c-0.8-1.4-2.17-1.97-3.69-2.22c-1.72-0.28-6.51-0.32-8.24-0.13c-1.46,0.16-3.25,0.35-4.45,1.27c-1.22,0.93-1.29,2.37-1.44,3.77
		c-0.17,1.64-0.95,1.61-2.49,2.19c-1.26,0.47-2.63,0.61-3.97,0.66c-2.05,0.08-4.11,0.1-6.17,0.14c-3.9,0.07-7.8,0.11-11.7,0.13
		c-1.63,0.01-3.92,0.26-4.98-1.29c-0.81-1.2-0.7-1.89-0.82-3.27c-0.1-1.16-0.17-2.71-1.2-3.47c-1.21-0.89-3.16-0.23-4.48-0.05
		c-5.69,0.78-10.82,0.22-12.79,7.11c-0.35,1.24,1.62,1.58,1.97,0.35c0.75-2.63,1.95-3.28,4.36-3.94c2.97-0.81,3.12-1.04,6.17-1.45
		c0.89-0.12,1.96-0.45,2.85-0.39c0.9,0.06,0.96,0.52,1.06,1.36c0.16,1.32,0.14,1.65,0.43,2.95c0.62,2.71,2.7,3.94,5.38,4.07
		c3.65,0.18,7.34-0.01,11-0.06c3.34-0.05,6.75,0.04,10.08-0.24c2.27-0.2,5.06-0.21,6.48-2.16c0.72-0.98,0.73-1.68,0.83-2.86
		c0.08-0.87,0.12-1.71,0.98-2.16c0.76-0.4,1.79-0.49,2.63-0.6c1.91-0.25,7.04-0.3,8.92,0.2c1.8,0.49,2.01,2.24,2.16,3.85
		c0.4,4.25,0.74,8.51,1.11,12.77C142.44,141.48,144.44,141.3,144.32,140.02z"/>
</g>
</svg>
