<?xml version="1.0" encoding="UTF-8" standalone="no"?>
<svg
   xmlns:dc="http://purl.org/dc/elements/1.1/"
   xmlns:cc="http://creativecommons.org/ns#"
   xmlns:rdf="http://www.w3.org/1999/02/22-rdf-syntax-ns#"
   xmlns:svg="http://www.w3.org/2000/svg"
   xmlns="http://www.w3.org/2000/svg"
   height="220.42212"
   width="252.4921"
   xml:space="preserve"
   viewBox="0 0 252.4921 220.42212"
   y="0px"
   x="0px"
   id="line"
   version="1.1"><metadata
   id="metadata599"><rdf:RDF><cc:Work
       rdf:about=""><dc:format>image/svg+xml</dc:format><dc:type
         rdf:resource="http://purl.org/dc/dcmitype/StillImage" /><dc:title></dc:title></cc:Work></rdf:RDF></metadata><defs
   id="defs597" />
<style
   id="style2"
   type="text/css">
	.st0{fill:#BCDFDF;}
	.st1{fill:#99D3DD;}
	.st2{fill:#ABCB58;}
	.st3{fill:#C7D555;}
	.st4{fill:#FFFFFF;}
	.st5{fill:#AAB4B9;}
	.st6{fill:#FDDBBF;}
	.st7{fill:#F4CA99;}
	.st8{fill:#DC9F5C;}
	.st9{fill:#F6B1AC;}
	.st10{fill:#651811;}
	.st11{fill:#E9E56D;}
	.st12{fill:#9BC0D5;}
	.st13{fill:#DDE8F0;}
	.st14{fill:#EF7C68;}
	.st15{fill:#FFE1A2;}
	.st16{fill:#E9F4F4;}
	.st17{fill:#CDD95F;}
	.st18{fill:#B2DCDA;}
	.st19{fill:#9DAEB9;}
	.st20{fill:#F0EA7A;}
	.st21{fill:#CCDB81;}
	.st22{fill:#F4A5AD;}
	.st23{fill:#B2B2B2;}
	.st24{fill:#C0C4C6;}
	.st25{fill:#E3E8EA;}
	.st26{fill:#FFDB83;}
	.st27{fill:#C0C0C0;}
	.st28{fill:#6EC6D9;}
	.st29{fill:#878D91;}
	.st30{fill:#F0867B;}
	.st31{fill:#FFDE90;}
	.st32{fill:#C53C6C;}
	.st33{fill:#EEBF6D;}
	.st34{fill:#903D8F;}
	.st35{fill:#514E9C;}
	.st36{fill:#F9BB7A;}
	.st37{fill:#F28F6C;}
	.st38{fill:#FFE586;}
	.st39{fill:#6FC5D3;}
	.st40{fill:#9BD4E4;}
	.st41{fill:#F6B9C2;}
	.st42{fill:#F4A08B;}
	.st43{fill:#D1E8E8;}
	.st44{fill:#FCC249;}
	.st45{fill:#9F5A24;}
	.st46{fill:#BCE4FA;}
	.st47{fill:#B07147;}
	.st48{fill:#D88959;}
	.st49{fill:#FFEC96;}
	.st50{fill:#91D0D4;}
	.st51{fill:#651811;stroke:#651811;stroke-width:0.75;stroke-linecap:round;stroke-linejoin:round;stroke-miterlimit:10;}
	.st52{fill:#C1E3E6;}
	.st53{fill:#C4D4DE;}
	.st54{fill:#651811;stroke:#651811;stroke-width:0.5;stroke-miterlimit:10;}
	.st55{fill:#651811;stroke:#651811;stroke-width:0.5;stroke-linecap:round;stroke-linejoin:round;stroke-miterlimit:10;}
	.st56{fill:#D8E0E6;}
	.st57{fill:#FECB4A;}
	.st58{fill:#EEF8FE;}
	.st59{fill:#ADCE68;}
	.st60{fill:#FCD7BA;}
	.st61{fill:#651811;stroke:#651811;stroke-width:0.25;stroke-miterlimit:10;}
	.st62{fill:#F4A8B3;}
	.st63{fill:#F7AE6E;}
	.st64{fill:#FEDFB3;}
	.st65{fill:#F7B28C;}
	.st66{fill:#FFFBDC;}
	.st67{fill:#FCC24F;}
	.st68{fill:none;stroke:#651811;stroke-width:2;stroke-linecap:round;stroke-linejoin:round;stroke-miterlimit:10;}
	.st69{fill:#9EC65A;}
	.st70{fill:#A7D9DE;}
	.st71{fill:#CACCCE;}
	.st72{fill:#FBBE49;}
	.st73{fill:#9BC76B;}
	.st74{fill:#D9E181;}
	.st75{fill:#F6B9C5;}
	.st76{fill:#87CDD8;}
	.st77{fill:#651811;stroke:#651811;stroke-width:0.4;stroke-miterlimit:10;}
	.st78{fill:#A8D7CC;}
	.st79{fill:#CDEAFC;}
	.st80{fill:#D6D6D6;}
	.st81{fill:#F8C3C3;}
	.st82{fill:#D7BCA5;}
	.st83{fill:#FFD247;}
	.st84{fill:#F59B42;}
	.st85{fill:#FFF59B;}
	.st86{fill:#90D1DB;}
	.st87{fill:#EB935F;}
	.st88{fill:#DD7636;}
</style>
<g
   transform="translate(-21.400283,-31.066073)"
   id="g592">
	<path
   style="fill:#cdd95f;stroke-width:0.92982566"
   id="path4"
   d="m 270.03459,50.09 c -6.70046,-10.46 -20.22243,-13.9 -31.05556,-12.28 -10.79855,1.61 -21.92564,8.42 -26.83643,19.98 -2.42946,5.71 -2.86175,12.22 -0.65708,18.08 2.39487,6.37 7.16733,11.43 12.5277,14.42 8.47284,4.72 22.40116,6.46 35.99229,-1.18 5.47276,-3.07 10.24522,-7.77 12.45854,-14.41 2.15279,-6.46 2.26519,-17.28 -2.42946,-24.61 z"
   class="st17" />
	<path
   style="fill:#bcdfdf;stroke-width:0.92982566"
   id="path6"
   d="m 270.03459,127.1 c -6.70046,-10.46 -20.22243,-13.9 -31.05556,-12.28 -10.79855,1.61 -21.92564,8.42 -26.83643,19.98 -2.42946,5.71 -2.86175,12.22 -0.65708,18.08 2.39487,6.37 7.16733,11.43 12.5277,14.42 8.47284,4.72 22.40116,6.46 35.99229,-1.18 5.47276,-3.07 10.24522,-7.77 12.45854,-14.41 2.15279,-6.47 2.26519,-17.29 -2.42946,-24.61 z"
   class="st0" />
	<path
   style="fill:#ffdb83;stroke-width:0.92982566"
   id="path8"
   d="m 270.03459,203.1 c -6.70046,-10.46 -20.22243,-13.9 -31.05556,-12.28 -10.79855,1.61 -21.92564,8.42 -26.83643,19.98 -2.42946,5.71 -2.86175,12.22 -0.65708,18.08 2.39487,6.37 7.16733,11.43 12.5277,14.42 8.47284,4.72 22.40116,6.46 35.99229,-1.18 5.47276,-3.07 10.24522,-7.77 12.45854,-14.41 2.15279,-6.47 2.26519,-17.28 -2.42946,-24.61 z"
   class="st26" />
	<path
   style="fill:#ffffff"
   id="path10"
   d="m 263.95,62.66 c -1.49,-10.3 -10.69,-19.41 -21.52,-18.19 -0.79,0.09 -1.5,0.44 -1.97,1 -1.43,-0.11 -2.87,0.12 -4.34,0.52 -2.45,0.67 -4.84,1.58 -7.14,2.65 -4.41,2.06 -8.11,4.97 -9.99,9.58 -1.8,4.43 -2.52,10.1 -1,14.71 1.33,4.04 4.26,7.24 7.82,9.48 7.66,4.8 18.05,5.41 26.21,1.6 8.08,-3.78 13.22,-12.47 11.93,-21.35 z"
   class="st4" />
	<path
   style="fill:#ffffff"
   id="path12"
   d="m 262.83,140.37 c -1.49,-10.3 -10.69,-19.41 -21.52,-18.19 -0.79,0.09 -1.5,0.44 -1.97,1 -1.43,-0.11 -2.87,0.12 -4.34,0.52 -2.45,0.67 -4.84,1.58 -7.14,2.65 -4.41,2.06 -8.11,4.97 -9.99,9.58 -1.8,4.43 -2.52,10.1 -1,14.71 1.33,4.04 4.26,7.24 7.82,9.48 7.66,4.8 18.05,5.41 26.21,1.6 8.08,-3.78 13.21,-12.47 11.93,-21.35 z"
   class="st4" />
	<path
   style="fill:#ffffff"
   id="path14"
   d="m 263.11,216.67 c -1.49,-10.3 -10.69,-19.41 -21.52,-18.19 -0.79,0.09 -1.5,0.44 -1.97,1 -1.43,-0.11 -2.87,0.12 -4.34,0.52 -2.45,0.67 -4.84,1.58 -7.14,2.65 -4.41,2.06 -8.11,4.97 -9.99,9.58 -1.8,4.43 -2.52,10.1 -1,14.71 1.33,4.04 4.26,7.24 7.82,9.48 7.66,4.8 18.05,5.41 26.21,1.6 8.08,-3.78 13.21,-12.46 11.93,-21.35 z"
   class="st4" />
	<path
   style="fill:#fcc24f"
   id="path16"
   d="m 252.4,65.06 c -0.27,-0.47 -0.6,-0.9 -1.05,-1.28 -1.17,-0.97 -2.6,-1.23 -4.05,-1.19 -0.05,-3 -0.69,-6.2 -2.24,-8.74 0.02,-0.82 -0.4,-1.61 -1.36,-1.81 -0.02,-0.02 -0.03,-0.04 -0.04,-0.05 -1.45,-1.5 -3.52,-2.37 -5.61,-1.92 -1.93,0.42 -3.44,1.9 -4.37,3.59 -1.09,2 -1.5,4.28 -1.76,6.51 -0.13,1.12 -0.19,2.24 -0.21,3.37 -0.28,0 -0.55,-0.01 -0.79,0.05 -1.11,0.29 -1.93,1.21 -2.24,2.29 -0.53,1.88 -0.19,4.21 0.28,6.06 0.09,0.35 0.2,0.7 0.31,1.05 -0.31,4.54 3.03,8.73 7.57,9.34 3.34,1.84 7.27,2.1 10.58,-0.19 1.9,-1.32 3.23,-3.07 4.13,-5.05 0.35,-4 0.93,-8 0.85,-12.03 z m -9.15,-0.26 c -1.13,0.24 -2.26,0.4 -3.43,0.45 -0.85,0.03 -1.7,0.02 -2.55,-0.03 -0.14,-0.01 -0.31,-0.02 -0.48,-0.02 0.02,-0.09 0.04,-0.19 0.05,-0.28 0.21,-2.2 0.42,-4.57 1.55,-6.52 0.36,-0.62 0.88,-1.23 1.5,-1.71 0.57,-0.29 1.18,-0.5 1.84,-0.62 0.23,0.42 0.41,0.84 0.54,1.18 0.92,2.42 1.18,4.98 0.98,7.55 z"
   class="st67" />
	<path
   style="fill:#cdd95f"
   id="path18"
   d="m 257.7,217.57 c -0.44,-3.93 -2.92,-7.25 -6.32,-9.2 -3.43,-1.96 -7.4,-2.32 -11.23,-1.78 -0.21,-0.08 -0.44,-0.14 -0.68,-0.17 -4.11,-0.51 -7.97,1.72 -10.84,4.47 -3.01,2.87 -5.42,6.74 -4.8,11.05 0.62,4.28 4.33,6.72 8.18,7.94 2.08,0.66 4.26,0.88 6.42,0.54 1.03,-0.16 2.01,-0.48 2.99,-0.82 0.24,-0.08 0.49,-0.16 0.73,-0.25 -0.16,0.52 -0.32,1.03 -0.48,1.55 -0.68,2.2 2.5,3.45 3.66,1.54 1.62,-2.67 5.27,-3.42 7.73,-5.07 3.26,-2.2 5.09,-5.82 4.64,-9.8 z"
   class="st17" />
	<path
   style="fill:#f4a08b"
   id="path20"
   d="m 226.4,141.89 c -0.07,-0.13 -0.17,-0.25 -0.26,-0.36 -0.09,-0.12 -0.18,-0.24 -0.29,-0.35 -0.21,-0.2 -0.46,-0.4 -0.73,-0.52 -0.23,-0.15 -0.48,-0.23 -0.74,-0.24 -0.27,-0.06 -0.53,-0.05 -0.8,0.04 -0.17,0.06 -0.33,0.14 -0.49,0.23 -0.24,0.03 -0.48,0.11 -0.69,0.24 -0.45,0.29 -0.75,0.68 -0.92,1.2 -0.1,0.31 -0.18,0.63 -0.23,0.95 -0.07,0.48 -0.14,0.96 -0.13,1.45 0.01,0.47 0.06,0.96 0.15,1.42 0.06,0.27 0.17,0.55 0.32,0.78 0.33,0.53 0.79,0.86 1.37,1.07 0.35,0.13 0.68,0.12 1.03,0.07 0.36,-0.05 0.69,-0.14 1,-0.35 0.47,-0.32 0.87,-0.72 1.15,-1.22 0.22,-0.4 0.4,-0.84 0.53,-1.28 0.05,-0.15 0.08,-0.3 0.1,-0.46 0.05,-0.31 0.11,-0.64 0.09,-0.95 -0.01,-0.62 -0.15,-1.19 -0.46,-1.72 z"
   class="st42" />
	<path
   style="fill:#f4a08b"
   id="path22"
   d="m 258.08,142.17 c -0.07,-0.13 -0.17,-0.25 -0.26,-0.36 -0.09,-0.12 -0.18,-0.24 -0.29,-0.35 -0.21,-0.2 -0.46,-0.4 -0.73,-0.52 -0.23,-0.15 -0.48,-0.23 -0.74,-0.24 -0.27,-0.06 -0.53,-0.05 -0.8,0.04 -0.17,0.06 -0.33,0.14 -0.49,0.23 -0.24,0.03 -0.48,0.11 -0.69,0.24 -0.45,0.29 -0.75,0.68 -0.92,1.2 -0.1,0.31 -0.18,0.63 -0.23,0.95 -0.07,0.48 -0.14,0.96 -0.13,1.45 0.01,0.47 0.06,0.96 0.15,1.42 0.06,0.27 0.17,0.55 0.32,0.78 0.33,0.53 0.79,0.86 1.37,1.07 0.35,0.13 0.68,0.12 1.03,0.07 0.36,-0.05 0.69,-0.14 1,-0.35 0.47,-0.32 0.87,-0.72 1.15,-1.22 0.22,-0.4 0.4,-0.84 0.53,-1.28 0.05,-0.15 0.08,-0.3 0.1,-0.46 0.05,-0.31 0.11,-0.64 0.09,-0.95 -0.02,-0.62 -0.15,-1.19 -0.46,-1.72 z"
   class="st42" />
	<path
   style="fill:#ffdb83"
   id="path24"
   d="M 107.16,125.36 C 98.21,108.34 77.03,98.27 57.69,100.39 c -0.04,0 -0.08,0.01 -0.12,0.01 -1.57,0.18 -3.13,0.42 -4.66,0.76 -1.07,0.24 -1.8,0.76 -2.28,1.42 -15.03,6.14 -26.04,19.43 -28.62,35.37 -3,18.58 5.12,36.59 23.27,44.3 17.29,7.35 38.32,4.44 52.06,-8.37 13.16,-12.29 18.32,-32.35 9.82,-48.52 z"
   class="st26" />
	<path
   style="fill:#ffffff"
   id="path26"
   d="m 95.54,174.87 c -0.78,-2.96 -3.52,-5.77 -5.8,-7.69 -2.49,-2.1 -5.32,-3.72 -8.42,-4.76 -1.78,-0.6 -3.61,-0.8 -5.43,-1.21 -0.83,-0.18 -3.25,-0.92 -2.43,-2.21 0.72,-1.13 2.72,-1.34 3.88,-1.69 1.47,-0.45 2.75,-1.08 3.77,-2.13 2.63,-1.27 4.84,-3.26 6.3,-5.84 0.79,-1.4 1.36,-2.94 1.61,-4.53 0.14,-0.9 0.13,-1.89 0.22,-2.84 0.6,0.03 1.23,-0.18 1.63,-0.57 1.51,-1.47 2.11,-3.46 2.16,-5.53 0.06,-2.16 -0.64,-4.26 -0.59,-6.42 0.02,-1.11 0.56,-1.92 0.79,-2.97 0.26,-1.17 -0.04,-2.35 -0.85,-3.24 -1.08,-1.19 -2.46,-1.42 -3.85,-1.21 -0.58,-1.98 -1.9,-3.75 -3.74,-4.74 -2.84,-1.52 -6.2,-0.87 -9.21,-1.85 -1.32,-0.43 -2.57,-1.09 -3.69,-1.9 -1.1,-0.78 -1.9,-2.05 -3.07,-2.71 -1.17,-0.66 -2.48,-0.53 -3.55,0.22 -0.32,0.23 -0.67,0.66 -1.02,1.05 -0.91,-0.89 -2.11,-1.45 -3.48,-1.63 -2.45,-0.32 -4.75,0.8 -6.73,2.15 -2.01,1.37 -3.95,2.91 -4.94,5.21 -0.92,2.13 -0.92,4.48 -0.38,6.71 0.53,2.17 1.6,4.22 2.9,6.02 0.56,0.78 1.37,1.58 1.18,2.61 -0.24,1.27 -1.12,2.5 -1.61,3.69 -1.78,4.34 -2.1,9.55 0.33,13.71 2.27,3.9 6.35,6.07 10.48,7.58 -1.21,3.86 -6.8,5.18 -10.05,6.5 -4.59,1.87 -8.66,4.76 -11.81,8.6 -1.48,1.8 0.73,4.31 2.37,3.23 3.75,4.42 9.1,7 14.75,8.24 6.89,1.52 14.17,1.48 21.11,0.27 3.58,-0.62 7.09,-1.63 10.45,-3.03 3.1,-1.26 7.85,-2.82 6.72,-7.09 z"
   class="st4" />
	<g
   id="g48">
		<path
   style="fill:#d1e8e8"
   id="path28"
   d="m 207.33,54.09 c -8.55,-5.44 -18.8,-7.56 -28.73,-8.78 -10.17,-1.25 -20.5,-1.14 -30.63,0.41 -18.51,2.84 -36.09,10.87 -49.78,23.73 -7.22,6.78 -13.25,14.82 -17.54,23.75 -0.56,1.15 1.17,2.17 1.73,1.01 7.48,-15.55 20.19,-28.15 35.3,-36.36 17.14,-9.32 37.09,-12.61 56.43,-11 11,0.92 22.75,2.95 32.21,8.97 1.09,0.69 2.09,-1.04 1.01,-1.73 z"
   class="st43" />
		<path
   style="fill:#d1e8e8"
   id="path30"
   d="m 219.57,122.29 c -19.9,-11.91 -37.12,-28.21 -50.13,-47.41 -3.66,-5.41 -6.98,-11.04 -9.96,-16.85 -0.59,-1.15 -2.31,-0.14 -1.73,1.01 10.71,20.93 26.05,39.46 44.62,53.89 5.17,4.02 10.57,7.73 16.19,11.09 1.11,0.66 2.12,-1.07 1.01,-1.73 z"
   class="st43" />
		<path
   style="fill:#d1e8e8"
   id="path32"
   d="m 206.37,69.33 c -29.88,-2.63 -58.62,9.17 -83.54,24.64 -7.12,4.42 -14.04,9.17 -20.85,14.04 -1.04,0.74 -0.04,2.48 1.01,1.73 23.66,-16.92 49.3,-32.67 78.47,-37.43 8.23,-1.34 16.61,-1.71 24.91,-0.98 1.28,0.11 1.27,-1.89 0,-2 z"
   class="st43" />
		<path
   style="fill:#d1e8e8"
   id="path34"
   d="m 208.62,81 c -11.51,11.02 -26.51,18.75 -42.44,20.52 -14.86,1.65 -29.94,-2.27 -41.94,-11.24 -6.53,-4.88 -11.89,-11.24 -15.45,-18.58 -0.56,-1.16 -2.29,-0.15 -1.73,1.01 6.56,13.56 19.13,23.51 33.32,28.19 15.29,5.05 31.9,3.39 46.53,-2.98 8.56,-3.73 16.39,-9.05 23.12,-15.49 0.93,-0.91 -0.48,-2.32 -1.41,-1.43 z"
   class="st43" />
		<path
   style="fill:#d1e8e8"
   id="path36"
   d="m 157.73,118.64 c 0.02,0 0.04,0.01 0.06,0.01 -5.41,-15 -7.16,-31.25 -5.05,-47.07 0.64,-4.81 1.66,-9.57 3.01,-14.23 0.36,-1.24 -1.57,-1.77 -1.93,-0.53 -4.79,16.6 -5.21,34.36 -1.29,51.18 0.88,3.78 2,7.49 3.31,11.13 0.1,0.39 0.4,0.73 0.92,0.73 0.74,0 1.04,-0.65 0.93,-1.21 0.02,-0.01 0.03,-0.01 0.04,-0.01 z"
   class="st43" />
		<path
   style="fill:#d1e8e8"
   id="path38"
   d="m 141.34,122.22 c -14.06,-7.28 -25.21,-19.85 -30.9,-34.62 -1.6,-4.14 -2.75,-8.44 -3.47,-12.83 -0.21,-1.27 -2.13,-0.73 -1.93,0.53 2.6,15.98 11.32,30.83 23.82,41.08 3.55,2.91 7.38,5.45 11.46,7.56 1.15,0.6 2.16,-1.13 1.02,-1.72 z"
   class="st43" />
		<path
   style="fill:#d1e8e8"
   id="path40"
   d="m 131.27,144.57 c -4.12,-0.43 -8.26,-0.54 -12.39,-0.31 -1.28,0.07 -1.29,2.07 0,2 4.13,-0.23 8.27,-0.13 12.39,0.31 0.54,0.06 1,-0.5 1,-1 0,-0.58 -0.46,-0.94 -1,-1 z"
   class="st43" />
		<path
   style="fill:#d1e8e8"
   id="path42"
   d="m 206.34,145.39 c -5.79,0.43 -11.6,0.48 -17.4,0.2 -1.28,-0.06 -1.42,1.93 -0.13,2 5.98,0.29 11.97,0.21 17.94,-0.23 1.27,-0.1 0.86,-2.06 -0.41,-1.97 z"
   class="st43" />
		<path
   style="fill:#d1e8e8"
   id="path44"
   d="m 133.11,132.86 c -5.12,-4.54 -11.36,-7.69 -18.07,-9.05 -1.26,-0.25 -1.79,1.67 -0.53,1.93 6.37,1.29 12.32,4.22 17.18,8.53 0.97,0.86 2.39,-0.55 1.42,-1.41 z"
   class="st43" />
		<path
   style="fill:#d1e8e8"
   id="path46"
   d="m 217.58,90.83 c -7.78,15.2 -19.37,28.3 -33.53,37.84 -1.06,0.72 -0.05,2.44 1.02,1.72 14.45,-9.72 26.31,-23.06 34.25,-38.56 0.58,-1.15 -1.15,-2.14 -1.74,-1 z"
   class="st43" />
	</g>
	<g
   id="g66">
		<path
   style="fill:#d1e8e8"
   id="path50"
   d="m 207.33,236.56 c -8.55,5.44 -18.8,7.56 -28.73,8.78 -10.17,1.25 -20.5,1.14 -30.63,-0.41 -18.51,-2.84 -36.09,-10.87 -49.78,-23.73 -7.22,-6.78 -13.25,-14.82 -17.54,-23.75 -0.56,-1.15 1.17,-2.17 1.73,-1.01 7.48,15.55 20.19,28.15 35.3,36.36 17.14,9.32 37.09,12.61 56.43,11 11,-0.92 22.75,-2.95 32.21,-8.97 1.09,-0.69 2.09,1.04 1.01,1.73 z"
   class="st43" />
		<path
   style="fill:#d1e8e8"
   id="path52"
   d="m 219.57,168.36 c -19.9,11.91 -37.12,28.21 -50.13,47.41 -3.66,5.41 -6.98,11.04 -9.96,16.85 -0.59,1.15 -2.31,0.14 -1.73,-1.01 10.71,-20.93 26.05,-39.46 44.62,-53.89 5.17,-4.02 10.57,-7.73 16.19,-11.09 1.11,-0.66 2.12,1.07 1.01,1.73 z"
   class="st43" />
		<path
   style="fill:#d1e8e8"
   id="path54"
   d="m 206.37,221.32 c -29.88,2.63 -58.62,-9.17 -83.54,-24.64 -7.12,-4.42 -14.04,-9.17 -20.85,-14.04 -1.04,-0.74 -0.04,-2.48 1.01,-1.73 23.66,16.92 49.3,32.67 78.47,37.43 8.23,1.34 16.61,1.71 24.91,0.98 1.28,-0.11 1.27,1.89 0,2 z"
   class="st43" />
		<path
   style="fill:#d1e8e8"
   id="path56"
   d="m 208.62,209.65 c -11.51,-11.02 -26.51,-18.75 -42.44,-20.52 -14.86,-1.65 -29.94,2.27 -41.94,11.24 -6.53,4.88 -11.89,11.24 -15.45,18.58 -0.56,1.16 -2.29,0.15 -1.73,-1.01 6.56,-13.56 19.13,-23.51 33.32,-28.19 15.29,-5.05 31.9,-3.39 46.53,2.98 8.56,3.73 16.39,9.05 23.12,15.49 0.93,0.9 -0.48,2.32 -1.41,1.43 z"
   class="st43" />
		<path
   style="fill:#d1e8e8"
   id="path58"
   d="m 157.73,172.01 c 0.02,0 0.04,-0.01 0.06,-0.01 -5.41,15 -7.16,31.25 -5.05,47.07 0.64,4.81 1.66,9.57 3.01,14.23 0.36,1.24 -1.57,1.77 -1.93,0.53 -4.79,-16.6 -5.21,-34.36 -1.29,-51.18 0.88,-3.78 2,-7.49 3.31,-11.13 0.1,-0.39 0.4,-0.73 0.92,-0.73 0.74,0 1.04,0.65 0.93,1.21 0.02,0.01 0.03,0.01 0.04,0.01 z"
   class="st43" />
		<path
   style="fill:#d1e8e8"
   id="path60"
   d="m 141.34,168.43 c -14.06,7.28 -25.21,19.85 -30.9,34.62 -1.6,4.14 -2.75,8.44 -3.47,12.83 -0.21,1.27 -2.13,0.73 -1.93,-0.53 2.6,-15.98 11.32,-30.83 23.82,-41.08 3.55,-2.91 7.38,-5.45 11.46,-7.56 1.15,-0.6 2.16,1.13 1.02,1.72 z"
   class="st43" />
		<path
   style="fill:#d1e8e8"
   id="path62"
   d="m 133.11,157.78 c -5.12,4.54 -11.36,7.69 -18.07,9.05 -1.26,0.25 -1.79,-1.67 -0.53,-1.93 6.37,-1.29 12.32,-4.22 17.18,-8.53 0.97,-0.85 2.39,0.56 1.42,1.41 z"
   class="st43" />
		<path
   style="fill:#d1e8e8"
   id="path64"
   d="m 217.58,199.81 c -7.78,-15.2 -19.37,-28.3 -33.53,-37.84 -1.06,-0.72 -0.05,-2.44 1.02,-1.72 14.45,9.72 26.31,23.06 34.25,38.56 0.58,1.15 -1.15,2.15 -1.74,1 z"
   class="st43" />
	</g>
	<g
   id="g140">
		<g
   id="g136">
			<path
   style="fill:#fddbbf"
   id="path68"
   d="m 53.68,150.61 c 3.53,6.23 11.55,7.71 18.08,6.07 3.33,-0.83 6.36,-3.76 6.78,-6.83 4.12,-0.31 8.64,-1.57 9.26,-5.42 0.55,-3.38 -1.71,-4.6 -4.33,-4.66 0.29,-2.06 0.39,-4.13 0.32,-6.28 -0.04,-1.35 -0.8,-2.15 -1.76,-2.48 0.3,-2.08 -2.25,-4.5 -4.77,-3.13 -4.96,2.7 -9.5,2.5 -14.84,1.49 -3.05,-0.57 -6.61,-0.45 -8.71,2.22 -3.41,4.36 -2.61,14.46 -0.03,19.02 z"
   class="st6" />
			<path
   style="fill:#fddbbf"
   id="path70"
   d="m 64.02,158 c 0.5,-0.76 1.37,-1.28 2.28,-1.35 0.56,-1.19 1.98,-2 3.28,-1.7 1.64,0.38 2.64,1.84 2.4,3.5 -0.22,1.51 -1.2,2.79 -2.49,3.54 -0.21,0.33 -0.48,0.62 -0.83,0.83 -1.35,0.84 -3.26,0.63 -4.17,-0.78 -0.15,-0.24 -0.3,-0.47 -0.46,-0.71 -0.67,-1.02 -0.69,-2.31 -0.01,-3.33 z"
   class="st6" />
			<path
   style="fill:#f4ca99"
   id="path72"
   d="m 83.55,128.25 c 0.11,-0.49 0.22,-0.98 0.35,-1.46 0.2,-0.73 0.75,-1.16 1.47,-1.19 0,-0.05 0,-0.09 0.01,-0.14 0.15,-0.78 0.96,-1.37 1.75,-1.2 1.9,0.42 2.29,2.57 2.5,4.24 0.48,0.22 0.86,0.65 0.87,1.21 0.02,1.26 -0.02,2.52 -0.13,3.77 -0.1,1.14 -0.21,2.33 -0.51,3.43 -0.36,1.34 -1.48,2.5 -2.97,2.01 -0.15,-0.05 -0.3,-0.12 -0.44,-0.2 -0.34,0.62 -1.34,0.96 -1.94,0.57 -0.83,-0.53 -1.3,-1.31 -1.12,-2.32 0,-0.02 0.01,-0.03 0.01,-0.05 -0.41,-0.24 -0.72,-0.64 -0.72,-1.13 0.01,-2.25 0.23,-4.48 0.67,-6.67 0.01,-0.12 0.01,-0.23 0.02,-0.35 0.01,-0.19 0.08,-0.37 0.18,-0.52 z"
   class="st7" />
			<path
   style="fill:#dc9f5c"
   id="path74"
   d="m 53.38,126.19 c 3.18,2.09 7.31,3.06 11.06,3.36 6.5,0.51 13.09,-1.01 18.61,-4.45 0.3,0.42 0.8,0.66 1.36,0.68 1.27,0.05 2.29,-1.03 2.53,-2.22 0.26,-1.33 -0.41,-2.54 -1.52,-3.25 -1.27,-0.81 -2.9,-0.97 -4.36,-1.17 -1.65,-0.23 -3.3,-0.38 -4.93,-0.71 -1.59,-0.32 -3.18,-0.82 -4.49,-1.81 -1.32,-0.99 -2.38,-2.25 -4,-2.76 -1.39,-0.44 -2.86,-0.1 -3.83,0.73 -1.19,-1 -2.72,-1.54 -4.36,-1.19 -1.08,0.23 -2.05,0.88 -2.73,1.74 -0.43,-0.26 -0.89,-0.46 -1.4,-0.57 -1.95,-0.44 -3.86,0.6 -4.9,2.23 -2.2,3.4 -0.06,7.41 2.96,9.39 z"
   class="st8" />
			<path
   style="fill:#f4ca99"
   id="path76"
   d="m 81.35,150.36 c 0.37,-0.53 0.78,-1.02 1.21,-1.49 0.27,-0.46 0.51,-0.95 0.68,-1.45 0.11,-0.33 0.53,-0.64 0.84,-0.75 0.35,-0.13 0.83,-0.12 1.16,0.06 0.34,0.18 0.64,0.47 0.75,0.84 l 0.08,0.38 c 0.02,0.27 -0.03,0.54 -0.15,0.78 -0.04,0.11 -0.1,0.22 -0.14,0.34 0,0 0,0 0,0.01 0.02,0.39 -0.08,0.81 -0.36,1.11 -0.15,0.14 -0.28,0.3 -0.43,0.46 -0.4,0.62 -0.86,1.19 -1.39,1.68 -0.29,0.28 -0.59,0.48 -1.01,0.51 -0.37,0.03 -0.83,-0.1 -1.11,-0.36 -0.28,-0.26 -0.5,-0.62 -0.51,-1.01 0.01,-0.13 0.01,-0.27 0.02,-0.4 0.07,-0.27 0.18,-0.51 0.36,-0.71 z"
   class="st7" />
			<path
   style="fill:#c7d555"
   id="path78"
   d="m 43.86,176.41 c -0.12,3.85 2.97,6.25 6.2,7.62 7.69,3.28 16.83,3.67 25.06,2.72 3.85,-0.44 7.75,-1.33 11.24,-3.05 3.4,-1.67 6.66,-4.79 5.86,-8.95 -0.36,-1.87 -1.58,-3.21 -3.04,-4.35 -1.6,-1.25 -3.3,-2.39 -5.05,-3.43 -3.56,-2.12 -7.38,-3.7 -11.35,-4.86 -0.93,-0.27 -1.91,0.43 -2.24,1.29 -6.93,-0.73 -14.05,0.77 -20.1,4.3 -3.26,1.88 -6.45,4.65 -6.58,8.71 z"
   class="st3" />
			<path
   style="fill:#651811"
   id="path80"
   d="m 70.7,156.42 c 0.58,0.05 0.93,0.48 0.95,1.04 0.02,0.38 0.04,0.76 0.07,1.14 0,0.02 0,0.03 0,0.04 0,0.01 0,0.02 0,0.04 0.01,0.09 0.02,0.17 0.03,0.26 0.02,0.19 0.04,0.38 0.06,0.57 0.09,0.74 0.21,1.48 0.35,2.21 0.1,0.51 -0.21,1.1 -0.75,1.2 -0.52,0.09 -1.09,-0.21 -1.2,-0.75 -0.31,-1.58 -0.49,-3.19 -0.57,-4.79 -0.01,-0.53 0.55,-1 1.06,-0.96 z"
   class="st10" />
			<path
   style="fill:#651811"
   id="path82"
   d="m 60.31,162.17 c -0.09,0.2 0.06,-0.14 0.08,-0.17 0.04,-0.08 0.07,-0.16 0.11,-0.25 0.08,-0.19 0.16,-0.39 0.24,-0.58 0.14,-0.36 0.27,-0.73 0.38,-1.1 0.11,-0.37 0.22,-0.75 0.31,-1.12 0.05,-0.2 0.09,-0.41 0.13,-0.61 0,-0.02 0.01,-0.04 0.01,-0.05 0,-0.01 0,-0.02 0.01,-0.04 0.02,-0.12 0.04,-0.24 0.06,-0.35 0.08,-0.52 0.47,-1.01 1.04,-0.95 0.49,0.04 1.04,0.49 0.95,1.04 -0.28,1.85 -0.83,3.59 -1.64,5.27 -0.23,0.47 -0.98,0.58 -1.38,0.3 -0.49,-0.35 -0.54,-0.88 -0.3,-1.39 z"
   class="st10" />
			<path
   style="fill:#651811"
   id="path84"
   d="m 60.87,161.52 c 0.8,0.58 1.75,0.66 2.71,0.72 1,0.07 2,0.09 3,0.04 2.02,-0.09 4.03,-0.52 5.83,-1.46 1.14,-0.6 2.07,1.18 0.93,1.77 -2.13,1.11 -4.47,1.58 -6.85,1.69 -1.14,0.05 -2.28,0.02 -3.41,-0.07 -1.16,-0.1 -2.33,-0.31 -3.29,-1.01 -1.05,-0.75 0.03,-2.44 1.08,-1.68 z"
   class="st10" />
			<path
   style="fill:#651811"
   id="path86"
   d="m 59.06,163.33 c 1.49,1.77 4.11,1.77 6.23,1.58 2.8,-0.25 5.57,-0.89 8.2,-1.89 1.2,-0.45 2.08,1.34 0.87,1.8 -3.04,1.16 -6.23,1.91 -9.48,2.11 -2.63,0.17 -5.54,-0.15 -7.35,-2.3 -0.82,-0.98 0.7,-2.29 1.53,-1.3 z"
   class="st10" />
			<path
   style="fill:#651811"
   id="path88"
   d="m 76.61,162.2 c 8.2,2.48 15.21,8.17 19.38,15.64 0.63,1.13 -1.17,1.99 -1.8,0.87 -3.92,-7.03 -10.56,-12.31 -18.26,-14.63 -1.23,-0.37 -0.55,-2.25 0.68,-1.88 z"
   class="st10" />
			<path
   style="fill:#651811"
   id="path90"
   d="m 40.79,175.18 c 4.14,-4.85 9,-9.36 15.12,-11.51 0.51,-0.18 1.08,-0.06 1.34,0.46 0.22,0.44 0.05,1.16 -0.46,1.34 -5.79,2.04 -10.42,6.25 -14.35,10.85 -0.83,0.97 -2.48,-0.16 -1.65,-1.14 z"
   class="st10" />
			<path
   style="fill:#651811"
   id="path92"
   d="m 63.44,142.38 c 1.44,-0.51 1.99,-2.18 2.39,-3.5 0.19,-0.62 1.14,-0.31 0.95,0.31 -0.44,1.46 -1.06,2.96 -2.34,3.78 0.38,0.26 0.81,0.44 1.27,0.5 0.27,0.04 0.49,0.23 0.48,0.52 -0.01,0.25 -0.25,0.51 -0.52,0.48 -0.96,-0.13 -1.82,-0.55 -2.48,-1.26 -0.28,-0.3 -0.09,-0.7 0.25,-0.83 z"
   class="st10" />
			<path
   style="fill:#651811"
   id="path94"
   d="m 58.53,136.48 c 0.12,-0.71 0.41,-1.55 1.02,-1.83 0.19,-0.09 0.4,-0.1 0.58,-0.05 0.01,0 0.02,-0.01 0.03,0 0.69,0.07 1,0.88 1.14,1.59 0.15,0.75 0.11,1.56 -0.1,2.29 -0.19,0.65 -0.58,1.33 -1.21,1.41 -0.63,0.08 -1.12,-0.5 -1.33,-1.14 -0.23,-0.72 -0.26,-1.51 -0.13,-2.27 z"
   class="st10" />
			<path
   style="fill:#651811"
   id="path96"
   d="m 73.06,138.93 c 0.12,-0.71 0.41,-1.55 1.02,-1.83 0.19,-0.09 0.4,-0.1 0.58,-0.05 0.01,0 0.02,-0.01 0.03,0 0.69,0.07 1,0.88 1.14,1.59 0.15,0.75 0.11,1.56 -0.1,2.29 -0.19,0.65 -0.58,1.33 -1.21,1.41 -0.63,0.08 -1.12,-0.5 -1.33,-1.14 -0.23,-0.72 -0.26,-1.51 -0.13,-2.27 z"
   class="st10" />
			<path
   style="fill:#651811"
   id="path98"
   d="m 50.61,142.55 c 0.44,-4.31 2.42,-8.51 1.77,-12.89 -0.19,-1.27 1.76,-1.72 1.95,-0.45 0.65,4.34 -1,8.34 -1.61,12.58 -0.59,4.08 0.51,7.88 3.53,10.76 6.67,6.38 16.92,3.59 23.28,-1.64 0.99,-0.82 2.35,0.65 1.35,1.47 -5.5,4.52 -12.75,7.22 -19.82,5.14 -6.58,-1.95 -11.15,-8.06 -10.45,-14.97 z"
   class="st10" />
			<path
   style="fill:#651811"
   id="path100"
   d="m 75.39,132.51 c 0.44,-0.06 0.89,-0.01 1.31,0.15 0.76,0.29 1.35,0.88 1.65,1.64 0.04,0.06 0.06,0.12 0.08,0.18 0.01,0.02 0.02,0.04 0.03,0.06 0.03,0.12 0,0.25 -0.07,0.36 -0.04,0.09 -0.09,0.17 -0.16,0.24 -0.14,0.14 -0.45,0.17 -0.61,0.03 -0.22,-0.19 -0.43,-0.38 -0.66,-0.55 -0.11,-0.08 -0.22,-0.16 -0.33,-0.23 -0.05,-0.03 -0.1,-0.06 -0.15,-0.09 -0.03,-0.02 -0.07,-0.04 -0.1,-0.06 -0.06,-0.03 -0.07,-0.04 -0.04,-0.02 -0.11,-0.06 -0.24,-0.11 -0.36,-0.15 -0.07,-0.02 -0.14,-0.04 -0.21,-0.06 -0.09,-0.03 0.01,0 -0.09,-0.02 -0.3,-0.05 -0.46,-0.05 -0.74,0.02 -0.34,0.08 -0.59,-0.22 -0.6,-0.53 0,-0.57 0.56,-0.91 1.05,-0.97 z"
   class="st10" />
			<path
   style="fill:#651811"
   id="path102"
   d="m 57.76,131.1 c 0.36,-0.26 0.78,-0.43 1.22,-0.49 0.81,-0.11 1.61,0.13 2.23,0.65 0.06,0.03 0.11,0.07 0.15,0.12 0.02,0.02 0.03,0.02 0.05,0.04 0.09,0.09 0.12,0.22 0.11,0.35 0.01,0.1 0,0.19 -0.03,0.28 -0.06,0.19 -0.31,0.37 -0.52,0.32 -0.28,-0.06 -0.56,-0.13 -0.84,-0.17 -0.13,-0.02 -0.26,-0.04 -0.4,-0.05 -0.06,0 -0.11,-0.01 -0.17,-0.01 -0.04,0 -0.08,0 -0.11,0 -0.06,0 -0.08,0 -0.04,0 -0.13,0 -0.26,0.02 -0.39,0.04 -0.07,0.01 -0.15,0.03 -0.22,0.05 -0.09,0.02 0.01,-0.01 -0.09,0.02 -0.29,0.1 -0.43,0.18 -0.64,0.37 -0.26,0.24 -0.63,0.09 -0.78,-0.18 -0.27,-0.48 0.07,-1.05 0.47,-1.34 z"
   class="st10" />
			<path
   style="fill:#651811"
   id="path104"
   d="m 66.8,111.16 c 0.54,-0.17 1.05,0.32 1.18,0.79 0.62,2.27 2.54,3.8 4.69,4.55 2.56,0.88 5.22,0.59 7.87,0.73 2.15,0.12 4.24,0.62 5.88,2.09 1.38,1.24 2.24,3.01 1.89,4.88 -0.24,1.25 -2.23,1.12 -1.99,-0.15 0.4,-2.12 -1.35,-3.8 -3.25,-4.41 -2.47,-0.79 -5.19,-0.31 -7.73,-0.56 -3.76,-0.37 -7.43,-2.16 -8.94,-5.67 -2.44,0.92 -5.24,2.67 -4.29,5.64 0.39,1.23 -1.57,1.6 -1.96,0.39 -1.43,-4.46 3.14,-7.14 6.65,-8.28 z"
   class="st10" />
			<path
   style="fill:#651811"
   id="path106"
   d="m 57.55,113.38 c 1.45,-1.33 3.38,-2.02 5.34,-2.03 0.54,0 0.96,0.56 0.92,1.07 -0.04,0.57 -0.53,0.92 -1.07,0.92 -1.36,0.01 -2.82,0.57 -3.89,1.55 -1.08,1 -1.73,2.42 -1.83,3.87 -0.04,0.54 -0.53,0.96 -1.07,0.92 -0.54,-0.04 -0.96,-0.53 -0.92,-1.07 0.15,-1.98 1.05,-3.88 2.52,-5.23 z"
   class="st10" />
			<path
   style="fill:#651811"
   id="path108"
   d="m 56.6,112.81 c 1.27,0.15 1.14,2.14 -0.15,1.99 -3.44,-0.4 -5.72,5.08 -4.58,7.79 1.2,2.88 4.87,4.17 7.6,5.01 6.61,2.03 13.87,1.53 20.17,-1.29 1.17,-0.53 2.06,1.27 0.88,1.8 -7.75,3.47 -17.01,3.71 -24.81,0.22 -3.3,-1.48 -6.5,-4.09 -6.14,-8.08 0.29,-3.38 3.18,-7.89 7.03,-7.44 z"
   class="st10" />
			<path
   style="fill:#651811"
   id="path110"
   d="m 82.47,126.73 c 0.42,-0.11 0.84,-0.23 1.25,-0.36 0.18,-0.06 0.35,-0.11 0.53,-0.17 0.04,-0.01 0.11,-0.04 0.13,-0.04 0.11,-0.04 0.22,-0.08 0.33,-0.12 0.79,-0.29 1.56,-0.61 2.32,-0.96 0.47,-0.22 1.12,-0.04 1.34,0.46 0.21,0.49 0.05,1.1 -0.46,1.34 -1.62,0.76 -3.31,1.37 -5.04,1.82 -0.51,0.13 -1.1,-0.27 -1.18,-0.79 -0.1,-0.56 0.23,-1.04 0.78,-1.18 z"
   class="st10" />
			<g
   id="g118">
				<path
   style="fill:#651811"
   id="path112"
   d="m 81.22,146.59 c 0.32,-0.46 0.93,-0.54 1.39,-0.26 1,0.62 1.35,0.56 2.15,0.15 0.98,-0.51 1.69,-1.65 1.82,-2.68 0.12,-1.03 -0.24,-2.04 -0.95,-2.63 -0.76,-0.63 -1.89,-0.78 -2.67,-0.23 -0.44,0.31 -1.03,0.34 -1.41,-0.1 -0.32,-0.38 -0.34,-1.1 0.1,-1.41 1.15,-0.8 2.6,-1.04 3.94,-0.55 1.22,0.44 2.21,1.47 2.67,2.67 1.02,2.7 -0.42,6.17 -3.28,6.97 -1.5,0.42 -2.1,0.33 -3.5,-0.53 -0.46,-0.29 -0.56,-0.97 -0.26,-1.4 z"
   class="st10" />
				<path
   style="fill:#651811"
   id="path114"
   d="m 83.51,141.68 c 0.17,-0.23 0.46,-0.27 0.7,-0.13 0.73,0.45 1.25,1.25 1.36,2.1 0.03,0.26 -0.11,0.55 -0.39,0.59 -0.25,0.04 -0.55,-0.12 -0.59,-0.39 -0.02,-0.14 -0.05,-0.27 -0.09,-0.41 -0.04,-0.11 -0.08,-0.22 -0.14,-0.32 -0.02,-0.03 -0.03,-0.06 -0.05,-0.09 -0.01,-0.01 -0.02,-0.04 -0.03,-0.05 -0.01,-0.01 -0.02,-0.02 -0.02,-0.03 -0.02,-0.03 -0.04,-0.06 -0.07,-0.09 -0.04,-0.05 -0.09,-0.1 -0.13,-0.15 -0.02,-0.02 -0.05,-0.05 -0.07,-0.07 0,0 -0.01,-0.01 -0.01,-0.01 -0.02,-0.01 -0.05,-0.04 -0.06,-0.05 -0.03,-0.02 -0.06,-0.05 -0.09,-0.07 -0.06,-0.04 -0.12,-0.08 -0.18,-0.12 -0.24,-0.15 -0.3,-0.5 -0.14,-0.71 z"
   class="st10" />
				<path
   style="fill:#651811"
   id="path116"
   d="m 83.41,143.21 c 0.03,-0.08 0.08,-0.15 0.14,-0.21 0.15,-0.13 0.3,-0.26 0.45,-0.39 0.05,-0.05 0.1,-0.08 0.17,-0.09 0.06,-0.03 0.13,-0.04 0.2,-0.03 0.07,0 0.13,0.02 0.19,0.06 0.06,0.02 0.11,0.06 0.15,0.11 0.02,0.04 0.05,0.07 0.07,0.11 0.04,0.08 0.06,0.17 0.05,0.26 -0.01,0.04 -0.02,0.09 -0.03,0.13 -0.03,0.08 -0.08,0.15 -0.14,0.21 -0.15,0.13 -0.3,0.26 -0.45,0.39 -0.05,0.05 -0.1,0.08 -0.17,0.09 -0.06,0.03 -0.13,0.04 -0.2,0.03 -0.07,0 -0.13,-0.02 -0.19,-0.06 -0.06,-0.02 -0.11,-0.06 -0.15,-0.11 -0.02,-0.04 -0.05,-0.07 -0.07,-0.11 -0.04,-0.08 -0.06,-0.17 -0.05,-0.26 0.02,-0.04 0.02,-0.08 0.03,-0.13 z"
   class="st10" />
			</g>
			<path
   style="fill:#651811"
   id="path120"
   d="m 88.34,141.49 c -0.01,-0.05 -0.01,-0.1 -0.03,-0.16 -0.05,-0.22 -0.13,-0.44 -0.22,-0.65 -0.09,-0.2 -0.23,-0.39 -0.35,-0.57 -0.07,-0.1 -0.17,-0.2 -0.27,-0.28 0.68,-0.57 0.95,-1.98 1.14,-2.74 0.28,-1.17 0.37,-2.41 0.27,-3.61 -0.05,-0.61 0.45,-1.11 0.96,-1.18 0.1,-1.92 -0.28,-3.84 -1.12,-5.59 -0.56,-1.16 1.24,-2.04 1.8,-0.88 1.38,2.89 1.67,6.11 0.9,9.22 -0.08,0.31 -0.31,0.51 -0.58,0.59 -0.07,0.8 -0.2,1.59 -0.41,2.38 -0.36,1.37 -0.88,2.81 -2.08,3.62 0,-0.05 0,-0.1 -0.01,-0.15 z"
   class="st10" />
			<path
   style="fill:#651811"
   id="path122"
   d="m 82.69,129.25 c 0.58,0.04 0.92,0.53 0.92,1.07 0.02,3.13 -0.08,6.26 -0.31,9.39 -0.09,1.28 -2.09,1.14 -1.99,-0.15 0.23,-3.12 0.33,-6.26 0.31,-9.39 -0.01,-0.54 0.56,-0.96 1.07,-0.92 z"
   class="st10" />
			<path
   style="fill:#651811"
   id="path124"
   d="m 78.86,151.38 c 0.36,-0.28 0.7,-0.57 1.02,-0.9 0.07,-0.08 0.15,-0.15 0.22,-0.23 0.04,-0.05 0.08,-0.09 0.12,-0.14 0.15,-0.17 0.29,-0.35 0.42,-0.54 0.26,-0.36 0.48,-0.74 0.7,-1.13 0,0 0,0 0,0 0,0 0,0 0,0 0.02,-0.05 0.04,-0.09 0.07,-0.14 0.05,-0.1 0.1,-0.21 0.14,-0.31 0.09,-0.22 0.18,-0.44 0.26,-0.67 0.17,-0.49 0.78,-0.81 1.28,-0.61 0.51,0.21 0.79,0.75 0.61,1.28 -0.66,1.93 -1.9,3.66 -3.52,4.9 -0.42,0.32 -1.06,0.34 -1.41,-0.1 -0.34,-0.4 -0.36,-1.07 0.09,-1.41 z"
   class="st10" />
			<path
   style="fill:#651811"
   id="path126"
   d="m 78.44,153.36 c -0.13,0.03 0.17,-0.04 0.16,-0.04 0.09,-0.02 0.17,-0.04 0.26,-0.07 0.19,-0.05 0.38,-0.11 0.56,-0.18 0.19,-0.07 0.37,-0.14 0.55,-0.21 0.08,-0.03 0.16,-0.07 0.25,-0.11 -0.01,0 0.13,-0.06 0.17,-0.08 0.68,-0.34 1.32,-0.78 1.9,-1.27 0.42,-0.37 1.02,-1.04 1.43,-1.6 0.12,-0.16 0.37,-0.58 0.53,-0.88 0.18,-0.35 0.34,-0.71 0.48,-1.08 0.19,-0.51 0.89,-0.67 1.34,-0.45 0.52,0.26 0.64,0.83 0.45,1.34 -1.29,3.42 -4.39,5.9 -7.93,6.62 -0.53,0.11 -1.04,-0.43 -1.07,-0.92 -0.05,-0.59 0.39,-0.96 0.92,-1.07 z"
   class="st10" />
			<path
   style="fill:#651811"
   id="path128"
   d="m 89.03,124.76 c 0.13,-0.24 0.32,-0.39 0.57,-0.5 0.87,-0.38 1.77,-0.64 2.7,-0.81 0.24,-0.04 0.56,0.09 0.74,0.25 0.18,0.16 0.33,0.43 0.34,0.68 0.01,0.26 -0.06,0.54 -0.25,0.74 -0.06,0.06 -0.13,0.11 -0.19,0.17 -0.15,0.1 -0.31,0.15 -0.48,0.17 -0.01,0 -0.02,0 -0.02,0 -0.74,0.16 -1.47,0.39 -2.17,0.7 -0.23,0.1 -0.56,0.06 -0.78,-0.05 -0.22,-0.11 -0.43,-0.33 -0.5,-0.57 -0.09,-0.25 -0.09,-0.54 0.04,-0.78 z"
   class="st10" />
			<path
   style="fill:#651811"
   id="path130"
   d="m 88.54,123.26 c 0.17,-0.12 0.33,-0.24 0.48,-0.38 0.32,-0.29 0.61,-0.62 0.87,-0.97 0.14,-0.19 0.45,-0.32 0.68,-0.34 0.25,-0.02 0.55,0.07 0.74,0.25 0.18,0.18 0.33,0.41 0.34,0.68 l -0.02,0.27 c -0.04,0.18 -0.11,0.33 -0.23,0.47 -0.47,0.65 -1.07,1.22 -1.74,1.68 -0.21,0.14 -0.5,0.2 -0.75,0.15 -0.24,-0.05 -0.51,-0.21 -0.64,-0.42 -0.13,-0.22 -0.21,-0.49 -0.15,-0.75 0.06,-0.26 0.19,-0.48 0.42,-0.64 z"
   class="st10" />
			<path
   style="fill:#651811"
   id="path132"
   d="m 87,123.98 c 0.07,-0.18 0.13,-0.36 0.2,-0.54 0.25,-0.75 0.45,-1.51 0.6,-2.28 0.1,-0.51 0.65,-0.92 1.17,-0.79 0.53,0.13 0.89,0.62 0.79,1.17 -0.22,1.14 -0.55,2.25 -0.97,3.33 -0.09,0.22 -0.35,0.42 -0.57,0.5 -0.23,0.08 -0.55,0.07 -0.78,-0.05 -0.22,-0.12 -0.42,-0.32 -0.5,-0.57 -0.07,-0.26 -0.05,-0.5 0.06,-0.77 z"
   class="st10" />
			<path
   style="fill:#651811"
   id="path134"
   d="m 63.61,146.01 c 0.96,0.85 2.15,1.41 3.44,1.55 0.58,0.07 1.2,0.01 1.73,-0.26 0.57,-0.3 1.04,-0.79 1.51,-1.22 0.2,-0.18 0.49,-0.23 0.71,-0.04 0.19,0.16 0.24,0.52 0.04,0.71 -0.55,0.5 -1.1,1.06 -1.76,1.42 -0.68,0.36 -1.42,0.46 -2.18,0.41 -1.53,-0.11 -3,-0.8 -4.15,-1.81 -0.48,-0.44 0.18,-1.19 0.66,-0.76 z"
   class="st10" />
		</g>
		<path
   style="fill:none;stroke:#651811;stroke-width:2;stroke-linecap:round;stroke-linejoin:round;stroke-miterlimit:10"
   id="path138"
   d="m 98.48,175.34 c -7.04,6.67 -16.34,11.03 -26.77,11.74 -23.83,1.64 -44.48,-16.35 -46.12,-40.18 -1.64,-23.83 16.35,-44.48 40.18,-46.12 23.83,-1.64 44.48,16.35 46.12,40.18 0.85,12.3 -3.83,24.16 -11.55,32.59"
   class="st68" />
	</g>
	<g
   id="g152">
		<path
   style="fill:#651811"
   id="path142"
   d="m 243.17,49.47 c -4.7,-2.65 -9.55,2.35 -11.22,6.38 -1,2.41 -1.26,5.03 -0.77,7.59 0.24,1.26 2.17,0.73 1.93,-0.53 -0.45,-2.36 -0.07,-4.86 1,-7 1.05,-2.1 2.87,-4.25 5.18,-4.97 2.67,-0.84 4.72,1.45 5.76,3.64 1.09,2.31 1.31,4.95 1.44,7.46 0.07,1.28 2.07,1.29 2,0 -0.25,-4.45 -1,-10.14 -5.32,-12.57 z"
   class="st10" />
		<path
   style="fill:#651811"
   id="path144"
   d="m 243.5,59.39 c -0.25,-1.18 -0.75,-2.46 -1.61,-3.33 -0.96,-0.97 -2.38,-1.18 -3.56,-0.47 -1.14,0.69 -1.69,1.97 -2.04,3.21 -0.41,1.46 -0.56,3.02 -0.42,4.53 0.05,0.54 0.43,1 1,1 0.5,0 1.05,-0.46 1,-1 -0.12,-1.33 -0.02,-2.65 0.33,-3.93 0.17,-0.62 0.33,-1.14 0.69,-1.65 0.11,-0.15 0.31,-0.35 0.45,-0.43 0.05,-0.03 0.11,-0.06 0.17,-0.09 0.01,0 0.04,-0.01 0.1,-0.03 0.05,-0.02 0.11,-0.03 0.16,-0.04 0,0 0.02,0 0.05,0 0.05,0 0.11,0 0.16,0 -0.09,-0.01 -0.07,0 0.05,0.02 0.04,0.01 0.05,0.02 0.07,0.02 0.06,0.03 0.11,0.06 0.16,0.09 0.03,0.02 0.04,0.03 0.06,0.04 0.05,0.04 0.1,0.09 0.15,0.14 0.05,0.05 0.1,0.1 0.15,0.16 0.08,0.09 0.09,0.11 0.04,0.06 0.34,0.47 0.55,0.97 0.72,1.51 0.36,1.16 0.43,2.41 0.18,3.57 -0.11,0.53 0.16,1.08 0.7,1.23 0.5,0.14 1.12,-0.17 1.23,-0.7 0.28,-1.3 0.28,-2.61 0.01,-3.91 z"
   class="st10" />
		<path
   style="fill:#651811"
   id="path146"
   d="m 251.34,62.03 c -7.41,1.1 -14.9,1.51 -22.39,1.25 -1.29,-0.04 -1.29,1.96 0,2 7.67,0.26 15.33,-0.19 22.92,-1.33 1.27,-0.18 0.73,-2.11 -0.53,-1.92 z"
   class="st10" />
		<path
   style="fill:#651811"
   id="path148"
   d="m 252.58,63.92 c 0.14,-1.28 -1.87,-1.27 -2,0 -0.44,4.13 0.4,8.43 -0.8,12.46 -0.49,1.63 -1.31,3.23 -2.65,4.32 -1.64,1.34 -3.89,1.68 -5.95,1.75 -3.89,0.12 -7.7,-1.16 -9.79,-4.62 -2.28,-3.77 -2.13,-8.35 -2,-12.59 0.04,-1.29 -1.96,-1.29 -2,0 -0.12,3.87 -0.2,7.89 1.27,11.55 1.28,3.18 3.59,5.65 6.83,6.84 3.12,1.14 7.04,1.19 10.18,0.1 3.14,-1.09 5.12,-3.7 6.04,-6.81 1.25,-4.23 0.42,-8.68 0.87,-13 z"
   class="st10" />
		<path
   style="fill:#651811"
   id="path150"
   d="m 243.24,75.74 c -0.22,-0.88 -0.69,-1.7 -1.35,-2.33 l 0.22,-0.5 c 0.21,-0.48 0.43,-0.94 0.47,-1.48 0.05,-0.6 -0.24,-1.15 -0.72,-1.5 -0.43,-0.32 -0.97,-0.38 -1.49,-0.3 -0.88,0.13 -1.67,0.89 -1.85,1.76 -0.2,0.96 0.25,1.89 1.04,2.39 -0.31,0.71 -0.61,1.41 -0.92,2.12 -0.17,0.38 -0.19,0.76 0.08,1.11 0.27,0.34 0.64,0.42 1.05,0.36 l 2.78,-0.39 c 0.54,-0.08 0.81,-0.77 0.69,-1.24 z"
   class="st10" />
	</g>
	<g
   id="g162">
		<path
   style="fill:#651811"
   id="path154"
   d="m 184.33,139.8 c 1.16,5.15 0.83,9.69 -1.74,14.77 -5.88,11.6 -21.62,15.45 -33.22,9.57 -11.6,-5.88 -15.64,-18.81 -9.76,-30.41 5.88,-11.6 21.81,-16.02 33.41,-10.14 5.99,3.04 9.21,8.87 11,14.84"
   class="st10" />
		<path
   style="fill:#ffffff"
   id="path156"
   d="m 159.06,136.68 c -0.25,4.69 -0.49,9.39 -0.74,14.08 -0.1,1.93 2.9,1.92 3,0 0.25,-4.69 0.49,-9.39 0.74,-14.08 0.1,-1.93 -2.9,-1.92 -3,0 z"
   class="st4" />
		<path
   style="fill:#ffffff"
   id="path158"
   d="m 154.22,134.38 c -0.71,-0.19 -1.73,0.24 -1.85,1.05 -0.38,2.59 -0.92,5.16 -1.63,7.68 -0.36,1.26 -0.75,2.51 -1.19,3.74 -0.18,0.49 -0.36,0.99 -0.55,1.47 -0.13,-0.36 -0.24,-0.73 -0.35,-1.09 -0.34,-1.17 -0.66,-2.34 -0.98,-3.51 -0.65,-2.34 -1.29,-4.68 -1.92,-7.02 -0.5,-1.86 -3.4,-1.07 -2.89,0.8 0.8,2.96 1.61,5.92 2.44,8.88 0.53,1.89 1.62,7.38 4.71,5.73 1.22,-0.65 1.6,-2.2 2.06,-3.4 0.5,-1.31 0.94,-2.64 1.34,-3.99 0.83,-2.78 1.45,-5.62 1.86,-8.49 0.12,-0.81 -0.2,-1.62 -1.05,-1.85 z"
   class="st4" />
		<path
   style="fill:#ffffff"
   id="path160"
   d="m 177.2,149.33 c -2.6,0.02 -5.21,0.03 -7.8,-0.08 2.97,-3.61 5.72,-7.39 8.2,-11.36 0.66,-1.06 -0.23,-2.14 -1.3,-2.26 -2.94,-0.34 -5.9,-0.48 -8.86,-0.44 -1.93,0.03 -1.93,3.03 0,3 2.09,-0.03 4.17,0.04 6.25,0.2 -2.56,3.88 -5.35,7.6 -8.41,11.11 -0.89,1.02 -0.26,2.45 1.06,2.56 3.61,0.31 7.23,0.29 10.85,0.26 1.94,-0.01 1.94,-3.01 0.01,-2.99 z"
   class="st4" />
	</g>
	
	<g
   id="g356">
		<path
   style="fill:#ffdb83"
   id="path338"
   d="m 109.05,57.81 c 2.27,-3.22 2.82,-7.83 -0.41,-10.67 -1.54,-1.35 -3.62,-2.07 -5.66,-1.64 -1.12,0.24 -2.03,0.83 -2.81,1.58 -1.05,-1.33 -2.35,-2.47 -4.15,-2.5 -1.33,-0.02 -2.41,0.65 -3.07,1.65 -0.55,-0.03 -1.11,0.19 -1.37,0.72 -1.07,2.13 -1.59,4.52 -1.39,6.9 -1.04,0.85 -1.89,1.75 -1.93,3.33 -0.03,1.05 0.98,1.62 1.9,1.45 1.65,-0.3 3.25,-0.9 4.68,-1.79 1.08,-0.68 2.55,-2.46 3.92,-2.39 1.13,0.06 1.3,1.64 1.14,2.48 -0.32,1.59 -1.34,3.02 -2.01,4.48 -0.67,1.46 -1.47,3.24 -0.14,4.6 1.15,1.19 3.42,1.29 4.96,1.45 1.83,0.18 3.66,0.09 5.48,-0.21 1.44,-0.23 3.06,-0.57 4.06,-1.72 2.23,-2.6 -0.74,-5.83 -3.2,-7.72 z"
   class="st26" />
		<g
   id="g352">
			<path
   style="fill:#651811"
   id="path340"
   d="m 111.12,47.92 c -0.84,-0.98 -2.34,0.34 -1.51,1.32 1.22,1.43 0.9,4.64 -0.17,6.12 -1.21,1.68 -3.48,2.29 -5.46,2.07 -2.09,-0.23 -3.97,-1.48 -4.44,-3.6 -0.4,-1.79 0.14,-3.73 1.47,-5 1.61,-1.53 4.05,-2.11 6.21,-1.66 0.53,0.11 1.08,-0.06 1.27,-0.61 0.16,-0.46 -0.08,-1.16 -0.61,-1.27 -2.68,-0.56 -5.54,-0.09 -7.72,1.64 -2.05,1.62 -3.03,4.25 -2.67,6.82 0.84,6.04 9.28,7.54 13.1,3.35 2.03,-2.24 2.53,-6.84 0.53,-9.18 z"
   class="st10" />
			<path
   style="fill:#651811"
   id="path342"
   d="m 113.24,62.11 c -0.84,-1.89 -2.41,-3.37 -4.32,-4.15 -1.19,-0.49 -1.85,1.41 -0.66,1.89 1.48,0.6 2.61,1.79 3.24,3.25 0.29,0.67 0.45,1.42 0.44,2.15 0,0.57 -0.06,0.55 -0.61,0.63 -0.57,0.09 -1.13,0.17 -1.7,0.23 -3.98,0.48 -8.01,0.42 -11.99,-0.07 0.11,-1.37 0.44,-2.7 1.04,-3.96 0.6,-1.26 1.53,-2.86 3.01,-3.14 1.26,-0.24 0.87,-2.2 -0.4,-1.96 -1.95,0.37 -3.25,2.04 -4.13,3.7 -1.01,1.91 -1.55,4.02 -1.56,6.18 0,0.57 0.37,0.99 0.93,1.06 2.68,0.38 5.39,0.56 8.1,0.51 1.34,-0.02 2.68,-0.1 4.01,-0.22 1.26,-0.12 2.86,-0.11 4.04,-0.6 2.03,-0.82 1.24,-3.97 0.56,-5.5 z"
   class="st10" />
			<g
   id="g348">
				<path
   style="fill:#651811"
   id="path344"
   d="m 100.81,46.68 c -0.42,-0.65 -1.01,-1.16 -1.77,-1.39 -0.75,-0.22 -1.56,-0.19 -2.27,0.16 -0.7,0.35 -1.24,0.96 -1.54,1.69 -0.31,0.74 -0.25,1.56 0.04,2.29 0.31,0.8 1,1.43 1.79,1.73 0.49,0.19 1.12,-0.11 1.27,-0.61 0.16,-0.54 -0.09,-1.07 -0.61,-1.27 -0.02,-0.01 -0.04,-0.02 -0.06,-0.02 -0.05,-0.04 -0.12,-0.07 -0.17,-0.1 -0.02,-0.01 -0.04,-0.03 -0.06,-0.04 -0.04,-0.05 -0.1,-0.1 -0.13,-0.14 -0.03,-0.04 -0.07,-0.08 -0.1,-0.13 -0.02,-0.03 -0.03,-0.06 -0.05,-0.09 -0.03,-0.05 -0.05,-0.1 -0.07,-0.16 0,-0.01 -0.01,-0.01 -0.01,-0.02 0,-0.01 0,0 0,-0.01 -0.02,-0.08 -0.04,-0.15 -0.05,-0.23 0,-0.01 0,-0.03 -0.01,-0.04 0,-0.07 0,-0.14 0.01,-0.21 0,-0.01 0,-0.02 0,-0.03 0.03,-0.1 0.09,-0.21 0.12,-0.32 0.01,-0.02 0.03,-0.05 0.04,-0.07 0.04,-0.06 0.08,-0.11 0.12,-0.16 0.01,-0.01 0.03,-0.03 0.04,-0.04 0.06,-0.05 0.12,-0.1 0.18,-0.15 0,0 0,0 0,0 0,0 0,0 0,0 0.06,-0.03 0.12,-0.07 0.18,-0.09 0.02,-0.01 0.04,-0.02 0.06,-0.02 0.06,-0.02 0.12,-0.03 0.19,-0.04 0.02,0 0.04,-0.01 0.06,-0.01 0.06,0 0.13,0 0.18,0.01 0.07,0.01 0.15,0.03 0.22,0.03 -0.03,0 -0.04,0 -0.07,0 0.01,0 0.01,0 0.02,0 0.07,0.02 0.14,0.05 0.21,0.08 0.01,0.01 0.03,0.01 0.04,0.02 0.06,0.04 0.12,0.07 0.18,0.11 0.02,0.01 0.04,0.03 0.06,0.04 0.04,0.04 0.09,0.09 0.13,0.13 0.05,0.05 0.2,0.28 0.03,0.01 0.15,0.23 0.3,0.41 0.57,0.5 0.23,0.08 0.55,0.07 0.78,-0.05 0.43,-0.26 0.76,-0.9 0.45,-1.36 z"
   class="st10" />
				<path
   style="fill:#651811"
   id="path346"
   d="m 98.36,47.17 c -0.08,-0.02 -0.13,-0.01 0,0 z"
   class="st10" />
			</g>
			<path
   style="fill:#651811"
   id="path350"
   d="m 98.43,52.65 c -0.14,-1.28 -2.1,-0.87 -1.96,0.4 0.19,1.78 -1.2,3.36 -2.73,4.05 -1.34,0.6 -2.84,0.62 -4.3,0.4 1.7,-2.05 1.68,-5.22 2.03,-7.82 0.21,-1.53 0.71,-3.2 2.11,-4.04 1.24,-0.75 2.72,-0.78 4.01,-0.16 0.49,0.24 1.11,-0.15 1.27,-0.61 0.2,-0.56 -0.13,-1.04 -0.61,-1.27 -3.18,-1.55 -6.91,0.2 -8.17,3.38 -0.75,1.9 -0.68,3.97 -0.95,5.96 -0.22,1.64 -0.81,3.44 -2.43,4.18 -0.76,0.35 -0.71,1.6 0.12,1.84 2.63,0.76 5.66,1.11 8.17,-0.24 2.23,-1.21 3.71,-3.51 3.44,-6.07 z"
   class="st10" />
		</g>
		<path
   style="fill:#651811"
   id="path354"
   d="m 107.14,46.33 c -0.57,-0.16 -1.02,0.2 -1.23,0.7 -0.24,0.58 -0.7,1.4 -1.13,2.02 -0.4,0.56 -0.97,1.2 -1.55,1.73 -1.13,1.03 -2.55,1.83 -4.01,2.27 -0.52,0.16 -0.84,0.7 -0.7,1.23 0.14,0.51 0.71,0.85 1.23,0.7 3.68,-1.11 6.64,-3.87 8.09,-7.41 0.21,-0.51 -0.22,-1.11 -0.7,-1.24 z"
   class="st10" />
	</g>
	<g
   id="g372">
		<path
   style="fill:#ffdb83"
   id="path358"
   d="m 162.81,48.65 c -0.97,-1.06 -1.95,-2.12 -2.92,-3.17 -0.49,-0.53 -0.96,-1.11 -1.48,-1.61 -0.09,-0.08 -0.18,-0.15 -0.28,-0.23 0.79,-0.35 1.48,-0.91 1.86,-1.62 0.12,-0.23 0.21,-0.46 0.29,-0.69 0.8,-0.69 1.43,-1.54 1.7,-2.6 0.49,-1.94 -0.4,-3.98 -2.11,-4.97 -0.06,-0.03 -0.12,-0.06 -0.18,-0.09 -1.53,-2.68 -5.23,-3.26 -7.75,-1.31 -2.45,1.89 -2.88,5.41 -2.22,8.24 0.4,1.72 2.01,2.73 3.66,2.91 -1.69,1.2 -3.11,2.59 -4.34,4.26 -0.52,0.7 -0.97,1.45 -1.36,2.24 -0.33,0.67 -0.69,1.35 -0.71,2.11 -0.01,0.38 0.07,0.74 0.2,1.09 0,0 0,0 0,0 3.27,0.06 6.5,0.71 9.77,0.58 1.59,-0.31 3.18,-0.63 4.76,-0.95 1.94,-0.4 2.3,-2.9 1.11,-4.19 z"
   class="st26" />
		<g
   id="g368">
			<path
   style="fill:#651811"
   id="path360"
   d="m 161.72,33.92 c -0.84,-0.98 -2.34,0.34 -1.51,1.32 1.22,1.43 0.9,4.64 -0.17,6.12 -1.21,1.68 -3.48,2.29 -5.46,2.07 -2.09,-0.23 -3.97,-1.48 -4.44,-3.6 -0.4,-1.79 0.14,-3.73 1.47,-5 1.61,-1.53 4.05,-2.11 6.21,-1.66 0.53,0.11 1.08,-0.06 1.27,-0.61 0.16,-0.46 -0.08,-1.16 -0.61,-1.27 -2.68,-0.56 -5.54,-0.09 -7.72,1.64 -2.05,1.62 -3.03,4.25 -2.67,6.82 0.84,6.04 9.28,7.54 13.1,3.35 2.03,-2.24 2.53,-6.85 0.53,-9.18 z"
   class="st10" />
			<path
   style="fill:#651811"
   id="path362"
   d="m 163.84,48.1 c -0.84,-1.89 -2.41,-3.37 -4.32,-4.15 -1.19,-0.49 -1.85,1.41 -0.66,1.89 1.48,0.6 2.61,1.79 3.24,3.25 0.29,0.67 0.45,1.42 0.44,2.15 0,0.57 -0.06,0.55 -0.61,0.63 -0.57,0.09 -1.13,0.17 -1.7,0.23 -3.98,0.48 -8.01,0.42 -11.99,-0.07 0.11,-1.37 0.44,-2.7 1.04,-3.96 0.6,-1.26 1.53,-2.86 3.01,-3.14 1.26,-0.24 0.87,-2.2 -0.4,-1.96 -1.95,0.37 -3.25,2.04 -4.13,3.7 -1.01,1.91 -1.55,4.02 -1.56,6.18 0,0.57 0.37,0.99 0.93,1.06 2.68,0.38 5.39,0.56 8.1,0.51 1.34,-0.02 2.68,-0.1 4.01,-0.22 1.26,-0.12 2.86,-0.11 4.04,-0.6 2.03,-0.82 1.24,-3.96 0.56,-5.5 z"
   class="st10" />
			<g
   id="g366">
				<path
   style="fill:#651811"
   id="path364"
   d="m 151.4,33.64 c -0.08,-0.02 -0.13,-0.01 0,0 z"
   class="st10" />
			</g>
		</g>
		<path
   style="fill:#651811"
   id="path370"
   d="m 161.43,34.8 c -0.15,-0.55 -0.7,-0.81 -1.23,-0.7 -2.49,0.5 -5.04,0.59 -7.57,0.3 -0.54,-0.06 -0.99,0.51 -1,1 -0.04,2.49 -0.55,4.93 -1.46,7.25 -0.2,0.5 0.22,1.1 0.7,1.23 0.57,0.16 1.03,-0.19 1.23,-0.7 0.85,-2.14 1.32,-4.41 1.47,-6.71 2.4,0.18 4.8,0.03 7.16,-0.44 0.53,-0.11 0.84,-0.74 0.7,-1.23 z"
   class="st10" />
	</g>
	<path
   style="fill:#651811"
   id="path374"
   d="m 264.81,63.41 c -0.84,-9.76 -13.12,-20.07 -23,-18.96 -1.28,0.14 -0.94,2.12 0.33,1.97 7.91,-0.89 18.52,7.3 20.31,14.88 1.9,8.05 -1.94,17.33 -8.63,21.78 -7.57,5.03 -17.75,4.73 -25.79,1.02 -4.15,-1.92 -7.7,-4.79 -9.54,-9.05 -1.57,-3.62 -1.85,-7.77 -1,-11.6 2.09,-9.45 11.14,-15.56 20.29,-16.89 1.27,-0.19 0.94,-2.16 -0.33,-1.97 -8.99,1.31 -17.84,6.9 -21.09,15.68 -3.23,8.73 -0.46,18.83 7.53,23.86 8.39,5.29 19.79,6.51 28.76,1.94 7.95,-4.06 12.94,-13.65 12.16,-22.66 z"
   class="st10" />
	<g
   id="g386">
		<g
   id="g382">
			<path
   style="fill:#651811"
   id="path376"
   d="m 220.4,141.05 c -0.08,0.16 -0.11,0.33 -0.11,0.51 -0.21,0.13 -0.38,0.33 -0.46,0.58 -0.57,1.84 -0.35,4.02 1.02,5.47 1.29,1.36 3.47,1.83 5.1,0.81 1.63,-1.02 2.71,-3.02 2.61,-4.95 -0.1,-1.86 -1.24,-3.57 -2.98,-4.28 -1.87,-0.76 -4.24,0.05 -5.18,1.86 z m 4.19,-0.09 c 0.52,0.13 0.9,0.39 1.29,0.83 0.33,0.38 0.57,0.88 0.67,1.47 0.08,0.49 -0.01,1.16 -0.24,1.74 -0.21,0.54 -0.6,1.07 -1.06,1.47 -0.49,0.43 -0.87,0.51 -1.41,0.52 -0.03,0 -0.05,0 -0.07,0 -0.07,-0.01 -0.14,-0.02 -0.2,-0.04 -0.14,-0.03 -0.27,-0.07 -0.4,-0.12 -0.03,-0.01 -0.08,-0.03 -0.08,-0.03 -0.08,-0.04 -0.16,-0.08 -0.24,-0.13 -0.06,-0.04 -0.13,-0.08 -0.19,-0.12 -0.02,-0.01 -0.1,-0.07 -0.12,-0.09 -1.07,-0.9 -1.19,-2.44 -0.77,-3.78 0.03,-0.09 0.02,-0.18 0.02,-0.28 0.14,-0.08 0.27,-0.19 0.34,-0.34 0.47,-0.91 1.53,-1.34 2.46,-1.1 z"
   class="st10" />
			<path
   style="fill:#651811"
   id="path378"
   d="m 252.22,141.05 c -0.08,0.16 -0.11,0.33 -0.11,0.51 -0.21,0.13 -0.38,0.33 -0.46,0.58 -0.57,1.84 -0.35,4.02 1.02,5.47 1.29,1.36 3.47,1.83 5.1,0.81 1.63,-1.02 2.71,-3.02 2.61,-4.95 -0.1,-1.86 -1.24,-3.57 -2.98,-4.28 -1.88,-0.76 -4.24,0.05 -5.18,1.86 z m 4.18,-0.09 c 0.52,0.13 0.9,0.39 1.29,0.83 0.33,0.38 0.57,0.88 0.67,1.47 0.08,0.49 -0.01,1.16 -0.24,1.74 -0.21,0.54 -0.6,1.07 -1.06,1.47 -0.49,0.43 -0.87,0.51 -1.41,0.52 -0.03,0 -0.05,0 -0.07,0 -0.07,-0.01 -0.14,-0.02 -0.2,-0.04 -0.14,-0.03 -0.27,-0.07 -0.4,-0.12 -0.03,-0.01 -0.08,-0.03 -0.08,-0.03 -0.08,-0.04 -0.16,-0.08 -0.24,-0.13 -0.06,-0.04 -0.13,-0.08 -0.19,-0.12 -0.02,-0.01 -0.1,-0.07 -0.12,-0.09 -1.07,-0.9 -1.19,-2.44 -0.77,-3.78 0.03,-0.09 0.02,-0.18 0.02,-0.28 0.14,-0.08 0.27,-0.19 0.34,-0.34 0.47,-0.91 1.54,-1.34 2.46,-1.1 z"
   class="st10" />
			<path
   style="fill:#651811"
   id="path380"
   d="m 241.34,140.64 c 0.94,0.76 1.9,1.47 2.89,2.15 -4.36,0.26 -12.27,0.42 -16.64,0.28 -1.29,-0.04 -1.29,1.96 0,2 4.27,0.13 12.07,-0.02 16.33,-0.26 -0.83,0.73 -1.63,1.51 -2.39,2.32 -0.73,0.79 0.24,2.26 1.21,1.57 1.86,-1.32 3.73,-2.65 5.59,-3.97 0.59,-0.42 0.7,-1.33 0,-1.73 -1.96,-1.12 -3.82,-2.37 -5.58,-3.79 -0.99,-0.78 -2.41,0.62 -1.41,1.43 z"
   class="st10" />
		</g>
		<path
   style="fill:#651811"
   id="path384"
   d="m 264.81,140.73 c -0.84,-9.76 -13.12,-20.07 -23,-18.96 -1.28,0.14 -0.94,2.12 0.33,1.97 7.91,-0.89 18.52,7.3 20.31,14.88 1.9,8.05 -1.94,17.33 -8.63,21.78 -7.57,5.03 -17.75,4.73 -25.79,1.02 -4.15,-1.92 -7.7,-4.79 -9.54,-9.05 -1.57,-3.62 -1.85,-7.77 -1,-11.6 2.09,-9.45 11.14,-15.56 20.29,-16.89 1.27,-0.19 0.94,-2.16 -0.33,-1.97 -8.99,1.31 -17.84,6.9 -21.09,15.68 -3.23,8.73 -0.46,18.83 7.53,23.86 8.39,5.29 19.79,6.51 28.76,1.94 7.95,-4.06 12.94,-13.65 12.16,-22.66 z"
   class="st10" />
	</g>
	
	
	<g
   id="g552">
		<path
   style="fill:#651811"
   id="path540"
   d="m 264.81,216.86 c -0.84,-9.76 -13.12,-20.07 -23,-18.96 -1.28,0.14 -0.94,2.12 0.33,1.97 7.91,-0.89 18.52,7.3 20.31,14.88 1.9,8.05 -1.94,17.33 -8.63,21.78 -7.57,5.03 -17.75,4.73 -25.79,1.02 -4.15,-1.92 -7.7,-4.79 -9.54,-9.05 -1.57,-3.62 -1.85,-7.77 -1,-11.6 2.09,-9.45 11.14,-15.56 20.29,-16.89 1.27,-0.19 0.94,-2.16 -0.33,-1.97 -8.99,1.31 -17.84,6.9 -21.09,15.68 -3.23,8.73 -0.46,18.83 7.53,23.86 8.39,5.29 19.79,6.51 28.76,1.94 7.95,-4.05 12.94,-13.64 12.16,-22.66 z"
   class="st10" />
		<path
   style="fill:#651811"
   id="path542"
   d="m 254.79,211.68 c -2.59,-3.37 -6.56,-5.22 -10.71,-5.73 -1.27,-0.16 -1.26,1.85 0,2 3.47,0.42 6.87,2.06 9.06,4.83 2.17,2.75 3.04,6.68 1.78,10 -1.16,3.08 -3.99,5.23 -7.23,5.59 -1.62,0.18 -1.81,0.99 -2.33,2.38 -0.28,0.77 -0.69,1.5 -1.17,2.16 -0.07,0.1 -0.16,0.19 -0.24,0.28 0.24,-1.1 0.24,-2.26 -0.02,-3.41 -0.11,-0.5 -0.74,-0.87 -1.23,-0.7 -3.81,1.32 -8.07,1.95 -11.93,0.44 -3.51,-1.38 -6.14,-4.39 -6.43,-8.23 -0.3,-4.02 1.15,-8.13 4.63,-10.34 3.24,-2.06 7.84,-4.05 11.73,-3.25 1.26,0.26 1.79,-1.67 0.53,-1.93 -3.77,-0.78 -7.43,0.58 -10.82,2.14 -3.27,1.5 -5.92,3.64 -7.16,7.11 -1.2,3.37 -1.38,7.34 0.24,10.6 1.39,2.8 4.04,4.81 6.93,5.88 3.77,1.4 7.93,1 11.72,-0.15 0.03,0.65 -0.04,1.3 -0.25,1.93 -0.26,0.78 -1.11,1.53 -0.87,2.39 0.45,1.57 2.32,0.9 3.18,0.16 1.36,-1.17 2.39,-2.7 3.03,-4.37 0.12,-0.31 0.18,-0.88 0.47,-1.09 0.22,-0.16 0.84,-0.09 1.14,-0.14 0.84,-0.14 1.64,-0.41 2.41,-0.77 6.86,-3.16 7.91,-12.1 3.54,-17.78 z"
   class="st10" />
		<path
   style="fill:#651811"
   id="path544"
   d="m 240.79,212.59 c -0.18,-0.55 -0.68,-0.8 -1.23,-0.7 -2.16,0.42 -4.31,0.87 -6.46,1.35 -0.51,0.11 -0.86,0.73 -0.7,1.23 0.17,0.54 0.68,0.82 1.23,0.7 2.15,-0.48 4.3,-0.93 6.46,-1.35 0.51,-0.1 0.85,-0.74 0.7,-1.23 z"
   class="st10" />
		<path
   style="fill:#651811"
   id="path546"
   d="m 247.87,213.91 c -6.08,0.9 -12.14,1.98 -18.16,3.23 -1.26,0.26 -0.73,2.19 0.53,1.93 6.02,-1.25 12.08,-2.33 18.16,-3.23 1.27,-0.19 0.73,-2.11 -0.53,-1.93 z"
   class="st10" />
		<path
   style="fill:#651811"
   id="path548"
   d="m 246.47,218.29 c -4.99,1 -10.02,1.79 -15.08,2.35 -1.27,0.14 -1.28,2.14 0,2 5.24,-0.58 10.45,-1.39 15.61,-2.43 1.26,-0.24 0.73,-2.17 -0.53,-1.92 z"
   class="st10" />
		<path
   style="fill:#651811"
   id="path550"
   d="m 247.7,222.52 c -0.15,-0.56 -0.7,-0.79 -1.23,-0.7 -4.22,0.75 -8.44,1.43 -12.68,2.04 -0.54,0.08 -0.83,0.76 -0.7,1.23 0.16,0.57 0.69,0.78 1.23,0.7 4.24,-0.61 8.47,-1.29 12.68,-2.04 0.53,-0.09 0.83,-0.74 0.7,-1.23 z"
   class="st10" />
	</g>
	<g
   id="g572">
		<path
   style="fill:#ffdb83"
   id="path554"
   d="m 161.88,241.59 c 2.27,-3.22 2.82,-7.83 -0.41,-10.67 -1.54,-1.35 -3.62,-2.07 -5.66,-1.64 -1.12,0.24 -2.03,0.83 -2.81,1.58 -1.05,-1.33 -2.35,-2.47 -4.15,-2.5 -1.33,-0.02 -2.41,0.65 -3.07,1.65 -0.55,-0.03 -1.11,0.19 -1.37,0.72 -1.07,2.13 -1.59,4.52 -1.39,6.9 -1.04,0.85 -1.89,1.75 -1.93,3.34 -0.03,1.05 0.98,1.62 1.9,1.45 1.65,-0.3 3.25,-0.9 4.68,-1.79 1.08,-0.68 2.55,-2.46 3.92,-2.39 1.13,0.06 1.3,1.64 1.14,2.48 -0.32,1.59 -1.34,3.02 -2.01,4.48 -0.67,1.46 -1.47,3.24 -0.14,4.6 1.15,1.19 3.42,1.29 4.96,1.45 1.83,0.18 3.66,0.09 5.48,-0.21 1.44,-0.23 3.06,-0.57 4.06,-1.72 2.23,-2.6 -0.75,-5.83 -3.2,-7.73 z"
   class="st26" />
		<g
   id="g568">
			<path
   style="fill:#651811"
   id="path556"
   d="m 163.43,230.97 c -0.84,-0.98 -2.34,0.34 -1.51,1.32 1.22,1.43 0.9,4.64 -0.17,6.12 -1.21,1.68 -3.48,2.29 -5.46,2.07 -2.09,-0.23 -3.97,-1.48 -4.44,-3.6 -0.4,-1.79 0.14,-3.73 1.47,-5 1.61,-1.53 4.05,-2.11 6.21,-1.66 0.53,0.11 1.08,-0.06 1.27,-0.61 0.16,-0.46 -0.08,-1.16 -0.61,-1.27 -2.68,-0.56 -5.54,-0.09 -7.72,1.64 -2.05,1.62 -3.03,4.25 -2.67,6.82 0.84,6.04 9.28,7.54 13.1,3.35 2.03,-2.24 2.53,-6.84 0.53,-9.18 z"
   class="st10" />
			<path
   style="fill:#651811"
   id="path558"
   d="m 165.55,245.16 c -0.84,-1.89 -2.41,-3.37 -4.32,-4.15 -1.19,-0.49 -1.85,1.41 -0.66,1.89 1.48,0.6 2.61,1.79 3.24,3.25 0.29,0.67 0.45,1.42 0.44,2.15 0,0.57 -0.06,0.55 -0.61,0.63 -0.57,0.09 -1.13,0.17 -1.7,0.23 -3.98,0.48 -8.01,0.42 -11.99,-0.07 0.11,-1.37 0.44,-2.7 1.04,-3.96 0.6,-1.26 1.53,-2.86 3.01,-3.14 1.26,-0.24 0.87,-2.2 -0.4,-1.96 -1.95,0.37 -3.25,2.04 -4.13,3.7 -1.01,1.91 -1.55,4.02 -1.56,6.18 0,0.57 0.37,0.99 0.93,1.06 2.68,0.38 5.39,0.56 8.1,0.51 1.34,-0.02 2.68,-0.1 4.01,-0.22 1.26,-0.12 2.86,-0.11 4.04,-0.6 2.03,-0.82 1.24,-3.97 0.56,-5.5 z"
   class="st10" />
			<g
   id="g564">
				<path
   style="fill:#651811"
   id="path560"
   d="m 153.12,229.73 c -0.42,-0.65 -1.01,-1.16 -1.77,-1.39 -0.75,-0.22 -1.56,-0.19 -2.27,0.16 -0.7,0.35 -1.24,0.96 -1.54,1.69 -0.31,0.74 -0.25,1.56 0.04,2.29 0.31,0.8 1,1.43 1.79,1.73 0.49,0.19 1.12,-0.11 1.27,-0.61 0.16,-0.54 -0.09,-1.07 -0.61,-1.27 -0.02,-0.01 -0.04,-0.02 -0.06,-0.02 -0.05,-0.04 -0.12,-0.07 -0.17,-0.1 -0.02,-0.01 -0.04,-0.03 -0.06,-0.04 -0.04,-0.05 -0.1,-0.1 -0.13,-0.14 -0.03,-0.04 -0.07,-0.08 -0.1,-0.13 -0.02,-0.03 -0.03,-0.06 -0.05,-0.09 -0.03,-0.05 -0.05,-0.1 -0.07,-0.16 0,-0.01 -0.01,-0.01 -0.01,-0.02 0,-0.01 0,0 0,-0.01 -0.02,-0.08 -0.04,-0.15 -0.05,-0.23 0,-0.01 0,-0.03 -0.01,-0.04 0,-0.07 0,-0.14 0.01,-0.21 0,-0.01 0,-0.02 0,-0.03 0.03,-0.1 0.09,-0.21 0.12,-0.32 0.01,-0.02 0.03,-0.05 0.04,-0.07 0.04,-0.06 0.08,-0.11 0.12,-0.16 0.01,-0.01 0.03,-0.03 0.04,-0.04 0.06,-0.05 0.12,-0.1 0.18,-0.15 0,0 0,0 0,0 0,0 0,0 0,0 0.06,-0.03 0.12,-0.07 0.18,-0.09 0.02,-0.01 0.04,-0.02 0.06,-0.02 0.06,-0.02 0.12,-0.03 0.19,-0.04 0.02,0 0.04,-0.01 0.06,-0.01 0.06,0 0.13,0 0.18,0.01 0.07,0.01 0.15,0.03 0.22,0.03 -0.03,0 -0.04,0 -0.07,0 0.01,0 0.01,0 0.02,0 0.07,0.02 0.14,0.05 0.21,0.08 0.01,0.01 0.03,0.01 0.04,0.02 0.06,0.04 0.12,0.07 0.18,0.11 0.02,0.01 0.04,0.03 0.06,0.04 0.04,0.04 0.09,0.09 0.13,0.13 0.05,0.05 0.2,0.28 0.03,0.01 0.15,0.23 0.3,0.41 0.57,0.5 0.23,0.08 0.55,0.07 0.78,-0.05 0.43,-0.26 0.76,-0.89 0.45,-1.36 z"
   class="st10" />
				<path
   style="fill:#651811"
   id="path562"
   d="m 150.68,230.22 c -0.08,-0.01 -0.14,-0.01 0,0 z"
   class="st10" />
			</g>
			<path
   style="fill:#651811"
   id="path566"
   d="m 150.74,235.71 c -0.14,-1.28 -2.1,-0.87 -1.96,0.4 0.19,1.78 -1.2,3.36 -2.73,4.05 -1.34,0.6 -2.84,0.62 -4.3,0.4 1.7,-2.05 1.68,-5.22 2.03,-7.82 0.21,-1.53 0.71,-3.2 2.11,-4.04 1.24,-0.75 2.72,-0.78 4.01,-0.16 0.49,0.24 1.11,-0.15 1.27,-0.61 0.2,-0.56 -0.13,-1.04 -0.61,-1.27 -3.18,-1.55 -6.91,0.2 -8.17,3.38 -0.75,1.9 -0.68,3.97 -0.95,5.96 -0.22,1.64 -0.81,3.44 -2.43,4.18 -0.76,0.35 -0.71,1.6 0.12,1.84 2.63,0.76 5.66,1.11 8.17,-0.24 2.23,-1.22 3.71,-3.52 3.44,-6.07 z"
   class="st10" />
		</g>
		<path
   style="fill:#651811"
   id="path570"
   d="m 163.81,235.54 c -2.31,-1.04 -4.02,-3.03 -4.63,-5.5 -0.25,-0.99 -1.64,-0.91 -1.93,0 -0.87,2.76 -2.11,6.08 -5.18,6.98 -1.23,0.36 -0.71,2.29 0.53,1.93 2.9,-0.85 4.56,-3.24 5.67,-5.87 1.03,1.82 2.61,3.32 4.53,4.18 0.49,0.22 1.08,0.14 1.37,-0.36 0.25,-0.42 0.14,-1.14 -0.36,-1.36 z"
   class="st10" />
	</g>
	<g
   id="g590">
		<path
   style="fill:#ffdb83"
   id="path574"
   d="m 109.92,227.43 c -0.97,-1.06 -1.95,-2.12 -2.92,-3.17 -0.49,-0.53 -0.96,-1.11 -1.48,-1.61 -0.09,-0.08 -0.18,-0.15 -0.28,-0.23 0.79,-0.35 1.48,-0.91 1.86,-1.62 0.12,-0.23 0.21,-0.46 0.29,-0.69 0.8,-0.69 1.43,-1.54 1.7,-2.6 0.49,-1.94 -0.4,-3.98 -2.11,-4.97 -0.06,-0.03 -0.12,-0.06 -0.18,-0.09 -1.53,-2.68 -5.23,-3.26 -7.75,-1.31 -2.45,1.89 -2.88,5.41 -2.22,8.24 0.4,1.72 2.01,2.73 3.66,2.91 -1.69,1.2 -3.11,2.59 -4.34,4.26 -0.52,0.7 -0.97,1.45 -1.36,2.24 -0.33,0.67 -0.69,1.35 -0.71,2.11 -0.01,0.38 0.07,0.74 0.2,1.09 0,0 0,0 0,0 3.27,0.06 6.5,0.71 9.77,0.58 1.59,-0.31 3.18,-0.63 4.76,-0.95 1.95,-0.41 2.3,-2.9 1.11,-4.19 z"
   class="st26" />
		<g
   id="g588">
			<path
   style="fill:#651811"
   id="path576"
   d="m 109.3,212.1 c -0.84,-0.98 -2.34,0.34 -1.51,1.32 1.22,1.43 0.9,4.64 -0.17,6.12 -1.21,1.68 -3.48,2.29 -5.46,2.07 -2.09,-0.23 -3.97,-1.48 -4.44,-3.6 -0.4,-1.79 0.14,-3.73 1.47,-5 1.61,-1.53 4.05,-2.11 6.21,-1.66 0.53,0.11 1.08,-0.06 1.27,-0.61 0.16,-0.46 -0.08,-1.16 -0.61,-1.27 -2.68,-0.56 -5.54,-0.09 -7.72,1.64 -2.05,1.62 -3.03,4.25 -2.67,6.82 0.84,6.04 9.28,7.54 13.1,3.35 2.02,-2.24 2.53,-6.84 0.53,-9.18 z"
   class="st10" />
			<path
   style="fill:#651811"
   id="path578"
   d="m 111.41,226.29 c -0.84,-1.89 -2.41,-3.37 -4.32,-4.15 -1.19,-0.49 -1.85,1.41 -0.66,1.89 1.48,0.6 2.61,1.79 3.24,3.25 0.29,0.67 0.45,1.42 0.44,2.15 0,0.57 -0.06,0.55 -0.61,0.63 -0.57,0.09 -1.13,0.17 -1.7,0.23 -3.98,0.48 -8.01,0.42 -11.99,-0.07 0.11,-1.37 0.44,-2.7 1.04,-3.96 0.6,-1.26 1.53,-2.86 3.01,-3.14 1.26,-0.24 0.87,-2.2 -0.4,-1.96 -1.95,0.37 -3.25,2.04 -4.13,3.7 -1.01,1.91 -1.55,4.02 -1.56,6.18 0,0.57 0.37,0.99 0.93,1.06 2.68,0.38 5.39,0.56 8.1,0.51 1.34,-0.02 2.68,-0.1 4.01,-0.22 1.26,-0.12 2.86,-0.11 4.04,-0.6 2.03,-0.82 1.25,-3.97 0.56,-5.5 z"
   class="st10" />
			<g
   id="g582">
				<path
   style="fill:#651811"
   id="path580"
   d="m 98.98,211.82 c -0.08,-0.01 -0.14,-0.01 0,0 z"
   class="st10" />
			</g>
			<path
   style="fill:#651811"
   id="path584"
   d="m 108.64,219.74 c -0.94,-1.86 -1.13,-4.01 -0.58,-6.01 0.16,-0.58 -0.31,-1.33 -0.96,-1.27 -2.72,0.25 -5.47,0.18 -8.17,-0.25 -0.53,-0.09 -1.08,0.14 -1.23,0.7 -0.13,0.48 0.16,1.14 0.7,1.23 2.48,0.4 4.97,0.53 7.47,0.39 -0.29,2.12 0.07,4.29 1.04,6.22 0.24,0.48 0.92,0.62 1.37,0.36 0.49,-0.29 0.6,-0.89 0.36,-1.37 z"
   class="st10" />
			<path
   style="fill:#651811"
   id="path586"
   d="m 107.17,222.83 c -0.57,-0.16 -1.03,0.2 -1.23,0.7 -0.16,0.4 -0.38,0.8 -0.62,1.17 -0.11,0.17 -0.21,0.32 -0.32,0.45 0,0 -0.04,0.04 -0.07,0.07 -0.11,-0.16 -0.22,-0.33 -0.32,-0.5 -0.22,-0.37 -0.43,-0.76 -0.44,-1.13 -0.05,-1.11 -1.64,-1.37 -1.96,-0.27 -0.13,0.46 -0.28,0.84 -0.51,1.26 -0.07,0.13 -0.15,0.24 -0.23,0.37 -0.03,-0.04 -0.06,-0.09 -0.11,-0.16 -0.05,-0.09 -0.1,-0.19 -0.15,-0.29 -0.02,-0.05 -0.05,-0.1 -0.07,-0.15 0.03,0.06 0.02,0.06 -0.01,-0.02 -0.22,-0.53 -0.41,-1.07 -0.59,-1.62 -0.17,-0.51 -0.69,-0.85 -1.23,-0.7 -0.5,0.14 -0.87,0.71 -0.7,1.23 0.24,0.75 0.51,1.5 0.85,2.22 0.32,0.69 0.84,1.32 1.58,1.58 0.89,0.32 1.58,-0.18 2.09,-0.92 0.39,0.59 0.85,1.12 1.62,1.19 0.88,0.08 1.52,-0.53 2.01,-1.18 0.47,-0.64 0.82,-1.34 1.12,-2.07 0.19,-0.5 -0.23,-1.1 -0.71,-1.23 z"
   class="st10" />
		</g>
	</g>
</g>
</svg>